<svg id="target" xmlns="http://www.w3.org/2000/svg" viewBox="0 0 16 16"><title>unicons-things-16px-database</title><line x1="6.5" y1="8.5" x2="6.5" y2="9.5" fill="none" stroke="currentColor" stroke-linecap="square" stroke-linejoin="round"/><line x1="6.5" y1="5.5" x2="6.5" y2="6.5" fill="none" stroke="currentColor" stroke-linecap="square" stroke-linejoin="round"/><line x1="6.5" y1="11.5" x2="6.5" y2="12.5" fill="none" stroke="currentColor" stroke-linecap="square" stroke-linejoin="round"/><path d="M3.5,13c0,.828,2.239,1.5,5,1.5s5-.672,5-1.5V4c0-.828-2.239-1.5-5-1.5s-5,.672-5,1.5Z" fill="none" stroke="currentColor" stroke-linecap="square" stroke-linejoin="round"/><path d="M13.5,4c0,.828-2.239,1.5-5,1.5s-5-.672-5-1.5" fill="none" stroke="currentColor" stroke-linejoin="round"/><path d="M13.5,7c0,.828-2.239,1.5-5,1.5s-5-.672-5-1.5" fill="none" stroke="currentColor" stroke-linejoin="round"/><path d="M13.5,10c0,.828-2.239,1.5-5,1.5s-5-.672-5-1.5" fill="none" stroke="currentColor" stroke-linejoin="round"/></svg>