<svg id="target" xmlns="http://www.w3.org/2000/svg" viewBox="0 0 16 16"><title>unicons-docs-16px-file-photo</title><polygon points="11.5 7.22 11.5 12.5 4.5 12.5 4.5 9.843 6.538 7.605 8.327 9.528 11.5 7.22" fill="none" stroke="currentColor" stroke-linecap="square" stroke-linejoin="round"/><circle cx="5.5" cy="4.5" r="1" fill="none" stroke="currentColor" stroke-linecap="square" stroke-linejoin="round"/><path d="M13.187,4.454,10.352,1.773A1,1,0,0,0,9.665,1.5H3.5a1,1,0,0,0-1,1v11a1,1,0,0,0,1,1h9a1,1,0,0,0,1-1V5.181A1,1,0,0,0,13.187,4.454Z" fill="none" stroke="currentColor" stroke-linecap="square" stroke-linejoin="round"/></svg>