<svg id="target" xmlns="http://www.w3.org/2000/svg" viewBox="0 0 16 16"><title>unicons-docs-16px-file-jpg</title><path d="M3.41,9.131a1.656,1.656,0,0,1-.12.627,1.271,1.271,0,0,1-.355.494,1.777,1.777,0,0,1-.6.333,2.793,2.793,0,0,1-.872.118q-.352,0-.662-.025A4.727,4.727,0,0,1,.252,10.6V9.576H.375c.109.041.223.079.342.115a1.627,1.627,0,0,0,.454.053,1.271,1.271,0,0,0,.552-.1A.575.575,0,0,0,2,9.38a.969.969,0,0,0,.089-.368c.007-.133.011-.3.011-.512V6.472H.932V5.536H3.41Z" fill="currentColor"/><path d="M9.264,7.142a1.921,1.921,0,0,1-.119.668,1.486,1.486,0,0,1-.342.548,2.086,2.086,0,0,1-.679.455,2.456,2.456,0,0,1-.931.154H6.376v1.658H5.063V5.536h2.16a3.42,3.42,0,0,1,.818.083,1.928,1.928,0,0,1,.59.251,1.344,1.344,0,0,1,.47.516A1.626,1.626,0,0,1,9.264,7.142Zm-1.356.029a.6.6,0,0,0-.116-.37.635.635,0,0,0-.27-.216,1.226,1.226,0,0,0-.4-.091c-.13-.005-.3-.008-.52-.008H6.376V8.007h.376A3.06,3.06,0,0,0,7.3,7.966.777.777,0,0,0,7.668,7.8a.628.628,0,0,0,.183-.261A1.056,1.056,0,0,0,7.907,7.171Z" fill="currentColor"/><path d="M15.115,10.334a6.893,6.893,0,0,1-.906.265,4.94,4.94,0,0,1-1.124.131,2.817,2.817,0,0,1-2.034-.706,2.579,2.579,0,0,1-.734-1.95,2.553,2.553,0,0,1,.742-1.912,2.828,2.828,0,0,1,2.067-.727,4.882,4.882,0,0,1,.957.091,4.256,4.256,0,0,1,1.012.36V7.081h-.147c-.063-.048-.156-.116-.279-.2a3.517,3.517,0,0,0-.355-.224,2.367,2.367,0,0,0-.463-.188,1.985,1.985,0,0,0-.562-.079,1.854,1.854,0,0,0-.633.1,1.4,1.4,0,0,0-.85.836,1.979,1.979,0,0,0-.125.729,1.751,1.751,0,0,0,.448,1.292,1.794,1.794,0,0,0,1.323.448c.05,0,.105,0,.166,0s.115-.006.165-.01v-1H12.768v-.96h2.348Z" fill="currentColor"/><path d="M2.5,3.5v-1a1,1,0,0,1,1-1h6.506a1,1,0,0,1,.707.293L12.06,3.14" fill="none" stroke="currentColor" stroke-linecap="square" stroke-linejoin="round"/><path d="M13.5,12.5v1a1,1,0,0,1-1,1h-9a1,1,0,0,1-1-1v-1" fill="none" stroke="currentColor" stroke-linecap="square" stroke-linejoin="round"/></svg>