<svg id="target" xmlns="http://www.w3.org/2000/svg" viewBox="0 0 16 16"><title>unicons-docs-16px-file-pdf-2</title><path d="M4.559,7.142a1.945,1.945,0,0,1-.12.668,1.486,1.486,0,0,1-.342.548,2.076,2.076,0,0,1-.679.455,2.458,2.458,0,0,1-.932.154H1.67v1.658H.357V5.536h2.16a3.415,3.415,0,0,1,.818.083,1.928,1.928,0,0,1,.59.251,1.352,1.352,0,0,1,.47.516A1.626,1.626,0,0,1,4.559,7.142ZM3.2,7.171a.6.6,0,0,0-.116-.37.62.62,0,0,0-.271-.216,1.221,1.221,0,0,0-.4-.091c-.13-.005-.3-.008-.52-.008H1.67V8.007h.376A3.053,3.053,0,0,0,2.6,7.966.786.786,0,0,0,2.962,7.8a.62.62,0,0,0,.183-.261A1.056,1.056,0,0,0,3.2,7.171Z" fill="currentColor"/><path d="M10.717,8.085a2.5,2.5,0,0,1-.324,1.273,2.374,2.374,0,0,1-.82.863,2.524,2.524,0,0,1-.817.314,5.449,5.449,0,0,1-1.053.089H5.908V5.536H7.754a4.828,4.828,0,0,1,1.072.1,2.513,2.513,0,0,1,.76.3,2.309,2.309,0,0,1,.828.866A2.611,2.611,0,0,1,10.717,8.085Zm-1.357-.01a1.875,1.875,0,0,0-.182-.859,1.286,1.286,0,0,0-.58-.559,1.527,1.527,0,0,0-.412-.135,4.173,4.173,0,0,0-.634-.036H7.221V9.671h.331a3.971,3.971,0,0,0,.687-.042,1.5,1.5,0,0,0,.428-.156,1.27,1.27,0,0,0,.526-.548A1.922,1.922,0,0,0,9.359,8.075Z" fill="currentColor"/><path d="M15.785,6.52H13.443v.947h2.171v.984H13.443v2.174h-1.3V5.536h3.646Z" fill="currentColor"/><path d="M2.5,3.5v-1a1,1,0,0,1,1-1h6.506a1,1,0,0,1,.707.293L12.06,3.14" fill="none" stroke="currentColor" stroke-linecap="square" stroke-linejoin="round"/><path d="M13.5,12.5v1a1,1,0,0,1-1,1h-9a1,1,0,0,1-1-1v-1" fill="none" stroke="currentColor" stroke-linecap="square" stroke-linejoin="round"/></svg>