<svg id="target" xmlns="http://www.w3.org/2000/svg" viewBox="0 0 16 16"><title>unicons-docs-16px-file-xlsx</title><path d="M5.329,10.625H3.81L2.715,8.955,1.6,10.625H.147l1.8-2.564L.186,5.536H1.7L2.759,7.12,3.848,5.536H5.3L3.525,8.008Z" fill="currentColor"/><path d="M10.151,10.625H6.48V5.536H7.793v4.1h2.358Z" fill="currentColor"/><path d="M15.436,9.025a1.45,1.45,0,0,1-.639,1.222,2.854,2.854,0,0,1-1.73.47,4.839,4.839,0,0,1-1.1-.111,5.69,5.69,0,0,1-.881-.282V9.1h.144a3.04,3.04,0,0,0,.911.5,2.956,2.956,0,0,0,.969.174,3.138,3.138,0,0,0,.314-.021,1.268,1.268,0,0,0,.318-.068.818.818,0,0,0,.248-.154.361.361,0,0,0,.1-.273.37.37,0,0,0-.142-.289.988.988,0,0,0-.416-.187c-.191-.045-.393-.088-.605-.128a4.647,4.647,0,0,1-.6-.152A1.884,1.884,0,0,1,11.4,7.94a1.391,1.391,0,0,1-.281-.887,1.365,1.365,0,0,1,.637-1.161,2.785,2.785,0,0,1,1.639-.449,5.061,5.061,0,0,1,.994.1,4.6,4.6,0,0,1,.849.244V6.958h-.14a2.71,2.71,0,0,0-.754-.412,2.589,2.589,0,0,0-.911-.166A2.376,2.376,0,0,0,13.1,6.4a1.286,1.286,0,0,0-.312.083.606.606,0,0,0-.229.156.338.338,0,0,0-.1.237.354.354,0,0,0,.154.31,1.721,1.721,0,0,0,.58.2l.539.113a5.57,5.57,0,0,1,.555.15,1.851,1.851,0,0,1,.863.521A1.284,1.284,0,0,1,15.436,9.025Z" fill="currentColor"/><path d="M2.5,3.5v-1a1,1,0,0,1,1-1h6.506a1,1,0,0,1,.707.293L12.06,3.14" fill="none" stroke="currentColor" stroke-linecap="square" stroke-linejoin="round"/><path d="M13.5,12.5v1a1,1,0,0,1-1,1h-9a1,1,0,0,1-1-1v-1" fill="none" stroke="currentColor" stroke-linecap="square" stroke-linejoin="round"/></svg>