<svg id="target" xmlns="http://www.w3.org/2000/svg" viewBox="0 0 16 16"><title>unicons-docs-16px-file-csv</title><path d="M2.5,3.5v-1a1,1,0,0,1,1-1h6.506a1,1,0,0,1,.707.293L12.06,3.14" fill="none" stroke="currentColor" stroke-linecap="square" stroke-linejoin="round"/><path d="M13.5,12.5v1a1,1,0,0,1-1,1h-9a1,1,0,0,1-1-1v-1" fill="none" stroke="currentColor" stroke-linecap="square" stroke-linejoin="round"/><path d="M2.712,10.724a3.154,3.154,0,0,1-1.047-.167A2.169,2.169,0,0,1,.3,9.23a3.18,3.18,0,0,1-.19-1.145A3.161,3.161,0,0,1,.3,6.988a2.347,2.347,0,0,1,.526-.844,2.233,2.233,0,0,1,.822-.523,3.017,3.017,0,0,1,1.071-.185,4.148,4.148,0,0,1,.579.036,3.951,3.951,0,0,1,.477.094,3.392,3.392,0,0,1,.416.146c.124.053.233.1.326.148V7.094h-.15C4.3,7.04,4.219,6.975,4.122,6.9a3.217,3.217,0,0,0-.33-.221A2.3,2.3,0,0,0,3.386,6.5a1.439,1.439,0,0,0-.468-.075,1.585,1.585,0,0,0-.526.087A1.284,1.284,0,0,0,1.93,6.8a1.421,1.421,0,0,0-.326.515,2.143,2.143,0,0,0-.125.778,2.068,2.068,0,0,0,.135.8,1.4,1.4,0,0,0,.34.5,1.244,1.244,0,0,0,.465.268,1.694,1.694,0,0,0,.506.08A1.618,1.618,0,0,0,3.4,9.668a1.856,1.856,0,0,0,.433-.194,2.887,2.887,0,0,0,.311-.211c.1-.075.174-.14.236-.194h.137v1.217c-.127.057-.25.11-.366.161a3.02,3.02,0,0,1-.366.13,4.355,4.355,0,0,1-.468.109A3.761,3.761,0,0,1,2.712,10.724Z" fill="currentColor"/><path d="M9.972,9.025a1.45,1.45,0,0,1-.638,1.222,2.856,2.856,0,0,1-1.731.47,4.85,4.85,0,0,1-1.1-.111,5.718,5.718,0,0,1-.88-.282V9.1h.144a3.043,3.043,0,0,0,.911.5,2.964,2.964,0,0,0,.969.174,3.147,3.147,0,0,0,.314-.021,1.264,1.264,0,0,0,.318-.068.8.8,0,0,0,.248-.154.361.361,0,0,0,.1-.273.367.367,0,0,0-.142-.289.984.984,0,0,0-.415-.187q-.287-.068-.606-.128a4.681,4.681,0,0,1-.6-.152,1.885,1.885,0,0,1-.924-.565,1.386,1.386,0,0,1-.282-.887,1.365,1.365,0,0,1,.638-1.161,2.782,2.782,0,0,1,1.639-.449,5.051,5.051,0,0,1,.993.1,4.6,4.6,0,0,1,.849.244V6.958H9.63a2.7,2.7,0,0,0-.754-.412,2.584,2.584,0,0,0-.911-.166,2.359,2.359,0,0,0-.327.022,1.274,1.274,0,0,0-.312.083.6.6,0,0,0-.229.156.34.34,0,0,0-.1.237.356.356,0,0,0,.154.31,1.733,1.733,0,0,0,.581.2l.538.113a5.62,5.62,0,0,1,.556.15,1.858,1.858,0,0,1,.863.521A1.283,1.283,0,0,1,9.972,9.025Z" fill="currentColor"/><path d="M15.9,5.536l-1.856,5.089h-1.47L10.723,5.536H12.1l1.23,3.573,1.23-3.573Z" fill="currentColor"/></svg>