<svg id="target" xmlns="http://www.w3.org/2000/svg" viewBox="0 0 16 16"><title>unicons-things-16px-gift</title><rect x="1.5" y="4.5" width="13" height="2" fill="none" stroke="currentColor" stroke-linecap="square" stroke-linejoin="round"/><polyline points="13.5 7.5 13.5 13.5 2.5 13.5 2.5 7.5" fill="none" stroke="currentColor" stroke-linecap="square" stroke-linejoin="round"/><line x1="6.5" y1="6.5" x2="6.5" y2="4.5" fill="none" stroke="currentColor" stroke-linecap="square" stroke-linejoin="round"/><line x1="9.5" y1="4.5" x2="9.5" y2="6.5" fill="none" stroke="currentColor" stroke-linecap="square" stroke-linejoin="round"/><line x1="6.5" y1="13.5" x2="6.5" y2="7.5" fill="none" stroke="currentColor" stroke-linecap="square" stroke-linejoin="round"/><line x1="9.5" y1="7.5" x2="9.5" y2="13.5" fill="none" stroke="currentColor" stroke-linecap="square" stroke-linejoin="round"/><path d="M7.574,4.633a3.127,3.127,0,0,0-.912-1.662C5.726,2.035,4.49,1.753,3.9,2.335c-.492.5-.366,1.452.246,2.3" fill="none" stroke="currentColor" stroke-linejoin="round"/><path d="M11.852,4.633c.612-.846.738-1.8.246-2.3-.588-.582-1.824-.3-2.76.636a3.127,3.127,0,0,0-.912,1.662" fill="none" stroke="currentColor" stroke-linejoin="round"/></svg>