<svg id="target" xmlns="http://www.w3.org/2000/svg" viewBox="0 0 16 16"><title>unicons-things-16px-hardware</title><rect x="1.5" y="6.5" width="14" height="8" fill="none" stroke="currentColor" stroke-linejoin="round"/><line x1="5" y1="12.5" x2="12" y2="12.5" fill="none" stroke="currentColor" stroke-linejoin="round"/><line x1="5" y1="10.5" x2="6" y2="10.5" fill="none" stroke="currentColor" stroke-linejoin="round"/><line x1="13" y1="12.5" x2="14" y2="12.5" fill="none" stroke="currentColor" stroke-linejoin="round"/><line x1="13" y1="10.5" x2="14" y2="10.5" fill="none" stroke="currentColor" stroke-linejoin="round"/><line x1="5" y1="8.5" x2="6" y2="8.5" fill="none" stroke="currentColor" stroke-linejoin="round"/><line x1="3" y1="12.5" x2="4" y2="12.5" fill="none" stroke="currentColor" stroke-linejoin="round"/><line x1="3" y1="10.5" x2="4" y2="10.5" fill="none" stroke="currentColor" stroke-linejoin="round"/><line x1="3" y1="8.5" x2="4" y2="8.5" fill="none" stroke="currentColor" stroke-linejoin="round"/><line x1="7" y1="10.5" x2="8" y2="10.5" fill="none" stroke="currentColor" stroke-linejoin="round"/><line x1="7" y1="8.5" x2="8" y2="8.5" fill="none" stroke="currentColor" stroke-linejoin="round"/><line x1="9" y1="10.5" x2="10" y2="10.5" fill="none" stroke="currentColor" stroke-linejoin="round"/><line x1="9" y1="8.5" x2="10" y2="8.5" fill="none" stroke="currentColor" stroke-linejoin="round"/><line x1="11" y1="10.5" x2="12" y2="10.5" fill="none" stroke="currentColor" stroke-linejoin="round"/><line x1="11" y1="8.5" x2="12" y2="8.5" fill="none" stroke="currentColor" stroke-linejoin="round"/><line x1="13" y1="8.5" x2="14" y2="8.5" fill="none" stroke="currentColor" stroke-linejoin="round"/><path d="M13,1.5H10.435a1,1,0,0,0-.984.821L9,4.8" fill="none" stroke="currentColor" stroke-linejoin="round"/></svg>