<svg id="target" xmlns="http://www.w3.org/2000/svg" viewBox="0 0 16 16"><title>unicons-interface-16px-microphone-muted</title><line x1="1.73" y1="1.73" x2="14.27" y2="14.27" fill="none" stroke="currentColor" stroke-linecap="square" stroke-linejoin="round"/><path d="M7.5,10.5h-1a1,1,0,0,1-1-1v-1" fill="none" stroke="currentColor" stroke-linecap="square" stroke-linejoin="round"/><path d="M5.5,2.5a1,1,0,0,1,1-1h4a1,1,0,0,1,1,1v6" fill="none" stroke="currentColor" stroke-linecap="square" stroke-linejoin="round"/><path d="M9.5,12.5h-4a2,2,0,0,1-2-2v-2" fill="none" stroke="currentColor" stroke-linecap="square" stroke-linejoin="round"/><line x1="13.5" y1="8.5" x2="13.5" y2="10.5" fill="none" stroke="currentColor" stroke-linecap="square" stroke-linejoin="round"/><line x1="3.5" y1="14.5" x2="11.5" y2="14.5" fill="none" stroke="currentColor" stroke-linecap="square" stroke-linejoin="round"/><line x1="8.5" y1="12.5" x2="8.5" y2="14.5" fill="none" stroke="currentColor" stroke-linecap="square" stroke-linejoin="round"/><line x1="7.5" y1="3.5" x2="9.5" y2="3.5" fill="none" stroke="currentColor" stroke-linecap="square" stroke-linejoin="round"/><line x1="8.5" y1="5.5" x2="9.5" y2="5.5" fill="none" stroke="currentColor" stroke-linecap="square" stroke-linejoin="round"/></svg>