<svg id="target" xmlns="http://www.w3.org/2000/svg" viewBox="0 0 16 16"><title>unicons-things-16px-music-note</title><path d="M12.5,8.5V2.921a.336.336,0,0,0-.4-.33L6.779,3.758A.346.346,0,0,0,6.5,4.1v6.4" fill="none" stroke="currentColor" stroke-linecap="square" stroke-linejoin="round"/><path d="M4.5,9.5h2a0,0,0,0,1,0,0v2a2,2,0,0,1-2,2h0a2,2,0,0,1-2-2v0a2,2,0,0,1,2-2Z" fill="none" stroke="currentColor" stroke-linecap="square" stroke-linejoin="round"/><path d="M10.5,8.5h2a0,0,0,0,1,0,0v2a2,2,0,0,1-2,2h0a2,2,0,0,1-2-2v0A2,2,0,0,1,10.5,8.5Z" fill="none" stroke="currentColor" stroke-linecap="square" stroke-linejoin="round"/></svg>