<svg id="target" xmlns="http://www.w3.org/2000/svg" viewBox="0 0 16 16"><title>unicons-transportation-16px-plane</title><path d="M11.5,11.5h1.615a1,1,0,0,0,.707-.293l1-1a1,1,0,0,0,0-1.414l-1-1a1,1,0,0,0-.707-.293H3.64l-1.32-3H.5l1.482,5.519A2,2,0,0,0,3.913,11.5H4.5" fill="none" stroke="currentColor" stroke-linecap="square" stroke-linejoin="round"/><path d="M10.24,9.88l-3,4.2a1,1,0,0,1-.814.419H4.3L6.94,9.88" fill="none" stroke="currentColor" stroke-linecap="square" stroke-linejoin="round"/><path d="M6.28,7.48,4.96,5.5H7.131a1,1,0,0,1,.768.36L9.25,7.48" fill="none" stroke="currentColor" stroke-linejoin="round"/><line x1="14.5" y1="9.5" x2="13.5" y2="9.5" fill="none" stroke="currentColor" stroke-linecap="square" stroke-linejoin="round"/></svg>