<svg id="target" xmlns="http://www.w3.org/2000/svg" viewBox="0 0 16 16"><title>unicons-interface-16px-settings</title><circle cx="7.5" cy="7.5" r="2" fill="none" stroke="currentColor" stroke-linecap="square" stroke-linejoin="round"/><path d="M14.5,8.5l-1.626.326a1,1,0,0,0-.635,1.536l.92,1.378-1.42,1.42-1.378-.92a1,1,0,0,0-1.536.635L8.5,14.5h-2l-.326-1.626a1,1,0,0,0-1.536-.635l-1.378.92L1.84,11.74l.92-1.378a1,1,0,0,0-.635-1.536L.5,8.5v-2l1.626-.326A1,1,0,0,0,2.76,4.638L1.84,3.26,3.26,1.84l1.378.92a1,1,0,0,0,1.536-.635L6.5.5h2l.326,1.626a1,1,0,0,0,1.536.635l1.378-.92,1.42,1.42-.92,1.378a1,1,0,0,0,.635,1.536L14.5,6.5Z" fill="none" stroke="currentColor" stroke-linecap="square" stroke-linejoin="round"/></svg>