<svg id="target" xmlns="http://www.w3.org/2000/svg" viewBox="0 0 16 16"><title>unicons-nature-16px-snowflake</title><line x1="8.5" x2="8.5" y2="2" fill="none" stroke="currentColor" stroke-linejoin="round"/><line x1="8.5" y1="5" x2="8.5" y2="11" fill="none" stroke="currentColor" stroke-linejoin="round"/><polyline points="10.5 2.5 8.5 3.5 6.5 2.5" fill="none" stroke="currentColor" stroke-linejoin="round"/><line x1="8.5" y1="16" x2="8.5" y2="14" fill="none" stroke="currentColor" stroke-linejoin="round"/><polyline points="6.5 13.5 8.5 12.5 10.5 13.5" fill="none" stroke="currentColor" stroke-linejoin="round"/><line x1="1.599" y1="3.984" x2="3.331" y2="4.984" fill="none" stroke="currentColor" stroke-linejoin="round"/><line x1="5.929" y1="6.484" x2="11.125" y2="9.484" fill="none" stroke="currentColor" stroke-linejoin="round"/><polyline points="4.764 3.502 4.63 5.734 2.764 6.966" fill="none" stroke="currentColor" stroke-linejoin="round"/><line x1="15.455" y1="11.984" x2="13.723" y2="10.984" fill="none" stroke="currentColor" stroke-linejoin="round"/><polyline points="12.29 12.466 12.424 10.234 14.29 9.002" fill="none" stroke="currentColor" stroke-linejoin="round"/><line x1="1.599" y1="11.953" x2="3.331" y2="10.953" fill="none" stroke="currentColor" stroke-linejoin="round"/><line x1="5.929" y1="9.453" x2="11.125" y2="6.453" fill="none" stroke="currentColor" stroke-linejoin="round"/><polyline points="2.764 8.971 4.63 10.203 4.764 12.435" fill="none" stroke="currentColor" stroke-linejoin="round"/><line x1="15.455" y1="3.953" x2="13.723" y2="4.953" fill="none" stroke="currentColor" stroke-linejoin="round"/><polyline points="14.29 6.935 12.424 5.703 12.29 3.471" fill="none" stroke="currentColor" stroke-linejoin="round"/></svg>