<svg id="target" xmlns="http://www.w3.org/2000/svg" viewBox="0 0 16 16"><title>unicons-transportation-16px-truck</title><polygon points="13.5 9.346 13.5 13.5 2.5 13.5 2.5 9.346 2.5 3.5 13.5 3.5 13.5 9.346" fill="none" stroke="currentColor" stroke-linecap="square" stroke-linejoin="round"/><circle cx="5" cy="11" r="0.5" fill="none" stroke="currentColor" stroke-linecap="square" stroke-linejoin="round"/><circle cx="11" cy="11" r="0.5" fill="none" stroke="currentColor" stroke-linecap="square" stroke-linejoin="round"/><rect x="4.5" y="5.5" width="7" height="2" fill="none" stroke="currentColor" stroke-linecap="square" stroke-linejoin="round"/><polyline points="0.5 12.5 0.5 0.5 15.5 0.5 15.5 12.5" fill="none" stroke="currentColor" stroke-linecap="square" stroke-linejoin="round"/><path d="M2.5,13.5h3a0,0,0,0,1,0,0v1a1,1,0,0,1-1,1h-1a1,1,0,0,1-1-1v-1A0,0,0,0,1,2.5,13.5Z" fill="none" stroke="currentColor" stroke-linecap="square" stroke-linejoin="round"/><path d="M10.5,13.5h3a0,0,0,0,1,0,0v1a1,1,0,0,1-1,1h-1a1,1,0,0,1-1-1v-1A0,0,0,0,1,10.5,13.5Z" fill="none" stroke="currentColor" stroke-linecap="square" stroke-linejoin="round"/></svg>