<svg id="target" xmlns="http://www.w3.org/2000/svg" viewBox="0 0 16 16"><title>unicons-things-16px-wrench</title><path d="M3.475,11.565a.027.027,0,0,1-.019-.008Z" fill="#112"/><path d="M3.474,11.014a.526.526,0,1,0,.372.154.524.524,0,0,0-.372-.154Z" fill="currentColor"/><path d="M12.459,8.071a3.975,3.975,0,0,1-4.29.9L4.555,13.2a1.94,1.94,0,0,1-2.847.112l0,0a1.94,1.94,0,0,1,.112-2.847l4.23-3.614A4,4,0,0,1,11.233,1.66L8.424,4.469,10.545,6.59l2.809-2.809A3.974,3.974,0,0,1,12.459,8.071Z" fill="none" stroke="currentColor" stroke-linecap="square" stroke-miterlimit="10" fill-rule="evenodd"/></svg>