<svg id="Layer_1" data-name="Layer 1" xmlns="http://www.w3.org/2000/svg" viewBox="0 0 24 24"><title>unity-docs-24px-check-out-doc-1</title><path d="M9.43,17.28l2.15-2.11a.59.59,0,0,1,.84,0l2.15,2.11" style="fill:none;stroke:#112;stroke-linecap:square;stroke-linejoin:round"/><line x1="12" y1="15.35" x2="12" y2="23.5" style="fill:none;stroke:#112;stroke-linecap:square;stroke-linejoin:round"/><path d="M9,23.5H4.5a1,1,0,0,1-1-1v-2" style="fill:none;stroke:#112;stroke-linecap:square;stroke-linejoin:round"/><path d="M20.5,20.5v2a1,1,0,0,1-1,1H15" style="fill:none;stroke:#112;stroke-linecap:square;stroke-linejoin:round"/><path d="M8,12.5h8a1,1,0,0,0,1-1V3.91a1,1,0,0,0-.29-.71L14.29.79A1,1,0,0,0,13.59.5H8a1,1,0,0,0-1,1v10A1,1,0,0,0,8,12.5Z" style="fill:none;stroke:#112;stroke-linecap:square;stroke-linejoin:round"/></svg>