<svg id="Layer_1" data-name="Layer 1" xmlns="http://www.w3.org/2000/svg" viewBox="0 0 24 24"><title>unity-docs-24px-file-png</title><rect x="1" y="8" width="22" height="9" rx="1" ry="1" style="fill:none;stroke:#112;stroke-linecap:square;stroke-linejoin:round"/><path d="M5.66,10.91a.46.46,0,0,1,.46-.46H7.37A1.44,1.44,0,0,1,9,11.9H9a1.5,1.5,0,0,1-1.7,1.48h-.7v.83a.46.46,0,0,1-.92,0Zm1.66,1.65A.65.65,0,0,0,8,11.93H8c0-.41-.29-.64-.75-.64H6.58v1.28Z"/><path d="M9.79,10.89a.46.46,0,0,1,.46-.46h.1a.57.57,0,0,1,.48.27L12.6,13V10.87a.46.46,0,0,1,.91,0v3.34a.46.46,0,0,1-.46.46h0a.57.57,0,0,1-.48-.27L10.7,12v2.25a.46.46,0,1,1-.91,0Z"/><path d="M14.46,12.56h0a2.15,2.15,0,0,1,2.2-2.17,2.32,2.32,0,0,1,1.43.41.46.46,0,0,1-.26.83.45.45,0,0,1-.28-.1,1.47,1.47,0,0,0-.92-.29,1.26,1.26,0,0,0-1.21,1.31h0a1.26,1.26,0,0,0,1.27,1.33,1.47,1.47,0,0,0,.87-.25V13h-.62a.4.4,0,0,1-.4-.4.4.4,0,0,1,.4-.4H18a.46.46,0,0,1,.46.46v1a.62.62,0,0,1-.32.59,2.79,2.79,0,0,1-1.47.42A2.1,2.1,0,0,1,14.46,12.56Z"/><path d="M4,5V3A1,1,0,0,1,5,2h9.17a2,2,0,0,1,1.42.59L18,5" style="fill:none;stroke:#112;stroke-linecap:square;stroke-linejoin:round"/><path d="M20.15,20v1.15a1,1,0,0,1-1,1H5a1,1,0,0,1-1-1V20" style="fill:none;stroke:#112;stroke-linecap:square;stroke-linejoin:round"/></svg>