<svg id="Layer_1" data-name="Layer 1" xmlns="http://www.w3.org/2000/svg" viewBox="0 0 24 24"><title>unity-interface-24px-copy</title><path d="M23.07,13.43,20.3,10.86a1.36,1.36,0,0,0-.92-.36h-6.2a.68.68,0,0,0-.68.68v9.64a.68.68,0,0,0,.68.68h9.64a.68.68,0,0,0,.68-.68v-6.4A1.36,1.36,0,0,0,23.07,13.43Z" style="fill:none;stroke:#5a5b5e;stroke-linecap:square;stroke-linejoin:round"/><path d="M9.5,20.5h-8a1,1,0,0,1-1-1V3.5a1,1,0,0,1,1-1H11.67a2,2,0,0,1,1.42.59L16.5,6.5" style="fill:none;stroke:#5a5b5e;stroke-linecap:square;stroke-linejoin:round"/></svg>