<svg id="Layer_1" data-name="Layer 1" xmlns="http://www.w3.org/2000/svg" viewBox="0 0 24 24"><title>unity-interface-24px-upload</title><line x1="12.5" y1="22.5" x2="12.5" y2="10.5" style="fill:none;stroke:#112;stroke-linecap:square;stroke-linejoin:round"/><path d="M8.5,19.5h-4a1,1,0,0,1-1-1V3.5a1,1,0,0,1,1-1h16a1,1,0,0,1,1,1v15a1,1,0,0,1-1,1h-4" style="fill:none;stroke:#112;stroke-linecap:square;stroke-linejoin:round"/><path d="M8.64,12.86l2.56-3A1,1,0,0,1,12,9.5H13a1,1,0,0,1,.76.35l2.56,3" style="fill:none;stroke:#112;stroke-linecap:square;stroke-linejoin:round"/></svg>