<svg id="Layer_1" data-name="Layer 1" xmlns="http://www.w3.org/2000/svg" viewBox="0 0 24 24"><title>unity-docs-24px-file-video</title><path d="M19.41,6.41,15.59,2.59A2,2,0,0,0,14.17,2H5A1,1,0,0,0,4,3V21a1,1,0,0,0,1,1H19a1,1,0,0,0,1-1V7.83A2,2,0,0,0,19.41,6.41Z" style="fill:none;stroke:#112;stroke-linecap:square;stroke-linejoin:round"/><path d="M9.45,9.72v5.57a.44.44,0,0,0,.66.39L15,12.89a.44.44,0,0,0,0-.77L10.12,9.33A.44.44,0,0,0,9.45,9.72Z" style="fill:none;stroke:#112;stroke-linecap:square;stroke-linejoin:round"/></svg>