<svg id="Layer_1" data-name="Layer 1" xmlns="http://www.w3.org/2000/svg" viewBox="0 0 24 24"><title>unity-docs-24px-file-pdf-1</title><path d="M21.91,6.91,18.09,3.09a2,2,0,0,0-1.41-.59H3.5a1,1,0,0,0-1,1v18a1,1,0,0,0,1,1h18a1,1,0,0,0,1-1V8.33A2,2,0,0,0,21.91,6.91Z" style="fill:none;stroke:#112;stroke-linecap:square;stroke-linejoin:round"/><path d="M11.8,15.15c-4.56.47-4.91,1.32-4.42,1.81s2.37-1.5,3.22-3.88,1.51-5.45.35-5.45.69,3.24,1.95,5.16,3.2,3.75,3.73,3.22S16.36,14.68,11.8,15.15Z" style="fill:none;stroke:#112;stroke-linecap:square;stroke-linejoin:round"/></svg>