<svg id="Layer_1" data-name="Layer 1" xmlns="http://www.w3.org/2000/svg" viewBox="0 0 24 24"><title>unity-docs-24px-file-pptx</title><rect x="1.5" y="8.5" width="22" height="8" rx="1" ry="1" style="fill:none;stroke:#5a5b5e;stroke-linecap:square;stroke-linejoin:round"/><path d="M5.08,10.91a.46.46,0,0,1,.46-.46H6.79A1.44,1.44,0,0,1,8.4,11.9h0a1.5,1.5,0,0,1-1.7,1.48H6v.83a.46.46,0,1,1-.92,0Zm1.65,1.65a.65.65,0,0,0,.73-.64h0c0-.41-.29-.64-.75-.64H6v1.28Z" style="fill:#5a5b5e"/><path d="M9.21,10.91a.46.46,0,0,1,.46-.46h1.25a1.44,1.44,0,0,1,1.61,1.45h0a1.5,1.5,0,0,1-1.7,1.48h-.7v.83a.46.46,0,1,1-.92,0Zm1.65,1.65a.65.65,0,0,0,.73-.64h0c0-.41-.29-.64-.75-.64h-.71v1.28Z" style="fill:#5a5b5e"/><path d="M14.31,11.3h-.89a.43.43,0,0,1,0-.85h2.7a.43.43,0,0,1,0,.85h-.89v2.92a.46.46,0,0,1-.92,0Z" style="fill:#5a5b5e"/><path d="M17.25,13.9l1.13-1.39-1.07-1.3a.57.57,0,0,1-.14-.34.44.44,0,0,1,.46-.46.48.48,0,0,1,.43.23L19,11.87l.91-1.2a.53.53,0,0,1,.45-.25.42.42,0,0,1,.42.43.55.55,0,0,1-.14.35L19.56,12.5l1.13,1.39a.56.56,0,0,1,.14.34.44.44,0,0,1-.46.46.49.49,0,0,1-.43-.23l-1-1.29-1,1.27a.53.53,0,0,1-.45.25.42.42,0,0,1-.42-.43A.55.55,0,0,1,17.25,13.9Z" style="fill:#5a5b5e"/><path d="M2.5,5.5v-2a1,1,0,0,1,1-1H16.67a2,2,0,0,1,1.42.59L20.5,5.5" style="fill:none;stroke:#5a5b5e;stroke-linecap:square;stroke-linejoin:round"/><path d="M22.5,19.5v2a1,1,0,0,1-1,1H3.5a1,1,0,0,1-1-1v-2" style="fill:none;stroke:#5a5b5e;stroke-linecap:square;stroke-linejoin:round"/></svg>