<svg xmlns="http://www.w3.org/2000/svg" viewBox="0 0 24 24"><title>unity-interface-24px-tags</title><g id="Layer_7" data-name="Layer 7"><path d="M21.5,17.5H5.69a1,1,0,0,1-.37-.07L1.13,15.75a1,1,0,0,1-.63-.93V7.18a1,1,0,0,1,.63-.93L5.32,4.57a1,1,0,0,1,.37-.07H21.5a1,1,0,0,1,1,1v11A1,1,0,0,1,21.5,17.5Z" style="fill:none;stroke:#5a5b5e;stroke-linecap:square;stroke-linejoin:round"/><circle cx="7" cy="11" r="2.5" style="fill:none;stroke:#5a5b5e;stroke-linecap:square;stroke-linejoin:round"/><path d="M20.62,19.67l-.48,1.56a1,1,0,0,1-1.25.66l-7.67-2.35" style="fill:none;stroke:#5a5b5e;stroke-linecap:square;stroke-linejoin:round"/></g></svg>