<svg xmlns="http://www.w3.org/2000/svg" viewBox="0 0 24 24"><title>unity-interface-24px-microphone-muted</title><g id="Layer_14" data-name="Layer 14"><line x1="3.5" y1="22.5" x2="19.5" y2="22.5" style="fill:none;stroke:#112;stroke-linecap:square;stroke-linejoin:round"/><line x1="11.5" y1="18.5" x2="11.5" y2="22.5" style="fill:none;stroke:#112;stroke-linecap:square;stroke-linejoin:round"/><line x1="2.5" y1="2.5" x2="21.5" y2="20.5" style="fill:none;stroke:#112;stroke-linecap:square;stroke-linejoin:round"/><path d="M7.57,3.22A5.21,5.21,0,0,1,11.5,1.5h0a4.77,4.77,0,0,1,5,4.5v5.5" style="fill:none;stroke:#112;stroke-linecap:square;stroke-linejoin:round"/><path d="M11.5,15.5h0a4.77,4.77,0,0,1-5-4.5v-.5" style="fill:none;stroke:#112;stroke-linecap:square;stroke-linejoin:round"/><path d="M14.42,18a8.45,8.45,0,0,1-2.92.52h0a7.76,7.76,0,0,1-8-7.5v-.5" style="fill:none;stroke:#112;stroke-linecap:square;stroke-linejoin:round"/><path d="M19.5,10.5V11a7.07,7.07,0,0,1-.55,2.74" style="fill:none;stroke:#112;stroke-linecap:square;stroke-linejoin:round"/></g></svg>