<svg id="Layer_1" data-name="Layer 1" xmlns="http://www.w3.org/2000/svg" viewBox="0 0 24 24"><title>unity-interface-24px-archive-file-box</title><path d="M20.5,21.5H4.5a1,1,0,0,1-1-1v-7a1,1,0,0,1,1-1h4a1,1,0,0,1,1,1v1a1,1,0,0,0,1,1h4a1,1,0,0,0,1-1v-1a1,1,0,0,1,1-1h4a1,1,0,0,1,1,1v7A1,1,0,0,1,20.5,21.5Z" style="fill:none;stroke:#112;stroke-linecap:square;stroke-linejoin:round"/><path d="M3.69,10.06,4.85,4.31a1,1,0,0,1,1-.81H18.17a1,1,0,0,1,1,.81l1.16,5.75" style="fill:none;stroke:#112;stroke-linecap:square;stroke-linejoin:round"/></svg>