<svg id="Layer_1" data-name="Layer 1" xmlns="http://www.w3.org/2000/svg" viewBox="0 0 24 24"><title>unity-docs-24px-folder-open</title><path d="M.64,13.06V3.62a1,1,0,0,1,1-1H7.38A2,2,0,0,1,8.53,3l1.82,1.28a2,2,0,0,0,1.15.36h6.75a1,1,0,0,1,1,1v.94" style="fill:none;stroke:#112;stroke-linecap:square;stroke-linejoin:round"/><path d="M18.53,21.38H2.14a1,1,0,0,1-.95-1.32l3.31-9.84a1,1,0,0,1,.94-.65H21.81a1,1,0,0,1,.94,1.35l-3.27,9.78A1,1,0,0,1,18.53,21.38Z" style="fill:none;stroke:#112;stroke-linecap:square;stroke-linejoin:round"/></svg>