<svg id="Layer_1" data-name="Layer 1" xmlns="http://www.w3.org/2000/svg" viewBox="0 0 24 24"><title>unity-interface-24px-bell-line</title><path d="M19.86,16.67a32.84,32.84,0,0,1-7.85.66,32.85,32.85,0,0,1-7.86-.66,1,1,0,0,1-.73-1.55l1.91-2.87a1,1,0,0,0,.17-.55V9A6.5,6.5,0,0,1,12,2.5h0A6.5,6.5,0,0,1,18.5,9v2.7a1,1,0,0,0,.17.55l1.91,2.87A1,1,0,0,1,19.86,16.67Z" style="fill:none;stroke:#112;stroke-linecap:square;stroke-linejoin:round"/><path d="M9.11,19.63a3.17,3.17,0,0,0,5.78,0" style="fill:none;stroke:#112;stroke-linecap:square;stroke-linejoin:round"/></svg>