<svg id="Layer_1" data-name="Layer 1" xmlns="http://www.w3.org/2000/svg" viewBox="0 0 24 24"><title>unity-docs-24px-folder-shared</title><path d="M21,21.37H3a1,1,0,0,1-1-1V4.62a1,1,0,0,1,1-1H8.14A2,2,0,0,1,9.28,4l1.84,1.26a2,2,0,0,0,1.13.35H21a1,1,0,0,1,1,1V20.37A1,1,0,0,1,21,21.37Z" style="fill:none;stroke:#112;stroke-linecap:square;stroke-linejoin:round"/><line x1="7.41" y1="14.36" x2="7.41" y2="17.81" style="fill:none;stroke:#112;stroke-linecap:square;stroke-linejoin:round"/><circle cx="12" cy="11.22" r="1.13" style="fill:none;stroke:#112;stroke-linecap:square;stroke-linejoin:round"/><circle cx="7.41" cy="11.22" r="1.13" style="fill:none;stroke:#112;stroke-linecap:square;stroke-linejoin:round"/><circle cx="16.59" cy="11.22" r="1.13" style="fill:none;stroke:#112;stroke-linecap:square;stroke-linejoin:round"/><line x1="12" y1="14.36" x2="12" y2="17.81" style="fill:none;stroke:#112;stroke-linecap:square;stroke-linejoin:round"/><line x1="5.1" y1="14.05" x2="18.9" y2="14.05" style="fill:none;stroke:#112;stroke-linecap:square;stroke-linejoin:round"/><line x1="16.59" y1="14.36" x2="16.59" y2="17.81" style="fill:none;stroke:#112;stroke-linecap:square;stroke-linejoin:round"/></svg>