<svg id="Layer_1" data-name="Layer 1" xmlns="http://www.w3.org/2000/svg" viewBox="0 0 24 24"><title>unity-interface-24px-download</title><line x1="12.5" y1="1.5" x2="12.5" y2="13.5" style="fill:none;stroke:#112;stroke-linecap:square;stroke-linejoin:round"/><path d="M16.5,4.5h4a1,1,0,0,1,1,1v15a1,1,0,0,1-1,1H3.5a1,1,0,0,1-1-1V5.5a1,1,0,0,1,1-1h5" style="fill:none;stroke:#112;stroke-linecap:square;stroke-linejoin:round"/><path d="M16.5,10.5l-2.7,3.6a1,1,0,0,1-.8.4H12a1,1,0,0,1-.8-.4L8.5,10.5" style="fill:none;stroke:#112;stroke-linecap:square;stroke-linejoin:round"/></svg>