<svg id="Layer_1" data-name="Layer 1" xmlns="http://www.w3.org/2000/svg" viewBox="0 0 24 24"><title>unity-interface-24px-edit</title><path d="M21.5,11.5v9a1,1,0,0,1-1,1H3.5a1,1,0,0,1-1-1V5.5a1,1,0,0,1,1-1h9" style="fill:none;stroke:#112;stroke-linecap:square;stroke-linejoin:round"/><path d="M18.9,3.1h2a1,1,0,0,1,1,1v3a0,0,0,0,1,0,0h-4a0,0,0,0,1,0,0v-3a1,1,0,0,1,1-1Z" transform="translate(9.43 -12.58) rotate(45)" style="fill:none;stroke:#112;stroke-linecap:square;stroke-linejoin:round"/><polyline points="19.9 7.93 13.33 14.5 10.5 14.5 10.5 11.67 17.07 5.1" style="fill:none;stroke:#112;stroke-linecap:square;stroke-linejoin:round"/></svg>