<svg id="Layer_1" data-name="Layer 1" xmlns="http://www.w3.org/2000/svg" viewBox="0 0 24 24"><title>unity-docs-24px-file-video</title><path d="M19.91,6.91,16.09,3.09a2,2,0,0,0-1.41-.59H5.5a1,1,0,0,0-1,1v18a1,1,0,0,0,1,1h14a1,1,0,0,0,1-1V8.33A2,2,0,0,0,19.91,6.91Z" style="fill:none;stroke:#112;stroke-linecap:square;stroke-linejoin:round"/><path d="M9.5,9.42v6.17a.5.5,0,0,0,.77.42l4.79-3.08a.5.5,0,0,0,0-.84L10.27,9A.5.5,0,0,0,9.5,9.42Z" style="fill:none;stroke:#112;stroke-linecap:square;stroke-linejoin:round"/></svg>