<svg id="Layer_1" data-name="Layer 1" xmlns="http://www.w3.org/2000/svg" viewBox="0 0 24 24"><title>unity-interface-24px-search-outline</title><path d="M11,4.5A6.5,6.5,0,1,0,17.5,11,6.5,6.5,0,0,0,11,4.5Zm0,0A6.5,6.5,0,1,0,17.5,11,6.5,6.5,0,0,0,11,4.5Z" style="fill:none;stroke:#112;stroke-linecap:square;stroke-linejoin:round"/><path d="M19.25,15.71A9.5,9.5,0,1,0,11,20.5a9.53,9.53,0,0,0,5.58-1.8l3.61,3.61L23,19.49ZM11,17.5A6.5,6.5,0,1,1,17.5,11,6.5,6.5,0,0,1,11,17.5Z" style="fill:none;stroke:#112;stroke-linecap:square;stroke-linejoin:round"/></svg>