<svg id="Layer_1" data-name="Layer 1" xmlns="http://www.w3.org/2000/svg" viewBox="0 0 24 24"><title>unity-docs-24px-check-in-doc-1</title><line x1="12.5" y1="19.5" x2="12.5" y2="12.5" style="fill:none;stroke:#112;stroke-linecap:square;stroke-linejoin:round"/><path d="M20.5,20.5v2a1,1,0,0,1-1,1H5.5a1,1,0,0,1-1-1v-2" style="fill:none;stroke:#112;stroke-linecap:square;stroke-linejoin:round"/><path d="M15.5,12.5h1a1,1,0,0,0,1-1V3.91a1,1,0,0,0-.29-.71L14.79.79A1,1,0,0,0,14.09.5H8.5a1,1,0,0,0-1,1v10a1,1,0,0,0,1,1h1" style="fill:none;stroke:#112;stroke-linecap:square;stroke-linejoin:round"/><polyline points="15.5 16.5 13 19.5 12 19.5 9.5 16.5" style="fill:none;stroke:#112;stroke-linecap:square;stroke-linejoin:round"/></svg>