<svg id="Layer_1" data-name="Layer 1" xmlns="http://www.w3.org/2000/svg" viewBox="0 0 24 24"><title>unity-docs-24px-file-code</title><path d="M21.91,6.91,18.09,3.09a2,2,0,0,0-1.41-.59H3.5a1,1,0,0,0-1,1v18a1,1,0,0,0,1,1h18a1,1,0,0,0,1-1V8.33A2,2,0,0,0,21.91,6.91Z" style="fill:none;stroke:#112;stroke-linecap:square;stroke-linejoin:round"/><line x1="13.5" y1="15.5" x2="17.5" y2="15.5" style="fill:none;stroke:#112;stroke-linecap:square;stroke-linejoin:round"/><path d="M9.5,9.5l2.29,2.29a1,1,0,0,1,0,1.41L9.5,15.5" style="fill:none;stroke:#112;stroke-linecap:square;stroke-linejoin:round"/></svg>