<svg id="Layer_1" data-name="Layer 1" xmlns="http://www.w3.org/2000/svg" viewBox="0 0 24 24"><title>unity-interface-24px-archive-file-box</title><path d="M21,22H3a1,1,0,0,1-1-1V13.56a1,1,0,0,1,1-1H7a1,1,0,0,1,1,1v1a1,1,0,0,0,1,1h6a1,1,0,0,0,1-1v-1a1,1,0,0,1,1-1h4a1,1,0,0,1,1,1V21A1,1,0,0,1,21,22Z" style="fill:none;stroke:#112;stroke-linecap:square;stroke-linejoin:round"/><path d="M2.69,9.56,3.85,2.81a1,1,0,0,1,1-.81H19.17a1,1,0,0,1,1,.81l1.16,6.75" style="fill:none;stroke:#112;stroke-linecap:square;stroke-linejoin:round"/></svg>