<svg id="Layer_1" data-name="Layer 1" xmlns="http://www.w3.org/2000/svg" viewBox="0 0 24 24"><title>unity-docs-24px-file-pdf-2</title><rect x="1.5" y="8.5" width="22" height="8" rx="1" ry="1" style="fill:none;stroke:#112;stroke-linecap:square;stroke-linejoin:round"/><path d="M6.07,10.91a.46.46,0,0,1,.46-.46H7.78A1.44,1.44,0,0,1,9.39,11.9h0a1.5,1.5,0,0,1-1.7,1.48H7v.83a.46.46,0,0,1-.92,0Zm1.66,1.65a.65.65,0,0,0,.73-.64h0c0-.41-.29-.64-.75-.64H7v1.28Z"/><path d="M10.19,10.91a.46.46,0,0,1,.46-.46h1.17a2.09,2.09,0,0,1,2.23,2.09h0a2.1,2.1,0,0,1-2.23,2.1H10.66a.46.46,0,0,1-.46-.46Zm1.64,2.9a1.2,1.2,0,0,0,1.27-1.25h0a1.21,1.21,0,0,0-1.27-1.27h-.71v2.53Z"/><path d="M15,10.91a.46.46,0,0,1,.46-.46h2.35a.42.42,0,0,1,0,.84H15.93v.89h1.62a.42.42,0,1,1,0,.84H15.93v1.2a.46.46,0,1,1-.92,0Z"/><path d="M4.5,5.5v-2a1,1,0,0,1,1-1h9.17a2,2,0,0,1,1.42.59L18.5,5.5" style="fill:none;stroke:#112;stroke-linecap:square;stroke-linejoin:round"/><path d="M20.5,19.5v2a1,1,0,0,1-1,1H5.5a1,1,0,0,1-1-1v-2" style="fill:none;stroke:#112;stroke-linecap:square;stroke-linejoin:round"/></svg>