<svg id="Layer_1" data-name="Layer 1" xmlns="http://www.w3.org/2000/svg" viewBox="0 0 24 24"><title>unity-docs-24px-check-in-doc-1</title><path d="M14.57,18l-2.15,2.11a.59.59,0,0,1-.84,0L9.43,18" style="fill:none;stroke:#112;stroke-linecap:square;stroke-linejoin:round"/><line x1="12" y1="19.91" x2="12" y2="12.5" style="fill:none;stroke:#112;stroke-linecap:square;stroke-linejoin:round"/><path d="M20.5,20.5v2a1,1,0,0,1-1,1H4.5a1,1,0,0,1-1-1v-2" style="fill:none;stroke:#112;stroke-linecap:square;stroke-linejoin:round"/><path d="M15,12.5h1a1,1,0,0,0,1-1V3.91a1,1,0,0,0-.29-.71L14.29.79A1,1,0,0,0,13.59.5H8a1,1,0,0,0-1,1v10a1,1,0,0,0,1,1H9" style="fill:none;stroke:#112;stroke-linecap:square;stroke-linejoin:round"/></svg>