<svg id="Layer_1" data-name="Layer 1" xmlns="http://www.w3.org/2000/svg" viewBox="0 0 24 24"><title>unity-docs-24px-check-in-doc-1</title><line x1="12.5" y1="19.5" x2="12.5" y2="12.5" style="fill:none;stroke:#5a5b5e;stroke-linecap:square;stroke-linejoin:round"/><polyline points="21.5 20.5 21.5 23.5 3.5 23.5 3.5 20.5" style="fill:none;stroke:#5a5b5e;stroke-linecap:square;stroke-linejoin:round"/><path d="M15.5,12.5h2a1,1,0,0,0,1-1V3.91a1,1,0,0,0-.29-.71L15.79.79A1,1,0,0,0,15.09.5H7.5a1,1,0,0,0-1,1v10a1,1,0,0,0,1,1h2" style="fill:none;stroke:#5a5b5e;stroke-linecap:square;stroke-linejoin:round"/><path d="M15.5,17.5l-2.29,2.29a1,1,0,0,1-1.41,0L9.5,17.5" style="fill:none;stroke:#5a5b5e;stroke-linecap:square;stroke-linejoin:round"/></svg>