<svg id="Layer_1" data-name="Layer 1" xmlns="http://www.w3.org/2000/svg" viewBox="0 0 24 24"><title>unity-docs-24px-folder-open</title><path d="M.5,12.5v-9a1,1,0,0,1,1-1h6a1.94,1.94,0,0,1,1.09.34l1.93,1.32a1.94,1.94,0,0,0,1.09.34h7a1,1,0,0,1,1,1v1" style="fill:none;stroke:#112;stroke-linecap:square;stroke-linejoin:round"/><path d="M18.63,20.5H2a1,1,0,0,1-1-1.34l3.37-9a1,1,0,0,1,1-.66H22a1,1,0,0,1,1,1.37L19.6,19.81A1,1,0,0,1,18.63,20.5Z" style="fill:none;stroke:#112;stroke-linecap:square;stroke-linejoin:round"/></svg>