<svg id="Layer_1" data-name="Layer 1" xmlns="http://www.w3.org/2000/svg" viewBox="0 0 24 24"><title>unity-interface-24px-inbox</title><line x1="12.5" y1="0.5" x2="12.5" y2="8.5" style="fill:none;stroke:#112;stroke-linecap:square;stroke-linejoin:round"/><path d="M20.5,21.5H4.5a1,1,0,0,1-1-1v-6a1,1,0,0,1,1-1h4a1,1,0,0,1,1,1v1a1,1,0,0,0,1,1h4a1,1,0,0,0,1-1v-1a1,1,0,0,1,1-1h4a1,1,0,0,1,1,1v6A1,1,0,0,1,20.5,21.5Z" style="fill:none;stroke:#112;stroke-linecap:square;stroke-linejoin:round"/><path d="M15.5,4.5h2.67a1,1,0,0,1,1,.81l1.16,5.75" style="fill:none;stroke:#112;stroke-linecap:square;stroke-linejoin:round"/><path d="M3.69,11.06,4.85,5.31a1,1,0,0,1,1-.81H9.5" style="fill:none;stroke:#112;stroke-linecap:square;stroke-linejoin:round"/><path d="M15.5,8.5l-1.7,2.6a1,1,0,0,1-.8.4H12a1,1,0,0,1-.8-.4L9.5,8.5" style="fill:none;stroke:#112;stroke-linecap:square;stroke-linejoin:round"/></svg>