<svg id="Layer_1" data-name="Layer 1" xmlns="http://www.w3.org/2000/svg" viewBox="0 0 24 24"><title>unity-interface-24px-bell-full</title><path d="M9.11,19.63a3.17,3.17,0,0,0,5.78,0Z" style="fill:#5a5b5e;stroke:#5a5b5e;stroke-linecap:square;stroke-miterlimit:10"/><path d="M18.5,17.5H5.5a1,1,0,0,1-1-1V13.31a1,1,0,0,1,.31-.73l2.37-2.23a1,1,0,0,0,.31-.73V7A4.5,4.5,0,0,1,12,2.5h0A4.5,4.5,0,0,1,16.5,7V9.57a1,1,0,0,0,.31.72l2.38,2.28a1,1,0,0,1,.31.72v3.2A1,1,0,0,1,18.5,17.5Z" style="fill:#5a5b5e;stroke:#5a5b5e;stroke-linecap:square;stroke-linejoin:round"/></svg>