<svg id="Layer_1" data-name="Layer 1" xmlns="http://www.w3.org/2000/svg" viewBox="0 0 24 24"><title>unity-docs-24px-file-pdf-1</title><path d="M19.41,6.41,15.59,2.59A2,2,0,0,0,14.17,2H5A1,1,0,0,0,4,3V21a1,1,0,0,0,1,1H19a1,1,0,0,0,1-1V7.83A2,2,0,0,0,19.41,6.41Z" style="fill:none;stroke:#112;stroke-linecap:square;stroke-linejoin:round"/><path d="M11.8,15.15c-4.56.47-4.91,1.32-4.42,1.81s2.37-1.5,3.22-3.88,1.51-5.45.35-5.45.69,3.24,1.95,5.16,3.2,3.75,3.73,3.22S16.36,14.68,11.8,15.15Z" style="fill:none;stroke:#112;stroke-linecap:square;stroke-linejoin:round"/></svg>