<svg id="Layer_1" data-name="Layer 1" xmlns="http://www.w3.org/2000/svg" viewBox="0 0 24 24"><title>unity-interface-24px-battery-charging</title><path d="M13.5,5.5h4a1,1,0,0,1,1,1v12a1,1,0,0,1-1,1h-3" style="fill:none;stroke:#112;stroke-linecap:square;stroke-linejoin:round"/><path d="M5.5,19.5h-4a1,1,0,0,1-1-1V6.5a1,1,0,0,1,1-1h3" style="fill:none;stroke:#112;stroke-linecap:square;stroke-linejoin:round"/><polyline points="21.5 8.5 23.5 8.5 23.5 16.5 21.5 16.5" style="fill:none;stroke:#112;stroke-linecap:square;stroke-linejoin:round"/><polygon points="14.5 11.5 9.5 21.5 9.5 13.5 4.5 13.5 9.5 3.5 9.5 11.5 14.5 11.5" style="fill:none;stroke:#112;stroke-linecap:square;stroke-linejoin:round"/></svg>