<svg id="Layer_1" data-name="Layer 1" xmlns="http://www.w3.org/2000/svg" viewBox="0 0 24 24"><title>unity-docs-24px-file-audio</title><path d="M19.41,6.41,15.59,2.59A2,2,0,0,0,14.17,2H5A1,1,0,0,0,4,3V21a1,1,0,0,0,1,1H19a1,1,0,0,0,1-1V7.83A2,2,0,0,0,19.41,6.41Z" style="fill:none;stroke:#112;stroke-linecap:square;stroke-linejoin:round"/><path d="M15.3,14.12V9.42a.25.25,0,0,0-.3-.25l-4.61.91a.25.25,0,0,0-.2.25v4.79" style="fill:none;stroke:#112;stroke-linecap:square;stroke-linejoin:round"/><path d="M9,17.5H9a1.19,1.19,0,0,1-1.19-1.19h0A1.19,1.19,0,0,1,9,15.12h1.19v1.19A1.19,1.19,0,0,1,9,17.5Z" style="fill:none;stroke:#112;stroke-linecap:square;stroke-linejoin:round"/><path d="M14.11,14.12H15.3a0,0,0,0,1,0,0v1.19a1.19,1.19,0,0,1-1.19,1.19h0a1.19,1.19,0,0,1-1.19-1.19v0A1.19,1.19,0,0,1,14.11,14.12Z" style="fill:none;stroke:#112;stroke-linecap:square;stroke-linejoin:round"/></svg>