<svg id="Layer_1" data-name="Layer 1" xmlns="http://www.w3.org/2000/svg" viewBox="0 0 24 24"><title>unity-interface-24px-copy</title><path d="M21.1,13.78l-2.6-2.6a1.36,1.36,0,0,0-1-.4H13.68a.68.68,0,0,0-.68.68v9.86a.68.68,0,0,0,.68.68h7.14a.68.68,0,0,0,.68-.68V14.74A1.36,1.36,0,0,0,21.1,13.78Z" style="fill:none;stroke:#112;stroke-linecap:square;stroke-linejoin:round"/><path d="M9,20H3.5a1,1,0,0,1-1-1V3a1,1,0,0,1,1-1h7.17a2,2,0,0,1,1.42.59l3.82,3.82" style="fill:none;stroke:#112;stroke-linecap:square;stroke-linejoin:round"/></svg>