<svg id="Layer_1" data-name="Layer 1" xmlns="http://www.w3.org/2000/svg" viewBox="0 0 24 24"><title>unity-docs-24px-file-pptx</title><rect x="0.5" y="8.5" width="22" height="8" rx="1" ry="1" style="fill:none;stroke:#112;stroke-linecap:square;stroke-linejoin:round"/><path d="M4.08,10.91a.46.46,0,0,1,.46-.46H5.79A1.44,1.44,0,0,1,7.4,11.9h0a1.5,1.5,0,0,1-1.7,1.48H5v.83a.46.46,0,1,1-.92,0Zm1.65,1.65a.65.65,0,0,0,.73-.64h0c0-.41-.29-.64-.75-.64H5v1.28Z"/><path d="M8.21,10.91a.46.46,0,0,1,.46-.46H9.92a1.44,1.44,0,0,1,1.61,1.45h0a1.5,1.5,0,0,1-1.7,1.48h-.7v.83a.46.46,0,1,1-.92,0Zm1.65,1.65a.65.65,0,0,0,.73-.64h0c0-.41-.29-.64-.75-.64H9.13v1.28Z"/><path d="M13.31,11.3h-.89a.43.43,0,0,1,0-.85h2.7a.43.43,0,0,1,0,.85h-.89v2.92a.46.46,0,0,1-.92,0Z"/><path d="M16.25,13.9l1.13-1.39-1.07-1.3a.57.57,0,0,1-.14-.34.44.44,0,0,1,.46-.46.48.48,0,0,1,.43.23L18,11.87l.91-1.2a.53.53,0,0,1,.45-.25.42.42,0,0,1,.42.43.55.55,0,0,1-.14.35L18.56,12.5l1.13,1.39a.56.56,0,0,1,.14.34.44.44,0,0,1-.46.46.49.49,0,0,1-.43-.23l-1-1.29-1,1.27a.53.53,0,0,1-.45.25.42.42,0,0,1-.42-.43A.55.55,0,0,1,16.25,13.9Z"/><path d="M4.5,5.5v-2a1,1,0,0,1,1-1h9.17a2,2,0,0,1,1.42.59L18.5,5.5" style="fill:none;stroke:#112;stroke-linecap:square;stroke-linejoin:round"/><path d="M20.5,19.5v2a1,1,0,0,1-1,1H5.5a1,1,0,0,1-1-1v-2" style="fill:none;stroke:#112;stroke-linecap:square;stroke-linejoin:round"/></svg>