<svg xmlns="http://www.w3.org/2000/svg" viewBox="0 0 24 24"><title>unity-interface-24px-microphone-muted</title><g id="Layer_14" data-name="Layer 14"><line x1="4.5" y1="22.5" x2="19.5" y2="22.5" style="fill:none;stroke:#112;stroke-linecap:square;stroke-linejoin:round"/><line x1="12" y1="18.5" x2="12" y2="22.33" style="fill:none;stroke:#112;stroke-linecap:square;stroke-linejoin:round"/><line x1="3" y1="2" x2="22" y2="21" style="fill:none;stroke:#112;stroke-linecap:square;stroke-linejoin:round"/><path d="M8.46,3.22A4.49,4.49,0,0,1,12,1.5h0A4.5,4.5,0,0,1,16.5,6v5" style="fill:none;stroke:#112;stroke-linecap:square;stroke-linejoin:round"/><path d="M12,15.5h0A4.5,4.5,0,0,1,7.5,11v-.26" style="fill:none;stroke:#112;stroke-linecap:square;stroke-linejoin:round"/><path d="M14.74,18A7.48,7.48,0,0,1,12,18.5h0A7.5,7.5,0,0,1,4.5,11v-.5" style="fill:none;stroke:#112;stroke-linecap:square;stroke-linejoin:round"/><path d="M19.5,10.5V11A7.48,7.48,0,0,1,19,13.74" style="fill:none;stroke:#112;stroke-linecap:square;stroke-linejoin:round"/></g></svg>