<svg xmlns="http://www.w3.org/2000/svg" viewBox="0 0 24 24"><title>unity-interface-24px-media-control-volume-up</title><g id="Layer_14" data-name="Layer 14"><path d="M17.5,19V21.3a1,1,0,0,1-1.66.75l-6.06-5.3a1,1,0,0,0-.66-.25H5.5a1,1,0,0,1-1-1v-7a1,1,0,0,1,1-1H9.12a1,1,0,0,0,.66-.25L15.84,2a1,1,0,0,1,1.66.75V5" style="fill:none;stroke:#112;stroke-linecap:square;stroke-linejoin:round"/><line x1="14.47" y1="12" x2="20.53" y2="12" style="fill:none;stroke:#112;stroke-linecap:square;stroke-linejoin:round"/><line x1="17.5" y1="8.97" x2="17.5" y2="15.03" style="fill:none;stroke:#112;stroke-linecap:square;stroke-linejoin:round"/></g></svg>