<svg id="Layer_1" data-name="Layer 1" xmlns="http://www.w3.org/2000/svg" viewBox="0 0 24 24"><title>unity-transportation-24px-plane</title><path d="M12.5,23.5h-1L9.77,18.9a20,20,0,0,1-1.27-7V4A3.5,3.5,0,0,1,12,.5h0A3.5,3.5,0,0,1,15.5,4v7.87a20,20,0,0,1-1.27,7Z" style="fill:none;stroke:#5a5b5e;stroke-linecap:square;stroke-linejoin:round"/><path d="M6.5,7.5,1.79,12.21a1,1,0,0,0-.29.71V17.5l5-4" style="fill:none;stroke:#5a5b5e;stroke-linecap:square;stroke-linejoin:round"/><path d="M17.5,7.5l4.71,4.71a1,1,0,0,1,.29.71V17.5l-5-4" style="fill:none;stroke:#5a5b5e;stroke-linecap:square;stroke-linejoin:round"/><polyline points="15.33 22.5 15.5 22.5 17.5 22.5 17.5 21.5 15.5 20.68" style="fill:none;stroke:#5a5b5e;stroke-linecap:square;stroke-linejoin:round"/><polyline points="8.67 22.5 8.5 22.5 6.5 22.5 6.5 21.5 8.5 20.68" style="fill:none;stroke:#5a5b5e;stroke-linecap:square;stroke-linejoin:round"/><line x1="8.67" y1="22.5" x2="8.5" y2="22.5" style="fill:none;stroke:#5a5b5e;stroke-linecap:square;stroke-linejoin:round"/><line x1="15.5" y1="22.5" x2="15.33" y2="22.5" style="fill:none;stroke:#5a5b5e;stroke-linecap:square;stroke-linejoin:round"/><path d="M10.5,4A1.5,1.5,0,0,1,12,2.5" style="fill:none;stroke:#5a5b5e;stroke-linecap:square;stroke-linejoin:round"/></svg>