<svg id="Layer_1" data-name="Layer 1" xmlns="http://www.w3.org/2000/svg" viewBox="0 0 24 24"><title>unity-docs-24px-file-png</title><rect x="1.5" y="8.5" width="21" height="8" style="fill:none;stroke:#5a5b5e;stroke-linecap:square;stroke-linejoin:round"/><path d="M5.6,10.91a.46.46,0,0,1,.46-.46H7.31A1.44,1.44,0,0,1,8.92,11.9h0a1.5,1.5,0,0,1-1.7,1.48h-.7v.83a.46.46,0,0,1-.92,0Zm1.66,1.65A.65.65,0,0,0,8,11.93H8c0-.41-.29-.64-.75-.64H6.52v1.28Z" style="fill:#5a5b5e"/><path d="M9.73,10.89a.46.46,0,0,1,.46-.46h.1a.57.57,0,0,1,.48.27L12.55,13V10.87a.46.46,0,1,1,.91,0v3.34a.46.46,0,0,1-.46.46h0a.57.57,0,0,1-.48-.27L10.64,12v2.25a.46.46,0,1,1-.91,0Z" style="fill:#5a5b5e"/><path d="M14.4,12.56h0a2.15,2.15,0,0,1,2.2-2.17,2.32,2.32,0,0,1,1.43.41.46.46,0,0,1-.26.83.45.45,0,0,1-.28-.1,1.47,1.47,0,0,0-.92-.29,1.26,1.26,0,0,0-1.21,1.31h0a1.26,1.26,0,0,0,1.27,1.33,1.47,1.47,0,0,0,.87-.25V13h-.62a.4.4,0,0,1-.4-.4.4.4,0,0,1,.4-.4h1.06a.46.46,0,0,1,.46.46v1a.62.62,0,0,1-.32.59,2.79,2.79,0,0,1-1.47.42A2.1,2.1,0,0,1,14.4,12.56Z" style="fill:#5a5b5e"/><path d="M3.5,6.5v-3a1,1,0,0,1,1-1H14.67a2,2,0,0,1,1.42.59L19.5,6.5" style="fill:none;stroke:#5a5b5e;stroke-linecap:square;stroke-linejoin:round"/><path d="M20.5,18.5v3a1,1,0,0,1-1,1H4.5a1,1,0,0,1-1-1v-3" style="fill:none;stroke:#5a5b5e;stroke-linecap:square;stroke-linejoin:round"/></svg>