<svg id="Layer_1" data-name="Layer 1" xmlns="http://www.w3.org/2000/svg" viewBox="0 0 24 24"><title>unity-docs-24px-file-video</title><path d="M21.91,6.91,18.09,3.09a2,2,0,0,0-1.41-.59H3.5a1,1,0,0,0-1,1v18a1,1,0,0,0,1,1h18a1,1,0,0,0,1-1V8.33A2,2,0,0,0,21.91,6.91Z" style="fill:none;stroke:#5a5b5e;stroke-linecap:square;stroke-linejoin:round"/><path d="M9.5,9.35v6.3a.5.5,0,0,0,.74.44l5.68-3.15a.5.5,0,0,0,0-.87L10.24,8.91A.5.5,0,0,0,9.5,9.35Z" style="fill:none;stroke:#5a5b5e;stroke-linecap:square;stroke-linejoin:round"/></svg>