<svg id="Layer_1" data-name="Layer 1" xmlns="http://www.w3.org/2000/svg" viewBox="0 0 24 24"><title>unity-interface-24px-link-broken</title><line x1="13.42" y1="9.88" x2="15.54" y2="7.76" style="fill:none;stroke:#112;stroke-linecap:square;stroke-linejoin:round"/><line x1="7.76" y1="15.53" x2="9.88" y2="13.41" style="fill:none;stroke:#112;stroke-linecap:square;stroke-linejoin:round"/><path d="M12.71,14.83a1,1,0,0,1,0,1.41L7.05,21.9a1,1,0,0,1-1.41,0L1.4,17.66a1,1,0,0,1,0-1.41l5.66-5.66a1,1,0,0,1,1.41,0" style="fill:none;stroke:#112;stroke-linecap:square;stroke-linejoin:round"/><path d="M10.59,8.46a1,1,0,0,1,0-1.41l5.66-5.66a1,1,0,0,1,1.41,0L21.9,5.63A1,1,0,0,1,21.9,7l-5.66,5.66a1,1,0,0,1-1.41,0" style="fill:none;stroke:#112;stroke-linecap:square;stroke-linejoin:round"/><line x1="15.71" y1="18.53" x2="16.95" y2="21.19" style="fill:none;stroke:#112;stroke-linecap:square;stroke-linejoin:round"/><line x1="18.54" y1="15.7" x2="21.2" y2="16.95" style="fill:none;stroke:#112;stroke-linecap:square;stroke-linejoin:round"/><line x1="8.29" y1="5.46" x2="7.05" y2="2.8" style="fill:none;stroke:#112;stroke-linecap:square;stroke-linejoin:round"/><line x1="5.46" y1="8.28" x2="2.81" y2="7.04" style="fill:none;stroke:#112;stroke-linecap:square;stroke-linejoin:round"/></svg>