<svg id="Layer_1" data-name="Layer 1" xmlns="http://www.w3.org/2000/svg" viewBox="0 0 24 24"><title>unity-docs-24px-file-photo</title><path d="M19.41,6.41,15.59,2.59A2,2,0,0,0,14.17,2H5A1,1,0,0,0,4,3V21a1,1,0,0,0,1,1H19a1,1,0,0,0,1-1V7.83A2,2,0,0,0,19.41,6.41Z" style="fill:none;stroke:#112;stroke-linecap:square;stroke-linejoin:round"/><circle cx="9" cy="8.81" r="1.5" style="fill:none;stroke:#112;stroke-linecap:square;stroke-linejoin:round"/><path d="M17.5,12.5v7H6.5V16.61a.25.25,0,0,1,.08-.19l3.75-3.34L13.92,16Z" style="fill:none;stroke:#112;stroke-linecap:square;stroke-linejoin:round"/></svg>