<svg id="Layer_1" data-name="Layer 1" xmlns="http://www.w3.org/2000/svg" viewBox="0 0 24 24"><title>unity-docs-24px-file-xlsx</title><rect x="1" y="8" width="22" height="9" rx="1" ry="1" style="fill:none;stroke:#112;stroke-linecap:square;stroke-linejoin:round"/><path d="M4.21,13.9l1.13-1.39-1.07-1.3a.56.56,0,0,1-.14-.34.44.44,0,0,1,.46-.46.48.48,0,0,1,.43.23l.92,1.22.91-1.2a.53.53,0,0,1,.45-.25.42.42,0,0,1,.42.43.54.54,0,0,1-.14.35L6.51,12.5l1.13,1.39a.56.56,0,0,1,.14.34.44.44,0,0,1-.46.46.49.49,0,0,1-.43-.23l-1-1.29-1,1.27a.53.53,0,0,1-.45.25.42.42,0,0,1-.42-.43A.55.55,0,0,1,4.21,13.9Z"/><path d="M8.68,10.88a.46.46,0,1,1,.92,0v2.93h1.71a.42.42,0,1,1,0,.84H9.14a.46.46,0,0,1-.46-.46Z"/><path d="M12.43,14.2a.43.43,0,0,1,.26-.77.45.45,0,0,1,.26.08,1.77,1.77,0,0,0,1.07.38c.38,0,.61-.15.61-.4h0c0-.23-.14-.35-.85-.53s-1.39-.45-1.39-1.28h0a1.31,1.31,0,0,1,1.47-1.27,2.44,2.44,0,0,1,1.33.37.42.42,0,0,1,.2.37.42.42,0,0,1-.43.43.44.44,0,0,1-.23-.07,1.75,1.75,0,0,0-.88-.28c-.35,0-.54.16-.54.37h0c0,.28.18.37.91.55s1.33.53,1.33,1.26h0c0,.83-.64,1.3-1.54,1.3A2.71,2.71,0,0,1,12.43,14.2Z"/><path d="M16.36,13.9l1.13-1.39-1.07-1.3a.57.57,0,0,1-.14-.34.45.45,0,0,1,.46-.46.48.48,0,0,1,.43.23l.92,1.22.91-1.2a.53.53,0,0,1,.45-.25.42.42,0,0,1,.42.43.55.55,0,0,1-.14.35L18.66,12.5l1.13,1.39a.56.56,0,0,1,.14.34.45.45,0,0,1-.46.46.48.48,0,0,1-.43-.23l-1-1.29-1,1.27a.53.53,0,0,1-.45.25.42.42,0,0,1-.42-.43A.55.55,0,0,1,16.36,13.9Z"/><path d="M4,5V3A1,1,0,0,1,5,2h9.17a2,2,0,0,1,1.42.59L18,5" style="fill:none;stroke:#112;stroke-linecap:square;stroke-linejoin:round"/><path d="M20.15,20v1.15a1,1,0,0,1-1,1H5a1,1,0,0,1-1-1V20" style="fill:none;stroke:#112;stroke-linecap:square;stroke-linejoin:round"/></svg>