<svg id="Layer_1" data-name="Layer 1" xmlns="http://www.w3.org/2000/svg" viewBox="0 0 24 24"><title>unity-interface-24px-link-external</title><line x1="11.5" y1="11.5" x2="23.5" y2="11.5" style="fill:none;stroke:#112;stroke-linecap:square;stroke-linejoin:round"/><path d="M19.5,7.5l3.6,2.7a1,1,0,0,1,.4.8v1a1,1,0,0,1-.4.8l-3.6,2.7" style="fill:none;stroke:#112;stroke-linecap:square;stroke-linejoin:round"/><path d="M15.5,16.5v2a1,1,0,0,1-1,1H2.5a1,1,0,0,1-1-1V4.5a1,1,0,0,1,1-1h12a1,1,0,0,1,1,1v2" style="fill:none;stroke:#112;stroke-linecap:square;stroke-linejoin:round"/></svg>