<svg id="Layer_1" data-name="Layer 1" xmlns="http://www.w3.org/2000/svg" viewBox="0 0 24 24"><title>unity-docs-24px-file-csv</title><path d="M4.5,5.5v-2a1,1,0,0,1,1-1h9.17a2,2,0,0,1,1.42.59L18.5,5.5" style="fill:none;stroke:#112;stroke-linecap:square;stroke-linejoin:round"/><rect x="1.5" y="8.5" width="22" height="8" rx="1" ry="1" style="fill:none;stroke:#112;stroke-linecap:square;stroke-linejoin:round"/><path d="M5.95,12.56h0a2.13,2.13,0,0,1,2.19-2.17,2.22,2.22,0,0,1,1.4.43.46.46,0,0,1,.18.37.45.45,0,0,1-.46.45A.49.49,0,0,1,9,11.53a1.38,1.38,0,0,0-.86-.3,1.24,1.24,0,0,0-1.22,1.31h0a1.25,1.25,0,0,0,1.22,1.32A1.35,1.35,0,0,0,9,13.54a.43.43,0,0,1,.71.32.43.43,0,0,1-.16.33,2.11,2.11,0,0,1-1.49.53A2.12,2.12,0,0,1,5.95,12.56Z"/><path d="M10.6,14.2a.43.43,0,0,1,.26-.77.45.45,0,0,1,.26.08,1.77,1.77,0,0,0,1.07.38c.38,0,.61-.15.61-.4h0c0-.23-.14-.35-.85-.53s-1.39-.45-1.39-1.28h0A1.31,1.31,0,0,1,12,10.39a2.44,2.44,0,0,1,1.33.37.42.42,0,0,1,.2.37.42.42,0,0,1-.43.43.44.44,0,0,1-.23-.07,1.75,1.75,0,0,0-.88-.28c-.35,0-.54.16-.54.37h0c0,.28.18.37.91.55s1.33.53,1.33,1.26h0c0,.83-.64,1.3-1.54,1.3A2.71,2.71,0,0,1,10.6,14.2Z"/><path d="M15.64,14.35l-1.36-3.26a.59.59,0,0,1-.05-.22.45.45,0,0,1,.46-.46.48.48,0,0,1,.47.32l1,2.72,1.06-2.75a.48.48,0,0,1,.44-.29.45.45,0,0,1,.46.44.53.53,0,0,1,0,.2l-1.37,3.29a.54.54,0,0,1-.52.37h-.06A.54.54,0,0,1,15.64,14.35Z"/><path d="M20.5,19.5v2a1,1,0,0,1-1,1H5.5a1,1,0,0,1-1-1v-2" style="fill:none;stroke:#112;stroke-linecap:square;stroke-linejoin:round"/></svg>