<svg id="Layer_1" data-name="Layer 1" xmlns="http://www.w3.org/2000/svg" viewBox="0 0 24 24"><title>unity-interface-24px-link</title><line x1="8.11" y1="15.89" x2="15.89" y2="8.11" style="fill:none;stroke:#112;stroke-linecap:square;stroke-linejoin:round"/><path d="M13.06,15.18a1,1,0,0,1,0,1.41L7.4,22.25a1,1,0,0,1-1.41,0L1.75,18a1,1,0,0,1,0-1.41L7.4,10.94a1,1,0,0,1,1.41,0" style="fill:none;stroke:#112;stroke-linecap:square;stroke-linejoin:round"/><path d="M10.94,8.82a1,1,0,0,1,0-1.41L16.6,1.75a1,1,0,0,1,1.41,0L22.25,6a1,1,0,0,1,0,1.41L16.6,13.06a1,1,0,0,1-1.41,0" style="fill:none;stroke:#112;stroke-linecap:square;stroke-linejoin:round"/></svg>