<svg id="Layer_1" data-name="Layer 1" xmlns="http://www.w3.org/2000/svg" viewBox="0 0 24 24"><title>unity-interface-24px-bell-full</title><path d="M9.11,19.63a3.17,3.17,0,0,0,5.78,0Z" style="fill:#112;stroke:#112;stroke-linecap:square;stroke-linejoin:round"/><path d="M19.5,17.5H4.5a1,1,0,0,1-1-1V14.6a4,4,0,0,1,1.26-2.91l1.43-1.34a1,1,0,0,0,.31-.73V8A5.5,5.5,0,0,1,12,2.5h0A5.5,5.5,0,0,1,17.5,8V9.57a1,1,0,0,0,.31.72l1.46,1.4a4,4,0,0,1,1.23,2.89V16.5A1,1,0,0,1,19.5,17.5Z" style="fill:#112;stroke:#112;stroke-linecap:square;stroke-linejoin:round"/></svg>