<svg id="Layer_1" data-name="Layer 1" xmlns="http://www.w3.org/2000/svg" viewBox="0 0 24 24"><title>unity-docs-24px-check-out-doc-1</title><line x1="12.5" y1="15.5" x2="12.5" y2="23.5" style="fill:none;stroke:#112;stroke-linecap:square;stroke-linejoin:round"/><polyline points="9.5 18.5 12 15.5 13 15.5 15.5 18.5" style="fill:none;stroke:#112;stroke-linecap:square;stroke-linejoin:round"/><path d="M9.5,23.5h-4a1,1,0,0,1-1-1v-2" style="fill:none;stroke:#112;stroke-linecap:square;stroke-linejoin:round"/><path d="M20.5,20.5v2a1,1,0,0,1-1,1h-4" style="fill:none;stroke:#112;stroke-linecap:square;stroke-linejoin:round"/><path d="M8.5,12.5h8a1,1,0,0,0,1-1V3.91a1,1,0,0,0-.29-.71L14.79.79A1,1,0,0,0,14.09.5H8.5a1,1,0,0,0-1,1v10A1,1,0,0,0,8.5,12.5Z" style="fill:none;stroke:#112;stroke-linecap:square;stroke-linejoin:round"/></svg>