<svg id="Layer_1" data-name="Layer 1" xmlns="http://www.w3.org/2000/svg" viewBox="0 0 24 24"><title>unity-interface-24px-inbox</title><path d="M15.5,4.5h7a1,1,0,0,1,1,1v5" style="fill:none;stroke:#5a5b5e;stroke-linecap:square;stroke-linejoin:round"/><path d="M1.5,10.5v-5a1,1,0,0,1,1-1h7" style="fill:none;stroke:#5a5b5e;stroke-linecap:square;stroke-linejoin:round"/><path d="M22.5,21.5H2.5a1,1,0,0,1-1-1v-7h7v3h8v-3h7v7A1,1,0,0,1,22.5,21.5Z" style="fill:none;stroke:#5a5b5e;stroke-linecap:square;stroke-linejoin:round"/><line x1="12.5" y1="0.5" x2="12.5" y2="7.5" style="fill:none;stroke:#5a5b5e;stroke-linecap:square;stroke-linejoin:round"/><path d="M16.36,7.48l-3.21,2.79a1,1,0,0,1-1.31,0L8.64,7.48" style="fill:none;stroke:#5a5b5e;stroke-linecap:square;stroke-linejoin:round"/></svg>