<svg id="Layer_1" data-name="Layer 1" xmlns="http://www.w3.org/2000/svg" viewBox="0 0 24 24"><title>unity-interface-24px-link</title><line x1="6.5" y1="12" x2="17.5" y2="12" style="fill:none;stroke:#112;stroke-linecap:square;stroke-linejoin:round"/><path d="M10.5,15a1,1,0,0,1-1,1h-8a1,1,0,0,1-1-1V9a1,1,0,0,1,1-1h8a1,1,0,0,1,1,1" style="fill:none;stroke:#112;stroke-linecap:square;stroke-linejoin:round"/><path d="M13.5,9a1,1,0,0,1,1-1h8a1,1,0,0,1,1,1v6a1,1,0,0,1-1,1h-8a1,1,0,0,1-1-1" style="fill:none;stroke:#112;stroke-linecap:square;stroke-linejoin:round"/></svg>