<svg xmlns="http://www.w3.org/2000/svg" viewBox="0 0 24 24"><title>unity-interface-24px-tags</title><g id="Layer_7" data-name="Layer 7"><path d="M21.5,17.5H5.78a1,1,0,0,1-.51-.14L1,14.79a1,1,0,0,1-.49-.86V8.07A1,1,0,0,1,1,7.21L5.26,4.64a1,1,0,0,1,.51-.14H21.5a1,1,0,0,1,1,1v11A1,1,0,0,1,21.5,17.5Z" style="fill:none;stroke:#112;stroke-linecap:square;stroke-linejoin:round"/><circle cx="5.5" cy="11" r="1.5" style="fill:none;stroke:#112;stroke-linecap:square;stroke-linejoin:round"/><path d="M20.62,19.67l-.48,1.56a1,1,0,0,1-1.25.66l-7.67-2.35" style="fill:none;stroke:#112;stroke-linecap:square;stroke-linejoin:round"/></g></svg>