<svg id="Layer_1" data-name="Layer 1" xmlns="http://www.w3.org/2000/svg" viewBox="0 0 24 24"><title>unity-interface-24px-archive-file-box</title><path d="M20,22H4a1,1,0,0,1-1-1V13.56a1,1,0,0,1,1-1H8a1,1,0,0,1,1,1v1a1,1,0,0,0,1,1h4a1,1,0,0,0,1-1v-1a1,1,0,0,1,1-1h4a1,1,0,0,1,1,1V21A1,1,0,0,1,20,22Z" style="fill:none;stroke:#112;stroke-linecap:square;stroke-linejoin:round"/><path d="M3.69,9.56,4.85,3.81a1,1,0,0,1,1-.81H18.17a1,1,0,0,1,1,.81l1.16,5.75" style="fill:none;stroke:#112;stroke-linecap:square;stroke-linejoin:round"/></svg>