<svg id="Layer_1" data-name="Layer 1" xmlns="http://www.w3.org/2000/svg" viewBox="0 0 24 24"><title>unity-interface-24px-inbox</title><line x1="12" y1="0.5" x2="12" y2="10.5" style="fill:none;stroke:#112;stroke-linecap:square;stroke-linejoin:round"/><path d="M9,8.5l2.29,2.29a1,1,0,0,0,1.41,0L15,8.5" style="fill:none;stroke:#112;stroke-linecap:square;stroke-linejoin:round"/><path d="M20,22H4a1,1,0,0,1-1-1V14.56a1,1,0,0,1,1-1H8a1,1,0,0,1,1,1v1a1,1,0,0,0,1,1h4a1,1,0,0,0,1-1v-1a1,1,0,0,1,1-1h4a1,1,0,0,1,1,1V21A1,1,0,0,1,20,22Z" style="fill:none;stroke:#112;stroke-linecap:square;stroke-linejoin:round"/><path d="M15,4h3.17a1,1,0,0,1,1,.81l1.16,5.75" style="fill:none;stroke:#112;stroke-linecap:square;stroke-linejoin:round"/><path d="M3.69,10.56,4.85,4.81a1,1,0,0,1,1-.81H9" style="fill:none;stroke:#112;stroke-linecap:square;stroke-linejoin:round"/></svg>