<svg id="Layer_1" data-name="Layer 1" xmlns="http://www.w3.org/2000/svg" viewBox="0 0 24 24"><title>unity-interface-24px-settings</title><circle cx="12" cy="12" r="3.15" style="fill:none;stroke:#112;stroke-linecap:square;stroke-linejoin:round"/><path d="M13.6,2.24l.94,1.11a2.1,2.1,0,0,0,1.77.73L17.77,4A2.1,2.1,0,0,1,20,6.23l-.12,1.45a2.1,2.1,0,0,0,.73,1.77l1.11.94a2.1,2.1,0,0,1,0,3.2l-1.11.94a2.1,2.1,0,0,0-.73,1.77L20,17.77A2.1,2.1,0,0,1,17.77,20l-1.45-.12a2.1,2.1,0,0,0-1.77.73l-.94,1.11a2.1,2.1,0,0,1-3.2,0l-.94-1.11a2.1,2.1,0,0,0-1.77-.73L6.23,20A2.1,2.1,0,0,1,4,17.77l.12-1.45a2.1,2.1,0,0,0-.73-1.77L2.24,13.6a2.1,2.1,0,0,1,0-3.2l1.11-.94a2.1,2.1,0,0,0,.73-1.77L4,6.23A2.1,2.1,0,0,1,6.23,4l1.45.12a2.1,2.1,0,0,0,1.77-.73l.94-1.11A2.1,2.1,0,0,1,13.6,2.24Z" style="fill:none;stroke:#112;stroke-linecap:square;stroke-linejoin:round"/></svg>