<svg id="Layer_1" data-name="Layer 1" xmlns="http://www.w3.org/2000/svg" viewBox="0 0 24 24"><title>unity-interface-24px-battery-charging</title><path d="M13.5,6h4a1,1,0,0,1,1,1V17a1,1,0,0,1-1,1h-3" style="fill:none;stroke:#112;stroke-linecap:square;stroke-linejoin:round"/><path d="M5.5,18h-4a1,1,0,0,1-1-1V7a1,1,0,0,1,1-1h3" style="fill:none;stroke:#112;stroke-linecap:square;stroke-linejoin:round"/><path d="M21.5,9h1a1,1,0,0,1,1,1v4a1,1,0,0,1-1,1h-1" style="fill:none;stroke:#112;stroke-linecap:square;stroke-linejoin:round"/><polygon points="14.5 11 9.5 20 9.5 13 4.5 13 9.5 4 9.5 11 14.5 11" style="fill:none;stroke:#112;stroke-linecap:square;stroke-linejoin:round"/></svg>