<svg id="Layer_1" data-name="Layer 1" xmlns="http://www.w3.org/2000/svg" viewBox="0 0 24 24"><title>unity-docs-24px-folder-shared</title><path d="M21.5,21.5H3.5a1,1,0,0,1-1-1V4.5a1,1,0,0,1,1-1H8.79a2,2,0,0,1,1.13.35l1.9,1.3a2,2,0,0,0,1.13.35H21.5a1,1,0,0,1,1,1v14A1,1,0,0,1,21.5,21.5Z" style="fill:none;stroke:#112;stroke-linecap:square;stroke-linejoin:round"/><line x1="8.5" y1="14.5" x2="8.5" y2="17.5" style="fill:none;stroke:#112;stroke-linecap:square;stroke-linejoin:round"/><circle cx="12.5" cy="11.5" r="1" style="fill:none;stroke:#112;stroke-linecap:square;stroke-linejoin:round"/><circle cx="8.5" cy="11.5" r="1" style="fill:none;stroke:#112;stroke-linecap:square;stroke-linejoin:round"/><circle cx="16.5" cy="11.5" r="1" style="fill:none;stroke:#112;stroke-linecap:square;stroke-linejoin:round"/><line x1="12.5" y1="14.5" x2="12.5" y2="17.5" style="fill:none;stroke:#112;stroke-linecap:square;stroke-linejoin:round"/><line x1="6.5" y1="14.5" x2="18.5" y2="14.5" style="fill:none;stroke:#112;stroke-linecap:square;stroke-linejoin:round"/><line x1="16.5" y1="14.5" x2="16.5" y2="17.5" style="fill:none;stroke:#112;stroke-linecap:square;stroke-linejoin:round"/></svg>