<svg xmlns="http://www.w3.org/2000/svg" viewBox="0 0 24 24"><title>unity-interface-24px-wifi</title><g id="Layer_10" data-name="Layer 10"><path d="M12.92,20l-.92.92L11.08,20a1.29,1.29,0,0,1,1.84,0Z" style="fill:#112"/><path d="M16.6,16.28l-1.84,1.84a3.88,3.88,0,0,0-5.52,0L7.4,16.28a6.46,6.46,0,0,1,9.21,0Z" style="fill:#112"/><path d="M20.31,12.57l-1.85,1.85a9.1,9.1,0,0,0-12.91,0L3.69,12.57a11.73,11.73,0,0,1,16.61,0Z" style="fill:#112"/><path d="M24,8.88l-1.84,1.85a14.33,14.33,0,0,0-20.31,0L0,8.88a17,17,0,0,1,24,0Z" style="fill:#112"/></g></svg>