<svg id="Layer_1" data-name="Layer 1" xmlns="http://www.w3.org/2000/svg" viewBox="0 0 24 24"><title>unity-interface-24px-bell-line</title><path d="M9.11,19.63a3.17,3.17,0,0,0,5.78,0" style="fill:none;stroke:#5a5b5e;stroke-linecap:square;stroke-linejoin:round"/><path d="M18.5,17.5H5.5a1,1,0,0,1-1-1V13.74a2,2,0,0,1,.63-1.46l2.06-1.93a1,1,0,0,0,.31-.73V7A4.5,4.5,0,0,1,12,2.5h0A4.5,4.5,0,0,1,16.5,7V9.57a1,1,0,0,0,.31.72l2.08,2a2,2,0,0,1,.62,1.44V16.5A1,1,0,0,1,18.5,17.5Z" style="fill:none;stroke:#5a5b5e;stroke-linecap:square;stroke-linejoin:round"/></svg>