<svg id="Layer_1" data-name="Layer 1" xmlns="http://www.w3.org/2000/svg" viewBox="0 0 24 24"><title>unity-things-24px-receptacle</title><rect x="4.5" y="2.5" width="16" height="20" rx="1" ry="1" style="fill:none;stroke:#5a5b5e;stroke-linecap:square;stroke-linejoin:round"/><line x1="11.5" y1="7.5" x2="11.5" y2="9.5" style="fill:none;stroke:#5a5b5e;stroke-linecap:square;stroke-linejoin:round"/><line x1="13.5" y1="7.5" x2="13.5" y2="9.5" style="fill:none;stroke:#5a5b5e;stroke-linecap:square;stroke-linejoin:round"/><path d="M15.5,11.5h-6l-.37-1.1a6,6,0,0,1,0-3.79L9.5,5.5h6l.37,1.1a6,6,0,0,1,0,3.79Z" style="fill:none;stroke:#5a5b5e;stroke-linecap:square;stroke-linejoin:round"/><line x1="11.5" y1="15.5" x2="11.5" y2="17.5" style="fill:none;stroke:#5a5b5e;stroke-linecap:square;stroke-linejoin:round"/><line x1="13.5" y1="15.5" x2="13.5" y2="17.5" style="fill:none;stroke:#5a5b5e;stroke-linecap:square;stroke-linejoin:round"/><path d="M15.5,19.5h-6l-.37-1.1a6,6,0,0,1,0-3.79l.37-1.1h6l.37,1.1a6,6,0,0,1,0,3.79Z" style="fill:none;stroke:#5a5b5e;stroke-linecap:square;stroke-linejoin:round"/></svg>