<svg id="Layer_1" data-name="Layer 1" xmlns="http://www.w3.org/2000/svg" viewBox="0 0 24 24"><title>unity-basic-24px-arrow-multi-direction</title><line x1="12.5" y1="2.5" x2="12.5" y2="7.5" style="fill:none;stroke:#112;stroke-linecap:square;stroke-linejoin:round"/><line x1="12.5" y1="21.5" x2="12.5" y2="16.5" style="fill:none;stroke:#112;stroke-linecap:square;stroke-linejoin:round"/><line x1="21.5" y1="12.5" x2="16.5" y2="12.5" style="fill:none;stroke:#112;stroke-linecap:square;stroke-linejoin:round"/><line x1="3.5" y1="12.5" x2="8.5" y2="12.5" style="fill:none;stroke:#112;stroke-linecap:square;stroke-linejoin:round"/><polyline points="9.5 5.5 12 2.5 13 2.5 15.5 5.5" style="fill:none;stroke:#112;stroke-linecap:square;stroke-linejoin:round"/><polyline points="15.5 19.5 13 22 12 22 9.5 19.5" style="fill:none;stroke:#112;stroke-linecap:square;stroke-linejoin:round"/><path d="M18.5,9.5l2.55,1.7a1,1,0,0,1,.45.83V13a1,1,0,0,1-.45.83L18.5,15.5" style="fill:none;stroke:#112;stroke-linecap:square;stroke-linejoin:round"/><path d="M6.5,15.5,3.95,13.8A1,1,0,0,1,3.5,13V12a1,1,0,0,1,.45-.83L6.5,9.5" style="fill:none;stroke:#112;stroke-linecap:square;stroke-linejoin:round"/></svg>