<svg id="Layer_1" data-name="Layer 1" xmlns="http://www.w3.org/2000/svg" viewBox="0 0 24 24"><title>unity-interface-24px-edit</title><path d="M19.17,2.83h2a1,1,0,0,1,1,1v3a0,0,0,0,1,0,0h-4a0,0,0,0,1,0,0v-3a1,1,0,0,1,1-1Z" transform="translate(9.32 -12.85) rotate(45)" style="fill:none;stroke:#112;stroke-linecap:square;stroke-linejoin:round"/><polygon points="13.69 14.14 10.86 14.14 10.86 11.31 17.34 4.83 20.17 7.66 13.69 14.14" style="fill:none;stroke:#112;stroke-linecap:square;stroke-linejoin:round"/><path d="M21.5,11.54v9a1,1,0,0,1-1,1H3.5a1,1,0,0,1-1-1V5.5a1,1,0,0,1,1-1h9" style="fill:none;stroke:#112;stroke-linecap:square;stroke-linejoin:round"/></svg>