<svg id="Layer_1" data-name="Layer 1" xmlns="http://www.w3.org/2000/svg" viewBox="0 0 24 24"><title>unity-interface-24px-download-cloud</title><line x1="12.5" y1="9.5" x2="12.5" y2="19.5" style="fill:none;stroke:#112;stroke-linecap:square;stroke-linejoin:round"/><path d="M16.36,20.46l-3.21,2.79a1,1,0,0,1-1.31,0L8.64,20.46" style="fill:none;stroke:#112;stroke-linecap:square;stroke-linejoin:round"/><path d="M8.5,15.5H5.08A3.5,3.5,0,1,1,5,8.5a2.74,2.74,0,0,1,.5,0v0a6.92,6.92,0,0,1,4.73-6.64A7,7,0,0,1,19.5,8.5a5.66,5.66,0,0,1-.08,1h0a2.3,2.3,0,0,1,2.19.72c2,2.51.24,5.28-2.14,5.28h-3" style="fill:none;stroke:#112;stroke-linecap:square;stroke-linejoin:round"/></svg>