<svg id="Layer_1" data-name="Layer 1" xmlns="http://www.w3.org/2000/svg" viewBox="0 0 24 24"><title>unity-interface-24px-repeat</title><path d="M4.5,17.5h15a1,1,0,0,0,1-1v-4" style="fill:none;stroke:#112;stroke-linecap:square;stroke-linejoin:round"/><path d="M7.5,21.5,3.9,18.8a1,1,0,0,1-.4-.8V17a1,1,0,0,1,.4-.8l3.6-2.7" style="fill:none;stroke:#112;stroke-linecap:square;stroke-linejoin:round"/><path d="M19.5,6.5H4.5a1,1,0,0,0-1,1v4" style="fill:none;stroke:#112;stroke-linecap:square;stroke-linejoin:round"/><path d="M16.5,2.5l3.6,2.7a1,1,0,0,1,.4.8V7a1,1,0,0,1-.4.8l-3.6,2.7" style="fill:none;stroke:#112;stroke-linecap:square;stroke-linejoin:round"/></svg>