<svg id="Layer_1" data-name="Layer 1" xmlns="http://www.w3.org/2000/svg" viewBox="0 0 24 24"><title>unity-docs-24px-folder-shared</title><path d="M22.5,21.5H2.5a1,1,0,0,1-1-1V4.5a1,1,0,0,1,1-1H7.79a2,2,0,0,1,1.13.35l1.9,1.3a2,2,0,0,0,1.13.35H22.5a1,1,0,0,1,1,1v14A1,1,0,0,1,22.5,21.5Z" style="fill:none;stroke:#112;stroke-linecap:square;stroke-linejoin:round"/><line x1="7.5" y1="14.5" x2="7.5" y2="17.5" style="fill:none;stroke:#112;stroke-linecap:square;stroke-linejoin:round"/><circle cx="12.5" cy="11.5" r="1" style="fill:none;stroke:#112;stroke-linecap:square;stroke-linejoin:round"/><circle cx="7.5" cy="11.5" r="1" style="fill:none;stroke:#112;stroke-linecap:square;stroke-linejoin:round"/><circle cx="17.5" cy="11.5" r="1" style="fill:none;stroke:#112;stroke-linecap:square;stroke-linejoin:round"/><line x1="12.5" y1="14.5" x2="12.5" y2="17.5" style="fill:none;stroke:#112;stroke-linecap:square;stroke-linejoin:round"/><line x1="5.5" y1="14.5" x2="19.5" y2="14.5" style="fill:none;stroke:#112;stroke-linecap:square;stroke-linejoin:round"/><line x1="17.5" y1="14.5" x2="17.5" y2="17.5" style="fill:none;stroke:#112;stroke-linecap:square;stroke-linejoin:round"/></svg>