<svg id="Layer_1" data-name="Layer 1" xmlns="http://www.w3.org/2000/svg" viewBox="0 0 24 24"><title>unity-docs-24px-envelope-open</title><path d="M20.5,8.73V19.27a1,1,0,0,1-1,1H4.5a1,1,0,0,1-1-1V8.74A1,1,0,0,1,3.87,8l7.58-6a1,1,0,0,1,1.29,0l7.41,6A1,1,0,0,1,20.5,8.73Z" style="fill:none;stroke:#112;stroke-linecap:square;stroke-linejoin:round"/><path d="M16.93,11.68l-2.22,1.51a4,4,0,0,1-2.46.84h-.51a4,4,0,0,1-2.46-.84L7.16,11.75" style="fill:none;stroke:#112;stroke-linecap:square;stroke-linejoin:round"/></svg>