<svg id="Layer_1" data-name="Layer 1" xmlns="http://www.w3.org/2000/svg" viewBox="0 0 24 24"><title>unity-interface-24px-photo-gallery</title><circle cx="6" cy="6" r="1.5" style="fill:none;stroke:#5a5b5e;stroke-linecap:square;stroke-linejoin:round"/><polygon points="17.5 8 17.5 13.5 4.5 13.5 4.5 12.02 7.92 10.03 11.89 11.53 17.5 8" style="fill:none;stroke:#5a5b5e;stroke-linecap:square;stroke-linejoin:round"/><rect x="0.5" y="1.5" width="21" height="15" rx="1.01" ry="1.01" style="fill:none;stroke:#5a5b5e;stroke-linecap:square;stroke-linejoin:round"/><path d="M23.5,5.5v12a1,1,0,0,1-1,1H5.5" style="fill:none;stroke:#5a5b5e;stroke-linecap:square;stroke-linejoin:round"/><path d="M11.5,21a1,1,0,1,0,1,1,1,1,0,0,0-1-1Z" style="fill:#5a5b5e"/><path d="M7.5,21a1,1,0,1,0,1,1,1,1,0,0,0-1-1Z" style="fill:#5a5b5e"/><path d="M15.5,21a1,1,0,1,0,1,1,1,1,0,0,0-1-1Z" style="fill:#5a5b5e"/></svg>