<svg id="Layer_1" data-name="Layer 1" xmlns="http://www.w3.org/2000/svg" viewBox="0 0 24 24"><title>unity-docs-24px-file-pptx</title><rect x="1.5" y="8.5" width="21" height="8" style="fill:none;stroke:#5a5b5e;stroke-linecap:square;stroke-linejoin:round"/><path d="M4.13,10.91a.46.46,0,0,1,.46-.46H5.84A1.44,1.44,0,0,1,7.45,11.9h0a1.5,1.5,0,0,1-1.7,1.48h-.7v.83a.46.46,0,1,1-.92,0Zm1.65,1.65a.65.65,0,0,0,.73-.64h0c0-.41-.29-.64-.75-.64H5.05v1.28Z" style="fill:#5a5b5e"/><path d="M8.26,10.91a.46.46,0,0,1,.46-.46H10a1.44,1.44,0,0,1,1.61,1.45h0a1.5,1.5,0,0,1-1.7,1.48h-.7v.83a.46.46,0,1,1-.92,0Zm1.65,1.65a.65.65,0,0,0,.73-.64h0c0-.41-.29-.64-.75-.64H9.18v1.28Z" style="fill:#5a5b5e"/><path d="M13.36,11.3h-.89a.43.43,0,1,1,0-.85h2.7a.43.43,0,1,1,0,.85h-.89v2.92a.46.46,0,0,1-.92,0Z" style="fill:#5a5b5e"/><path d="M16.3,13.9l1.13-1.39-1.07-1.3a.57.57,0,0,1-.14-.34.44.44,0,0,1,.46-.46.48.48,0,0,1,.43.23L18,11.87l.91-1.2a.53.53,0,0,1,.45-.25.42.42,0,0,1,.42.43.55.55,0,0,1-.14.35L18.61,12.5l1.13,1.39a.56.56,0,0,1,.14.34.44.44,0,0,1-.46.46.49.49,0,0,1-.43-.23l-1-1.29-1,1.27a.53.53,0,0,1-.45.25.42.42,0,0,1-.42-.43A.55.55,0,0,1,16.3,13.9Z" style="fill:#5a5b5e"/><path d="M3.5,6.5v-3a1,1,0,0,1,1-1H14.67a2,2,0,0,1,1.42.59L19.5,6.5" style="fill:none;stroke:#5a5b5e;stroke-linecap:square;stroke-linejoin:round"/><path d="M20.5,18.5v3a1,1,0,0,1-1,1H4.5a1,1,0,0,1-1-1v-3" style="fill:none;stroke:#5a5b5e;stroke-linecap:square;stroke-linejoin:round"/></svg>