<svg id="Layer_1" data-name="Layer 1" xmlns="http://www.w3.org/2000/svg" viewBox="0 0 24 24"><title>icon-settings</title><path d="M13.09,2.8l.87,1a2,2,0,0,0,1.69.7L17,4.41a2,2,0,0,1,2.16,2.16L19,7.91a2,2,0,0,0,.7,1.69l1,.87a2,2,0,0,1,0,3.05l-1,.87a2,2,0,0,0-.7,1.69l.11,1.34A2,2,0,0,1,17,19.59l-1.34-.11a2,2,0,0,0-1.69.7l-.87,1a2,2,0,0,1-3.05,0l-.87-1a2,2,0,0,0-1.69-.7l-1.34.11A2,2,0,0,1,4,17.43l.11-1.34a2,2,0,0,0-.7-1.69l-1-.87a2,2,0,0,1,0-3.05l1-.87a2,2,0,0,0,.7-1.69L4,6.57A2,2,0,0,1,6.13,4.41l1.34.11a2,2,0,0,0,1.69-.7l.87-1A2,2,0,0,1,13.09,2.8Z" style="fill:none;stroke:#000;stroke-linecap:round;stroke-linejoin:round;stroke-width:2px"/><circle cx="11.56" cy="11.94" r="3" style="fill:none;stroke:#000;stroke-linecap:round;stroke-linejoin:round;stroke-width:2px"/></svg>