<?xml version="1.0" encoding="UTF-8"?>
<svg width="24px" height="24px" viewBox="0 0 24 24" version="1.1" xmlns="http://www.w3.org/2000/svg" xmlns:xlink="http://www.w3.org/1999/xlink">
    <!-- Generator: Sketch 42 (36781) - http://www.bohemiancoding.com/sketch -->
    <title>icon/notifications</title>
    <desc>Created with Sketch.</desc>
    <defs></defs>
    <g id="Symbols" stroke="none" stroke-width="1" fill="none" fill-rule="evenodd" stroke-linecap="round" fill-opacity="0" stroke-linejoin="round">
        <g id="icon/notifications" stroke="#D67D00" fill="#FFFFFF">
            <g id="ui-24px-outline-1_bell-55" transform="translate(2.000000, 1.000000)">
                <g id="Group">
                    <path d="M7,18.9 L7,19 C7,20.7 8.3,22 10,22 C11.7,22 13,20.7 13,19 L13,18.9" id="Shape"></path>
                    <path d="M17,10 L17,7 C17,3.1 13.9,0 10,0 C6.1,0 3,3.1 3,7 L3,10 C3,13.3 0,14.1 0,16 C0,17.7 3.9,19 10,19 C16.1,19 20,17.7 20,16 C20,14.1 17,13.3 17,10 Z" id="Shape"></path>
                </g>
            </g>
        </g>
    </g>
</svg>