<?xml version="1.0" encoding="UTF-8"?>
<svg width="24px" height="24px" viewBox="0 0 24 24" version="1.1" xmlns="http://www.w3.org/2000/svg" xmlns:xlink="http://www.w3.org/1999/xlink">
    <!-- Generator: Sketch 42 (36781) - http://www.bohemiancoding.com/sketch -->
    <title>icon/pdf</title>
    <desc>Created with Sketch.</desc>
    <defs></defs>
    <g id="Symbols" stroke="none" stroke-width="1" fill="none" fill-rule="evenodd" stroke-linecap="round" fill-opacity="0" stroke-linejoin="round">
        <g id="icon/pdf" stroke="#D67D00" fill="#FFFFFF">
            <g id="pdf" transform="translate(3.000000, 1.000000)">
                <path d="M13.2089518,0.789381906 C12.872637,0.353418318 12.1515593,0 11.5901882,0 L1.99650746,0 C0.893866836,0 0,0.889673948 0,1.991155 L0,20.008845 C0,21.1085295 0.892622799,22 1.99508929,22 L16.0049107,22 C17.1067681,22 18,21.1066027 18,20.0081158 L18,8.00748397 C18,7.45106594 17.7247893,6.64324534 17.3910482,6.21061809 L13.2089518,0.789381906 Z" id="Shape"></path>
                <path d="M6.09812899,15.9555134 C7.53501513,12.5224394 8.19225293,10.8059024 8.910696,7.37282847 C9.62913908,3.93975451 6.09812899,4.49031332 7.53501513,7.37282847 C8.97190127,10.2553436 9.69034435,11.6641709 11.8456736,14.2389764 C14.0010028,16.8137819 16.156332,11.6914495 11.1272305,12.5224394 C10.3661725,12.6481938 8.2534582,13.3807079 5.37968592,14.2389764 C2.50591363,15.0972449 4.81203128,19.0283167 6.09812899,15.9555134 Z" id="Path-2"></path>
            </g>
        </g>
    </g>
</svg>