<?xml version="1.0" encoding="UTF-8"?>
<svg width="24px" height="24px" viewBox="0 0 24 24" version="1.1" xmlns="http://www.w3.org/2000/svg" xmlns:xlink="http://www.w3.org/1999/xlink">
    <!-- Generator: Sketch 42 (36781) - http://www.bohemiancoding.com/sketch -->
    <title>icon/settings</title>
    <desc>Created with Sketch.</desc>
    <defs></defs>
    <g id="Symbols" stroke="none" stroke-width="1" fill="none" fill-rule="evenodd" stroke-linecap="round" fill-opacity="0" stroke-linejoin="round">
        <g id="icon/settings" stroke="#D67D00" fill="#FFFFFF">
            <g id="ui-24px-outline-1_settings-gear-65" transform="translate(1.000000, 1.000000)">
                <g id="Group" transform="translate(0.478261, 0.478261)">
                    <path d="M21.0434783,10.5217391 C21.0434783,9.46478261 20.1873913,8.60869565 19.1304348,8.60869565 L17.9233043,8.60869565 C17.7425217,7.90852174 17.4670435,7.24852174 17.1083478,6.64017391 L17.9615652,5.78695652 C18.7086087,5.03991304 18.7086087,3.82895652 17.9615652,3.08191304 C17.2145217,2.33486957 16.0035652,2.33486957 15.2565217,3.08191304 L14.4033043,3.93513043 C13.7949565,3.57643478 13.1349565,3.30095652 12.4347826,3.12017391 L12.4347826,1.91304348 C12.4347826,0.857043478 11.5786957,0 10.5217391,0 C9.46478261,0 8.60869565,0.856086957 8.60869565,1.91304348 L8.60869565,3.12017391 C7.90852174,3.30095652 7.24852174,3.57643478 6.64017391,3.93513043 L5.78695652,3.08191304 C5.03991304,2.33486957 3.82895652,2.33486957 3.08191304,3.08191304 C2.33486957,3.82895652 2.33486957,5.03991304 3.08191304,5.78695652 L3.93513043,6.64017391 C3.57643478,7.24852174 3.30095652,7.90852174 3.12017391,8.60869565 L1.91304348,8.60869565 C0.857043478,8.60869565 0,9.46478261 0,10.5217391 C0,11.5786957 0.856086957,12.4347826 1.91304348,12.4347826 L3.12017391,12.4347826 C3.30095652,13.1349565 3.57643478,13.7949565 3.93513043,14.4033043 L3.08191304,15.2565217 C2.33486957,16.0035652 2.33486957,17.2145217 3.08191304,17.9615652 C3.82895652,18.7086087 5.03991304,18.7086087 5.78695652,17.9615652 L6.64017391,17.1083478 C7.24756522,17.4670435 7.90852174,17.7425217 8.60869565,17.9233043 L8.60869565,19.1304348 C8.60869565,20.1864348 9.46478261,21.0434783 10.5217391,21.0434783 C11.5786957,21.0434783 12.4347826,20.1873913 12.4347826,19.1304348 L12.4347826,17.9233043 C13.1349565,17.7425217 13.7949565,17.4670435 14.4033043,17.1083478 L15.2565217,17.9615652 C16.0035652,18.7086087 17.2145217,18.7086087 17.9615652,17.9615652 C18.7086087,17.2145217 18.7086087,16.0035652 17.9615652,15.2565217 L17.1083478,14.4033043 C17.4670435,13.795913 17.7425217,13.1349565 17.9233043,12.4347826 L19.1304348,12.4347826 C20.1864348,12.4347826 21.0434783,11.5786957 21.0434783,10.5217391 Z" id="Shape"></path>
                    <circle id="Oval" cx="10.5217391" cy="10.5217391" r="2.86956522"></circle>
                </g>
            </g>
        </g>
    </g>
</svg>