<svg id="target" xmlns="http://www.w3.org/2000/svg" viewBox="0 0 48 48"><title>arrow-multi-direction</title><line x1="24.5" y1="6.5" x2="24.5" y2="16.5" fill="none" stroke="currentColor" stroke-linecap="square" stroke-linejoin="round"/><path d="M18.5,8.5l5.229-5.229a1.091,1.091,0,0,1,1.543,0L30.5,8.5" fill="none" stroke="currentColor" stroke-linecap="square" stroke-linejoin="round"/><line x1="24.5" y1="42.5" x2="24.5" y2="32.5" fill="none" stroke="currentColor" stroke-linecap="square" stroke-linejoin="round"/><path d="M30.5,40.5l-5.229,5.229a1.091,1.091,0,0,1-1.543,0L18.5,40.5" fill="none" stroke="currentColor" stroke-linecap="square" stroke-linejoin="round"/><line x1="42.5" y1="24.5" x2="32.5" y2="24.5" fill="none" stroke="currentColor" stroke-linecap="square" stroke-linejoin="round"/><path d="M40.5,18.5l5.229,5.229a1.091,1.091,0,0,1,0,1.543L40.5,30.5" fill="none" stroke="currentColor" stroke-linecap="square" stroke-linejoin="round"/><line x1="6.5" y1="24.5" x2="16.5" y2="24.5" fill="none" stroke="currentColor" stroke-linecap="square" stroke-linejoin="round"/><path d="M8.5,30.5,3.271,25.271a1.091,1.091,0,0,1,0-1.543L8.5,18.5" fill="none" stroke="currentColor" stroke-linecap="square" stroke-linejoin="round"/></svg>