<svg id="target" xmlns="http://www.w3.org/2000/svg" viewBox="0 0 48 48"><title>arrow-multi-direction</title><line x1="24" y1="4" x2="24" y2="16" fill="none" stroke="currentColor" stroke-linecap="square" stroke-linejoin="round" stroke-width="2"/><path d="M18,7.5l5.229-5.229a1.091,1.091,0,0,1,1.543,0L30,7.5" fill="none" stroke="currentColor" stroke-linecap="square" stroke-linejoin="round" stroke-width="2"/><line x1="24" y1="44" x2="24" y2="33" fill="none" stroke="currentColor" stroke-linecap="square" stroke-linejoin="round" stroke-width="2"/><path d="M30,40.5l-5.229,5.229a1.091,1.091,0,0,1-1.543,0L18,40.5" fill="none" stroke="currentColor" stroke-linecap="square" stroke-linejoin="round" stroke-width="2"/><line x1="44" y1="24" x2="33" y2="24" fill="none" stroke="currentColor" stroke-linecap="square" stroke-linejoin="round" stroke-width="2"/><path d="M40.5,18l5.229,5.229a1.091,1.091,0,0,1,0,1.543L40.5,30" fill="none" stroke="currentColor" stroke-linecap="square" stroke-linejoin="round" stroke-width="2"/><line x1="4" y1="24" x2="16" y2="24" fill="none" stroke="currentColor" stroke-linecap="square" stroke-linejoin="round" stroke-width="2"/><path d="M7.5,30,2.271,24.771a1.091,1.091,0,0,1,0-1.543L7.5,18" fill="none" stroke="currentColor" stroke-linecap="square" stroke-linejoin="round" stroke-width="2"/></svg>