<svg id="target" xmlns="http://www.w3.org/2000/svg" viewBox="0 0 48 48"><title>unicons-interface-48px-bell-line</title><path d="M38.5,35.5h-28a2,2,0,0,1-2-2V28.843a6,6,0,0,1,1.889-4.37l2.852-2.683A4,4,0,0,0,14.5,18.877V15a10,10,0,0,1,10-10h0a10,10,0,0,1,10,10v3.794a4,4,0,0,0,1.233,2.888l2.918,2.8A6,6,0,0,1,40.5,28.81V33.5A2,2,0,0,1,38.5,35.5Z" fill="none" stroke="currentColor" stroke-linecap="square" stroke-linejoin="round"/><path d="M18.68,38.5a6.494,6.494,0,0,0,12.64,0" fill="none" stroke="currentColor" stroke-linecap="square" stroke-linejoin="round"/></svg>