<svg id="target" xmlns="http://www.w3.org/2000/svg" viewBox="0 0 48 48"><title>unicons-things-48px-buildings</title><rect x="26.5" y="11.5" width="18" height="36" fill="none" stroke="currentColor" stroke-linejoin="round"/><rect x="0.5" y="22.5" width="14" height="25" fill="none" stroke="currentColor" stroke-linejoin="round"/><polyline points="8.5 19.5 8.5 3.5 39.5 3.5 39.5 8.5" fill="none" stroke="currentColor" stroke-linecap="square" stroke-linejoin="round"/><line x1="23.5" y1="47.5" x2="17.5" y2="47.5" fill="none" stroke="currentColor" stroke-linecap="square" stroke-linejoin="round"/><line x1="12.5" y1="0.5" x2="12.5" y2="3.5" fill="none" stroke="currentColor" stroke-linecap="square" stroke-linejoin="round"/><line x1="4.5" y1="26.5" x2="10.5" y2="26.5" fill="none" stroke="currentColor" stroke-linecap="square" stroke-linejoin="round"/><line x1="4.5" y1="30.5" x2="10.5" y2="30.5" fill="none" stroke="currentColor" stroke-linecap="square" stroke-linejoin="round"/><line x1="4.5" y1="34.5" x2="10.5" y2="34.5" fill="none" stroke="currentColor" stroke-linecap="square" stroke-linejoin="round"/><line x1="4.5" y1="38.5" x2="10.5" y2="38.5" fill="none" stroke="currentColor" stroke-linecap="square" stroke-linejoin="round"/><line x1="4.5" y1="42.5" x2="10.5" y2="42.5" fill="none" stroke="currentColor" stroke-linecap="square" stroke-linejoin="round"/><rect x="30.5" y="15.5" width="10" height="4" fill="none" stroke="currentColor" stroke-linecap="square" stroke-linejoin="round"/><rect x="30.5" y="21.5" width="10" height="4" fill="none" stroke="currentColor" stroke-linecap="square" stroke-linejoin="round"/><rect x="30.5" y="27.5" width="10" height="4" fill="none" stroke="currentColor" stroke-linecap="square" stroke-linejoin="round"/><rect x="30.5" y="33.5" width="10" height="4" fill="none" stroke="currentColor" stroke-linecap="square" stroke-linejoin="round"/><rect x="30.5" y="39.5" width="10" height="4" fill="none" stroke="currentColor" stroke-linecap="square" stroke-linejoin="round"/><rect x="12.5" y="7.5" width="5" height="5" fill="none" stroke="currentColor" stroke-linecap="square" stroke-linejoin="round"/><polyline points="30.5 8.5 30.5 7.5 35.5 7.5 35.5 8.5" fill="none" stroke="currentColor" stroke-linecap="square" stroke-linejoin="round"/><polyline points="12.5 19.5 12.5 16.5 17.5 16.5 17.5 21.5" fill="none" stroke="currentColor" stroke-linecap="square" stroke-linejoin="round"/><polyline points="23.5 12.5 21.5 12.5 21.5 7.5 26.5 7.5 26.5 8.5" fill="none" stroke="currentColor" stroke-linecap="square" stroke-linejoin="round"/><polyline points="23.5 21.5 21.5 21.5 21.5 16.5 23.5 16.5" fill="none" stroke="currentColor" stroke-linecap="square" stroke-linejoin="round"/><polyline points="23.5 30.5 21.5 30.5 21.5 25.5 23.5 25.5" fill="none" stroke="currentColor" stroke-linecap="square" stroke-linejoin="round"/><polyline points="23.5 39.5 21.5 39.5 21.5 34.5 23.5 34.5" fill="none" stroke="currentColor" stroke-linecap="square" stroke-linejoin="round"/><line x1="17.5" y1="25.5" x2="17.5" y2="30.5" fill="none" stroke="currentColor" stroke-linecap="square" stroke-linejoin="round"/><line x1="17.5" y1="34.5" x2="17.5" y2="39.5" fill="none" stroke="currentColor" stroke-linecap="square" stroke-linejoin="round"/></svg>