<svg id="target" xmlns="http://www.w3.org/2000/svg" viewBox="0 0 48 48"><title>unicons-things-48px-building</title><rect x="11.5" y="2.5" width="26" height="44" fill="none" stroke="currentColor" stroke-linecap="square" stroke-linejoin="round"/><polyline points="8.5 46.5 5.5 46.5 5.5 30.5 8.5 30.5" fill="none" stroke="currentColor" stroke-linecap="square" stroke-linejoin="round"/><polyline points="40.5 30.5 43.5 30.5 43.5 46.5 40.5 46.5" fill="none" stroke="currentColor" stroke-linecap="square" stroke-linejoin="round"/><polyline points="21.5 46.5 21.5 38.5 27.5 38.5 27.5 46.5" fill="none" stroke="currentColor" stroke-linecap="square" stroke-linejoin="round"/><rect x="15.5" y="6.5" width="7" height="4" fill="none" stroke="currentColor" stroke-linecap="square" stroke-linejoin="round"/><rect x="15.5" y="14.5" width="7" height="4" fill="none" stroke="currentColor" stroke-linecap="square" stroke-linejoin="round"/><rect x="15.5" y="22.5" width="7" height="4" fill="none" stroke="currentColor" stroke-linecap="square" stroke-linejoin="round"/><rect x="15.5" y="30.5" width="7" height="4" fill="none" stroke="currentColor" stroke-linecap="square" stroke-linejoin="round"/><rect x="26.5" y="6.5" width="7" height="4" fill="none" stroke="currentColor" stroke-linecap="square" stroke-linejoin="round"/><rect x="26.5" y="14.5" width="7" height="4" fill="none" stroke="currentColor" stroke-linecap="square" stroke-linejoin="round"/><rect x="26.5" y="22.5" width="7" height="4" fill="none" stroke="currentColor" stroke-linecap="square" stroke-linejoin="round"/><rect x="26.5" y="30.5" width="7" height="4" fill="none" stroke="currentColor" stroke-linecap="square" stroke-linejoin="round"/></svg>