<svg id="target" xmlns="http://www.w3.org/2000/svg" viewBox="0 0 48 48"><title>unicons-interface-48px-calendar</title><line x1="18.5" y1="6.5" x2="30.5" y2="6.5" fill="none" stroke="currentColor" stroke-linecap="square" stroke-linejoin="round"/><path d="M38.5,6.5h4a2,2,0,0,1,2,2v33a2,2,0,0,1-2,2H6.5a2,2,0,0,1-2-2V8.5a2,2,0,0,1,2-2h4" fill="none" stroke="currentColor" stroke-linecap="square" stroke-linejoin="round"/><line x1="14.5" y1="3.5" x2="14.5" y2="9.5" fill="none" stroke="currentColor" stroke-linecap="square" stroke-linejoin="round"/><line x1="34.5" y1="3.5" x2="34.5" y2="9.5" fill="none" stroke="currentColor" stroke-linecap="square" stroke-linejoin="round"/><rect x="11.5" y="20.5" width="6" height="6" fill="none" stroke="currentColor" stroke-linecap="square" stroke-linejoin="round"/><rect x="11.5" y="31.5" width="6" height="6" fill="none" stroke="currentColor" stroke-linecap="square" stroke-linejoin="round"/><rect x="21.5" y="20.5" width="6" height="6" fill="none" stroke="currentColor" stroke-linecap="square" stroke-linejoin="round"/><rect x="21.5" y="31.5" width="6" height="6" fill="none" stroke="currentColor" stroke-linecap="square" stroke-linejoin="round"/><rect x="31.5" y="20.5" width="6" height="6" fill="none" stroke="currentColor" stroke-linecap="square" stroke-linejoin="round"/><line x1="8.5" y1="14.5" x2="40.5" y2="14.5" fill="none" stroke="currentColor" stroke-linecap="square" stroke-linejoin="round"/></svg>