<svg id="target" xmlns="http://www.w3.org/2000/svg" viewBox="0 0 48 48"><title>car</title><path d="M13.5,40.5v3a2,2,0,0,1-2,2h-5a2,2,0,0,1-2-2v-3" fill="none" stroke="currentColor" stroke-linecap="square" stroke-linejoin="round"/><path d="M43.5,40.5v3a2,2,0,0,1-2,2h-5a2,2,0,0,1-2-2v-3" fill="none" stroke="currentColor" stroke-linecap="square" stroke-linejoin="round"/><path d="M46.5,27.5v9a1,1,0,0,1-1,1H2.5a1,1,0,0,1-1-1v-9a4,4,0,0,1,4-4h0L11.013,8.8a2,2,0,0,1,1.873-1.3H35.114a2,2,0,0,1,1.873,1.3L42.5,23.5h0A4,4,0,0,1,46.5,27.5Z" fill="none" stroke="currentColor" stroke-linecap="square" stroke-linejoin="round"/><circle cx="8.5" cy="30.5" r="3" fill="none" stroke="currentColor" stroke-linecap="square" stroke-linejoin="round"/><circle cx="39.5" cy="30.5" r="3" fill="none" stroke="currentColor" stroke-linecap="square" stroke-linejoin="round"/><polygon points="37.023 22.5 11.021 22.5 15.021 11.5 33.023 11.5 37.023 22.5" fill="none" stroke="currentColor" stroke-linecap="square" stroke-linejoin="round"/><line x1="15.5" y1="30.5" x2="32.5" y2="30.5" fill="none" stroke="currentColor" stroke-linecap="square" stroke-linejoin="round"/></svg>