<svg id="target" xmlns="http://www.w3.org/2000/svg" viewBox="0 0 48 48"><title>car</title><path d="M14,41v3a2,2,0,0,1-2,2H7a2,2,0,0,1-2-2V41" fill="none" stroke="currentColor" stroke-linecap="square" stroke-linejoin="round" stroke-width="2"/><path d="M43,41v3a2,2,0,0,1-2,2H36a2,2,0,0,1-2-2V41" fill="none" stroke="currentColor" stroke-linecap="square" stroke-linejoin="round" stroke-width="2"/><path d="M46,28v9a1,1,0,0,1-1,1H3a1,1,0,0,1-1-1V28a4,4,0,0,1,4-4H6L11.513,9.3A2,2,0,0,1,13.386,8H34.614a2,2,0,0,1,1.873,1.3L42,24h0A4,4,0,0,1,46,28Z" fill="none" stroke="currentColor" stroke-linecap="square" stroke-linejoin="round" stroke-width="2"/><circle cx="9" cy="31" r="3" fill="none" stroke="currentColor" stroke-linecap="square" stroke-linejoin="round" stroke-width="2"/><circle cx="39" cy="31" r="3" fill="none" stroke="currentColor" stroke-linecap="square" stroke-linejoin="round" stroke-width="2"/><polygon points="36.023 23 11.021 23 15.021 12 32.023 12 36.023 23" fill="none" stroke="currentColor" stroke-linecap="square" stroke-linejoin="round" stroke-width="2"/><line x1="16" y1="31" x2="32" y2="31" fill="none" stroke="currentColor" stroke-linecap="square" stroke-linejoin="round" stroke-width="2"/></svg>