<svg id="target" xmlns="http://www.w3.org/2000/svg" viewBox="0 0 48 48"><title>circle-question-mark</title><path d="M19.5,17.049a5.037,5.037,0,0,1,7.211-4.524,4.514,4.514,0,0,1,2.314,2.314,5.049,5.049,0,0,1-3.109,7.007A2.089,2.089,0,0,0,24.5,23.882V26.5" fill="none" stroke="currentColor" stroke-linecap="round" stroke-linejoin="round"/><circle cx="24.5" cy="24.5" r="22" transform="translate(-10.148 24.5) rotate(-45)" fill="none" stroke="currentColor" stroke-linecap="square" stroke-linejoin="round"/><path d="M24.5,32.5a1,1,0,1,1-1,1,1,1,0,0,1,1-1m0-1a2,2,0,1,0,2,2,2,2,0,0,0-2-2Z" fill="currentColor"/></svg>