<svg id="target" xmlns="http://www.w3.org/2000/svg" viewBox="0 0 48 48"><title>unicons-interface-48px-clipboard</title><rect x="15.5" y="4.5" width="17" height="8" rx="1" ry="1" fill="none" stroke="currentColor" stroke-linecap="square" stroke-linejoin="round"/><path d="M11.5,8.5h-3a2,2,0,0,0-2,2v32a2,2,0,0,0,2,2h31a2,2,0,0,0,2-2v-32a2,2,0,0,0-2-2h-3" fill="none" stroke="currentColor" stroke-linecap="square" stroke-linejoin="round"/><path d="M37.5,16.5v23a1,1,0,0,1-1,1h-25a1,1,0,0,1-1-1v-23" fill="none" stroke="currentColor" stroke-linecap="square" stroke-linejoin="round"/></svg>