<svg id="target" xmlns="http://www.w3.org/2000/svg" viewBox="0 0 48 48"><title>unicons-nature-48px-cloud-rain</title><line x1="9.5" y1="39.5" x2="9.5" y2="45.5" fill="none" stroke="currentColor" stroke-linecap="square" stroke-linejoin="round"/><line x1="15.5" y1="39.5" x2="15.5" y2="43.5" fill="none" stroke="currentColor" stroke-linecap="square" stroke-linejoin="round"/><line x1="21.5" y1="39.5" x2="21.5" y2="43.5" fill="none" stroke="currentColor" stroke-linecap="square" stroke-linejoin="round"/><line x1="27.5" y1="39.5" x2="27.5" y2="43.5" fill="none" stroke="currentColor" stroke-linecap="square" stroke-linejoin="round"/><line x1="33.5" y1="39.5" x2="33.5" y2="45.5" fill="none" stroke="currentColor" stroke-linecap="square" stroke-linejoin="round"/><line x1="39.5" y1="39.5" x2="39.5" y2="43.5" fill="none" stroke="currentColor" stroke-linecap="square" stroke-linejoin="round"/><path d="M13.68,17.5a11,11,0,0,1,10.82-9" fill="none" stroke="currentColor" stroke-linecap="square" stroke-linejoin="round"/><path d="M46.5,26.5a9,9,0,0,1-9,9h-27A9,9,0,0,1,8.6,17.7a16,16,0,0,1,31.83.3A8.98,8.98,0,0,1,46.5,26.5Z" fill="none" stroke="currentColor" stroke-linecap="square" stroke-linejoin="round"/></svg>