<svg id="target" xmlns="http://www.w3.org/2000/svg" viewBox="0 0 48 48"><title>unicons-interface-48px-comment-coversation</title><path d="M22.5,20.5v15a1,1,0,0,0,1,1h18l6,5.714V20.5a1,1,0,0,0-1-1h-23A1,1,0,0,0,22.5,20.5Z" fill="none" stroke="currentColor" stroke-linecap="square" stroke-linejoin="round"/><line x1="7.5" y1="12.5" x2="31.5" y2="12.5" fill="none" stroke="currentColor" stroke-linecap="square" stroke-linejoin="round"/><line x1="7.5" y1="18.5" x2="19.5" y2="18.5" fill="none" stroke="currentColor" stroke-linecap="square" stroke-linejoin="round"/><line x1="7.5" y1="24.5" x2="15.5" y2="24.5" fill="none" stroke="currentColor" stroke-linecap="square" stroke-linejoin="round"/><path d="M19.5,32.5h-8l-10,10V6.5a2,2,0,0,1,2-2h36a2,2,0,0,1,2,2v10" fill="none" stroke="currentColor" stroke-linecap="square" stroke-linejoin="round"/><path d="M41,27a1,1,0,1,1-1,1,1,1,0,0,1,1-1m0-1a2,2,0,1,0,2,2,2,2,0,0,0-2-2Z" fill="currentColor"/><path d="M35,27a1,1,0,1,1-1,1,1,1,0,0,1,1-1m0-1a2,2,0,1,0,2,2,2,2,0,0,0-2-2Z" fill="currentColor"/><path d="M29,27a1,1,0,1,1-1,1,1,1,0,0,1,1-1m0-1a2,2,0,1,0,2,2,2,2,0,0,0-2-2Z" fill="currentColor"/></svg>