<svg id="target" xmlns="http://www.w3.org/2000/svg" viewBox="0 0 48 48"><title>unicons-interface-48px-comment-typing</title><path d="M35,18a2,2,0,1,1-2,2,2,2,0,0,1,2-2m0-1a3,3,0,1,0,3,3,3,3,0,0,0-3-3Z" fill="currentColor"/><path d="M25,18a2,2,0,1,1-2,2,2,2,0,0,1,2-2m0-1a3,3,0,1,0,3,3,3,3,0,0,0-3-3Z" fill="currentColor"/><path d="M15,18a2,2,0,1,1-2,2,2,2,0,0,1,2-2m0-1a3,3,0,1,0,3,3,3,3,0,0,0-3-3Z" fill="currentColor"/><path d="M44.5,8.5v24a2,2,0,0,1-2,2h-28l-10,10V8.5a2,2,0,0,1,2-2h36A2,2,0,0,1,44.5,8.5Z" fill="none" stroke="currentColor" stroke-linecap="square" stroke-linejoin="round"/></svg>