<svg id="target" xmlns="http://www.w3.org/2000/svg" viewBox="0 0 48 48"><title>unicons-people-48px-contact-card</title><path d="M6.5,2.5h34a0,0,0,0,1,0,0v38a0,0,0,0,1,0,0H6.5a2,2,0,0,1-2-2V4.5A2,2,0,0,1,6.5,2.5Z" fill="none" stroke="currentColor" stroke-linecap="square" stroke-linejoin="round"/><line x1="44.5" y1="4.5" x2="44.5" y2="8.5" fill="none" stroke="currentColor" stroke-linecap="square" stroke-linejoin="round"/><line x1="44.5" y1="12.5" x2="44.5" y2="16.5" fill="none" stroke="currentColor" stroke-linecap="square" stroke-linejoin="round"/><polyline points="44.5 20.5 44.5 44.5 6.5 44.5" fill="none" stroke="currentColor" stroke-linecap="square" stroke-linejoin="round"/><circle cx="22.5" cy="16.5" r="4" fill="none" stroke="currentColor" stroke-linecap="square" stroke-linejoin="round"/><path d="M26.96,22.5a5.931,5.931,0,0,1,1.54,4v2h-12v-2a5.931,5.931,0,0,1,1.54-4" fill="none" stroke="currentColor" stroke-linecap="square" stroke-linejoin="round"/></svg>