<svg id="target" xmlns="http://www.w3.org/2000/svg" viewBox="0 0 48 48"><title>unicons-interface-48px-copy</title><path d="M34.52,14.62,26.47,6.57A3.653,3.653,0,0,0,23.887,5.5H6.33A1.829,1.829,0,0,0,4.5,7.32V38.18A1.829,1.829,0,0,0,6.33,40H19.5" fill="none" stroke="currentColor" stroke-linecap="square" stroke-linejoin="round"/><path d="M43.787,24.687l-4.5-4.5a2.35,2.35,0,0,0-1.662-.688H25.675A1.175,1.175,0,0,0,24.5,20.675v21.15A1.175,1.175,0,0,0,25.675,43H43.3a1.175,1.175,0,0,0,1.175-1.175V26.348A2.35,2.35,0,0,0,43.787,24.687Z" fill="none" stroke="currentColor" stroke-linecap="square" stroke-linejoin="round"/></svg>