<svg id="target" xmlns="http://www.w3.org/2000/svg" viewBox="0 0 48 48"><title>unicons-docs-48px-file-jpg</title><rect x="3.5" y="16.5" width="42" height="17" rx="2" ry="2" fill="none" stroke="currentColor" stroke-linecap="square" stroke-linejoin="round"/><path d="M7.5,12.5v-6a2.006,2.006,0,0,1,2-2H29.84a4.012,4.012,0,0,1,2.84,1.18L39.5,12.5" fill="none" stroke="currentColor" stroke-linecap="square" stroke-linejoin="round"/><path d="M41.5,37.5v5a2.006,2.006,0,0,1-2,2H9.5a2.006,2.006,0,0,1-2-2v-5" fill="none" stroke="currentColor" stroke-linecap="square" stroke-linejoin="round"/><path d="M12.826,28.446a.769.769,0,0,1-.252-.552.7.7,0,0,1,.707-.707.664.664,0,0,1,.456.168A1.8,1.8,0,0,0,15.1,28c.815,0,1.355-.528,1.355-1.655V21.526a.744.744,0,0,1,1.487,0V26.4a3.045,3.045,0,0,1-.792,2.23,2.8,2.8,0,0,1-2.038.744A3.127,3.127,0,0,1,12.826,28.446Z" fill="currentColor"/><path d="M19.979,21.6a.732.732,0,0,1,.743-.744h2.566c1.967,0,3.19,1.115,3.19,2.807v.024c0,1.883-1.512,2.866-3.358,2.866H21.453v2.026a.737.737,0,0,1-1.475,0Zm3.189,3.622c1.115,0,1.811-.624,1.811-1.5V23.7c0-.983-.707-1.5-1.811-1.5H21.453v3.022Z" fill="currentColor"/><path d="M27.621,25.076v-.023a4.277,4.277,0,0,1,4.33-4.342,4.556,4.556,0,0,1,2.867.852.75.75,0,0,1,.3.6.734.734,0,0,1-.731.731.778.778,0,0,1-.456-.168,3.19,3.19,0,0,0-2.039-.659,2.839,2.839,0,0,0-2.722,2.962v.024a2.8,2.8,0,0,0,2.854,3,3.432,3.432,0,0,0,2.027-.636V25.844H32.395a.645.645,0,0,1-.659-.636.655.655,0,0,1,.659-.647h2.34a.733.733,0,0,1,.743.743v2.243a1.018,1.018,0,0,1-.517.936,5.345,5.345,0,0,1-2.986.911A4.165,4.165,0,0,1,27.621,25.076Z" fill="currentColor"/></svg>