<svg id="target" xmlns="http://www.w3.org/2000/svg" viewBox="0 0 48 48"><title>unicons-docs-48px-file-code</title><path d="M40.328,13.328,32.672,5.672A4,4,0,0,0,29.843,4.5H9.5a2,2,0,0,0-2,2v36a2,2,0,0,0,2,2h30a2,2,0,0,0,2-2V16.157A4,4,0,0,0,40.328,13.328Z" fill="none" stroke="currentColor" stroke-linecap="square" stroke-linejoin="round"/><line x1="25.5" y1="30.5" x2="33.5" y2="30.5" fill="none" stroke="currentColor" stroke-linecap="square" stroke-linejoin="round"/><path d="M17,18.5l4.586,4.586a2,2,0,0,1,0,2.828L17,30.5" fill="none" stroke="currentColor" stroke-linecap="square" stroke-linejoin="round"/></svg>