<svg id="target" xmlns="http://www.w3.org/2000/svg" viewBox="0 0 48 48"><title>unicons-docs-48px-file-csv</title><rect x="3.5" y="16.5" width="42" height="17" rx="2" ry="2" fill="none" stroke="currentColor" stroke-linecap="square" stroke-linejoin="round"/><path d="M7.5,12.5v-6a2.006,2.006,0,0,1,2-2H29.84a4.012,4.012,0,0,1,2.84,1.18L39.5,12.5" fill="none" stroke="currentColor" stroke-linecap="square" stroke-linejoin="round"/><path d="M41.5,37.5v5a2.006,2.006,0,0,1-2,2H9.5a2.006,2.006,0,0,1-2-2v-5" fill="none" stroke="currentColor" stroke-linecap="square" stroke-linejoin="round"/><path d="M12.43,25.076v-.023a4.249,4.249,0,0,1,4.33-4.342,4.4,4.4,0,0,1,2.878.947.737.737,0,0,1,.288.588.737.737,0,0,1-1.175.575,3.045,3.045,0,0,0-2-.755,2.825,2.825,0,0,0-2.771,2.962v.024a2.828,2.828,0,0,0,2.771,2.974,3.005,3.005,0,0,0,2.1-.8.673.673,0,0,1,.444-.167.688.688,0,0,1,.456,1.211A4.29,4.29,0,0,1,16.7,29.394,4.222,4.222,0,0,1,12.43,25.076Z" fill="currentColor"/><path d="M21.441,28.314a.693.693,0,0,1-.288-.563.714.714,0,0,1,1.127-.552,3.639,3.639,0,0,0,2.351.863c.912,0,1.487-.432,1.487-1.056v-.023c0-.6-.336-.924-1.9-1.283-1.787-.432-2.794-.96-2.794-2.507v-.024c0-1.438,1.2-2.435,2.866-2.435a4.617,4.617,0,0,1,2.663.78.665.665,0,0,1,.324.587.686.686,0,0,1-.7.684.709.709,0,0,1-.384-.107,3.492,3.492,0,0,0-1.931-.636c-.863,0-1.367.443-1.367,1v.024c0,.647.384.936,2,1.319,1.775.432,2.687,1.067,2.687,2.458v.024c0,1.571-1.235,2.507-3,2.507A5.23,5.23,0,0,1,21.441,28.314Z" fill="currentColor"/><path d="M31.5,28.771l-2.938-6.908a.829.829,0,0,1-.084-.348.727.727,0,0,1,.744-.72.771.771,0,0,1,.755.527L32.4,27.379l2.458-6.1a.76.76,0,0,1,.708-.479.714.714,0,0,1,.732.707.849.849,0,0,1-.072.313l-2.95,6.956a.879.879,0,0,1-.852.6h-.084A.875.875,0,0,1,31.5,28.771Z" fill="currentColor"/></svg>