<svg id="target" xmlns="http://www.w3.org/2000/svg" viewBox="0 0 48 48"><title>unicons-docs-48px-file-pdf-2</title><rect x="3.5" y="16.5" width="42" height="17" rx="2" ry="2" fill="none" stroke="currentColor" stroke-linecap="square" stroke-linejoin="round"/><path d="M7.5,12.5v-6a2.006,2.006,0,0,1,2-2H29.84a4.012,4.012,0,0,1,2.84,1.18L39.5,12.5" fill="none" stroke="currentColor" stroke-linecap="square" stroke-linejoin="round"/><path d="M41.5,37.5v5a2.006,2.006,0,0,1-2,2H9.5a2.006,2.006,0,0,1-2-2v-5" fill="none" stroke="currentColor" stroke-linecap="square" stroke-linejoin="round"/><path d="M12.693,21.6a.733.733,0,0,1,.744-.744H16c1.967,0,3.19,1.115,3.19,2.807v.024c0,1.883-1.511,2.866-3.358,2.866H14.169v2.026a.738.738,0,0,1-1.476,0Zm3.19,3.622c1.116,0,1.812-.624,1.812-1.5V23.7c0-.983-.708-1.5-1.812-1.5H14.169v3.022Z" fill="currentColor"/><path d="M20.71,21.6a.732.732,0,0,1,.743-.744H23.84A4.185,4.185,0,0,1,28.3,25.028v.024a4.2,4.2,0,0,1-4.462,4.2H21.453a.732.732,0,0,1-.743-.743Zm3.13,6.308a2.735,2.735,0,0,0,2.914-2.83v-.023A2.754,2.754,0,0,0,23.84,22.2H22.186v5.708Z" fill="currentColor"/><path d="M30.094,21.6a.733.733,0,0,1,.743-.744H35.73a.672.672,0,0,1,0,1.344H31.568v2.29h3.623a.672.672,0,0,1,0,1.344H31.568v2.746a.737.737,0,0,1-1.475,0Z" fill="currentColor"/></svg>