<svg id="target" xmlns="http://www.w3.org/2000/svg" viewBox="0 0 48 48"><title>unicons-docs-48px-file-pdf-1</title><path d="M40.328,13.328,32.672,5.672A4,4,0,0,0,29.843,4.5H9.5a2,2,0,0,0-2,2v36a2,2,0,0,0,2,2h30a2,2,0,0,0,2-2V16.157A4,4,0,0,0,40.328,13.328Z" fill="none" stroke="currentColor" stroke-linecap="square" stroke-linejoin="round"/><path d="M23.607,31.8c-9.122.935-9.821,2.643-8.848,3.615s4.741-2.99,6.436-7.764,3.013-10.893.7-10.893,1.385,6.48,3.9,10.322,6.391,7.51,7.466,6.435S32.73,30.861,23.607,31.8Z" fill="none" stroke="currentColor" stroke-linecap="square" stroke-linejoin="round"/></svg>