<svg id="target" xmlns="http://www.w3.org/2000/svg" viewBox="0 0 48 48"><title>unicons-docs-48px-file-photo</title><path d="M37.5,24.5v16h-26V32.724a.5.5,0,0,1,.167-.373l11.5-6.684L28.333,31.5Z" fill="none" stroke="currentColor" stroke-linecap="square" stroke-linejoin="round"/><circle cx="16.5" cy="17.5" r="3" fill="none" stroke="currentColor" stroke-linecap="square" stroke-linejoin="round"/><path d="M40.328,13.328,32.672,5.672A4,4,0,0,0,29.843,4.5H9.5a2,2,0,0,0-2,2v36a2,2,0,0,0,2,2h30a2,2,0,0,0,2-2V16.157A4,4,0,0,0,40.328,13.328Z" fill="none" stroke="currentColor" stroke-linecap="square" stroke-linejoin="round"/></svg>