<svg id="target" xmlns="http://www.w3.org/2000/svg" viewBox="0 0 48 48"><title>unicons-things-48px-filmstrip</title><rect x="5.5" y="3.5" width="38" height="40" fill="none" stroke="currentColor" stroke-linecap="square" stroke-linejoin="round"/><line x1="11.5" y1="11.5" x2="9.5" y2="11.5" fill="none" stroke="currentColor" stroke-linecap="square" stroke-linejoin="round"/><line x1="9.5" y1="15.5" x2="11.5" y2="15.5" fill="none" stroke="currentColor" stroke-linecap="square" stroke-linejoin="round"/><line x1="11.5" y1="19.5" x2="9.5" y2="19.5" fill="none" stroke="currentColor" stroke-linecap="square" stroke-linejoin="round"/><line x1="11.5" y1="27.5" x2="9.5" y2="27.5" fill="none" stroke="currentColor" stroke-linecap="square" stroke-linejoin="round"/><line x1="9.5" y1="23.5" x2="11.5" y2="23.5" fill="none" stroke="currentColor" stroke-linecap="square" stroke-linejoin="round"/><line x1="9.5" y1="31.5" x2="11.5" y2="31.5" fill="none" stroke="currentColor" stroke-linecap="square" stroke-linejoin="round"/><line x1="11.5" y1="35.5" x2="9.5" y2="35.5" fill="none" stroke="currentColor" stroke-linecap="square" stroke-linejoin="round"/><line x1="9.5" y1="39.5" x2="11.5" y2="39.5" fill="none" stroke="currentColor" stroke-linecap="square" stroke-linejoin="round"/><line x1="37.5" y1="15.5" x2="39.5" y2="15.5" fill="none" stroke="currentColor" stroke-linecap="square" stroke-linejoin="round"/><line x1="37.5" y1="11.5" x2="39.5" y2="11.5" fill="none" stroke="currentColor" stroke-linecap="square" stroke-linejoin="round"/><line x1="11.5" y1="7.5" x2="9.5" y2="7.5" fill="none" stroke="currentColor" stroke-linecap="square" stroke-linejoin="round"/><line x1="37.5" y1="7.5" x2="39.5" y2="7.5" fill="none" stroke="currentColor" stroke-linecap="square" stroke-linejoin="round"/><line x1="39.5" y1="19.5" x2="37.5" y2="19.5" fill="none" stroke="currentColor" stroke-linecap="square" stroke-linejoin="round"/><line x1="37.5" y1="23.5" x2="39.5" y2="23.5" fill="none" stroke="currentColor" stroke-linecap="square" stroke-linejoin="round"/><line x1="39.5" y1="27.5" x2="37.5" y2="27.5" fill="none" stroke="currentColor" stroke-linecap="square" stroke-linejoin="round"/><line x1="37.5" y1="31.5" x2="39.5" y2="31.5" fill="none" stroke="currentColor" stroke-linecap="square" stroke-linejoin="round"/><line x1="39.5" y1="35.5" x2="37.5" y2="35.5" fill="none" stroke="currentColor" stroke-linecap="square" stroke-linejoin="round"/><line x1="39.5" y1="39.5" x2="37.5" y2="39.5" fill="none" stroke="currentColor" stroke-linecap="square" stroke-linejoin="round"/><polyline points="15.5 39.5 15.5 25.5 33.5 25.5 33.5 39.5" fill="none" stroke="currentColor" stroke-linecap="square" stroke-linejoin="round"/><polyline points="33.5 7.5 33.5 21.5 15.5 21.5 15.5 7.5" fill="none" stroke="currentColor" stroke-linecap="square" stroke-linejoin="round"/></svg>