<svg id="target" xmlns="http://www.w3.org/2000/svg" viewBox="0 0 48 48"><title>unicons-docs-48px-folder-open</title><path d="M2.5,33.5V7.437A1.937,1.937,0,0,1,4.437,5.5H16.372a3.875,3.875,0,0,1,2.189.678l3.864,2.645a3.875,3.875,0,0,0,2.189.678H36.563A1.937,1.937,0,0,1,38.5,11.437V13.5" fill="none" stroke="currentColor" stroke-linecap="square" stroke-linejoin="round"/><path d="M6.5,22.5v-8a1,1,0,0,1,1-1h27" fill="none" stroke="currentColor" stroke-linejoin="round"/><path d="M43.5,17.5H12.886a2,2,0,0,0-1.873,1.3l-7.5,20a2,2,0,0,0,1.873,2.7H35.167a2,2,0,0,0,1.846-1.231l8.333-20A2,2,0,0,0,43.5,17.5Z" fill="none" stroke="currentColor" stroke-linejoin="round"/></svg>