<svg id="target" xmlns="http://www.w3.org/2000/svg" viewBox="0 0 48 48"><title>unicons-things-48px-gift</title><rect x="3.5" y="12.5" width="42" height="6" fill="none" stroke="currentColor" stroke-linecap="square" stroke-linejoin="round"/><path d="M41.5,22.5v18a2,2,0,0,1-2,2H9.5a2,2,0,0,1-2-2v-18" fill="none" stroke="currentColor" stroke-linecap="square" stroke-linejoin="round"/><line x1="21.5" y1="18.5" x2="21.5" y2="12.5" fill="none" stroke="currentColor" stroke-linecap="square" stroke-linejoin="round"/><line x1="27.5" y1="12.5" x2="27.5" y2="18.5" fill="none" stroke="currentColor" stroke-linecap="square" stroke-linejoin="round"/><line x1="21.5" y1="42.5" x2="21.5" y2="22.5" fill="none" stroke="currentColor" stroke-linecap="square" stroke-linejoin="round"/><line x1="27.5" y1="22.5" x2="27.5" y2="42.5" fill="none" stroke="currentColor" stroke-linecap="square" stroke-linejoin="round"/><path d="M22.58,12.167a10.423,10.423,0,0,0-3.04-5.54c-3.12-3.12-7.24-4.06-9.2-2.12-1.64,1.66-1.22,4.84.82,7.66" fill="none" stroke="currentColor" stroke-linejoin="round"/><path d="M36.84,12.167c2.04-2.82,2.46-6,.82-7.66-1.96-1.94-6.08-1-9.2,2.12a10.423,10.423,0,0,0-3.04,5.54" fill="none" stroke="currentColor" stroke-linejoin="round"/></svg>