<svg id="target" xmlns="http://www.w3.org/2000/svg" viewBox="0 0 48 48"><title>unicons-things-48px-hardware</title><rect x="1.5" y="19.5" width="46" height="24" rx="2" ry="2" fill="none" stroke="currentColor" stroke-linejoin="round"/><line x1="14" y1="37.5" x2="34" y2="37.5" fill="none" stroke="currentColor" stroke-linejoin="round"/><line x1="6" y1="37.5" x2="10" y2="37.5" fill="none" stroke="currentColor" stroke-linejoin="round"/><line x1="6" y1="31.5" x2="10" y2="31.5" fill="none" stroke="currentColor" stroke-linejoin="round"/><line x1="38" y1="37.5" x2="42" y2="37.5" fill="none" stroke="currentColor" stroke-linejoin="round"/><line x1="38" y1="31.5" x2="42" y2="31.5" fill="none" stroke="currentColor" stroke-linejoin="round"/><line x1="6" y1="25.5" x2="10" y2="25.5" fill="none" stroke="currentColor" stroke-linejoin="round"/><line x1="14" y1="31.5" x2="18" y2="31.5" fill="none" stroke="currentColor" stroke-linejoin="round"/><line x1="14" y1="25.5" x2="18" y2="25.5" fill="none" stroke="currentColor" stroke-linejoin="round"/><line x1="22" y1="31.5" x2="26" y2="31.5" fill="none" stroke="currentColor" stroke-linejoin="round"/><line x1="22" y1="25.5" x2="26" y2="25.5" fill="none" stroke="currentColor" stroke-linejoin="round"/><line x1="30" y1="31.5" x2="34" y2="31.5" fill="none" stroke="currentColor" stroke-linejoin="round"/><line x1="30" y1="25.5" x2="34" y2="25.5" fill="none" stroke="currentColor" stroke-linejoin="round"/><line x1="38" y1="25.5" x2="42" y2="25.5" fill="none" stroke="currentColor" stroke-linejoin="round"/><path d="M36,4.5H31.007a6,6,0,0,0-5.9,4.927L24,15.5" fill="none" stroke="currentColor" stroke-linejoin="round"/></svg>