<svg id="target" xmlns="http://www.w3.org/2000/svg" viewBox="0 0 48 48"><title>unicons-interface-48px-inbox</title><path d="M30.5,10.5H40.765a2,2,0,0,1,1.98,1.717L44.5,24.5" fill="none" stroke="currentColor" stroke-linecap="square" stroke-linejoin="round"/><path d="M4.5,24.5,6.255,12.217A2,2,0,0,1,8.235,10.5H18.5" fill="none" stroke="currentColor" stroke-linecap="square" stroke-linejoin="round"/><path d="M42.5,44.5H6.5a2,2,0,0,1-2-2v-13a1,1,0,0,1,1-1h10a1,1,0,0,1,1,1v4a1,1,0,0,0,1,1h14a1,1,0,0,0,1-1v-4a1,1,0,0,1,1-1h10a1,1,0,0,1,1,1v13A2,2,0,0,1,42.5,44.5Z" fill="none" stroke="currentColor" stroke-linecap="square" stroke-linejoin="round"/><line x1="24.5" y1="18.5" x2="24.5" y2="0.5" fill="none" stroke="currentColor" stroke-linecap="square" stroke-linejoin="round"/><path d="M31.5,16.5l-5.586,5.586a2,2,0,0,1-2.828,0L17.5,16.5" fill="none" stroke="currentColor" stroke-linecap="square" stroke-linejoin="round"/></svg>