<svg id="target" xmlns="http://www.w3.org/2000/svg" viewBox="0 0 48 48"><title>unicons-interface-48px-link</title><line x1="12.5" y1="24.5" x2="35.5" y2="24.5" fill="none" stroke="currentColor" stroke-linecap="square" stroke-linejoin="round"/><path d="M20.5,28.5v4a2,2,0,0,1-2,2H2.5a2,2,0,0,1-2-2v-16a2,2,0,0,1,2-2h16a2,2,0,0,1,2,2v4" fill="none" stroke="currentColor" stroke-linecap="square" stroke-linejoin="round"/><path d="M27.5,20.5v-4a2,2,0,0,1,2-2h16a2,2,0,0,1,2,2v16a2,2,0,0,1-2,2h-16a2,2,0,0,1-2-2v-4" fill="none" stroke="currentColor" stroke-linecap="square" stroke-linejoin="round"/></svg>