<svg id="target" xmlns="http://www.w3.org/2000/svg" viewBox="0 0 48 48"><title>unicons-interface-48px-map-pin-person</title><circle cx="34.5" cy="13.5" r="6" fill="none" stroke="currentColor" stroke-linecap="square" stroke-linejoin="round"/><path d="M40.49,20.5a9.474,9.474,0,0,1,1.08.93A9.969,9.969,0,0,1,44.5,28.5v1h-20v-1a9.985,9.985,0,0,1,4.01-8" fill="none" stroke="currentColor" stroke-linecap="square" stroke-linejoin="round"/><path d="M32.175,33.59A68.928,68.928,0,0,1,20.25,45.5s-18-13.5-18-26.562c0-8.526,8.059-15.437,18-15.437a20.544,20.544,0,0,1,6.994,1.209" fill="none" stroke="currentColor" stroke-linecap="square" stroke-linejoin="round"/><path d="M19.77,23.44a5,5,0,1,1,4.68-8" fill="none" stroke="currentColor" stroke-linecap="square" stroke-linejoin="round"/></svg>