<svg id="target" xmlns="http://www.w3.org/2000/svg" viewBox="0 0 48 48"><title>unicons-interface-48px-map</title><path d="M45.872,36.5,32.852,41.71a1,1,0,0,1-.7.015L16.85,36.37a1,1,0,0,0-.7.015L3.872,41.3A1,1,0,0,1,2.5,40.372V12.931A1,1,0,0,1,3.128,12L16.148,6.79a1,1,0,0,1,.7-.015l15.3,5.355a1,1,0,0,0,.7-.015L45.128,7.2a1,1,0,0,1,1.372.928V35.569A1,1,0,0,1,45.872,36.5Z" fill="none" stroke="currentColor" stroke-linecap="square" stroke-linejoin="round"/><line x1="16.5" y1="7.5" x2="16.5" y2="36.5" fill="none" stroke="currentColor" stroke-linecap="square" stroke-linejoin="round"/><line x1="32.5" y1="12.5" x2="32.5" y2="41.5" fill="none" stroke="currentColor" stroke-linecap="square" stroke-linejoin="round"/><path d="M8.5,23.5q0,.8.07,1.5" fill="none" stroke="currentColor" stroke-linecap="square" stroke-linejoin="round"/><path d="M9.709,28.662C11.027,30.717,13.372,31.5,16.5,31.5c11.2,0,4.365-13,16-13,4.262,0,6.506.567,7.448,2.644" fill="none" stroke="currentColor" stroke-linecap="square" stroke-linejoin="round" stroke-dasharray="2.898 3.865"/><path d="M40.422,23a13.061,13.061,0,0,1,.078,1.5" fill="none" stroke="currentColor" stroke-linecap="square" stroke-linejoin="round"/><circle cx="8.5" cy="19.5" r="2" fill="none" stroke="currentColor" stroke-linecap="square" stroke-linejoin="round"/><line x1="38.99" y1="27.157" x2="42.501" y2="29.847" fill="none" stroke="currentColor" stroke-linecap="square" stroke-linejoin="round"/><line x1="42.184" y1="26.43" x2="39.588" y2="31.013" fill="none" stroke="currentColor" stroke-linecap="square" stroke-linejoin="round"/></svg>