<svg id="target" xmlns="http://www.w3.org/2000/svg" viewBox="0 0 48 48"><title>unicons-people-48px-person-running</title><circle cx="35.874" cy="7.176" r="4" transform="translate(5.433 27.469) rotate(-45)" fill="none" stroke="currentColor" stroke-linecap="square" stroke-linejoin="round"/><path d="M16.075,29.8l-9.9,9.9a2,2,0,0,1-2.828,0h0a2,2,0,0,1,0-2.828l9.9-9.9" fill="none" stroke="currentColor" stroke-linecap="square" stroke-linejoin="round"/><path d="M28.8,11.419l9.9,9.9,4.243-4.243a2,2,0,0,1,2.828,0h0a2,2,0,0,1,0,2.828l-5.657,5.657a2,2,0,0,1-2.828,0L31.632,19.9a2,2,0,0,0-2.828,0l-4.243,4.243a2,2,0,0,0,0,2.828l5.657,5.657a2,2,0,0,1,0,2.828l-9.9,9.9a2,2,0,0,1-2.828,0h0a2,2,0,0,1,0-2.828l8.485-8.485L17.49,25.561a2,2,0,0,1,0-2.828Z" fill="none" stroke="currentColor" stroke-linecap="square" stroke-linejoin="round"/><path d="M25.975,8.59,23.146,5.762a2,2,0,0,0-2.828,0l-5.657,5.657a2,2,0,0,0,0,2.828h0a2,2,0,0,0,2.828,0L21.732,10l1.414,1.414" fill="none" stroke="currentColor" stroke-linecap="square" stroke-linejoin="round"/></svg>