<svg id="target" xmlns="http://www.w3.org/2000/svg" viewBox="0 0 48 48"><title>plane</title><path d="M33.5,31.5h7.172a2,2,0,0,0,1.414-.586l4.707-4.707a1,1,0,0,0,0-1.414l-4.707-4.707a2,2,0,0,0-1.414-.586H10.207l-3-8h-6L5.924,27.224A6,6,0,0,0,11.671,31.5H12.5" fill="none" stroke="currentColor" stroke-linecap="square" stroke-linejoin="round"/><polyline points="31.207 27.5 21.207 41.5 13.207 41.5 21.207 27.5" fill="none" stroke="currentColor" stroke-linecap="square" stroke-linejoin="round"/><polyline points="19.207 19.5 15.207 13.5 23.207 13.5 28.207 19.5" fill="none" stroke="currentColor" stroke-linejoin="round"/><line x1="44.5" y1="23.5" x2="39.5" y2="23.5" fill="none" stroke="currentColor" stroke-linecap="square" stroke-linejoin="round"/><line x1="36.5" y1="23.5" x2="35.5" y2="23.5" fill="none" stroke="currentColor" stroke-linecap="square" stroke-linejoin="round"/><line x1="32.5" y1="23.5" x2="31.5" y2="23.5" fill="none" stroke="currentColor" stroke-linecap="square" stroke-linejoin="round"/><line x1="28.5" y1="23.5" x2="27.5" y2="23.5" fill="none" stroke="currentColor" stroke-linecap="square" stroke-linejoin="round"/><line x1="24.5" y1="23.5" x2="23.5" y2="23.5" fill="none" stroke="currentColor" stroke-linecap="square" stroke-linejoin="round"/><line x1="20.5" y1="23.5" x2="19.5" y2="23.5" fill="none" stroke="currentColor" stroke-linecap="square" stroke-linejoin="round"/><line x1="16.5" y1="23.5" x2="15.5" y2="23.5" fill="none" stroke="currentColor" stroke-linecap="square" stroke-linejoin="round"/><line x1="12.5" y1="23.5" x2="11.5" y2="23.5" fill="none" stroke="currentColor" stroke-linecap="square" stroke-linejoin="round"/></svg>