<svg id="target" xmlns="http://www.w3.org/2000/svg" viewBox="0 0 48 48"><title>plane</title><path d="M34,32h6.672a2,2,0,0,0,1.414-.586l4.707-4.707a1,1,0,0,0,0-1.414l-4.707-4.707A2,2,0,0,0,40.672,20H10.207l-3-8h-6L5.924,27.724A6,6,0,0,0,11.671,32H13" fill="none" stroke="currentColor" stroke-linecap="square" stroke-linejoin="round" stroke-width="2"/><polyline points="31.207 28 21.207 42 13.207 42 21.207 28" fill="none" stroke="currentColor" stroke-linecap="square" stroke-linejoin="round" stroke-width="2"/><polyline points="19.207 20 15.207 14 23.207 14 28.207 20" fill="none" stroke="currentColor" stroke-linejoin="round" stroke-width="2"/><line x1="45" y1="24" x2="40" y2="24" fill="none" stroke="currentColor" stroke-linecap="square" stroke-linejoin="round" stroke-width="2"/><line x1="37" y1="24" x2="36" y2="24" fill="none" stroke="currentColor" stroke-linecap="square" stroke-linejoin="round" stroke-width="2"/><line x1="33" y1="24" x2="32" y2="24" fill="none" stroke="currentColor" stroke-linecap="square" stroke-linejoin="round" stroke-width="2"/><line x1="29" y1="24" x2="28" y2="24" fill="none" stroke="currentColor" stroke-linecap="square" stroke-linejoin="round" stroke-width="2"/><line x1="25" y1="24" x2="24" y2="24" fill="none" stroke="currentColor" stroke-linecap="square" stroke-linejoin="round" stroke-width="2"/><line x1="21" y1="24" x2="20" y2="24" fill="none" stroke="currentColor" stroke-linecap="square" stroke-linejoin="round" stroke-width="2"/><line x1="17" y1="24" x2="16" y2="24" fill="none" stroke="currentColor" stroke-linecap="square" stroke-linejoin="round" stroke-width="2"/><line x1="13" y1="24" x2="12" y2="24" fill="none" stroke="currentColor" stroke-linecap="square" stroke-linejoin="round" stroke-width="2"/></svg>