<svg id="target" xmlns="http://www.w3.org/2000/svg" viewBox="0 0 48 48"><title>unicons-things-48px-power-cord</title><path d="M1.5,5.5h8a0,0,0,0,1,0,0v6a2,2,0,0,1-2,2h-4a2,2,0,0,1-2-2v-6A0,0,0,0,1,1.5,5.5Z" fill="none" stroke="currentColor" stroke-linecap="square" stroke-linejoin="round"/><line x1="3.5" y1="1.5" x2="3.5" y2="3.5" fill="none" stroke="currentColor" stroke-linecap="square" stroke-linejoin="round"/><line x1="7.5" y1="1.5" x2="7.5" y2="3.5" fill="none" stroke="currentColor" stroke-linecap="square" stroke-linejoin="round"/><path d="M5.5,17.5v24a4,4,0,0,0,4,4h0a4,4,0,0,0,4-4v-21a3,3,0,0,1,3-3h0a3,3,0,0,1,3,3v22a3,3,0,0,0,3,3h0a3,3,0,0,0,3-3v-22a3,3,0,0,1,3-3h0a3,3,0,0,1,3,3v22a3,3,0,0,0,3,3h0a3,3,0,0,0,3-3v-22a3,3,0,0,1,3-3h0a3,3,0,0,1,3,3v15a2,2,0,0,0,2,2h2" fill="none" stroke="currentColor" stroke-linecap="square" stroke-linejoin="round"/></svg>