<svg id="target" xmlns="http://www.w3.org/2000/svg" viewBox="0 0 48 48"><title>unicons-interface-48px-settings</title><path d="M45.5,23.2v2.6a2.007,2.007,0,0,1-1.676,1.979l-3.056.511a3.155,3.155,0,0,0-2.389,1.893l-.024.058a3.2,3.2,0,0,0,.341,3.083L40.48,35.84a2,2,0,0,1-.2,2.58l-1.86,1.86a2,2,0,0,1-2.58.2L33.325,38.7a3.2,3.2,0,0,0-3.083-.341l-.039.016a3.191,3.191,0,0,0-1.915,2.417l-.448,2.675A2.138,2.138,0,0,1,25.8,45.5H23.2a2.007,2.007,0,0,1-1.979-1.676l-.508-3.036A3.191,3.191,0,0,0,18.8,38.371l-.039-.016a3.2,3.2,0,0,0-3.083.341L13.16,40.48a2,2,0,0,1-2.58-.2L8.72,38.42a2,2,0,0,1-.2-2.58L10.3,33.325a3.2,3.2,0,0,0,.341-3.083l-.024-.058a3.155,3.155,0,0,0-2.389-1.893L5.18,27.78A2.012,2.012,0,0,1,3.5,25.8V23.2a2.007,2.007,0,0,1,1.676-1.979l3.056-.511a3.155,3.155,0,0,0,2.389-1.893l.024-.058a3.2,3.2,0,0,0-.341-3.083L8.52,13.16a2,2,0,0,1,.2-2.58l1.86-1.86a2,2,0,0,1,2.58-.2l2.534,1.8a3.155,3.155,0,0,0,3.043.337l.06-.025a3.191,3.191,0,0,0,1.915-2.417l.448-2.679A2.133,2.133,0,0,1,23.2,3.5h2.6A2.012,2.012,0,0,1,27.78,5.18l.507,3.032A3.191,3.191,0,0,0,30.2,10.629l.039.016a3.2,3.2,0,0,0,3.083-.341L35.84,8.52a2,2,0,0,1,2.58.2l1.86,1.86a2,2,0,0,1,.2,2.58L38.7,15.675a3.2,3.2,0,0,0-.341,3.083l.017.039a3.191,3.191,0,0,0,2.417,1.915l3.036.508A2.007,2.007,0,0,1,45.5,23.2Z" fill="none" stroke="currentColor" stroke-linecap="square" stroke-linejoin="round"/><circle cx="24.5" cy="24.5" r="7" fill="none" stroke="currentColor" stroke-linecap="square" stroke-linejoin="round"/></svg>