<svg id="target" xmlns="http://www.w3.org/2000/svg" viewBox="0 0 48 48"><title>ship</title><polyline points="8 41 2 29 24 19 46 29 40.146 40.854" fill="none" stroke="currentColor" stroke-linecap="square" stroke-linejoin="round" stroke-width="2"/><path d="M10,22V11a2,2,0,0,1,2-2H36a2,2,0,0,1,2,2V22" fill="none" stroke="currentColor" stroke-linecap="square" stroke-linejoin="round" stroke-width="2"/><path d="M20,6V3a1,1,0,0,1,1-1h6a1,1,0,0,1,1,1V6" fill="none" stroke="currentColor" stroke-linecap="square" stroke-linejoin="round" stroke-width="2"/><line x1="24" y1="20" x2="24" y2="41" fill="none" stroke="currentColor" stroke-linecap="square" stroke-linejoin="round" stroke-width="2"/><path d="M43.5,43.207l-2.586,2.586a2,2,0,0,1-2.828,0l-1.172-1.172a2,2,0,0,0-2.828,0l-1.172,1.172a2,2,0,0,1-2.828,0l-1.172-1.172a2,2,0,0,0-2.828,0l-1.172,1.172a2,2,0,0,1-2.828,0l-1.172-1.172a2,2,0,0,0-2.828,0l-1.172,1.172a2,2,0,0,1-2.828,0l-1.172-1.172a2,2,0,0,0-2.828,0L8.914,45.793a2,2,0,0,1-2.828,0L3.5,43.207" fill="none" stroke="currentColor" stroke-linecap="square" stroke-linejoin="round" stroke-width="2"/><rect x="14" y="13" width="20" height="3" rx="1.5" ry="1.5" fill="none" stroke="currentColor" stroke-linecap="square" stroke-linejoin="round" stroke-width="2"/></svg>