<svg id="target" xmlns="http://www.w3.org/2000/svg" viewBox="0 0 48 48"><title>ship</title><polyline points="7.5 41.207 1.5 29.207 23.5 19.207 45.5 29.207 39.5 41.207" fill="none" stroke="currentColor" stroke-linecap="square" stroke-linejoin="round"/><path d="M9.5,21.5v-11a2,2,0,0,1,2-2h24a2,2,0,0,1,2,2v11" fill="none" stroke="currentColor" stroke-linecap="square" stroke-linejoin="round"/><path d="M19.5,5.5v-3a1,1,0,0,1,1-1h6a1,1,0,0,1,1,1v3" fill="none" stroke="currentColor" stroke-linecap="square" stroke-linejoin="round"/><line x1="23.5" y1="19.5" x2="23.5" y2="41.5" fill="none" stroke="currentColor" stroke-linecap="square" stroke-linejoin="round"/><path d="M43.5,44.207l-2.586,2.586a2,2,0,0,1-2.828,0l-1.172-1.172a2,2,0,0,0-2.828,0l-1.172,1.172a2,2,0,0,1-2.828,0l-1.172-1.172a2,2,0,0,0-2.828,0l-1.172,1.172a2,2,0,0,1-2.828,0l-1.172-1.172a2,2,0,0,0-2.828,0l-1.172,1.172a2,2,0,0,1-2.828,0l-1.172-1.172a2,2,0,0,0-2.828,0L8.914,46.793a2,2,0,0,1-2.828,0L3.5,44.207" fill="none" stroke="currentColor" stroke-linecap="square" stroke-linejoin="round"/><rect x="13.5" y="12.5" width="20" height="3" rx="1.5" ry="1.5" fill="none" stroke="currentColor" stroke-linecap="square" stroke-linejoin="round"/></svg>