<svg id="target" xmlns="http://www.w3.org/2000/svg" viewBox="0 0 48 48"><title>unicons-nature-48px-snowflake</title><line x1="24.5" x2="24.5" y2="6" fill="none" stroke="currentColor" stroke-linejoin="round"/><line x1="24.5" y1="14" x2="24.5" y2="34" fill="none" stroke="currentColor" stroke-linejoin="round"/><polyline points="28.5 6.5 24.5 10.5 20.5 6.5" fill="none" stroke="currentColor" stroke-linejoin="round"/><polyline points="20.5 41.5 24.5 37.5 28.5 41.5" fill="none" stroke="currentColor" stroke-linejoin="round"/><line x1="24.5" y1="48" x2="24.5" y2="42" fill="none" stroke="currentColor" stroke-linejoin="round"/><line x1="24.5" x2="24.5" y2="7" fill="none" stroke="currentColor" stroke-linejoin="round"/><line x1="24.5" y1="14" x2="24.5" y2="34" fill="none" stroke="currentColor" stroke-linejoin="round"/><polyline points="28.5 6.5 24.5 10.5 20.5 6.5" fill="none" stroke="currentColor" stroke-linejoin="round"/><polyline points="20.5 41.5 24.5 37.5 28.5 41.5" fill="none" stroke="currentColor" stroke-linejoin="round"/><line x1="24.5" y1="48" x2="24.5" y2="41" fill="none" stroke="currentColor" stroke-linejoin="round"/><line x1="3.715" y1="12" x2="8.912" y2="15" fill="none" stroke="currentColor" stroke-linejoin="round"/><line x1="15.84" y1="19" x2="33.16" y2="29" fill="none" stroke="currentColor" stroke-linejoin="round"/><polyline points="11.345 11.786 12.809 17.25 7.345 18.714" fill="none" stroke="currentColor" stroke-linejoin="round"/><polyline points="37.655 36.214 36.191 30.75 41.655 29.286" fill="none" stroke="currentColor" stroke-linejoin="round"/><line x1="45.285" y1="36" x2="40.088" y2="33" fill="none" stroke="currentColor" stroke-linejoin="round"/><line x1="3.715" y1="36" x2="8.912" y2="33" fill="none" stroke="currentColor" stroke-linejoin="round"/><line x1="15.84" y1="29" x2="33.16" y2="19" fill="none" stroke="currentColor" stroke-linejoin="round"/><polyline points="7.345 29.286 12.809 30.75 11.345 36.214" fill="none" stroke="currentColor" stroke-linejoin="round"/><polyline points="41.655 18.714 36.191 17.25 37.655 11.786" fill="none" stroke="currentColor" stroke-linejoin="round"/><line x1="45.285" y1="12" x2="40.088" y2="15" fill="none" stroke="currentColor" stroke-linejoin="round"/></svg>