<svg id="target" xmlns="http://www.w3.org/2000/svg" viewBox="0 0 48 48"><title>unicons-nature-48px-sun-cloud</title><line x1="30.5" y1="3" x2="30.5" y2="9" fill="none" stroke="currentColor" stroke-linejoin="round"/><line x1="18.328" y1="7.29" x2="22.587" y2="11.549" fill="none" stroke="currentColor" stroke-linejoin="round"/><line x1="48" y1="19.5" x2="44" y2="19.5" fill="none" stroke="currentColor" stroke-linejoin="round"/><line x1="43.882" y1="7.29" x2="39.623" y2="11.549" fill="none" stroke="currentColor" stroke-linejoin="round"/><path d="M11.109,29.3a8.676,8.676,0,0,1,8.536-7.1" fill="none" stroke="currentColor" stroke-linecap="square" stroke-linejoin="round"/><path d="M23.7,14.92A9.5,9.5,0,1,1,37.84,27.59" fill="none" stroke="currentColor" stroke-linecap="square" stroke-linejoin="round"/><path d="M37.5,36A7.5,7.5,0,0,1,30,43.5H9A7.5,7.5,0,0,1,7.73,28.61a12.5,12.5,0,0,1,24.59.26A7.489,7.489,0,0,1,37.5,36Z" fill="none" stroke="currentColor" stroke-linecap="square" stroke-linejoin="round"/></svg>