<svg id="target" xmlns="http://www.w3.org/2000/svg" viewBox="0 0 48 48"><title>unicons-people-48px-thumbs-down</title><path d="M40.5,19.5a3,3,0,0,0,3-3h0a3,3,0,0,0-3-3h-1" fill="none" stroke="currentColor" stroke-linecap="square" stroke-linejoin="round"/><path d="M41.5,25.5h1a3,3,0,0,0,3-3h0a3,3,0,0,0-3-3h-1" fill="none" stroke="currentColor" stroke-linecap="square" stroke-linejoin="round"/><path d="M42.5,25.5a3,3,0,0,1,0,6h-11l1.82,6.36a6,6,0,0,1-5.78,7.64H27.5a2.006,2.006,0,0,1-2-2v-6l-4.8-8a7.968,7.968,0,0,0-3.2-3" fill="none" stroke="currentColor" stroke-linecap="square" stroke-linejoin="round"/><path d="M17.5,8.82l1.84-.6a13.95,13.95,0,0,1,4.44-.72H38.5a3,3,0,0,1,0,6" fill="none" stroke="currentColor" stroke-linecap="square" stroke-linejoin="round"/><rect x="1.5" y="5.5" width="12" height="24" rx="2" ry="2" fill="none" stroke="currentColor" stroke-linecap="square" stroke-linejoin="round"/><circle cx="7.5" cy="11.5" r="2" fill="none" stroke="currentColor" stroke-linecap="square" stroke-linejoin="round"/></svg>