<svg id="target" xmlns="http://www.w3.org/2000/svg" viewBox="0 0 48 48"><title>truck</title><path d="M18,43v2a2,2,0,0,1-2,2H12a2,2,0,0,1-2-2V43" fill="none" stroke="currentColor" stroke-linecap="square" stroke-linejoin="round" stroke-width="2"/><path d="M38,43v2a2,2,0,0,1-2,2H32a2,2,0,0,1-2-2V43" fill="none" stroke="currentColor" stroke-linecap="square" stroke-linejoin="round" stroke-width="2"/><path d="M39,26V39a1,1,0,0,1-1,1H10a1,1,0,0,1-1-1V14a2,2,0,0,1,2-2H37a2,2,0,0,1,2,2Z" fill="none" stroke="currentColor" stroke-linecap="square" stroke-linejoin="round" stroke-width="2"/><circle cx="16" cy="33" r="3" fill="none" stroke="currentColor" stroke-linecap="square" stroke-linejoin="round" stroke-width="2"/><circle cx="32" cy="33" r="3" fill="none" stroke="currentColor" stroke-linecap="square" stroke-linejoin="round" stroke-width="2"/><rect x="13" y="16" width="22" height="8" fill="none" stroke="currentColor" stroke-linecap="square" stroke-linejoin="round" stroke-width="2"/><path d="M6,37H4a1,1,0,0,1-1-1V2A1,1,0,0,1,4,1H44a1,1,0,0,1,1,1V36a1,1,0,0,1-1,1H42" fill="none" stroke="currentColor" stroke-linecap="square" stroke-linejoin="round" stroke-width="2"/></svg>