<svg id="target" xmlns="http://www.w3.org/2000/svg" viewBox="0 0 48 48"><title>truck</title><path d="M18.5,43.5v2a2,2,0,0,1-2,2h-4a2,2,0,0,1-2-2v-2" fill="none" stroke="currentColor" stroke-linecap="square" stroke-linejoin="round"/><path d="M38.5,43.5v2a2,2,0,0,1-2,2h-4a2,2,0,0,1-2-2v-2" fill="none" stroke="currentColor" stroke-linecap="square" stroke-linejoin="round"/><path d="M39.5,26.5v13a1,1,0,0,1-1,1h-28a1,1,0,0,1-1-1v-25a2,2,0,0,1,2-2h26a2,2,0,0,1,2,2Z" fill="none" stroke="currentColor" stroke-linecap="square" stroke-linejoin="round"/><circle cx="16.5" cy="33.5" r="3" fill="none" stroke="currentColor" stroke-linecap="square" stroke-linejoin="round"/><circle cx="32.5" cy="33.5" r="3" fill="none" stroke="currentColor" stroke-linecap="square" stroke-linejoin="round"/><rect x="13.5" y="16.5" width="22" height="8" fill="none" stroke="currentColor" stroke-linecap="square" stroke-linejoin="round"/><path d="M6.5,37.5h-2a1,1,0,0,1-1-1V2.5a1,1,0,0,1,1-1h40a1,1,0,0,1,1,1v34a1,1,0,0,1-1,1h-2" fill="none" stroke="currentColor" stroke-linecap="square" stroke-linejoin="round"/></svg>