<svg id="target" xmlns="http://www.w3.org/2000/svg" viewBox="0 0 48 48"><title>unicons-things-48px-video-game</title><line x1="12.5" y1="25.5" x2="12.5" y2="33.5" fill="none" stroke="currentColor" stroke-linecap="square" stroke-linejoin="round"/><line x1="8.5" y1="29.5" x2="16.5" y2="29.5" fill="none" stroke="currentColor" stroke-linecap="square" stroke-linejoin="round"/><circle cx="33.5" cy="26.5" r="2" fill="none" stroke="currentColor" stroke-linecap="square" stroke-linejoin="round"/><circle cx="39.5" cy="30.5" r="2" fill="none" stroke="currentColor" stroke-linecap="square" stroke-linejoin="round"/><line x1="24.5" y1="5.5" x2="24.5" y2="15.5" fill="none" stroke="currentColor" stroke-linecap="square" stroke-miterlimit="10"/><path d="M43.94,36.643C38.129,41.37,31.658,39.7,28.5,35.5h-8c-3.158,4.2-9.629,5.87-15.44,1.143a.383.383,0,0,1-.066-.069C-1,28.4,4.718,19.5,12.5,19.5c2.008,0,21.973.005,23.973,0,7.8-.02,13.53,8.9,7.532,17.074A.383.383,0,0,1,43.94,36.643Z" fill="none" stroke="currentColor" stroke-linecap="square" stroke-miterlimit="10" fill-rule="evenodd"/></svg>