<svg id="target" xmlns="http://www.w3.org/2000/svg" viewBox="0 0 48 48"><title>unicons-interface-48px-visibility-off</title><circle cx="24.5" cy="24.5" r="7" fill="none" stroke="currentColor" stroke-linecap="square" stroke-linejoin="round"/><path d="M15.57,11.57A20.94,20.94,0,0,1,24.5,9.5c11.6,0,19.08,10.29,21.3,13.83a1.972,1.972,0,0,1-.08,2.26,48.9,48.9,0,0,1-7.85,8.28" fill="none" stroke="currentColor" stroke-linecap="square" stroke-linejoin="round"/><path d="M10.6,14.6a39.97,39.97,0,0,0-8.27,8.65,2,2,0,0,0,.08,2.41C5.28,29.18,14.54,39.5,24.5,39.5a18.092,18.092,0,0,0,8.6-2.4" fill="none" stroke="currentColor" stroke-linecap="square" stroke-linejoin="round"/><line x1="5" y1="5" x2="43" y2="43" fill="none" stroke="currentColor" stroke-linecap="square" stroke-linejoin="round"/></svg>