<svg id="target" xmlns="http://www.w3.org/2000/svg" viewBox="0 0 48 48"><title>unicons-things-48px-watch</title><circle cx="22.5" cy="24.5" r="16" fill="none" stroke="currentColor" stroke-linecap="square" stroke-miterlimit="10"/><path d="M32.5,42.5v3a1,1,0,0,1-1,1h-18a1,1,0,0,1-1-1v-3" fill="none" stroke="currentColor" stroke-linecap="square" stroke-miterlimit="10" fill-rule="evenodd"/><path d="M12.5,6.5v-3a1,1,0,0,1,1-1h18a1,1,0,0,1,1,1v3" fill="none" stroke="currentColor" stroke-linecap="square" stroke-miterlimit="10" fill-rule="evenodd"/><path d="M38.5,20.5h2a2,2,0,0,1,2,2v2a2,2,0,0,1-2,2h-2" fill="none" stroke="currentColor" stroke-linecap="square" stroke-miterlimit="10" fill-rule="evenodd"/><polyline points="22.5 17.5 22.5 24.5 29.5 31.5" fill="none" stroke="currentColor" stroke-linecap="square" stroke-miterlimit="10"/><line x1="22.5" y1="11.5" x2="22.5" y2="13.5" fill="none" stroke="currentColor" stroke-linecap="square" stroke-linejoin="round"/><line x1="22.5" y1="36.5" x2="22.5" y2="38.5" fill="none" stroke="currentColor" stroke-linecap="square" stroke-linejoin="round"/><line x1="36.5" y1="24.5" x2="34.5" y2="24.5" fill="none" stroke="currentColor" stroke-linecap="square" stroke-linejoin="round"/><line x1="10.5" y1="24.5" x2="8.5" y2="24.5" fill="none" stroke="currentColor" stroke-linecap="square" stroke-linejoin="round"/></svg>