<svg id="target" xmlns="http://www.w3.org/2000/svg" viewBox="0 0 48 48"><title>unicons-things-48px-wrench</title><circle cx="11.5" cy="37.5" r="2" transform="translate(-23.148 19.115) rotate(-45)" fill="none" stroke="currentColor" stroke-linecap="square" stroke-linejoin="round"/><path d="M41.694,25.313a13,13,0,0,1-14.142,2.828L15.5,42.285a6,6,0,0,1-8.81.352l-.708-.708a6,6,0,0,1,.352-8.81L20.481,21.07a13,13,0,0,1,15.4-17.5,1,1,0,0,1,.429,1.674l-6.635,6.635a2,2,0,0,0,0,2.828l4.243,4.243a2,2,0,0,0,2.828,0l6.635-6.635a1,1,0,0,1,1.674.429A12.994,12.994,0,0,1,41.694,25.313Z" fill="none" stroke="currentColor" stroke-linecap="square" stroke-miterlimit="10" fill-rule="evenodd"/></svg>