<svg id="Layer_1" data-name="Layer 1" xmlns="http://www.w3.org/2000/svg" viewBox="0 0 48 48"><defs><style>.cls-1{fill:none;stroke:#5a5b5e;stroke-linecap:square;stroke-linejoin:round;}</style></defs><title>unicons-interface-48px-calendar</title><line class="cls-1" x1="18.5" y1="6.5" x2="30.5" y2="6.5"/><path class="cls-1" d="M38.5,6.5h4a2,2,0,0,1,2,2v33a2,2,0,0,1-2,2H6.5a2,2,0,0,1-2-2V8.5a2,2,0,0,1,2-2h4"/><line class="cls-1" x1="14.5" y1="3.5" x2="14.5" y2="9.5"/><line class="cls-1" x1="34.5" y1="3.5" x2="34.5" y2="9.5"/><rect class="cls-1" x="11.5" y="20.5" width="6" height="6"/><rect class="cls-1" x="11.5" y="31.5" width="6" height="6"/><rect class="cls-1" x="21.5" y="20.5" width="6" height="6"/><rect class="cls-1" x="21.5" y="31.5" width="6" height="6"/><rect class="cls-1" x="31.5" y="20.5" width="6" height="6"/><line class="cls-1" x1="8.5" y1="14.5" x2="40.5" y2="14.5"/></svg>