<svg id="Layer_1" data-name="Layer 1" xmlns="http://www.w3.org/2000/svg" viewBox="0 0 16 16"><defs><style>.cls-1{fill:none;stroke:#5a5b5e;stroke-linecap:square;stroke-linejoin:round;}</style></defs><title>unicons-interface-16px-microphone-muted</title><line class="cls-1" x1="1.73" y1="1.73" x2="14.27" y2="14.27"/><path class="cls-1" d="M7.5,10.5h-1a1,1,0,0,1-1-1v-1"/><path class="cls-1" d="M5.5,2.5a1,1,0,0,1,1-1h4a1,1,0,0,1,1,1v6"/><path class="cls-1" d="M9.5,12.5h-4a2,2,0,0,1-2-2v-2"/><line class="cls-1" x1="13.5" y1="8.5" x2="13.5" y2="10.5"/><line class="cls-1" x1="3.5" y1="14.5" x2="11.5" y2="14.5"/><line class="cls-1" x1="8.5" y1="12.5" x2="8.5" y2="14.5"/><line class="cls-1" x1="7.5" y1="3.5" x2="9.5" y2="3.5"/><line class="cls-1" x1="8.5" y1="5.5" x2="9.5" y2="5.5"/></svg>