<svg id="target" xmlns="http://www.w3.org/2000/svg" viewBox="0 0 48 48"><title>unicons-docs-48px-file-xlsx</title><rect x="3.5" y="16.5" width="42" height="17" rx="2" ry="2" fill="none" stroke="currentColor" stroke-linecap="square" stroke-linejoin="round"/><path d="M7.5,12.5v-6a2.006,2.006,0,0,1,2-2H29.84a4.012,4.012,0,0,1,2.84,1.18L39.5,12.5" fill="none" stroke="currentColor" stroke-linecap="square" stroke-linejoin="round"/><path d="M41.5,37.5v5a2.006,2.006,0,0,1-2,2H9.5a2.006,2.006,0,0,1-2-2v-5" fill="none" stroke="currentColor" stroke-linecap="square" stroke-linejoin="round"/><path d="M9.058,28.074l2.5-3.094L9.2,22.066a.95.95,0,0,1-.227-.552.708.708,0,0,1,.73-.72.759.759,0,0,1,.672.359L12.5,23.949,14.6,21.2a.829.829,0,0,1,.72-.407.677.677,0,0,1,.672.671.865.865,0,0,1-.229.564l-2.35,2.926,2.471,3.083a.913.913,0,0,1,.227.552.708.708,0,0,1-.73.719.757.757,0,0,1-.672-.359l-2.255-2.938L10.233,28.9a.843.843,0,0,1-.72.407.673.673,0,0,1-.672-.684A.917.917,0,0,1,9.058,28.074Z" fill="currentColor"/><path d="M17.842,21.526a.737.737,0,0,1,1.475,0v6.38h3.8a.672.672,0,0,1,0,1.344H18.585a.733.733,0,0,1-.743-.743Z" fill="currentColor"/><path d="M25.054,28.314a.688.688,0,0,1,.407-1.247.681.681,0,0,1,.432.132,3.642,3.642,0,0,0,2.352.863c.911,0,1.486-.432,1.486-1.056v-.023c0-.6-.336-.924-1.895-1.283-1.787-.432-2.795-.96-2.795-2.507v-.024c0-1.438,1.2-2.435,2.867-2.435a4.619,4.619,0,0,1,2.662.78.665.665,0,0,1,.324.587.686.686,0,0,1-.7.684.713.713,0,0,1-.385-.107,3.491,3.491,0,0,0-1.931-.636c-.863,0-1.367.443-1.367,1v.024c0,.647.384.936,2,1.319,1.775.432,2.687,1.067,2.687,2.458v.024c0,1.571-1.235,2.507-3,2.507A5.226,5.226,0,0,1,25.054,28.314Z" fill="currentColor"/><path d="M32.6,28.074l2.5-3.094-2.351-2.914a.946.946,0,0,1-.229-.552.71.71,0,0,1,.732-.72.758.758,0,0,1,.671.359l2.123,2.795,2.1-2.747a.829.829,0,0,1,.72-.407.678.678,0,0,1,.672.671.869.869,0,0,1-.228.564l-2.352,2.926,2.471,3.083a.909.909,0,0,1,.229.552.71.71,0,0,1-.732.719.759.759,0,0,1-.672-.359L36,26.012,33.777,28.9a.845.845,0,0,1-.72.407.673.673,0,0,1-.672-.684A.917.917,0,0,1,32.6,28.074Z" fill="currentColor"/></svg>