<svg id="target" xmlns="http://www.w3.org/2000/svg" viewBox="0 0 24 24"><title>unicons-things-24px-building</title><rect x="5.5" y="1.5" width="13" height="22" fill="none" stroke="currentColor" stroke-linecap="square" stroke-linejoin="round"/><polyline points="3.5 23.5 2.5 23.5 2.5 15.5 3.5 15.5" fill="none" stroke="currentColor" stroke-linecap="square" stroke-linejoin="round"/><polyline points="20.5 15.5 21.5 15.5 21.5 23.5 20.5 23.5" fill="none" stroke="currentColor" stroke-linecap="square" stroke-linejoin="round"/><line x1="13.5" y1="4.5" x2="15.5" y2="4.5" fill="none" stroke="currentColor" stroke-linecap="square" stroke-linejoin="round"/><line x1="13.5" y1="7.5" x2="15.5" y2="7.5" fill="none" stroke="currentColor" stroke-linecap="square" stroke-linejoin="round"/><line x1="13.5" y1="10.5" x2="15.5" y2="10.5" fill="none" stroke="currentColor" stroke-linecap="square" stroke-linejoin="round"/><line x1="13.5" y1="13.5" x2="15.5" y2="13.5" fill="none" stroke="currentColor" stroke-linecap="square" stroke-linejoin="round"/><line x1="13.5" y1="16.5" x2="15.5" y2="16.5" fill="none" stroke="currentColor" stroke-linecap="square" stroke-linejoin="round"/><line x1="8.5" y1="4.5" x2="10.5" y2="4.5" fill="none" stroke="currentColor" stroke-linecap="square" stroke-linejoin="round"/><line x1="8.5" y1="7.5" x2="10.5" y2="7.5" fill="none" stroke="currentColor" stroke-linecap="square" stroke-linejoin="round"/><line x1="8.5" y1="10.5" x2="10.5" y2="10.5" fill="none" stroke="currentColor" stroke-linecap="square" stroke-linejoin="round"/><line x1="8.5" y1="13.5" x2="10.5" y2="13.5" fill="none" stroke="currentColor" stroke-linecap="square" stroke-linejoin="round"/><line x1="8.5" y1="16.5" x2="10.5" y2="16.5" fill="none" stroke="currentColor" stroke-linecap="square" stroke-linejoin="round"/><line x1="11.5" y1="20.5" x2="11.5" y2="22.5" fill="none" stroke="currentColor" stroke-linecap="square" stroke-linejoin="round"/><line x1="12.5" y1="20.5" x2="12.5" y2="22.5" fill="none" stroke="currentColor" stroke-linecap="square" stroke-linejoin="round"/></svg>