<svg id="target" xmlns="http://www.w3.org/2000/svg" viewBox="0 0 48 48"><title>unicons-things-48px-trashcan-filled</title><polyline points="15.5 8.5 17.5 4.5 22.5 8.5 24.5 3.5 27.5 3.5 29.5 5.5 33.5 8.5" fill="none" stroke="currentColor" stroke-linecap="square" stroke-linejoin="round"/><polyline points="13.5 17.5 14.5 22.5 18.5 23.5" fill="none" stroke="currentColor" stroke-linecap="square" stroke-linejoin="round"/><polyline points="30.5 26.5 34.5 21.5 35.5 16.5" fill="none" stroke="currentColor" stroke-linecap="square" stroke-linejoin="round"/><path d="M36.5,7.11c2.49.51,4,1.16,4,1.89l-4,34.5c0,1.657-5.373,3-12,3s-12-1.343-12-3L8.5,9c0-.73,1.51-1.38,4-1.89" fill="none" stroke="currentColor" stroke-linecap="square" stroke-linejoin="round"/><path d="M40.5,9c0,1.58-7.16,2.86-16,2.86S8.5,10.58,8.5,9" fill="none" stroke="currentColor" stroke-linejoin="round"/></svg>