<svg id="Layer_1" data-name="Layer 1" xmlns="http://www.w3.org/2000/svg" viewBox="0 0 48 48"><defs><style>.cls-1,.cls-2{fill:none;stroke:#5a5b5e;stroke-linejoin:round;}.cls-2{stroke-linecap:square;}</style></defs><title>unicons-things-48px-life-saver-float</title><path class="cls-1" d="M4.6,16A21,21,0,0,1,16,4.6"/><path class="cls-1" d="M32,4.6A21,21,0,0,1,43.4,16"/><path class="cls-1" d="M4.6,32A21,21,0,0,0,16,43.4"/><path class="cls-1" d="M32,43.4A21,21,0,0,0,43.4,32"/><circle class="cls-1" cx="24.5" cy="24.5" r="11"/><polyline class="cls-2" points="19.5 13.5 19.5 1.5 29.5 1.5 29.5 13.5"/><polyline class="cls-2" points="29.5 35.5 29.5 47.5 19.5 47.5 19.5 35.5"/><polyline class="cls-2" points="35.5 19.5 47.5 19.5 47.5 29.5 35.5 29.5"/><polyline class="cls-2" points="13.5 29.5 1.5 29.5 1.5 19.5 13.5 19.5"/></svg>