<svg id="target" xmlns="http://www.w3.org/2000/svg" viewBox="0 0 48 48"><title>unicons-interface-48px-tags</title><path d="M43.5,33.5H11.885a2,2,0,0,1-.743-.143L2.757,30A2,2,0,0,1,1.5,28.146V12.854A2,2,0,0,1,2.757,11l8.385-3.354a2,2,0,0,1,.743-.143H43.5a2,2,0,0,1,2,2v22A2,2,0,0,1,43.5,33.5Z" fill="none" stroke="currentColor" stroke-linecap="square" stroke-linejoin="round"/><circle cx="14.5" cy="20.5" r="5" fill="none" stroke="currentColor" stroke-linecap="square" stroke-linejoin="round"/><path d="M41.747,38.127l-.956,3.124a2,2,0,0,1-2.5,1.327l-15.343-4.7" fill="none" stroke="currentColor" stroke-linecap="square" stroke-linejoin="round"/></svg>