<svg id="target" xmlns="http://www.w3.org/2000/svg" viewBox="0 0 16 16"><title>unicons-people-16px-thumbs-down</title><rect x="0.5" y="1.5" width="3" height="8" fill="none" stroke="currentColor" stroke-linecap="square" stroke-linejoin="round"/><path d="M14.5,8.5a1,1,0,0,0,1-1h0a1,1,0,0,0-1-1h-1" fill="none" stroke="currentColor" stroke-linecap="square" stroke-linejoin="round"/><path d="M13.5,6.5a1,1,0,0,0,1-1h0a1,1,0,0,0-1-1h-1" fill="none" stroke="currentColor" stroke-linecap="square" stroke-linejoin="round"/><path d="M12.5,4.5a1,1,0,0,0,1-1h0a1,1,0,0,0-1-1H6.809a6,6,0,0,0-1.86.3l-.429.14" fill="none" stroke="currentColor" stroke-linecap="square" stroke-linejoin="round"/><path d="M4.643,8.714A2.846,2.846,0,0,1,5.786,9.786L7.5,12.643v2.143a.716.716,0,0,0,.714.714h.207a2,2,0,0,0,1.923-2.55l-.7-2.45H14.5a1,1,0,0,0,1-1h0a1,1,0,0,0-1-1h-1" fill="none" stroke="currentColor" stroke-linecap="square" stroke-linejoin="round"/></svg>