<svg id="Layer_1" data-name="Layer 1" xmlns="http://www.w3.org/2000/svg" viewBox="0 0 24 24"><defs><style>.cls-1{fill:none;stroke:#5a5b5e;stroke-linecap:square;stroke-linejoin:round;}</style></defs><title>unicons-things-24px-oil-bottle</title><path class="cls-1" d="M14.5,5.5,6.58,10.36A4,4,0,0,0,4.5,13.87V22.5a1,1,0,0,0,1,1h13a1,1,0,0,0,1-1V5.5"/><path class="cls-1" d="M14.5,3.5v-2a1,1,0,0,1,1-1h4a1,1,0,0,1,1,1v2Z"/><path class="cls-1" d="M14.5,16.55a2.25,2.25,0,0,1-4.5,0c0-1.24,2.25-4.05,2.25-4.05S14.5,15.31,14.5,16.55Z"/></svg>