<svg id="target" xmlns="http://www.w3.org/2000/svg" viewBox="0 0 16 16"><title>unicons-nature-16px-cloud-rain</title><path d="M.476,9.169a2.974,2.974,0,0,1,2.613-3.6,5.278,5.278,0,0,1,10.494.152,2.964,2.964,0,0,1,1.945,3.422A3.05,3.05,0,0,1,12.495,11.5H3.507A3.052,3.052,0,0,1,.476,9.169Z" fill="none" stroke="currentColor" stroke-linecap="square" stroke-linejoin="round"/><line x1="3.5" y1="13.5" x2="3.5" y2="14.5" fill="none" stroke="currentColor" stroke-linecap="square" stroke-linejoin="round"/><line x1="6.5" y1="13.5" x2="6.5" y2="14.5" fill="none" stroke="currentColor" stroke-linecap="square" stroke-linejoin="round"/><line x1="9.5" y1="13.5" x2="9.5" y2="14.5" fill="none" stroke="currentColor" stroke-linecap="square" stroke-linejoin="round"/><line x1="12.5" y1="13.5" x2="12.5" y2="14.5" fill="none" stroke="currentColor" stroke-linecap="square" stroke-linejoin="round"/><path d="M5.36,6.02a3.3,3.3,0,0,1,3.3-3.3" fill="none" stroke="currentColor" stroke-linejoin="round"/></svg>