<svg id="Layer_1" data-name="Layer 1" xmlns="http://www.w3.org/2000/svg" viewBox="0 0 24 24"><defs><style>.cls-1,.cls-2{fill:none;stroke:#5a5b5e;stroke-linejoin:round;}.cls-2{stroke-linecap:square;}</style></defs><title>unicons-things-24px-life-saver-float</title><path class="cls-1" d="M2.3,8A10.48,10.48,0,0,1,8,2.3"/><path class="cls-1" d="M16,2.3A10.48,10.48,0,0,1,21.7,8"/><path class="cls-1" d="M2.3,16A10.48,10.48,0,0,0,8,21.7"/><path class="cls-1" d="M16,21.7A10.48,10.48,0,0,0,21.7,16"/><circle class="cls-1" cx="12" cy="12" r="5.5"/><polyline class="cls-2" points="9.5 6.5 9.5 0.5 14.5 0.5 14.5 6.5"/><polyline class="cls-2" points="14.5 17.5 14.5 23.5 9.5 23.5 9.5 17.5"/><polyline class="cls-2" points="17.5 9.5 23.5 9.5 23.5 14.5 17.5 14.5"/><polyline class="cls-2" points="6.5 14.5 0.5 14.5 0.5 9.5 6.5 9.5"/></svg>