<svg id="target" xmlns="http://www.w3.org/2000/svg" viewBox="0 0 48 48"><title>unicons-things-48px-outlet</title><rect x="9.5" y="2.5" width="30" height="42" rx="2" ry="2" fill="none" stroke="currentColor" stroke-linecap="square" stroke-linejoin="round"/><line x1="22.5" y1="11.5" x2="22.5" y2="15.5" fill="none" stroke="currentColor" stroke-linecap="square" stroke-linejoin="round"/><line x1="26.5" y1="11.5" x2="26.5" y2="15.5" fill="none" stroke="currentColor" stroke-linecap="square" stroke-linejoin="round"/><path d="M19.5,19.5l-.764-1.528a10,10,0,0,1,0-8.944L19.5,7.5h10l.764,1.528a10,10,0,0,1,0,8.944L29.5,19.5Z" fill="none" stroke="currentColor" stroke-linecap="square" stroke-linejoin="round"/><path d="M19.5,39.5l-.764-1.528a10,10,0,0,1,0-8.944L19.5,27.5h10l.764,1.528a10,10,0,0,1,0,8.944L29.5,39.5Z" fill="none" stroke="currentColor" stroke-linecap="square" stroke-linejoin="round"/><line x1="22.5" y1="31.5" x2="22.5" y2="35.5" fill="none" stroke="currentColor" stroke-linecap="square" stroke-linejoin="round"/><line x1="26.5" y1="31.5" x2="26.5" y2="35.5" fill="none" stroke="currentColor" stroke-linecap="square" stroke-linejoin="round"/><circle cx="24.5" cy="23.5" r="1" fill="none" stroke="currentColor" stroke-linecap="square" stroke-linejoin="round"/></svg>