<svg id="target" xmlns="http://www.w3.org/2000/svg" viewBox="0 0 16 16"><title>unicons-things-16px-building</title><rect x="4.5" y="1.5" width="8" height="14" fill="none" stroke="currentColor" stroke-linecap="square" stroke-linejoin="round"/><polyline points="4.5 15.5 2.5 15.5 2.5 10.5 3.5 10.5" fill="none" stroke="currentColor" stroke-linecap="square" stroke-linejoin="round"/><polyline points="13.5 10.5 14.5 10.5 14.5 15.5 12.5 15.5" fill="none" stroke="currentColor" stroke-linecap="square" stroke-linejoin="round"/><line x1="9.5" y1="3.5" x2="10.5" y2="3.5" fill="none" stroke="currentColor" stroke-linecap="square" stroke-linejoin="round"/><line x1="9.5" y1="5.5" x2="10.5" y2="5.5" fill="none" stroke="currentColor" stroke-linecap="square" stroke-linejoin="round"/><line x1="9.5" y1="7.5" x2="10.5" y2="7.5" fill="none" stroke="currentColor" stroke-linecap="square" stroke-linejoin="round"/><line x1="9.5" y1="9.5" x2="10.5" y2="9.5" fill="none" stroke="currentColor" stroke-linecap="square" stroke-linejoin="round"/><line x1="9.5" y1="11.5" x2="10.5" y2="11.5" fill="none" stroke="currentColor" stroke-linecap="square" stroke-linejoin="round"/><line x1="6.5" y1="3.5" x2="7.5" y2="3.5" fill="none" stroke="currentColor" stroke-linecap="square" stroke-linejoin="round"/><line x1="6.5" y1="5.5" x2="7.5" y2="5.5" fill="none" stroke="currentColor" stroke-linecap="square" stroke-linejoin="round"/><line x1="6.5" y1="7.5" x2="7.5" y2="7.5" fill="none" stroke="currentColor" stroke-linecap="square" stroke-linejoin="round"/><line x1="6.5" y1="9.5" x2="7.5" y2="9.5" fill="none" stroke="currentColor" stroke-linecap="square" stroke-linejoin="round"/><line x1="6.5" y1="11.5" x2="7.5" y2="11.5" fill="none" stroke="currentColor" stroke-linecap="square" stroke-linejoin="round"/><line x1="8.5" y1="13.5" x2="8.5" y2="14.5" fill="none" stroke="currentColor" stroke-linecap="square" stroke-linejoin="round"/><line x1="8.5" y1="13.5" x2="8.5" y2="14.5" fill="none" stroke="currentColor" stroke-linecap="square" stroke-linejoin="round"/></svg>