<svg id="target" xmlns="http://www.w3.org/2000/svg" viewBox="0 0 48 48"><title>unicons-things-48px-music-note</title><path d="M39.5,26.5V6.654a1.121,1.121,0,0,0-1.337-1.1L20.429,9.445a1.152,1.152,0,0,0-.929,1.13V30.5" fill="none" stroke="currentColor" stroke-linecap="square" stroke-linejoin="round"/><path d="M13.5,30.5h6a0,0,0,0,1,0,0v6a6,6,0,0,1-6,6h0a6,6,0,0,1-6-6v0a6,6,0,0,1,6-6Z" fill="none" stroke="currentColor" stroke-linecap="square" stroke-linejoin="round"/><path d="M33.5,26.5h6a0,0,0,0,1,0,0v6a6,6,0,0,1-6,6h0a6,6,0,0,1-6-6v0a6,6,0,0,1,6-6Z" fill="none" stroke="currentColor" stroke-linecap="square" stroke-linejoin="round"/></svg>