<svg id="target" xmlns="http://www.w3.org/2000/svg" viewBox="0 0 48 48"><title>unicons-docs-48px-file-audio</title><path d="M30.5,28.5V18.463a.494.494,0,0,0-.59-.485l-8,1.774a.508.508,0,0,0-.41.5V30.5" fill="none" stroke="currentColor" stroke-linecap="square" stroke-linejoin="round"/><path d="M40.328,13.328,32.672,5.672A4,4,0,0,0,29.843,4.5H9.5a2,2,0,0,0-2,2v36a2,2,0,0,0,2,2h30a2,2,0,0,0,2-2V16.157A4,4,0,0,0,40.328,13.328Z" fill="none" stroke="currentColor" stroke-linecap="square" stroke-linejoin="round"/><path d="M19,28.5h2.5a0,0,0,0,1,0,0V31A2.5,2.5,0,0,1,19,33.5h0A2.5,2.5,0,0,1,16.5,31v0A2.5,2.5,0,0,1,19,28.5Z" fill="none" stroke="currentColor" stroke-linecap="square" stroke-linejoin="round"/><path d="M28,28.5h2.5a0,0,0,0,1,0,0V31A2.5,2.5,0,0,1,28,33.5h0A2.5,2.5,0,0,1,25.5,31v0A2.5,2.5,0,0,1,28,28.5Z" fill="none" stroke="currentColor" stroke-linecap="square" stroke-linejoin="round"/></svg>