<svg id="target" xmlns="http://www.w3.org/2000/svg" viewBox="0 0 48 48"><title>unicons-things-48px-oil-bottle</title><path d="M28.5,11.5,12.669,21.226A8,8,0,0,0,8.5,28.249V45.5a2,2,0,0,0,2,2h26a2,2,0,0,0,2-2v-34" fill="none" stroke="currentColor" stroke-linecap="square" stroke-linejoin="round"/><path d="M28.5,7.5v-4a2,2,0,0,1,2-2h8a2,2,0,0,1,2,2v4Z" fill="none" stroke="currentColor" stroke-linecap="square" stroke-linejoin="round"/><path d="M28.5,33.1a4.5,4.5,0,0,1-9,0C19.5,30.615,24,25,24,25S28.5,30.615,28.5,33.1Z" fill="none" stroke="currentColor" stroke-linecap="square" stroke-linejoin="round"/></svg>