<svg id="target" xmlns="http://www.w3.org/2000/svg" viewBox="0 0 48 48"><title>unicons-docs-48px-envelope-open</title><path d="M44.36,12.957l-19-9.048a2,2,0,0,0-1.72,0l-19,9.048A2,2,0,0,0,3.5,14.763V39.5a2,2,0,0,0,2,2h38a2,2,0,0,0,2-2V14.763A2,2,0,0,0,44.36,12.957Z" fill="none" stroke="currentColor" stroke-linecap="square" stroke-linejoin="round"/><path d="M42.5,20.5,28.422,29.294a8,8,0,0,1-7.844,0L6.5,20.5" fill="none" stroke="currentColor" stroke-linecap="square" stroke-linejoin="round"/><path d="M9.5,22.5v-7a1,1,0,0,1,1-1h28a1,1,0,0,1,1,1v7" fill="none" stroke="currentColor" stroke-linejoin="round"/></svg>