<svg id="Layer_1" data-name="Layer 1" xmlns="http://www.w3.org/2000/svg" viewBox="0 0 48 48"><defs><style>.cls-1{fill:none;stroke:#5a5b5e;stroke-linecap:square;stroke-linejoin:round;}</style></defs><title>unicons-transportation-48px-car</title><path class="cls-1" d="M13.5,40.5v3a2,2,0,0,1-2,2h-5a2,2,0,0,1-2-2v-3"/><path class="cls-1" d="M43.5,40.5v3a2,2,0,0,1-2,2h-5a2,2,0,0,1-2-2v-3"/><path class="cls-1" d="M46.5,27.5v9a1,1,0,0,1-1,1H2.5a1,1,0,0,1-1-1v-9a4,4,0,0,1,4-4h0L11,8.8a2,2,0,0,1,1.87-1.3H35.11A2,2,0,0,1,37,8.8L42.5,23.5h0A4,4,0,0,1,46.5,27.5Z"/><circle class="cls-1" cx="8.5" cy="30.5" r="3"/><circle class="cls-1" cx="39.5" cy="30.5" r="3"/><polygon class="cls-1" points="37.02 22.5 11.02 22.5 15.02 11.5 33.02 11.5 37.02 22.5"/><line class="cls-1" x1="15.5" y1="30.5" x2="32.5" y2="30.5"/></svg>