<svg id="target" xmlns="http://www.w3.org/2000/svg" viewBox="0 0 48 48"><title>unicons-docs-48px-file-spreadsheet</title><line x1="37.5" y1="40.5" x2="11.5" y2="40.5" fill="none" stroke="currentColor" stroke-linecap="square" stroke-linejoin="round"/><line x1="37.5" y1="36.5" x2="11.5" y2="36.5" fill="none" stroke="currentColor" stroke-linecap="square" stroke-linejoin="round"/><line x1="37.5" y1="32.5" x2="11.5" y2="32.5" fill="none" stroke="currentColor" stroke-linecap="square" stroke-linejoin="round"/><line x1="37.5" y1="28.5" x2="11.5" y2="28.5" fill="none" stroke="currentColor" stroke-linecap="square" stroke-linejoin="round"/><line x1="37.5" y1="24.5" x2="11.5" y2="24.5" fill="none" stroke="currentColor" stroke-linecap="square" stroke-linejoin="round"/><line x1="15.5" y1="24.5" x2="15.5" y2="40.5" fill="none" stroke="currentColor" stroke-linejoin="round"/><path d="M40.328,13.328,32.672,5.672A4,4,0,0,0,29.843,4.5H9.5a2,2,0,0,0-2,2v36a2,2,0,0,0,2,2h30a2,2,0,0,0,2-2V16.157A4,4,0,0,0,40.328,13.328Z" fill="none" stroke="currentColor" stroke-linecap="square" stroke-linejoin="round"/></svg>