<svg id="target" xmlns="http://www.w3.org/2000/svg" viewBox="0 0 16 16"><title>unicons-interface-16px-power-on</title><line x1="12.5" y1="7.5" x2="12.5" y2="9.5" fill="none" stroke="currentColor" stroke-linecap="square" stroke-linejoin="round"/><path d="M14.5,13.5H1.5a1,1,0,0,1-1-1v-8a1,1,0,0,1,1-1h13a1,1,0,0,1,1,1v8A1,1,0,0,1,14.5,13.5Zm-7-1h6a1,1,0,0,0,1-1v-6a1,1,0,0,0-1-1h-6a1,1,0,0,0-1,1v6A1,1,0,0,0,7.5,12.5Z" fill="currentColor" stroke="currentColor" stroke-linecap="square" stroke-linejoin="round"/></svg>