<svg id="Layer_1" data-name="Layer 1" xmlns="http://www.w3.org/2000/svg" viewBox="0 0 48 48"><defs><style>.cls-1{fill:none;stroke:#5a5b5e;stroke-linecap:square;stroke-linejoin:round;}.cls-2{fill:#5a5b5e;}</style></defs><title>unicons-docs-48px-file-pptx</title><rect class="cls-1" x="3.5" y="16.5" width="42" height="17" rx="2" ry="2"/><path class="cls-1" d="M7.5,12.5v-6a2,2,0,0,1,2-2H29.84a4,4,0,0,1,2.84,1.18L39.5,12.5"/><path class="cls-1" d="M41.5,37.5v5a2,2,0,0,1-2,2H9.5a2,2,0,0,1-2-2v-5"/><path class="cls-2" d="M9.14,21.6a.73.73,0,0,1,.74-.74h2.57c2,0,3.19,1.12,3.19,2.81v0c0,1.88-1.51,2.87-3.36,2.87H10.62v2a.74.74,0,0,1-1.48,0Zm3.19,3.62c1.12,0,1.81-.62,1.81-1.5v0c0-1-.71-1.5-1.81-1.5H10.62v3Z"/><path class="cls-2" d="M17.16,21.6a.73.73,0,0,1,.74-.74h2.57c2,0,3.19,1.12,3.19,2.81v0c0,1.88-1.51,2.87-3.36,2.87H18.63v2a.74.74,0,0,1-1.47,0Zm3.19,3.62c1.12,0,1.81-.62,1.81-1.5v0c0-1-.71-1.5-1.81-1.5H18.63v3Z"/><path class="cls-2" d="M27.24,22.22h-2a.68.68,0,0,1,0-1.37h5.58a.68.68,0,0,1,0,1.37H28.72v6.36a.74.74,0,0,1-1.49,0Z"/><path class="cls-2" d="M32.73,28.07,35.23,25l-2.35-2.91a1,1,0,0,1-.23-.55.71.71,0,0,1,.73-.72.76.76,0,0,1,.67.36l2.12,2.79,2.1-2.75a.83.83,0,0,1,.72-.41.68.68,0,0,1,.67.67.86.86,0,0,1-.23.56L37.09,25,39.56,28a.91.91,0,0,1,.23.55.71.71,0,0,1-.73.72.76.76,0,0,1-.67-.36L36.13,26,33.91,28.9a.84.84,0,0,1-.72.41.67.67,0,0,1-.67-.68A.92.92,0,0,1,32.73,28.07Z"/></svg>