<svg id="Layer_1" data-name="Layer 1" xmlns="http://www.w3.org/2000/svg" viewBox="0 0 24 24"><defs><style>.cls-1{fill:none;stroke:#5a5b5e;stroke-linecap:square;stroke-linejoin:round;}</style></defs><title>unicons-interface-24px-inbox</title><path class="cls-1" d="M15.5,4.5h5.13a1,1,0,0,1,1,.86l.88,6.14"/><path class="cls-1" d="M2.5,11.5l.88-6.14a1,1,0,0,1,1-.86H9.5"/><path class="cls-1" d="M21.5,21.5H3.5a1,1,0,0,1-1-1v-7h6v3h8v-3h6v7A1,1,0,0,1,21.5,21.5Z"/><line class="cls-1" x1="12.5" y1="0.5" x2="12.5" y2="8.5"/><path class="cls-1" d="M15.36,8.48l-2.21,1.79a1,1,0,0,1-1.31,0L9.64,8.48"/></svg>