<svg id="Layer_1" data-name="Layer 1" xmlns="http://www.w3.org/2000/svg" viewBox="0 0 48 48"><defs><style>.cls-1{fill:none;stroke:#5a5b5e;stroke-linecap:square;stroke-linejoin:round;}</style></defs><title>unicons-docs-48px-file-photo</title><path class="cls-1" d="M37.5,24.5v16h-26V32.72a.5.5,0,0,1,.17-.37l11.5-6.68,5.17,5.83Z"/><circle class="cls-1" cx="16.5" cy="17.5" r="3"/><path class="cls-1" d="M40.33,13.33,32.67,5.67A4,4,0,0,0,29.84,4.5H9.5a2,2,0,0,0-2,2v36a2,2,0,0,0,2,2h30a2,2,0,0,0,2-2V16.16A4,4,0,0,0,40.33,13.33Z"/></svg>