<svg id="Layer_1" data-name="Layer 1" xmlns="http://www.w3.org/2000/svg" viewBox="0 0 24 24"><defs><style>.cls-1{fill:none;stroke:#5a5b5e;stroke-linecap:square;stroke-linejoin:round;}</style></defs><title>unicons-docs-24px-file-audio</title><path class="cls-1" d="M15.5,14.5v-5a.25.25,0,0,0-.3-.24l-4.5.89a.25.25,0,0,0-.2.25V15.5"/><circle class="cls-1" cx="9.5" cy="16.5" r="1"/><circle class="cls-1" cx="14.5" cy="15.5" r="1"/><path class="cls-1" d="M19.91,6.91,16.09,3.09a2,2,0,0,0-1.41-.59H4.5a1,1,0,0,0-1,1v18a1,1,0,0,0,1,1h15a1,1,0,0,0,1-1V8.33A2,2,0,0,0,19.91,6.91Z"/></svg>