<svg id="target" xmlns="http://www.w3.org/2000/svg" viewBox="0 0 16 16"><title>unicons-docs-16px-check-in-doc-1</title><line x1="8.5" y1="7.5" x2="8.5" y2="3.5" fill="none" stroke="currentColor" stroke-linecap="square" stroke-linejoin="round"/><polyline points="15.5 13.5 15.5 15.5 1.5 15.5 1.5 13.5" fill="none" stroke="currentColor" stroke-linecap="square" stroke-linejoin="round"/><polyline points="10.48 7.33 8.5 9.31 6.52 7.33" fill="none" stroke="currentColor" stroke-linecap="square" stroke-linejoin="round"/><path d="M13.187,3.454,10.352.773A1,1,0,0,0,9.665.5H4.5a1,1,0,0,0-1,1v10a1,1,0,0,0,1,1h8a1,1,0,0,0,1-1V4.181A1,1,0,0,0,13.187,3.454Z" fill="none" stroke="currentColor" stroke-linecap="square" stroke-linejoin="round"/></svg>