<svg id="Layer_1" data-name="Layer 1" xmlns="http://www.w3.org/2000/svg" viewBox="0 0 48 48"><defs><style>.cls-1{fill:none;stroke:#5a5b5e;stroke-linecap:square;stroke-linejoin:round;}</style></defs><title>unicons-interface-48px-clipboard</title><rect class="cls-1" x="15.5" y="4.5" width="17" height="8" rx="1" ry="1"/><path class="cls-1" d="M11.5,8.5h-3a2,2,0,0,0-2,2v32a2,2,0,0,0,2,2h31a2,2,0,0,0,2-2v-32a2,2,0,0,0-2-2h-3"/><path class="cls-1" d="M37.5,16.5v23a1,1,0,0,1-1,1h-25a1,1,0,0,1-1-1v-23"/></svg>