<svg id="Layer_1" data-name="Layer 1" xmlns="http://www.w3.org/2000/svg" viewBox="0 0 24 24"><defs><style>.cls-1{fill:none;stroke:#5a5b5e;stroke-linecap:square;stroke-linejoin:round;}</style></defs><title>unicons-things-24px-database</title><path class="cls-1" d="M4.5,5.5c0-1.1,3.58-2,8-2s8,.9,8,2v15c0,1.1-3.58,2-8,2s-8-.9-8-2Z"/><ellipse class="cls-1" cx="12.5" cy="5.5" rx="8" ry="2"/><path class="cls-1" d="M20.5,10.5c0,1.1-3.58,2-8,2s-8-.9-8-2"/><path class="cls-1" d="M20.5,15.5c0,1.1-3.58,2-8,2s-8-.9-8-2"/><line class="cls-1" x1="9.5" y1="12.5" x2="9.5" y2="14.5"/><line class="cls-1" x1="9.5" y1="7.5" x2="9.5" y2="9.5"/><line class="cls-1" x1="9.5" y1="17.5" x2="9.5" y2="19.5"/></svg>