<svg id="target" xmlns="http://www.w3.org/2000/svg" viewBox="0 0 48 48"><title>unicons-things-48px-headphones</title><path d="M7.5,24.5h7a1,1,0,0,1,1,1v16a1,1,0,0,1-1,1h-7a4,4,0,0,1-4-4v-10A4,4,0,0,1,7.5,24.5Z" fill="none" stroke="currentColor" stroke-linejoin="round"/><path d="M34.5,24.5h7a4,4,0,0,1,4,4v10a4,4,0,0,1-4,4h-7a1,1,0,0,1-1-1v-16A1,1,0,0,1,34.5,24.5Z" fill="none" stroke="currentColor" stroke-linejoin="round"/><path d="M7,20.5a16,16,0,0,1,16-16h2a16,16,0,0,1,16,16" fill="none" stroke="currentColor" stroke-linecap="square" stroke-linejoin="round"/></svg>