<svg id="Layer_1" data-name="Layer 1" xmlns="http://www.w3.org/2000/svg" viewBox="0 0 24 24"><defs><style>.cls-1,.cls-2{fill:none;stroke:#5a5b5e;stroke-linejoin:round;}.cls-2{stroke-linecap:square;}</style></defs><title>unicons-things-24px-headphones</title><path class="cls-1" d="M3.5,11.5h4a0,0,0,0,1,0,0v9a0,0,0,0,1,0,0h-4a2,2,0,0,1-2-2v-5A2,2,0,0,1,3.5,11.5Z"/><path class="cls-1" d="M16.5,11.5h4a2,2,0,0,1,2,2v5a2,2,0,0,1-2,2h-4a0,0,0,0,1,0,0v-9A0,0,0,0,1,16.5,11.5Z"/><path class="cls-2" d="M3.5,9.5a8,8,0,0,1,8-8h1a8,8,0,0,1,8,8"/></svg>