<svg id="target" xmlns="http://www.w3.org/2000/svg" viewBox="0 0 48 48"><title>unicons-interface-48px-power-on</title><path d="M39.5,11.5H7.5a6,6,0,0,0-6,6v14a6,6,0,0,0,6,6h32a6,6,0,0,0,6-6v-14A6,6,0,0,0,39.5,11.5Zm0,24h-12a4.012,4.012,0,0,1-4-4v-14a4.012,4.012,0,0,1,4-4h12a4.012,4.012,0,0,1,4,4v14A4.012,4.012,0,0,1,39.5,35.5Z" fill="currentColor" stroke="currentColor" stroke-linecap="square" stroke-linejoin="round"/><line x1="39.5" y1="30.5" x2="39.5" y2="18.5" fill="none" stroke="currentColor" stroke-linecap="square" stroke-linejoin="round"/></svg>