<svg id="icons" xmlns="http://www.w3.org/2000/svg" viewBox="0 0 16 16"><defs><style>.cls-1,.cls-2{fill:none;stroke:#5a5b5e;stroke-linecap:square;}.cls-1{stroke-linejoin:round;}.cls-2{stroke-miterlimit:10;}.cls-3{fill:#112;}.cls-4{fill:#5a5b5e;}</style></defs><title>unicons-things-16px-video-game</title><line class="cls-1" x1="4.5" y1="5.5" x2="4.5" y2="9.5"/><line class="cls-1" x1="2.5" y1="7.5" x2="6.5" y2="7.5"/><line class="cls-2" x1="7.5" y1="0.5" x2="7.5" y2="3.5"/><circle class="cls-3" cx="10" cy="6" r="0.5"/><path class="cls-4" d="M10,5a1,1,0,1,0,1,1,1,1,0,0,0-1-1Z"/><circle class="cls-3" cx="12" cy="8" r="0.5"/><path class="cls-4" d="M12,7a1,1,0,1,0,1,1,1,1,0,0,0-1-1Z"/><path class="cls-1" d="M14.5,7.5a4,4,0,0,1-6.64,3H7.14a4,4,0,1,1-2.64-7h6A4,4,0,0,1,14.5,7.5Z"/></svg>