<svg id="target" xmlns="http://www.w3.org/2000/svg" viewBox="0 0 16 16"><title>unicons-people-16px-person-running</title><circle cx="11.5" cy="2.5" r="1" transform="translate(1.601 8.864) rotate(-45)" fill="none" stroke="currentColor" stroke-linecap="square" stroke-linejoin="round"/><path d="M4.429,10.985,2.722,12.692a1,1,0,0,1-1.414,0h0a1,1,0,0,1,0-1.414L3.015,9.571" fill="none" stroke="currentColor" stroke-linecap="square" stroke-linejoin="round"/><path d="M8.672,3.914,12.207,7.45l1.414-1.414a1,1,0,0,1,1.414,0h0a1,1,0,0,1,0,1.414L12.914,9.571a1,1,0,0,1-1.414,0L8.672,6.743,7.257,8.157l3.536,3.536L7.257,15.228a1,1,0,0,1-1.414,0h0a1,1,0,0,1,0-1.414l2.121-2.121L4.429,8.157Z" fill="none" stroke="currentColor" stroke-linecap="square" stroke-linejoin="round"/><path d="M7.257,2.5,6.55,1.793a1,1,0,0,0-1.414,0L3.226,3.7a1,1,0,0,0,0,1.414h0a1,1,0,0,0,1.414,0l1.2-1.2h0" fill="none" stroke="currentColor" stroke-linecap="square" stroke-linejoin="round"/></svg>