<svg id="Layer_1" data-name="Layer 1" xmlns="http://www.w3.org/2000/svg" viewBox="0 0 24 24"><defs><style>.cls-1{fill:none;stroke:#5a5b5e;stroke-linecap:square;stroke-linejoin:round;}</style></defs><title>unicons-things-24px-music-note</title><path class="cls-1" d="M19.5,13.5V3.42a.56.56,0,0,0-.67-.55L10,4.81a.58.58,0,0,0-.46.57V15.5"/><path class="cls-1" d="M6.5,15.5h3a0,0,0,0,1,0,0v3a3,3,0,0,1-3,3h0a3,3,0,0,1-3-3v0a3,3,0,0,1,3-3Z"/><path class="cls-1" d="M16.5,13.5h3a0,0,0,0,1,0,0v3a3,3,0,0,1-3,3h0a3,3,0,0,1-3-3v0A3,3,0,0,1,16.5,13.5Z"/></svg>