<svg id="Layer_1" data-name="Layer 1" xmlns="http://www.w3.org/2000/svg" viewBox="0 0 48 48"><defs><style>.cls-1{fill:none;stroke:#5a5b5e;stroke-linejoin:round;}</style></defs><title>unicons-things-48px-hardware</title><rect class="cls-1" x="1.5" y="19.5" width="46" height="24" rx="2" ry="2"/><line class="cls-1" x1="14" y1="37.5" x2="34" y2="37.5"/><line class="cls-1" x1="6" y1="37.5" x2="10" y2="37.5"/><line class="cls-1" x1="6" y1="31.5" x2="10" y2="31.5"/><line class="cls-1" x1="38" y1="37.5" x2="42" y2="37.5"/><line class="cls-1" x1="38" y1="31.5" x2="42" y2="31.5"/><line class="cls-1" x1="6" y1="25.5" x2="10" y2="25.5"/><line class="cls-1" x1="14" y1="31.5" x2="18" y2="31.5"/><line class="cls-1" x1="14" y1="25.5" x2="18" y2="25.5"/><line class="cls-1" x1="22" y1="31.5" x2="26" y2="31.5"/><line class="cls-1" x1="22" y1="25.5" x2="26" y2="25.5"/><line class="cls-1" x1="30" y1="31.5" x2="34" y2="31.5"/><line class="cls-1" x1="30" y1="25.5" x2="34" y2="25.5"/><line class="cls-1" x1="38" y1="25.5" x2="42" y2="25.5"/><path class="cls-1" d="M36,4.5H31a6,6,0,0,0-5.9,4.93L24,15.5"/></svg>