<svg id="Layer_1" data-name="Layer 1" xmlns="http://www.w3.org/2000/svg" viewBox="0 0 48 48"><defs><style>.cls-1{fill:none;stroke:#5a5b5e;stroke-linecap:square;stroke-linejoin:round;}.cls-2{fill:#5a5b5e;}</style></defs><title>unicons-docs-48px-file-xlsx</title><rect class="cls-1" x="3.5" y="16.5" width="42" height="17" rx="2" ry="2"/><path class="cls-1" d="M7.5,12.5v-6a2,2,0,0,1,2-2H29.84a4,4,0,0,1,2.84,1.18L39.5,12.5"/><path class="cls-1" d="M41.5,37.5v5a2,2,0,0,1-2,2H9.5a2,2,0,0,1-2-2v-5"/><path class="cls-2" d="M9.06,28.07,11.55,25,9.2,22.07A1,1,0,0,1,9,21.51a.71.71,0,0,1,.73-.72.76.76,0,0,1,.67.36l2.12,2.79,2.1-2.75a.83.83,0,0,1,.72-.41.68.68,0,0,1,.67.67.87.87,0,0,1-.23.56L13.41,25,15.88,28a.91.91,0,0,1,.23.55.71.71,0,0,1-.73.72.76.76,0,0,1-.67-.36L12.45,26,10.23,28.9a.84.84,0,0,1-.72.41.67.67,0,0,1-.67-.68A.92.92,0,0,1,9.06,28.07Z"/><path class="cls-2" d="M17.84,21.53a.74.74,0,0,1,1.47,0v6.38h3.8a.67.67,0,0,1,0,1.34H18.58a.73.73,0,0,1-.74-.74Z"/><path class="cls-2" d="M25.05,28.31a.69.69,0,0,1,.41-1.25.68.68,0,0,1,.43.13,3.64,3.64,0,0,0,2.35.86c.91,0,1.49-.43,1.49-1.06v0c0-.6-.34-.92-1.89-1.28C26,25.27,25,24.74,25,23.19v0c0-1.44,1.2-2.43,2.87-2.43a4.62,4.62,0,0,1,2.66.78.67.67,0,0,1,.32.59.69.69,0,0,1-.7.68.71.71,0,0,1-.38-.11A3.49,3.49,0,0,0,27.88,22c-.86,0-1.37.44-1.37,1v0c0,.65.38.94,2,1.32,1.78.43,2.69,1.07,2.69,2.46v0c0,1.57-1.24,2.51-3,2.51A5.23,5.23,0,0,1,25.05,28.31Z"/><path class="cls-2" d="M32.6,28.07,35.1,25l-2.35-2.91a1,1,0,0,1-.23-.55.71.71,0,0,1,.73-.72.76.76,0,0,1,.67.36L36,23.95l2.1-2.75a.83.83,0,0,1,.72-.41.68.68,0,0,1,.67.67.87.87,0,0,1-.23.56L37,25,39.43,28a.91.91,0,0,1,.23.55.71.71,0,0,1-.73.72.76.76,0,0,1-.67-.36L36,26,33.78,28.9a.84.84,0,0,1-.72.41.67.67,0,0,1-.67-.68A.92.92,0,0,1,32.6,28.07Z"/></svg>