<svg id="target" xmlns="http://www.w3.org/2000/svg" viewBox="0 0 48 48"><title>unicons-docs-48px-file-pptx</title><rect x="3.5" y="16.5" width="42" height="17" rx="2" ry="2" fill="none" stroke="currentColor" stroke-linecap="square" stroke-linejoin="round"/><path d="M7.5,12.5v-6a2.006,2.006,0,0,1,2-2H29.84a4.012,4.012,0,0,1,2.84,1.18L39.5,12.5" fill="none" stroke="currentColor" stroke-linecap="square" stroke-linejoin="round"/><path d="M41.5,37.5v5a2.006,2.006,0,0,1-2,2H9.5a2.006,2.006,0,0,1-2-2v-5" fill="none" stroke="currentColor" stroke-linecap="square" stroke-linejoin="round"/><path d="M9.142,21.6a.732.732,0,0,1,.743-.744h2.566c1.967,0,3.19,1.115,3.19,2.807v.024c0,1.883-1.511,2.866-3.358,2.866H10.617v2.026a.738.738,0,0,1-1.476,0Zm3.19,3.622c1.115,0,1.811-.624,1.811-1.5V23.7c0-.983-.707-1.5-1.811-1.5H10.617v3.022Z" fill="currentColor"/><path d="M17.158,21.6a.732.732,0,0,1,.743-.744h2.566c1.967,0,3.19,1.115,3.19,2.807v.024c0,1.883-1.512,2.866-3.358,2.866H18.633v2.026a.737.737,0,0,1-1.475,0Zm3.189,3.622c1.115,0,1.811-.624,1.811-1.5V23.7c0-.983-.707-1.5-1.811-1.5H18.633v3.022Z" fill="currentColor"/><path d="M27.236,22.222H25.2a.684.684,0,0,1,0-1.367h5.576a.684.684,0,0,1,0,1.367H28.723v6.356a.743.743,0,0,1-1.486,0Z" fill="currentColor"/><path d="M32.733,28.074l2.5-3.094-2.352-2.914a.95.95,0,0,1-.227-.552.708.708,0,0,1,.73-.72.759.759,0,0,1,.672.359l2.123,2.795,2.1-2.747a.829.829,0,0,1,.72-.407.677.677,0,0,1,.672.671.865.865,0,0,1-.229.564l-2.35,2.926,2.471,3.083a.913.913,0,0,1,.227.552.708.708,0,0,1-.73.719.756.756,0,0,1-.672-.359l-2.255-2.938L33.909,28.9a.843.843,0,0,1-.72.407.673.673,0,0,1-.672-.684A.917.917,0,0,1,32.733,28.074Z" fill="currentColor"/></svg>