<svg id="target" xmlns="http://www.w3.org/2000/svg" viewBox="0 0 48 48"><title>unicons-docs-48px-file-video</title><path d="M40.328,13.328,32.672,5.672A4,4,0,0,0,29.843,4.5H9.5a2,2,0,0,0-2,2v36a2,2,0,0,0,2,2h30a2,2,0,0,0,2-2V16.157A4,4,0,0,0,40.328,13.328Z" fill="none" stroke="currentColor" stroke-linecap="square" stroke-linejoin="round"/><path d="M18.5,18.2V30.8a1,1,0,0,0,1.485.874l11.36-6.3a1,1,0,0,0,0-1.749l-11.36-6.3A1,1,0,0,0,18.5,18.2Z" fill="none" stroke="currentColor" stroke-linecap="square" stroke-linejoin="round"/></svg>