<svg id="icons" xmlns="http://www.w3.org/2000/svg" viewBox="0 0 16 16"><defs><style>.cls-1{fill:none;stroke:#5a5b5e;stroke-linecap:square;stroke-linejoin:round;}</style></defs><title>unicons-things-16px-building</title><rect class="cls-1" x="4.5" y="1.5" width="8" height="14"/><polyline class="cls-1" points="4.5 15.5 2.5 15.5 2.5 10.5 3.5 10.5"/><polyline class="cls-1" points="13.5 10.5 14.5 10.5 14.5 15.5 12.5 15.5"/><line class="cls-1" x1="9.5" y1="3.5" x2="10.5" y2="3.5"/><line class="cls-1" x1="9.5" y1="5.5" x2="10.5" y2="5.5"/><line class="cls-1" x1="9.5" y1="7.5" x2="10.5" y2="7.5"/><line class="cls-1" x1="9.5" y1="9.5" x2="10.5" y2="9.5"/><line class="cls-1" x1="9.5" y1="11.5" x2="10.5" y2="11.5"/><line class="cls-1" x1="6.5" y1="3.5" x2="7.5" y2="3.5"/><line class="cls-1" x1="6.5" y1="5.5" x2="7.5" y2="5.5"/><line class="cls-1" x1="6.5" y1="7.5" x2="7.5" y2="7.5"/><line class="cls-1" x1="6.5" y1="9.5" x2="7.5" y2="9.5"/><line class="cls-1" x1="6.5" y1="11.5" x2="7.5" y2="11.5"/><line class="cls-1" x1="8.5" y1="13.5" x2="8.5" y2="14.5"/><line class="cls-1" x1="8.5" y1="13.5" x2="8.5" y2="14.5"/></svg>