<svg id="icons" xmlns="http://www.w3.org/2000/svg" viewBox="0 0 16 16"><defs><style>.cls-1{fill:none;stroke:#5a5b5e;stroke-linecap:square;stroke-linejoin:round;}</style></defs><title>unicons-things-16px-filmstrip</title><rect class="cls-1" x="1.5" y="2.5" width="13" height="12"/><line class="cls-1" x1="3.5" y1="6.5" x2="4.5" y2="6.5"/><line class="cls-1" x1="3.5" y1="8.5" x2="4.5" y2="8.5"/><line class="cls-1" x1="3.5" y1="10.5" x2="4.5" y2="10.5"/><line class="cls-1" x1="3.5" y1="12.5" x2="4.5" y2="12.5"/><line class="cls-1" x1="11.5" y1="6.5" x2="12.5" y2="6.5"/><line class="cls-1" x1="4.5" y1="4.5" x2="3.5" y2="4.5"/><line class="cls-1" x1="11.5" y1="4.5" x2="12.5" y2="4.5"/><line class="cls-1" x1="11.5" y1="8.5" x2="12.5" y2="8.5"/><line class="cls-1" x1="11.5" y1="10.5" x2="12.5" y2="10.5"/><line class="cls-1" x1="12.5" y1="12.5" x2="11.5" y2="12.5"/><polyline class="cls-1" points="6.5 13.5 6.5 9.5 9.5 9.5 9.5 13.5"/><polyline class="cls-1" points="9.5 3.5 9.5 7.5 6.5 7.5 6.5 3.5"/></svg>