<svg id="target" xmlns="http://www.w3.org/2000/svg" viewBox="0 0 48 48"><title>unicons-interface-48px-grid</title><path d="M33.5,35.5h-19c-1.1,0-2,.1-2-1v-20a2,2,0,0,1,2-2h19a2,2,0,0,1,2,2v20C35.5,35.6,34.6,35.5,33.5,35.5Z" fill="none" stroke="currentColor" stroke-linecap="square" stroke-linejoin="round"/><line x1="12.5" y1="6.5" x2="12.5" y2="0.5" fill="none" stroke="currentColor" stroke-linecap="square" stroke-linejoin="round"/><line x1="6.5" y1="12.5" x2="0.5" y2="12.5" fill="none" stroke="currentColor" stroke-linecap="square" stroke-linejoin="round"/><line x1="6.5" y1="35.5" x2="0.5" y2="35.5" fill="none" stroke="currentColor" stroke-linecap="square" stroke-linejoin="round"/><line x1="47.5" y1="12.5" x2="41.5" y2="12.5" fill="none" stroke="currentColor" stroke-linecap="square" stroke-linejoin="round"/><line x1="47.5" y1="35.5" x2="41.5" y2="35.5" fill="none" stroke="currentColor" stroke-linecap="square" stroke-linejoin="round"/><line x1="35.5" y1="6.5" x2="35.5" y2="0.5" fill="none" stroke="currentColor" stroke-linecap="square" stroke-linejoin="round"/><line x1="12.5" y1="47.5" x2="12.5" y2="41.5" fill="none" stroke="currentColor" stroke-linecap="square" stroke-linejoin="round"/><line x1="35.5" y1="47.5" x2="35.5" y2="41.5" fill="none" stroke="currentColor" stroke-linecap="square" stroke-linejoin="round"/></svg>