<svg id="target" xmlns="http://www.w3.org/2000/svg" viewBox="0 0 48 48"><title>unicons-docs-48px-folder-shared</title><line x1="14.5" y1="29.5" x2="14.5" y2="35.5" fill="none" stroke="currentColor" stroke-linejoin="round"/><circle cx="24.5" cy="24.5" r="2" fill="none" stroke="currentColor" stroke-linecap="square" stroke-linejoin="round"/><circle cx="14.5" cy="24.5" r="2" fill="none" stroke="currentColor" stroke-linecap="square" stroke-linejoin="round"/><circle cx="34.5" cy="24.5" r="2" fill="none" stroke="currentColor" stroke-linecap="square" stroke-linejoin="round"/><line x1="24.5" y1="29.5" x2="24.5" y2="35.5" fill="none" stroke="currentColor" stroke-linejoin="round"/><line x1="10.5" y1="29.5" x2="38.5" y2="29.5" fill="none" stroke="currentColor" stroke-linecap="square" stroke-linejoin="round"/><line x1="34.5" y1="29.5" x2="34.5" y2="35.5" fill="none" stroke="currentColor" stroke-linejoin="round"/><path d="M8.5,15.5h34a2,2,0,0,1,2,2v23a2,2,0,0,1-2,2H6.5a2,2,0,0,1-2-2V8.5a2,2,0,0,1,2-2H17.7a2,2,0,0,1,1.131.35l4.815,3.3a2,2,0,0,0,1.131.35H40.5a2,2,0,0,1,2,2h0" fill="none" stroke="currentColor" stroke-linecap="square" stroke-linejoin="round"/></svg>