<svg id="Layer_1" data-name="Layer 1" xmlns="http://www.w3.org/2000/svg" viewBox="0 0 24 24"><defs><style>.cls-1{fill:none;stroke:#5a5b5e;stroke-linecap:square;stroke-linejoin:round;}</style></defs><title>unicons-docs-24px-file-pdf-1</title><path class="cls-1" d="M19.91,6.91,16.09,3.09a2,2,0,0,0-1.41-.59H4.5a1,1,0,0,0-1,1v18a1,1,0,0,0,1,1h15a1,1,0,0,0,1-1V8.33A2,2,0,0,0,19.91,6.91Z"/><path class="cls-1" d="M11.8,16.15c-4.56.47-4.91,1.32-4.42,1.81s2.37-1.5,3.22-3.88,1.51-5.45.35-5.45.69,3.24,1.95,5.16,3.2,3.75,3.73,3.22S16.36,15.68,11.8,16.15Z"/></svg>