<svg id="target" xmlns="http://www.w3.org/2000/svg" viewBox="0 0 16 16"><title>unicons-interface-16px-wifi</title><path d="M8.608,13.385,8,13.993l-.608-.608a.853.853,0,0,1,1.215,0Z" fill="currentColor"/><path d="M11.038,10.955,9.823,12.17a2.559,2.559,0,0,0-3.646,0L4.962,10.955a4.265,4.265,0,0,1,6.076,0Z" fill="currentColor"/><path d="M13.483,8.51,12.26,9.732a6,6,0,0,0-8.521,0L2.517,8.51a7.744,7.744,0,0,1,10.965,0Z" fill="currentColor"/><path d="M15.92,6.073,14.7,7.295a9.458,9.458,0,0,0-13.4,0L.08,6.073a11.189,11.189,0,0,1,15.84,0Z" fill="currentColor"/></svg>