<svg id="target" xmlns="http://www.w3.org/2000/svg" viewBox="0 0 24 24"><title>unicons-people-24px-contact-card</title><path d="M3.5,1.5h17a0,0,0,0,1,0,0v19a0,0,0,0,1,0,0H3.5a1,1,0,0,1-1-1V2.5A1,1,0,0,1,3.5,1.5Z" fill="none" stroke="currentColor" stroke-linecap="square" stroke-linejoin="round"/><line x1="22.5" y1="2.5" x2="22.5" y2="4.5" fill="none" stroke="currentColor" stroke-linecap="square" stroke-linejoin="round"/><line x1="22.5" y1="6.5" x2="22.5" y2="8.5" fill="none" stroke="currentColor" stroke-linecap="square" stroke-linejoin="round"/><polyline points="22.5 10.5 22.5 22.5 3.5 22.5" fill="none" stroke="currentColor" stroke-linecap="square" stroke-linejoin="round"/><circle cx="11.5" cy="8.5" r="2" fill="none" stroke="currentColor" stroke-linecap="square" stroke-linejoin="round"/><path d="M13.73,11.5a2.965,2.965,0,0,1,.77,2v1h-6v-1a2.965,2.965,0,0,1,.77-2" fill="none" stroke="currentColor" stroke-linecap="square" stroke-linejoin="round"/></svg>