<svg id="Layer_1" data-name="Layer 1" xmlns="http://www.w3.org/2000/svg" viewBox="0 0 24 24"><defs><style>.cls-1,.cls-2{fill:none;stroke:#5a5b5e;stroke-linejoin:round;}.cls-2{stroke-linecap:square;}</style></defs><title>unicons-nature-24px-sun-cloud</title><path class="cls-1" d="M12.28,6.83A4.52,4.52,0,1,1,19,12.88"/><line class="cls-1" x1="15.5" y1="1" x2="15.5" y2="4"/><line class="cls-1" x1="9.41" y1="3.27" x2="11.54" y2="5.4"/><line class="cls-1" x1="24" y1="9.5" x2="22" y2="9.5"/><line class="cls-1" x1="22.19" y1="3.27" x2="20.06" y2="5.4"/><path class="cls-2" d="M1.08,18.79a3.45,3.45,0,0,1,3-4.18,6.13,6.13,0,0,1,12.19.18,3.44,3.44,0,0,1,2.26,4A3.54,3.54,0,0,1,15,21.5H4.6A3.54,3.54,0,0,1,1.08,18.79Z"/></svg>