<svg id="Layer_1" data-name="Layer 1" xmlns="http://www.w3.org/2000/svg" viewBox="0 0 48 48"><defs><style>.cls-1{fill:#5a5b5e;}</style></defs><title>unicons-interface-48px-wifi</title><path class="cls-1" d="M25.84,39.53,24,41.37l-1.84-1.84a2.58,2.58,0,0,1,3.68,0Z"/><path class="cls-1" d="M33.21,32.16l-3.68,3.68a7.75,7.75,0,0,0-11,0l-3.68-3.68a12.92,12.92,0,0,1,18.41,0Z"/><path class="cls-1" d="M40.61,24.75l-3.7,3.7a18.19,18.19,0,0,0-25.82,0l-3.7-3.7a23.47,23.47,0,0,1,33.23,0Z"/><path class="cls-1" d="M48,17.37l-3.68,3.7a28.66,28.66,0,0,0-40.61,0L0,17.37a33.91,33.91,0,0,1,48,0Z"/></svg>