<svg id="target" xmlns="http://www.w3.org/2000/svg" viewBox="0 0 24 24"><title>unicons-interface-24px-microphone-muted</title><line x1="2.5" y1="2.5" x2="21.5" y2="21.5" fill="none" stroke="currentColor" stroke-linecap="square" stroke-linejoin="round"/><path d="M5.5,12.5v2a4,4,0,0,0,4,4h4.83" fill="none" stroke="currentColor" stroke-linecap="square" stroke-linejoin="round"/><line x1="19.5" y1="12.5" x2="19.5" y2="15.5" fill="none" stroke="currentColor" stroke-linecap="square" stroke-linejoin="round"/><line x1="5.5" y1="22.5" x2="17.5" y2="22.5" fill="none" stroke="currentColor" stroke-linecap="square" stroke-linejoin="round"/><line x1="12.5" y1="18.5" x2="12.5" y2="22.5" fill="none" stroke="currentColor" stroke-linecap="square" stroke-linejoin="round"/><path d="M10.5,15.5a2,2,0,0,1-2-2v-1" fill="none" stroke="currentColor" stroke-linecap="square" stroke-linejoin="round"/><path d="M8.5,3.5a2,2,0,0,1,2-2h4a2,2,0,0,1,2,2v9" fill="none" stroke="currentColor" stroke-linecap="square" stroke-linejoin="round"/><line x1="10.5" y1="4.5" x2="14.5" y2="4.5" fill="none" stroke="currentColor" stroke-linecap="square" stroke-linejoin="round"/><line x1="12.5" y1="6.5" x2="14.5" y2="6.5" fill="none" stroke="currentColor" stroke-linecap="square" stroke-linejoin="round"/></svg>