<svg id="Layer_1" data-name="Layer 1" xmlns="http://www.w3.org/2000/svg" viewBox="0 0 48 48"><defs><style>.cls-1,.cls-2,.cls-3{fill:none;stroke:#5a5b5e;stroke-linecap:square;}.cls-1,.cls-2{stroke-miterlimit:10;}.cls-2{fill-rule:evenodd;}.cls-3{stroke-linejoin:round;}</style></defs><title>unicons-things-48px-watch</title><circle class="cls-1" cx="22.5" cy="24.5" r="16"/><path class="cls-2" d="M32.5,42.5v3a1,1,0,0,1-1,1h-18a1,1,0,0,1-1-1v-3"/><path class="cls-2" d="M12.5,6.5v-3a1,1,0,0,1,1-1h18a1,1,0,0,1,1,1v3"/><path class="cls-2" d="M38.5,20.5h2a2,2,0,0,1,2,2v2a2,2,0,0,1-2,2h-2"/><polyline class="cls-1" points="22.5 17.5 22.5 24.5 29.5 31.5"/><line class="cls-3" x1="22.5" y1="11.5" x2="22.5" y2="13.5"/><line class="cls-3" x1="22.5" y1="36.5" x2="22.5" y2="38.5"/><line class="cls-3" x1="36.5" y1="24.5" x2="34.5" y2="24.5"/><line class="cls-3" x1="10.5" y1="24.5" x2="8.5" y2="24.5"/></svg>