<svg id="target" xmlns="http://www.w3.org/2000/svg" viewBox="0 0 16 16"><title>unicons-transportation-16px-ship</title><polyline points="2.5 5.5 2.5 2.5 12.5 2.5 12.5 5.5" fill="none" stroke="currentColor" stroke-linecap="square" stroke-linejoin="round"/><polyline points="5.5 1.5 5.5 0.5 9.5 0.5 9.5 1.5" fill="none" stroke="currentColor" stroke-linecap="square" stroke-linejoin="round"/><line x1="7.5" y1="6.5" x2="7.5" y2="12.5" fill="none" stroke="currentColor" stroke-linecap="square" stroke-linejoin="round"/><polyline points="2.5 12.5 0.5 8.5 7.5 5.5 14.5 8.5 12.5 12.5" fill="none" stroke="currentColor" stroke-linecap="square" stroke-linejoin="round"/><polyline points="0.5 14.5 1.5 15.5 2.5 14.5 3.5 15.5 4.5 14.5 5.5 15.5 6.5 14.5 7.5 15.5 8.5 14.5 9.5 15.5 10.5 14.5 11.5 15.5 12.5 14.5 13.5 15.5 14.5 14.5" fill="none" stroke="currentColor" stroke-linejoin="round"/></svg>