<svg id="target" xmlns="http://www.w3.org/2000/svg" viewBox="0 0 48 48"><title>unicons-nature-48px-moon-night</title><line x1="20.5" y1="20.5" x2="44.5" y2="20.5" fill="none" stroke="currentColor" stroke-linecap="square" stroke-linejoin="round"/><line x1="14.5" y1="24.5" x2="38.5" y2="24.5" fill="none" stroke="currentColor" stroke-linecap="square" stroke-linejoin="round"/><line x1="20.5" y1="28.5" x2="44.5" y2="28.5" fill="none" stroke="currentColor" stroke-linecap="square" stroke-linejoin="round"/><path d="M39.03,32.5a19.493,19.493,0,0,1-34.05,0,16.153,16.153,0,0,1-.81-1.61A18.039,18.039,0,0,0,7.58,32.5a18.023,18.023,0,0,0,11.84,0" fill="none" stroke="currentColor" stroke-linecap="square" stroke-linejoin="round"/><path d="M31.47,16.5c.02-.33.03-.67.03-1A17.9,17.9,0,0,0,27.6,4.32,19.525,19.525,0,0,1,40.39,16.5" fill="none" stroke="currentColor" stroke-linecap="square" stroke-linejoin="round"/></svg>