<svg id="target" xmlns="http://www.w3.org/2000/svg" viewBox="0 0 24 24"><title>unicons-things-24px-filmstrip</title><rect x="2.5" y="1.5" width="19" height="20" fill="none" stroke="currentColor" stroke-linecap="square" stroke-linejoin="round"/><line x1="5.5" y1="5.5" x2="4.5" y2="5.5" fill="none" stroke="currentColor" stroke-linecap="square" stroke-linejoin="round"/><line x1="4.5" y1="7.5" x2="5.5" y2="7.5" fill="none" stroke="currentColor" stroke-linecap="square" stroke-linejoin="round"/><line x1="5.5" y1="9.5" x2="4.5" y2="9.5" fill="none" stroke="currentColor" stroke-linecap="square" stroke-linejoin="round"/><line x1="5.5" y1="13.5" x2="4.5" y2="13.5" fill="none" stroke="currentColor" stroke-linecap="square" stroke-linejoin="round"/><line x1="4.5" y1="11.5" x2="5.5" y2="11.5" fill="none" stroke="currentColor" stroke-linecap="square" stroke-linejoin="round"/><line x1="4.5" y1="15.5" x2="5.5" y2="15.5" fill="none" stroke="currentColor" stroke-linecap="square" stroke-linejoin="round"/><line x1="5.5" y1="17.5" x2="4.5" y2="17.5" fill="none" stroke="currentColor" stroke-linecap="square" stroke-linejoin="round"/><line x1="4.5" y1="19.5" x2="5.5" y2="19.5" fill="none" stroke="currentColor" stroke-linecap="square" stroke-linejoin="round"/><line x1="18.5" y1="7.5" x2="19.5" y2="7.5" fill="none" stroke="currentColor" stroke-linecap="square" stroke-linejoin="round"/><line x1="18.5" y1="5.5" x2="19.5" y2="5.5" fill="none" stroke="currentColor" stroke-linecap="square" stroke-linejoin="round"/><line x1="5.5" y1="3.5" x2="4.5" y2="3.5" fill="none" stroke="currentColor" stroke-linecap="square" stroke-linejoin="round"/><line x1="18.5" y1="3.5" x2="19.5" y2="3.5" fill="none" stroke="currentColor" stroke-linecap="square" stroke-linejoin="round"/><line x1="19.5" y1="9.5" x2="18.5" y2="9.5" fill="none" stroke="currentColor" stroke-linecap="square" stroke-linejoin="round"/><line x1="18.5" y1="11.5" x2="19.5" y2="11.5" fill="none" stroke="currentColor" stroke-linecap="square" stroke-linejoin="round"/><line x1="19.5" y1="13.5" x2="18.5" y2="13.5" fill="none" stroke="currentColor" stroke-linecap="square" stroke-linejoin="round"/><line x1="18.5" y1="15.5" x2="19.5" y2="15.5" fill="none" stroke="currentColor" stroke-linecap="square" stroke-linejoin="round"/><line x1="19.5" y1="17.5" x2="18.5" y2="17.5" fill="none" stroke="currentColor" stroke-linecap="square" stroke-linejoin="round"/><line x1="19.5" y1="19.5" x2="18.5" y2="19.5" fill="none" stroke="currentColor" stroke-linecap="square" stroke-linejoin="round"/><polyline points="7.5 19.5 7.5 12.5 16.5 12.5 16.5 19.5" fill="none" stroke="currentColor" stroke-linecap="square" stroke-linejoin="round"/><polyline points="16.5 3.5 16.5 10.5 7.5 10.5 7.5 3.5" fill="none" stroke="currentColor" stroke-linecap="square" stroke-linejoin="round"/></svg>