<svg id="target" xmlns="http://www.w3.org/2000/svg" viewBox="0 0 16 16"><title>unicons-things-16px-video-game</title><line x1="4.5" y1="5.5" x2="4.5" y2="9.5" fill="none" stroke="currentColor" stroke-linecap="square" stroke-linejoin="round"/><line x1="2.5" y1="7.5" x2="6.5" y2="7.5" fill="none" stroke="currentColor" stroke-linecap="square" stroke-linejoin="round"/><line x1="7.5" y1="0.5" x2="7.5" y2="3.5" fill="none" stroke="currentColor" stroke-linecap="square" stroke-miterlimit="10"/><circle cx="10" cy="6" r="0.5" fill="#112"/><path d="M10,5a1,1,0,1,0,1,1,1,1,0,0,0-1-1Z" fill="currentColor"/><circle cx="12" cy="8" r="0.5" fill="#112"/><path d="M12,7a1,1,0,1,0,1,1,1,1,0,0,0-1-1Z" fill="currentColor"/><path d="M14.5,7.5a4,4,0,0,1-6.64,3H7.14a4,4,0,1,1-2.64-7h6A4,4,0,0,1,14.5,7.5Z" fill="none" stroke="currentColor" stroke-linecap="square" stroke-linejoin="round"/></svg>