<svg id="target" xmlns="http://www.w3.org/2000/svg" viewBox="0 0 48 48"><title>unicons-people-48px-thumbs-up</title><path d="M40.5,28.5a3,3,0,0,1,3,3h0a3,3,0,0,1-3,3h-1" fill="none" stroke="currentColor" stroke-linecap="square" stroke-linejoin="round"/><path d="M41.5,22.5h1a3,3,0,0,1,3,3h0a3,3,0,0,1-3,3h-1" fill="none" stroke="currentColor" stroke-linecap="square" stroke-linejoin="round"/><path d="M17.5,21.5a7.968,7.968,0,0,0,3.2-3l4.8-8v-6a2.006,2.006,0,0,1,2-2h.04a6,6,0,0,1,5.78,7.64L31.5,16.5h11a3,3,0,0,1,0,6" fill="none" stroke="currentColor" stroke-linecap="square" stroke-linejoin="round"/><path d="M38.5,34.5a3,3,0,0,1,0,6H23.78a13.95,13.95,0,0,1-4.44-.72l-1.84-.6" fill="none" stroke="currentColor" stroke-linecap="square" stroke-linejoin="round"/><rect x="1.5" y="18.5" width="12" height="24" rx="2" ry="2" fill="none" stroke="currentColor" stroke-linecap="square" stroke-linejoin="round"/><circle cx="7.5" cy="36.5" r="2" fill="none" stroke="currentColor" stroke-linecap="square" stroke-linejoin="round"/></svg>