<svg xmlns="http://www.w3.org/2000/svg" viewBox="0 0 24 24"><defs><style>.cls-1{fill:#112;}.cls-2{fill:#5a5b5e;}.cls-3{fill:none;stroke:#5a5b5e;stroke-linecap:square;stroke-miterlimit:10;fill-rule:evenodd;}</style></defs><title>unicons-things-24px-wrench</title><g id="Layer_1" data-name="Layer 1"><path class="cls-1" d="M6.08,19a.5.5,0,1,1,.35-.15A.5.5,0,0,1,6.08,19Z"/><path class="cls-2" d="M6.08,18.55h0m0-1a1,1,0,1,0,.71.29,1,1,0,0,0-.71-.29Z"/></g><g id="Layer_11" data-name="Layer 11"><path class="cls-3" d="M21.28,12.54a6.5,6.5,0,0,1-7.07,1.41L8.18,21a3,3,0,0,1-4.41.18l-.35-.35a3,3,0,0,1,.18-4.41l7.07-6a6.5,6.5,0,0,1,6.68-8.94,1,1,0,0,1,.56,1.7L15.27,5.82a1,1,0,0,0,0,1.41l2.12,2.12a1,1,0,0,0,1.41,0l2.65-2.65a1,1,0,0,1,1.7.56A6.49,6.49,0,0,1,21.28,12.54Z"/></g></svg>