<svg id="target" xmlns="http://www.w3.org/2000/svg" viewBox="0 0 24 24"><title>unicons-things-24px-trashcan-filled</title><path d="M19.5,4.27c.64.22,1,.46,1,.73l-2,16c0,.83-2.69,1.5-6,1.5s-6-.67-6-1.5L4.5,5c0-.27.36-.51,1-.73" fill="none" stroke="currentColor" stroke-linecap="square" stroke-linejoin="round"/><path d="M20.5,5c0,.828-3.582,1.5-8,1.5s-8-.672-8-1.5" fill="none" stroke="currentColor" stroke-linejoin="round"/><polyline points="8 4 9 2 11.5 4 12.5 1.5 14 1.5 15 2.5 17 4" fill="none" stroke="currentColor" stroke-linecap="square" stroke-linejoin="round"/><polyline points="8 9.661 8.5 12.161 10.5 12.661" fill="none" stroke="currentColor" stroke-linecap="square" stroke-linejoin="round"/><polyline points="14.5 14.161 16.5 11.661 17 9.161" fill="none" stroke="currentColor" stroke-linecap="square" stroke-linejoin="round"/></svg>