<svg id="target" xmlns="http://www.w3.org/2000/svg" viewBox="0 0 24 24"><title>unicons-things-24px-power-cord</title><path d="M.5,2.5h4a0,0,0,0,1,0,0v3a1,1,0,0,1-1,1h-2a1,1,0,0,1-1-1v-3A0,0,0,0,1,.5,2.5Z" fill="none" stroke="currentColor" stroke-linecap="square" stroke-linejoin="round"/><line x1="1.5" y1="0.5" x2="1.5" y2="1.5" fill="none" stroke="currentColor" stroke-linecap="square" stroke-linejoin="round"/><line x1="3.5" y1="0.5" x2="3.5" y2="1.5" fill="none" stroke="currentColor" stroke-linecap="square" stroke-linejoin="round"/><path d="M2.5,8.5v12a2,2,0,0,0,2,2h0a2,2,0,0,0,2-2V10A1.5,1.5,0,0,1,8,8.5H8A1.5,1.5,0,0,1,9.5,10V21A1.5,1.5,0,0,0,11,22.5h0A1.5,1.5,0,0,0,12.5,21V10A1.5,1.5,0,0,1,14,8.5h0A1.5,1.5,0,0,1,15.5,10V21A1.5,1.5,0,0,0,17,22.5h0A1.5,1.5,0,0,0,18.5,21V10A1.5,1.5,0,0,1,20,8.5h0A1.5,1.5,0,0,1,21.5,10v7.5a1,1,0,0,0,1,1h1" fill="none" stroke="currentColor" stroke-linecap="square" stroke-linejoin="round"/></svg>