<svg id="target" xmlns="http://www.w3.org/2000/svg" viewBox="0 0 16 16"><title>unicons-things-16px-life-saver-float</title><path d="M2.18,5.6A6.288,6.288,0,0,1,5.6,2.18" fill="none" stroke="currentColor" stroke-linejoin="round"/><path d="M10.4,2.18A6.288,6.288,0,0,1,13.82,5.6" fill="none" stroke="currentColor" stroke-linejoin="round"/><path d="M2.18,10.4A6.288,6.288,0,0,0,5.6,13.82" fill="none" stroke="currentColor" stroke-linejoin="round"/><path d="M10.4,13.82a6.288,6.288,0,0,0,3.42-3.42" fill="none" stroke="currentColor" stroke-linejoin="round"/><circle cx="8" cy="8" r="3.5" fill="none" stroke="currentColor" stroke-linejoin="round"/><polyline points="6.5 4.5 6.5 1.5 9.5 1.5 9.5 4.5" fill="none" stroke="currentColor" stroke-linecap="square" stroke-linejoin="round"/><polyline points="9.5 11.5 9.5 14.5 6.5 14.5 6.5 11.5" fill="none" stroke="currentColor" stroke-linecap="square" stroke-linejoin="round"/><polyline points="11.5 6.5 14.5 6.5 14.5 9.5 11.5 9.5" fill="none" stroke="currentColor" stroke-linecap="square" stroke-linejoin="round"/><polyline points="4.5 9.5 1.5 9.5 1.5 6.5 4.5 6.5" fill="none" stroke="currentColor" stroke-linecap="square" stroke-linejoin="round"/></svg>