<svg id="target" xmlns="http://www.w3.org/2000/svg" viewBox="0 0 48 48"><title>unicons-interface-48px-microphone-muted</title><line x1="5" y1="5" x2="43" y2="43" fill="none" stroke="currentColor" stroke-linecap="square" stroke-linejoin="round"/><path d="M11.5,25.5v4a8,8,0,0,0,8,8h10" fill="none" stroke="currentColor" stroke-linecap="square" stroke-linejoin="round"/><line x1="39.5" y1="25.5" x2="39.5" y2="31.5" fill="none" stroke="currentColor" stroke-linecap="square" stroke-linejoin="round"/><line x1="11.5" y1="45.5" x2="35.5" y2="45.5" fill="none" stroke="currentColor" stroke-linecap="square" stroke-linejoin="round"/><line x1="25.5" y1="37.5" x2="25.5" y2="45.5" fill="none" stroke="currentColor" stroke-linecap="square" stroke-linejoin="round"/><path d="M21.5,31a4,4,0,0,1-4-4V25.5" fill="none" stroke="currentColor" stroke-linecap="square" stroke-linejoin="round"/><path d="M17.5,7.5a4,4,0,0,1,4-4h8a4,4,0,0,1,4,4v18" fill="none" stroke="currentColor" stroke-linecap="square" stroke-linejoin="round"/><line x1="22.5" y1="11.5" x2="29.5" y2="11.5" fill="none" stroke="currentColor" stroke-linecap="square" stroke-linejoin="round"/><line x1="21.5" y1="7.5" x2="29.5" y2="7.5" fill="none" stroke="currentColor" stroke-linecap="square" stroke-linejoin="round"/><line x1="24.5" y1="15.5" x2="29.5" y2="15.5" fill="none" stroke="currentColor" stroke-linecap="square" stroke-linejoin="round"/></svg>