<svg id="target" xmlns="http://www.w3.org/2000/svg" viewBox="0 0 24 24"><title>unicons-interface-24px-inbox</title><path d="M15.5,4.5h5.133a1,1,0,0,1,.99.859L22.5,11.5" fill="none" stroke="currentColor" stroke-linecap="square" stroke-linejoin="round"/><path d="M2.5,11.5l.877-6.141a1,1,0,0,1,.99-.859H9.5" fill="none" stroke="currentColor" stroke-linecap="square" stroke-linejoin="round"/><path d="M21.5,21.5H3.5a1,1,0,0,1-1-1v-7h6v3h8v-3h6v7A1,1,0,0,1,21.5,21.5Z" fill="none" stroke="currentColor" stroke-linecap="square" stroke-linejoin="round"/><line x1="12.5" y1="0.5" x2="12.5" y2="8.5" fill="none" stroke="currentColor" stroke-linecap="square" stroke-linejoin="round"/><path d="M15.364,8.481l-2.207,1.792a1,1,0,0,1-1.313,0L9.636,8.481" fill="none" stroke="currentColor" stroke-linecap="square" stroke-linejoin="round"/></svg>