<svg id="target" xmlns="http://www.w3.org/2000/svg" viewBox="0 0 24 24"><title>unicons-docs-24px-file-jpg</title><rect x="1.5" y="7.5" width="21" height="10" fill="none" stroke="currentColor" stroke-linecap="square" stroke-linejoin="round"/><path d="M3.5,5.5v-2a1,1,0,0,1,1-1H14.67a2,2,0,0,1,1.42.59L18.5,5.5" fill="none" stroke="currentColor" stroke-linecap="square" stroke-linejoin="round"/><path d="M20.5,19.5v2a1,1,0,0,1-1,1H4.5a1,1,0,0,1-1-1v-2" fill="none" stroke="currentColor" stroke-linecap="square" stroke-linejoin="round"/><path d="M7.41,13.38a1.66,1.66,0,0,1-.12.63,1.27,1.27,0,0,1-.36.49,1.78,1.78,0,0,1-.6.33,2.79,2.79,0,0,1-.87.12l-.66,0a4.73,4.73,0,0,1-.55-.07v-1h.12l.34.11a1.63,1.63,0,0,0,.45.05,1.27,1.27,0,0,0,.55-.1A.57.57,0,0,0,6,13.63a1,1,0,0,0,.09-.37c0-.13,0-.3,0-.51v-2H4.93V9.79H7.41Z" fill="currentColor"/><path d="M13.26,11.39a1.92,1.92,0,0,1-.12.67,1.49,1.49,0,0,1-.34.55,2.09,2.09,0,0,1-.68.45,2.46,2.46,0,0,1-.93.15h-.82v1.66H9.06V9.79h2.16a3.42,3.42,0,0,1,.82.08,1.93,1.93,0,0,1,.59.25,1.34,1.34,0,0,1,.47.52A1.63,1.63,0,0,1,13.26,11.39Zm-1.36,0a.6.6,0,0,0-.12-.37.63.63,0,0,0-.27-.22,1.23,1.23,0,0,0-.4-.09h-.75v1.52h.38a3.06,3.06,0,0,0,.55,0,.78.78,0,0,0,.36-.16.63.63,0,0,0,.18-.26A1.06,1.06,0,0,0,11.91,11.42Z" fill="currentColor"/><path d="M19.12,14.59a6.89,6.89,0,0,1-.91.27,4.94,4.94,0,0,1-1.12.13,2.82,2.82,0,0,1-2-.71,2.58,2.58,0,0,1-.73-2,2.55,2.55,0,0,1,.74-1.91,2.83,2.83,0,0,1,2.07-.73,4.88,4.88,0,0,1,1,.09,4.26,4.26,0,0,1,1,.36v1.19h-.15l-.28-.2-.36-.22a2.37,2.37,0,0,0-.46-.19,2,2,0,0,0-.56-.08,1.85,1.85,0,0,0-.63.1,1.4,1.4,0,0,0-.85.84,2,2,0,0,0-.12.73,1.75,1.75,0,0,0,.45,1.29,1.79,1.79,0,0,0,1.32.45h.33V13h-1v-1h2.35Z" fill="currentColor"/></svg>