<svg id="Layer_1" data-name="Layer 1" xmlns="http://www.w3.org/2000/svg" viewBox="0 0 48 48"><defs><style>.cls-1,.cls-2{fill:none;stroke:#5a5b5e;stroke-linejoin:round;}.cls-1{stroke-linecap:square;}</style></defs><title>unicons-docs-48px-file-spreadsheet</title><line class="cls-1" x1="37.5" y1="40.5" x2="11.5" y2="40.5"/><line class="cls-1" x1="37.5" y1="36.5" x2="11.5" y2="36.5"/><line class="cls-1" x1="37.5" y1="32.5" x2="11.5" y2="32.5"/><line class="cls-1" x1="37.5" y1="28.5" x2="11.5" y2="28.5"/><line class="cls-1" x1="37.5" y1="24.5" x2="11.5" y2="24.5"/><line class="cls-2" x1="15.5" y1="24.5" x2="15.5" y2="40.5"/><path class="cls-1" d="M40.33,13.33,32.67,5.67A4,4,0,0,0,29.84,4.5H9.5a2,2,0,0,0-2,2v36a2,2,0,0,0,2,2h30a2,2,0,0,0,2-2V16.16A4,4,0,0,0,40.33,13.33Z"/></svg>