<svg id="target" xmlns="http://www.w3.org/2000/svg" viewBox="0 0 48 48"><title>unicons-things-48px-stop-sign</title><path d="M33.613,1.5H15.387a1,1,0,0,0-.707.293L1.793,14.68a1,1,0,0,0-.293.707V33.613a1,1,0,0,0,.293.707L14.68,47.207a1,1,0,0,0,.707.293H33.613a1,1,0,0,0,.707-.293L47.207,34.32a1,1,0,0,0,.293-.707V15.387a1,1,0,0,0-.293-.707L34.32,1.793A1,1,0,0,0,33.613,1.5Z" fill="none" stroke="currentColor" stroke-linecap="square" stroke-linejoin="round"/><path d="M31.127,7.5H17.873a1,1,0,0,0-.707.293L7.793,17.165a1,1,0,0,0-.293.707V31.127a1,1,0,0,0,.293.707l9.373,9.373a1,1,0,0,0,.707.293H31.127a1,1,0,0,0,.707-.293l9.373-9.373a1,1,0,0,0,.293-.707V17.873a1,1,0,0,0-.293-.707L31.835,7.793A1,1,0,0,0,31.127,7.5Z" fill="none" stroke="currentColor" stroke-linecap="square" stroke-linejoin="round"/></svg>