<svg id="target" xmlns="http://www.w3.org/2000/svg" viewBox="0 0 16 16"><title>unicons-things-16px-outlet</title><rect x="3.5" y="1.5" width="10" height="14" fill="none" stroke="currentColor" stroke-linecap="square" stroke-linejoin="round"/><line x1="7.5" y1="5.5" x2="7.5" y2="6.5" fill="none" stroke="currentColor" stroke-linecap="square" stroke-linejoin="round"/><line x1="9.5" y1="5.5" x2="9.5" y2="6.5" fill="none" stroke="currentColor" stroke-linecap="square" stroke-linejoin="round"/><path d="M10.3,8.5H6.7l-.534-.8a3,3,0,0,1-.059-3.236L6.7,3.5h3.6l.593.963A3,3,0,0,1,10.834,7.7Z" fill="none" stroke="currentColor" stroke-linecap="square" stroke-linejoin="round"/><line x1="7.5" y1="10.5" x2="7.5" y2="11.5" fill="none" stroke="currentColor" stroke-linecap="square" stroke-linejoin="round"/><line x1="9.5" y1="10.5" x2="9.5" y2="11.5" fill="none" stroke="currentColor" stroke-linecap="square" stroke-linejoin="round"/><path d="M10.3,13.5H6.7l-.593-.963A3,3,0,0,1,6.166,9.3L6.7,8.5h3.6l.534.8a3,3,0,0,1,.059,3.236Z" fill="none" stroke="currentColor" stroke-linecap="square" stroke-linejoin="round"/></svg>