<svg id="icons" xmlns="http://www.w3.org/2000/svg" viewBox="0 0 16 16"><defs><style>.cls-1{fill:none;stroke:#5a5b5e;stroke-linecap:square;stroke-linejoin:round;}</style></defs><title>unicons-things-16px-newspaper</title><path class="cls-1" d="M14.5,3.5v10a1,1,0,0,1-1,1h0a1,1,0,0,1-1-1V2.5a1,1,0,0,0-1-1H1.5a1,1,0,0,0-1,1v11a1,1,0,0,0,1,1h9"/><rect class="cls-1" x="2.5" y="3.5" width="8" height="3"/><line class="cls-1" x1="2.5" y1="10.5" x2="6.5" y2="10.5"/><line class="cls-1" x1="2.5" y1="12.5" x2="6.5" y2="12.5"/><rect class="cls-1" x="8.5" y="10.5" width="2" height="2"/><line class="cls-1" x1="2.5" y1="8.5" x2="10.5" y2="8.5"/></svg>