<svg id="target" xmlns="http://www.w3.org/2000/svg" viewBox="0 0 24 24"><title>unicons-interface-24px-visibility-off</title><path d="M9.746,4.794A8.99,8.99,0,0,1,12,4.5c4.8,0,8.781,4.088,10.536,6.228a2,2,0,0,1,0,2.544A23.874,23.874,0,0,1,20.457,15.5" fill="none" stroke="currentColor" stroke-linecap="square" stroke-linejoin="round"/><path d="M14.255,19.206A8.991,8.991,0,0,1,12,19.5c-4.8,0-8.781-4.088-10.536-6.228a2,2,0,0,1,0-2.544A23.874,23.874,0,0,1,3.543,8.5" fill="none" stroke="currentColor" stroke-linecap="square" stroke-linejoin="round"/><circle cx="12" cy="12" r="3.5" fill="none" stroke="currentColor" stroke-linecap="square" stroke-linejoin="round"/><line x1="2.5" y1="2.5" x2="21.5" y2="21.5" fill="none" stroke="currentColor" stroke-linecap="square" stroke-linejoin="round"/></svg>