<svg id="target" xmlns="http://www.w3.org/2000/svg" viewBox="0 0 24 24"><title>unicons-interface-24px-wifi</title><path d="M12.8,18.978l-.8.8-.8-.8a1.125,1.125,0,0,1,1.6,0Z" fill="currentColor"/><path d="M16.007,15.773l-1.6,1.6a3.375,3.375,0,0,0-4.809,0l-1.6-1.6a5.625,5.625,0,0,1,8.014,0Z" fill="currentColor"/><path d="M19.232,12.548l-1.612,1.612a7.92,7.92,0,0,0-11.239,0L4.768,12.548a10.214,10.214,0,0,1,14.463,0Z" fill="currentColor"/><path d="M22.447,9.333l-1.6,1.612a12.475,12.475,0,0,0-17.678,0L1.553,9.333a14.759,14.759,0,0,1,20.893,0Z" fill="currentColor"/></svg>