<svg id="Layer_1" data-name="Layer 1" xmlns="http://www.w3.org/2000/svg" viewBox="0 0 16 16"><defs><style>.cls-1{fill:none;stroke:#5a5b5e;stroke-linecap:square;stroke-linejoin:round;}</style></defs><title>unicons-docs-16px-check-in-doc-1</title><line class="cls-1" x1="8.5" y1="7.5" x2="8.5" y2="3.5"/><polyline class="cls-1" points="15.5 13.5 15.5 15.5 1.5 15.5 1.5 13.5"/><polyline class="cls-1" points="10.48 7.33 8.5 9.31 6.52 7.33"/><path class="cls-1" d="M13.19,3.45,10.35.77A1,1,0,0,0,9.66.5H4.5a1,1,0,0,0-1,1v10a1,1,0,0,0,1,1h8a1,1,0,0,0,1-1V4.18A1,1,0,0,0,13.19,3.45Z"/></svg>