<svg id="target" xmlns="http://www.w3.org/2000/svg" viewBox="0 0 24 24"><title>unicons-docs-24px-file-pdf-2</title><rect x="1.5" y="7.5" width="21" height="10" fill="none" stroke="currentColor" stroke-linecap="square" stroke-linejoin="round"/><path d="M3.5,5.5v-2a1,1,0,0,1,1-1H14.67a2,2,0,0,1,1.42.59L18.5,5.5" fill="none" stroke="currentColor" stroke-linecap="square" stroke-linejoin="round"/><path d="M20.5,19.5v2a1,1,0,0,1-1,1H4.5a1,1,0,0,1-1-1v-2" fill="none" stroke="currentColor" stroke-linecap="square" stroke-linejoin="round"/><path d="M8.56,11.39a1.94,1.94,0,0,1-.12.67,1.49,1.49,0,0,1-.34.55,2.08,2.08,0,0,1-.68.45,2.46,2.46,0,0,1-.93.15H5.67v1.66H4.36V9.79H6.52a3.41,3.41,0,0,1,.82.08,1.93,1.93,0,0,1,.59.25,1.35,1.35,0,0,1,.47.52A1.63,1.63,0,0,1,8.56,11.39Zm-1.36,0a.6.6,0,0,0-.12-.37.62.62,0,0,0-.27-.22,1.22,1.22,0,0,0-.4-.09H5.67v1.52H6a3.05,3.05,0,0,0,.55,0A.79.79,0,0,0,7,12.05a.62.62,0,0,0,.18-.26A1.06,1.06,0,0,0,7.2,11.42Z" fill="currentColor"/><path d="M14.72,12.34a2.5,2.5,0,0,1-.32,1.27,2.37,2.37,0,0,1-.82.86,2.52,2.52,0,0,1-.82.31,5.45,5.45,0,0,1-1.05.09H9.91V9.79h1.85a4.83,4.83,0,0,1,1.07.1,2.51,2.51,0,0,1,.76.3,2.31,2.31,0,0,1,.83.87A2.61,2.61,0,0,1,14.72,12.34Zm-1.36,0a1.88,1.88,0,0,0-.18-.86,1.29,1.29,0,0,0-.58-.56,1.53,1.53,0,0,0-.41-.14,4.17,4.17,0,0,0-.63,0h-.33v3.19h.33a4,4,0,0,0,.69,0,1.5,1.5,0,0,0,.43-.16,1.27,1.27,0,0,0,.53-.55A1.92,1.92,0,0,0,13.36,12.33Z" fill="currentColor"/><path d="M19.79,10.77H17.44v.95h2.17v1H17.44v2.17h-1.3V9.79h3.65Z" fill="currentColor"/></svg>