<svg id="Layer_1" data-name="Layer 1" xmlns="http://www.w3.org/2000/svg" viewBox="0 0 48 48"><defs><style>.cls-1{fill:none;stroke:#5a5b5e;stroke-linecap:square;stroke-linejoin:round;}</style></defs><title>unicons-things-48px-building</title><rect class="cls-1" x="11.5" y="2.5" width="26" height="44"/><polyline class="cls-1" points="8.5 46.5 5.5 46.5 5.5 30.5 8.5 30.5"/><polyline class="cls-1" points="40.5 30.5 43.5 30.5 43.5 46.5 40.5 46.5"/><polyline class="cls-1" points="21.5 46.5 21.5 38.5 27.5 38.5 27.5 46.5"/><rect class="cls-1" x="15.5" y="6.5" width="7" height="4"/><rect class="cls-1" x="15.5" y="14.5" width="7" height="4"/><rect class="cls-1" x="15.5" y="22.5" width="7" height="4"/><rect class="cls-1" x="15.5" y="30.5" width="7" height="4"/><rect class="cls-1" x="26.5" y="6.5" width="7" height="4"/><rect class="cls-1" x="26.5" y="14.5" width="7" height="4"/><rect class="cls-1" x="26.5" y="22.5" width="7" height="4"/><rect class="cls-1" x="26.5" y="30.5" width="7" height="4"/></svg>