<svg id="target" xmlns="http://www.w3.org/2000/svg" viewBox="0 0 16 16"><title>unicons-docs-16px-file-pptx</title><path d="M4.789,7.142a1.944,1.944,0,0,1-.119.668,1.5,1.5,0,0,1-.342.548,2.09,2.09,0,0,1-.68.455,2.449,2.449,0,0,1-.931.154H1.9v1.658H.588V5.536h2.16a3.409,3.409,0,0,1,.818.083,1.918,1.918,0,0,1,.59.251,1.355,1.355,0,0,1,.471.516A1.638,1.638,0,0,1,4.789,7.142Zm-1.357.029a.6.6,0,0,0-.115-.37.631.631,0,0,0-.271-.216,1.226,1.226,0,0,0-.4-.091c-.131-.005-.3-.008-.52-.008H1.9V8.007h.377a3.048,3.048,0,0,0,.551-.041A.785.785,0,0,0,3.193,7.8a.626.626,0,0,0,.182-.261A1.033,1.033,0,0,0,3.432,7.171Z" fill="currentColor"/><path d="M10.34,7.142a1.945,1.945,0,0,1-.12.668,1.486,1.486,0,0,1-.342.548,2.076,2.076,0,0,1-.679.455,2.458,2.458,0,0,1-.932.154H7.451v1.658H6.139V5.536H8.3a3.415,3.415,0,0,1,.818.083,1.928,1.928,0,0,1,.59.251,1.352,1.352,0,0,1,.47.516A1.626,1.626,0,0,1,10.34,7.142Zm-1.357.029a.6.6,0,0,0-.116-.37A.62.62,0,0,0,8.6,6.585a1.221,1.221,0,0,0-.4-.091c-.13-.005-.3-.008-.52-.008H7.451V8.007h.376a3.053,3.053,0,0,0,.552-.041A.786.786,0,0,0,8.743,7.8a.62.62,0,0,0,.183-.261A1.056,1.056,0,0,0,8.982,7.171Z" fill="currentColor"/><path d="M15.671,6.52H14.082v4.1H12.77V6.52H11.18V5.536h4.491Z" fill="currentColor"/><path d="M2.5,3.5v-1a1,1,0,0,1,1-1h6.506a1,1,0,0,1,.707.293L12.06,3.14" fill="none" stroke="currentColor" stroke-linecap="square" stroke-linejoin="round"/><path d="M13.5,12.5v1a1,1,0,0,1-1,1h-9a1,1,0,0,1-1-1v-1" fill="none" stroke="currentColor" stroke-linecap="square" stroke-linejoin="round"/></svg>