<svg id="target" xmlns="http://www.w3.org/2000/svg" viewBox="0 0 16 16"><title>unicons-docs-16px-folder-open</title><path d="M1.5,9.5v-7a1,1,0,0,1,1-1H5.883a1,1,0,0,1,.46.112l1.5.775A1,1,0,0,0,8.3,2.5h4.2a1,1,0,0,1,1,1v1" fill="none" stroke="currentColor" stroke-linecap="square" stroke-linejoin="round"/><path d="M12.317,13.5H2.356a.647.647,0,0,1-.614-.854L3.883,6.935A.67.67,0,0,1,4.511,6.5h9.9a.67.67,0,0,1,.628.9l-2.107,5.654A.647.647,0,0,1,12.317,13.5Z" fill="none" stroke="currentColor" stroke-linecap="square" stroke-linejoin="round"/></svg>