<svg id="target" xmlns="http://www.w3.org/2000/svg" viewBox="0 0 48 48"><title>unicons-things-48px-database</title><path d="M40.5,20.5c0,2.209-7.163,4-16,4s-16-1.791-16-4" fill="none" stroke="currentColor" stroke-linecap="square" stroke-linejoin="round"/><path d="M40.5,30.5c0,2.209-7.163,4-16,4s-16-1.791-16-4" fill="none" stroke="currentColor" stroke-linecap="square" stroke-linejoin="round"/><line x1="18.5" y1="24.5" x2="18.5" y2="28.5" fill="none" stroke="currentColor" stroke-linecap="square" stroke-linejoin="round"/><line x1="18.5" y1="14.5" x2="18.5" y2="18.5" fill="none" stroke="currentColor" stroke-linecap="square" stroke-linejoin="round"/><line x1="18.5" y1="34.5" x2="18.5" y2="38.5" fill="none" stroke="currentColor" stroke-linecap="square" stroke-linejoin="round"/><path d="M40.5,40.5c0,2.209-7.163,4-16,4s-16-1.791-16-4v-30c0-2.209,7.163-4,16-4s16,1.791,16,4Z" fill="none" stroke="currentColor" stroke-linecap="square" stroke-linejoin="round"/><path d="M40.5,10.5c0,2.209-7.163,4-16,4s-16-1.791-16-4" fill="none" stroke="currentColor" stroke-linecap="square" stroke-linejoin="round"/></svg>