<svg id="Layer_1" data-name="Layer 1" xmlns="http://www.w3.org/2000/svg" viewBox="0 0 16 16"><defs><style>.cls-1{fill:none;stroke:#5a5b5e;stroke-linecap:square;stroke-linejoin:round;}</style></defs><title>unicons-transportation-16px-car</title><path class="cls-1" d="M4.5,13.5v.34a.63.63,0,0,1-.6.66H2.1a.63.63,0,0,1-.6-.66V13.5"/><path class="cls-1" d="M14.5,13.5v.34a.63.63,0,0,1-.6.66H12.1a.63.63,0,0,1-.6-.66V13.5"/><circle class="cls-1" cx="3" cy="10" r="0.5"/><circle class="cls-1" cx="13" cy="10" r="0.5"/><line class="cls-1" x1="5.5" y1="9.5" x2="10.5" y2="9.5"/><path class="cls-1" d="M15.5,8.5v4H.5v-4a1,1,0,0,1,1-1h.32a1,1,0,0,0,.93-.63l1.5-3.74a1,1,0,0,1,.93-.63h5.65a1,1,0,0,1,.93.63l1.5,3.74a1,1,0,0,0,.93.63h.32A1,1,0,0,1,15.5,8.5Z"/><polygon class="cls-1" points="11.5 7.5 4.5 7.5 5.5 4.5 10.5 4.5 11.5 7.5"/></svg>