 <svg id="target" xmlns="http://www.w3.org/2000/svg" viewBox="0 0 16 16"><title>unicons-basic-16px-arrow-multi-direction</title><line x1="8.5" y1="1.5" x2="8.5" y2="5.5" fill="none" stroke="currentColor" stroke-linejoin="round"/><line x1="8.5" y1="15.5" x2="8.5" y2="11.5" fill="none" stroke="currentColor" stroke-linejoin="round"/><line x1="15.5" y1="8.5" x2="11.5" y2="8.5" fill="none" stroke="currentColor" stroke-linejoin="round"/><line x1="1.5" y1="8.5" x2="5.5" y2="8.5" fill="none" stroke="currentColor" stroke-linejoin="round"/><path d="M6.52,3.22,8.033,1.707a.66.66,0,0,1,.933,0L10.48,3.22" fill="none" stroke="currentColor" stroke-linecap="square" stroke-linejoin="round"/><path d="M13.78,6.52l1.513,1.513a.66.66,0,0,1,0,.933L13.78,10.48" fill="none" stroke="currentColor" stroke-linecap="square" stroke-linejoin="round"/><path d="M3.22,10.48,1.707,8.967a.66.66,0,0,1,0-.933L3.22,6.52" fill="none" stroke="currentColor" stroke-linecap="square" stroke-linejoin="round"/><path d="M10.48,13.78,8.967,15.293a.66.66,0,0,1-.933,0L6.52,13.78" fill="none" stroke="currentColor" stroke-linecap="square" stroke-linejoin="round"/></svg>