<svg id="Layer_1" data-name="Layer 1" xmlns="http://www.w3.org/2000/svg" viewBox="0 0 24 24"><defs><style>.cls-1{fill:none;stroke:#5a5b5e;stroke-linecap:square;stroke-linejoin:round;}</style></defs><title>unicons-things-24px-building</title><rect class="cls-1" x="5.5" y="1.5" width="13" height="22"/><polyline class="cls-1" points="3.5 23.5 2.5 23.5 2.5 15.5 3.5 15.5"/><polyline class="cls-1" points="20.5 15.5 21.5 15.5 21.5 23.5 20.5 23.5"/><line class="cls-1" x1="13.5" y1="4.5" x2="15.5" y2="4.5"/><line class="cls-1" x1="13.5" y1="7.5" x2="15.5" y2="7.5"/><line class="cls-1" x1="13.5" y1="10.5" x2="15.5" y2="10.5"/><line class="cls-1" x1="13.5" y1="13.5" x2="15.5" y2="13.5"/><line class="cls-1" x1="13.5" y1="16.5" x2="15.5" y2="16.5"/><line class="cls-1" x1="8.5" y1="4.5" x2="10.5" y2="4.5"/><line class="cls-1" x1="8.5" y1="7.5" x2="10.5" y2="7.5"/><line class="cls-1" x1="8.5" y1="10.5" x2="10.5" y2="10.5"/><line class="cls-1" x1="8.5" y1="13.5" x2="10.5" y2="13.5"/><line class="cls-1" x1="8.5" y1="16.5" x2="10.5" y2="16.5"/><line class="cls-1" x1="11.5" y1="20.5" x2="11.5" y2="22.5"/><line class="cls-1" x1="12.5" y1="20.5" x2="12.5" y2="22.5"/></svg>