<svg id="Layer_1" data-name="Layer 1" xmlns="http://www.w3.org/2000/svg" viewBox="0 0 48 48"><defs><style>.cls-1{fill:none;stroke:#5a5b5e;stroke-linecap:square;stroke-linejoin:round;}</style></defs><title>unicons-things-48px-oil-bottle</title><path class="cls-1" d="M28.5,11.5,12.67,21.23a8,8,0,0,0-4.17,7V45.5a2,2,0,0,0,2,2h26a2,2,0,0,0,2-2v-34"/><path class="cls-1" d="M28.5,7.5v-4a2,2,0,0,1,2-2h8a2,2,0,0,1,2,2v4Z"/><path class="cls-1" d="M28.5,33.1a4.5,4.5,0,0,1-9,0C19.5,30.61,24,25,24,25S28.5,30.61,28.5,33.1Z"/></svg>