<svg id="Layer_1" data-name="Layer 1" xmlns="http://www.w3.org/2000/svg" viewBox="0 0 24 24"><defs><style>.cls-1{fill:none;stroke:#5a5b5e;stroke-linecap:square;stroke-linejoin:round;}</style></defs><title>unicons-docs-24px-check-in-doc-1</title><line class="cls-1" x1="12.5" y1="12.5" x2="12.5" y2="5.5"/><polyline class="cls-1" points="23.5 20.5 23.5 23.5 1.5 23.5 1.5 20.5"/><path class="cls-1" d="M15.5,12.5l-2.29,2.29a1,1,0,0,1-1.41,0L9.5,12.5"/><path class="cls-1" d="M19.91,4.91,16.09,1.09A2,2,0,0,0,14.67.5H5.5a1,1,0,0,0-1,1v18a1,1,0,0,0,1,1h14a1,1,0,0,0,1-1V6.33A2,2,0,0,0,19.91,4.91Z"/></svg>