<svg id="target" xmlns="http://www.w3.org/2000/svg" viewBox="0 0 16 16"><title>unicons-docs-16px-file-pdf-1</title><path d="M13.209,4.457,10.558,1.794A1,1,0,0,0,9.849,1.5H3.5a1,1,0,0,0-1,1v11a1,1,0,0,0,1,1h9a1,1,0,0,0,1-1V5.163A1,1,0,0,0,13.209,4.457Z" fill="none" stroke="currentColor" stroke-linecap="square" stroke-linejoin="round"/><path d="M7.87,9.908c-3.01.309-3.241.872-2.92,1.193s1.564-.987,2.124-2.562.994-3.595.232-3.595S7.764,7.082,8.592,8.35s2.109,2.478,2.464,2.124S10.881,9.6,7.87,9.908Z" fill="none" stroke="currentColor" stroke-linecap="square" stroke-linejoin="round"/></svg>