<svg id="Layer_1" data-name="Layer 1" xmlns="http://www.w3.org/2000/svg" viewBox="0 0 16 16"><defs><style>.cls-1{fill:none;stroke:#5a5b5e;stroke-linecap:square;stroke-linejoin:round;}</style></defs><title>unicons-transportation-16px-truck</title><polygon class="cls-1" points="13.5 9.35 13.5 13.5 2.5 13.5 2.5 9.35 2.5 3.5 13.5 3.5 13.5 9.35"/><circle class="cls-1" cx="5" cy="11" r="0.5"/><circle class="cls-1" cx="11" cy="11" r="0.5"/><rect class="cls-1" x="4.5" y="5.5" width="7" height="2"/><polyline class="cls-1" points="0.5 12.5 0.5 0.5 15.5 0.5 15.5 12.5"/><path class="cls-1" d="M2.5,13.5h3a0,0,0,0,1,0,0v1a1,1,0,0,1-1,1h-1a1,1,0,0,1-1-1v-1A0,0,0,0,1,2.5,13.5Z"/><path class="cls-1" d="M10.5,13.5h3a0,0,0,0,1,0,0v1a1,1,0,0,1-1,1h-1a1,1,0,0,1-1-1v-1A0,0,0,0,1,10.5,13.5Z"/></svg>