<svg id="icons" xmlns="http://www.w3.org/2000/svg" viewBox="0 0 16 16"><defs><style>.cls-1,.cls-2{fill:none;stroke:#5a5b5e;stroke-linejoin:round;}.cls-2{stroke-linecap:square;}</style></defs><title>unicons-things-16px-life-saver-float</title><path class="cls-1" d="M2.18,5.6A6.29,6.29,0,0,1,5.6,2.18"/><path class="cls-1" d="M10.4,2.18A6.29,6.29,0,0,1,13.82,5.6"/><path class="cls-1" d="M2.18,10.4A6.29,6.29,0,0,0,5.6,13.82"/><path class="cls-1" d="M10.4,13.82a6.29,6.29,0,0,0,3.42-3.42"/><circle class="cls-1" cx="8" cy="8" r="3.5"/><polyline class="cls-2" points="6.5 4.5 6.5 1.5 9.5 1.5 9.5 4.5"/><polyline class="cls-2" points="9.5 11.5 9.5 14.5 6.5 14.5 6.5 11.5"/><polyline class="cls-2" points="11.5 6.5 14.5 6.5 14.5 9.5 11.5 9.5"/><polyline class="cls-2" points="4.5 9.5 1.5 9.5 1.5 6.5 4.5 6.5"/></svg>