<svg id="target" xmlns="http://www.w3.org/2000/svg" viewBox="0 0 24 24"><title>unicons-docs-24px-file-png</title><rect x="1.5" y="7.5" width="21" height="10" fill="none" stroke="currentColor" stroke-linecap="square" stroke-linejoin="round"/><path d="M3.5,5.5v-2a1,1,0,0,1,1-1H14.67a2,2,0,0,1,1.42.59L18.5,5.5" fill="none" stroke="currentColor" stroke-linecap="square" stroke-linejoin="round"/><path d="M20.5,19.5v2a1,1,0,0,1-1,1H4.5a1,1,0,0,1-1-1v-2" fill="none" stroke="currentColor" stroke-linecap="square" stroke-linejoin="round"/><path d="M7.94,11.39a1.92,1.92,0,0,1-.12.67,1.49,1.49,0,0,1-.34.55,2.09,2.09,0,0,1-.68.45,2.46,2.46,0,0,1-.93.15H5v1.66H3.74V9.79H5.9a3.42,3.42,0,0,1,.82.08,1.93,1.93,0,0,1,.59.25,1.34,1.34,0,0,1,.47.52A1.63,1.63,0,0,1,7.94,11.39Zm-1.36,0a.6.6,0,0,0-.12-.37.63.63,0,0,0-.27-.22,1.23,1.23,0,0,0-.4-.09H5v1.52h.38a3.06,3.06,0,0,0,.55,0,.78.78,0,0,0,.36-.16.63.63,0,0,0,.18-.26A1.06,1.06,0,0,0,6.58,11.42Z" fill="currentColor"/><path d="M13.92,14.88H12.65l-2.16-3.49v3.49H9.29V9.79h1.57l1.86,2.92V9.79h1.2Z" fill="currentColor"/><path d="M20.14,14.59a6.92,6.92,0,0,1-.91.27,5,5,0,0,1-1.12.13,2.81,2.81,0,0,1-2-.71,2.58,2.58,0,0,1-.74-2,2.56,2.56,0,0,1,.74-1.91,2.83,2.83,0,0,1,2.07-.73,4.87,4.87,0,0,1,1,.09,4.26,4.26,0,0,1,1,.36v1.19H20l-.28-.2a3.41,3.41,0,0,0-.36-.22,2.32,2.32,0,0,0-.46-.19,2,2,0,0,0-.56-.08,1.84,1.84,0,0,0-.63.1,1.47,1.47,0,0,0-.51.31,1.41,1.41,0,0,0-.34.52,2,2,0,0,0-.12.73,1.75,1.75,0,0,0,.45,1.29,1.79,1.79,0,0,0,1.32.45h.33V13h-1v-1h2.35Z" fill="currentColor"/></svg>