<svg xmlns="http://www.w3.org/2000/svg" viewBox="0 0 24 24"><defs><style>.cls-1,.cls-4,.cls-5{fill:none;stroke:#5a5b5e;stroke-linecap:square;}.cls-1{stroke-linejoin:round;}.cls-2{fill:#112;}.cls-3{fill:#5a5b5e;}.cls-4,.cls-5{stroke-miterlimit:10;}.cls-5{fill-rule:evenodd;}</style></defs><title>unicons-things-24px-video-game</title><g id="Layer_1" data-name="Layer 1"><line class="cls-1" x1="6.5" y1="11.5" x2="6.5" y2="15.5"/><line class="cls-1" x1="4.5" y1="13.5" x2="8.5" y2="13.5"/><circle class="cls-2" cx="17" cy="12" r="0.5"/><path class="cls-3" d="M17,11a1,1,0,1,0,1,1,1,1,0,0,0-1-1Z"/><circle class="cls-2" cx="20" cy="14" r="0.5"/><path class="cls-3" d="M20,13a1,1,0,1,0,1,1,1,1,0,0,0-1-1Z"/></g><g id="Layer_11" data-name="Layer 11"><line class="cls-4" x1="12.5" y1="1.5" x2="12.5" y2="6.5"/><path class="cls-5" d="M23.5,13.5a5,5,0,0,1-9,3h-4a5,5,0,1,1-4-8h12A5,5,0,0,1,23.5,13.5Z"/></g></svg>