<svg id="Layer_1" data-name="Layer 1" xmlns="http://www.w3.org/2000/svg" viewBox="0 0 24 24"><defs><style>.cls-1{fill:none;stroke:#5a5b5e;stroke-linecap:square;stroke-linejoin:round;}</style></defs><title>unicons-people-24px-thumbs-up</title><path class="cls-1" d="M20,13.5A1.5,1.5,0,0,1,21.5,15h0A1.5,1.5,0,0,1,20,16.5h-.5"/><path class="cls-1" d="M20.5,10.5H21A1.5,1.5,0,0,1,22.5,12h0A1.5,1.5,0,0,1,21,13.5h-.5"/><path class="cls-1" d="M8.5,10a4,4,0,0,0,1.6-1.5l2.4-4v-3a1,1,0,0,1,1-1h0a3,3,0,0,1,2.89,3.82L15.5,7.5H21a1.5,1.5,0,0,1,0,3"/><path class="cls-1" d="M19,16.5a1.5,1.5,0,0,1,0,3H11.64a7,7,0,0,1-2.22-.36l-.92-.3"/><rect class="cls-1" x="0.5" y="8.5" width="6" height="12" rx="1" ry="1"/></svg>