<svg id="target" xmlns="http://www.w3.org/2000/svg" viewBox="0 0 48 48"><title>unicons-docs-48px-file-png</title><rect x="3.5" y="16.5" width="42" height="17" rx="2" ry="2" fill="none" stroke="currentColor" stroke-linecap="square" stroke-linejoin="round"/><path d="M7.5,12.5v-6a2.006,2.006,0,0,1,2-2H29.84a4.012,4.012,0,0,1,2.84,1.18L39.5,12.5" fill="none" stroke="currentColor" stroke-linecap="square" stroke-linejoin="round"/><path d="M41.5,37.5v5a2.006,2.006,0,0,1-2,2H9.5a2.006,2.006,0,0,1-2-2v-5" fill="none" stroke="currentColor" stroke-linecap="square" stroke-linejoin="round"/><path d="M11.877,21.6a.733.733,0,0,1,.744-.744h2.566c1.967,0,3.19,1.115,3.19,2.807v.024c0,1.883-1.511,2.866-3.358,2.866H13.353v2.026a.738.738,0,0,1-1.476,0Zm3.19,3.622c1.116,0,1.812-.624,1.812-1.5V23.7c0-.983-.708-1.5-1.812-1.5H13.353v3.022Z" fill="currentColor"/><path d="M19.894,21.55a.739.739,0,0,1,.743-.743h.156a.929.929,0,0,1,.768.432l4.2,5.434V21.515a.726.726,0,0,1,1.451,0v7.052a.716.716,0,0,1-.719.731H26.43a.929.929,0,0,1-.768-.443l-4.317-5.589v5.325a.726.726,0,0,1-1.451,0Z" fill="currentColor"/><path d="M29,25.076v-.023a4.277,4.277,0,0,1,4.329-4.342,4.555,4.555,0,0,1,2.866.852.746.746,0,0,1,.3.6.735.735,0,0,1-.732.731.772.772,0,0,1-.455-.168,3.194,3.194,0,0,0-2.039-.659,2.839,2.839,0,0,0-2.723,2.962v.024a2.8,2.8,0,0,0,2.854,3,3.424,3.424,0,0,0,2.026-.636V25.844H33.775a.645.645,0,0,1-.66-.636.655.655,0,0,1,.66-.647h2.338a.733.733,0,0,1,.744.743v2.243a1.019,1.019,0,0,1-.516.936,5.35,5.35,0,0,1-2.986.911A4.165,4.165,0,0,1,29,25.076Z" fill="currentColor"/></svg>