<svg id="target" xmlns="http://www.w3.org/2000/svg" viewBox="0 0 16 16"><title>unicons-interface-16px-rss</title><path d="M9.5,13c0,.17-.01.33-.02.5H6.46A2.74,2.74,0,0,0,6.5,13,3.5,3.5,0,0,0,3,9.5a2.74,2.74,0,0,0-.5.04V6.52c.17-.01.33-.02.5-.02A6.5,6.5,0,0,1,9.5,13Z" fill="none" stroke="currentColor" stroke-linecap="square" stroke-linejoin="round"/><path d="M9.5,13c0,.17-.01.33-.02.5H6.46A2.74,2.74,0,0,0,6.5,13,3.5,3.5,0,0,0,3,9.5a2.74,2.74,0,0,0-.5.04V6.52c.17-.01.33-.02.5-.02A6.5,6.5,0,0,1,9.5,13Z" fill="none" stroke="currentColor" stroke-linecap="square" stroke-linejoin="round"/><path d="M9.5,13c0,.17-.01.33-.02.5H6.46A2.74,2.74,0,0,0,6.5,13,3.5,3.5,0,0,0,3,9.5a2.74,2.74,0,0,0-.5.04V6.52c.17-.01.33-.02.5-.02A6.5,6.5,0,0,1,9.5,13Z" fill="none" stroke="currentColor" stroke-linecap="square" stroke-linejoin="round"/><path d="M15.5,13a4.094,4.094,0,0,1-.02.5H12.49c.01-.17.01-.33.01-.5A9.5,9.5,0,0,0,3,3.5c-.17,0-.33,0-.5.01V.52A4.106,4.106,0,0,1,3,.5,12.5,12.5,0,0,1,15.5,13Z" fill="none" stroke="currentColor" stroke-linecap="square" stroke-linejoin="round"/><path d="M3.5,14a1.386,1.386,0,0,1-.09.5A1.5,1.5,0,0,1,2,15.5a1.386,1.386,0,0,1-.5-.09,1.468,1.468,0,0,1-.91-.91A1.386,1.386,0,0,1,.5,14a1.5,1.5,0,0,1,1-1.41A1.386,1.386,0,0,1,2,12.5,1.5,1.5,0,0,1,3.5,14Z" fill="none" stroke="currentColor" stroke-linecap="square" stroke-linejoin="round"/></svg>