<svg id="target" xmlns="http://www.w3.org/2000/svg" viewBox="0 0 48 48"><title>unicons-interface-48px-archive-file-box</title><path d="M4.5,22.5,6.255,10.217A2,2,0,0,1,8.235,8.5H40.765a2,2,0,0,1,1.98,1.717L44.5,22.5" fill="none" stroke="currentColor" stroke-linecap="square" stroke-linejoin="round"/><path d="M42.5,42.5H6.5a2,2,0,0,1-2-2v-13a1,1,0,0,1,1-1h10a1,1,0,0,1,1,1v4a1,1,0,0,0,1,1h14a1,1,0,0,0,1-1v-4a1,1,0,0,1,1-1h10a1,1,0,0,1,1,1v13A2,2,0,0,1,42.5,42.5Z" fill="none" stroke="currentColor" stroke-linecap="square" stroke-linejoin="round"/></svg>