<svg id="target" xmlns="http://www.w3.org/2000/svg" viewBox="0 0 24 24"><title>unicons-things-24px-database</title><path d="M4.5,5.5c0-1.1,3.582-2,8-2s8,.9,8,2v15c0,1.1-3.582,2-8,2s-8-.9-8-2Z" fill="none" stroke="currentColor" stroke-linecap="square" stroke-linejoin="round"/><ellipse cx="12.5" cy="5.5" rx="8" ry="2" fill="none" stroke="currentColor" stroke-linecap="square" stroke-linejoin="round"/><path d="M20.5,10.5c0,1.1-3.582,2-8,2s-8-.9-8-2" fill="none" stroke="currentColor" stroke-linecap="square" stroke-linejoin="round"/><path d="M20.5,15.5c0,1.1-3.582,2-8,2s-8-.9-8-2" fill="none" stroke="currentColor" stroke-linecap="square" stroke-linejoin="round"/><line x1="9.5" y1="12.5" x2="9.5" y2="14.5" fill="none" stroke="currentColor" stroke-linecap="square" stroke-linejoin="round"/><line x1="9.5" y1="7.5" x2="9.5" y2="9.5" fill="none" stroke="currentColor" stroke-linecap="square" stroke-linejoin="round"/><line x1="9.5" y1="17.5" x2="9.5" y2="19.5" fill="none" stroke="currentColor" stroke-linecap="square" stroke-linejoin="round"/></svg>