<svg id="target" xmlns="http://www.w3.org/2000/svg" viewBox="0 0 24 24"><title>unicons-people-24px-thumbs-down</title><path d="M20,10.5A1.5,1.5,0,0,0,21.5,9h0A1.5,1.5,0,0,0,20,7.5h-.5" fill="none" stroke="currentColor" stroke-linecap="square" stroke-linejoin="round"/><path d="M20.5,13.5H21A1.5,1.5,0,0,0,22.5,12h0A1.5,1.5,0,0,0,21,10.5h-.5" fill="none" stroke="currentColor" stroke-linecap="square" stroke-linejoin="round"/><path d="M21,13.5a1.5,1.5,0,0,1,0,3H15.5l.91,3.18a3,3,0,0,1-2.89,3.82H13.5a1,1,0,0,1-1-1v-3l-2.4-4A3.984,3.984,0,0,0,8.5,14" fill="none" stroke="currentColor" stroke-linecap="square" stroke-linejoin="round"/><path d="M8.5,5.16l.92-.3a6.975,6.975,0,0,1,2.22-.36H19a1.5,1.5,0,0,1,0,3" fill="none" stroke="currentColor" stroke-linecap="square" stroke-linejoin="round"/><rect x="0.5" y="3.5" width="6" height="12" rx="1" ry="1" fill="none" stroke="currentColor" stroke-linecap="square" stroke-linejoin="round"/></svg>