<svg id="target" xmlns="http://www.w3.org/2000/svg" viewBox="0 0 48 48"><title>unicons-interface-48px-wifi</title><path d="M25.841,39.526,24,41.368l-1.841-1.841a2.585,2.585,0,0,1,3.682,0Z" fill="currentColor"/><path d="M33.206,32.162l-3.682,3.682a7.754,7.754,0,0,0-11.047,0l-3.682-3.682a12.923,12.923,0,0,1,18.412,0Z" fill="currentColor"/><path d="M40.614,24.754l-3.7,3.7a18.194,18.194,0,0,0-25.82,0l-3.7-3.7a23.466,23.466,0,0,1,33.227,0Z" fill="currentColor"/><path d="M48,17.368l-3.682,3.7a28.66,28.66,0,0,0-40.614,0L0,17.368a33.907,33.907,0,0,1,48,0Z" fill="currentColor"/></svg>