<svg id="target" xmlns="http://www.w3.org/2000/svg" viewBox="0 0 48 48"><title>unicons-people-48px-person-walking</title><circle cx="23.5" cy="5.5" r="4" fill="none" stroke="currentColor" stroke-linecap="square" stroke-linejoin="round"/><path d="M24.406,37.667l2.2,7.69a2,2,0,0,0,2.474,1.371h0a2,2,0,0,0,1.371-2.474L27.149,32.72" fill="none" stroke="currentColor" stroke-linejoin="round"/><path d="M23,13.5h2.5a2.006,2.006,0,0,1,2,2v8.65a10,10,0,0,1-4.454,8.323l-.658.439A1.993,1.993,0,0,0,21.5,34.57V44.5a2,2,0,0,1-2,2h0a2,2,0,0,1-2-2V32" fill="none" stroke="currentColor" stroke-linejoin="round"/><rect x="17.5" y="13.5" width="4" height="16" rx="2" ry="2" transform="translate(39 43) rotate(180)" fill="none" stroke="currentColor" stroke-linejoin="round"/></svg>