<svg id="target" xmlns="http://www.w3.org/2000/svg" viewBox="0 0 16 16"><title>unicons-docs-16px-file-png</title><path d="M3.938,7.142a1.921,1.921,0,0,1-.119.668,1.486,1.486,0,0,1-.342.548,2.086,2.086,0,0,1-.679.455,2.456,2.456,0,0,1-.931.154H1.05v1.658H-.263V5.536H1.9a3.42,3.42,0,0,1,.818.083,1.928,1.928,0,0,1,.59.251,1.344,1.344,0,0,1,.47.516A1.626,1.626,0,0,1,3.938,7.142Zm-1.356.029a.6.6,0,0,0-.116-.37.635.635,0,0,0-.27-.216,1.226,1.226,0,0,0-.4-.091c-.13-.005-.3-.008-.52-.008H1.05V8.007h.376a3.06,3.06,0,0,0,.552-.041A.777.777,0,0,0,2.342,7.8a.628.628,0,0,0,.183-.261A1.056,1.056,0,0,0,2.581,7.171Z" fill="currentColor"/><path d="M9.916,10.625H8.65L6.49,7.132v3.493h-1.2V5.536H6.856L8.713,8.451V5.536h1.2Z" fill="currentColor"/><path d="M16.136,10.334a6.918,6.918,0,0,1-.905.265,4.967,4.967,0,0,1-1.125.131,2.815,2.815,0,0,1-2.033-.706,2.576,2.576,0,0,1-.735-1.95,2.556,2.556,0,0,1,.741-1.912,2.83,2.83,0,0,1,2.068-.727,4.875,4.875,0,0,1,.957.091,4.256,4.256,0,0,1,1.012.36V7.081h-.146q-.1-.072-.281-.2a3.412,3.412,0,0,0-.355-.224,2.318,2.318,0,0,0-.463-.188,1.965,1.965,0,0,0-.562-.079,1.844,1.844,0,0,0-.632.1,1.471,1.471,0,0,0-.509.314,1.406,1.406,0,0,0-.34.521,1.959,1.959,0,0,0-.125.729,1.747,1.747,0,0,0,.447,1.292,1.794,1.794,0,0,0,1.322.448c.051,0,.105,0,.166,0s.115-.006.166-.01v-1H13.787v-.96h2.349Z" fill="currentColor"/><path d="M2.5,3.5v-1a1,1,0,0,1,1-1h6.506a1,1,0,0,1,.707.293L12.06,3.14" fill="none" stroke="currentColor" stroke-linecap="square" stroke-linejoin="round"/><path d="M13.5,12.5v1a1,1,0,0,1-1,1h-9a1,1,0,0,1-1-1v-1" fill="none" stroke="currentColor" stroke-linecap="square" stroke-linejoin="round"/></svg>