<svg id="target" xmlns="http://www.w3.org/2000/svg" viewBox="0 0 24 24"><title>unicons-docs-24px-file-audio</title><path d="M15.5,14.5v-5a.25.25,0,0,0-.3-.24l-4.5.89a.25.25,0,0,0-.2.25V15.5" fill="none" stroke="currentColor" stroke-linecap="square" stroke-linejoin="round"/><circle cx="9.5" cy="16.5" r="1" fill="none" stroke="currentColor" stroke-linecap="square" stroke-linejoin="round"/><circle cx="14.5" cy="15.5" r="1" fill="none" stroke="currentColor" stroke-linecap="square" stroke-linejoin="round"/><path d="M19.91,6.91,16.09,3.09a2,2,0,0,0-1.41-.59H4.5a1,1,0,0,0-1,1v18a1,1,0,0,0,1,1h15a1,1,0,0,0,1-1V8.33A2,2,0,0,0,19.91,6.91Z" fill="none" stroke="currentColor" stroke-linecap="square" stroke-linejoin="round"/></svg>