<svg id="Layer_1" data-name="Layer 1" xmlns="http://www.w3.org/2000/svg" viewBox="0 0 48 48"><defs><style>.cls-1{fill:none;stroke:#5a5b5e;stroke-linecap:square;stroke-linejoin:round;}</style></defs><title>unicons-interface-48px-map-pin-person</title><circle class="cls-1" cx="34.5" cy="13.5" r="6"/><path class="cls-1" d="M40.49,20.5a9.47,9.47,0,0,1,1.08.93A10,10,0,0,1,44.5,28.5v1h-20v-1a10,10,0,0,1,4-8"/><path class="cls-1" d="M32.18,33.59A68.93,68.93,0,0,1,20.25,45.5s-18-13.5-18-26.56c0-8.53,8.06-15.44,18-15.44a20.54,20.54,0,0,1,7,1.21"/><path class="cls-1" d="M19.77,23.44a5,5,0,1,1,4.68-8"/></svg>