<svg id="target" xmlns="http://www.w3.org/2000/svg" viewBox="0 0 16 16"><title>unicons-interface-16px-bell-line</title><path d="M6.093,13.036a2.091,2.091,0,0,0,3.815,0" fill="none" stroke="currentColor" stroke-linecap="square" stroke-linejoin="round"/><path d="M13.5,11.5H2.5V9.713a3,3,0,0,1,.944-2.185l.111-.1A3,3,0,0,0,4.5,5.239V4.5a3,3,0,0,1,3-3h1a3,3,0,0,1,3,3v.72a3,3,0,0,0,.924,2.166l.151.145A3,3,0,0,1,13.5,9.7Z" fill="none" stroke="currentColor" stroke-linecap="square" stroke-linejoin="round"/></svg>