<svg id="target" xmlns="http://www.w3.org/2000/svg" viewBox="0 0 24 24"><title>unicons-things-24px-music-note</title><path d="M19.5,13.5V3.416a.56.56,0,0,0-.669-.55L9.965,4.812a.576.576,0,0,0-.465.565V15.5" fill="none" stroke="currentColor" stroke-linecap="square" stroke-linejoin="round"/><path d="M6.5,15.5h3a0,0,0,0,1,0,0v3a3,3,0,0,1-3,3h0a3,3,0,0,1-3-3v0a3,3,0,0,1,3-3Z" fill="none" stroke="currentColor" stroke-linecap="square" stroke-linejoin="round"/><path d="M16.5,13.5h3a0,0,0,0,1,0,0v3a3,3,0,0,1-3,3h0a3,3,0,0,1-3-3v0A3,3,0,0,1,16.5,13.5Z" fill="none" stroke="currentColor" stroke-linecap="square" stroke-linejoin="round"/></svg>