<svg id="Layer_1" data-name="Layer 1" xmlns="http://www.w3.org/2000/svg" viewBox="0 0 16 16"><defs><style>.cls-1{fill:none;stroke:#5a5b5e;stroke-linecap:square;stroke-linejoin:round;}</style></defs><title>unicons-docs-16px-file-photo</title><polygon class="cls-1" points="11.5 7.22 11.5 12.5 4.5 12.5 4.5 9.84 6.54 7.61 8.33 9.53 11.5 7.22"/><circle class="cls-1" cx="5.5" cy="4.5" r="1"/><path class="cls-1" d="M13.19,4.45,10.35,1.77a1,1,0,0,0-.69-.27H3.5a1,1,0,0,0-1,1v11a1,1,0,0,0,1,1h9a1,1,0,0,0,1-1V5.18A1,1,0,0,0,13.19,4.45Z"/></svg>