<svg id="target" xmlns="http://www.w3.org/2000/svg" viewBox="0 0 48 48"><title>unicons-things-48px-printer</title><rect x="11.5" y="27.5" width="26" height="20" fill="none" stroke="currentColor" stroke-linecap="square" stroke-linejoin="round"/><path d="M7.5,37.5h-3a1,1,0,0,1-1-1v-24a1,1,0,0,1,1-1h40a1,1,0,0,1,1,1v24a1,1,0,0,1-1,1h-3" fill="none" stroke="currentColor" stroke-linecap="square" stroke-linejoin="round"/><circle cx="36.5" cy="16.5" r="2" fill="none" stroke="currentColor" stroke-linecap="square" stroke-linejoin="round"/><polyline points="11.5 11.5 11.5 1.5 37.5 1.5 37.5 11.5" fill="none" stroke="currentColor" stroke-linecap="square" stroke-linejoin="round"/><line x1="15.5" y1="31.5" x2="33.5" y2="31.5" fill="none" stroke="currentColor" stroke-linecap="square" stroke-linejoin="round"/><line x1="15.5" y1="35.5" x2="31.5" y2="35.5" fill="none" stroke="currentColor" stroke-linecap="square" stroke-linejoin="round"/><line x1="15.5" y1="39.5" x2="33.5" y2="39.5" fill="none" stroke="currentColor" stroke-linecap="square" stroke-linejoin="round"/><line x1="15.5" y1="43.5" x2="23.5" y2="43.5" fill="none" stroke="currentColor" stroke-linecap="square" stroke-linejoin="round"/></svg>