<svg id="target" xmlns="http://www.w3.org/2000/svg" viewBox="0 0 24 24"><title>unicons-interface-24px-copy</title><path d="M23.065,13.425,20.3,10.862a1.357,1.357,0,0,0-.922-.362h-6.2a.679.679,0,0,0-.679.679v9.643a.679.679,0,0,0,.679.679h9.643a.679.679,0,0,0,.679-.679v-6.4A1.357,1.357,0,0,0,23.065,13.425Z" fill="none" stroke="currentColor" stroke-linecap="square" stroke-linejoin="round"/><path d="M9.5,20.5h-7a1,1,0,0,1-1-1V3.5a1,1,0,0,1,1-1h9.17a2,2,0,0,1,1.417.587L16.5,6.5" fill="none" stroke="currentColor" stroke-linecap="square" stroke-linejoin="round"/></svg>