<svg id="target" xmlns="http://www.w3.org/2000/svg" viewBox="0 0 24 24"><title>unicons-things-24px-headset</title><path d="M3.5,12.5h3a0,0,0,0,1,0,0v6a0,0,0,0,1,0,0h-3a2,2,0,0,1-2-2v-2A2,2,0,0,1,3.5,12.5Z" fill="none" stroke="currentColor" stroke-linejoin="round"/><path d="M17.5,12.5h3a2,2,0,0,1,2,2v2a2,2,0,0,1-2,2h-3a0,0,0,0,1,0,0v-6A0,0,0,0,1,17.5,12.5Z" fill="none" stroke="currentColor" stroke-linejoin="round"/><path d="M3.5,10.5a8,8,0,0,1,8-8h1a8,8,0,0,1,8,8" fill="none" stroke="currentColor" stroke-linecap="square" stroke-linejoin="round"/><path d="M11.5,22.5h7a2,2,0,0,0,2-2v-2" fill="none" stroke="currentColor" stroke-linejoin="round"/></svg>