<svg id="target" xmlns="http://www.w3.org/2000/svg" viewBox="0 0 48 48"><title>unicons-things-48px-flask</title><path d="M27.5,11.5h2v12L42.155,38.967a4,4,0,0,1-3.1,6.533H9.941a4,4,0,0,1-3.1-6.533L19.5,23.5V7.5h-4v-6h18v6h-6" fill="none" stroke="currentColor" stroke-linecap="square" stroke-linejoin="round"/><line x1="27.5" y1="15.5" x2="29.5" y2="15.5" fill="none" stroke="currentColor" stroke-linecap="square" stroke-linejoin="round"/><line x1="27.5" y1="19.5" x2="29.5" y2="19.5" fill="none" stroke="currentColor" stroke-linecap="square" stroke-linejoin="round"/><line x1="27.5" y1="23.5" x2="29.5" y2="23.5" fill="none" stroke="currentColor" stroke-linecap="square" stroke-linejoin="round"/><path d="M15.5,34.5l2.881-.48a12.73,12.73,0,0,1,6.118.48h0a12.73,12.73,0,0,0,6.118.48L33.5,34.5" fill="none" stroke="currentColor" stroke-linejoin="round"/></svg>