<svg id="target" xmlns="http://www.w3.org/2000/svg" viewBox="0 0 24 24"><title>unicons-interface-24px-calendar</title><line x1="10.5" y1="4.5" x2="14.5" y2="4.5" fill="none" stroke="currentColor" stroke-linecap="square" stroke-linejoin="round"/><path d="M20.5,4.5h1a1,1,0,0,1,1,1v15a1,1,0,0,1-1,1H3.5a1,1,0,0,1-1-1V5.5a1,1,0,0,1,1-1h1" fill="none" stroke="currentColor" stroke-linecap="square" stroke-linejoin="round"/><line x1="7.5" y1="2.5" x2="7.5" y2="6.5" fill="none" stroke="currentColor" stroke-linecap="square" stroke-linejoin="round"/><line x1="17.5" y1="2.5" x2="17.5" y2="6.5" fill="none" stroke="currentColor" stroke-linecap="square" stroke-linejoin="round"/><rect x="6.5" y="10.5" width="2" height="2" fill="currentColor" stroke="currentColor" stroke-linecap="square" stroke-linejoin="round"/><rect x="11.5" y="10.5" width="2" height="2" fill="currentColor" stroke="currentColor" stroke-linecap="square" stroke-linejoin="round"/><rect x="11.5" y="15.5" width="2" height="2" fill="currentColor" stroke="currentColor" stroke-linecap="square" stroke-linejoin="round"/><rect x="16.5" y="10.5" width="2" height="2" fill="currentColor" stroke="currentColor" stroke-linecap="square" stroke-linejoin="round"/><rect x="6.5" y="15.5" width="2" height="2" fill="currentColor" stroke="currentColor" stroke-linecap="square" stroke-linejoin="round"/></svg>