<svg id="target" xmlns="http://www.w3.org/2000/svg" viewBox="0 0 48 48"><title>unicons-docs-48px-check-in-doc-1</title><path d="M46.5,41.5v4a2,2,0,0,1-2,2H4.5a2,2,0,0,1-2-2v-4" fill="none" stroke="currentColor" stroke-linecap="square" stroke-linejoin="round"/><path d="M39.328,10.328,31.672,2.672A4,4,0,0,0,28.843,1.5H10.5a2,2,0,0,0-2,2v36a2,2,0,0,0,2,2h28a2,2,0,0,0,2-2V13.157A4,4,0,0,0,39.328,10.328Z" fill="none" stroke="currentColor" stroke-linecap="square" stroke-linejoin="round"/><line x1="24.5" y1="25.5" x2="24.5" y2="11.5" fill="none" stroke="currentColor" stroke-linecap="square" stroke-linejoin="round"/><path d="M31.5,23.5l-5.586,5.586a2,2,0,0,1-2.828,0L17.5,23.5" fill="none" stroke="currentColor" stroke-linecap="square" stroke-linejoin="round"/></svg>