<svg id="Layer_1" data-name="Layer 1" xmlns="http://www.w3.org/2000/svg" viewBox="0 0 48 48"><defs><style>.cls-1{fill:none;stroke:#5a5b5e;stroke-linecap:square;stroke-linejoin:round;}</style></defs><title>unicons-interface-48px-link</title><line class="cls-1" x1="12.5" y1="24.5" x2="35.5" y2="24.5"/><path class="cls-1" d="M20.5,28.5v4a2,2,0,0,1-2,2H2.5a2,2,0,0,1-2-2v-16a2,2,0,0,1,2-2h16a2,2,0,0,1,2,2v4"/><path class="cls-1" d="M27.5,20.5v-4a2,2,0,0,1,2-2h16a2,2,0,0,1,2,2v16a2,2,0,0,1-2,2h-16a2,2,0,0,1-2-2v-4"/></svg>