<?xml version="1.0" encoding="utf-8"?>
<!-- Generator: Adobe Illustrator 16.0.0, SVG Export Plug-In . SVG Version: 6.00 Build 0)  -->
<!DOCTYPE svg PUBLIC "-//W3C//DTD SVG 1.1//EN" "http://www.w3.org/Graphics/SVG/1.1/DTD/svg11.dtd">
<svg version="1.1" id="Layer_1" xmlns="http://www.w3.org/2000/svg" xmlns:xlink="http://www.w3.org/1999/xlink" x="0px" y="0px"
	 width="40px" height="40px" viewBox="30 30 40 40" enable-background="new 30 30 40 40" xml:space="preserve">
<linearGradient id="SVGID_1_" gradientUnits="userSpaceOnUse" x1="335.5645" y1="-295.4355" x2="301.5113" y2="-329.4887" gradientTransform="matrix(1 0 0 -1 -271 -260)">
	<stop  offset="0" style="stop-color:#4B54A2"/>
	<stop  offset="1" style="stop-color:#5A3F87"/>
</linearGradient>
<path fill="url(#SVGID_1_)" d="M55.294,55.293L70,70l-40-0.002V30l14.708,14.709l14.71-14.633L70,40.656L55.294,55.293z
	 M59.499,42.73L46.86,55.293l1.946,1.947l0,0l6.794,6.794H32.983v2.983H62.8L51.079,55.293l10.529-10.455L59.499,42.73z
	 M61.526,36.4L61.526,36.4l-2.106-2.108L44.708,48.926L32.983,37.198v23.851h2.981V44.396l6.636,6.637l0.159,0.159l1.951,1.949
	L59.42,38.51l4.255,4.255l2.109-2.109L61.526,36.4z M39.175,61.009h8.902l-8.902-8.9V61.009z"/>
</svg>
