<svg id="target" xmlns="http://www.w3.org/2000/svg" viewBox="0 0 24 24"><title>arrow-multi-direction</title><line x1="12.5" y1="2.5" x2="12.5" y2="8.5" fill="none" stroke="currentColor" stroke-linecap="square" stroke-linejoin="round"/><line x1="12.5" y1="22.5" x2="12.5" y2="16.5" fill="none" stroke="currentColor" stroke-linecap="square" stroke-linejoin="round"/><line x1="22.5" y1="12.5" x2="16.5" y2="12.5" fill="none" stroke="currentColor" stroke-linecap="square" stroke-linejoin="round"/><line x1="2.5" y1="12.5" x2="8.5" y2="12.5" fill="none" stroke="currentColor" stroke-linecap="square" stroke-linejoin="round"/><path d="M9.5,4.5l2.293-2.293a1,1,0,0,1,1.414,0L15.5,4.5" fill="none" stroke="currentColor" stroke-linecap="square" stroke-linejoin="round"/><path d="M20.5,9.5l2.293,2.293a1,1,0,0,1,0,1.414L20.5,15.5" fill="none" stroke="currentColor" stroke-linecap="square" stroke-linejoin="round"/><path d="M4.5,15.5,2.207,13.207a1,1,0,0,1,0-1.414L4.5,9.5" fill="none" stroke="currentColor" stroke-linecap="square" stroke-linejoin="round"/><path d="M15.5,20.5l-2.293,2.293a1,1,0,0,1-1.414,0L9.5,20.5" fill="none" stroke="currentColor" stroke-linecap="square" stroke-linejoin="round"/></svg>