<svg id="target" xmlns="http://www.w3.org/2000/svg" viewBox="0 0 24 24"><title>arrow-multi-direction</title><path d="M9,4l2.293-2.293a1,1,0,0,1,1.414,0L15,4" fill="none" stroke="currentColor" stroke-linecap="square" stroke-linejoin="round" stroke-width="2"/><line x1="12" y1="2" x2="12" y2="8" fill="none" stroke="currentColor" stroke-linecap="square" stroke-linejoin="round" stroke-width="2"/><path d="M20,9l2.293,2.293a1,1,0,0,1,0,1.414L20,15" fill="none" stroke="currentColor" stroke-linecap="square" stroke-linejoin="round" stroke-width="2"/><line x1="22" y1="12" x2="16" y2="12" fill="none" stroke="currentColor" stroke-linecap="square" stroke-linejoin="round" stroke-width="2"/><path d="M4,15,1.707,12.707a1,1,0,0,1,0-1.414L4,9" fill="none" stroke="currentColor" stroke-linecap="square" stroke-linejoin="round" stroke-width="2"/><line x1="2" y1="12" x2="8" y2="12" fill="none" stroke="currentColor" stroke-linecap="square" stroke-linejoin="round" stroke-width="2"/><path d="M15,20l-2.293,2.293a1,1,0,0,1-1.414,0L9,20" fill="none" stroke="currentColor" stroke-linecap="square" stroke-linejoin="round" stroke-width="2"/><line x1="12" y1="22" x2="12" y2="16" fill="none" stroke="currentColor" stroke-linecap="square" stroke-linejoin="round" stroke-width="2"/></svg>