<svg id="target" xmlns="http://www.w3.org/2000/svg" viewBox="0 0 24 24"><title>unicons-interface-24px-bell-line</title><path d="M9.11,19.63a3.168,3.168,0,0,0,5.78,0" fill="none" stroke="currentColor" stroke-linecap="square" stroke-linejoin="round"/><path d="M18.5,17.5H5.5a1,1,0,0,1-1-1V14.172a3,3,0,0,1,.944-2.185l1.111-1.045A3,3,0,0,0,7.5,8.756V7A4.5,4.5,0,0,1,12,2.5h0A4.5,4.5,0,0,1,16.5,7V8.72a3,3,0,0,0,.924,2.166l1.151,1.1a3,3,0,0,1,.924,2.166V16.5A1,1,0,0,1,18.5,17.5Z" fill="none" stroke="currentColor" stroke-linecap="square" stroke-linejoin="round"/></svg>