<svg id="target" xmlns="http://www.w3.org/2000/svg" viewBox="0 0 24 24"><title>car</title><path d="M8,21v1a1,1,0,0,1-1,1H4a1,1,0,0,1-1-1V21" fill="none" stroke="currentColor" stroke-linecap="square" stroke-linejoin="round" stroke-width="2"/><path d="M21,21v1a1,1,0,0,1-1,1H17a1,1,0,0,1-1-1V21" fill="none" stroke="currentColor" stroke-linecap="square" stroke-linejoin="round" stroke-width="2"/><circle cx="6" cy="15" r="1" fill="currentColor"/><line x1="10" y1="15" x2="14" y2="15" fill="none" stroke="currentColor" stroke-linecap="square" stroke-linejoin="round" stroke-width="2"/><circle cx="18" cy="15" r="1" fill="currentColor"/><polygon points="17 11 7 11 8 6 16 6 17 11" fill="none" stroke="currentColor" stroke-linecap="square" stroke-linejoin="round" stroke-width="2"/><path d="M23,12.12V19H1V12.12A1.12,1.12,0,0,1,2.12,11h.006a1.12,1.12,0,0,0,1.087-.848l1.576-6.3A1.12,1.12,0,0,1,5.874,3H18.126a1.12,1.12,0,0,1,1.087.848l1.576,6.3A1.12,1.12,0,0,0,21.874,11h.006A1.12,1.12,0,0,1,23,12.12Z" fill="none" stroke="currentColor" stroke-linecap="square" stroke-linejoin="round" stroke-width="2"/></svg>