<svg id="target" xmlns="http://www.w3.org/2000/svg" viewBox="0 0 24 24"><title>car</title><path d="M7.5,21.5v1a1,1,0,0,1-1,1h-3a1,1,0,0,1-1-1v-1" fill="none" stroke="currentColor" stroke-linecap="square" stroke-linejoin="round"/><path d="M21.5,21.5v1a1,1,0,0,1-1,1h-3a1,1,0,0,1-1-1v-1" fill="none" stroke="currentColor" stroke-linecap="square" stroke-linejoin="round"/><path d="M23.5,14.5v5H.5v-5a2,2,0,0,1,2-2h0L5.257,5.149A1,1,0,0,1,6.193,4.5H17.807a1,1,0,0,1,.936.649L21.5,12.5h0A2,2,0,0,1,23.5,14.5Z" fill="none" stroke="currentColor" stroke-linecap="square" stroke-linejoin="round"/><circle cx="4" cy="16" r="1.5" fill="none" stroke="currentColor" stroke-linecap="square" stroke-linejoin="round"/><circle cx="20" cy="16" r="1.5" fill="none" stroke="currentColor" stroke-linecap="square" stroke-linejoin="round"/><polygon points="18.5 11.5 5.5 11.5 7.5 6.5 16.5 6.5 18.5 11.5" fill="none" stroke="currentColor" stroke-linecap="square" stroke-linejoin="round"/><line x1="7.5" y1="15.5" x2="16.5" y2="15.5" fill="none" stroke="currentColor" stroke-linecap="square" stroke-linejoin="round"/></svg>