<svg id="target" xmlns="http://www.w3.org/2000/svg" viewBox="0 0 24 24"><title>unicons-docs-24px-check-in-doc-1</title><line x1="12.5" y1="12.5" x2="12.5" y2="5.5" fill="none" stroke="currentColor" stroke-linecap="square" stroke-linejoin="round"/><polyline points="23.5 20.5 23.5 23.5 1.5 23.5 1.5 20.5" fill="none" stroke="currentColor" stroke-linecap="square" stroke-linejoin="round"/><path d="M15.5,12.5l-2.29,2.29a1,1,0,0,1-1.41,0L9.5,12.5" fill="none" stroke="currentColor" stroke-linecap="square" stroke-linejoin="round"/><path d="M19.91,4.91,16.09,1.09A2,2,0,0,0,14.67.5H5.5a1,1,0,0,0-1,1v18a1,1,0,0,0,1,1h14a1,1,0,0,0,1-1V6.33A2,2,0,0,0,19.91,4.91Z" fill="none" stroke="currentColor" stroke-linecap="square" stroke-linejoin="round"/></svg>