<svg id="target" xmlns="http://www.w3.org/2000/svg" viewBox="0 0 24 24"><title>unicons-interface-24px-comment-typing</title><path d="M17.5,10a.5.5,0,1,1-.5.5.5.5,0,0,1,.5-.5m0-1A1.5,1.5,0,1,0,19,10.5,1.5,1.5,0,0,0,17.5,9Z" fill="currentColor"/><path d="M12.5,10a.5.5,0,1,1-.5.5.5.5,0,0,1,.5-.5m0-1A1.5,1.5,0,1,0,14,10.5,1.5,1.5,0,0,0,12.5,9Z" fill="currentColor"/><path d="M7.5,10a.5.5,0,1,1-.5.5.5.5,0,0,1,.5-.5m0-1A1.5,1.5,0,1,0,9,10.5,1.5,1.5,0,0,0,7.5,9Z" fill="currentColor"/><path d="M22.5,4.5v12a1,1,0,0,1-1,1H7.5l-5,5V4.5a1,1,0,0,1,1-1h18A1,1,0,0,1,22.5,4.5Z" fill="none" stroke="currentColor" stroke-linecap="square" stroke-linejoin="round"/></svg>