<svg id="target" xmlns="http://www.w3.org/2000/svg" viewBox="0 0 24 24"><title>unicons-interface-24px-edit</title><path d="M21.5,11.5v8a1,1,0,0,1-1,1H3.5a1,1,0,0,1-1-1V5.5a1,1,0,0,1,1-1h9" fill="none" stroke="currentColor" stroke-linecap="square" stroke-linejoin="round"/><path d="M19.9,2.1h2a1,1,0,0,1,1,1v3a0,0,0,0,1,0,0h-4a0,0,0,0,1,0,0v-3a1,1,0,0,1,1-1Z" transform="translate(9.02 -13.579) rotate(45)" fill="none" stroke="currentColor" stroke-linecap="square" stroke-linejoin="round"/><polyline points="20.902 6.927 13.328 14.5 10.5 14.5 10.5 11.672 18.073 4.098" fill="none" stroke="currentColor" stroke-linecap="square" stroke-linejoin="round"/></svg>