<svg id="target" xmlns="http://www.w3.org/2000/svg" viewBox="0 0 24 24"><title>unicons-docs-24px-file-xlsx</title><rect x="1.5" y="7.5" width="21" height="10" fill="none" stroke="currentColor" stroke-linecap="square" stroke-linejoin="round"/><path d="M3.5,5.5v-2a1,1,0,0,1,1-1H14.67a2,2,0,0,1,1.42.59L18.5,5.5" fill="none" stroke="currentColor" stroke-linecap="square" stroke-linejoin="round"/><path d="M20.5,19.5v2a1,1,0,0,1-1,1H4.5a1,1,0,0,1-1-1v-2" fill="none" stroke="currentColor" stroke-linecap="square" stroke-linejoin="round"/><path d="M9.33,14.88H7.81L6.71,13.21,5.6,14.88H4.15L6,12.31,4.19,9.79H5.7l1.06,1.58L7.85,9.79H9.3L7.53,12.26Z" fill="currentColor"/><path d="M14.15,14.88H10.48V9.79h1.31v4.1h2.36Z" fill="currentColor"/><path d="M19.44,13.28a1.45,1.45,0,0,1-.64,1.22,2.85,2.85,0,0,1-1.73.47,4.84,4.84,0,0,1-1.1-.11,5.69,5.69,0,0,1-.88-.28V13.36h.14a3,3,0,0,0,.91.5,3,3,0,0,0,1,.17l.31,0a1.27,1.27,0,0,0,.32-.07.82.82,0,0,0,.25-.15.36.36,0,0,0,.1-.27.37.37,0,0,0-.14-.29,1,1,0,0,0-.42-.19l-.61-.13a4.65,4.65,0,0,1-.6-.15,1.88,1.88,0,0,1-.92-.57,1.39,1.39,0,0,1-.28-.89,1.36,1.36,0,0,1,.64-1.16,2.78,2.78,0,0,1,1.64-.45,5.06,5.06,0,0,1,1,.1,4.6,4.6,0,0,1,.85.24v1.17h-.14a2.71,2.71,0,0,0-.75-.41,2.59,2.59,0,0,0-.91-.17l-.33,0a1.29,1.29,0,0,0-.31.08.61.61,0,0,0-.23.16.34.34,0,0,0-.1.24.35.35,0,0,0,.15.31,1.72,1.72,0,0,0,.58.2l.54.11a5.57,5.57,0,0,1,.55.15,1.85,1.85,0,0,1,.86.52A1.28,1.28,0,0,1,19.44,13.28Z" fill="currentColor"/></svg>