<svg id="target" xmlns="http://www.w3.org/2000/svg" viewBox="0 0 24 24"><title>unicons-docs-24px-file-csv</title><rect x="1.5" y="7.5" width="21" height="10" fill="none" stroke="currentColor" stroke-linecap="square" stroke-linejoin="round"/><path d="M3.5,6.5v-3a1,1,0,0,1,1-1H14.67a2,2,0,0,1,1.42.59L18.5,5.5" fill="none" stroke="currentColor" stroke-linecap="square" stroke-linejoin="round"/><path d="M20.5,19.5v2a1,1,0,0,1-1,1H4.5a1,1,0,0,1-1-1v-2" fill="none" stroke="currentColor" stroke-linecap="square" stroke-linejoin="round"/><path d="M6.71,15a3.15,3.15,0,0,1-1-.17A2.17,2.17,0,0,1,4.3,13.48a3.48,3.48,0,0,1,0-2.24,2.35,2.35,0,0,1,.53-.84,2.23,2.23,0,0,1,.82-.52,3,3,0,0,1,1.07-.18,4.15,4.15,0,0,1,.58,0,4,4,0,0,1,.48.09,3.39,3.39,0,0,1,.42.15l.33.15v1.23H8.36l-.24-.19-.33-.22a2.3,2.3,0,0,0-.41-.18,1.44,1.44,0,0,0-.47-.07,1.59,1.59,0,0,0-.53.09,1.28,1.28,0,0,0-.46.29,1.42,1.42,0,0,0-.33.52,2.14,2.14,0,0,0-.12.78,2.07,2.07,0,0,0,.13.8,1.39,1.39,0,0,0,.34.5,1.24,1.24,0,0,0,.46.27,1.69,1.69,0,0,0,.51.08,1.62,1.62,0,0,0,.47-.07,1.86,1.86,0,0,0,.43-.19l.31-.21.24-.19h.14v1.22l-.37.16-.37.13-.47.11A3.76,3.76,0,0,1,6.71,15Z" fill="currentColor"/><path d="M14,13.28a1.45,1.45,0,0,1-.64,1.22A2.86,2.86,0,0,1,11.6,15a4.85,4.85,0,0,1-1.1-.11,5.72,5.72,0,0,1-.88-.28V13.36h.14a3,3,0,0,0,.91.5,3,3,0,0,0,1,.17L12,14a1.26,1.26,0,0,0,.32-.07.8.8,0,0,0,.25-.15.36.36,0,0,0,.1-.27.37.37,0,0,0-.14-.29,1,1,0,0,0-.42-.19l-.61-.13a4.68,4.68,0,0,1-.6-.15,1.88,1.88,0,0,1-.92-.57,1.39,1.39,0,0,1-.28-.89,1.36,1.36,0,0,1,.64-1.16,2.78,2.78,0,0,1,1.64-.45,5.05,5.05,0,0,1,1,.1,4.6,4.6,0,0,1,.85.24v1.17h-.14a2.7,2.7,0,0,0-.75-.41,2.58,2.58,0,0,0-.91-.17l-.33,0a1.27,1.27,0,0,0-.31.08.6.6,0,0,0-.23.16.34.34,0,0,0-.1.24.36.36,0,0,0,.15.31,1.73,1.73,0,0,0,.58.2l.54.11a5.62,5.62,0,0,1,.56.15,1.86,1.86,0,0,1,.86.52A1.28,1.28,0,0,1,14,13.28Z" fill="currentColor"/><path d="M19.9,9.79,18,14.88H16.58L14.72,9.79H16.1l1.23,3.57,1.23-3.57Z" fill="currentColor"/></svg>