<svg id="target" xmlns="http://www.w3.org/2000/svg" viewBox="0 0 24 24"><title>unicons-docs-24px-file-pptx</title><rect x="1.5" y="7.5" width="21" height="10" fill="none" stroke="currentColor" stroke-linecap="square" stroke-linejoin="round"/><path d="M3.5,5.5v-2a1,1,0,0,1,1-1H14.67a2,2,0,0,1,1.42.59L18.5,5.5" fill="none" stroke="currentColor" stroke-linecap="square" stroke-linejoin="round"/><path d="M20.5,19.5v2a1,1,0,0,1-1,1H4.5a1,1,0,0,1-1-1v-2" fill="none" stroke="currentColor" stroke-linecap="square" stroke-linejoin="round"/><path d="M8.79,11.39a1.94,1.94,0,0,1-.12.67,1.5,1.5,0,0,1-.34.55,2.09,2.09,0,0,1-.68.45,2.45,2.45,0,0,1-.93.15H5.9v1.66H4.59V9.79H6.75a3.41,3.41,0,0,1,.82.08,1.92,1.92,0,0,1,.59.25,1.35,1.35,0,0,1,.47.52A1.64,1.64,0,0,1,8.79,11.39Zm-1.36,0a.6.6,0,0,0-.12-.37A.63.63,0,0,0,7,10.84a1.23,1.23,0,0,0-.4-.09H5.9v1.52h.38a3,3,0,0,0,.55,0,.78.78,0,0,0,.37-.16.63.63,0,0,0,.18-.26A1,1,0,0,0,7.43,11.42Z" fill="currentColor"/><path d="M14.34,11.39a1.94,1.94,0,0,1-.12.67,1.49,1.49,0,0,1-.34.55,2.08,2.08,0,0,1-.68.45,2.46,2.46,0,0,1-.93.15h-.82v1.66H10.14V9.79H12.3a3.41,3.41,0,0,1,.82.08,1.93,1.93,0,0,1,.59.25,1.35,1.35,0,0,1,.47.52A1.63,1.63,0,0,1,14.34,11.39Zm-1.36,0a.6.6,0,0,0-.12-.37.62.62,0,0,0-.27-.22,1.22,1.22,0,0,0-.4-.09h-.75v1.52h.38a3.05,3.05,0,0,0,.55,0,.79.79,0,0,0,.36-.16.62.62,0,0,0,.18-.26A1.06,1.06,0,0,0,13,11.42Z" fill="currentColor"/><path d="M19.67,10.77H18.08v4.1H16.77v-4.1H15.18v-1h4.49Z" fill="currentColor"/></svg>