<svg id="target" xmlns="http://www.w3.org/2000/svg" viewBox="0 0 24 24"><title>unicons-docs-24px-file-code</title><path d="M19.91,6.91,16.09,3.09a2,2,0,0,0-1.41-.59H4.5a1,1,0,0,0-1,1v18a1,1,0,0,0,1,1h15a1,1,0,0,0,1-1V8.33A2,2,0,0,0,19.91,6.91Z" fill="none" stroke="currentColor" stroke-linecap="square" stroke-linejoin="round"/><line x1="12.5" y1="15.5" x2="16.5" y2="15.5" fill="none" stroke="currentColor" stroke-linecap="square" stroke-linejoin="round"/><path d="M8.5,9.5l2.29,2.29a1,1,0,0,1,0,1.41L8.5,15.5" fill="none" stroke="currentColor" stroke-linecap="square" stroke-linejoin="round"/></svg>