<svg id="target" xmlns="http://www.w3.org/2000/svg" viewBox="0 0 24 24"><title>unicons-things-24px-headphones</title><path d="M3.5,11.5h4a0,0,0,0,1,0,0v9a0,0,0,0,1,0,0h-4a2,2,0,0,1-2-2v-5A2,2,0,0,1,3.5,11.5Z" fill="none" stroke="currentColor" stroke-linejoin="round"/><path d="M16.5,11.5h4a2,2,0,0,1,2,2v5a2,2,0,0,1-2,2h-4a0,0,0,0,1,0,0v-9A0,0,0,0,1,16.5,11.5Z" fill="none" stroke="currentColor" stroke-linejoin="round"/><path d="M3.5,9.5a8,8,0,0,1,8-8h1a8,8,0,0,1,8,8" fill="none" stroke="currentColor" stroke-linecap="square" stroke-linejoin="round"/></svg>