<svg id="target" xmlns="http://www.w3.org/2000/svg" viewBox="0 0 24 24"><title>unicons-things-24px-outlet</title><rect x="4.5" y="2.5" width="16" height="20" rx="1" ry="1" fill="none" stroke="currentColor" stroke-linecap="square" stroke-linejoin="round"/><line x1="11.5" y1="7.5" x2="11.5" y2="9.5" fill="none" stroke="currentColor" stroke-linecap="square" stroke-linejoin="round"/><line x1="13.5" y1="7.5" x2="13.5" y2="9.5" fill="none" stroke="currentColor" stroke-linecap="square" stroke-linejoin="round"/><path d="M15.5,11.5h-6l-.368-1.1a6,6,0,0,1,0-3.795L9.5,5.5h6l.368,1.1a6,6,0,0,1,0,3.795Z" fill="none" stroke="currentColor" stroke-linecap="square" stroke-linejoin="round"/><line x1="11.5" y1="15.5" x2="11.5" y2="17.5" fill="none" stroke="currentColor" stroke-linecap="square" stroke-linejoin="round"/><line x1="13.5" y1="15.5" x2="13.5" y2="17.5" fill="none" stroke="currentColor" stroke-linecap="square" stroke-linejoin="round"/><path d="M15.5,19.5h-6l-.368-1.1a6,6,0,0,1,0-3.795L9.5,13.5h6l.368,1.1a6,6,0,0,1,0,3.795Z" fill="none" stroke="currentColor" stroke-linecap="square" stroke-linejoin="round"/></svg>