<svg id="target" xmlns="http://www.w3.org/2000/svg" viewBox="0 0 24 24"><title>unicons-people-24px-person-walking</title><circle cx="11.5" cy="2.5" r="2" fill="none" stroke="currentColor" stroke-linecap="square" stroke-linejoin="round"/><path d="M12.125,18.834l1.1,3.845a1,1,0,0,0,1.237.686h0a1,1,0,0,0,.686-1.237L13.5,16.36" fill="none" stroke="currentColor" stroke-linejoin="round"/><path d="M11.5,6.5h1a1,1,0,0,1,1,1v4.324a5,5,0,0,1-2.226,4.16l-.328.219a1,1,0,0,0-.445.832V22.5a1,1,0,0,1-2,0V15.813" fill="none" stroke="currentColor" stroke-linejoin="round"/><rect x="8.5" y="6.5" width="2" height="8" rx="1" ry="1" transform="translate(19 21) rotate(180)" fill="none" stroke="currentColor" stroke-linejoin="round"/></svg>