<svg id="target" xmlns="http://www.w3.org/2000/svg" viewBox="0 0 24 24"><title>unicons-people-24px-person-running</title><circle cx="18.218" cy="3.868" r="2" transform="translate(2.601 14.015) rotate(-45)" fill="none" stroke="currentColor" stroke-linecap="square" stroke-linejoin="round"/><path d="M8.318,15.182l-4.95,4.95a1,1,0,0,1-1.414,0h0a1,1,0,0,1,0-1.414l4.95-4.95" fill="none" stroke="currentColor" stroke-linecap="square" stroke-linejoin="round"/><path d="M14.682,5.99l4.95,4.95,2.121-2.121a1,1,0,0,1,1.414,0h0a1,1,0,0,1,0,1.414l-2.828,2.828a1,1,0,0,1-1.414,0L16.1,10.232a1,1,0,0,0-1.414,0l-2.121,2.121a1,1,0,0,0,0,1.414L15.389,16.6a1,1,0,0,1,0,1.414l-4.95,4.95a1,1,0,0,1-1.414,0h0a1,1,0,0,1,0-1.414L13.268,17.3l-4.95-4.95Z" fill="none" stroke="currentColor" stroke-linecap="square" stroke-linejoin="round"/><path d="M13.268,4.575,11.854,3.161a1,1,0,0,0-1.414,0L7.611,5.99a1,1,0,0,0,0,1.414h0a1,1,0,0,0,1.414,0l2.121-2.121.707.707" fill="none" stroke="currentColor" stroke-linecap="square" stroke-linejoin="round"/></svg>