<svg id="target" xmlns="http://www.w3.org/2000/svg" viewBox="0 0 24 24"><title>plane</title><path d="M17.36,16.5h1.483a4,4,0,0,0,2.828-1.172l1.121-1.121a1,1,0,0,0,0-1.414l-1.121-1.121A4,4,0,0,0,18.843,10.5H5.5l-2-4H.5l2.359,7.862A3,3,0,0,0,5.732,16.5H6.36" fill="none" stroke="currentColor" stroke-linecap="square" stroke-linejoin="round"/><polyline points="15.5 14.5 10.5 21.5 6.5 21.5 10.5 14.5" fill="none" stroke="currentColor" stroke-linecap="square" stroke-linejoin="round"/><polyline points="9.5 10.5 7.5 7.5 11.5 7.5 14 10.5" fill="none" stroke="currentColor" stroke-linejoin="round"/><line x1="22" y1="12.5" x2="20" y2="12.5" fill="none" stroke="currentColor" stroke-linecap="square" stroke-linejoin="round"/></svg>