<svg id="target" xmlns="http://www.w3.org/2000/svg" viewBox="0 0 24 24"><title>unicons-things-24px-plug</title><path d="M7.5,5.5h8a0,0,0,0,1,0,0v5a1,1,0,0,1-1,1h-6a1,1,0,0,1-1-1v-5A0,0,0,0,1,7.5,5.5Z" fill="none" stroke="currentColor" stroke-linecap="square" stroke-linejoin="round"/><line x1="9.5" y1="1.5" x2="9.5" y2="3.5" fill="none" stroke="currentColor" stroke-linecap="square" stroke-linejoin="round"/><line x1="13.5" y1="1.5" x2="13.5" y2="3.5" fill="none" stroke="currentColor" stroke-linecap="square" stroke-linejoin="round"/><path d="M19.5,16.5v2a4,4,0,0,1-4,4h0a4,4,0,0,1-4-4v-7" fill="none" stroke="currentColor" stroke-linecap="square" stroke-linejoin="round"/></svg>