<svg id="target" xmlns="http://www.w3.org/2000/svg" viewBox="0 0 24 24"><title>unicons-interface-24px-settings</title><path d="M22.5,11.35v1.3a1,1,0,0,1-.838.99l-1.528.256a1.582,1.582,0,0,0-1.2.956l-.008.02a1.583,1.583,0,0,0,.164,1.532l.9,1.267a1,1,0,0,1-.1,1.29l-.93.93a1,1,0,0,1-1.29.1l-1.267-.9a1.583,1.583,0,0,0-1.532-.164l-.02.008a1.577,1.577,0,0,0-.955,1.2l-.226,1.35A1.069,1.069,0,0,1,12.648,22.5h-1.3a1,1,0,0,1-.99-.838L10.1,20.134a1.582,1.582,0,0,0-.956-1.2l-.02-.008a1.583,1.583,0,0,0-1.532.164l-1.267.9a1,1,0,0,1-1.29-.1l-.93-.93a1,1,0,0,1-.1-1.29l.9-1.267a1.583,1.583,0,0,0,.164-1.532l-.008-.02a1.582,1.582,0,0,0-1.2-.956L2.34,13.64a1.006,1.006,0,0,1-.84-.992v-1.3a1,1,0,0,1,.838-.99L3.866,10.1a1.582,1.582,0,0,0,1.2-.956l.008-.02A1.583,1.583,0,0,0,4.909,7.6L4.01,6.33a1,1,0,0,1,.1-1.29l.93-.93a1,1,0,0,1,1.29-.1l1.267.9a1.583,1.583,0,0,0,1.532.164l.02-.008a1.577,1.577,0,0,0,.955-1.2l.226-1.352A1.067,1.067,0,0,1,11.35,1.5h1.3a1.006,1.006,0,0,1,.992.84L13.9,3.866a1.582,1.582,0,0,0,.956,1.2l.02.008A1.583,1.583,0,0,0,16.4,4.909l1.267-.9a1,1,0,0,1,1.29.1l.93.93a1,1,0,0,1,.1,1.29l-.9,1.267a1.583,1.583,0,0,0-.164,1.532l.008.02a1.582,1.582,0,0,0,1.2.956l1.528.256A1,1,0,0,1,22.5,11.35Z" fill="none" stroke="currentColor" stroke-linecap="square" stroke-linejoin="round"/><circle cx="12" cy="12" r="3.5" fill="none" stroke="currentColor" stroke-linecap="square" stroke-linejoin="round"/></svg>