<svg id="target" xmlns="http://www.w3.org/2000/svg" viewBox="0 0 24 24"><title>ship</title><polyline points="3.5 20.5 0.5 14.5 11.5 9.5 22.5 14.5 19.5 20.5" fill="none" stroke="currentColor" stroke-linecap="square" stroke-linejoin="round"/><path d="M4.5,10.5v-5a1,1,0,0,1,1-1h12a1,1,0,0,1,1,1v5" fill="none" stroke="currentColor" stroke-linecap="square" stroke-linejoin="round"/><polyline points="9.5 2.5 9.5 0.5 13.5 0.5 13.5 2.5" fill="none" stroke="currentColor" stroke-linecap="square" stroke-linejoin="round"/><line x1="11.5" y1="10.5" x2="11.5" y2="20.5" fill="none" stroke="currentColor" stroke-linecap="square" stroke-linejoin="round"/><path d="M21.5,21.5l-1.293,1.293a1,1,0,0,1-1.414,0l-.586-.586a1,1,0,0,0-1.414,0l-.586.586a1,1,0,0,1-1.414,0l-.586-.586a1,1,0,0,0-1.414,0l-.586.586a1,1,0,0,1-1.414,0l-.586-.586a1,1,0,0,0-1.414,0l-.586.586a1,1,0,0,1-1.414,0l-.586-.586a1,1,0,0,0-1.414,0l-.586.586a1,1,0,0,1-1.414,0L1.5,21.5" fill="none" stroke="currentColor" stroke-linecap="square" stroke-linejoin="round"/></svg>