<svg id="target" xmlns="http://www.w3.org/2000/svg" viewBox="0 0 24 24"><title>ship</title><polyline points="3 21 1 15 11.5 9.5 23 15 21 21" fill="none" stroke="currentColor" stroke-linecap="square" stroke-linejoin="round" stroke-width="2"/><path d="M5,11V6A1,1,0,0,1,6,5H18a1,1,0,0,1,1,1v5" fill="none" stroke="currentColor" stroke-linecap="square" stroke-linejoin="round" stroke-width="2"/><polyline points="10 3 10 1 14 1 14 3" fill="none" stroke="currentColor" stroke-linecap="square" stroke-linejoin="round" stroke-width="2"/><line x1="12" y1="11" x2="12" y2="21" fill="none" stroke="currentColor" stroke-linecap="square" stroke-linejoin="round" stroke-width="2"/><path d="M23,21l-1.493,1.493a1,1,0,0,1-1.414,0l-.786-.786a1,1,0,0,0-1.414,0l-.786.786a1,1,0,0,1-1.414,0l-.786-.786a1,1,0,0,0-1.414,0l-.786.786a1,1,0,0,1-1.414,0l-.786-.786a1,1,0,0,0-1.414,0l-.786.786a1,1,0,0,1-1.414,0l-.786-.786a1,1,0,0,0-1.414,0l-.786.786a1,1,0,0,1-1.414,0L1,21" fill="none" stroke="currentColor" stroke-linecap="square" stroke-linejoin="round" stroke-width="2"/></svg>