<svg id="target" xmlns="http://www.w3.org/2000/svg" viewBox="0 0 24 24"><title>unicons-nature-24px-snowflake</title><line x1="12" x2="12" y2="3" fill="none" stroke="currentColor" stroke-linejoin="round"/><line x1="12" y1="7" x2="12" y2="17" fill="none" stroke="currentColor" stroke-linejoin="round"/><polyline points="14 3.5 12 5.5 10 3.5" fill="none" stroke="currentColor" stroke-linejoin="round"/><line x1="12" y1="24" x2="12" y2="21" fill="none" stroke="currentColor" stroke-linejoin="round"/><polyline points="10 20.5 12 18.5 14 20.5" fill="none" stroke="currentColor" stroke-linejoin="round"/><line x1="1.608" y1="6" x2="4.206" y2="7.5" fill="none" stroke="currentColor" stroke-linejoin="round"/><line x1="7.67" y1="9.5" x2="16.33" y2="14.5" fill="none" stroke="currentColor" stroke-linejoin="round"/><polyline points="5.639 6.018 6.371 8.75 3.639 9.482" fill="none" stroke="currentColor" stroke-linejoin="round"/><line x1="22.392" y1="18" x2="19.794" y2="16.5" fill="none" stroke="currentColor" stroke-linejoin="round"/><polyline points="18.361 17.982 17.629 15.25 20.361 14.518" fill="none" stroke="currentColor" stroke-linejoin="round"/><line x1="1.608" y1="18" x2="4.206" y2="16.5" fill="none" stroke="currentColor" stroke-linejoin="round"/><line x1="7.67" y1="14.5" x2="16.33" y2="9.5" fill="none" stroke="currentColor" stroke-linejoin="round"/><polyline points="3.639 14.518 6.371 15.25 5.639 17.982" fill="none" stroke="currentColor" stroke-linejoin="round"/><line x1="22.392" y1="6" x2="19.794" y2="7.5" fill="none" stroke="currentColor" stroke-linejoin="round"/><polyline points="20.361 9.482 17.629 8.75 18.361 6.018" fill="none" stroke="currentColor" stroke-linejoin="round"/></svg>