<svg id="target" xmlns="http://www.w3.org/2000/svg" viewBox="0 0 24 24"><title>unicons-things-24px-stop-sign</title><path d="M16.31.5H7.69a1.1,1.1,0,0,0-.774.321L.821,6.916A1.1,1.1,0,0,0,.5,7.69v8.62a1.1,1.1,0,0,0,.321.774l6.095,6.095a1.1,1.1,0,0,0,.774.321h8.62a1.1,1.1,0,0,0,.774-.321l6.095-6.095a1.1,1.1,0,0,0,.321-.774V7.69a1.1,1.1,0,0,0-.321-.774L17.084.821A1.1,1.1,0,0,0,16.31.5Z" fill="none" stroke="currentColor" stroke-linecap="square" stroke-linejoin="round"/><path d="M15.051,3.5h-6.1a1.133,1.133,0,0,0-.8.332L3.832,8.147a1.133,1.133,0,0,0-.332.8v6.1a1.133,1.133,0,0,0,.332.8l4.315,4.315a1.133,1.133,0,0,0,.8.332h6.1a1.133,1.133,0,0,0,.8-.332l4.315-4.315a1.133,1.133,0,0,0,.332-.8v-6.1a1.133,1.133,0,0,0-.332-.8L15.853,3.832A1.133,1.133,0,0,0,15.051,3.5Z" fill="none" stroke="currentColor" stroke-linecap="square" stroke-linejoin="round"/></svg>