<svg id="target" xmlns="http://www.w3.org/2000/svg" viewBox="0 0 24 24"><title>unicons-interface-24px-tags</title><path d="M21.5,17.5H5.693a1,1,0,0,1-.371-.072L1.129,15.751A1,1,0,0,1,.5,14.823V7.177a1,1,0,0,1,.629-.928L5.321,4.572A1,1,0,0,1,5.693,4.5H21.5a1,1,0,0,1,1,1v11A1,1,0,0,1,21.5,17.5Z" fill="none" stroke="currentColor" stroke-linecap="square" stroke-linejoin="round"/><circle cx="7" cy="11" r="2.5" fill="none" stroke="currentColor" stroke-linecap="square" stroke-linejoin="round"/><path d="M20.623,19.675l-.478,1.562A1,1,0,0,1,18.9,21.9l-7.671-2.348" fill="none" stroke="currentColor" stroke-linecap="square" stroke-linejoin="round"/></svg>