<svg id="target" xmlns="http://www.w3.org/2000/svg" viewBox="0 0 24 24"><title>unicons-people-24px-thumbs-up</title><path d="M20,13.5A1.5,1.5,0,0,1,21.5,15h0A1.5,1.5,0,0,1,20,16.5h-.5" fill="none" stroke="currentColor" stroke-linecap="square" stroke-linejoin="round"/><path d="M20.5,10.5H21A1.5,1.5,0,0,1,22.5,12h0A1.5,1.5,0,0,1,21,13.5h-.5" fill="none" stroke="currentColor" stroke-linecap="square" stroke-linejoin="round"/><path d="M8.5,10a3.984,3.984,0,0,0,1.6-1.5l2.4-4v-3a1,1,0,0,1,1-1h.02a3,3,0,0,1,2.89,3.82L15.5,7.5H21a1.5,1.5,0,0,1,0,3" fill="none" stroke="currentColor" stroke-linecap="square" stroke-linejoin="round"/><path d="M19,16.5a1.5,1.5,0,0,1,0,3H11.64a6.975,6.975,0,0,1-2.22-.36l-.92-.3" fill="none" stroke="currentColor" stroke-linecap="square" stroke-linejoin="round"/><rect x="0.5" y="8.5" width="6" height="12" rx="1" ry="1" fill="none" stroke="currentColor" stroke-linecap="square" stroke-linejoin="round"/></svg>