<svg id="target" xmlns="http://www.w3.org/2000/svg" viewBox="0 0 24 24"><title>truck</title><path d="M8.5,21.5v1a1,1,0,0,1-1,1h-2a1,1,0,0,1-1-1v-1" fill="none" stroke="currentColor" stroke-linecap="square" stroke-linejoin="round"/><path d="M19.5,21.5v1a1,1,0,0,1-1,1h-2a1,1,0,0,1-1-1v-1" fill="none" stroke="currentColor" stroke-linecap="square" stroke-linejoin="round"/><path d="M19.5,13.5v6H4.5V7.5a1,1,0,0,1,1-1h13a1,1,0,0,1,1,1Z" fill="none" stroke="currentColor" stroke-linecap="square" stroke-linejoin="round"/><circle cx="8" cy="16" r="1.5" fill="none" stroke="currentColor" stroke-linecap="square" stroke-linejoin="round"/><circle cx="16" cy="16" r="1.5" fill="none" stroke="currentColor" stroke-linecap="square" stroke-linejoin="round"/><rect x="6.5" y="8.5" width="11" height="4" fill="none" stroke="currentColor" stroke-linecap="square" stroke-linejoin="round"/><polyline points="1.5 19.5 1.5 0.5 22.5 0.5 22.5 19.5" fill="none" stroke="currentColor" stroke-linecap="square" stroke-linejoin="round"/></svg>