<svg id="target" xmlns="http://www.w3.org/2000/svg" viewBox="0 0 24 24"><title>truck</title><path d="M9,21v1a1,1,0,0,1-1,1H6a1,1,0,0,1-1-1V21" fill="none" stroke="currentColor" stroke-linecap="square" stroke-linejoin="round" stroke-width="2"/><path d="M19,21v1a1,1,0,0,1-1,1H16a1,1,0,0,1-1-1V21" fill="none" stroke="currentColor" stroke-linecap="square" stroke-linejoin="round" stroke-width="2"/><path d="M20,13v6H4V6A1,1,0,0,1,5,5H19a1,1,0,0,1,1,1Z" fill="none" stroke="currentColor" stroke-linecap="square" stroke-linejoin="round" stroke-width="2"/><circle cx="8.5" cy="15.5" r="1.5" fill="currentColor"/><circle cx="15.5" cy="15.5" r="1.5" fill="currentColor"/><rect x="7" y="8" width="10" height="4" fill="none" stroke="currentColor" stroke-linecap="square" stroke-linejoin="round" stroke-width="2"/><polyline points="1 19 1 1 23 1 23 19" fill="none" stroke="currentColor" stroke-linecap="square" stroke-linejoin="round" stroke-width="2"/></svg>