<svg id="target" xmlns="http://www.w3.org/2000/svg" viewBox="0 0 24 24"><title>unicons-things-24px-wrench</title><path d="M6.076,19.046a.5.5,0,1,1,.353-.146A.5.5,0,0,1,6.076,19.046Z" fill="#112"/><path d="M6.076,18.546h0m0-1a1,1,0,1,0,.707.293,1,1,0,0,0-.707-.293Z" fill="currentColor"/><path d="M21.279,12.536a6.5,6.5,0,0,1-7.071,1.414L8.183,21.022a3,3,0,0,1-4.405.176l-.354-.354A3,3,0,0,1,3.6,16.439l7.072-6.024a6.5,6.5,0,0,1,6.681-8.939,1,1,0,0,1,.56,1.7L15.268,5.818a1,1,0,0,0,0,1.414L17.39,9.354a1,1,0,0,0,1.414,0l2.645-2.645a1,1,0,0,1,1.7.56A6.487,6.487,0,0,1,21.279,12.536Z" fill="none" stroke="currentColor" stroke-linecap="square" stroke-miterlimit="10" fill-rule="evenodd"/></svg>