<svg id="Layer_1" data-name="Layer 1" xmlns="http://www.w3.org/2000/svg" viewBox="0 0 24 24"><defs><style>.cls-1,.cls-2{fill:none;stroke:#5a5b5e;stroke-linejoin:round;}.cls-1{stroke-linecap:square;}</style></defs><title>unicons-transportation-24px-plane</title><path class="cls-1" d="M17.36,16.5h1.48a4,4,0,0,0,2.83-1.17l1.12-1.12a1,1,0,0,0,0-1.41l-1.12-1.12a4,4,0,0,0-2.83-1.17H5.5l-2-4H.5l2.36,7.86A3,3,0,0,0,5.73,16.5h.63"/><polyline class="cls-1" points="15.5 14.5 10.5 21.5 6.5 21.5 10.5 14.5"/><polyline class="cls-2" points="9.5 10.5 7.5 7.5 11.5 7.5 14 10.5"/><line class="cls-1" x1="22" y1="12.5" x2="20" y2="12.5"/></svg>