<svg id="Layer_1" data-name="Layer 1" xmlns="http://www.w3.org/2000/svg" viewBox="0 0 16 16"><title>unicons-docs-16px-file-photo</title><polygon points="11.5 7.22 11.5 12.5 4.5 12.5 4.5 9.84 6.54 7.61 8.33 9.53 11.5 7.22" style="fill:none;stroke:currentColor;stroke-linecap:square;stroke-linejoin:round"/><circle cx="5.5" cy="4.5" r="1" style="fill:none;stroke:currentColor;stroke-linecap:square;stroke-linejoin:round"/><path d="M13.19,4.45,10.35,1.77a1,1,0,0,0-.69-.27H3.5a1,1,0,0,0-1,1v11a1,1,0,0,0,1,1h9a1,1,0,0,0,1-1V5.18A1,1,0,0,0,13.19,4.45Z" style="fill:none;stroke:currentColor;stroke-linecap:square;stroke-linejoin:round"/></svg>