<svg id="Layer_1" data-name="Layer 1" xmlns="http://www.w3.org/2000/svg" viewBox="0 0 24 24"><title>unity-things-24px-gift</title><rect x="1.5" y="5.5" width="21" height="3" style="fill:none;stroke:currentColor;stroke-linecap:square;stroke-linejoin:round"/><path d="M20.5,10.5v9a1,1,0,0,1-1,1H4.5a1,1,0,0,1-1-1v-9" style="fill:none;stroke:currentColor;stroke-linecap:square;stroke-linejoin:round"/><line x1="10.5" y1="8.5" x2="10.5" y2="5.5" style="fill:none;stroke:currentColor;stroke-linecap:square;stroke-linejoin:round"/><line x1="13.5" y1="5.5" x2="13.5" y2="8.5" style="fill:none;stroke:currentColor;stroke-linecap:square;stroke-linejoin:round"/><line x1="10.5" y1="20.5" x2="10.5" y2="10.5" style="fill:none;stroke:currentColor;stroke-linecap:square;stroke-linejoin:round"/><line x1="13.5" y1="10.5" x2="13.5" y2="20.5" style="fill:none;stroke:currentColor;stroke-linecap:square;stroke-linejoin:round"/><path d="M11.29,5.5A5.21,5.21,0,0,0,9.77,2.73C8.21,1.17,6.15.7,5.17,1.67c-.82.83-.61,2.42.41,3.83" style="fill:none;stroke:currentColor;stroke-linejoin:round"/><path d="M18.42,5.5c1-1.41,1.23-3,.41-3.83-1-1-3-.5-4.6,1.06A5.21,5.21,0,0,0,12.71,5.5" style="fill:none;stroke:currentColor;stroke-linejoin:round"/></svg>