<svg id="Layer_1" data-name="Layer 1" xmlns="http://www.w3.org/2000/svg" viewBox="0 0 24 24"><defs><style>.cls-1{fill:none;stroke:#5a5b5e;stroke-linecap:square;stroke-linejoin:round;}</style></defs><title>unicons-docs-24px-file-video</title><path class="cls-1" d="M19.91,6.91,16.09,3.09a2,2,0,0,0-1.41-.59H4.5a1,1,0,0,0-1,1v18a1,1,0,0,0,1,1h15a1,1,0,0,0,1-1V8.33A2,2,0,0,0,19.91,6.91Z"/><path class="cls-1" d="M8.5,9.35v6.3a.5.5,0,0,0,.74.44l5.68-3.15a.5.5,0,0,0,0-.87L9.24,8.91A.5.5,0,0,0,8.5,9.35Z"/></svg>