<svg id="Layer_1" data-name="Layer 1" xmlns="http://www.w3.org/2000/svg" viewBox="0 0 48 48"><title>unicons-interface-48px-map</title><path d="M45.87,36.5l-13,5.21a1,1,0,0,1-.7,0l-15.3-5.36a1,1,0,0,0-.7,0L3.87,41.3a1,1,0,0,1-1.37-.93V12.93A1,1,0,0,1,3.13,12l13-5.21a1,1,0,0,1,.7,0l15.3,5.36a1,1,0,0,0,.7,0L45.13,7.2a1,1,0,0,1,1.37.93V35.57A1,1,0,0,1,45.87,36.5Z" style="fill:none;stroke:#5a5b5e;stroke-linecap:square;stroke-linejoin:round"/><line x1="16.5" y1="7.5" x2="16.5" y2="36.5" style="fill:none;stroke:#5a5b5e;stroke-linecap:square;stroke-linejoin:round"/><line x1="32.5" y1="12.5" x2="32.5" y2="41.5" style="fill:none;stroke:#5a5b5e;stroke-linecap:square;stroke-linejoin:round"/></svg>