<svg id="Layer_1" data-name="Layer 1" xmlns="http://www.w3.org/2000/svg" viewBox="0 0 48 48"><title>unicons-things-48px-plug</title><path d="M13.5,11.5h16a0,0,0,0,1,0,0v10a2,2,0,0,1-2,2h-12a2,2,0,0,1-2-2v-10A0,0,0,0,1,13.5,11.5Z" style="fill:none;stroke:#5a5b5e;stroke-linecap:square;stroke-linejoin:round"/><line x1="17.5" y1="3.5" x2="17.5" y2="7.5" style="fill:none;stroke:#5a5b5e;stroke-linecap:square;stroke-linejoin:round"/><line x1="25.5" y1="3.5" x2="25.5" y2="7.5" style="fill:none;stroke:#5a5b5e;stroke-linecap:square;stroke-linejoin:round"/><path d="M37.5,33.5v3a8,8,0,0,1-8,8h0a8,8,0,0,1-8-8v-13" style="fill:none;stroke:#5a5b5e;stroke-linecap:square;stroke-linejoin:round"/></svg>