<svg id="Layer_1" data-name="Layer 1" xmlns="http://www.w3.org/2000/svg" viewBox="0 0 24 24"><defs><style>.cls-1{fill:none;stroke:#5a5b5e;stroke-linecap:square;stroke-linejoin:round;}</style></defs><title>unicons-people-24px-contact-card</title><path class="cls-1" d="M3.5,1.5h17a0,0,0,0,1,0,0v19a0,0,0,0,1,0,0H3.5a1,1,0,0,1-1-1V2.5A1,1,0,0,1,3.5,1.5Z"/><line class="cls-1" x1="22.5" y1="2.5" x2="22.5" y2="4.5"/><line class="cls-1" x1="22.5" y1="6.5" x2="22.5" y2="8.5"/><polyline class="cls-1" points="22.5 10.5 22.5 22.5 3.5 22.5"/><circle class="cls-1" cx="11.5" cy="8.5" r="2"/><path class="cls-1" d="M13.73,11.5a3,3,0,0,1,.77,2v1h-6v-1a3,3,0,0,1,.77-2"/></svg>