<svg id="Layer_1" data-name="Layer 1" xmlns="http://www.w3.org/2000/svg" viewBox="0 0 48 48"><title>unicons-docs-48px-file-audio</title><path d="M30.5,28.5v-10a.49.49,0,0,0-.59-.49l-8,1.77a.51.51,0,0,0-.41.5V30.5" style="fill:none;stroke:currentColor;stroke-linecap:square;stroke-linejoin:round"/><path d="M40.33,13.33,32.67,5.67A4,4,0,0,0,29.84,4.5H9.5a2,2,0,0,0-2,2v36a2,2,0,0,0,2,2h30a2,2,0,0,0,2-2V16.16A4,4,0,0,0,40.33,13.33Z" style="fill:none;stroke:currentColor;stroke-linecap:square;stroke-linejoin:round"/><path d="M19,28.5h2.5a0,0,0,0,1,0,0V31A2.5,2.5,0,0,1,19,33.5h0A2.5,2.5,0,0,1,16.5,31v0A2.5,2.5,0,0,1,19,28.5Z" style="fill:none;stroke:currentColor;stroke-linecap:square;stroke-linejoin:round"/><path d="M28,28.5h2.5a0,0,0,0,1,0,0V31A2.5,2.5,0,0,1,28,33.5h0A2.5,2.5,0,0,1,25.5,31v0A2.5,2.5,0,0,1,28,28.5Z" style="fill:none;stroke:currentColor;stroke-linecap:square;stroke-linejoin:round"/></svg>