<svg xmlns="http://www.w3.org/2000/svg" viewBox="0 0 24 24"><defs><style>.cls-1{fill:none;stroke:#5a5b5e;stroke-linecap:square;stroke-linejoin:round;}</style></defs><title>unicons-interface-24px-microphone-muted</title><g id="Layer_14" data-name="Layer 14"><line class="cls-1" x1="2.5" y1="2.5" x2="21.5" y2="21.5"/><path class="cls-1" d="M5.5,12.5v2a4,4,0,0,0,4,4h4.83"/><line class="cls-1" x1="19.5" y1="12.5" x2="19.5" y2="15.5"/><line class="cls-1" x1="5.5" y1="22.5" x2="17.5" y2="22.5"/><line class="cls-1" x1="12.5" y1="18.5" x2="12.5" y2="22.5"/><path class="cls-1" d="M10.5,15.5a2,2,0,0,1-2-2v-1"/><path class="cls-1" d="M8.5,3.5a2,2,0,0,1,2-2h4a2,2,0,0,1,2,2v9"/></g><g id="Layer_38" data-name="Layer 38"><line class="cls-1" x1="10.5" y1="4.5" x2="14.5" y2="4.5"/><line class="cls-1" x1="12.5" y1="6.5" x2="14.5" y2="6.5"/></g></svg>