<svg id="Layer_1" data-name="Layer 1" xmlns="http://www.w3.org/2000/svg" viewBox="0 0 48 48"><title>unicons-basic-48px-arrow-multi-direction</title><line x1="24.5" y1="6.5" x2="24.5" y2="16.5" style="fill:none;stroke:#5a5b5e;stroke-linecap:square;stroke-linejoin:round"/><path d="M18.5,8.5l5.23-5.23a1.09,1.09,0,0,1,1.54,0L30.5,8.5" style="fill:none;stroke:#5a5b5e;stroke-linecap:square;stroke-linejoin:round"/><line x1="24.5" y1="42.5" x2="24.5" y2="32.5" style="fill:none;stroke:#5a5b5e;stroke-linecap:square;stroke-linejoin:round"/><path d="M30.5,40.5l-5.23,5.23a1.09,1.09,0,0,1-1.54,0L18.5,40.5" style="fill:none;stroke:#5a5b5e;stroke-linecap:square;stroke-linejoin:round"/><line x1="42.5" y1="24.5" x2="32.5" y2="24.5" style="fill:none;stroke:#5a5b5e;stroke-linecap:square;stroke-linejoin:round"/><path d="M40.5,18.5l5.23,5.23a1.09,1.09,0,0,1,0,1.54L40.5,30.5" style="fill:none;stroke:#5a5b5e;stroke-linecap:square;stroke-linejoin:round"/><line x1="6.5" y1="24.5" x2="16.5" y2="24.5" style="fill:none;stroke:#5a5b5e;stroke-linecap:square;stroke-linejoin:round"/><path d="M8.5,30.5,3.27,25.27a1.09,1.09,0,0,1,0-1.54L8.5,18.5" style="fill:none;stroke:#5a5b5e;stroke-linecap:square;stroke-linejoin:round"/></svg>