<svg id="Layer_1" data-name="Layer 1" xmlns="http://www.w3.org/2000/svg" viewBox="0 0 48 48"><title>unicons-people-48px-person-running</title><circle cx="35.87" cy="7.18" r="4" transform="translate(5.43 27.47) rotate(-45)" style="fill:none;stroke:currentColor;stroke-linecap:square;stroke-linejoin:round"/><path d="M16.08,29.8l-9.9,9.9a2,2,0,0,1-2.83,0h0a2,2,0,0,1,0-2.83l9.9-9.9" style="fill:none;stroke:currentColor;stroke-linecap:square;stroke-linejoin:round"/><path d="M28.8,11.42l9.9,9.9,4.24-4.24a2,2,0,0,1,2.83,0h0a2,2,0,0,1,0,2.83l-5.66,5.66a2,2,0,0,1-2.83,0L31.63,19.9a2,2,0,0,0-2.83,0l-4.24,4.24a2,2,0,0,0,0,2.83l5.66,5.66a2,2,0,0,1,0,2.83l-9.9,9.9a2,2,0,0,1-2.83,0h0a2,2,0,0,1,0-2.83L26,34l-9.9-9.9Z" style="fill:none;stroke:currentColor;stroke-linecap:square;stroke-linejoin:round"/><path d="M26,8.59,23.15,5.76a2,2,0,0,0-2.83,0l-5.66,5.66a2,2,0,0,0,0,2.83h0a2,2,0,0,0,2.83,0L21.73,10l1.41,1.41" style="fill:none;stroke:currentColor;stroke-linecap:square;stroke-linejoin:round"/></svg>