<svg id="Layer_1" data-name="Layer 1" xmlns="http://www.w3.org/2000/svg" viewBox="0 0 16 16"><title>unity-interface-16px-comment-typing</title><path d="M15.5,2.5v8a1,1,0,0,1-1,1H4.75L1.5,14.71V2.5a1,1,0,0,1,1-1h12A1,1,0,0,1,15.5,2.5Z" style="fill:none;stroke:currentColor;stroke-linecap:square;stroke-linejoin:round"/><path d="M12.5,6a.5.5,0,1,1-.5.5.5.5,0,0,1,.5-.5m0-1A1.5,1.5,0,1,0,14,6.5,1.5,1.5,0,0,0,12.5,5Z" style="fill:currentColor"/><path d="M8.5,6a.5.5,0,1,1-.5.5A.5.5,0,0,1,8.5,6m0-1A1.5,1.5,0,1,0,10,6.5,1.5,1.5,0,0,0,8.5,5Z" style="fill:currentColor"/><path d="M4.5,6a.5.5,0,1,1-.5.5A.5.5,0,0,1,4.5,6m0-1A1.5,1.5,0,1,0,6,6.5,1.5,1.5,0,0,0,4.5,5Z" style="fill:currentColor"/></svg>