<svg id="Layer_1" data-name="Layer 1" xmlns="http://www.w3.org/2000/svg" viewBox="0 0 16 16"><defs><style>.cls-1{fill:none;stroke:#5a5b5e;stroke-linecap:square;stroke-linejoin:round;}</style></defs><title>unicons-docs-16px-file-pdf-1</title><path class="cls-1" d="M13.21,4.46,10.56,1.79a1,1,0,0,0-.71-.29H3.5a1,1,0,0,0-1,1v11a1,1,0,0,0,1,1h9a1,1,0,0,0,1-1V5.16A1,1,0,0,0,13.21,4.46Z"/><path class="cls-1" d="M7.87,9.91c-3,.31-3.24.87-2.92,1.19s1.56-1,2.12-2.56,1-3.59.23-3.59.46,2.14,1.29,3.41,2.11,2.48,2.46,2.12S10.88,9.6,7.87,9.91Z"/></svg>