<svg id="Layer_1" data-name="Layer 1" xmlns="http://www.w3.org/2000/svg" viewBox="0 0 48 48"><title>unicons-nature-48px-moon-night</title><line x1="20.5" y1="20.5" x2="44.5" y2="20.5" style="fill:none;stroke:#5a5b5e;stroke-linecap:square;stroke-linejoin:round"/><line x1="14.5" y1="24.5" x2="38.5" y2="24.5" style="fill:none;stroke:#5a5b5e;stroke-linecap:square;stroke-linejoin:round"/><line x1="20.5" y1="28.5" x2="44.5" y2="28.5" style="fill:none;stroke:#5a5b5e;stroke-linecap:square;stroke-linejoin:round"/><path d="M39,32.5a19.49,19.49,0,0,1-34,0,16.15,16.15,0,0,1-.81-1.61A18,18,0,0,0,7.58,32.5a18,18,0,0,0,11.84,0" style="fill:none;stroke:#5a5b5e;stroke-linecap:square;stroke-linejoin:round"/><path d="M31.47,16.5c0-.33,0-.67,0-1A17.9,17.9,0,0,0,27.6,4.32,19.53,19.53,0,0,1,40.39,16.5" style="fill:none;stroke:#5a5b5e;stroke-linecap:square;stroke-linejoin:round"/></svg>