<svg id="Layer_1" data-name="Layer 1" xmlns="http://www.w3.org/2000/svg" viewBox="0 0 24 24"><defs><style>.cls-1{fill:none;stroke:#5a5b5e;stroke-linecap:square;stroke-linejoin:round;}</style></defs><title>unicons-interface-24px-battery-charging</title><path class="cls-1" d="M14.5,6.5h5a1,1,0,0,1,1,1v11a1,1,0,0,1-1,1h-4"/><path class="cls-1" d="M6.5,19.5h-5a1,1,0,0,1-1-1V7.5a1,1,0,0,1,1-1h4"/><polyline class="cls-1" points="22.5 9.5 23.5 9.5 23.5 16.5 22.5 16.5"/><polygon class="cls-1" points="15.5 11.5 10.5 21.5 10.5 13.5 5.5 13.5 10.5 3.5 10.5 11.5 15.5 11.5"/></svg>