<svg id="Layer_1" data-name="Layer 1" xmlns="http://www.w3.org/2000/svg" viewBox="0 0 16 16"><title>unity-interface-16px-settings</title><circle cx="7.5" cy="7.5" r="2" style="fill:none;stroke:currentColor;stroke-linecap:square;stroke-linejoin:round"/><path d="M14.5,8.5l-1.63.33a1,1,0,0,0-.63,1.54l.92,1.38-1.42,1.42-1.38-.92a1,1,0,0,0-1.54.63L8.5,14.5h-2l-.33-1.63a1,1,0,0,0-1.54-.63l-1.38.92L1.84,11.74l.92-1.38a1,1,0,0,0-.63-1.54L.5,8.5v-2l1.63-.33a1,1,0,0,0,.63-1.54L1.84,3.26,3.26,1.84l1.38.92a1,1,0,0,0,1.54-.63L6.5.5h2l.33,1.63a1,1,0,0,0,1.54.63l1.38-.92,1.42,1.42-.92,1.38a1,1,0,0,0,.63,1.54l1.63.33Z" style="fill:none;stroke:currentColor;stroke-linecap:square;stroke-linejoin:round"/></svg>