<svg id="Layer_1" data-name="Layer 1" xmlns="http://www.w3.org/2000/svg" viewBox="0 0 24 24"><defs><style>.cls-1{fill:none;stroke:#5a5b5e;stroke-linecap:square;stroke-linejoin:round;}</style></defs><title>unicons-things-24px-plug</title><path class="cls-1" d="M7.5,5.5h8a0,0,0,0,1,0,0v5a1,1,0,0,1-1,1h-6a1,1,0,0,1-1-1v-5A0,0,0,0,1,7.5,5.5Z"/><line class="cls-1" x1="9.5" y1="1.5" x2="9.5" y2="3.5"/><line class="cls-1" x1="13.5" y1="1.5" x2="13.5" y2="3.5"/><path class="cls-1" d="M19.5,16.5v2a4,4,0,0,1-4,4h0a4,4,0,0,1-4-4v-7"/></svg>