<svg id="Layer_1" data-name="Layer 1" xmlns="http://www.w3.org/2000/svg" viewBox="0 0 16 16"><title>unicons-docs-16px-file-jpg</title><path d="M2.29,10.34A.46.46,0,0,1,2.11,10a.44.44,0,0,1,.44-.44.42.42,0,0,1,.28.1.89.89,0,0,0,.56.21c.36,0,.58-.21.58-.7V6.88a.46.46,0,1,1,.92,0V9.2a1.53,1.53,0,0,1-.4,1.12,1.5,1.5,0,0,1-1.09.39A1.78,1.78,0,0,1,2.29,10.34Z" style="fill:#5a5b5e"/><path d="M5.95,6.45H7.66A1.44,1.44,0,0,1,9.27,7.9h0a1.5,1.5,0,0,1-1.7,1.48h-.7v.83a.46.46,0,1,1-.92,0ZM7.6,8.57a.65.65,0,0,0,.73-.64h0c0-.41-.29-.64-.75-.64H6.87V8.57Z" style="fill:#5a5b5e"/><path d="M9.89,8.56h0a2.15,2.15,0,0,1,2.2-2.17,2.32,2.32,0,0,1,1.43.41.46.46,0,0,1-.26.83.45.45,0,0,1-.28-.1,1.47,1.47,0,0,0-.92-.29,1.26,1.26,0,0,0-1.21,1.31h0a1.26,1.26,0,0,0,1.27,1.33A1.47,1.47,0,0,0,13,9.63V9h-.62a.4.4,0,0,1-.4-.4.4.4,0,0,1,.4-.4h1.52V9.71a.62.62,0,0,1-.32.59,2.79,2.79,0,0,1-1.47.42A2.1,2.1,0,0,1,9.89,8.56Z" style="fill:#5a5b5e"/><path d="M2.5,4.5v-2a1,1,0,0,1,1-1H10a1,1,0,0,1,.71.29l2.35,2.35" style="fill:none;stroke:#5a5b5e;stroke-linecap:square;stroke-linejoin:round"/><path d="M13.5,12.5v1a1,1,0,0,1-1,1h-9a1,1,0,0,1-1-1v-1" style="fill:none;stroke:#5a5b5e;stroke-linecap:square;stroke-linejoin:round"/></svg>