<svg id="Layer_1" data-name="Layer 1" xmlns="http://www.w3.org/2000/svg" viewBox="0 0 48 48"><title>unicons-nature-48px-snowflake</title><line x1="24.5" x2="24.5" y2="6" style="fill:none;stroke:#5a5b5e;stroke-linejoin:round"/><line x1="24.5" y1="14" x2="24.5" y2="34" style="fill:none;stroke:#5a5b5e;stroke-linejoin:round"/><polyline points="28.5 6.5 24.5 10.5 20.5 6.5" style="fill:none;stroke:#5a5b5e;stroke-linejoin:round"/><polyline points="20.5 41.5 24.5 37.5 28.5 41.5" style="fill:none;stroke:#5a5b5e;stroke-linejoin:round"/><line x1="24.5" y1="48" x2="24.5" y2="42" style="fill:none;stroke:#5a5b5e;stroke-linejoin:round"/><line x1="24.5" x2="24.5" y2="7" style="fill:none;stroke:#5a5b5e;stroke-linejoin:round"/><line x1="24.5" y1="14" x2="24.5" y2="34" style="fill:none;stroke:#5a5b5e;stroke-linejoin:round"/><polyline points="28.5 6.5 24.5 10.5 20.5 6.5" style="fill:none;stroke:#5a5b5e;stroke-linejoin:round"/><polyline points="20.5 41.5 24.5 37.5 28.5 41.5" style="fill:none;stroke:#5a5b5e;stroke-linejoin:round"/><line x1="24.5" y1="48" x2="24.5" y2="41" style="fill:none;stroke:#5a5b5e;stroke-linejoin:round"/><line x1="3.72" y1="12" x2="8.91" y2="15" style="fill:none;stroke:#5a5b5e;stroke-linejoin:round"/><line x1="15.84" y1="19" x2="33.16" y2="29" style="fill:none;stroke:#5a5b5e;stroke-linejoin:round"/><polyline points="11.35 11.79 12.81 17.25 7.34 18.71" style="fill:none;stroke:#5a5b5e;stroke-linejoin:round"/><polyline points="37.66 36.21 36.19 30.75 41.66 29.29" style="fill:none;stroke:#5a5b5e;stroke-linejoin:round"/><line x1="45.28" y1="36" x2="40.09" y2="33" style="fill:none;stroke:#5a5b5e;stroke-linejoin:round"/><line x1="3.72" y1="36" x2="8.91" y2="33" style="fill:none;stroke:#5a5b5e;stroke-linejoin:round"/><line x1="15.84" y1="29" x2="33.16" y2="19" style="fill:none;stroke:#5a5b5e;stroke-linejoin:round"/><polyline points="7.34 29.29 12.81 30.75 11.35 36.21" style="fill:none;stroke:#5a5b5e;stroke-linejoin:round"/><polyline points="41.66 18.71 36.19 17.25 37.66 11.79" style="fill:none;stroke:#5a5b5e;stroke-linejoin:round"/><line x1="45.28" y1="12" x2="40.09" y2="15" style="fill:none;stroke:#5a5b5e;stroke-linejoin:round"/></svg>