<svg id="Layer_1" data-name="Layer 1" xmlns="http://www.w3.org/2000/svg" viewBox="0 0 48 48"><defs><style>.cls-1{fill:none;stroke:#5a5b5e;stroke-linecap:square;stroke-linejoin:round;}</style></defs><title>unicons-docs-48px-file-code</title><path class="cls-1" d="M40.33,13.33,32.67,5.67A4,4,0,0,0,29.84,4.5H9.5a2,2,0,0,0-2,2v36a2,2,0,0,0,2,2h30a2,2,0,0,0,2-2V16.16A4,4,0,0,0,40.33,13.33Z"/><line class="cls-1" x1="25.5" y1="30.5" x2="33.5" y2="30.5"/><path class="cls-1" d="M17,18.5l4.59,4.59a2,2,0,0,1,0,2.83L17,30.5"/></svg>