<svg id="Layer_1" data-name="Layer 1" xmlns="http://www.w3.org/2000/svg" viewBox="0 0 24 24"><title>unity-basic-24px-arrow-multi-direction</title><line x1="12.5" y1="2.5" x2="12.5" y2="8.5" style="fill:none;stroke:currentColor;stroke-linecap:square;stroke-linejoin:round"/><line x1="12.5" y1="22.5" x2="12.5" y2="16.5" style="fill:none;stroke:currentColor;stroke-linecap:square;stroke-linejoin:round"/><line x1="22.5" y1="12.5" x2="16.5" y2="12.5" style="fill:none;stroke:currentColor;stroke-linecap:square;stroke-linejoin:round"/><line x1="2.5" y1="12.5" x2="8.5" y2="12.5" style="fill:none;stroke:currentColor;stroke-linecap:square;stroke-linejoin:round"/><path d="M9.5,4.5l2.29-2.29a1,1,0,0,1,1.41,0L15.5,4.5" style="fill:none;stroke:currentColor;stroke-linecap:square;stroke-linejoin:round"/><path d="M20.5,9.5l2.29,2.29a1,1,0,0,1,0,1.41L20.5,15.5" style="fill:none;stroke:currentColor;stroke-linecap:square;stroke-linejoin:round"/><path d="M4.5,15.5,2.21,13.21a1,1,0,0,1,0-1.41L4.5,9.5" style="fill:none;stroke:currentColor;stroke-linecap:square;stroke-linejoin:round"/><path d="M15.5,20.5l-2.29,2.29a1,1,0,0,1-1.41,0L9.5,20.5" style="fill:none;stroke:currentColor;stroke-linecap:square;stroke-linejoin:round"/></svg>