<svg id="Layer_1" data-name="Layer 1" xmlns="http://www.w3.org/2000/svg" viewBox="0 0 16 16"><defs><style>.cls-1{fill:none;stroke:#5a5b5e;stroke-linecap:square;stroke-linejoin:round;}</style></defs><title>unicons-people-16px-thumbs-up</title><rect class="cls-1" x="0.5" y="6.5" width="3" height="8"/><path class="cls-1" d="M14.5,7.5a1,1,0,0,1,1,1h0a1,1,0,0,1-1,1h-1"/><path class="cls-1" d="M13.5,9.5a1,1,0,0,1,1,1h0a1,1,0,0,1-1,1h-1"/><path class="cls-1" d="M12.5,11.5a1,1,0,0,1,1,1h0a1,1,0,0,1-1,1H6.81a6,6,0,0,1-1.86-.3l-.43-.14"/><path class="cls-1" d="M4.64,7.29A2.85,2.85,0,0,0,5.79,6.21L7.5,3.36V1.21A.72.72,0,0,1,8.21.5h.21a2,2,0,0,1,1.92,2.55L9.64,5.5H14.5a1,1,0,0,1,1,1h0a1,1,0,0,1-1,1h-1"/></svg>