<svg xmlns="http://www.w3.org/2000/svg" viewBox="0 0 24 24"><defs><style>.cls-1{fill:none;stroke:#5a5b5e;stroke-linecap:square;stroke-linejoin:round;}</style></defs><title>unicons-interface-24px-visibility-off</title><g id="Layer_1" data-name="Layer 1"><path class="cls-1" d="M9.75,4.79A9,9,0,0,1,12,4.5c4.8,0,8.78,4.09,10.54,6.23a2,2,0,0,1,0,2.54,23.87,23.87,0,0,1-2.08,2.23"/><path class="cls-1" d="M14.26,19.21A9,9,0,0,1,12,19.5c-4.8,0-8.78-4.09-10.54-6.23a2,2,0,0,1,0-2.54A23.87,23.87,0,0,1,3.54,8.5"/><circle class="cls-1" cx="12" cy="12" r="3.5"/></g><g id="Layer_14" data-name="Layer 14"><line class="cls-1" x1="2.5" y1="2.5" x2="21.5" y2="21.5"/></g></svg>