<svg id="Layer_1" data-name="Layer 1" xmlns="http://www.w3.org/2000/svg" viewBox="0 0 48 48"><defs><style>.cls-1{fill:none;stroke:#5a5b5e;stroke-linecap:square;stroke-linejoin:round;}</style></defs><title>unicons-nature-48px-cloud-rain</title><line class="cls-1" x1="9.5" y1="39.5" x2="9.5" y2="45.5"/><line class="cls-1" x1="15.5" y1="39.5" x2="15.5" y2="43.5"/><line class="cls-1" x1="21.5" y1="39.5" x2="21.5" y2="43.5"/><line class="cls-1" x1="27.5" y1="39.5" x2="27.5" y2="43.5"/><line class="cls-1" x1="33.5" y1="39.5" x2="33.5" y2="45.5"/><line class="cls-1" x1="39.5" y1="39.5" x2="39.5" y2="43.5"/><path class="cls-1" d="M13.68,17.5a11,11,0,0,1,10.82-9"/><path class="cls-1" d="M46.5,26.5a9,9,0,0,1-9,9h-27A9,9,0,0,1,8.6,17.7a16,16,0,0,1,31.83.3A9,9,0,0,1,46.5,26.5Z"/></svg>