<svg id="Layer_1" data-name="Layer 1" xmlns="http://www.w3.org/2000/svg" viewBox="0 0 24 24"><title>unity-people-24px-person-walking</title><circle cx="11.5" cy="2.5" r="2" style="fill:none;stroke:currentColor;stroke-linecap:square;stroke-linejoin:round"/><path d="M12.13,18.83l1.1,3.85a1,1,0,0,0,1.24.69h0a1,1,0,0,0,.69-1.24L13.5,16.36" style="fill:none;stroke:currentColor;stroke-linejoin:round"/><path d="M11.5,6.5h1a1,1,0,0,1,1,1v4.32A5,5,0,0,1,11.27,16l-.33.22a1,1,0,0,0-.45.83V22.5a1,1,0,0,1-2,0V15.81" style="fill:none;stroke:currentColor;stroke-linejoin:round"/><rect x="8.5" y="6.5" width="2" height="8" rx="1" ry="1" transform="translate(19 21) rotate(180)" style="fill:none;stroke:currentColor;stroke-linejoin:round"/></svg>