<svg id="icons" xmlns="http://www.w3.org/2000/svg" viewBox="0 0 16 16"><title>unicons-things-16px-power-cord</title><rect x="0.5" y="2.5" width="4" height="3" style="fill:none;stroke:#5a5b5e;stroke-linecap:square;stroke-linejoin:round"/><line x1="1.5" y1="0.5" x2="1.5" y2="2.5" style="fill:none;stroke:#5a5b5e;stroke-linecap:square;stroke-linejoin:round"/><line x1="3.5" y1="0.5" x2="3.5" y2="2.5" style="fill:none;stroke:#5a5b5e;stroke-linecap:square;stroke-linejoin:round"/><path d="M2.5,5.5v8a1,1,0,0,0,1,1h0a1,1,0,0,0,1-1v-5a1,1,0,0,1,1-1h0a1,1,0,0,1,1,1v5a1,1,0,0,0,1,1h0a1,1,0,0,0,1-1v-5a1,1,0,0,1,1-1h0a1,1,0,0,1,1,1v5a1,1,0,0,0,1,1h0a1,1,0,0,0,1-1v-5a1,1,0,0,1,1-1h0a1,1,0,0,1,1,1v3h1" style="fill:none;stroke:#5a5b5e;stroke-linecap:square;stroke-linejoin:round"/></svg>