<svg id="Layer_1" data-name="Layer 1" xmlns="http://www.w3.org/2000/svg" viewBox="0 0 48 48"><defs><style>.cls-1{fill:none;stroke:#5a5b5e;stroke-linecap:square;stroke-linejoin:round;}</style></defs><title>unicons-people-48px-contact-card</title><path class="cls-1" d="M6.5,2.5h34a0,0,0,0,1,0,0v38a0,0,0,0,1,0,0H6.5a2,2,0,0,1-2-2V4.5A2,2,0,0,1,6.5,2.5Z"/><line class="cls-1" x1="44.5" y1="4.5" x2="44.5" y2="8.5"/><line class="cls-1" x1="44.5" y1="12.5" x2="44.5" y2="16.5"/><polyline class="cls-1" points="44.5 20.5 44.5 44.5 6.5 44.5"/><circle class="cls-1" cx="22.5" cy="16.5" r="4"/><path class="cls-1" d="M27,22.5a5.93,5.93,0,0,1,1.54,4v2h-12v-2a5.93,5.93,0,0,1,1.54-4"/></svg>