<svg id="Layer_1" data-name="Layer 1" xmlns="http://www.w3.org/2000/svg" viewBox="0 0 16 16"><title>unicons-people-16px-person-running</title><circle cx="11.5" cy="2.5" r="1" transform="translate(1.6 8.86) rotate(-45)" style="fill:none;stroke:currentColor;stroke-linecap:square;stroke-linejoin:round"/><path d="M4.43,11,2.72,12.69a1,1,0,0,1-1.41,0h0a1,1,0,0,1,0-1.41L3,9.57" style="fill:none;stroke:currentColor;stroke-linecap:square;stroke-linejoin:round"/><path d="M8.67,3.91l3.54,3.54L13.62,6A1,1,0,0,1,15,6h0a1,1,0,0,1,0,1.41L12.91,9.57a1,1,0,0,1-1.41,0L8.67,6.74,7.26,8.16l3.54,3.54L7.26,15.23a1,1,0,0,1-1.41,0h0a1,1,0,0,1,0-1.41L8,11.69,4.43,8.16Z" style="fill:none;stroke:currentColor;stroke-linecap:square;stroke-linejoin:round"/><path d="M7.26,2.5l-.71-.71a1,1,0,0,0-1.41,0L3.23,3.7a1,1,0,0,0,0,1.41h0a1,1,0,0,0,1.41,0l1.2-1.2h0" style="fill:none;stroke:currentColor;stroke-linecap:square;stroke-linejoin:round"/></svg>