<svg id="Layer_1" data-name="Layer 1" xmlns="http://www.w3.org/2000/svg" viewBox="0 0 48 48"><title>unicons-interface-48px-warning</title><path d="M3.64,38.62,21,6.12a4,4,0,0,1,7.06,0l17.33,32.5a4,4,0,0,1-3.53,5.88H7.17A4,4,0,0,1,3.64,38.62Z" style="fill:none;stroke:currentColor;stroke-linecap:square;stroke-linejoin:round"/><line x1="24.5" y1="32" x2="24.5" y2="16" style="fill:none;stroke:currentColor;stroke-linejoin:round"/><path d="M24.5,36a.5.5,0,1,1-.5.5.5.5,0,0,1,.5-.5m0-1A1.5,1.5,0,1,0,26,36.5,1.5,1.5,0,0,0,24.5,35Z" style="fill:currentColor"/></svg>