<svg id="Layer_1" data-name="Layer 1" xmlns="http://www.w3.org/2000/svg" viewBox="0 0 48 48"><title>unicons-people-48px-person-walking</title><circle cx="23.5" cy="5.5" r="4" style="fill:none;stroke:#5a5b5e;stroke-linecap:square;stroke-linejoin:round"/><path d="M24.41,37.67l2.2,7.69a2,2,0,0,0,2.47,1.37h0a2,2,0,0,0,1.37-2.47L27.15,32.72" style="fill:none;stroke:#5a5b5e;stroke-linejoin:round"/><path d="M23,13.5h2.5a2,2,0,0,1,2,2v8.65A10,10,0,0,1,23,32.47l-.66.44a2,2,0,0,0-.89,1.66V44.5a2,2,0,0,1-2,2h0a2,2,0,0,1-2-2V32" style="fill:none;stroke:#5a5b5e;stroke-linejoin:round"/><rect x="17.5" y="13.5" width="4" height="16" rx="2" ry="2" transform="translate(39 43) rotate(180)" style="fill:none;stroke:#5a5b5e;stroke-linejoin:round"/></svg>