<svg id="Layer_1" data-name="Layer 1" xmlns="http://www.w3.org/2000/svg" viewBox="0 0 16 16"><title>unicons-docs-16px-folder-open</title><path d="M1.5,9.5v-7a1,1,0,0,1,1-1H5.88a1,1,0,0,1,.46.11l1.5.78a1,1,0,0,0,.46.11h4.2a1,1,0,0,1,1,1v1" style="fill:none;stroke:currentColor;stroke-linecap:square;stroke-linejoin:round"/><path d="M12.32,13.5h-10a.65.65,0,0,1-.61-.85L3.88,6.93a.67.67,0,0,1,.63-.43h9.9a.67.67,0,0,1,.63.9l-2.11,5.65A.65.65,0,0,1,12.32,13.5Z" style="fill:none;stroke:currentColor;stroke-linecap:square;stroke-linejoin:round"/></svg>