<svg id="Layer_1" data-name="Layer 1" xmlns="http://www.w3.org/2000/svg" viewBox="0 0 48 48"><title>unicons-docs-48px-file-csv</title><rect x="3.5" y="16.5" width="42" height="17" rx="2" ry="2" style="fill:none;stroke:currentColor;stroke-linecap:square;stroke-linejoin:round"/><path d="M7.5,12.5v-6a2,2,0,0,1,2-2H29.84a4,4,0,0,1,2.84,1.18L39.5,12.5" style="fill:none;stroke:currentColor;stroke-linecap:square;stroke-linejoin:round"/><path d="M41.5,37.5v5a2,2,0,0,1-2,2H9.5a2,2,0,0,1-2-2v-5" style="fill:none;stroke:currentColor;stroke-linecap:square;stroke-linejoin:round"/><path d="M12.43,25.08v0a4.25,4.25,0,0,1,4.33-4.34,4.4,4.4,0,0,1,2.88.95.74.74,0,0,1,.29.59.74.74,0,0,1-1.18.58,3,3,0,0,0-2-.75A2.82,2.82,0,0,0,14,25v0a2.83,2.83,0,0,0,2.77,3,3,3,0,0,0,2.1-.8.67.67,0,0,1,.44-.17.69.69,0,0,1,.46,1.21,4.29,4.29,0,0,1-3,1.13A4.22,4.22,0,0,1,12.43,25.08Z" style="fill:currentColor"/><path d="M21.44,28.31a.69.69,0,0,1-.29-.56.71.71,0,0,1,1.13-.55,3.64,3.64,0,0,0,2.35.86c.91,0,1.49-.43,1.49-1.06v0c0-.6-.34-.92-1.9-1.28-1.79-.43-2.79-1-2.79-2.51v0c0-1.44,1.2-2.43,2.87-2.43a4.62,4.62,0,0,1,2.66.78.67.67,0,0,1,.32.59.69.69,0,0,1-.7.68.71.71,0,0,1-.38-.11A3.49,3.49,0,0,0,24.27,22c-.86,0-1.37.44-1.37,1v0c0,.65.38.94,2,1.32,1.77.43,2.69,1.07,2.69,2.46v0c0,1.57-1.24,2.51-3,2.51A5.23,5.23,0,0,1,21.44,28.31Z" style="fill:currentColor"/><path d="M31.5,28.77l-2.94-6.91a.83.83,0,0,1-.08-.35.73.73,0,0,1,.74-.72.77.77,0,0,1,.76.53l2.42,6.06,2.46-6.1a.76.76,0,0,1,.71-.48.71.71,0,0,1,.73.71.85.85,0,0,1-.07.31l-3,7a.88.88,0,0,1-.85.6h-.08A.88.88,0,0,1,31.5,28.77Z" style="fill:currentColor"/></svg>