<svg id="Layer_1" data-name="Layer 1" xmlns="http://www.w3.org/2000/svg" viewBox="0 0 48 48"><title>unicons-docs-48px-envelope-open</title><path d="M44.36,13l-19-9a2,2,0,0,0-1.72,0l-19,9A2,2,0,0,0,3.5,14.76V39.5a2,2,0,0,0,2,2h38a2,2,0,0,0,2-2V14.76A2,2,0,0,0,44.36,13Z" style="fill:none;stroke:#5a5b5e;stroke-linecap:square;stroke-linejoin:round"/><path d="M42.5,20.5,28.42,29.29a8,8,0,0,1-7.84,0L6.5,20.5" style="fill:none;stroke:#5a5b5e;stroke-linecap:square;stroke-linejoin:round"/><path d="M9.5,22.5v-7a1,1,0,0,1,1-1h28a1,1,0,0,1,1,1v7" style="fill:none;stroke:#5a5b5e;stroke-linejoin:round"/></svg>