<svg id="Layer_1" data-name="Layer 1" xmlns="http://www.w3.org/2000/svg" viewBox="0 0 24 24"><defs><style>.cls-1{fill:none;stroke:#5a5b5e;stroke-linecap:square;stroke-linejoin:round;}</style></defs><title>unicons-docs-24px-folder-open</title><path class="cls-1" d="M1.5,15.5v-12a1,1,0,0,1,1-1h6a1.94,1.94,0,0,1,1.09.34l1.93,1.32a1.94,1.94,0,0,0,1.09.34h6a1,1,0,0,1,1,1v2"/><path class="cls-1" d="M18.63,20.5H3a1,1,0,0,1-1-1.34l3.37-9a1,1,0,0,1,1-.66H22a1,1,0,0,1,1,1.37L19.6,19.81A1,1,0,0,1,18.63,20.5Z"/></svg>