<svg id="Layer_1" data-name="Layer 1" xmlns="http://www.w3.org/2000/svg" viewBox="0 0 48 48"><defs><style>.cls-1,.cls-2{fill:none;stroke:#5a5b5e;stroke-linejoin:round;}.cls-2{stroke-linecap:square;}</style></defs><title>unicons-docs-48px-folder-shared</title><line class="cls-1" x1="14.5" y1="29.5" x2="14.5" y2="35.5"/><circle class="cls-2" cx="24.5" cy="24.5" r="2"/><circle class="cls-2" cx="14.5" cy="24.5" r="2"/><circle class="cls-2" cx="34.5" cy="24.5" r="2"/><line class="cls-1" x1="24.5" y1="29.5" x2="24.5" y2="35.5"/><line class="cls-2" x1="10.5" y1="29.5" x2="38.5" y2="29.5"/><line class="cls-1" x1="34.5" y1="29.5" x2="34.5" y2="35.5"/><path class="cls-2" d="M8.5,15.5h34a2,2,0,0,1,2,2v23a2,2,0,0,1-2,2H6.5a2,2,0,0,1-2-2V8.5a2,2,0,0,1,2-2H17.7a2,2,0,0,1,1.13.35l4.81,3.3a2,2,0,0,0,1.13.35H40.5a2,2,0,0,1,2,2h0"/></svg>