<svg id="Layer_1" data-name="Layer 1" xmlns="http://www.w3.org/2000/svg" viewBox="0 0 16 16"><title>unity-interface-16px-battery-charging</title><path d="M9.5,4.5h3a1,1,0,0,1,1,1v7a1,1,0,0,1-1,1h-2" style="fill:none;stroke:#5a5b5e;stroke-linecap:square;stroke-linejoin:round"/><path d="M4.5,13.5h-3a1,1,0,0,1-1-1v-7a1,1,0,0,1,1-1h2" style="fill:none;stroke:#5a5b5e;stroke-linecap:square;stroke-linejoin:round"/><polyline points="14.5 6.5 15.5 6.5 15.5 11.5 14.5 11.5" style="fill:none;stroke:#5a5b5e;stroke-linecap:square;stroke-linejoin:round"/><polygon points="10.31 7.5 7.5 14.44 7.5 10.5 3.71 10.5 7.5 2.56 7.5 7.5 10.31 7.5" style="fill:none;stroke:#5a5b5e;stroke-linecap:square;stroke-linejoin:round"/></svg>