<svg id="icons" xmlns="http://www.w3.org/2000/svg" viewBox="0 0 16 16"><title>unicons-things-16px-database</title><line x1="6.5" y1="8.5" x2="6.5" y2="9.5" style="fill:none;stroke:currentColor;stroke-linecap:square;stroke-linejoin:round"/><line x1="6.5" y1="5.5" x2="6.5" y2="6.5" style="fill:none;stroke:currentColor;stroke-linecap:square;stroke-linejoin:round"/><line x1="6.5" y1="11.5" x2="6.5" y2="12.5" style="fill:none;stroke:currentColor;stroke-linecap:square;stroke-linejoin:round"/><path d="M3.5,13c0,.83,2.24,1.5,5,1.5s5-.67,5-1.5V4c0-.83-2.24-1.5-5-1.5s-5,.67-5,1.5Z" style="fill:none;stroke:currentColor;stroke-linecap:square;stroke-linejoin:round"/><path d="M13.5,4c0,.83-2.24,1.5-5,1.5s-5-.67-5-1.5" style="fill:none;stroke:currentColor;stroke-linejoin:round"/><path d="M13.5,7c0,.83-2.24,1.5-5,1.5s-5-.67-5-1.5" style="fill:none;stroke:currentColor;stroke-linejoin:round"/><path d="M13.5,10c0,.83-2.24,1.5-5,1.5s-5-.67-5-1.5" style="fill:none;stroke:currentColor;stroke-linejoin:round"/></svg>