<svg id="Layer_1" data-name="Layer 1" xmlns="http://www.w3.org/2000/svg" viewBox="0 0 24 24"><defs><style>.cls-1{fill:none;stroke:#5a5b5e;stroke-linecap:square;stroke-linejoin:round;}</style></defs><title>unicons-transportation-24px-car</title><path class="cls-1" d="M7.5,21.5v1a1,1,0,0,1-1,1h-3a1,1,0,0,1-1-1v-1"/><path class="cls-1" d="M21.5,21.5v1a1,1,0,0,1-1,1h-3a1,1,0,0,1-1-1v-1"/><path class="cls-1" d="M23.5,14.5v5H.5v-5a2,2,0,0,1,2-2h0L5.26,5.15a1,1,0,0,1,.94-.65H17.81a1,1,0,0,1,.94.65L21.5,12.5h0A2,2,0,0,1,23.5,14.5Z"/><circle class="cls-1" cx="4" cy="16" r="1.5"/><circle class="cls-1" cx="20" cy="16" r="1.5"/><polygon class="cls-1" points="18.5 11.5 5.5 11.5 7.5 6.5 16.5 6.5 18.5 11.5"/><line class="cls-1" x1="7.5" y1="15.5" x2="16.5" y2="15.5"/></svg>