<svg id="Layer_1" data-name="Layer 1" xmlns="http://www.w3.org/2000/svg" viewBox="0 0 48 48"><defs><style>.cls-1{fill:none;stroke:#5a5b5e;stroke-linecap:square;stroke-linejoin:round;}</style></defs><title>unicons-interface-48px-microphone-muted</title><line class="cls-1" x1="5" y1="5" x2="43" y2="43"/><path class="cls-1" d="M11.5,25.5v4a8,8,0,0,0,8,8h10"/><line class="cls-1" x1="39.5" y1="25.5" x2="39.5" y2="31.5"/><line class="cls-1" x1="11.5" y1="45.5" x2="35.5" y2="45.5"/><line class="cls-1" x1="25.5" y1="37.5" x2="25.5" y2="45.5"/><path class="cls-1" d="M21.5,31a4,4,0,0,1-4-4V25.5"/><path class="cls-1" d="M17.5,7.5a4,4,0,0,1,4-4h8a4,4,0,0,1,4,4v18"/><line class="cls-1" x1="22.5" y1="11.5" x2="29.5" y2="11.5"/><line class="cls-1" x1="21.5" y1="7.5" x2="29.5" y2="7.5"/><line class="cls-1" x1="24.5" y1="15.5" x2="29.5" y2="15.5"/></svg>