<svg id="Layer_1" data-name="Layer 1" xmlns="http://www.w3.org/2000/svg" viewBox="0 0 24 24"><title>unity-things-24px-hardware</title><rect x="0.5" y="9.5" width="23" height="12" rx="1" ry="1" style="fill:none;stroke:currentColor;stroke-linejoin:round"/><line x1="7" y1="18.5" x2="17" y2="18.5" style="fill:none;stroke:currentColor;stroke-linejoin:round"/><line x1="3" y1="18.5" x2="5" y2="18.5" style="fill:none;stroke:currentColor;stroke-linejoin:round"/><line x1="3" y1="15.5" x2="5" y2="15.5" style="fill:none;stroke:currentColor;stroke-linejoin:round"/><line x1="19" y1="18.5" x2="21" y2="18.5" style="fill:none;stroke:currentColor;stroke-linejoin:round"/><line x1="19" y1="15.5" x2="21" y2="15.5" style="fill:none;stroke:currentColor;stroke-linejoin:round"/><line x1="3" y1="12.5" x2="5" y2="12.5" style="fill:none;stroke:currentColor;stroke-linejoin:round"/><line x1="7" y1="15.5" x2="9" y2="15.5" style="fill:none;stroke:currentColor;stroke-linejoin:round"/><line x1="7" y1="12.5" x2="9" y2="12.5" style="fill:none;stroke:currentColor;stroke-linejoin:round"/><line x1="11" y1="15.5" x2="13" y2="15.5" style="fill:none;stroke:currentColor;stroke-linejoin:round"/><line x1="11" y1="12.5" x2="13" y2="12.5" style="fill:none;stroke:currentColor;stroke-linejoin:round"/><line x1="15" y1="15.5" x2="17" y2="15.5" style="fill:none;stroke:currentColor;stroke-linejoin:round"/><line x1="15" y1="12.5" x2="17" y2="12.5" style="fill:none;stroke:currentColor;stroke-linejoin:round"/><line x1="19" y1="12.5" x2="21" y2="12.5" style="fill:none;stroke:currentColor;stroke-linejoin:round"/><path d="M18,2H15.5a3,3,0,0,0-3,2.46L12,7.5" style="fill:none;stroke:currentColor;stroke-linejoin:round"/></svg>