<svg id="icons" xmlns="http://www.w3.org/2000/svg" viewBox="0 0 16 16"><title>unicons-things-16px-receptacle</title><rect x="3.5" y="1.5" width="10" height="14" style="fill:none;stroke:currentColor;stroke-linecap:square;stroke-linejoin:round"/><line x1="7.5" y1="5.5" x2="7.5" y2="6.5" style="fill:none;stroke:currentColor;stroke-linecap:square;stroke-linejoin:round"/><line x1="9.5" y1="5.5" x2="9.5" y2="6.5" style="fill:none;stroke:currentColor;stroke-linecap:square;stroke-linejoin:round"/><path d="M10.3,8.5H6.7l-.53-.8a3,3,0,0,1-.06-3.24l.59-1h3.6l.59,1a3,3,0,0,1-.06,3.24Z" style="fill:none;stroke:currentColor;stroke-linecap:square;stroke-linejoin:round"/><line x1="7.5" y1="10.5" x2="7.5" y2="11.5" style="fill:none;stroke:currentColor;stroke-linecap:square;stroke-linejoin:round"/><line x1="9.5" y1="10.5" x2="9.5" y2="11.5" style="fill:none;stroke:currentColor;stroke-linecap:square;stroke-linejoin:round"/><path d="M10.3,13.5H6.7l-.59-1A3,3,0,0,1,6.17,9.3l.53-.8h3.6l.53.8a3,3,0,0,1,.06,3.24Z" style="fill:none;stroke:currentColor;stroke-linecap:square;stroke-linejoin:round"/></svg>