<svg id="Layer_1" data-name="Layer 1" xmlns="http://www.w3.org/2000/svg" viewBox="0 0 24 24"><defs><style>.cls-1{fill:none;}.cls-1,.cls-2{stroke:#5a5b5e;stroke-linecap:square;stroke-linejoin:round;}.cls-2{fill:#5a5b5e;}</style></defs><title>unicons-interface-24px-calendar</title><line class="cls-1" x1="10.5" y1="4.5" x2="14.5" y2="4.5"/><path class="cls-1" d="M20.5,4.5h1a1,1,0,0,1,1,1v15a1,1,0,0,1-1,1H3.5a1,1,0,0,1-1-1V5.5a1,1,0,0,1,1-1h1"/><line class="cls-1" x1="7.5" y1="2.5" x2="7.5" y2="6.5"/><line class="cls-1" x1="17.5" y1="2.5" x2="17.5" y2="6.5"/><rect class="cls-2" x="6.5" y="10.5" width="2" height="2"/><rect class="cls-2" x="11.5" y="10.5" width="2" height="2"/><rect class="cls-2" x="11.5" y="15.5" width="2" height="2"/><rect class="cls-2" x="16.5" y="10.5" width="2" height="2"/><rect class="cls-2" x="6.5" y="15.5" width="2" height="2"/></svg>