<svg id="Layer_1" data-name="Layer 1" xmlns="http://www.w3.org/2000/svg" viewBox="0 0 24 24"><title>unity-weather-24px-snowflake</title><line x1="11.5" x2="11.5" y2="3" style="fill:none;stroke:#5a5b5e;stroke-linejoin:round"/><line x1="11.5" y1="7" x2="11.5" y2="17" style="fill:none;stroke:#5a5b5e;stroke-linejoin:round"/><polyline points="13.5 3.5 11.5 5.5 9.5 3.5" style="fill:none;stroke:#5a5b5e;stroke-linejoin:round"/><line x1="1.36" y1="6.43" x2="3.96" y2="7.93" style="fill:none;stroke:#5a5b5e;stroke-linejoin:round"/><line x1="7.4" y1="10.05" x2="15.6" y2="14.95" style="fill:none;stroke:#5a5b5e;stroke-linejoin:round"/><polyline points="5.39 6.45 6.12 9.18 3.39 9.91" style="fill:none;stroke:#5a5b5e;stroke-linejoin:round"/><line x1="1.86" y1="18.43" x2="4.46" y2="16.93" style="fill:none;stroke:#5a5b5e;stroke-linejoin:round"/><line x1="7.74" y1="14.95" x2="15.26" y2="10.05" style="fill:none;stroke:#5a5b5e;stroke-linejoin:round"/><polyline points="3.89 14.95 6.62 15.68 5.89 18.41" style="fill:none;stroke:#5a5b5e;stroke-linejoin:round"/><line x1="11.5" y1="24" x2="11.5" y2="21" style="fill:none;stroke:#5a5b5e;stroke-linejoin:round"/><polyline points="9.5 20.5 11.5 18.5 13.5 20.5" style="fill:none;stroke:#5a5b5e;stroke-linejoin:round"/><line x1="21.64" y1="18.57" x2="19.04" y2="17.07" style="fill:none;stroke:#5a5b5e;stroke-linejoin:round"/><polyline points="17.61 18.55 16.88 15.82 19.61 15.09" style="fill:none;stroke:#5a5b5e;stroke-linejoin:round"/><line x1="21.14" y1="6.57" x2="18.54" y2="8.07" style="fill:none;stroke:#5a5b5e;stroke-linejoin:round"/><polyline points="19.11 10.05 16.38 9.32 17.11 6.58" style="fill:none;stroke:#5a5b5e;stroke-linejoin:round"/></svg>