<svg id="Layer_1" data-name="Layer 1" xmlns="http://www.w3.org/2000/svg" viewBox="0 0 48 48"><defs><style>.cls-1,.cls-2{fill:none;stroke:#5a5b5e;stroke-linejoin:round;}.cls-2{stroke-linecap:square;}</style></defs><title>unicons-nature-48px-sun-cloud</title><line class="cls-1" x1="30.5" y1="3" x2="30.5" y2="9"/><line class="cls-1" x1="18.33" y1="7.29" x2="22.59" y2="11.55"/><line class="cls-1" x1="48" y1="19.5" x2="44" y2="19.5"/><line class="cls-1" x1="43.88" y1="7.29" x2="39.62" y2="11.55"/><path class="cls-2" d="M11.11,29.3a8.68,8.68,0,0,1,8.54-7.1"/><path class="cls-2" d="M23.7,14.92A9.5,9.5,0,1,1,37.84,27.59"/><path class="cls-2" d="M37.5,36A7.5,7.5,0,0,1,30,43.5H9A7.5,7.5,0,0,1,7.73,28.61a12.5,12.5,0,0,1,24.59.26A7.49,7.49,0,0,1,37.5,36Z"/></svg>