<svg id="Layer_1" data-name="Layer 1" xmlns="http://www.w3.org/2000/svg" viewBox="0 0 24 24"><title>unity-docs-24px-file-photo</title><path d="M18.5,12.5v8H5.5V16.61a.25.25,0,0,1,.08-.19l5.75-3.34L13.92,16Z" style="fill:none;stroke:currentColor;stroke-linecap:square;stroke-linejoin:round"/><circle cx="8" cy="9" r="1.5" style="fill:none;stroke:currentColor;stroke-linecap:square;stroke-linejoin:round"/><path d="M19.91,6.91,16.09,3.09a2,2,0,0,0-1.41-.59H4.5a1,1,0,0,0-1,1v18a1,1,0,0,0,1,1h15a1,1,0,0,0,1-1V8.33A2,2,0,0,0,19.91,6.91Z" style="fill:none;stroke:currentColor;stroke-linecap:square;stroke-linejoin:round"/></svg>