<svg id="Layer_1" data-name="Layer 1" xmlns="http://www.w3.org/2000/svg" viewBox="0 0 16 16"><title>unicons-nature-16px-snowflake</title><line x1="8.5" x2="8.5" y2="2" style="fill:none;stroke:currentColor;stroke-linejoin:round"/><line x1="8.5" y1="5" x2="8.5" y2="11" style="fill:none;stroke:currentColor;stroke-linejoin:round"/><polyline points="10.5 2.5 8.5 3.5 6.5 2.5" style="fill:none;stroke:currentColor;stroke-linejoin:round"/><line x1="8.5" y1="16" x2="8.5" y2="14" style="fill:none;stroke:currentColor;stroke-linejoin:round"/><polyline points="6.5 13.5 8.5 12.5 10.5 13.5" style="fill:none;stroke:currentColor;stroke-linejoin:round"/><line x1="1.6" y1="3.98" x2="3.33" y2="4.98" style="fill:none;stroke:currentColor;stroke-linejoin:round"/><line x1="5.93" y1="6.48" x2="11.13" y2="9.48" style="fill:none;stroke:currentColor;stroke-linejoin:round"/><polyline points="4.76 3.5 4.63 5.73 2.76 6.97" style="fill:none;stroke:currentColor;stroke-linejoin:round"/><line x1="15.46" y1="11.98" x2="13.72" y2="10.98" style="fill:none;stroke:currentColor;stroke-linejoin:round"/><polyline points="12.29 12.47 12.42 10.23 14.29 9" style="fill:none;stroke:currentColor;stroke-linejoin:round"/><line x1="1.6" y1="11.95" x2="3.33" y2="10.95" style="fill:none;stroke:currentColor;stroke-linejoin:round"/><line x1="5.93" y1="9.45" x2="11.13" y2="6.45" style="fill:none;stroke:currentColor;stroke-linejoin:round"/><polyline points="2.76 8.97 4.63 10.2 4.76 12.44" style="fill:none;stroke:currentColor;stroke-linejoin:round"/><line x1="15.46" y1="3.95" x2="13.72" y2="4.95" style="fill:none;stroke:currentColor;stroke-linejoin:round"/><polyline points="14.29 6.93 12.42 5.7 12.29 3.47" style="fill:none;stroke:currentColor;stroke-linejoin:round"/></svg>