<svg id="Layer_1" data-name="Layer 1" xmlns="http://www.w3.org/2000/svg" viewBox="0 0 48 48"><title>unicons-things-48px-receptacle</title><rect x="9.5" y="4.5" width="30" height="40" rx="2" ry="2" style="fill:none;stroke:#5a5b5e;stroke-linecap:square;stroke-linejoin:round"/><line x1="22.5" y1="14.5" x2="22.5" y2="18.5" style="fill:none;stroke:#5a5b5e;stroke-linecap:square;stroke-linejoin:round"/><line x1="26.5" y1="14.5" x2="26.5" y2="18.5" style="fill:none;stroke:#5a5b5e;stroke-linecap:square;stroke-linejoin:round"/><path d="M19.5,22.5h0a19,19,0,0,1,0-12h10a19,19,0,0,1,0,12h-10Z" style="fill:none;stroke:#5a5b5e;stroke-linecap:square;stroke-linejoin:round"/><path d="M19.5,38.5h0a19,19,0,0,1,0-12h10a19,19,0,0,1,0,12h-10Z" style="fill:none;stroke:#5a5b5e;stroke-linecap:square;stroke-linejoin:round"/><line x1="22.5" y1="30.5" x2="22.5" y2="34.5" style="fill:none;stroke:#5a5b5e;stroke-linecap:square;stroke-linejoin:round"/><line x1="26.5" y1="30.5" x2="26.5" y2="34.5" style="fill:none;stroke:#5a5b5e;stroke-linecap:square;stroke-linejoin:round"/></svg>