<svg id="Layer_1" data-name="Layer 1" xmlns="http://www.w3.org/2000/svg" viewBox="0 0 16 16"><defs><style>.cls-1{fill:none;}.cls-1,.cls-2{stroke:#5a5b5e;stroke-linecap:square;stroke-linejoin:round;}.cls-2{fill:#5a5b5e;}</style></defs><title>unicons-interface-16px-power-on</title><line class="cls-1" x1="12.5" y1="7.5" x2="12.5" y2="9.5"/><path class="cls-2" d="M14.5,13.5H1.5a1,1,0,0,1-1-1v-8a1,1,0,0,1,1-1h13a1,1,0,0,1,1,1v8A1,1,0,0,1,14.5,13.5Zm-7-1h6a1,1,0,0,0,1-1v-6a1,1,0,0,0-1-1h-6a1,1,0,0,0-1,1v6A1,1,0,0,0,7.5,12.5Z"/></svg>