<svg id="Layer_1" data-name="Layer 1" xmlns="http://www.w3.org/2000/svg" viewBox="0 0 48 48"><title>unicons-things-48px-wrench</title><circle cx="11.5" cy="37.5" r="2" transform="translate(-23.15 19.12) rotate(-45)" style="fill:none;stroke:#5a5b5e;stroke-linecap:square;stroke-linejoin:round"/><path d="M41.69,25.31a13,13,0,0,1-14.14,2.83l-12,14.14a6,6,0,0,1-8.81.35L6,41.93a6,6,0,0,1,.35-8.81l14.14-12a13,13,0,0,1,15.4-17.5,1,1,0,0,1,.43,1.67l-6.63,6.64a2,2,0,0,0,0,2.83l4.24,4.24a2,2,0,0,0,2.83,0l6.64-6.63a1,1,0,0,1,1.67.43A13,13,0,0,1,41.69,25.31Z" style="fill:none;stroke:#5a5b5e;stroke-linecap:square;stroke-miterlimit:10;fill-rule:evenodd"/></svg>