<svg id="Layer_1" data-name="Layer 1" xmlns="http://www.w3.org/2000/svg" viewBox="0 0 24 24"><defs><style>.cls-1{fill:none;stroke:#5a5b5e;stroke-linecap:square;stroke-linejoin:round;}</style></defs><title>unicons-things-24px-filmstrip</title><rect class="cls-1" x="2.5" y="1.5" width="19" height="20"/><line class="cls-1" x1="5.5" y1="5.5" x2="4.5" y2="5.5"/><line class="cls-1" x1="4.5" y1="7.5" x2="5.5" y2="7.5"/><line class="cls-1" x1="5.5" y1="9.5" x2="4.5" y2="9.5"/><line class="cls-1" x1="5.5" y1="13.5" x2="4.5" y2="13.5"/><line class="cls-1" x1="4.5" y1="11.5" x2="5.5" y2="11.5"/><line class="cls-1" x1="4.5" y1="15.5" x2="5.5" y2="15.5"/><line class="cls-1" x1="5.5" y1="17.5" x2="4.5" y2="17.5"/><line class="cls-1" x1="4.5" y1="19.5" x2="5.5" y2="19.5"/><line class="cls-1" x1="18.5" y1="7.5" x2="19.5" y2="7.5"/><line class="cls-1" x1="18.5" y1="5.5" x2="19.5" y2="5.5"/><line class="cls-1" x1="5.5" y1="3.5" x2="4.5" y2="3.5"/><line class="cls-1" x1="18.5" y1="3.5" x2="19.5" y2="3.5"/><line class="cls-1" x1="19.5" y1="9.5" x2="18.5" y2="9.5"/><line class="cls-1" x1="18.5" y1="11.5" x2="19.5" y2="11.5"/><line class="cls-1" x1="19.5" y1="13.5" x2="18.5" y2="13.5"/><line class="cls-1" x1="18.5" y1="15.5" x2="19.5" y2="15.5"/><line class="cls-1" x1="19.5" y1="17.5" x2="18.5" y2="17.5"/><line class="cls-1" x1="19.5" y1="19.5" x2="18.5" y2="19.5"/><polyline class="cls-1" points="7.5 19.5 7.5 12.5 16.5 12.5 16.5 19.5"/><polyline class="cls-1" points="16.5 3.5 16.5 10.5 7.5 10.5 7.5 3.5"/></svg>