<svg id="Layer_1" data-name="Layer 1" xmlns="http://www.w3.org/2000/svg" viewBox="0 0 48 48"><defs><style>.cls-1,.cls-2{fill:none;stroke:currentColor;stroke-linejoin:round;}.cls-1{stroke-linecap:square;}</style></defs><title>unicons-things-48px-flask</title><path class="cls-1" d="M27.5,11.5h2v12L42.15,39a4,4,0,0,1-3.1,6.53H9.94A4,4,0,0,1,6.85,39L19.5,23.5V7.5h-4v-6h18v6h-6"/><line class="cls-1" x1="27.5" y1="15.5" x2="29.5" y2="15.5"/><line class="cls-1" x1="27.5" y1="19.5" x2="29.5" y2="19.5"/><line class="cls-1" x1="27.5" y1="23.5" x2="29.5" y2="23.5"/><path class="cls-2" d="M15.5,34.5,18.38,34a12.73,12.73,0,0,1,6.12.48h0a12.73,12.73,0,0,0,6.12.48l2.88-.48"/></svg>