<svg id="Layer_1" data-name="Layer 1" xmlns="http://www.w3.org/2000/svg" viewBox="0 0 24 24"><defs><style>.cls-1,.cls-2{fill:none;stroke:#5a5b5e;stroke-linejoin:round;}.cls-2{stroke-linecap:square;}</style></defs><title>unicons-things-24px-headset</title><path class="cls-1" d="M3.5,12.5h3a0,0,0,0,1,0,0v6a0,0,0,0,1,0,0h-3a2,2,0,0,1-2-2v-2A2,2,0,0,1,3.5,12.5Z"/><path class="cls-1" d="M17.5,12.5h3a2,2,0,0,1,2,2v2a2,2,0,0,1-2,2h-3a0,0,0,0,1,0,0v-6A0,0,0,0,1,17.5,12.5Z"/><path class="cls-2" d="M3.5,10.5a8,8,0,0,1,8-8h1a8,8,0,0,1,8,8"/><path class="cls-1" d="M11.5,22.5h7a2,2,0,0,0,2-2v-2"/></svg>