<svg id="Layer_1" data-name="Layer 1" xmlns="http://www.w3.org/2000/svg" viewBox="0 0 24 24"><defs><style>.cls-1{fill:none;stroke:#5a5b5e;stroke-linecap:square;stroke-linejoin:round;}</style></defs><title>unicons-transportation-24px-truck</title><path class="cls-1" d="M8.5,21.5v1a1,1,0,0,1-1,1h-2a1,1,0,0,1-1-1v-1"/><path class="cls-1" d="M19.5,21.5v1a1,1,0,0,1-1,1h-2a1,1,0,0,1-1-1v-1"/><path class="cls-1" d="M19.5,13.5v6H4.5V7.5a1,1,0,0,1,1-1h13a1,1,0,0,1,1,1Z"/><circle class="cls-1" cx="8" cy="16" r="1.5"/><circle class="cls-1" cx="16" cy="16" r="1.5"/><rect class="cls-1" x="6.5" y="8.5" width="11" height="4"/><polyline class="cls-1" points="1.5 19.5 1.5 0.5 22.5 0.5 22.5 19.5"/></svg>