<svg id="Layer_1" data-name="Layer 1" xmlns="http://www.w3.org/2000/svg" viewBox="0 0 24 24"><defs><style>.cls-1{fill:none;stroke:#5a5b5e;stroke-linecap:square;stroke-linejoin:round;}</style></defs><title>unicons-transportation-24px-ship</title><polyline class="cls-1" points="3.5 20.5 0.5 14.5 11.5 9.5 22.5 14.5 19.5 20.5"/><path class="cls-1" d="M4.5,10.5v-5a1,1,0,0,1,1-1h12a1,1,0,0,1,1,1v5"/><polyline class="cls-1" points="9.5 2.5 9.5 0.5 13.5 0.5 13.5 2.5"/><line class="cls-1" x1="11.5" y1="10.5" x2="11.5" y2="20.5"/><path class="cls-1" d="M21.5,21.5l-1.29,1.29a1,1,0,0,1-1.41,0l-.59-.59a1,1,0,0,0-1.41,0l-.59.59a1,1,0,0,1-1.41,0l-.59-.59a1,1,0,0,0-1.41,0l-.59.59a1,1,0,0,1-1.41,0l-.59-.59a1,1,0,0,0-1.41,0l-.59.59a1,1,0,0,1-1.41,0l-.59-.59a1,1,0,0,0-1.41,0l-.59.59a1,1,0,0,1-1.41,0L1.5,21.5"/></svg>