<svg id="Layer_1" data-name="Layer 1" xmlns="http://www.w3.org/2000/svg" viewBox="0 0 24 24"><title>unity-things-24px-life-saver-float</title><path d="M2.3,8A10.48,10.48,0,0,1,8,2.3" style="fill:none;stroke:currentColor;stroke-linejoin:round"/><path d="M16,2.3A10.48,10.48,0,0,1,21.7,8" style="fill:none;stroke:currentColor;stroke-linejoin:round"/><path d="M2.3,16A10.48,10.48,0,0,0,8,21.7" style="fill:none;stroke:currentColor;stroke-linejoin:round"/><path d="M16,21.7A10.48,10.48,0,0,0,21.7,16" style="fill:none;stroke:currentColor;stroke-linejoin:round"/><circle cx="12" cy="12" r="5.5" style="fill:none;stroke:currentColor;stroke-linejoin:round"/><polyline points="9.5 6.5 9.5 0.5 14.5 0.5 14.5 6.5" style="fill:none;stroke:currentColor;stroke-linecap:square;stroke-linejoin:round"/><polyline points="14.5 17.5 14.5 23.5 9.5 23.5 9.5 17.5" style="fill:none;stroke:currentColor;stroke-linecap:square;stroke-linejoin:round"/><polyline points="17.5 9.5 23.5 9.5 23.5 14.5 17.5 14.5" style="fill:none;stroke:currentColor;stroke-linecap:square;stroke-linejoin:round"/><polyline points="6.5 14.5 0.5 14.5 0.5 9.5 6.5 9.5" style="fill:none;stroke:currentColor;stroke-linecap:square;stroke-linejoin:round"/></svg>