<svg id="Layer_1" data-name="Layer 1" xmlns="http://www.w3.org/2000/svg" viewBox="0 0 16 16"><title>unicons-docs-16px-file-xlsx</title><path d="M.21,9.9,1.35,8.51.28,7.21a.56.56,0,0,1-.14-.34A.44.44,0,0,1,.6,6.41.48.48,0,0,1,1,6.64l.92,1.22.91-1.2a.53.53,0,0,1,.45-.25.42.42,0,0,1,.42.43.54.54,0,0,1-.14.35L2.52,8.5,3.64,9.89a.56.56,0,0,1,.14.34.44.44,0,0,1-.46.46.49.49,0,0,1-.43-.23l-1-1.29-1,1.27a.53.53,0,0,1-.45.25.42.42,0,0,1-.42-.43A.55.55,0,0,1,.21,9.9Z" style="fill:#5a5b5e"/><path d="M4.68,6.88a.46.46,0,1,1,.92,0V9.81H7.31a.42.42,0,1,1,0,.84H4.68Z" style="fill:#5a5b5e"/><path d="M8.43,10.2a.43.43,0,0,1,.26-.77A.45.45,0,0,1,9,9.52,1.77,1.77,0,0,0,10,9.89c.38,0,.61-.15.61-.4h0c0-.23-.14-.35-.85-.53S8.4,8.5,8.4,7.67h0A1.31,1.31,0,0,1,9.87,6.39a2.44,2.44,0,0,1,1.33.37.42.42,0,0,1,.2.37.42.42,0,0,1-.43.43.44.44,0,0,1-.23-.07,1.75,1.75,0,0,0-.88-.28c-.35,0-.54.16-.54.37h0c0,.28.18.37.91.55s1.33.53,1.33,1.26h0c0,.83-.64,1.3-1.54,1.3A2.71,2.71,0,0,1,8.43,10.2Z" style="fill:#5a5b5e"/><path d="M12.36,9.9l1.13-1.39-1.07-1.3a.57.57,0,0,1-.14-.34.45.45,0,0,1,.46-.46.48.48,0,0,1,.43.23l.92,1.22L15,6.67a.53.53,0,0,1,.45-.25.42.42,0,0,1,.42.43.55.55,0,0,1-.14.35L14.66,8.5l1.13,1.39a.56.56,0,0,1,.14.34.45.45,0,0,1-.46.46.48.48,0,0,1-.43-.23l-1-1.29-1,1.27a.53.53,0,0,1-.45.25.42.42,0,0,1-.42-.43A.55.55,0,0,1,12.36,9.9Z" style="fill:#5a5b5e"/><path d="M2.5,4.5v-2a1,1,0,0,1,1-1H10a1,1,0,0,1,.71.29l2.35,2.35" style="fill:none;stroke:#5a5b5e;stroke-linecap:square;stroke-linejoin:round"/><path d="M13.5,12.5v1a1,1,0,0,1-1,1h-9a1,1,0,0,1-1-1v-1" style="fill:none;stroke:#5a5b5e;stroke-linecap:square;stroke-linejoin:round"/></svg>