<svg id="Layer_1" data-name="Layer 1" xmlns="http://www.w3.org/2000/svg" viewBox="0 0 24 24"><title>unity-docs-24px-envelope-open</title><path d="M18.93,10.15l-4.22,2.51a4,4,0,0,1-2.46.84h-.51a4,4,0,0,1-2.46-.84L5.16,10.22" style="fill:none;stroke:currentColor;stroke-linecap:square;stroke-linejoin:round"/><path d="M21.93,6.23,12.43,1.7a1,1,0,0,0-.86,0L2.07,6.23a1,1,0,0,0-.57.9V19.5a1,1,0,0,0,1,1h19a1,1,0,0,0,1-1V7.13A1,1,0,0,0,21.93,6.23Z" style="fill:none;stroke:currentColor;stroke-linecap:square;stroke-linejoin:round"/></svg>