<svg id="Layer_1" data-name="Layer 1" xmlns="http://www.w3.org/2000/svg" viewBox="0 0 16 16"><title>unicons-people-16px-thumbs-down</title><rect x="0.5" y="1.5" width="3" height="8" style="fill:none;stroke:#5a5b5e;stroke-linecap:square;stroke-linejoin:round"/><path d="M14.5,8.5a1,1,0,0,0,1-1h0a1,1,0,0,0-1-1h-1" style="fill:none;stroke:#5a5b5e;stroke-linecap:square;stroke-linejoin:round"/><path d="M13.5,6.5a1,1,0,0,0,1-1h0a1,1,0,0,0-1-1h-1" style="fill:none;stroke:#5a5b5e;stroke-linecap:square;stroke-linejoin:round"/><path d="M12.5,4.5a1,1,0,0,0,1-1h0a1,1,0,0,0-1-1H6.81a6,6,0,0,0-1.86.3l-.43.14" style="fill:none;stroke:#5a5b5e;stroke-linecap:square;stroke-linejoin:round"/><path d="M4.64,8.71A2.85,2.85,0,0,1,5.79,9.79L7.5,12.64v2.14a.72.72,0,0,0,.71.71h.21a2,2,0,0,0,1.92-2.55l-.7-2.45H14.5a1,1,0,0,0,1-1h0a1,1,0,0,0-1-1h-1" style="fill:none;stroke:#5a5b5e;stroke-linecap:square;stroke-linejoin:round"/></svg>