<svg id="Layer_1" data-name="Layer 1" xmlns="http://www.w3.org/2000/svg" viewBox="0 0 48 48"><defs><style>.cls-1{fill:none;stroke:#5a5b5e;stroke-linecap:square;stroke-linejoin:round;}.cls-2{fill:#5a5b5e;}</style></defs><title>unicons-interface-48px-comment-coversation</title><path class="cls-1" d="M22.5,20.5v15a1,1,0,0,0,1,1h18l6,5.71V20.5a1,1,0,0,0-1-1h-23A1,1,0,0,0,22.5,20.5Z"/><line class="cls-1" x1="7.5" y1="12.5" x2="31.5" y2="12.5"/><line class="cls-1" x1="7.5" y1="18.5" x2="19.5" y2="18.5"/><line class="cls-1" x1="7.5" y1="24.5" x2="15.5" y2="24.5"/><path class="cls-1" d="M19.5,32.5h-8l-10,10V6.5a2,2,0,0,1,2-2h36a2,2,0,0,1,2,2v10"/><path class="cls-2" d="M41,27a1,1,0,1,1-1,1,1,1,0,0,1,1-1m0-1a2,2,0,1,0,2,2,2,2,0,0,0-2-2Z"/><path class="cls-2" d="M35,27a1,1,0,1,1-1,1,1,1,0,0,1,1-1m0-1a2,2,0,1,0,2,2,2,2,0,0,0-2-2Z"/><path class="cls-2" d="M29,27a1,1,0,1,1-1,1,1,1,0,0,1,1-1m0-1a2,2,0,1,0,2,2,2,2,0,0,0-2-2Z"/></svg>