<svg id="Layer_1" data-name="Layer 1" xmlns="http://www.w3.org/2000/svg" viewBox="0 0 48 48"><title>unicons-interface-48px-map-w-pin</title><circle cx="23.5" cy="10.5" r="8" style="fill:none;stroke:#5a5b5e;stroke-linecap:square;stroke-linejoin:round"/><line x1="23.5" y1="18.5" x2="23.5" y2="28.5" style="fill:none;stroke:#5a5b5e;stroke-linecap:square;stroke-linejoin:round"/><path d="M34.5,12.05,44.13,8.2a1,1,0,0,1,1.37.93V36.57a1,1,0,0,1-.63.93l-13,5.21a1,1,0,0,1-.7,0l-15.3-5.36a1,1,0,0,0-.7,0L2.87,42.3a1,1,0,0,1-1.37-.93V13.93A1,1,0,0,1,2.13,13L12.5,8.85" style="fill:none;stroke:#5a5b5e;stroke-linecap:square;stroke-linejoin:round"/><line x1="15.5" y1="31.5" x2="15.5" y2="37.5" style="fill:none;stroke:#5a5b5e;stroke-linecap:square;stroke-linejoin:round"/><line x1="31.5" y1="36.5" x2="31.5" y2="42.5" style="fill:none;stroke:#5a5b5e;stroke-linecap:square;stroke-linejoin:round"/></svg>