<svg id="Layer_1" data-name="Layer 1" xmlns="http://www.w3.org/2000/svg" viewBox="0 0 48 48"><defs><style>.cls-1{fill:none;stroke:#5a5b5e;stroke-linecap:square;stroke-linejoin:round;}</style></defs><title>unicons-people-48px-thumbs-up</title><path class="cls-1" d="M40.5,28.5a3,3,0,0,1,3,3h0a3,3,0,0,1-3,3h-1"/><path class="cls-1" d="M41.5,22.5h1a3,3,0,0,1,3,3h0a3,3,0,0,1-3,3h-1"/><path class="cls-1" d="M17.5,21.5a8,8,0,0,0,3.2-3l4.8-8v-6a2,2,0,0,1,2-2h0a6,6,0,0,1,5.78,7.64L31.5,16.5h11a3,3,0,0,1,0,6"/><path class="cls-1" d="M38.5,34.5a3,3,0,0,1,0,6H23.78a14,14,0,0,1-4.44-.72l-1.84-.6"/><rect class="cls-1" x="1.5" y="18.5" width="12" height="24" rx="2" ry="2"/><circle class="cls-1" cx="7.5" cy="36.5" r="2"/></svg>