<svg id="Layer_1" data-name="Layer 1" xmlns="http://www.w3.org/2000/svg" viewBox="0 0 16 16"><defs><style>.cls-1{fill:none;stroke:#5a5b5e;stroke-linecap:square;stroke-linejoin:round;}</style></defs><title>unicons-interface-16px-rss</title><path class="cls-1" d="M9.5,13c0,.17,0,.33,0,.5h-3a2.74,2.74,0,0,0,0-.5A3.5,3.5,0,0,0,3,9.5a2.74,2.74,0,0,0-.5,0v-3l.5,0A6.5,6.5,0,0,1,9.5,13Z"/><path class="cls-1" d="M9.5,13c0,.17,0,.33,0,.5h-3a2.74,2.74,0,0,0,0-.5A3.5,3.5,0,0,0,3,9.5a2.74,2.74,0,0,0-.5,0v-3l.5,0A6.5,6.5,0,0,1,9.5,13Z"/><path class="cls-1" d="M9.5,13c0,.17,0,.33,0,.5h-3a2.74,2.74,0,0,0,0-.5A3.5,3.5,0,0,0,3,9.5a2.74,2.74,0,0,0-.5,0v-3l.5,0A6.5,6.5,0,0,1,9.5,13Z"/><path class="cls-1" d="M15.5,13a4.09,4.09,0,0,1,0,.5h-3c0-.17,0-.33,0-.5A9.5,9.5,0,0,0,3,3.5H2.5v-3A4.11,4.11,0,0,1,3,.5,12.5,12.5,0,0,1,15.5,13Z"/><path class="cls-1" d="M3.5,14a1.39,1.39,0,0,1-.09.5A1.5,1.5,0,0,1,2,15.5a1.39,1.39,0,0,1-.5-.09,1.47,1.47,0,0,1-.91-.91A1.39,1.39,0,0,1,.5,14a1.5,1.5,0,0,1,1-1.41A1.39,1.39,0,0,1,2,12.5,1.5,1.5,0,0,1,3.5,14Z"/></svg>