<svg id="Layer_1" data-name="Layer 1" xmlns="http://www.w3.org/2000/svg" viewBox="0 0 48 48"><title>unicons-interface-48px-inbox</title><path d="M30.5,10.5H40.77a2,2,0,0,1,2,1.72L44.5,24.5" style="fill:none;stroke:#5a5b5e;stroke-linecap:square;stroke-linejoin:round"/><path d="M4.5,24.5,6.25,12.22a2,2,0,0,1,2-1.72H18.5" style="fill:none;stroke:#5a5b5e;stroke-linecap:square;stroke-linejoin:round"/><path d="M42.5,44.5H6.5a2,2,0,0,1-2-2v-13a1,1,0,0,1,1-1h10a1,1,0,0,1,1,1v4a1,1,0,0,0,1,1h14a1,1,0,0,0,1-1v-4a1,1,0,0,1,1-1h10a1,1,0,0,1,1,1v13A2,2,0,0,1,42.5,44.5Z" style="fill:none;stroke:#5a5b5e;stroke-linecap:square;stroke-linejoin:round"/><line x1="24.5" y1="18.5" x2="24.5" y2="0.5" style="fill:none;stroke:#5a5b5e;stroke-linecap:square;stroke-linejoin:round"/><path d="M31.5,16.5l-5.59,5.59a2,2,0,0,1-2.83,0L17.5,16.5" style="fill:none;stroke:#5a5b5e;stroke-linecap:square;stroke-linejoin:round"/></svg>