<svg id="Layer_1" data-name="Layer 1" xmlns="http://www.w3.org/2000/svg" viewBox="0 0 16 16"><defs><style>.cls-1,.cls-2{fill:none;stroke:#5a5b5e;stroke-linejoin:round;}.cls-1{stroke-linecap:square;}</style></defs><title>unicons-nature-16px-cloud-rain</title><path class="cls-1" d="M.48,9.17a3,3,0,0,1,2.61-3.6,5.28,5.28,0,0,1,10.49.15,3,3,0,0,1,1.94,3.42,3,3,0,0,1-3,2.35h-9A3.05,3.05,0,0,1,.48,9.17Z"/><line class="cls-1" x1="3.5" y1="13.5" x2="3.5" y2="14.5"/><line class="cls-1" x1="6.5" y1="13.5" x2="6.5" y2="14.5"/><line class="cls-1" x1="9.5" y1="13.5" x2="9.5" y2="14.5"/><line class="cls-1" x1="12.5" y1="13.5" x2="12.5" y2="14.5"/><path class="cls-2" d="M5.36,6a3.3,3.3,0,0,1,3.3-3.3"/></svg>