<svg id="Layer_1" data-name="Layer 1" xmlns="http://www.w3.org/2000/svg" viewBox="0 0 16 16"><defs><style>.cls-1,.cls-2{fill:none;stroke:#5a5b5e;stroke-linejoin:round;}.cls-1{stroke-linecap:square;}</style></defs><title>unicons-transportation-16px-ship</title><polyline class="cls-1" points="2.5 5.5 2.5 2.5 12.5 2.5 12.5 5.5"/><polyline class="cls-1" points="5.5 1.5 5.5 0.5 9.5 0.5 9.5 1.5"/><line class="cls-1" x1="7.5" y1="6.5" x2="7.5" y2="12.5"/><polyline class="cls-1" points="2.5 12.5 0.5 8.5 7.5 5.5 14.5 8.5 12.5 12.5"/><polyline class="cls-2" points="0.5 14.5 1.5 15.5 2.5 14.5 3.5 15.5 4.5 14.5 5.5 15.5 6.5 14.5 7.5 15.5 8.5 14.5 9.5 15.5 10.5 14.5 11.5 15.5 12.5 14.5 13.5 15.5 14.5 14.5"/></svg>