<svg id="Layer_1" data-name="Layer 1" xmlns="http://www.w3.org/2000/svg" viewBox="0 0 48 48"><title>unicons-docs-48px-check-in-doc-1</title><path d="M46.5,41.5v4a2,2,0,0,1-2,2H4.5a2,2,0,0,1-2-2v-4" style="fill:none;stroke:currentColor;stroke-linecap:square;stroke-linejoin:round"/><path d="M39.33,10.33,31.67,2.67A4,4,0,0,0,28.84,1.5H10.5a2,2,0,0,0-2,2v36a2,2,0,0,0,2,2h28a2,2,0,0,0,2-2V13.16A4,4,0,0,0,39.33,10.33Z" style="fill:none;stroke:currentColor;stroke-linecap:square;stroke-linejoin:round"/><line x1="24.5" y1="25.5" x2="24.5" y2="11.5" style="fill:none;stroke:currentColor;stroke-linecap:square;stroke-linejoin:round"/><path d="M31.5,23.5l-5.59,5.59a2,2,0,0,1-2.83,0L17.5,23.5" style="fill:none;stroke:currentColor;stroke-linecap:square;stroke-linejoin:round"/></svg>