<svg id="Layer_1" data-name="Layer 1" xmlns="http://www.w3.org/2000/svg" viewBox="0 0 48 48"><defs><style>.cls-1{fill:none;stroke:#5a5b5e;stroke-linecap:square;stroke-linejoin:round;}.cls-2{fill:#5a5b5e;}</style></defs><title>unicons-docs-48px-file-png</title><rect class="cls-1" x="3.5" y="16.5" width="42" height="17" rx="2" ry="2"/><path class="cls-1" d="M7.5,12.5v-6a2,2,0,0,1,2-2H29.84a4,4,0,0,1,2.84,1.18L39.5,12.5"/><path class="cls-1" d="M41.5,37.5v5a2,2,0,0,1-2,2H9.5a2,2,0,0,1-2-2v-5"/><path class="cls-2" d="M11.88,21.6a.73.73,0,0,1,.74-.74h2.57c2,0,3.19,1.12,3.19,2.81v0c0,1.88-1.51,2.87-3.36,2.87H13.35v2a.74.74,0,0,1-1.48,0Zm3.19,3.62c1.12,0,1.81-.62,1.81-1.5v0c0-1-.71-1.5-1.81-1.5H13.35v3Z"/><path class="cls-2" d="M19.89,21.55a.74.74,0,0,1,.74-.74h.16a.93.93,0,0,1,.77.43l4.2,5.43V21.51a.73.73,0,0,1,1.45,0v7.05a.72.72,0,0,1-.72.73h-.06a.93.93,0,0,1-.77-.44l-4.32-5.59v5.33a.73.73,0,0,1-1.45,0Z"/><path class="cls-2" d="M29,25.08v0a4.28,4.28,0,0,1,4.33-4.34,4.56,4.56,0,0,1,2.87.85.75.75,0,0,1,.3.6.73.73,0,0,1-.73.73.77.77,0,0,1-.46-.17,3.19,3.19,0,0,0-2-.66,2.84,2.84,0,0,0-2.72,3v0a2.8,2.8,0,0,0,2.85,3,3.42,3.42,0,0,0,2-.64V25.84H33.78a.65.65,0,0,1-.66-.64.66.66,0,0,1,.66-.65h2.34a.73.73,0,0,1,.74.74v2.24a1,1,0,0,1-.52.94,5.35,5.35,0,0,1-3,.91A4.16,4.16,0,0,1,29,25.08Z"/></svg>