<svg id="Layer_1" data-name="Layer 1" xmlns="http://www.w3.org/2000/svg" viewBox="0 0 48 48"><title>unicons-interface-48px-copy</title><path d="M34.52,14.62l-8.05-8A3.65,3.65,0,0,0,23.89,5.5H6.33A1.83,1.83,0,0,0,4.5,7.32V38.18A1.83,1.83,0,0,0,6.33,40H19.5" style="fill:none;stroke:#5a5b5e;stroke-linecap:square;stroke-linejoin:round"/><path d="M43.79,24.69l-4.5-4.5a2.35,2.35,0,0,0-1.66-.69h-12a1.18,1.18,0,0,0-1.18,1.18V41.83A1.18,1.18,0,0,0,25.68,43H43.3a1.18,1.18,0,0,0,1.18-1.17V26.35A2.35,2.35,0,0,0,43.79,24.69Z" style="fill:none;stroke:#5a5b5e;stroke-linecap:square;stroke-linejoin:round"/></svg>