<svg id="Layer_1" data-name="Layer 1" xmlns="http://www.w3.org/2000/svg" viewBox="0 0 48 48"><defs><style>.cls-1,.cls-2{fill:none;stroke:#5a5b5e;stroke-linejoin:round;}.cls-1{stroke-linecap:square;}</style></defs><title>unicons-things-48px-gift</title><rect class="cls-1" x="3.5" y="12.5" width="42" height="6"/><path class="cls-1" d="M41.5,22.5v18a2,2,0,0,1-2,2H9.5a2,2,0,0,1-2-2v-18"/><line class="cls-1" x1="21.5" y1="18.5" x2="21.5" y2="12.5"/><line class="cls-1" x1="27.5" y1="12.5" x2="27.5" y2="18.5"/><line class="cls-1" x1="21.5" y1="42.5" x2="21.5" y2="22.5"/><line class="cls-1" x1="27.5" y1="22.5" x2="27.5" y2="42.5"/><path class="cls-2" d="M22.58,12.17a10.42,10.42,0,0,0-3-5.54c-3.12-3.12-7.24-4.06-9.2-2.12-1.64,1.66-1.22,4.84.82,7.66"/><path class="cls-2" d="M36.84,12.17c2-2.82,2.46-6,.82-7.66-2-1.94-6.08-1-9.2,2.12a10.42,10.42,0,0,0-3,5.54"/></svg>