<svg id="Layer_1" data-name="Layer 1" xmlns="http://www.w3.org/2000/svg" viewBox="0 0 48 48"><title>unicons-basic-48px-circle-question-mark</title><path d="M19.5,17a5,5,0,0,1,7.21-4.52A4.51,4.51,0,0,1,29,14.84a5,5,0,0,1-3.11,7,2.09,2.09,0,0,0-1.42,2V26.5" style="fill:none;stroke:#5a5b5e;stroke-linecap:round;stroke-linejoin:round"/><circle cx="24.5" cy="24.5" r="22" transform="translate(-10.15 24.5) rotate(-45)" style="fill:none;stroke:#5a5b5e;stroke-linecap:square;stroke-linejoin:round"/><path d="M24.5,32.5a1,1,0,1,1-1,1,1,1,0,0,1,1-1m0-1a2,2,0,1,0,2,2,2,2,0,0,0-2-2Z" style="fill:#5a5b5e"/></svg>