<svg id="Layer_1" data-name="Layer 1" xmlns="http://www.w3.org/2000/svg" viewBox="0 0 16 16"><defs><style>.cls-1,.cls-2{fill:#5a5b5e;stroke:#5a5b5e;stroke-linecap:square;}.cls-1{stroke-miterlimit:10;}.cls-2{stroke-linejoin:round;}</style></defs><title>unicons-interface-16px-bell-full</title><path class="cls-1" d="M6.09,13.5a2.09,2.09,0,0,0,3.81,0Z"/><path class="cls-2" d="M13.5,11.5H2.5V9.71a3,3,0,0,1,.94-2.19l.11-.1A3,3,0,0,0,4.5,5.24V4.5a3,3,0,0,1,3-3h1a3,3,0,0,1,3,3v.72a3,3,0,0,0,.92,2.17l.15.14A3,3,0,0,1,13.5,9.7Z"/></svg>