<svg id="Layer_1" data-name="Layer 1" xmlns="http://www.w3.org/2000/svg" viewBox="0 0 24 24"><defs><style>.cls-1{fill:none;stroke:#5a5b5e;stroke-linejoin:round;}</style></defs><title>unicons-nature-24px-snowflake</title><line class="cls-1" x1="12" x2="12" y2="3"/><line class="cls-1" x1="12" y1="7" x2="12" y2="17"/><polyline class="cls-1" points="14 3.5 12 5.5 10 3.5"/><line class="cls-1" x1="12" y1="24" x2="12" y2="21"/><polyline class="cls-1" points="10 20.5 12 18.5 14 20.5"/><line class="cls-1" x1="1.61" y1="6" x2="4.21" y2="7.5"/><line class="cls-1" x1="7.67" y1="9.5" x2="16.33" y2="14.5"/><polyline class="cls-1" points="5.64 6.02 6.37 8.75 3.64 9.48"/><line class="cls-1" x1="22.39" y1="18" x2="19.79" y2="16.5"/><polyline class="cls-1" points="18.36 17.98 17.63 15.25 20.36 14.52"/><line class="cls-1" x1="1.61" y1="18" x2="4.21" y2="16.5"/><line class="cls-1" x1="7.67" y1="14.5" x2="16.33" y2="9.5"/><polyline class="cls-1" points="3.64 14.52 6.37 15.25 5.64 17.98"/><line class="cls-1" x1="22.39" y1="6" x2="19.79" y2="7.5"/><polyline class="cls-1" points="20.36 9.48 17.63 8.75 18.36 6.02"/></svg>