<svg id="Layer_1" data-name="Layer 1" xmlns="http://www.w3.org/2000/svg" viewBox="0 0 48 48"><defs><style>.cls-1,.cls-2{fill:none;stroke:#5a5b5e;stroke-linejoin:round;}.cls-1{stroke-linecap:square;}</style></defs><title>unicons-docs-48px-folder-open</title><path class="cls-1" d="M2.5,33.5V7.44A1.94,1.94,0,0,1,4.44,5.5H16.37a3.87,3.87,0,0,1,2.19.68l3.86,2.64a3.87,3.87,0,0,0,2.19.68H36.56a1.94,1.94,0,0,1,1.94,1.94V13.5"/><path class="cls-2" d="M6.5,22.5v-8a1,1,0,0,1,1-1h27"/><path class="cls-2" d="M43.5,17.5H12.89A2,2,0,0,0,11,18.8l-7.5,20a2,2,0,0,0,1.87,2.7H35.17A2,2,0,0,0,37,40.27l8.33-20A2,2,0,0,0,43.5,17.5Z"/></svg>