<svg id="Layer_1" data-name="Layer 1" xmlns="http://www.w3.org/2000/svg" viewBox="0 0 48 48"><defs><style>.cls-1{fill:none;stroke:#5a5b5e;stroke-linecap:square;stroke-linejoin:round;}</style></defs><title>unicons-things-48px-music-note</title><path class="cls-1" d="M39.5,26.5V6.65a1.12,1.12,0,0,0-1.34-1.1L20.43,9.45a1.15,1.15,0,0,0-.93,1.13V30.5"/><path class="cls-1" d="M13.5,30.5h6a0,0,0,0,1,0,0v6a6,6,0,0,1-6,6h0a6,6,0,0,1-6-6v0a6,6,0,0,1,6-6Z"/><path class="cls-1" d="M33.5,26.5h6a0,0,0,0,1,0,0v6a6,6,0,0,1-6,6h0a6,6,0,0,1-6-6v0a6,6,0,0,1,6-6Z"/></svg>