<svg id="icons" xmlns="http://www.w3.org/2000/svg" viewBox="0 0 16 16"><defs><style>.cls-1,.cls-2{fill:none;stroke:#5a5b5e;stroke-linejoin:round;}.cls-1{stroke-linecap:square;}</style></defs><title>unicons-things-16px-gift</title><rect class="cls-1" x="1.5" y="4.5" width="13" height="2"/><polyline class="cls-1" points="13.5 7.5 13.5 13.5 2.5 13.5 2.5 7.5"/><line class="cls-1" x1="6.5" y1="6.5" x2="6.5" y2="4.5"/><line class="cls-1" x1="9.5" y1="4.5" x2="9.5" y2="6.5"/><line class="cls-1" x1="6.5" y1="13.5" x2="6.5" y2="7.5"/><line class="cls-1" x1="9.5" y1="7.5" x2="9.5" y2="13.5"/><path class="cls-2" d="M7.57,4.63A3.13,3.13,0,0,0,6.66,3C5.73,2,4.49,1.75,3.9,2.34s-.37,1.45.25,2.3"/><path class="cls-2" d="M11.85,4.63c.61-.85.74-1.8.25-2.3S10.27,2,9.34,3a3.13,3.13,0,0,0-.91,1.66"/></svg>