<svg id="Layer_1" data-name="Layer 1" xmlns="http://www.w3.org/2000/svg" viewBox="0 0 16 16"><defs><style>.cls-1{fill:none;stroke:#5a5b5e;stroke-linejoin:round;}</style></defs><title>unicons-nature-16px-snowflake</title><line class="cls-1" x1="8.5" x2="8.5" y2="2"/><line class="cls-1" x1="8.5" y1="5" x2="8.5" y2="11"/><polyline class="cls-1" points="10.5 2.5 8.5 3.5 6.5 2.5"/><line class="cls-1" x1="8.5" y1="16" x2="8.5" y2="14"/><polyline class="cls-1" points="6.5 13.5 8.5 12.5 10.5 13.5"/><line class="cls-1" x1="1.6" y1="3.98" x2="3.33" y2="4.98"/><line class="cls-1" x1="5.93" y1="6.48" x2="11.13" y2="9.48"/><polyline class="cls-1" points="4.76 3.5 4.63 5.73 2.76 6.97"/><line class="cls-1" x1="15.46" y1="11.98" x2="13.72" y2="10.98"/><polyline class="cls-1" points="12.29 12.47 12.42 10.23 14.29 9"/><line class="cls-1" x1="1.6" y1="11.95" x2="3.33" y2="10.95"/><line class="cls-1" x1="5.93" y1="9.45" x2="11.13" y2="6.45"/><polyline class="cls-1" points="2.76 8.97 4.63 10.2 4.76 12.44"/><line class="cls-1" x1="15.46" y1="3.95" x2="13.72" y2="4.95"/><polyline class="cls-1" points="14.29 6.93 12.42 5.7 12.29 3.47"/></svg>