<svg id="Layer_1" data-name="Layer 1" xmlns="http://www.w3.org/2000/svg" viewBox="0 0 48 48"><title>unicons-interface-48px-battery-charging</title><path d="M25.5,12.5h14a2,2,0,0,1,2,2v22a2,2,0,0,1-2,2h-12" style="fill:none;stroke:#5a5b5e;stroke-linecap:square;stroke-linejoin:round"/><path d="M17.5,38.5H3.5a2,2,0,0,1-2-2v-22a2,2,0,0,1,2-2h11" style="fill:none;stroke:#5a5b5e;stroke-linecap:square;stroke-linejoin:round"/><path d="M45.5,18.5h1a1,1,0,0,1,1,1v12a1,1,0,0,1-1,1h-1" style="fill:none;stroke:#5a5b5e;stroke-linecap:square;stroke-linejoin:round"/><polygon points="31.5 22.5 21.5 42.5 21.5 26.5 11.5 26.5 21.5 6.5 21.5 22.5 31.5 22.5" style="fill:none;stroke:#5a5b5e;stroke-linecap:square;stroke-linejoin:round"/></svg>