<svg id="Layer_1" data-name="Layer 1" xmlns="http://www.w3.org/2000/svg" viewBox="0 0 48 48"><defs><style>.cls-1{fill:none;stroke:currentColor;stroke-linecap:square;stroke-linejoin:round;}</style></defs><title>unicons-transportation-48px-ship</title><polyline class="cls-1" points="7.5 41.21 1.5 29.21 23.5 19.21 45.5 29.21 39.5 41.21"/><path class="cls-1" d="M9.5,21.5v-11a2,2,0,0,1,2-2h24a2,2,0,0,1,2,2v11"/><path class="cls-1" d="M19.5,5.5v-3a1,1,0,0,1,1-1h6a1,1,0,0,1,1,1v3"/><line class="cls-1" x1="23.5" y1="19.5" x2="23.5" y2="41.5"/><path class="cls-1" d="M43.5,44.21l-2.59,2.59a2,2,0,0,1-2.83,0l-1.17-1.17a2,2,0,0,0-2.83,0l-1.17,1.17a2,2,0,0,1-2.83,0l-1.17-1.17a2,2,0,0,0-2.83,0l-1.17,1.17a2,2,0,0,1-2.83,0l-1.17-1.17a2,2,0,0,0-2.83,0l-1.17,1.17a2,2,0,0,1-2.83,0l-1.17-1.17a2,2,0,0,0-2.83,0L8.91,46.79a2,2,0,0,1-2.83,0L3.5,44.21"/><rect class="cls-1" x="13.5" y="12.5" width="20" height="3" rx="1.5" ry="1.5"/></svg>