<svg id="Layer_1" data-name="Layer 1" xmlns="http://www.w3.org/2000/svg" viewBox="0 0 16 16"><title>unicons-people-16px-person-walking</title><circle cx="8" cy="2" r="1.5" style="fill:none;stroke:currentColor;stroke-linecap:square;stroke-linejoin:round"/><path d="M4.5,11v3.5a1,1,0,0,0,1,1h0a1,1,0,0,0,1-1V12a1,1,0,0,1,.45-.83L9.05,9.8A1,1,0,0,0,9.5,9V6.5a1,1,0,0,0-1-1" style="fill:none;stroke:currentColor;stroke-linecap:square;stroke-linejoin:round"/><rect x="4.5" y="5.5" width="2" height="3.5" rx="1" ry="1" style="fill:none;stroke:currentColor;stroke-linejoin:round"/><path d="M8.16,13.06l.9,1.78a1,1,0,0,0,1.34.44h0a1,1,0,0,0,.44-1.34L9.49,11.26" style="fill:none;stroke:currentColor;stroke-linejoin:round"/></svg>