<svg xmlns="http://www.w3.org/2000/svg" viewBox="0 0 24 24"><title>unity-things-24px-video-game</title><g id="Layer_1" data-name="Layer 1"><line x1="6.5" y1="11.5" x2="6.5" y2="15.5" style="fill:none;stroke:currentColor;stroke-linecap:square;stroke-linejoin:round"/><line x1="4.5" y1="13.5" x2="8.5" y2="13.5" style="fill:none;stroke:currentColor;stroke-linecap:square;stroke-linejoin:round"/><circle cx="17" cy="12" r="0.5" style="fill:#112"/><path d="M17,11a1,1,0,1,0,1,1,1,1,0,0,0-1-1Z" style="fill:currentColor"/><circle cx="20" cy="14" r="0.5" style="fill:#112"/><path d="M20,13a1,1,0,1,0,1,1,1,1,0,0,0-1-1Z" style="fill:currentColor"/></g><g id="Layer_11" data-name="Layer 11"><line x1="12.5" y1="1.5" x2="12.5" y2="6.5" style="fill:none;stroke:currentColor;stroke-linecap:square;stroke-miterlimit:10"/><path d="M23.5,13.5a5,5,0,0,1-9,3h-4a5,5,0,1,1-4-8h12A5,5,0,0,1,23.5,13.5Z" style="fill:none;stroke:currentColor;stroke-linecap:square;stroke-miterlimit:10;fill-rule:evenodd"/></g></svg>