<svg id="icons" xmlns="http://www.w3.org/2000/svg" viewBox="0 0 16 16"><title>unicons-things-16px-gift</title><rect x="1.5" y="4.5" width="13" height="2" style="fill:none;stroke:currentColor;stroke-linecap:square;stroke-linejoin:round"/><polyline points="13.5 7.5 13.5 13.5 2.5 13.5 2.5 7.5" style="fill:none;stroke:currentColor;stroke-linecap:square;stroke-linejoin:round"/><line x1="6.5" y1="6.5" x2="6.5" y2="4.5" style="fill:none;stroke:currentColor;stroke-linecap:square;stroke-linejoin:round"/><line x1="9.5" y1="4.5" x2="9.5" y2="6.5" style="fill:none;stroke:currentColor;stroke-linecap:square;stroke-linejoin:round"/><line x1="6.5" y1="13.5" x2="6.5" y2="7.5" style="fill:none;stroke:currentColor;stroke-linecap:square;stroke-linejoin:round"/><line x1="9.5" y1="7.5" x2="9.5" y2="13.5" style="fill:none;stroke:currentColor;stroke-linecap:square;stroke-linejoin:round"/><path d="M7.57,4.63A3.13,3.13,0,0,0,6.66,3C5.73,2,4.49,1.75,3.9,2.34s-.37,1.45.25,2.3" style="fill:none;stroke:currentColor;stroke-linejoin:round"/><path d="M11.85,4.63c.61-.85.74-1.8.25-2.3S10.27,2,9.34,3a3.13,3.13,0,0,0-.91,1.66" style="fill:none;stroke:currentColor;stroke-linejoin:round"/></svg>