<svg id="Layer_1" data-name="Layer 1" xmlns="http://www.w3.org/2000/svg" viewBox="0 0 48 48"><title>unicons-transportation-48px-plane</title><path d="M33.5,31.5h7.17a2,2,0,0,0,1.41-.59l4.71-4.71a1,1,0,0,0,0-1.41l-4.71-4.71a2,2,0,0,0-1.41-.59H10.21l-3-8h-6L5.92,27.22a6,6,0,0,0,5.75,4.28h.83" style="fill:none;stroke:currentColor;stroke-linecap:square;stroke-linejoin:round"/><polyline points="31.21 27.5 21.21 41.5 13.21 41.5 21.21 27.5" style="fill:none;stroke:currentColor;stroke-linecap:square;stroke-linejoin:round"/><polyline points="19.21 19.5 15.21 13.5 23.21 13.5 28.21 19.5" style="fill:none;stroke:currentColor;stroke-linejoin:round"/><line x1="44.5" y1="23.5" x2="39.5" y2="23.5" style="fill:none;stroke:currentColor;stroke-linecap:square;stroke-linejoin:round"/><line x1="36.5" y1="23.5" x2="35.5" y2="23.5" style="fill:none;stroke:currentColor;stroke-linecap:square;stroke-linejoin:round"/><line x1="32.5" y1="23.5" x2="31.5" y2="23.5" style="fill:none;stroke:currentColor;stroke-linecap:square;stroke-linejoin:round"/><line x1="28.5" y1="23.5" x2="27.5" y2="23.5" style="fill:none;stroke:currentColor;stroke-linecap:square;stroke-linejoin:round"/><line x1="24.5" y1="23.5" x2="23.5" y2="23.5" style="fill:none;stroke:currentColor;stroke-linecap:square;stroke-linejoin:round"/><line x1="20.5" y1="23.5" x2="19.5" y2="23.5" style="fill:none;stroke:currentColor;stroke-linecap:square;stroke-linejoin:round"/><line x1="16.5" y1="23.5" x2="15.5" y2="23.5" style="fill:none;stroke:currentColor;stroke-linecap:square;stroke-linejoin:round"/><line x1="12.5" y1="23.5" x2="11.5" y2="23.5" style="fill:none;stroke:currentColor;stroke-linecap:square;stroke-linejoin:round"/></svg>