<svg id="Layer_1" data-name="Layer 1" xmlns="http://www.w3.org/2000/svg" viewBox="0 0 48 48"><defs><style>.cls-1{fill:none;stroke:#5a5b5e;stroke-linecap:square;stroke-linejoin:round;}</style></defs><title>unicons-things-48px-outlet</title><rect class="cls-1" x="9.5" y="2.5" width="30" height="42" rx="2" ry="2"/><line class="cls-1" x1="22.5" y1="11.5" x2="22.5" y2="15.5"/><line class="cls-1" x1="26.5" y1="11.5" x2="26.5" y2="15.5"/><path class="cls-1" d="M19.5,19.5,18.74,18a10,10,0,0,1,0-8.94L19.5,7.5h10L30.26,9a10,10,0,0,1,0,8.94L29.5,19.5Z"/><path class="cls-1" d="M19.5,39.5,18.74,38a10,10,0,0,1,0-8.94l.76-1.53h10L30.26,29a10,10,0,0,1,0,8.94L29.5,39.5Z"/><line class="cls-1" x1="22.5" y1="31.5" x2="22.5" y2="35.5"/><line class="cls-1" x1="26.5" y1="31.5" x2="26.5" y2="35.5"/><circle class="cls-1" cx="24.5" cy="23.5" r="1"/></svg>