<svg id="Layer_1" data-name="Layer 1" xmlns="http://www.w3.org/2000/svg" viewBox="0 0 16 16"><title>unicons-docs-16px-file-pptx</title><path d="M.13,6.45H1.84A1.44,1.44,0,0,1,3.45,7.9h0a1.5,1.5,0,0,1-1.7,1.48h-.7v.83a.46.46,0,0,1-.46.46.46.46,0,0,1-.46-.46ZM1.78,8.57a.65.65,0,0,0,.73-.64h0c0-.41-.29-.64-.75-.64H1.05V8.57Z" style="fill:#5a5b5e"/><path d="M4.26,6.45H6A1.44,1.44,0,0,1,7.58,7.9h0a1.5,1.5,0,0,1-1.7,1.48h-.7v.83a.46.46,0,1,1-.92,0ZM5.91,8.57a.65.65,0,0,0,.73-.64h0c0-.41-.29-.64-.75-.64H5.18V8.57Z" style="fill:#5a5b5e"/><path d="M9.36,7.3H8.47a.43.43,0,0,1,0-.85h2.7a.43.43,0,0,1,0,.85h-.89v2.92a.46.46,0,0,1-.92,0Z" style="fill:#5a5b5e"/><path d="M12.3,9.9l1.13-1.39-1.07-1.3a.57.57,0,0,1-.14-.34.44.44,0,0,1,.46-.46.48.48,0,0,1,.43.23L14,7.87l.91-1.2a.53.53,0,0,1,.45-.25.42.42,0,0,1,.42.43.55.55,0,0,1-.14.35L14.61,8.5l1.13,1.39a.56.56,0,0,1,.14.34.44.44,0,0,1-.46.46.49.49,0,0,1-.43-.23L14,9.17l-1,1.27a.53.53,0,0,1-.45.25.42.42,0,0,1-.42-.43A.55.55,0,0,1,12.3,9.9Z" style="fill:#5a5b5e"/><path d="M2.5,4.5v-2a1,1,0,0,1,1-1H10a1,1,0,0,1,.71.29l2.35,2.35" style="fill:none;stroke:#5a5b5e;stroke-linecap:square;stroke-linejoin:round"/><path d="M13.5,12.5v1a1,1,0,0,1-1,1h-9a1,1,0,0,1-1-1v-1" style="fill:none;stroke:#5a5b5e;stroke-linecap:square;stroke-linejoin:round"/></svg>