<svg id="Layer_1" data-name="Layer 1" xmlns="http://www.w3.org/2000/svg" viewBox="0 0 24 24"><title>unity-people-24px-person-running</title><circle cx="18.22" cy="3.87" r="2" transform="translate(2.6 14.01) rotate(-45)" style="fill:none;stroke:currentColor;stroke-linecap:square;stroke-linejoin:round"/><path d="M8.32,15.18,3.37,20.13a1,1,0,0,1-1.41,0H2a1,1,0,0,1,0-1.41L6.9,13.77" style="fill:none;stroke:currentColor;stroke-linecap:square;stroke-linejoin:round"/><path d="M14.68,6l4.95,4.95,2.12-2.12a1,1,0,0,1,1.41,0h0a1,1,0,0,1,0,1.41l-2.83,2.83a1,1,0,0,1-1.41,0L16.1,10.23a1,1,0,0,0-1.41,0l-2.12,2.12a1,1,0,0,0,0,1.41l2.83,2.83a1,1,0,0,1,0,1.41L10.44,23A1,1,0,0,1,9,23H9a1,1,0,0,1,0-1.41l4.24-4.24L8.32,12.35Z" style="fill:none;stroke:currentColor;stroke-linecap:square;stroke-linejoin:round"/><path d="M13.27,4.58,11.85,3.16a1,1,0,0,0-1.41,0L7.61,6a1,1,0,0,0,0,1.41h0A1,1,0,0,0,9,7.4l2.12-2.12.71.71" style="fill:none;stroke:currentColor;stroke-linecap:square;stroke-linejoin:round"/></svg>