<svg id="Layer_1" data-name="Layer 1" xmlns="http://www.w3.org/2000/svg" viewBox="0 0 48 48"><title>unicons-interface-48px-settings</title><path d="M45.5,23.2v2.6a2,2,0,0,1-1.68,2l-3.06.51a3.15,3.15,0,0,0-2.39,1.89l0,.06a3.2,3.2,0,0,0,.34,3.08l1.78,2.51a2,2,0,0,1-.2,2.58l-1.86,1.86a2,2,0,0,1-2.58.2L33.32,38.7a3.2,3.2,0,0,0-3.08-.34l0,0a3.19,3.19,0,0,0-1.92,2.42l-.45,2.67a2.14,2.14,0,0,1-2,2H23.2a2,2,0,0,1-2-1.68l-.51-3a3.19,3.19,0,0,0-1.92-2.42l0,0a3.2,3.2,0,0,0-3.08.34l-2.52,1.78a2,2,0,0,1-2.58-.2L8.72,38.42a2,2,0,0,1-.2-2.58l1.78-2.51a3.2,3.2,0,0,0,.34-3.08l0-.06a3.15,3.15,0,0,0-2.39-1.89l-3.05-.51a2,2,0,0,1-1.68-2V23.2a2,2,0,0,1,1.68-2l3.06-.51a3.15,3.15,0,0,0,2.39-1.89l0-.06a3.2,3.2,0,0,0-.34-3.08L8.52,13.16a2,2,0,0,1,.2-2.58l1.86-1.86a2,2,0,0,1,2.58-.2l2.53,1.8a3.15,3.15,0,0,0,3,.34l.06,0a3.19,3.19,0,0,0,1.92-2.42l.45-2.68a2.13,2.13,0,0,1,2-2h2.6a2,2,0,0,1,2,1.68l.51,3a3.19,3.19,0,0,0,1.92,2.42l0,0a3.2,3.2,0,0,0,3.08-.34l2.51-1.78a2,2,0,0,1,2.58.2l1.86,1.86a2,2,0,0,1,.2,2.58L38.7,15.68a3.2,3.2,0,0,0-.34,3.08l0,0a3.19,3.19,0,0,0,2.42,1.92l3,.51A2,2,0,0,1,45.5,23.2Z" style="fill:none;stroke:#5a5b5e;stroke-linecap:square;stroke-linejoin:round"/><circle cx="24.5" cy="24.5" r="7" style="fill:none;stroke:#5a5b5e;stroke-linecap:square;stroke-linejoin:round"/></svg>