<svg id="Layer_1" data-name="Layer 1" xmlns="http://www.w3.org/2000/svg" viewBox="0 0 16 16"><title>unity-interface-16px-wifi</title><path d="M8.61,13.38,8,14l-.61-.61a.85.85,0,0,1,1.22,0Z" style="fill:currentColor"/><path d="M11,11,9.82,12.17a2.56,2.56,0,0,0-3.65,0L5,11A4.26,4.26,0,0,1,11,11Z" style="fill:currentColor"/><path d="M13.48,8.51,12.26,9.73a6,6,0,0,0-8.52,0L2.52,8.51a7.74,7.74,0,0,1,11,0Z" style="fill:currentColor"/><path d="M15.92,6.07,14.7,7.29a9.46,9.46,0,0,0-13.4,0L.08,6.07a11.19,11.19,0,0,1,15.84,0Z" style="fill:currentColor"/></svg>