<svg id="Layer_1" data-name="Layer 1" xmlns="http://www.w3.org/2000/svg" viewBox="0 0 16 16"><title>unicons-docs-16px-file-png</title><path d="M1.6,6.45H3.31A1.44,1.44,0,0,1,4.92,7.9h0a1.5,1.5,0,0,1-1.7,1.48h-.7v.83a.46.46,0,0,1-.92,0ZM3.25,8.57A.65.65,0,0,0,4,7.93H4c0-.41-.29-.64-.75-.64H2.52V8.57Z" style="fill:#5a5b5e"/><path d="M5.73,6.89a.46.46,0,0,1,.46-.46h.1a.57.57,0,0,1,.48.27L8.55,9V6.87a.46.46,0,1,1,.91,0v3.34a.46.46,0,0,1-.46.46H9a.57.57,0,0,1-.48-.27L6.64,8v2.25a.46.46,0,1,1-.91,0Z" style="fill:#5a5b5e"/><path d="M10.4,8.56h0a2.15,2.15,0,0,1,2.2-2.17A2.32,2.32,0,0,1,14,6.79a.46.46,0,0,1-.26.83.45.45,0,0,1-.28-.1,1.47,1.47,0,0,0-.92-.29,1.26,1.26,0,0,0-1.21,1.31h0a1.26,1.26,0,0,0,1.27,1.33,1.47,1.47,0,0,0,.87-.25V9h-.62a.4.4,0,0,1-.4-.4.4.4,0,0,1,.4-.4H14.4V9.71a.62.62,0,0,1-.32.59,2.79,2.79,0,0,1-1.47.42A2.1,2.1,0,0,1,10.4,8.56Z" style="fill:#5a5b5e"/><path d="M2.5,4.5v-2a1,1,0,0,1,1-1H10a1,1,0,0,1,.71.29l2.35,2.35" style="fill:none;stroke:#5a5b5e;stroke-linecap:square;stroke-linejoin:round"/><path d="M13.5,12.5v1a1,1,0,0,1-1,1h-9a1,1,0,0,1-1-1v-1" style="fill:none;stroke:#5a5b5e;stroke-linecap:square;stroke-linejoin:round"/></svg>