<svg id="Layer_1" data-name="Layer 1" xmlns="http://www.w3.org/2000/svg" viewBox="0 0 48 48"><title>unicons-things-48px-life-saver-float</title><path d="M4.6,16A21,21,0,0,1,16,4.6" style="fill:none;stroke:currentColor;stroke-linejoin:round"/><path d="M32,4.6A21,21,0,0,1,43.4,16" style="fill:none;stroke:currentColor;stroke-linejoin:round"/><path d="M4.6,32A21,21,0,0,0,16,43.4" style="fill:none;stroke:currentColor;stroke-linejoin:round"/><path d="M32,43.4A21,21,0,0,0,43.4,32" style="fill:none;stroke:currentColor;stroke-linejoin:round"/><circle cx="24.5" cy="24.5" r="11" style="fill:none;stroke:currentColor;stroke-linejoin:round"/><polyline points="19.5 13.5 19.5 1.5 29.5 1.5 29.5 13.5" style="fill:none;stroke:currentColor;stroke-linecap:square;stroke-linejoin:round"/><polyline points="29.5 35.5 29.5 47.5 19.5 47.5 19.5 35.5" style="fill:none;stroke:currentColor;stroke-linecap:square;stroke-linejoin:round"/><polyline points="35.5 19.5 47.5 19.5 47.5 29.5 35.5 29.5" style="fill:none;stroke:currentColor;stroke-linecap:square;stroke-linejoin:round"/><polyline points="13.5 29.5 1.5 29.5 1.5 19.5 13.5 19.5" style="fill:none;stroke:currentColor;stroke-linecap:square;stroke-linejoin:round"/></svg>