<svg id="Layer_1" data-name="Layer 1" xmlns="http://www.w3.org/2000/svg" viewBox="0 0 24 24"><title>unity-interface-24px-power-on</title><path d="M19.5,5.5H3.5a3,3,0,0,0-3,3v7a3,3,0,0,0,3,3h16a3,3,0,0,0,3-3v-7A3,3,0,0,0,19.5,5.5Zm2,10a2,2,0,0,1-2,2h-6a2,2,0,0,1-2-2v-7a2,2,0,0,1,2-2h6a2,2,0,0,1,2,2Z" style="fill:currentColor;stroke:currentColor;stroke-linecap:square;stroke-linejoin:round"/><line x1="17.5" y1="14.5" x2="17.5" y2="9.5" style="fill:none;stroke:currentColor;stroke-linecap:square;stroke-linejoin:round"/></svg>