<svg id="Layer_1" data-name="Layer 1" xmlns="http://www.w3.org/2000/svg" viewBox="0 0 48 48"><title>unicons-docs-48px-file-pdf-1</title><path d="M40.33,13.33,32.67,5.67A4,4,0,0,0,29.84,4.5H9.5a2,2,0,0,0-2,2v36a2,2,0,0,0,2,2h30a2,2,0,0,0,2-2V16.16A4,4,0,0,0,40.33,13.33Z" style="fill:none;stroke:#5a5b5e;stroke-linecap:square;stroke-linejoin:round"/><path d="M23.61,31.8c-9.12.93-9.82,2.64-8.85,3.61s4.74-3,6.44-7.76,3-10.89.7-10.89,1.38,6.48,3.9,10.32,6.39,7.51,7.47,6.43S32.73,30.86,23.61,31.8Z" style="fill:none;stroke:#5a5b5e;stroke-linecap:square;stroke-linejoin:round"/></svg>