<svg id="icons" xmlns="http://www.w3.org/2000/svg" viewBox="0 0 16 16"><defs><style>.cls-1{fill:#112;}.cls-2{fill:#5a5b5e;}.cls-3{fill:none;stroke:#5a5b5e;stroke-linecap:square;stroke-miterlimit:10;fill-rule:evenodd;}</style></defs><title>unicons-things-16px-wrench</title><path class="cls-1" d="M3.47,11.57h0Z"/><path class="cls-2" d="M3.47,11a.53.53,0,1,0,.37.15A.52.52,0,0,0,3.47,11Z"/><path class="cls-3" d="M12.46,8.07A4,4,0,0,1,8.17,9L4.55,13.2a1.94,1.94,0,0,1-2.85.11h0a1.94,1.94,0,0,1,.11-2.85L6,6.85a4,4,0,0,1,5.19-5.19L8.42,4.47l2.12,2.12,2.81-2.81A4,4,0,0,1,12.46,8.07Z"/></svg>