<svg id="Layer_1" data-name="Layer 1" xmlns="http://www.w3.org/2000/svg" viewBox="0 0 48 48"><defs><style>.cls-1{fill:none;stroke:#5a5b5e;stroke-linecap:square;stroke-linejoin:round;}</style></defs><title>unicons-interface-48px-inbox</title><path class="cls-1" d="M30.5,10.5H40.77a2,2,0,0,1,2,1.72L44.5,24.5"/><path class="cls-1" d="M4.5,24.5,6.25,12.22a2,2,0,0,1,2-1.72H18.5"/><path class="cls-1" d="M42.5,44.5H6.5a2,2,0,0,1-2-2v-13a1,1,0,0,1,1-1h10a1,1,0,0,1,1,1v4a1,1,0,0,0,1,1h14a1,1,0,0,0,1-1v-4a1,1,0,0,1,1-1h10a1,1,0,0,1,1,1v13A2,2,0,0,1,42.5,44.5Z"/><line class="cls-1" x1="24.5" y1="18.5" x2="24.5" y2="0.5"/><path class="cls-1" d="M31.5,16.5l-5.59,5.59a2,2,0,0,1-2.83,0L17.5,16.5"/></svg>