<svg id="Layer_1" data-name="Layer 1" xmlns="http://www.w3.org/2000/svg" viewBox="0 0 16 16"><defs><style>.cls-1,.cls-2{fill:none;stroke:#5a5b5e;stroke-linejoin:round;}.cls-2{stroke-linecap:square;}</style></defs><title>unicons-basic-16px-arrow-multi-direction</title><line class="cls-1" x1="8.5" y1="1.5" x2="8.5" y2="5.5"/><line class="cls-1" x1="8.5" y1="15.5" x2="8.5" y2="11.5"/><line class="cls-1" x1="15.5" y1="8.5" x2="11.5" y2="8.5"/><line class="cls-1" x1="1.5" y1="8.5" x2="5.5" y2="8.5"/><path class="cls-2" d="M6.52,3.22,8,1.71a.66.66,0,0,1,.93,0l1.51,1.51"/><path class="cls-2" d="M13.78,6.52,15.29,8a.66.66,0,0,1,0,.93l-1.51,1.51"/><path class="cls-2" d="M3.22,10.48,1.71,9a.66.66,0,0,1,0-.93L3.22,6.52"/><path class="cls-2" d="M10.48,13.78,9,15.29a.66.66,0,0,1-.93,0L6.52,13.78"/></svg>