<svg id="Layer_1" data-name="Layer 1" xmlns="http://www.w3.org/2000/svg" viewBox="0 0 48 48"><defs><style>.cls-1{fill:none;stroke:#5a5b5e;stroke-linecap:square;stroke-linejoin:round;}</style></defs><title>unicons-things-48px-database</title><path class="cls-1" d="M40.5,20.5c0,2.21-7.16,4-16,4s-16-1.79-16-4"/><path class="cls-1" d="M40.5,30.5c0,2.21-7.16,4-16,4s-16-1.79-16-4"/><line class="cls-1" x1="18.5" y1="24.5" x2="18.5" y2="28.5"/><line class="cls-1" x1="18.5" y1="14.5" x2="18.5" y2="18.5"/><line class="cls-1" x1="18.5" y1="34.5" x2="18.5" y2="38.5"/><path class="cls-1" d="M40.5,40.5c0,2.21-7.16,4-16,4s-16-1.79-16-4v-30c0-2.21,7.16-4,16-4s16,1.79,16,4Z"/><path class="cls-1" d="M40.5,10.5c0,2.21-7.16,4-16,4s-16-1.79-16-4"/></svg>