<svg id="Layer_1" data-name="Layer 1" xmlns="http://www.w3.org/2000/svg" viewBox="0 0 48 48"><title>unicons-things-48px-stop-sign</title><path d="M33.61,1.5H15.39a1,1,0,0,0-.71.29L1.79,14.68a1,1,0,0,0-.29.71V33.61a1,1,0,0,0,.29.71L14.68,47.21a1,1,0,0,0,.71.29H33.61a1,1,0,0,0,.71-.29L47.21,34.32a1,1,0,0,0,.29-.71V15.39a1,1,0,0,0-.29-.71L34.32,1.79A1,1,0,0,0,33.61,1.5Z" style="fill:none;stroke:#5a5b5e;stroke-linecap:square;stroke-linejoin:round"/><path d="M31.13,7.5H17.87a1,1,0,0,0-.71.29L7.79,17.17a1,1,0,0,0-.29.71V31.13a1,1,0,0,0,.29.71l9.37,9.37a1,1,0,0,0,.71.29H31.13a1,1,0,0,0,.71-.29l9.37-9.37a1,1,0,0,0,.29-.71V17.87a1,1,0,0,0-.29-.71L31.83,7.79A1,1,0,0,0,31.13,7.5Z" style="fill:none;stroke:#5a5b5e;stroke-linecap:square;stroke-linejoin:round"/></svg>