<svg id="Layer_1" data-name="Layer 1" xmlns="http://www.w3.org/2000/svg" viewBox="0 0 24 24"><title>unity-interface-24px-settings</title><path d="M22.5,11.35v1.3a1,1,0,0,1-.84,1l-1.53.26a1.58,1.58,0,0,0-1.2,1v0a1.58,1.58,0,0,0,.16,1.53l.9,1.27a1,1,0,0,1-.1,1.29l-.93.93a1,1,0,0,1-1.29.1l-1.27-.9a1.58,1.58,0,0,0-1.53-.16h0a1.58,1.58,0,0,0-1,1.2l-.23,1.35a1.07,1.07,0,0,1-1,1h-1.3a1,1,0,0,1-1-.84l-.26-1.53a1.58,1.58,0,0,0-1-1.2h0a1.58,1.58,0,0,0-1.53.16L6.33,20A1,1,0,0,1,5,19.89L4.11,19A1,1,0,0,1,4,17.67l.9-1.27a1.58,1.58,0,0,0,.16-1.53v0a1.58,1.58,0,0,0-1.2-1l-1.53-.26a1,1,0,0,1-.84-1v-1.3a1,1,0,0,1,.84-1l1.53-.26a1.58,1.58,0,0,0,1.2-1v0A1.58,1.58,0,0,0,4.91,7.6L4,6.33A1,1,0,0,1,4.11,5L5,4.11A1,1,0,0,1,6.33,4l1.27.9a1.58,1.58,0,0,0,1.53.16h0a1.58,1.58,0,0,0,1-1.2l.23-1.35a1.07,1.07,0,0,1,1-1h1.3a1,1,0,0,1,1,.84l.26,1.53a1.58,1.58,0,0,0,1,1.2h0a1.58,1.58,0,0,0,1.53-.16L17.67,4a1,1,0,0,1,1.29.1l.93.93A1,1,0,0,1,20,6.33l-.9,1.27a1.58,1.58,0,0,0-.16,1.53v0a1.58,1.58,0,0,0,1.2,1l1.53.26A1,1,0,0,1,22.5,11.35Z" style="fill:none;stroke:currentColor;stroke-linecap:square;stroke-linejoin:round"/><circle cx="12" cy="12" r="3.5" style="fill:none;stroke:currentColor;stroke-linecap:square;stroke-linejoin:round"/></svg>