<svg id="Layer_1" data-name="Layer 1" xmlns="http://www.w3.org/2000/svg" viewBox="0 0 16 16"><title>unicons-docs-16px-folder-shared</title><line x1="7.5" y1="10.5" x2="7.5" y2="12.5" style="fill:none;stroke:#5a5b5e;stroke-linecap:square;stroke-linejoin:round"/><circle cx="10.5" cy="8.24" r="0.75" style="fill:#5a5b5e"/><circle cx="7.5" cy="8.24" r="0.75" style="fill:#5a5b5e"/><line x1="5.5" y1="10.5" x2="12.5" y2="10.5" style="fill:none;stroke:#5a5b5e;stroke-linecap:square;stroke-linejoin:round"/><line x1="10.5" y1="10.5" x2="10.5" y2="12.5" style="fill:none;stroke:#5a5b5e;stroke-linecap:square;stroke-linejoin:round"/><path d="M4.5,5.5h11v8a1,1,0,0,1-1,1H3.5a1,1,0,0,1-1-1V3.5a1,1,0,0,1,1-1H6.22a1,1,0,0,1,.46.11l1.49.78a1,1,0,0,0,.46.11H13.5a1,1,0,0,1,1,1h0" style="fill:none;stroke:#5a5b5e;stroke-linecap:square;stroke-linejoin:round"/></svg>