<svg id="Layer_1" data-name="Layer 1" xmlns="http://www.w3.org/2000/svg" viewBox="0 0 48 48"><title>unicons-interface-48px-paste</title><rect x="14.5" y="5.5" width="16" height="8" rx="1" ry="1" style="fill:none;stroke:#5a5b5e;stroke-linecap:square;stroke-linejoin:round"/><path d="M40.5,15.5v-4a2,2,0,0,0-2-2h-4" style="fill:none;stroke:#5a5b5e;stroke-linecap:square;stroke-linejoin:round"/><path d="M10.5,9.5h-4a2,2,0,0,0-2,2v28a2,2,0,0,0,2,2h15" style="fill:none;stroke:#5a5b5e;stroke-linecap:square;stroke-linejoin:round"/><line x1="29.5" y1="35.5" x2="41.5" y2="35.5" style="fill:none;stroke:#5a5b5e;stroke-linecap:square;stroke-linejoin:round"/><line x1="29.5" y1="31.5" x2="41.5" y2="31.5" style="fill:none;stroke:#5a5b5e;stroke-linecap:square;stroke-linejoin:round"/><line x1="29.5" y1="27.5" x2="41.5" y2="27.5" style="fill:none;stroke:#5a5b5e;stroke-linecap:square;stroke-linejoin:round"/><line x1="29.5" y1="23.5" x2="41.5" y2="23.5" style="fill:none;stroke:#5a5b5e;stroke-linecap:square;stroke-linejoin:round"/><line x1="29.5" y1="39.5" x2="41.5" y2="39.5" style="fill:none;stroke:#5a5b5e;stroke-linecap:square;stroke-linejoin:round"/><rect x="25.5" y="19.5" width="20" height="24" rx="1" ry="1" style="fill:none;stroke:#5a5b5e;stroke-linecap:square;stroke-linejoin:round"/></svg>