<svg id="Layer_1" data-name="Layer 1" xmlns="http://www.w3.org/2000/svg" viewBox="0 0 24 24"><defs><style>.cls-1{fill:none;stroke:#5a5b5e;stroke-linecap:square;stroke-linejoin:round;}</style></defs><title>unicons-docs-24px-folder-shared</title><line class="cls-1" x1="7.5" y1="15.5" x2="7.5" y2="18.5"/><circle class="cls-1" cx="12.5" cy="12.5" r="1"/><circle class="cls-1" cx="7.5" cy="12.5" r="1"/><circle class="cls-1" cx="17.5" cy="12.5" r="1"/><line class="cls-1" x1="12.5" y1="15.5" x2="12.5" y2="18.5"/><line class="cls-1" x1="5.5" y1="15.5" x2="19.5" y2="15.5"/><line class="cls-1" x1="17.5" y1="15.5" x2="17.5" y2="18.5"/><path class="cls-1" d="M5.5,8.5h16a1,1,0,0,1,1,1v11a1,1,0,0,1-1,1H3.5a1,1,0,0,1-1-1V4.5a1,1,0,0,1,1-1H8.79a2,2,0,0,1,1.13.35l1.9,1.3a2,2,0,0,0,1.13.35H20.5a1,1,0,0,1,1,1"/></svg>