<svg id="Layer_1" data-name="Layer 1" xmlns="http://www.w3.org/2000/svg" viewBox="0 0 48 48"><title>unicons-docs-48px-file-pdf-2</title><rect x="3.5" y="16.5" width="42" height="17" rx="2" ry="2" style="fill:none;stroke:#5a5b5e;stroke-linecap:square;stroke-linejoin:round"/><path d="M7.5,12.5v-6a2,2,0,0,1,2-2H29.84a4,4,0,0,1,2.84,1.18L39.5,12.5" style="fill:none;stroke:#5a5b5e;stroke-linecap:square;stroke-linejoin:round"/><path d="M41.5,37.5v5a2,2,0,0,1-2,2H9.5a2,2,0,0,1-2-2v-5" style="fill:none;stroke:#5a5b5e;stroke-linecap:square;stroke-linejoin:round"/><path d="M12.69,21.6a.73.73,0,0,1,.74-.74H16c2,0,3.19,1.12,3.19,2.81v0c0,1.88-1.51,2.87-3.36,2.87H14.17v2a.74.74,0,0,1-1.48,0Zm3.19,3.62c1.12,0,1.81-.62,1.81-1.5v0c0-1-.71-1.5-1.81-1.5H14.17v3Z" style="fill:#5a5b5e"/><path d="M20.71,21.6a.73.73,0,0,1,.74-.74h2.39A4.19,4.19,0,0,1,28.3,25v0a4.2,4.2,0,0,1-4.46,4.2H21.45a.73.73,0,0,1-.74-.74Zm3.13,6.31a2.74,2.74,0,0,0,2.91-2.83v0a2.75,2.75,0,0,0-2.91-2.85H22.19v5.71Z" style="fill:#5a5b5e"/><path d="M30.09,21.6a.73.73,0,0,1,.74-.74h4.89a.67.67,0,0,1,0,1.34H31.57v2.29h3.62a.67.67,0,0,1,0,1.34H31.57v2.75a.74.74,0,0,1-1.47,0Z" style="fill:#5a5b5e"/></svg>