<svg id="Layer_1" data-name="Layer 1" xmlns="http://www.w3.org/2000/svg" viewBox="0 0 48 48"><defs><style>.cls-1,.cls-2{fill:none;stroke:#5a5b5e;stroke-linejoin:round;}.cls-2{stroke-linecap:square;}</style></defs><title>unicons-things-48px-headset</title><path class="cls-1" d="M7.5,24.5h5a1,1,0,0,1,1,1v10a1,1,0,0,1-1,1h-5a4,4,0,0,1-4-4v-4A4,4,0,0,1,7.5,24.5Z"/><path class="cls-1" d="M36.5,24.5h5a4,4,0,0,1,4,4v4a4,4,0,0,1-4,4h-5a1,1,0,0,1-1-1v-10A1,1,0,0,1,36.5,24.5Z"/><path class="cls-2" d="M7,20.5a16,16,0,0,1,16-16h2a16,16,0,0,1,16,16"/><path class="cls-1" d="M31,44.5h6.5a4,4,0,0,0,4-4V37"/><rect class="cls-1" x="23.5" y="42.5" width="7" height="4" rx="1" ry="1"/></svg>