<svg id="Layer_1" data-name="Layer 1" xmlns="http://www.w3.org/2000/svg" viewBox="0 0 48 48"><title>unicons-interface-48px-bell-line</title><path d="M38.5,35.5h-28a2,2,0,0,1-2-2V28.84a6,6,0,0,1,1.89-4.37l2.85-2.68a4,4,0,0,0,1.26-2.91V15a10,10,0,0,1,10-10h0a10,10,0,0,1,10,10v3.79a4,4,0,0,0,1.23,2.89l2.92,2.8a6,6,0,0,1,1.85,4.33V33.5A2,2,0,0,1,38.5,35.5Z" style="fill:none;stroke:currentColor;stroke-linecap:square;stroke-linejoin:round"/><path d="M18.68,38.5a6.49,6.49,0,0,0,12.64,0" style="fill:none;stroke:currentColor;stroke-linecap:square;stroke-linejoin:round"/></svg>