<svg id="Layer_1" data-name="Layer 1" xmlns="http://www.w3.org/2000/svg" viewBox="0 0 24 24"><defs><style>.cls-1{fill:none;stroke:#5a5b5e;stroke-linecap:square;stroke-linejoin:round;}</style></defs><title>unicons-things-24px-stop-sign</title><path class="cls-1" d="M16.31.5H7.69a1.1,1.1,0,0,0-.77.32L.82,6.92a1.1,1.1,0,0,0-.32.77v8.62a1.1,1.1,0,0,0,.32.77l6.09,6.09a1.1,1.1,0,0,0,.77.32h8.62a1.1,1.1,0,0,0,.77-.32l6.09-6.09a1.1,1.1,0,0,0,.32-.77V7.69a1.1,1.1,0,0,0-.32-.77L17.08.82A1.1,1.1,0,0,0,16.31.5Z"/><path class="cls-1" d="M15.05,3.5H8.95a1.13,1.13,0,0,0-.8.33L3.83,8.15a1.13,1.13,0,0,0-.33.8v6.1a1.13,1.13,0,0,0,.33.8l4.32,4.32a1.13,1.13,0,0,0,.8.33h6.1a1.13,1.13,0,0,0,.8-.33l4.32-4.32a1.13,1.13,0,0,0,.33-.8V8.95a1.13,1.13,0,0,0-.33-.8L15.85,3.83A1.13,1.13,0,0,0,15.05,3.5Z"/></svg>