<svg id="Layer_1" data-name="Layer 1" xmlns="http://www.w3.org/2000/svg" viewBox="0 0 16 16"><defs><style>.cls-1,.cls-2{fill:none;stroke:#5a5b5e;stroke-linejoin:round;}.cls-1{stroke-linecap:square;}</style></defs><title>unicons-transportation-16px-plane</title><path class="cls-1" d="M11.5,11.5h1.62a1,1,0,0,0,.71-.29l1-1a1,1,0,0,0,0-1.41l-1-1a1,1,0,0,0-.71-.29H3.64l-1.32-3H.5L2,10A2,2,0,0,0,3.91,11.5H4.5"/><path class="cls-1" d="M10.24,9.88l-3,4.2a1,1,0,0,1-.81.42H4.3L6.94,9.88"/><path class="cls-2" d="M6.28,7.48,5,5.5H7.13a1,1,0,0,1,.77.36L9.25,7.48"/><line class="cls-1" x1="14.5" y1="9.5" x2="13.5" y2="9.5"/></svg>