<svg id="Layer_1" data-name="Layer 1" xmlns="http://www.w3.org/2000/svg" viewBox="0 0 48 48"><title>unicons-interface-48px-archive-file-box</title><path d="M4.5,22.5,6.25,10.22a2,2,0,0,1,2-1.72H40.77a2,2,0,0,1,2,1.72L44.5,22.5" style="fill:none;stroke:#5a5b5e;stroke-linecap:square;stroke-linejoin:round"/><path d="M42.5,42.5H6.5a2,2,0,0,1-2-2v-13a1,1,0,0,1,1-1h10a1,1,0,0,1,1,1v4a1,1,0,0,0,1,1h14a1,1,0,0,0,1-1v-4a1,1,0,0,1,1-1h10a1,1,0,0,1,1,1v13A2,2,0,0,1,42.5,42.5Z" style="fill:none;stroke:#5a5b5e;stroke-linecap:square;stroke-linejoin:round"/></svg>