<svg id="Layer_1" data-name="Layer 1" xmlns="http://www.w3.org/2000/svg" viewBox="0 0 16 16"><title>unicons-docs-16px-file-csv</title><path d="M1.95,8.56h0A2.13,2.13,0,0,1,4.13,6.38a2.22,2.22,0,0,1,1.4.43.46.46,0,0,1,.18.37.45.45,0,0,1-.46.45A.49.49,0,0,1,5,7.53a1.38,1.38,0,0,0-.86-.3A1.24,1.24,0,0,0,2.91,8.54h0A1.25,1.25,0,0,0,4.13,9.87,1.35,1.35,0,0,0,5,9.54a.43.43,0,0,1,.71.32.43.43,0,0,1-.16.33,2.11,2.11,0,0,1-1.49.53A2.12,2.12,0,0,1,1.95,8.56Z" style="fill:#5a5b5e"/><path d="M6.6,10.2a.43.43,0,0,1,.26-.77.45.45,0,0,1,.26.08,1.77,1.77,0,0,0,1.07.38c.38,0,.61-.15.61-.4h0c0-.23-.14-.35-.85-.53S6.56,8.5,6.56,7.67h0A1.31,1.31,0,0,1,8,6.39a2.44,2.44,0,0,1,1.33.37.42.42,0,0,1,.2.37.42.42,0,0,1-.43.43.44.44,0,0,1-.23-.07A1.75,1.75,0,0,0,8,7.21c-.35,0-.54.16-.54.37h0c0,.28.18.37.91.55s1.33.53,1.33,1.26h0c0,.83-.64,1.3-1.54,1.3A2.71,2.71,0,0,1,6.6,10.2Z" style="fill:#5a5b5e"/><path d="M11.64,10.35,10.28,7.09a.59.59,0,0,1-.05-.22.45.45,0,0,1,.46-.46.48.48,0,0,1,.47.32l1,2.72,1.06-2.75a.48.48,0,0,1,.44-.29.45.45,0,0,1,.46.44.53.53,0,0,1,0,.2l-1.37,3.29a.54.54,0,0,1-.52.37h-.06A.54.54,0,0,1,11.64,10.35Z" style="fill:#5a5b5e"/><path d="M2.5,4.5v-2a1,1,0,0,1,1-1H10a1,1,0,0,1,.71.29l2.35,2.35" style="fill:none;stroke:#5a5b5e;stroke-linecap:square;stroke-linejoin:round"/><path d="M13.5,12.5v1a1,1,0,0,1-1,1h-9a1,1,0,0,1-1-1v-1" style="fill:none;stroke:#5a5b5e;stroke-linecap:square;stroke-linejoin:round"/></svg>