<svg id="Layer_1" data-name="Layer 1" xmlns="http://www.w3.org/2000/svg" viewBox="0 0 48 48"><defs><style>.cls-1,.cls-2{fill:none;stroke:#5a5b5e;stroke-linecap:square;stroke-linejoin:round;}.cls-2{stroke-dasharray:2.9 3.86;}</style></defs><title>unicons-interface-48px-map</title><path class="cls-1" d="M45.87,36.5l-13,5.21a1,1,0,0,1-.7,0l-15.3-5.36a1,1,0,0,0-.7,0L3.87,41.3a1,1,0,0,1-1.37-.93V12.93A1,1,0,0,1,3.13,12l13-5.21a1,1,0,0,1,.7,0l15.3,5.36a1,1,0,0,0,.7,0L45.13,7.2a1,1,0,0,1,1.37.93V35.57A1,1,0,0,1,45.87,36.5Z"/><line class="cls-1" x1="16.5" y1="7.5" x2="16.5" y2="36.5"/><line class="cls-1" x1="32.5" y1="12.5" x2="32.5" y2="41.5"/><line class="cls-1" x1="38.75" y1="27.5" x2="42.25" y2="30"/><line class="cls-1" x1="42.25" y1="26.5" x2="38.75" y2="32"/><path class="cls-1" d="M8.5,23.5q0,.8.07,1.5"/><path class="cls-2" d="M9.71,28.66C11,30.72,13.37,31.5,16.5,31.5c11.2,0,4.37-13,16-13,4.26,0,6.51.57,7.45,2.64"/><path class="cls-1" d="M40.42,23a13.06,13.06,0,0,1,.08,1.5"/><circle class="cls-1" cx="8.5" cy="19.5" r="2"/></svg>