<svg id="Layer_1" data-name="Layer 1" xmlns="http://www.w3.org/2000/svg" viewBox="0 0 16 16"><title>unicons-docs-16px-file-pdf-2</title><path d="M1.91,6.45H3.63A1.44,1.44,0,0,1,5.24,7.9h0a1.5,1.5,0,0,1-1.7,1.48h-.7v.83a.46.46,0,0,1-.92,0ZM3.57,8.57a.65.65,0,0,0,.73-.64h0c0-.41-.29-.64-.75-.64H2.84V8.57Z" style="fill:#5a5b5e"/><path d="M6,6.45H7.68A2.09,2.09,0,0,1,9.91,8.54h0a2.1,2.1,0,0,1-2.23,2.1H6ZM7.68,9.81A1.2,1.2,0,0,0,8.94,8.56h0A1.21,1.21,0,0,0,7.68,7.28H7V9.81Z" style="fill:#5a5b5e"/><path d="M10.85,6.45h2.81a.42.42,0,0,1,0,.84H11.78v.89H13.4a.42.42,0,0,1,0,.84H11.78v1.2a.46.46,0,1,1-.92,0Z" style="fill:#5a5b5e"/><path d="M2.5,4.5v-2a1,1,0,0,1,1-1H10a1,1,0,0,1,.71.29l2.35,2.35" style="fill:none;stroke:#5a5b5e;stroke-linecap:square;stroke-linejoin:round"/><path d="M13.5,12.5v1a1,1,0,0,1-1,1h-9a1,1,0,0,1-1-1v-1" style="fill:none;stroke:#5a5b5e;stroke-linecap:square;stroke-linejoin:round"/></svg>