<svg id="Layer_1" data-name="Layer 1" xmlns="http://www.w3.org/2000/svg" viewBox="0 0 24 24"><title>unity-people-24px-person-walking</title><circle cx="12.5" cy="2.5" r="2" style="fill:none;stroke:#5a5b5e;stroke-linecap:square;stroke-linejoin:round"/><path d="M11.5,18.5v4a1,1,0,0,1-1,1h0a1,1,0,0,1-1-1v-6" style="fill:none;stroke:#5a5b5e;stroke-linecap:square;stroke-linejoin:round"/><path d="M7.5,13.5l.88-6.14a1,1,0,0,1,1-.86h3a1,1,0,0,1,1,1.16L12.58,12a1,1,0,0,0,.28.87l2.34,2.34a1,1,0,0,1,.29.71V22.5a1,1,0,0,1-1,1h0a1,1,0,0,1-1-1V18a1,1,0,0,0-.4-.8L10,14.86a1,1,0,0,1-.39-1l.9-5.4" style="fill:none;stroke:#5a5b5e;stroke-linecap:square;stroke-linejoin:round"/></svg>