<?xml version="1.0" encoding="utf-8"?>
<!-- Generator: Adobe Illustrator 20.0.0, SVG Export Plug-In . SVG Version: 6.00 Build 0)  -->
<svg version="1.1" id="Layer_1" xmlns="http://www.w3.org/2000/svg" xmlns:xlink="http://www.w3.org/1999/xlink" x="0px" y="0px" viewBox="0 0 24 24"   xml:space="preserve">
<path fill="currentColor" d="M17,8.2c0.1,0.3,0,0.5-0.3,0.6l-10,3.5c-0.1,0-0.1,0-0.2,0c-0.2,0-0.4-0.1-0.5-0.3c-0.1-0.3,0-0.5,0.3-0.6
	l10-3.5C16.6,7.8,16.9,8,17,8.2z M16.3,4.9l-10,3.5C6.1,8.5,5.9,8.8,6,9.1c0.1,0.2,0.3,0.3,0.5,0.3c0.1,0,0.1,0,0.2,0l10-3.5
	c0.3-0.1,0.4-0.4,0.3-0.6C16.9,5,16.6,4.8,16.3,4.9z M6.5,6.4c0.1,0,0.1,0,0.2,0l10-3.5c0.3-0.1,0.4-0.4,0.3-0.6
	c-0.1-0.3-0.4-0.4-0.6-0.3l-10,3.5C6.1,5.5,5.9,5.8,6,6.1C6.1,6.3,6.3,6.4,6.5,6.4z M6.5,3.4c0.1,0,0.1,0,0.2,0l7-2.4
	c0.3-0.1,0.4-0.4,0.3-0.6c-0.1-0.3-0.4-0.4-0.6-0.3l-7,2.4C6.1,2.5,5.9,2.8,6,3.1C6.1,3.3,6.3,3.4,6.5,3.4z M17,11.2
	c0.1,0.3,0,0.5-0.3,0.6L10,14.2V16h3v-1.5l1-0.3V16h1c0.6,0,1,0.4,1,1v2c0,1.3-1,2.4-2,2.8V23c0,0.6-0.4,1-1,1h-3c-0.6,0-1-0.4-1-1
	v-1.2c-1-0.4-2-1.5-2-2.8v-2c0-0.6,0.4-1,1-1h1v-2.2c0-0.2,0.1-0.4,0.3-0.5l7-2.4C16.6,10.8,16.9,11,17,11.2z M8,17v2c0,1.1,1,2,2,2
	v2h3v-2c1,0,2-0.9,2-2v-2H8z"/>
</svg>
