<?xml version="1.0" encoding="utf-8"?>
<!-- Generator: Adobe Illustrator 20.0.0, SVG Export Plug-In . SVG Version: 6.00 Build 0)  -->
<svg version="1.1" id="Layer_1" xmlns="http://www.w3.org/2000/svg" xmlns:xlink="http://www.w3.org/1999/xlink" x="0px" y="0px"
	  viewBox="0 0 24 24"   xml:space="preserve">
 
<path class="st0" d="M23,6h-1c0-2.8-2.2-5-5-5V0C20.3,0,23,2.7,23,6z M17,3v1c1.1,0,2,0.9,2,2h1C20,4.3,18.7,3,17,3z M18,6v17
	c0,0.6-0.4,1-1,1H7c-0.6,0-1-0.4-1-1V6c0-0.6,0.4-1,1-1h10C17.6,5,18,5.4,18,6z M17,6H7v17h10V6z M8,18.5v-11C8,7.2,8.2,7,8.5,7h7
	C15.8,7,16,7.2,16,7.5v11c0,0.3-0.2,0.5-0.5,0.5h-7C8.2,19,8,18.8,8,18.5z M9,18h6V8H9V18z M12,20c-0.6,0-1,0.4-1,1c0,0.6,0.4,1,1,1
	s1-0.4,1-1C13,20.4,12.6,20,12,20z"/>
</svg>
