<?xml version="1.0" encoding="utf-8"?>
<!-- Generator: Adobe Illustrator 20.0.0, SVG Export Plug-In . SVG Version: 6.00 Build 0)  -->
<svg version="1.1" id="Layer_1" xmlns="http://www.w3.org/2000/svg" xmlns:xlink="http://www.w3.org/1999/xlink" x="0px" y="0px"
	  viewBox="0 0 24 24"   xml:space="preserve">
 
<path fill="currentColor" d="M20,13v3h-6v-3H20 M20.5,12h-7c-0.3,0-0.5,0.2-0.5,0.5v4c0,0.3,0.2,0.5,0.5,0.5h7c0.3,0,0.5-0.2,0.5-0.5v-4
	C21,12.2,20.8,12,20.5,12L20.5,12z M21,20h-8v1h8V20z M21,18h-8v1h8V18z M23,9H11V0h-1v20H4V5h5V4H4C3.4,4,3,4.4,3,5v4H1
	c-0.6,0-1,0.4-1,1v13c0,0.6,0.4,1,1,1h22c0.6,0,1-0.4,1-1V10C24,9.4,23.6,9,23,9z M23,23H1V10h2v10c0,0.6,0.4,1,1,1h6
	c0.6,0,1-0.4,1-1V10h12V23z"/>
</svg>
