<?xml version="1.0" encoding="utf-8"?>
<!-- Generator: Adobe Illustrator 20.0.0, SVG Export Plug-In . SVG Version: 6.00 Build 0)  -->
<svg version="1.1" id="Layer_1" xmlns="http://www.w3.org/2000/svg" xmlns:xlink="http://www.w3.org/1999/xlink" x="0px" y="0px"
	  viewBox="0 0 24 24"   xml:space="preserve">
 
<path class="svg-color" d="M6,3H5V1c0-0.6,0.4-1,1-1h5c0.6,0,1,0.4,1,1v2h-1V1H6V3z M20,10v12c0,1.1-0.9,2-2,2H6c-1.1,0-2-0.9-2-2V6
	c0-1.1,0.9-2,2-2h7c0.1,0,0.2,0,0.3,0.1l6.5,5.5C19.9,9.7,20,9.9,20,10z M19,10.2L12.8,5H6C5.4,5,5,5.4,5,6v16c0,0.6,0.4,1,1,1h12
	c0.6,0,1-0.4,1-1V10.2z M12.4,9.6c0.5,1.1,1,1.8,1.4,2.3c0.7,1,1.2,1.7,1.2,3.6c0,1.7-1.2,3.5-3.5,3.5C9.1,19,8,16.9,8,15.4
	c0-1.8,0.5-2.5,1.2-3.5c0.4-0.5,0.9-1.2,1.4-2.4C10.8,9.2,11.1,9,11.5,9h0C11.9,9,12.2,9.2,12.4,9.6z M11.5,10C10,13.1,9,13,9,15.4
	c0,1,0.7,2.6,2.5,2.6s2.5-1.5,2.5-2.5C14,13,13,13.1,11.5,10z"/>
</svg>
