<?xml version="1.0" encoding="utf-8"?>
<!-- Generator: Adobe Illustrator 20.0.0, SVG Export Plug-In . SVG Version: 6.00 Build 0)  -->
<svg version="1.1" id="Layer_1" xmlns="http://www.w3.org/2000/svg" xmlns:xlink="http://www.w3.org/1999/xlink" x="0px" y="0px"
	  viewBox="0 0 24 24"   xml:space="preserve">
 
<path fill="currentColor" d="M7.5,9h5C12.8,9,13,8.8,13,8.5v-5C13,3.2,12.8,3,12.5,3h-5C7.2,3,7,3.2,7,3.5v5C7,8.8,7.2,9,7.5,9z M8,4h4v4H8
	V4z M21,6h-6V5h6V6z M21,9h-6V8h6V9z M21,12H7v-1h14V12z M21,15H7v-1h14V15z M21,18H7v-1h14V18z M23.3,0H4.7C4.3,0,4,0.3,4,0.7V3
	H0.8C0.3,3,0,3.3,0,3.8v19.5C0,23.7,0.3,24,0.8,24h4h18.5h0c0.4,0,0.7-0.3,0.7-0.7v0V3.8v-3C24,0.3,23.7,0,23.3,0z M23,23H1V4h3v18
	h1V1h18V23z"/>
</svg>
