<?xml version="1.0" encoding="utf-8"?>
<!-- Generator: Adobe Illustrator 20.0.0, SVG Export Plug-In . SVG Version: 6.00 Build 0)  -->
<svg version="1.1" id="Layer_1" xmlns="http://www.w3.org/2000/svg" xmlns:xlink="http://www.w3.org/1999/xlink" x="0px" y="0px"
	  viewBox="0 0 24 24"   xml:space="preserve">
 
<path fill="currentColor" d="M23,0H1C0.4,0,0,0.4,0,1v22c0,0.6,0.4,1,1,1h22c0.6,0,1-0.4,1-1V1C24,0.4,23.6,0,23,0z M23,23H1V1h22V23z
	 M3.4,21.2l-0.9-0.4l3-6c0.1-0.2,0.2-0.3,0.4-0.3c0.2,0,0.4,0.1,0.4,0.2l2.5,4.2l3.6-8.1c0.1-0.2,0.2-0.3,0.4-0.3
	c0.2,0,0.3,0,0.4,0.1l2.5,2.5l4.7-10.3l0.9,0.4l-5,11c-0.1,0.1-0.2,0.3-0.4,0.3c-0.2,0-0.3,0-0.4-0.1l-2.5-2.5l-3.7,8.3
	c-0.1,0.2-0.2,0.3-0.4,0.3c-0.2,0-0.4-0.1-0.5-0.2L6,16L3.4,21.2z"/>
</svg>
