<?xml version="1.0" encoding="utf-8"?>
<!-- Generator: Adobe Illustrator 20.0.0, SVG Export Plug-In . SVG Version: 6.00 Build 0)  -->
<svg version="1.1" id="Layer_1" xmlns="http://www.w3.org/2000/svg" xmlns:xlink="http://www.w3.org/1999/xlink" x="0px" y="0px"
	  viewBox="0 0 24 24"   xml:space="preserve">
 
<path class="st0" d="M9,3H8V0h1V3z M13,0h-1v3h1V0z M12,13H9c-1.7,0-3-1.3-3-3V5c0-0.6,0.4-1,1-1h7c0.6,0,1,0.4,1,1v5
	C15,11.7,13.7,13,12,13z M9,12h3c1.1,0,2-0.9,2-2V5H7v5C7,11.1,7.9,12,9,12z M17,20c0,1.7-1.3,3-3,3c-1.7,0-3-1.3-3-3v-6h-1v6
	c0,2.2,1.8,4,4,4s4-1.8,4-4H17z"/>
</svg>
