<?xml version="1.0" encoding="utf-8"?>
<!-- Generator: Adobe Illustrator 20.0.0, SVG Export Plug-In . SVG Version: 6.00 Build 0)  -->
<svg version="1.1" id="Layer_1" xmlns="http://www.w3.org/2000/svg" xmlns:xlink="http://www.w3.org/1999/xlink" x="0px" y="0px"
	  viewBox="0 0 24 24"   xml:space="preserve">
 
<path class="st0" d="M24,9v9c0,0.5-0.5,1-1,1h-4v-1h4V9H1v9h4v1H1c-0.5,0-1-0.5-1-1V9c0-0.5,0.5-1,1-1h22C23.5,8,24,8.5,24,9z
	 M17.1,16l0.8,7c0.1,0.5-0.3,1-0.9,1H7c-0.5,0-1-0.4-0.9-1l0.8-7C7,15.4,7.5,15,8,15h8C16.5,15,17,15.4,17.1,16z M16.9,23l-0.8-6.9
	L16,16H8l-0.1,0.1L7.1,23H16.9z M9,19h6v-1H9V19z M9,21h6v-1H9V21z M7,1h10v6h1V1c0-0.5-0.5-1-1-1H7C6.5,0,6,0.5,6,1v6h1V1z"/>
</svg>
