<?xml version="1.0" encoding="utf-8"?>
<!-- Generator: Adobe Illustrator 20.0.0, SVG Export Plug-In . SVG Version: 6.00 Build 0)  -->
<svg version="1.1" id="Layer_1" xmlns="http://www.w3.org/2000/svg" xmlns:xlink="http://www.w3.org/1999/xlink" x="0px" y="0px" viewBox="0 0 24 24"   xml:space="preserve">
<path class="svg-color" d="M6,18v2c0,1.1-0.9,2-2,2H3c-1.1,0-2-0.9-2-2v-2h1v2c0,0.6,0.4,1,1,1h1c0.6,0,1-0.4,1-1v-2H6z M22,18v2
	c0,0.6-0.4,1-1,1h-1c-0.6,0-1-0.4-1-1v-2h-1v2c0,1.1,0.9,2,2,2h1c1.1,0,2-0.9,2-2v-2H22z M7.7,5L6.4,9h11.2l-1.5-4H7.7z M16.4,4
	c0.3,0,0.7,0.3,0.8,0.6l1.6,4.9c0.1,0.3-0.1,0.6-0.4,0.6H5.6c-0.3,0-0.5-0.3-0.4-0.6l1.6-4.9C6.9,4.3,7.3,4,7.6,4H16.4L16.4,4z
	 M24,12v4c0,0.6-0.4,1-1,1H1c-0.6,0-1-0.4-1-1v-4c0-1.8,1.2-3.4,2.9-3.8l1.8-4.7C5.1,2.7,6.1,2,6.9,2h10.1c0.9,0,1.9,0.7,2.2,1.5
	l1.8,4.7C22.8,8.6,24,10.2,24,12z M23,12c0-1.5-1.2-2.8-2.7-3l-2-5.2C18.1,3.3,17.5,3,17,3h0H6.9c-0.5,0-1,0.3-1.3,0.9L3.6,9
	C2.2,9.2,1,10.5,1,12v4h22V12z M5.5,12C6.3,12,7,12.7,7,13.5S6.3,15,5.5,15S4,14.3,4,13.5S4.7,12,5.5,12L5.5,12z M18.5,12
	c0.8,0,1.5,0.7,1.5,1.5S19.3,15,18.5,15S17,14.3,17,13.5S17.7,12,18.5,12L18.5,12z"/>
</svg>
