<?xml version="1.0" encoding="utf-8"?>
<!-- Generator: Adobe Illustrator 20.0.0, SVG Export Plug-In . SVG Version: 6.00 Build 0)  -->
<svg version="1.1" id="Layer_1" xmlns="http://www.w3.org/2000/svg" xmlns:xlink="http://www.w3.org/1999/xlink" x="0px" y="0px" viewBox="0 0 24 24"   xml:space="preserve">
<path fill="currentColor" d="M24,4v19c0,0.5-0.5,1-1,1H1c-0.5,0-1-0.5-1-1V4c0-0.5,0.5-1,1-1h4v1H1v19h22V4h-4V3h4C23.5,3,24,3.5,24,4z M7,0
	H6v5h1V0z M18,0h-1v5h1V0z M13,7h-2v2h2V7z M17,7h-2v2h2V7z M21,7h-2v2h2V7z M5,11H3v2h2V11z M9,11H7v2h2V11z M13,11h-2v2h2V11z
	 M17,11h-2v2h2V11z M21,11h-2v2h2V11z M5,15H3v2h2V15z M9,15H7v2h2V15z M11,17h2v-2h-2V17z M15,17h2v-2h-2V17z M21,15h-2v2h2V15z
	 M3,21h2v-2H3V21z M7,21h2v-2H7V21z M8,3v1h8V3"/>
</svg>
