<?xml version="1.0" encoding="utf-8"?>
<!-- Generator: Adobe Illustrator 20.0.0, SVG Export Plug-In . SVG Version: 6.00 Build 0)  -->
<svg version="1.1" id="Layer_1" xmlns="http://www.w3.org/2000/svg" xmlns:xlink="http://www.w3.org/1999/xlink" x="0px" y="0px"
	  viewBox="0 0 24 24"   xml:space="preserve">
 
<path fill="currentColor" d="M16,22h-1v-7c0-0.6,0.4-1,1-1h4c0.6,0,1,0.4,1,1v7h-1v-7h-4V22z M24,5.5V12v11c0,0.6-0.4,1-1,1H4H1
	c-0.6,0-1-0.4-1-1V12V3c0-0.6,0.4-1,1-1h3c0.6,0,1,0.4,1,1v6v1.6l8.2-5.5c0.2-0.1,0.4-0.1,0.5,0C13.9,5.1,14,5.3,14,5.5v5.1l9.2-5.5
	c0.2-0.1,0.3-0.1,0.5,0C23.9,5.2,24,5.3,24,5.5z M23,6.4l-9.2,5.5c-0.2,0.1-0.3,0.1-0.5,0c-0.2-0.1-0.3-0.3-0.3-0.4V6.4l-8.2,5.5
	c-0.2,0.1-0.4,0.1-0.5,0C4.1,11.9,4,11.7,4,11.5V3H1v20h22V6.4z"/>
</svg>
