<?xml version="1.0" encoding="utf-8"?>
<!-- Generator: Adobe Illustrator 20.0.0, SVG Export Plug-In . SVG Version: 6.00 Build 0)  -->
<svg version="1.1" id="Layer_1" xmlns="http://www.w3.org/2000/svg" xmlns:xlink="http://www.w3.org/1999/xlink" x="0px" y="0px"
	  viewBox="0 0 24 24"   xml:space="preserve">
 
<path fill="currentColor" d="M23,1v19h-1V1H2v19H1V1c0-0.6,0.4-1,1-1h20C22.6,0,23,0.4,23,1z M7,22c0,0.6-0.4,1-1,1s-1-0.4-1-1v-1H4v1
	c0,1.1,0.9,2,2,2c1.1,0,2-0.9,2-2v-1H7V22z M19,22c0,0.6-0.4,1-1,1s-1-0.4-1-1v-1h-1v1c0,1.1,0.9,2,2,2c1.1,0,2-0.9,2-2v-1h-1V22z
	 M21,14v5c0,0.6-0.4,1-1,1H4c-0.6,0-1-0.4-1-1v-5c0-1.3,0.8-2.4,2-2.8V7c0-0.4,0.1-0.8,0.3-1.1c0.1-0.2,0.3-0.4,0.5-0.5
	C6.2,5.1,6.6,5,7,5h10c0.4,0,0.8,0.1,1.1,0.3c0.2,0.1,0.4,0.3,0.5,0.5C18.9,6.2,19,6.6,19,7v4.2C20.2,11.6,21,12.7,21,14z M20,14
	c0-1.1-0.9-2-2-2V7c0-0.6-0.4-1-1-1H7C6.4,6,6,6.4,6,7v5c-1.1,0-2,0.9-2,2v5h16V14z M17,12H7V8c0-0.6,0.4-1,1-1h8c0.6,0,1,0.4,1,1
	V12z M16,8H8v3h8V8z M9,15.5C9,16.3,8.3,17,7.5,17S6,16.3,6,15.5S6.7,14,7.5,14S9,14.7,9,15.5z M18,15.5c0,0.8-0.7,1.5-1.5,1.5
	S15,16.3,15,15.5s0.7-1.5,1.5-1.5S18,14.7,18,15.5z"/>
</svg>
