<?xml version="1.0" encoding="utf-8"?>
<!-- Generator: Adobe Illustrator 20.0.0, SVG Export Plug-In . SVG Version: 6.00 Build 0)  -->
<svg version="1.1" id="Layer_1" xmlns="http://www.w3.org/2000/svg" xmlns:xlink="http://www.w3.org/1999/xlink" x="0px" y="0px"
	  viewBox="0 0 24 24"   xml:space="preserve">
 
<path fill="currentColor" d="M19,9v14c0,0.6-0.4,1-1,1H5c-0.6,0-1-0.4-1-1V9c0-0.6,0.4-1,1-1h5v1H5v14h13V9h-5V8h5C18.6,8,19,8.4,19,9z
	 M11,2.1V14h1V2.1l3.7,3.3l0.7-0.7l-4.5-4c-0.2-0.2-0.5-0.2-0.7,0l-4.5,4l0.7,0.7L11,2.1z"/>
</svg>
