<?xml version="1.0" encoding="utf-8"?>
<!-- Generator: Adobe Illustrator 20.0.0, SVG Export Plug-In . SVG Version: 6.00 Build 0)  -->
<svg version="1.1" id="Layer_1" xmlns="http://www.w3.org/2000/svg" xmlns:xlink="http://www.w3.org/1999/xlink" x="0px" y="0px"
	  viewBox="0 0 24 24"   xml:space="preserve">
 
<path class="svg-color" d="M19,11h1v11c0,0.6-0.4,1-1,1H5c-0.6,0-1-0.4-1-1V11h1v11h14V11z M10,21v-8h4v8h1v-8c0-0.6-0.4-1-1-1h-4
	c-0.6,0-1,0.4-1,1v8H10z M23.3,11.6l-11-10c-0.2-0.2-0.5-0.2-0.7,0l-11,10l0.7,0.7L12,2.7l10.7,9.7L23.3,11.6z"/>
</svg>
