<?xml version="1.0" encoding="utf-8"?>
<!-- Generator: Adobe Illustrator 20.0.0, SVG Export Plug-In . SVG Version: 6.00 Build 0)  -->
<svg version="1.1" id="Layer_1" xmlns="http://www.w3.org/2000/svg" xmlns:xlink="http://www.w3.org/1999/xlink" x="0px" y="0px"
	  viewBox="0 0 24 24"   xml:space="preserve">
 
<path fill="currentColor" d="M11.5,5C7.9,5,5,7.9,5,11.5S7.9,18,11.5,18s6.5-2.9,6.5-6.5S15.1,5,11.5,5z M11.5,17c-3,0-5.5-2.5-5.5-5.5
	S8.5,6,11.5,6S17,8.5,17,11.5S14.5,17,11.5,17z M23,11v1h-4v-1H23z M4,12H0v-1h4V12z M12,4h-1V0h1V4z M11,19h1v4h-1V19z M5.8,6.6
	L3,3.7L3.7,3l2.8,2.8L5.8,6.6z M17.2,16.4l2.8,2.8L19.3,20l-2.8-2.8L17.2,16.4z M5.8,16.4l0.7,0.7L3.7,20L3,19.3L5.8,16.4z
	 M17.2,6.6l-0.7-0.7L19.3,3L20,3.7L17.2,6.6z"/>
</svg>
