<?xml version="1.0" encoding="utf-8"?>
<!-- Generator: Adobe Illustrator 20.0.0, SVG Export Plug-In . SVG Version: 6.00 Build 0)  -->
<svg version="1.1" id="Layer_1" xmlns="http://www.w3.org/2000/svg" xmlns:xlink="http://www.w3.org/1999/xlink" x="0px" y="0px"
	  viewBox="0 0 24 24"   xml:space="preserve">
 
<path fill="currentColor" d="M23.2,10l-2.6-0.6c-0.2-0.6-0.4-1.1-0.7-1.6l1.4-2.3c0.2-0.4,0.2-0.9-0.2-1.2l-1.4-1.4
	c-0.2-0.2-0.4-0.3-0.7-0.3c-0.2,0-0.4,0-0.5,0.1l-2.3,1.4c-0.5-0.3-1-0.5-1.6-0.7L14,0.8C13.9,0.3,13.5,0,13,0h-2
	c-0.5,0-0.9,0.3-1,0.8L9.4,3.4C8.8,3.6,8.3,3.8,7.8,4.1L5.4,2.7C5.3,2.6,5.1,2.5,4.9,2.5c-0.3,0-0.5,0.1-0.7,0.3L2.8,4.2
	C2.5,4.6,2.4,5.1,2.6,5.5l1.4,2.3c-0.3,0.5-0.5,1-0.7,1.6L0.8,10C0.3,10.1,0,10.5,0,11v2c0,0.5,0.3,0.9,0.8,1l2.6,0.6
	c0.2,0.6,0.4,1.1,0.7,1.6l-1.4,2.3c-0.2,0.4-0.2,0.9,0.2,1.2l1.4,1.4c0.2,0.2,0.4,0.3,0.7,0.3c0.2,0,0.4,0,0.5-0.1l2.3-1.4
	c0.5,0.3,1,0.5,1.6,0.7l0.7,2.6c0.1,0.4,0.5,0.8,1,0.8h2c0.5,0,0.9-0.3,1-0.8l0.6-2.6c0.6-0.2,1.1-0.4,1.6-0.7l2.3,1.4
	c0.2,0.1,0.3,0.1,0.5,0.1c0.3,0,0.5-0.1,0.7-0.3l1.4-1.4c0.3-0.3,0.4-0.8,0.1-1.2l-1.4-2.3c0.3-0.5,0.5-1,0.7-1.6l2.6-0.7
	c0.4-0.1,0.8-0.5,0.8-1v-2C24,10.5,23.7,10.1,23.2,10z M23,13l-2.1,0.5v0l-1.1,0.3c-0.2,0.9-0.5,1.7-1,2.4l1.7,2.8l-1.4,1.4
	l-1.9-1.1l-1-0.6c-0.7,0.5-1.6,0.8-2.4,1L13,23h-2l-0.5-2.1h0l-0.3-1.1c-0.9-0.2-1.7-0.5-2.4-1l-2.8,1.7l-1.4-1.4l1.1-1.9l0.6-1
	c-0.5-0.7-0.8-1.6-1-2.4L1,13v-2l2.1-0.5v0l1.1-0.3c0.2-0.9,0.5-1.7,1-2.4L3.5,4.9l1.4-1.4l1.9,1.1l1,0.6c0.7-0.5,1.6-0.8,2.4-1
	L11,1h2l0.5,2.1h0l0.3,1.1c0.9,0.2,1.7,0.5,2.4,1l0.9-0.6l1.9-1.1l1.4,1.4l-1.1,1.9l-0.6,1c0.5,0.7,0.8,1.6,1,2.4L23,11V13z M12,7
	c-2.8,0-5,2.2-5,5s2.2,5,5,5s5-2.2,5-5S14.8,7,12,7z M12,16c-2.2,0-4-1.8-4-4c0-2.2,1.8-4,4-4s4,1.8,4,4C16,14.2,14.2,16,12,16z"/>
</svg>
