<?xml version="1.0" encoding="utf-8"?>
<!-- Generator: Adobe Illustrator 20.0.0, SVG Export Plug-In . SVG Version: 6.00 Build 0)  -->
<svg version="1.1" id="Layer_1" xmlns="http://www.w3.org/2000/svg" xmlns:xlink="http://www.w3.org/1999/xlink" x="0px" y="0px"
	  viewBox="0 0 24 24"   xml:space="preserve">
 
<path class="svg-color" d="M8,7h1v13H8V7z M11,20h1V7h-1V20z M5,20h1V7H5V20z M17,3v1h-1v19c0,0.6-0.4,1-1,1H2c-0.6,0-1-0.4-1-1V4H0V3h4V1
	c0-0.6,0.4-1,1-1h7c0.6,0,1,0.4,1,1v2H17z M5,3h7V1H5V3z M15,4H2v19h13V4z"/>
</svg>
