<?xml version="1.0" encoding="utf-8"?>
<!-- Generator: Adobe Illustrator 20.0.0, SVG Export Plug-In . SVG Version: 6.00 Build 0)  -->
<svg version="1.1" id="Layer_1" xmlns="http://www.w3.org/2000/svg" xmlns:xlink="http://www.w3.org/1999/xlink" x="0px" y="0px"
	  viewBox="0 0 24 24"   xml:space="preserve">
 
<path class="svg-color" d="M19,2h-1V0h-1v2h-2V0h-1v2h-2V0h-1v2H9V0H8v2H6V0H5v2H4C3.4,2,3,2.4,3,3v20c0,0.6,0.4,1,1,1h15c0.6,0,1-0.4,1-1
	V3C20,2.4,19.6,2,19,2z M19,23H4V3h15V23z M13,8H6V7h7V8z M15,12H6v-1h9V12z M6,15h11v1H6V15z M6,19h11v1H6V19z"/>
</svg>
