<?xml version="1.0" encoding="utf-8"?>
<!-- Generator: Adobe Illustrator 20.0.0, SVG Export Plug-In . SVG Version: 6.00 Build 0)  -->
<svg version="1.1" id="Layer_1" xmlns="http://www.w3.org/2000/svg" xmlns:xlink="http://www.w3.org/1999/xlink" x="0px" y="0px"
	  viewBox="0 0 24 24"   xml:space="preserve">
 
<path class="st0" d="M6,8.5C6,7.7,6.7,7,7.5,7S9,7.7,9,8.5S8.3,10,7.5,10S6,9.3,6,8.5z M12.5,10c0.8,0,1.5-0.7,1.5-1.5
	S13.3,7,12.5,7C11.7,7,11,7.7,11,8.5S11.7,10,12.5,10z M17.5,10c0.8,0,1.5-0.7,1.5-1.5S18.3,7,17.5,7S16,7.7,16,8.5S16.7,10,17.5,10
	z M24,1v15c0,0.6-0.4,1-1,1H8.2L0,24v-8v-4V1c0-0.6,0.4-1,1-1h22C23.6,0,24,0.4,24,1z M23,1H1v20.8L7.8,16H23V1z"/>
</svg>
