<?xml version="1.0" encoding="utf-8"?>
<!-- Generator: Adobe Illustrator 20.0.0, SVG Export Plug-In . SVG Version: 6.00 Build 0)  -->
<svg version="1.1" id="Layer_1" xmlns="http://www.w3.org/2000/svg" xmlns:xlink="http://www.w3.org/1999/xlink" x="0px" y="0px"
	  viewBox="0 0 24 24"   xml:space="preserve">
 
<path fill="currentColor" d="M11.5,1C17.3,1,22,5.7,22,11.5S17.3,22,11.5,22S1,17.3,1,11.5S5.7,1,11.5,1 M11.5,0C5.1,0,0,5.1,0,11.5
	C0,17.9,5.1,23,11.5,23S23,17.9,23,11.5C23,5.1,17.9,0,11.5,0L11.5,0z M17.3,16c0.4-1.3,0.6-2.6,0.7-4h3c0-0.2,0-0.3,0-0.5
	s0-0.3,0-0.5h-3c0-1.4-0.3-2.7-0.7-4h2.6c-0.2-0.3-0.4-0.7-0.6-1H17c-0.4-1.1-1-2.2-1.7-3.2c-0.5-0.2-1.1-0.4-1.7-0.6
	c0.9,1.1,1.7,2.4,2.3,3.8H12V2c-0.2,0-0.3,0-0.5,0S11.2,2,11,2v4H7.1c0.6-1.4,1.4-2.6,2.3-3.8C8.8,2.4,8.2,2.6,7.7,2.8
	C7,3.8,6.5,4.9,6,6H3.8C3.5,6.3,3.3,6.7,3.1,7h2.6C5.3,8.3,5,9.6,5,11H2c0,0.2,0,0.3,0,0.5s0,0.3,0,0.5h3c0,1.4,0.3,2.7,0.7,4H3.1
	c0.2,0.3,0.4,0.7,0.6,1H6c0.4,1.1,1,2.2,1.7,3.2c0.5,0.2,1.1,0.4,1.7,0.6c-0.9-1.1-1.7-2.4-2.3-3.8H11v4c0.2,0,0.3,0,0.5,0
	s0.3,0,0.5,0v-4h3.9c-0.6,1.4-1.4,2.6-2.3,3.8c0.6-0.1,1.2-0.3,1.7-0.6c0.7-1,1.2-2.1,1.7-3.2h2.3c0.2-0.3,0.4-0.7,0.6-1H17.3z
	 M11,16H6.7C6.3,14.7,6,13.4,6,12h5V16z M11,11H6c0-1.4,0.3-2.7,0.7-4H11V11z M16.3,16H12v-4h5C17,13.4,16.7,14.7,16.3,16z M12,11V7
	h4.3c0.4,1.3,0.7,2.6,0.7,4H12z"/>
</svg>
