<?xml version="1.0" encoding="utf-8"?>
<!-- Generator: Adobe Illustrator 20.0.0, SVG Export Plug-In . SVG Version: 6.00 Build 0)  -->
<svg version="1.1" id="Layer_1" xmlns="http://www.w3.org/2000/svg" xmlns:xlink="http://www.w3.org/1999/xlink" x="0px" y="0px" viewBox="0 0 24 24" xml:space="preserve">
<path class="svg-color" d="M23,8H9C8.4,8,8,8.4,8,9V19c0,0.5,0.4,1,1,1h10.6l4.4,4v-5v0V9C24,8.4,23.6,8,23,8z M23,21.7L20,19H9V9h14V21.7
	z M7,11v1H4.4L0,16v-5v0V1c0-0.5,0.4-1,1-1H15c0.5,0,1,0.4,1,1v6h-1V1H1v12.7L4,11H7z"/>
</svg>
