<?xml version="1.0" encoding="utf-8"?>
<!-- Generator: Adobe Illustrator 20.0.0, SVG Export Plug-In . SVG Version: 6.00 Build 0)  -->
<svg version="1.1" id="Layer_1" xmlns="http://www.w3.org/2000/svg" xmlns:xlink="http://www.w3.org/1999/xlink" x="0px" y="0px"
	  viewBox="0 0 24 24"   xml:space="preserve">
 
<path class="svg-color" d="M7.9,6C7.7,4.9,6.7,4,5.5,4S3.3,4.9,3.1,6H0v1h3.1c0.2,1.1,1.2,2,2.4,2s2.2-0.9,2.4-2H24V6H7.9z M5.5,8
	C4.7,8,4,7.3,4,6.5S4.7,5,5.5,5S7,5.7,7,6.5S6.3,8,5.5,8z M16.5,10c-1.2,0-2.2,0.9-2.4,2H0v1h14.1c0.2,1.1,1.2,2,2.4,2
	s2.2-0.9,2.4-2H24v-1h-5.1C18.7,10.9,17.7,10,16.5,10z M16.5,14c-0.8,0-1.5-0.7-1.5-1.5s0.7-1.5,1.5-1.5s1.5,0.7,1.5,1.5
	S17.3,14,16.5,14z M8.5,16c-1.2,0-2.2,0.9-2.4,2H0v1h6.1c0.2,1.1,1.2,2,2.4,2s2.2-0.9,2.4-2H24v-1H10.9C10.7,16.9,9.7,16,8.5,16z
	 M8.5,20C7.7,20,7,19.3,7,18.5S7.7,17,8.5,17s1.5,0.7,1.5,1.5S9.3,20,8.5,20z"/>
</svg>
