<?xml version="1.0" encoding="utf-8"?>
<!-- Generator: Adobe Illustrator 20.0.0, SVG Export Plug-In . SVG Version: 6.00 Build 0)  -->
<svg version="1.1" id="Layer_1" xmlns="http://www.w3.org/2000/svg" xmlns:xlink="http://www.w3.org/1999/xlink" x="0px" y="0px"
	  viewBox="0 0 24 24"   xml:space="preserve">
 
<g>
	<path class="st0" d="M12,0v12h12C24,5.3,18.7,0,12,0z M13,1c5.4,0.5,9.5,4.6,10,10H13V1z M11,2C4.9,2,0,6.9,0,13s4.9,11,11,11
		s11-4.9,11-11H11V2z M20.9,14c-0.5,5-4.8,9-9.9,9C5.5,23,1,18.5,1,13c0-5.2,4-9.4,9-9.9V14H20.9z"/>
</g>
</svg>
