<?xml version="1.0" encoding="utf-8"?>
<!-- Generator: Adobe Illustrator 20.0.0, SVG Export Plug-In . SVG Version: 6.00 Build 0)  -->
<svg version="1.1" id="Layer_1" xmlns="http://www.w3.org/2000/svg" xmlns:xlink="http://www.w3.org/1999/xlink" x="0px" y="0px"
	  viewBox="0 0 24 24"   xml:space="preserve">
 
<path class="st0" d="M10.3,12.8l0.7,0.7l-9.6,9.6l-0.7-0.7L10.3,12.8z M23.2,12.7l-6.6,6.6c-0.4,0.4-1,0.4-1.4,0l-1-1
	c-0.4-0.4-0.4-1,0-1.4l0.1-0.1L7.1,9.6L7,9.7c-0.4,0.4-1,0.4-1.4,0l-1-1c-0.4-0.4-0.4-1,0-1.4l6.6-6.6c0.4-0.4,1-0.4,1.4,0l1,1
	c0.4,0.4,0.4,1,0,1.4l-0.1,0.1l7.2,7.2l0.1-0.1c0.4-0.4,1-0.4,1.4,0l1,1C23.6,11.7,23.6,12.3,23.2,12.7z M6.4,9L13,2.4
	c0,0,0-0.1,0-0.1l-1-1c0,0-0.1,0-0.1,0L5.2,7.9c0,0,0,0.1,0,0.1l1,1C6.3,9.1,6.3,9.1,6.4,9z M7.8,9l7.1,7.1L20,11l-7.1-7.1L7.8,9z
	 M22.6,11.9l-1-1c0,0-0.1,0-0.1,0l-6.6,6.6c0,0,0,0.1,0,0.1l1,1c0,0,0.1,0,0.1,0l6.6-6.6C22.6,12,22.6,12,22.6,11.9z"/>
</svg>
