<?xml version="1.0" encoding="utf-8"?>
<!-- Generator: Adobe Illustrator 20.0.0, SVG Export Plug-In . SVG Version: 6.00 Build 0)  -->
<svg version="1.1" id="Layer_1" xmlns="http://www.w3.org/2000/svg" xmlns:xlink="http://www.w3.org/1999/xlink" x="0px" y="0px"
	  viewBox="0 0 24 24"   xml:space="preserve">
 
<path class="svg-color" d="M21,1c0-0.6-0.4-1-1-1H4C3.4,0,3,0.4,3,1v22c0,0.6,0.4,1,1,1h16c0.6,0,1-0.4,1-1V1z M20,23H4V1h16V23z M13,7H6
	V6h7V7z M15,11H6v-1h9V11z M18,15H6v-1h12V15z M18,19H6v-1h12V19z"/>
</svg>
