<?xml version="1.0" encoding="utf-8"?>
<!-- Generator: Adobe Illustrator 20.0.0, SVG Export Plug-In . SVG Version: 6.00 Build 0)  -->
<svg version="1.1" id="Layer_1" xmlns="http://www.w3.org/2000/svg" xmlns:xlink="http://www.w3.org/1999/xlink" x="0px" y="0px"
	  viewBox="0 0 24 24"   xml:space="preserve">
 
<path fill="currentColor" d="M24,23.3L15.7,15c1.4-1.6,2.3-3.7,2.3-6c0-5-4-9-9-9S0,4,0,9c0,5,4,9,9,9c2.3,0,4.4-0.9,6-2.3l8.3,8.3L24,23.3z
	 M1,9c0-4.4,3.6-8,8-8s8,3.6,8,8c0,4.4-3.6,8-8,8S1,13.4,1,9z"/>
</svg>
