<?xml version="1.0" encoding="utf-8"?>
<!-- Generator: Adobe Illustrator 20.0.0, SVG Export Plug-In . SVG Version: 6.00 Build 0)  -->
<svg version="1.1" id="Layer_1" xmlns="http://www.w3.org/2000/svg" xmlns:xlink="http://www.w3.org/1999/xlink" x="0px" y="0px"
	  viewBox="0 0 24 24"   xml:space="preserve">
 
<path class="st0" d="M8,6H7V3c0-0.6,0.4-1,1-1h8c0.6,0,1,0.4,1,1v3h-1V3H8V6z M24,8v15c0,0.6-0.4,1-1,1H1c-0.6,0-1-0.4-1-1V8
	c0-0.6,0.4-1,1-1h22C23.6,7,24,7.4,24,8z M5,8H1v15h4V8z M18,8H6v15h12V8z M23,8h-4v15h4V8z"/>
</svg>
