<?xml version="1.0" encoding="utf-8"?>
<!-- Generator: Adobe Illustrator 20.0.0, SVG Export Plug-In . SVG Version: 6.00 Build 0)  -->
<svg version="1.1" id="Layer_1" xmlns="http://www.w3.org/2000/svg" xmlns:xlink="http://www.w3.org/1999/xlink" x="0px" y="0px"
	  viewBox="0 0 24 24"   xml:space="preserve">
 
<path fill="currentColor" d="M16.5,9.1l-4,2.4l4,2.4L16,14.8l-4-2.4V17h-1v-4.6l-4,2.4l-0.5-0.9l4-2.4l-4-2.4L7,8.2l4,2.4V6h1v4.6l4-2.4
	L16.5,9.1z M21.6,6l-0.5-0.9l-2.6,1.5L19,7.6L21.6,6z M17.3,8.3l2.6,1.4l0.5-0.9L18,7.6L18,5l-1,0l0,2.9C17,8.1,17.1,8.2,17.3,8.3z
	 M1.4,17l0.5,0.9l2.6-1.5L4,15.5L1.4,17z M5.7,14.7l-2.6-1.4l-0.5,0.9L5,15.4L5,18h1l0-2.9C6,14.9,5.9,14.8,5.7,14.7z M4.5,6.7
	L1.9,5.1L1.4,6L4,7.5L4.5,6.7z M5,7.6L2.7,8.8l0.5,0.9l2.6-1.4C5.9,8.2,6,8.1,6,7.9L6,5H5L5,7.6z M18.5,16.3l2.6,1.5l0.5-0.9
	L19,15.4L18.5,16.3z M19.8,13.3l-2.6,1.4c-0.2,0.1-0.3,0.3-0.3,0.4l0,2.9l1,0l0-2.6l2.3-1.2L19.8,13.3z M12,0h-1v3h1V0z M11.5,5
	c0.1,0,0.2,0,0.3-0.1l2.5-1.5l-0.5-0.9l-2.2,1.3L9.3,2.6L8.7,3.4l2.5,1.5C11.3,5,11.4,5,11.5,5z M11,23h1v-3h-1V23z M11.2,18.1
	l-2.5,1.5l0.5,0.9l2.2-1.3l2.2,1.3l0.5-0.9l-2.5-1.5C11.6,18,11.4,18,11.2,18.1z"/>
</svg>
