<?xml version="1.0" encoding="utf-8"?>
<!-- Generator: Adobe Illustrator 20.0.0, SVG Export Plug-In . SVG Version: 6.00 Build 0)  -->
<svg version="1.1" id="Layer_1" xmlns="http://www.w3.org/2000/svg" xmlns:xlink="http://www.w3.org/1999/xlink" x="0px" y="0px" viewBox="0 0 24 24"   xml:space="preserve">
<path class="st0" d="M15.7,15c3.5,0,6.3,2.8,6.3,6.3V23c0,0,0,0,0,0H2c0,0,0,0,0,0v-1.6C2,17.8,4.8,15,8.3,15H15.7 M15.7,14H8.3
	C4.3,14,1,17.3,1,21.3V23c0,0.6,0.5,1,1,1H22c0.6,0,1-0.5,1-1v-1.6C23,17.3,19.7,14,15.7,14L15.7,14z M12,1c3,0,5.5,2.5,5.5,5.5
	S15,12,12,12S6.5,9.5,6.5,6.5S9,1,12,1 M12,0C8.4,0,5.5,2.9,5.5,6.5S8.4,13,12,13s6.5-2.9,6.5-6.5S15.6,0,12,0L12,0z"/>
</svg>
