<svg id="Layer_1" data-name="Layer 1" xmlns="http://www.w3.org/2000/svg" viewBox="0 0 200 260"><title>book-dark-matter</title><rect x="0.17" width="199.65" height="260" style="fill:#fe4042"/><path d="M45.56,67.38c0,10.5-1.8,15.6-13.1,15.6H15.56c-1.9,0-2.8,0-2.8-3.8V6.77c0-3.8.9-3.8,2.8-3.8h16.8c11.3,0,13.2,5.1,13.2,15.6Zm-8-2V20.57c0-7.8-.4-10.1-6.8-10.1h-7.5c-2,0-2.5.5-2.5,2.5V73c0,2,.5,2.5,2.5,2.5h7.5C37.16,75.48,37.56,73.17,37.56,65.37Z" style="fill:#222a2c"/><path d="M82,8.67l11.5,71.4a7.11,7.11,0,0,1,.1,1.4c0,.9-.6,1.5-3.5,1.5-4,0-4.2-1-4.5-2.9l-1.3-7.9c-.2-1.3-1.3-1.6-2.5-1.6h-9.5c-1.4,0-2.2.3-2.4,1.6l-1.3,7.9c-.3,1.9-.5,2.9-4.5,2.9-2.9,0-3.5-.6-3.5-1.5a7.11,7.11,0,0,1,.1-1.4l11.5-71.4c.6-3.4,1.1-5.7,4.8-5.7C81.06,3,81.56,6,82,8.67Zm.7,52.9c0-.1,0-.2-4.3-27-.5-3.2-.7-3.5-1.3-3.5s-.8.2-1.3,3.5c-4.2,26.7-4.3,26.9-4.3,27,0,1.2.9,1.5,2.5,1.5h6.4C82,63.07,82.66,62.67,82.66,61.57Z" style="fill:#222a2c"/><path d="M109.05,80.08V6.77c0-3.8.9-3.8,2.8-3.8h16.8c11.3,0,13.2,5.1,13.2,15.6v12c0,10.5-1.3,15.6-11.6,15.6-.9,0-1.2.1-1.2.5a8.11,8.11,0,0,0,.5,1.7l11.8,31.7a3.53,3.53,0,0,1,.4,1.7c0,.8-.8,1.2-3.4,1.2-3.9,0-4.3-1-5-2.9l-11.6-31.2c-.7-1.9-1.8-2.7-2.7-2.7-1.1,0-2,1.1-2,2.6v31.3c0,1.9,0,2.9-4.1,2.9C109.05,83,109.05,82,109.05,80.08Zm24.8-51.5v-8c0-7.8-.4-10.1-6.8-10.1h-7.5c-2,0-2.5.5-2.5,2.5v23.2c0,2,.5,2.5,2.5,2.5h7.5C133.46,38.67,133.86,36.37,133.86,28.57Z" style="fill:#222a2c"/><path d="M167.36,5.87v28.2c0,1.9.2,2.3.6,2.3s.6-.1,1.5-2.3L181,5.87c.8-1.9,1.3-2.9,5.2-2.9,1.9,0,3.2.2,3.2,1.2a4.73,4.73,0,0,1-.4,1.7l-7.3,17.6c-1,2.3-1.5,3.6-1.5,5.4s.5,4.2,1.5,8.7l9.4,42.5a7.88,7.88,0,0,1,.2,1.4c0,1-.7,1.5-3.6,1.5-3.9,0-4.2-1-4.6-2.9l-7.6-34.2c-.5-2.4-.8-2.7-1.3-2.7s-.8.3-1.8,2.7l-3.6,8.7c-1.4,3.3-1.4,4.1-1.4,9.4v16.1c0,1.9,0,2.9-4.1,2.9-3.9,0-3.9-1-3.9-2.9V5.87c0-1.9,0-2.9,3.9-2.9C167.36,3,167.36,4,167.36,5.87Z" style="fill:#222a2c"/><rect x="0.18" y="16.72" width="199.65" height="180.28" style="fill:#fe4042"/><path d="M45.56,84c0,10.5-1.8,15.6-13.1,15.6H15.56c-1.9,0-2.8,0-2.8-3.8V23.4c0-3.8.9-3.8,2.8-3.8h16.8c11.3,0,13.2,5.1,13.2,15.6Zm-8-2V37.2c0-7.8-.4-10.1-6.8-10.1h-7.5c-2,0-2.5.5-2.5,2.5v60c0,2,.5,2.5,2.5,2.5h7.5C37.16,92.1,37.56,89.8,37.56,82Z" style="fill:#222a2c"/><path d="M82,25.3l11.5,71.4a7.11,7.11,0,0,1,.1,1.4c0,.9-.6,1.5-3.5,1.5-4,0-4.2-1-4.5-2.9l-1.3-7.9c-.2-1.3-1.3-1.6-2.5-1.6h-9.5c-1.4,0-2.2.3-2.4,1.6l-1.3,7.9c-.3,1.9-.5,2.9-4.5,2.9-2.9,0-3.5-.6-3.5-1.5a7.11,7.11,0,0,1,.1-1.4l11.5-71.4c.6-3.4,1.1-5.7,4.8-5.7C81.06,19.6,81.56,22.6,82,25.3Zm.7,52.9c0-.1,0-.2-4.3-27-.5-3.2-.7-3.5-1.3-3.5s-.8.2-1.3,3.5c-4.2,26.7-4.3,26.9-4.3,27,0,1.2.9,1.5,2.5,1.5h6.4C82,79.7,82.66,79.3,82.66,78.2Z" style="fill:#222a2c"/><path d="M109.05,96.7V23.4c0-3.8.9-3.8,2.8-3.8h16.8c11.3,0,13.2,5.1,13.2,15.6v12c0,10.5-1.3,15.6-11.6,15.6-.9,0-1.2.1-1.2.5a8.11,8.11,0,0,0,.5,1.7l11.8,31.7a3.53,3.53,0,0,1,.4,1.7c0,.8-.8,1.2-3.4,1.2-3.9,0-4.3-1-5-2.9l-11.6-31.2c-.7-1.9-1.8-2.7-2.7-2.7-1.1,0-2,1.1-2,2.6V96.7c0,1.9,0,2.9-4.1,2.9C109.05,99.6,109.05,98.6,109.05,96.7Zm24.8-51.5v-8c0-7.8-.4-10.1-6.8-10.1h-7.5c-2,0-2.5.5-2.5,2.5V52.8c0,2,.5,2.5,2.5,2.5h7.5C133.46,55.3,133.86,53,133.86,45.2Z" style="fill:#222a2c"/><path d="M167.36,22.5V50.7c0,1.9.2,2.3.6,2.3s.6-.1,1.5-2.3L181,22.5c.8-1.9,1.3-2.9,5.2-2.9,1.9,0,3.2.2,3.2,1.2a4.73,4.73,0,0,1-.4,1.7l-7.3,17.6c-1,2.3-1.5,3.6-1.5,5.4s.5,4.2,1.5,8.7l9.4,42.5a7.88,7.88,0,0,1,.2,1.4c0,1-.7,1.5-3.6,1.5-3.9,0-4.2-1-4.6-2.9l-7.6-34.2c-.5-2.4-.8-2.7-1.3-2.7s-.8.3-1.8,2.7l-3.6,8.7c-1.4,3.3-1.4,4.1-1.4,9.4V96.7c0,1.9,0,2.9-4.1,2.9-3.9,0-3.9-1-3.9-2.9V22.5c0-1.9,0-2.9,3.9-2.9C167.36,19.6,167.36,20.6,167.36,22.5Z" style="fill:#222a2c"/><rect x="0.18" y="33.34" width="199.65" height="180.28" style="fill:#fe4042"/><path d="M45.56,100.63c0,10.5-1.8,15.6-13.1,15.6H15.56c-1.9,0-2.8,0-2.8-3.8V40c0-3.8.9-3.8,2.8-3.8h16.8c11.3,0,13.2,5.1,13.2,15.6Zm-8-2V53.82c0-7.8-.4-10.1-6.8-10.1h-7.5c-2,0-2.5.5-2.5,2.5v60c0,2,.5,2.5,2.5,2.5h7.5C37.16,108.73,37.56,106.43,37.56,98.63Z" style="fill:#222a2c"/><path d="M82,41.92l11.5,71.4a7.11,7.11,0,0,1,.1,1.4c0,.9-.6,1.5-3.5,1.5-4,0-4.2-1-4.5-2.9l-1.3-7.9c-.2-1.3-1.3-1.6-2.5-1.6h-9.5c-1.4,0-2.2.3-2.4,1.6l-1.3,7.9c-.3,1.9-.5,2.9-4.5,2.9-2.9,0-3.5-.6-3.5-1.5a7.11,7.11,0,0,1,.1-1.4l11.5-71.4c.6-3.4,1.1-5.7,4.8-5.7C81.06,36.22,81.56,39.22,82,41.92Zm.7,52.9c0-.1,0-.2-4.3-27-.5-3.2-.7-3.5-1.3-3.5s-.8.2-1.3,3.5c-4.2,26.7-4.3,26.9-4.3,27,0,1.2.9,1.5,2.5,1.5h6.4C82,96.33,82.66,95.93,82.66,94.83Z" style="fill:#222a2c"/><path d="M109.05,113.33V40c0-3.8.9-3.8,2.8-3.8h16.8c11.3,0,13.2,5.1,13.2,15.6v12c0,10.5-1.3,15.6-11.6,15.6-.9,0-1.2.1-1.2.5a8.11,8.11,0,0,0,.5,1.7l11.8,31.7a3.53,3.53,0,0,1,.4,1.7c0,.8-.8,1.2-3.4,1.2-3.9,0-4.3-1-5-2.9l-11.6-31.2c-.7-1.9-1.8-2.7-2.7-2.7-1.1,0-2,1.1-2,2.6v31.3c0,1.9,0,2.9-4.1,2.9C109.05,116.23,109.05,115.23,109.05,113.33Zm24.8-51.5v-8c0-7.8-.4-10.1-6.8-10.1h-7.5c-2,0-2.5.5-2.5,2.5v23.2c0,2,.5,2.5,2.5,2.5h7.5C133.46,71.92,133.86,69.62,133.86,61.82Z" style="fill:#222a2c"/><path d="M167.36,39.12v28.2c0,1.9.2,2.3.6,2.3s.6-.1,1.5-2.3L181,39.12c.8-1.9,1.3-2.9,5.2-2.9,1.9,0,3.2.2,3.2,1.2a4.73,4.73,0,0,1-.4,1.7l-7.3,17.6c-1,2.3-1.5,3.6-1.5,5.4s.5,4.2,1.5,8.7l9.4,42.5a7.88,7.88,0,0,1,.2,1.4c0,1-.7,1.5-3.6,1.5-3.9,0-4.2-1-4.6-2.9l-7.6-34.2c-.5-2.4-.8-2.7-1.3-2.7s-.8.3-1.8,2.7l-3.6,8.7c-1.4,3.3-1.4,4.1-1.4,9.4v16.1c0,1.9,0,2.9-4.1,2.9-3.9,0-3.9-1-3.9-2.9V39.12c0-1.9,0-2.9,3.9-2.9C167.36,36.22,167.36,37.22,167.36,39.12Z" style="fill:#222a2c"/><rect x="0.18" y="49.97" width="199.65" height="180.28" style="fill:#fe4042"/><path d="M29.2,200.94c-1.54,5-2.1,6.58-2.8,6.58s-1.26-1.54-2.8-6.58L21,192.4c-.35-1.12-.63-1.75-1-1.75s-.49.49-.49,1.75v32.41c0,1.33,0,2-2.87,2s-2.73-.7-2.73-2V172.87c0-1.33,0-2,2.73-2,2.94,0,3.15.7,3.57,2l4.13,13.37c1,3.22,1.47,3.85,2.17,3.85s1.12-.63,2.1-3.85l4.06-13.37c.42-1.33.63-2,3.57-2,2.73,0,2.73.7,2.73,2v51.95c0,1.33,0,2-2.73,2s-2.87-.7-2.87-2V192.4c0-1.26-.07-1.75-.49-1.75s-.7.63-1,1.75Z" style="fill:#222a2c"/><path d="M62,174.83l8.05,50a4.94,4.94,0,0,1,.07,1c0,.63-.42,1-2.45,1-2.8,0-2.94-.7-3.15-2l-.91-5.53c-.14-.91-.91-1.12-1.75-1.12H55.17c-1,0-1.54.21-1.68,1.12l-.91,5.53c-.21,1.33-.35,2-3.15,2-2,0-2.45-.42-2.45-1a4.94,4.94,0,0,1,.07-1l8.05-50c.42-2.38.77-4,3.36-4C61.33,170.84,61.68,172.94,62,174.83Zm.49,37c0-.07,0-.14-3-18.9-.35-2.24-.49-2.45-.91-2.45s-.56.14-.91,2.45c-2.94,18.69-3,18.83-3,18.9,0,.84.63,1,1.75,1h4.48C62,212.91,62.45,212.63,62.45,211.86Z" style="fill:#222a2c"/><path d="M80.58,224.81v-47c0-1.4-.35-1.75-1.75-1.75h-5c-1.33,0-2,0-2-2.59s.7-2.66,2-2.66h19c1.33,0,2,0,2,2.66s-.7,2.59-2,2.59h-4.9c-1.4,0-1.75.35-1.75,1.75v47c0,1.33,0,2-2.87,2S80.58,226.14,80.58,224.81Z" style="fill:#222a2c"/><path d="M109.21,224.81v-47c0-1.4-.35-1.75-1.75-1.75h-5c-1.33,0-2,0-2-2.59s.7-2.66,2-2.66h19c1.33,0,2,0,2,2.66s-.7,2.59-2,2.59h-4.9c-1.4,0-1.75.35-1.75,1.75v47c0,1.33,0,2-2.87,2S109.21,226.14,109.21,224.81Z" style="fill:#222a2c"/><path d="M138.89,201.08c-1.26,0-1.75.28-1.75,1.4v17.36c0,1.4.35,1.75,1.75,1.75H153.8c1.33,0,2,0,2,2.59s-.7,2.66-2,2.66H133.5c-1.33,0-2,0-2-2.66V173.5c0-2.66.63-2.66,2-2.66h20.3c1.33,0,2,0,2,2.66s-.7,2.59-2,2.59H138.89c-1.4,0-1.75.35-1.75,1.75v16.24c0,1.4.35,1.75,1.75,1.75h7.42c1.33,0,2,0,2,2.66s-.7,2.59-2,2.59Z" style="fill:#222a2c"/><path d="M164.23,224.81V173.5c0-2.66.63-2.66,2-2.66h11.76c7.91,0,9.24,3.57,9.24,10.92v8.4c0,7.35-.91,10.92-8.12,10.92-.63,0-.84.07-.84.35a5.74,5.74,0,0,0,.35,1.19l8.26,22.19a2.48,2.48,0,0,1,.28,1.19c0,.56-.56.84-2.38.84-2.73,0-3-.7-3.5-2L173.12,203c-.49-1.33-1.26-1.89-1.89-1.89s-1.4.77-1.4,1.82v21.91c0,1.33,0,2-2.87,2S164.23,226.14,164.23,224.81Zm17.36-36.05v-5.6c0-5.46-.28-7.07-4.76-7.07h-5.25c-1.4,0-1.75.35-1.75,1.75v16.24c0,1.4.35,1.75,1.75,1.75h5.25C181.31,195.83,181.59,194.22,181.59,188.76Z" style="fill:#222a2c"/><rect x="0.18" y="140.11" width="199.65" height="73.71" style="fill:#fe4042"/><path d="M29.2,183.89c-1.54,5-2.1,6.58-2.8,6.58s-1.26-1.54-2.8-6.58L21,175.35c-.35-1.12-.63-1.75-1-1.75s-.49.49-.49,1.75v32.41c0,1.33,0,2-2.87,2s-2.73-.7-2.73-2V155.82c0-1.33,0-2,2.73-2,2.94,0,3.15.7,3.57,2l4.13,13.37c1,3.22,1.47,3.85,2.17,3.85s1.12-.63,2.1-3.85l4.06-13.37c.42-1.33.63-2,3.57-2,2.73,0,2.73.7,2.73,2v51.95c0,1.33,0,2-2.73,2s-2.87-.7-2.87-2V175.35c0-1.26-.07-1.75-.49-1.75s-.7.63-1,1.75Z" style="fill:#222a2c"/><path d="M62,157.78l8.05,50a4.94,4.94,0,0,1,.07,1c0,.63-.42,1-2.45,1-2.8,0-2.94-.7-3.15-2l-.91-5.53c-.14-.91-.91-1.12-1.75-1.12H55.17c-1,0-1.54.21-1.68,1.12l-.91,5.53c-.21,1.33-.35,2-3.15,2-2,0-2.45-.42-2.45-1a4.94,4.94,0,0,1,.07-1l8.05-50c.42-2.38.77-4,3.36-4C61.33,153.79,61.68,155.89,62,157.78Zm.49,37c0-.07,0-.14-3-18.9-.35-2.24-.49-2.45-.91-2.45s-.56.14-.91,2.45c-2.94,18.69-3,18.83-3,18.9,0,.84.63,1,1.75,1h4.48C62,195.86,62.45,195.58,62.45,194.81Z" style="fill:#222a2c"/><path d="M80.58,207.76v-47c0-1.4-.35-1.75-1.75-1.75h-5c-1.33,0-2,0-2-2.59s.7-2.66,2-2.66h19c1.33,0,2,0,2,2.66s-.7,2.59-2,2.59h-4.9c-1.4,0-1.75.35-1.75,1.75v47c0,1.33,0,2-2.87,2S80.58,209.09,80.58,207.76Z" style="fill:#222a2c"/><path d="M109.21,207.76v-47c0-1.4-.35-1.75-1.75-1.75h-5c-1.33,0-2,0-2-2.59s.7-2.66,2-2.66h19c1.33,0,2,0,2,2.66s-.7,2.59-2,2.59h-4.9c-1.4,0-1.75.35-1.75,1.75v47c0,1.33,0,2-2.87,2S109.21,209.09,109.21,207.76Z" style="fill:#222a2c"/><path d="M138.89,184c-1.26,0-1.75.28-1.75,1.4v17.36c0,1.4.35,1.75,1.75,1.75H153.8c1.33,0,2,0,2,2.59s-.7,2.66-2,2.66H133.5c-1.33,0-2,0-2-2.66V156.45c0-2.66.63-2.66,2-2.66h20.3c1.33,0,2,0,2,2.66s-.7,2.59-2,2.59H138.89c-1.4,0-1.75.35-1.75,1.75V177c0,1.4.35,1.75,1.75,1.75h7.42c1.33,0,2,0,2,2.66s-.7,2.59-2,2.59Z" style="fill:#222a2c"/><path d="M164.23,207.76V156.45c0-2.66.63-2.66,2-2.66h11.76c7.91,0,9.24,3.57,9.24,10.92v8.4c0,7.35-.91,10.92-8.12,10.92-.63,0-.84.07-.84.35a5.74,5.74,0,0,0,.35,1.19l8.26,22.19a2.48,2.48,0,0,1,.28,1.19c0,.56-.56.84-2.38.84-2.73,0-3-.7-3.5-2l-8.12-21.84c-.49-1.33-1.26-1.89-1.89-1.89s-1.4.77-1.4,1.82v21.91c0,1.33,0,2-2.87,2S164.23,209.09,164.23,207.76Zm17.36-36.05v-5.6c0-5.46-.28-7.07-4.76-7.07h-5.25c-1.4,0-1.75.35-1.75,1.75V177c0,1.4.35,1.75,1.75,1.75h5.25C181.31,178.78,181.59,177.17,181.59,171.71Z" style="fill:#222a2c"/><rect x="0.18" y="123.06" width="199.65" height="73.71" style="fill:#fe4042"/><path d="M29.2,167.11c-1.54,5-2.1,6.58-2.8,6.58s-1.26-1.54-2.8-6.58L21,158.57c-.35-1.12-.63-1.75-1-1.75s-.49.49-.49,1.75V191c0,1.33,0,2-2.87,2s-2.73-.7-2.73-2V139c0-1.33,0-2,2.73-2,2.94,0,3.15.7,3.57,2l4.13,13.37c1,3.22,1.47,3.85,2.17,3.85s1.12-.63,2.1-3.85L32.63,139c.42-1.33.63-2,3.57-2,2.73,0,2.73.7,2.73,2V191c0,1.33,0,2-2.73,2s-2.87-.7-2.87-2V158.57c0-1.26-.07-1.75-.49-1.75s-.7.63-1,1.75Z" style="fill:#222a2c"/><path d="M62,141,70,191a4.94,4.94,0,0,1,.07,1c0,.63-.42,1-2.45,1-2.8,0-2.94-.7-3.15-2l-.91-5.53c-.14-.91-.91-1.12-1.75-1.12H55.17c-1,0-1.54.21-1.68,1.12L52.58,191c-.21,1.33-.35,2-3.15,2-2,0-2.45-.42-2.45-1a4.94,4.94,0,0,1,.07-1l8.05-50c.42-2.38.77-4,3.36-4C61.33,137,61.68,139.11,62,141Zm.49,37c0-.07,0-.14-3-18.9-.35-2.24-.49-2.45-.91-2.45s-.56.14-.91,2.45c-2.94,18.69-3,18.83-3,18.9,0,.84.63,1,1.75,1h4.48C62,179.08,62.45,178.8,62.45,178Z" style="fill:#222a2c"/><path d="M80.58,191V144c0-1.4-.35-1.75-1.75-1.75h-5c-1.33,0-2,0-2-2.59s.7-2.66,2-2.66h19c1.33,0,2,0,2,2.66s-.7,2.59-2,2.59h-4.9c-1.4,0-1.75.35-1.75,1.75v47c0,1.33,0,2-2.87,2S80.58,192.31,80.58,191Z" style="fill:#222a2c"/><path d="M109.2,191V144c0-1.4-.35-1.75-1.75-1.75h-5c-1.33,0-2,0-2-2.59s.7-2.66,2-2.66h19c1.33,0,2,0,2,2.66s-.7,2.59-2,2.59h-4.9c-1.4,0-1.75.35-1.75,1.75v47c0,1.33,0,2-2.87,2S109.2,192.31,109.2,191Z" style="fill:#222a2c"/><path d="M138.88,167.25c-1.26,0-1.75.28-1.75,1.4V186c0,1.4.35,1.75,1.75,1.75H153.8c1.33,0,2,0,2,2.59s-.7,2.66-2,2.66h-20.3c-1.33,0-2,0-2-2.66V139.67c0-2.66.63-2.66,2-2.66h20.3c1.33,0,2,0,2,2.66s-.7,2.59-2,2.59H138.88c-1.4,0-1.75.35-1.75,1.75v16.24c0,1.4.35,1.75,1.75,1.75h7.42c1.33,0,2,0,2,2.66s-.7,2.59-2,2.59Z" style="fill:#222a2c"/><path d="M164.22,191V139.67c0-2.66.63-2.66,2-2.66h11.76c7.91,0,9.24,3.57,9.24,10.92v8.4c0,7.35-.91,10.92-8.12,10.92-.63,0-.84.07-.84.35a5.74,5.74,0,0,0,.35,1.19L186.84,191a2.48,2.48,0,0,1,.28,1.19c0,.56-.56.84-2.38.84-2.73,0-3-.7-3.5-2l-8.12-21.84c-.49-1.33-1.26-1.89-1.89-1.89s-1.4.77-1.4,1.82V191c0,1.33,0,2-2.87,2S164.22,192.31,164.22,191Zm17.36-36.05v-5.6c0-5.46-.28-7.07-4.76-7.07h-5.25c-1.4,0-1.75.35-1.75,1.75v16.24c0,1.4.35,1.75,1.75,1.75h5.25C181.31,162,181.59,160.39,181.59,154.93Z" style="fill:#222a2c"/><path d="M45.56,118.38c0,10.5-1.8,15.6-13.1,15.6H15.56c-1.9,0-2.8,0-2.8-3.8V57.77c0-3.8.9-3.8,2.8-3.8h16.8c11.3,0,13.2,5.1,13.2,15.6Zm-8-2V71.57c0-7.8-.4-10.1-6.8-10.1h-7.5c-2,0-2.5.5-2.5,2.5v60c0,2,.5,2.5,2.5,2.5h7.5C37.16,126.48,37.56,124.17,37.56,116.37Z" style="fill:#222a2c"/><path d="M82,59.67l11.5,71.4a7.11,7.11,0,0,1,.1,1.4c0,.9-.6,1.5-3.5,1.5-4,0-4.2-1-4.5-2.9l-1.3-7.9c-.2-1.3-1.3-1.6-2.5-1.6h-9.5c-1.4,0-2.2.3-2.4,1.6l-1.3,7.9c-.3,1.9-.5,2.9-4.5,2.9-2.9,0-3.5-.6-3.5-1.5a7.11,7.11,0,0,1,.1-1.4l11.5-71.4c.6-3.4,1.1-5.7,4.8-5.7C81.06,54,81.56,57,82,59.67Zm.7,52.9c0-.1,0-.2-4.3-27-.5-3.2-.7-3.5-1.3-3.5s-.8.2-1.3,3.5c-4.2,26.7-4.3,26.9-4.3,27,0,1.2.9,1.5,2.5,1.5h6.4C82,114.07,82.66,113.67,82.66,112.57Z" style="fill:#222a2c"/><path d="M109.05,131.08V57.77c0-3.8.9-3.8,2.8-3.8h16.8c11.3,0,13.2,5.1,13.2,15.6v12c0,10.5-1.3,15.6-11.6,15.6-.9,0-1.2.1-1.2.5a8.11,8.11,0,0,0,.5,1.7l11.8,31.7a3.53,3.53,0,0,1,.4,1.7c0,.8-.8,1.2-3.4,1.2-3.9,0-4.3-1-5-2.9l-11.6-31.2c-.7-1.9-1.8-2.7-2.7-2.7-1.1,0-2,1.1-2,2.6v31.3c0,1.9,0,2.9-4.1,2.9C109.05,134,109.05,133,109.05,131.08Zm24.8-51.5v-8c0-7.8-.4-10.1-6.8-10.1h-7.5c-2,0-2.5.5-2.5,2.5v23.2c0,2,.5,2.5,2.5,2.5h7.5C133.46,89.67,133.86,87.37,133.86,79.57Z" style="fill:#222a2c"/><path d="M167.36,56.87v28.2c0,1.9.2,2.3.6,2.3s.6-.1,1.5-2.3L181,56.87c.8-1.9,1.3-2.9,5.2-2.9,1.9,0,3.2.2,3.2,1.2a4.73,4.73,0,0,1-.4,1.7l-7.3,17.6c-1,2.3-1.5,3.6-1.5,5.4s.5,4.2,1.5,8.7l9.4,42.5a7.88,7.88,0,0,1,.2,1.4c0,1-.7,1.5-3.6,1.5-3.9,0-4.2-1-4.6-2.9l-7.6-34.2c-.5-2.4-.8-2.7-1.3-2.7s-.8.3-1.8,2.7l-3.6,8.7c-1.4,3.3-1.4,4.1-1.4,9.4v16.1c0,1.9,0,2.9-4.1,2.9-3.9,0-3.9-1-3.9-2.9V56.87c0-1.9,0-2.9,3.9-2.9C167.36,54,167.36,55,167.36,56.87Z" style="fill:#222a2c"/><path d="M23.09,250.55c0,3.15-.54,4.68-3.93,4.68H14.09c-.57,0-.84,0-.84-1.14V232.37c0-1.14.27-1.14.84-1.14h5c3.39,0,4,1.53,4,4.68v3.6c0,1.62-.15,2.79-1,3.57.87.78,1,2,1,3.54Zm-6.87-8.61h2.7c1.65,0,1.77-.81,1.77-3v-2.4c0-2.34-.12-3-2-3H16.4c-.6,0-.75.15-.75.75v7C15.65,241.73,15.77,241.94,16.22,241.94Zm4.47,8v-2.73c0-2.22-.12-3-1.77-3H16.4c-.6,0-.75.15-.75.75v7.29c0,.6.15.75.75.75h2.25C20.57,253,20.69,252.29,20.69,249.95Z" style="fill:#222a2c"/><path d="M31.34,252.23c0,.6.15.75.75.75h5.79c.57,0,.87,0,.87,1.11s-.3,1.14-.87,1.14h-8.1c-.57,0-.84,0-.84-1.14v-22c0-.57,0-.87,1.17-.87s1.23.3,1.23.87Z" style="fill:#222a2c"/><path d="M49.07,232.94l3.45,21.42a2.18,2.18,0,0,1,0,.42c0,.27-.18.45-1,.45-1.2,0-1.26-.3-1.35-.87L49.76,252c-.06-.39-.39-.48-.75-.48H46.15c-.42,0-.66.09-.72.48L45,254.36c-.09.57-.15.87-1.35.87-.87,0-1-.18-1-.45a2.11,2.11,0,0,1,0-.42l3.45-21.42c.18-1,.33-1.71,1.44-1.71S48.94,232.13,49.07,232.94Zm.21,15.87s0-.06-1.29-8.1c-.15-1-.21-1-.39-1s-.24.06-.39,1c-1.26,8-1.29,8.07-1.29,8.1,0,.36.27.45.75.45h1.92C49.07,249.26,49.27,249.14,49.27,248.81Z" style="fill:#222a2c"/><path d="M59.9,232.1v8.46c0,.57.06.69.18.69s.18,0,.45-.69L64,232.1c.24-.57.39-.87,1.56-.87.57,0,1,.06,1,.36a1.4,1.4,0,0,1-.12.51l-2.19,5.28a3.79,3.79,0,0,0-.45,1.62,13.92,13.92,0,0,0,.45,2.61L67,254.36a2.34,2.34,0,0,1,.06.42c0,.3-.21.45-1.08.45-1.17,0-1.26-.3-1.38-.87L62.33,244.1c-.15-.72-.24-.81-.39-.81s-.24.09-.54.81l-1.08,2.61a5.37,5.37,0,0,0-.42,2.82v4.83c0,.57,0,.87-1.23.87s-1.17-.3-1.17-.87V232.1c0-.57,0-.87,1.17-.87S59.9,231.53,59.9,232.1Z" style="fill:#222a2c"/><path d="M75,244.19c-.54,0-.75.12-.75.6v7.44c0,.6.15.75.75.75H81.4c.57,0,.87,0,.87,1.11s-.3,1.14-.87,1.14H72.7c-.57,0-.84,0-.84-1.14V232.37c0-1.14.27-1.14.84-1.14h8.7c.57,0,.87,0,.87,1.14s-.3,1.11-.87,1.11H75c-.6,0-.75.15-.75.75v7c0,.6.15.75.75.75h3.18c.57,0,.87,0,.87,1.14s-.3,1.11-.87,1.11Z" style="fill:#222a2c"/><path d="M101.92,250.55c0,1.74.84,2.73,2.52,2.73s2.58-1,2.58-2.73c0-.42.42-.54,1.14-.54.93,0,1.26,0,1.26.84,0,2.64-1.56,4.68-5,4.68s-4.92-2.1-4.92-4.68V235.61c0-2.58,1.53-4.68,4.92-4.68s5,2,5,4.68c0,.81-.33.84-1.26.84-.72,0-1.14-.12-1.14-.54,0-1.77-.87-2.73-2.58-2.73s-2.52,1-2.52,2.73Z" style="fill:#222a2c"/><path d="M114.82,254.36v-22c0-1.14.27-1.14.84-1.14h5c3.39,0,4,1.53,4,4.68v3.6c0,3.15-.39,4.68-3.48,4.68-.27,0-.36,0-.36.15a2.47,2.47,0,0,0,.15.51l3.54,9.51a1.07,1.07,0,0,1,.12.51c0,.24-.24.36-1,.36-1.17,0-1.29-.3-1.5-.87L118.63,245c-.21-.57-.54-.81-.81-.81s-.6.33-.6.78v9.39c0,.57,0,.87-1.23.87S114.82,254.93,114.82,254.36Zm7.44-15.45v-2.4c0-2.34-.12-3-2-3H118c-.6,0-.75.15-.75.75v7c0,.6.15.75.75.75h2.25C122.14,241.94,122.26,241.25,122.26,238.91Z" style="fill:#222a2c"/><path d="M140,250.85c0,2.61-1.56,4.68-5,4.68s-4.92-2.1-4.92-4.68V235.61c0-2.58,1.53-4.68,4.92-4.68s5,2.07,5,4.68Zm-7.5-.3c0,1.74.84,2.73,2.52,2.73s2.58-1,2.58-2.73V235.91c0-1.77-.87-2.73-2.58-2.73s-2.52,1-2.52,2.73Z" style="fill:#222a2c"/><path d="M155.71,232.1v18.75c0,2.61-1.56,4.68-5,4.68s-4.92-2.1-4.92-4.68V232.1c0-.57,0-.87,1.17-.87s1.23.3,1.23.87v18.45c0,1.74.84,2.73,2.52,2.73s2.58-1,2.58-2.73V232.1c0-.57,0-.87,1.17-.87S155.71,231.53,155.71,232.1Z" style="fill:#222a2c"/><path d="M164,250.55c0,1.74.84,2.73,2.52,2.73s2.58-1,2.58-2.73c0-.42.42-.54,1.14-.54.93,0,1.26,0,1.26.84,0,2.64-1.56,4.68-5,4.68s-4.92-2.1-4.92-4.68V235.61c0-2.58,1.53-4.68,4.92-4.68s5,2,5,4.68c0,.81-.33.84-1.26.84-.72,0-1.14-.12-1.14-.54,0-1.77-.87-2.73-2.58-2.73s-2.52,1-2.52,2.73Z" style="fill:#222a2c"/><path d="M186.76,232.1v22.26c0,.57,0,.87-1.23.87s-1.17-.3-1.17-.87v-9.69c0-.36-.27-.48-.75-.48H180c-.54,0-.75.12-.75.6v9.57c0,.57,0,.87-1.23.87s-1.17-.3-1.17-.87V232.1c0-.57,0-.87,1.17-.87s1.23.3,1.23.87v9.27c0,.45.21.57.75.57h3.6c.54,0,.75-.12.75-.57V232.1c0-.57,0-.87,1.17-.87S186.76,231.53,186.76,232.1Z" style="fill:#222a2c"/></svg>