<svg xmlns="http://www.w3.org/2000/svg" viewBox="0 0 200 260"><title>book-extreme-ownership</title><g style="isolation:isolate"><g id="Layer_1" data-name="Layer 1"><g style="mix-blend-mode:overlay"><polygon points="89.06 123.16 92.18 163.28 84.08 148.62 84.08 107.39 89.06 123.16" style="fill:#b09663"/><polygon points="103.27 123.16 102.49 245.53 95.95 245.53 96.73 123.16 99.91 107.39 103.27 123.16" style="fill:#b09663"/><polygon points="115.92 107.39 115.92 148.62 107.82 163.28 110.94 123.16 115.92 107.39" style="fill:#b09663"/></g><g style="mix-blend-mode:overlay"><rect x="12.8" y="204.82" width="174.76" height="40.73" style="fill:#29abe2"/></g><rect x="12.8" y="12.45" width="174.76" height="233.1" style="fill:none;stroke:#b09663;stroke-miterlimit:10;stroke-width:5px"/><path d="M38,180.43a1.22,1.22,0,0,1-1.4,1.4H34.71a1.22,1.22,0,0,1-1.4-1.4v-1.56h1.44v1.44c0,.15,0,.2.2.2H36.4c.15,0,.2,0,.2-.2v-5.48H38Z"/><path d="M42,181.83a1.22,1.22,0,0,1-1.4-1.4v-4.2a1.22,1.22,0,0,1,1.4-1.4h2.57a1.22,1.22,0,0,1,1.4,1.4v4.2a1.22,1.22,0,0,1-1.4,1.4Zm0-1.52c0,.15,0,.2.2.2H44.3c.15,0,.2,0,.2-.2v-4c0-.15-.05-.2-.2-.2H42.22c-.15,0-.2,0-.2.2Z"/><path d="M49.79,181.83a1.22,1.22,0,0,1-1.4-1.4v-4.2a1.22,1.22,0,0,1,1.4-1.4h2.32a1.22,1.22,0,0,1,1.4,1.4v1.14H52.07v-1c0-.15,0-.2-.2-.2H50c-.15,0-.2,0-.2.2v4c0,.15,0,.2.2.2h1.84c.15,0,.2,0,.2-.2v-1H53.5v1.14a1.22,1.22,0,0,1-1.4,1.4Z"/><path d="M58.42,178.8l-1,1.29v1.74H56v-7h1.42v3.28l2.49-3.28h1.69l-2.19,2.76,2.3,4.24H60.07Z"/><path d="M64.72,181.83a1.22,1.22,0,0,1-1.4-1.4v-4.2a1.22,1.22,0,0,1,1.4-1.4h2.57a1.22,1.22,0,0,1,1.4,1.4v4.2a1.22,1.22,0,0,1-1.4,1.4Zm0-1.52c0,.15,0,.2.2.2h2.09c.15,0,.2,0,.2-.2v-4c0-.15-.05-.2-.2-.2H65c-.15,0-.2,0-.2.2Z"/><path d="M33.32,191.83l-1.15-4.56L31,191.83H29.44l-1.75-7h1.5L30.28,190l1.29-5.14h1.22L34.07,190l1.09-5.14H36.6l-1.76,7Z"/><path d="M38.78,184.83h1.44v7H38.78Z"/><path d="M44.44,184.83v5.68h3v1.32H43v-7Z"/><path d="M51.18,184.83v5.68h3v1.32H49.75v-7Z"/><path d="M56.5,184.83h1.44v7H56.5Z"/><path d="M66.26,184.83v7h-1.4l-2.75-4.67v4.67h-1.4v-7h1.5l2.65,4.51v-4.51Z"/><path d="M71.48,188.8l-1,1.29v1.74H69v-7h1.42v3.28L73,184.83h1.69l-2.19,2.76,2.3,4.24H73.13Z"/><path d="M136,174.83v5.68h3v1.32h-4.46v-7Z"/><path d="M146,174.83v1.32h-3.27v1.45h2.65v1.3h-2.65v1.61H146v1.32h-4.71v-7Z"/><path d="M148.51,174.83H150v7h-1.44Z"/><path d="M152.73,174.83h4.71v1.32h-3.27v1.51h2.65V179h-2.65v2.87h-1.44Z"/><path d="M133,184.83c1,0,1.4.45,1.4,1.87,0,.94-.17,1.3-.63,1.55.5.22.71.61.71,1.63,0,1.5-.45,1.95-1.4,1.95h-3.74v-7Zm-.24,2.8c.15,0,.2-.05.2-.75s0-.75-.2-.75h-2v1.5Zm.08,2.9c.15,0,.2-.05.2-.83s0-.83-.2-.83h-2.06v1.66Z"/><path d="M138.22,190.31l-.43,1.52h-1.52l2.13-7h2.1l2.13,7H141l-.43-1.52Zm1.2-4.26-.83,2.94h1.66Z"/><path d="M148.44,184.83c1,0,1.4.45,1.4,1.87,0,.94-.17,1.3-.63,1.55.5.22.71.61.71,1.63,0,1.5-.45,1.95-1.4,1.95h-3.74v-7Zm-.24,2.8c.15,0,.2-.05.2-.75s0-.75-.2-.75h-2v1.5Zm.08,2.9c.15,0,.2-.05.2-.83s0-.83-.2-.83h-2.06v1.66Z"/><path d="M152.41,184.83h1.44v7h-1.44Z"/><path d="M162.18,184.83v7h-1.4L158,187.16v4.67h-1.4v-7h1.5l2.65,4.51v-4.51Z"/><g style="mix-blend-mode:darken"><path d="M31.47,51.24H41.3v5.61H23.61V28H40.89v5.61H31.47v5.88h8.12v5.61H31.47Z"/><path d="M57.86,42.22l7.5,14.63H56.51l-3.1-8.08-3.1,8.08H42l7-14.63L42.15,28H51l2.38,7.36L55.84,28h8.44Z"/><path d="M84.52,28v5.61H79v23.2H71.1V33.64H65.58V28Z"/><path d="M94.39,46.61V56.85H86.54V28H99.87q6.6,0,6.6,5.56V41q0,4.26-3.86,5.25l5.3,10.55H99.46L94.88,46.61Zm3.1-13h-3.1v7.63h3.1q1.12,0,1.12-1V34.63Q98.61,33.65,97.49,33.64Z"/><path d="M117.46,51.24h9.83v5.61H109.6V28h17.28v5.61h-9.42v5.88h8.12v5.61h-8.12Z"/><path d="M136.76,56.85h-7V28h8.57L143,43.43,147.66,28h8.57V56.85h-7V38.54l-3.59,12.07H140.3l-3.55-12Z"/><path d="M167.68,51.24h9.83v5.61H159.83V28h17.28v5.61h-9.42v5.88h8.12v5.61h-8.12Z"/><path d="M28.76,63.32h4.93q4.89,0,4.89,4.13V80.56q0,4.13-4.89,4.13H28.76q-4.89,0-4.89-4.13V67.45Q23.86,63.32,28.76,63.32Zm4,16.48V68.21q0-.73-.83-.73h-1.4q-.83,0-.83.73V79.8q0,.73.83.73h1.4Q32.75,80.53,32.75,79.8Z"/><path d="M61.55,63.32h5.76L62.78,84.69H56.09L53.73,71.94,51.36,84.69H44.67L40.14,63.32H46.2L48,77.7l2.86-14.38h5.69L59.42,77.7Z"/><path d="M78.73,63.32h5.33V84.69h-5L74.3,73.47V84.69H69V63.32h5l4.76,11.42Z"/><path d="M92.54,80.53h7.29v4.16H86.72V63.32H99.54v4.16h-7v4.36h6V76h-6Z"/><path d="M107.49,77.1v7.59h-5.83V63.32h9.89q4.89,0,4.89,4.13V73a3.59,3.59,0,0,1-2.86,3.9l3.93,7.82h-6.26l-3.4-7.59Zm2.3-9.62h-2.3v5.66h2.3c.55,0,.83-.24.83-.73V68.21Q110.62,67.48,109.79,67.48Z"/><path d="M127,79.8v-3c0-.49-.28-.73-.83-.73h-3.2A4.63,4.63,0,0,1,119.46,75a4.38,4.38,0,0,1-1-3.11V67.45q0-4.13,4.86-4.13h4.56q4.86,0,4.86,4.13V70H126.9v-1.8c0-.49-.28-.73-.83-.73h-1q-.83,0-.83.73v3.16q0,.73.83.73h3.13a4.9,4.9,0,0,1,3.51,1,4.07,4.07,0,0,1,1,3v4.39q0,4.13-4.86,4.13h-4.53q-4.89,0-4.89-4.13V78h5.83v1.8q0,.73.83.73h1Q127,80.53,127,79.8Z"/><path d="M145,63.32h5.73V84.69H145V76.24h-4.2v8.46h-5.73V63.32h5.73v8.76H145Z"/><path d="M153.44,63.32h5.83V84.69h-5.83Z"/><path d="M161.92,63.32h9.89q4.89,0,4.89,4.13v6.13q0,4.13-4.89,4.13h-4.06v7h-5.83Zm9,9.49V68.21q0-.73-.83-.73h-2.3v6.06H170C170.6,73.54,170.88,73.3,170.88,72.81Z"/></g><rect x="0.35" width="12.45" height="12.45" style="fill:none"/><rect x="187.55" width="12.45" height="12.45" style="fill:none"/><rect x="0.35" width="199.65" height="260" style="fill:none"/></g></g></svg>