<svg id="Layer_1" data-name="Layer 1" xmlns="http://www.w3.org/2000/svg" viewBox="0 0 200 260"><title>book-ask</title><rect x="0.17" width="199.65" height="260" style="fill:#fff"/><rect x="0.17" width="199.65" height="12.33" style="fill:#a33541"/><path d="M70.66,85.1c-.49-1.54-.77-1.75-2.87-1.75H57.22c-1.75,0-2.17.21-2.66,1.68l-2.45,7.35a26.74,26.74,0,0,0-1.54,5.81c0,.84.35,1.26,2,1.4l2.31.21a1.13,1.13,0,0,1-.14,1.75c-1.82-.14-4-.14-7.28-.21-2.31,0-4.83.14-6.72.21a1.38,1.38,0,0,1-.14-1.75l2.31-.21c1.68-.14,3.22-.91,4.2-3.43,1.26-3.22,3.22-7.77,6.16-15.61l7.14-18.9c1-2.52,1.4-3.85,1.19-5A7.83,7.83,0,0,0,65.27,54a1,1,0,0,1,1.05.63c.91,3.08,2,6.3,3.08,9.38L79,92.17c2,6,2.94,7.07,5.95,7.42l1.89.21a1.37,1.37,0,0,1,0,1.75c-2.87-.14-5.32-.21-8.47-.21-3.36,0-6,.14-8.05.21a1.17,1.17,0,0,1-.14-1.75l2-.21c1.47-.14,2.45-.56,2.45-1.26a14.33,14.33,0,0,0-.91-3.71ZM56.8,78.87c-.56,1.61-.49,1.68,1.47,1.68h8.61c2,0,2.17-.28,1.54-2.17L64.64,67A46.26,46.26,0,0,0,63,62.56h-.14a43.47,43.47,0,0,0-1.68,4.13Z" style="fill:#a33541"/><path d="M105,74a16.33,16.33,0,0,1,1.12,5.67,1.22,1.22,0,0,1-1.68.21c-1.19-3.08-3.29-5.11-6.16-5.11a4.14,4.14,0,0,0-4.48,4.27c0,2.87,2.94,4.41,5.39,5.81,3.71,2.1,7.14,4.48,7.14,9.45,0,5.32-4.9,8-10.08,8-3.29,0-5.74-.7-7.49-2.1a20.79,20.79,0,0,1-.84-7.07,1.19,1.19,0,0,1,1.61-.07c1.19,3.85,3.43,7.21,7.42,7.21,2.52,0,4.69-1.47,4.69-4.48,0-3.22-2.8-5-5.39-6.44-4.06-2.31-6.93-4.76-6.93-8.61,0-5.11,4.2-8,9.52-8C101.74,72.78,104.33,73.48,105,74Z" style="fill:#a33541"/><path d="M114.55,61.86c0-4.13-.07-4.55-2.17-5.81l-.7-.42a1.07,1.07,0,0,1,0-1.4,49.61,49.61,0,0,0,7.56-2.94.77.77,0,0,1,.7.42c-.07,2.1-.21,5.6-.21,8.68v24c0,.91.07,1,1.26,1,1.54,0,2.87-.77,4.76-2.73l2.87-3.08c2-2.1,2.45-2.87,2.45-3.22s-.35-.56-1.54-.7l-1.68-.21a1,1,0,0,1,0-1.75h1.61a109.46,109.46,0,0,0,11.13-.56c.49.21.56,1.4.14,1.75l-2.24.42a10.11,10.11,0,0,0-4.41,2.45c-2.73,2.17-5.11,4.69-6.37,5.88-.84.77-.91,1.12-.49,1.68a73,73,0,0,0,4.69,5.6c2.73,3.08,5.18,5.81,6.58,7.14a7.05,7.05,0,0,0,3.64,1.54l1,.14c.49.35.42,1.54-.14,1.75-2-.14-4.41-.21-6.65-.21-2.8,0-5.25.07-7.28.21a1.18,1.18,0,0,1-.14-1.75l1.26-.21c1-.14,1.75-.28,1.75-.7s-.28-.91-1.19-2l-7.49-8.68a2.84,2.84,0,0,0-2.17-1c-1.26,0-1.33.21-1.33,2.38V93.5c0,5,.14,5.74,2.66,6.09l1.68.21a1.23,1.23,0,0,1-.14,1.75c-2.31-.14-4.34-.21-6.79-.21s-4.62.07-6.72.21a1.17,1.17,0,0,1-.07-1.75l1.54-.21c2.59-.35,2.66-1,2.66-6.09Z" style="fill:#a33541"/><path d="M147,98.47a3.93,3.93,0,1,1,7.84,0,3.69,3.69,0,0,1-3.92,3.85A3.81,3.81,0,0,1,147,98.47Z" style="fill:#a33541"/><path d="M84.29,208c0-1.59-.05-1.88-.74-2L83,206a.28.28,0,0,1,0-.42c.94-.08,2.1-.13,3.74-.13a5.94,5.94,0,0,1,2.8.5A2.5,2.5,0,0,1,91,208.28a3.1,3.1,0,0,1-2.1,2.8c-.08.1,0,.27.08.4a18.12,18.12,0,0,0,3.37,4.46,2,2,0,0,0,1.16.47.14.14,0,0,1,0,.23,2.59,2.59,0,0,1-.74.08c-1.43,0-2.28-.42-3.47-2.11-.44-.62-1.12-1.78-1.64-2.53a1.2,1.2,0,0,0-1.19-.54c-.75,0-.79,0-.79.37V214c0,1.76,0,2,1,2.1l.35,0a.33.33,0,0,1,0,.42c-.75,0-1.33-.05-2-.05s-1.31,0-2.1.05a.32.32,0,0,1,0-.42l.42,0c1-.12,1-.34,1-2.1Zm1.38,2.4a1.31,1.31,0,0,0,.05.55s.3.08,1.16.08a2.81,2.81,0,0,0,1.73-.44,2.4,2.4,0,0,0,.84-2.08,2.47,2.47,0,0,0-2.68-2.58c-1,0-1.09.07-1.09.54Z" style="fill:#a0a0a0"/><path d="M97.18,214.64c0,1.35.08,1.55.75,1.6l.48,0a.25.25,0,0,1,0,.31c-.78,0-1.21,0-1.71,0s-1,0-1.65,0a.24.24,0,0,1,0-.31l.39,0c.73-.08.75-.25.75-1.6V214a2.52,2.52,0,0,0-.4-1.56l-1.48-2.89c-.43-.83-.62-.89-1-1l-.35-.06a.23.23,0,0,1,0-.31c.4,0,.86,0,1.46,0s1,0,1.34,0c.11,0,.11.24,0,.31l-.16,0c-.44.06-.53.13-.53.23a6.18,6.18,0,0,0,.39,1c.46.93.93,1.92,1.42,2.79.39-.67.8-1.4,1.18-2.12a11.53,11.53,0,0,0,.82-1.66c0-.08-.23-.16-.53-.2l-.23,0a.21.21,0,0,1,0-.31c.45,0,.82,0,1.21,0s.74,0,1.17,0a.21.21,0,0,1,0,.31l-.35.06c-.65.11-1,.91-1.66,2l-.79,1.37a2.9,2.9,0,0,0-.59,2Z" style="fill:#a0a0a0"/><path d="M105.29,213.63c-.09-.28-.14-.31-.52-.31h-1.9c-.31,0-.39,0-.48.3l-.44,1.32a4.8,4.8,0,0,0-.28,1c0,.15.06.23.36.25l.42,0a.2.2,0,0,1,0,.31c-.33,0-.72,0-1.31,0-.42,0-.87,0-1.21,0a.25.25,0,0,1,0-.31l.42,0a.83.83,0,0,0,.75-.62c.23-.58.58-1.4,1.11-2.8l1.28-3.39a1.79,1.79,0,0,0,.21-.89,1.41,1.41,0,0,0,.65-.48.18.18,0,0,1,.19.11c.16.55.36,1.13.55,1.69l1.72,5.05c.37,1.08.53,1.27,1.07,1.33l.34,0a.25.25,0,0,1,0,.31c-.52,0-1,0-1.52,0s-1.08,0-1.45,0a.21.21,0,0,1,0-.31l.36,0c.26,0,.44-.1.44-.23a2.58,2.58,0,0,0-.16-.67Zm-2.49-1.12c-.1.29-.09.3.26.3h1.55c.36,0,.39,0,.28-.39l-.68-2a8.4,8.4,0,0,0-.29-.79h0a7.79,7.79,0,0,0-.3.74Z" style="fill:#a0a0a0"/><path d="M116.38,214.41c0,.38,0,1.87,0,2.2a.23.23,0,0,1-.24.14c-.15-.21-.52-.65-1.61-1.9l-2.92-3.32c-.34-.39-1.19-1.42-1.46-1.7h0a3.22,3.22,0,0,0-.06.82v2.74a9.84,9.84,0,0,0,.23,2.6c.08.14.33.21.64.24l.39,0a.23.23,0,0,1,0,.31c-.57,0-1,0-1.47,0s-.87,0-1.31,0a.23.23,0,0,1,0-.31l.34,0c.29,0,.49-.11.55-.25a12.17,12.17,0,0,0,.16-2.59v-3.63a1.16,1.16,0,0,0-.28-.91,1.36,1.36,0,0,0-.78-.3l-.21,0c-.08-.08-.08-.26,0-.31.53,0,1.19,0,1.42,0a4,4,0,0,0,.58,0A17.33,17.33,0,0,0,112.5,211l1.22,1.37c.87,1,1.48,1.67,2.08,2.28h0a1.26,1.26,0,0,0,.05-.53V211.4a8.83,8.83,0,0,0-.25-2.6c-.08-.11-.28-.19-.78-.25l-.21,0c-.09-.08-.08-.28,0-.31.58,0,1,0,1.48,0s.87,0,1.29,0a.22.22,0,0,1,0,.31l-.18,0c-.4.06-.65.16-.7.26a10.14,10.14,0,0,0-.19,2.59Z" style="fill:#a0a0a0"/><path d="M69.64,224.76c0-1.76,0-2-1.09-2.11l-.42,0c-.1-.07-.07-.37,0-.42.94,0,1.51.05,2.18.05s1.22,0,2.06-.05c.1.05.13.35,0,.42l-.4,0c-1,.08-1,.35-1,2.11v5.84c0,1.06.05,1.49.35,1.81s.5.39,1.83.39,1.78-.07,2-.22a3.58,3.58,0,0,0,1.11-1.66c.1-.08.42,0,.42.1a13.49,13.49,0,0,1-.7,2.35c-.86,0-2.45-.05-4.18-.05H70.34c-.7,0-1.24,0-2.18.05a.33.33,0,0,1,0-.42l.5,0c1-.1,1-.34,1-2.1Z" style="fill:#a0a0a0"/><path d="M78.37,226.9c0-1.31,0-1.5-.77-1.58l-.2,0c-.08-.05-.05-.28,0-.31.54,0,1,0,1.48,0h2.36c.8,0,1.55,0,1.7,0a13.88,13.88,0,0,1,.2,1.67.25.25,0,0,1-.31,0c-.19-.59-.3-1-1-1.19a6,6,0,0,0-1.22-.08h-.91c-.38,0-.38,0-.38.5v2.51c0,.35,0,.35.42.35h.73a4.71,4.71,0,0,0,1.07-.08c.15-.05.24-.13.3-.44l.1-.52a.25.25,0,0,1,.33,0c0,.3,0,.79,0,1.27s0,.93,0,1.21a.25.25,0,0,1-.33,0l-.11-.49a.54.54,0,0,0-.39-.48,4.25,4.25,0,0,0-1-.06h-.73c-.38,0-.42,0-.42.34v1.77c0,.67,0,1.09.24,1.31s.42.29,1.52.29a3.69,3.69,0,0,0,1.61-.19,3.15,3.15,0,0,0,.89-1.22.23.23,0,0,1,.31.09,11,11,0,0,1-.57,1.75c-1.13,0-2.25,0-3.37,0H78.91c-.54,0-1,0-1.71,0a.24.24,0,0,1,0-.31l.42,0c.72-.06.78-.25.78-1.57Z" style="fill:#a0a0a0"/><path d="M85.21,226.34c-.29-.7-.48-1-1-1l-.23,0a.21.21,0,0,1,0-.31c.36,0,.77,0,1.31,0s1,0,1.52,0a.22.22,0,0,1,0,.31l-.19,0c-.48.06-.58.14-.59.24a15.87,15.87,0,0,0,.63,1.76c.58,1.46,1.16,2.9,1.79,4.34.39-.83.92-2.12,1.21-2.79.36-.85,1-2.28,1.17-2.82a1.34,1.34,0,0,0,.11-.49c0-.09-.13-.19-.57-.24l-.23,0a.22.22,0,0,1,0-.31c.35,0,.83,0,1.31,0s.8,0,1.22,0c.09,0,.09.25,0,.31l-.38,0a.8.8,0,0,0-.65.44,30.14,30.14,0,0,0-1.41,2.89l-.68,1.55c-.5,1.16-1.09,2.62-1.31,3.28a.25.25,0,0,1-.14,0,.5.5,0,0,1-.19,0,14.76,14.76,0,0,0-.58-1.67Z" style="fill:#a0a0a0"/><path d="M94.06,226.9c0-1.31,0-1.5-.77-1.58l-.2,0c-.08-.05-.05-.28,0-.31.54,0,1,0,1.48,0H97c.8,0,1.55,0,1.7,0a13.88,13.88,0,0,1,.2,1.67.25.25,0,0,1-.31,0c-.19-.59-.3-1-1-1.19a6,6,0,0,0-1.22-.08h-.91c-.38,0-.38,0-.38.5v2.51c0,.35,0,.35.42.35h.73a4.71,4.71,0,0,0,1.07-.08c.15-.05.24-.13.3-.44l.1-.52a.25.25,0,0,1,.33,0c0,.3,0,.79,0,1.27s0,.93,0,1.21a.25.25,0,0,1-.33,0l-.11-.49a.54.54,0,0,0-.39-.48,4.25,4.25,0,0,0-1-.06h-.73c-.38,0-.42,0-.42.34v1.77c0,.67,0,1.09.24,1.31s.42.29,1.52.29a3.69,3.69,0,0,0,1.61-.19,3.15,3.15,0,0,0,.89-1.22.23.23,0,0,1,.31.09,11,11,0,0,1-.57,1.75c-1.13,0-2.25,0-3.37,0H94.6c-.54,0-1,0-1.71,0a.24.24,0,0,1,0-.31l.42,0c.72-.06.78-.25.78-1.57Z" style="fill:#a0a0a0"/><path d="M102.61,233.51a3.94,3.94,0,0,1-2-.46,5.84,5.84,0,0,1-.34-1.76c.06-.09.25-.11.3,0a2.29,2.29,0,0,0,2.16,1.87,1.43,1.43,0,0,0,1.57-1.45,1.89,1.89,0,0,0-1-1.76l-1.19-.78a2.68,2.68,0,0,1-1.36-2.16c0-1.19.93-2.16,2.57-2.16a4.86,4.86,0,0,1,1.17.16,1.72,1.72,0,0,0,.44.08,5.49,5.49,0,0,1,.23,1.53c-.05.08-.25.11-.31,0a1.65,1.65,0,0,0-1.71-1.42,1.32,1.32,0,0,0-1.5,1.4,2,2,0,0,0,1.07,1.55l1,.63a2.83,2.83,0,0,1,1.57,2.41A2.37,2.37,0,0,1,102.61,233.51Z" style="fill:#a0a0a0"/><path d="M115.36,229.12a4.28,4.28,0,0,1-3,4.2c0,.06,0,.11.1.19a8.84,8.84,0,0,0,2.8,2,3.74,3.74,0,0,0,1.17.18,1.94,1.94,0,0,0,.6-.11c.08,0,.1.13.06.19a3.08,3.08,0,0,1-1.41.33,5,5,0,0,1-2-.47,8.75,8.75,0,0,1-2.33-1.66,1.21,1.21,0,0,0-.84-.47,5.73,5.73,0,0,1-1.23-.3,4.08,4.08,0,0,1-2.69-3.92,4.35,4.35,0,0,1,4.48-4.44A4.14,4.14,0,0,1,115.36,229.12Zm-1.26.39c0-2.08-.92-4.31-3.32-4.31-1.31,0-3,.89-3,3.65,0,1.86.91,4.28,3.38,4.28C112.67,233.12,114.1,232,114.1,229.51Z" style="fill:#a0a0a0"/><path d="M123.39,228.17a9.06,9.06,0,0,0-.24-2.6.77.77,0,0,0-.63-.26l-.31,0a.23.23,0,0,1,0-.3c.48,0,.94,0,1.43,0s.87,0,1.32,0a.22.22,0,0,1,0,.3l-.3,0a.73.73,0,0,0-.63.3,11.25,11.25,0,0,0-.18,2.56v1.42a4.38,4.38,0,0,1-.88,3,3.31,3.31,0,0,1-2.4.92,3.57,3.57,0,0,1-2.35-.69c-.67-.55-1-1.47-1-3v-3c0-1.31,0-1.52-.75-1.58l-.31,0c-.08-.05-.05-.26,0-.3.63,0,1.06,0,1.56,0s.93,0,1.55,0c.08,0,.1.25,0,.3l-.3,0c-.73.06-.75.28-.75,1.58v2.72c0,2,.63,3.36,2.55,3.36s2.51-1.43,2.51-3.34Z" style="fill:#a0a0a0"/><path d="M126.78,226.9c0-1.31,0-1.5-.77-1.58l-.2,0c-.08-.05-.05-.28,0-.31.54,0,1,0,1.48,0h2.36c.8,0,1.55,0,1.7,0a14.08,14.08,0,0,1,.2,1.67.25.25,0,0,1-.31,0c-.19-.59-.3-1-1-1.19a6,6,0,0,0-1.22-.08h-.91c-.38,0-.38,0-.38.5v2.51c0,.35,0,.35.42.35H129a4.71,4.71,0,0,0,1.07-.08c.15-.05.24-.13.3-.44l.1-.52a.25.25,0,0,1,.33,0c0,.3-.05.79-.05,1.27s.05.93.05,1.21a.25.25,0,0,1-.33,0l-.11-.49a.54.54,0,0,0-.39-.48,4.25,4.25,0,0,0-1-.06h-.73c-.38,0-.42,0-.42.34v1.77c0,.67,0,1.09.24,1.31s.42.29,1.52.29a3.69,3.69,0,0,0,1.61-.19,3.15,3.15,0,0,0,.89-1.22.23.23,0,0,1,.31.09,11,11,0,0,1-.57,1.75c-1.13,0-2.25,0-3.37,0h-1.13c-.54,0-1,0-1.71,0a.24.24,0,0,1,0-.31l.42,0c.72-.06.78-.25.78-1.57Z" style="fill:#a0a0a0"/><path d="M103.7,161.82a7.28,7.28,0,0,1-3.7,1,7,7,0,0,1-4-1.2" style="fill:none;stroke:#a0a0a0;stroke-miterlimit:10"/><path d="M106.1,156.82a8.91,8.91,0,0,1-6.1,2,9.33,9.33,0,0,1-6-1.9" style="fill:none;stroke:#a0a0a0;stroke-miterlimit:10"/><path d="M107.6,152.82c-1.5,1.2-4.4,2-7.6,2s-6.1-.8-7.6-2" style="fill:none;stroke:#a0a0a0;stroke-miterlimit:10"/><ellipse cx="100" cy="146.82" rx="11" ry="4" style="fill:none;stroke:#a0a0a0;stroke-miterlimit:10"/></svg>