<svg id="Layer_1" data-name="Layer 1" xmlns="http://www.w3.org/2000/svg" xmlns:xlink="http://www.w3.org/1999/xlink" viewBox="0 0 200 260"><defs><linearGradient id="linear-gradient" x1="36.33" y1="74.28" x2="165.84" y2="74.28" gradientUnits="userSpaceOnUse"><stop offset="0" stop-color="#090909"/><stop offset="0.47" stop-color="#333"/><stop offset="1"/></linearGradient></defs><title>book-membership-economy</title><rect x="0.17" width="199.65" height="260" style="fill:#ed2027"/><line x1="43.24" y1="144.93" x2="156.76" y2="144.93" style="fill:none;stroke:#fff;stroke-miterlimit:10"/><line x1="43.24" y1="159.87" x2="156.76" y2="159.87" style="fill:none;stroke:#fff;stroke-miterlimit:10"/><line x1="43.24" y1="174.81" x2="156.76" y2="174.81" style="fill:none;stroke:#fff;stroke-miterlimit:10"/><line x1="43.24" y1="189.76" x2="156.76" y2="189.76" style="fill:none;stroke:#fff;stroke-miterlimit:10"/><rect x="33.24" y="35.46" width="133.53" height="77.64" rx="6.77" ry="6.77" style="fill:url(#linear-gradient)"/><path d="M53.52,50.59v2H50.4V61H48.06V52.58H44.94v-2Z" style="fill:#fff"/><path d="M62.77,50.59H65.1V61H62.77v-4.4H58.85V61H56.51V50.59h2.33v4h3.92Z" style="fill:#fff"/><path d="M69,61V50.59h7v2H71.32v2h4.14v1.91H71.32V59h5v2Z" style="fill:#fff"/><path d="M48.59,68.54q.27.49.62,1.22t.74,1.57q.38.85.76,1.73l.71,1.66.71-1.66q.38-.88.76-1.73t.73-1.57q.35-.73.62-1.22h2.12q.15,1,.28,2.31t.22,2.66q.1,1.38.18,2.77t.14,2.62H54.9q0-1.51-.12-3.29T54.56,72L54,73.41l-.65,1.53-.62,1.46-.51,1.19H50.54L50,76.4l-.62-1.46-.65-1.53L48.15,72q-.15,1.81-.22,3.59t-.12,3.29H45.54q.06-1.23.14-2.62t.18-2.77q.1-1.38.22-2.66t.28-2.31Z" style="fill:#fff"/><path d="M60.75,78.9V68.54h7v2H63.08v2h4.14v1.91H63.08v2.5h5v2Z" style="fill:#fff"/><path d="M74.06,68.54q.27.49.62,1.22t.74,1.57q.38.85.76,1.73l.71,1.66.71-1.66q.38-.88.76-1.73t.73-1.57q.35-.73.62-1.22h2.12q.15,1,.28,2.31t.22,2.66q.1,1.38.18,2.77t.14,2.62H80.37q0-1.51-.12-3.29T80,72l-.6,1.39-.65,1.53-.62,1.46-.51,1.19H76L75.5,76.4l-.62-1.46-.65-1.53L73.63,72q-.15,1.81-.22,3.59t-.12,3.29H71q.06-1.23.14-2.62t.18-2.77q.1-1.38.22-2.66t.28-2.31Z" style="fill:#fff"/><path d="M89.68,79Q88.83,79,88,79a12.13,12.13,0,0,1-1.76-.25V68.69a15,15,0,0,1,1.57-.2q.85-.07,1.58-.07a10.81,10.81,0,0,1,1.82.14,4.3,4.3,0,0,1,1.43.49,2.55,2.55,0,0,1,.94.9,2.65,2.65,0,0,1,.34,1.38,2.2,2.2,0,0,1-1.2,2,2.45,2.45,0,0,1,1.35,1,2.93,2.93,0,0,1,.36,1.45,2.79,2.79,0,0,1-1.19,2.45A6.23,6.23,0,0,1,89.68,79ZM88.5,72.6h1.14a3.17,3.17,0,0,0,1.54-.28,1,1,0,0,0,.46-.89.91.91,0,0,0-.48-.88,3.07,3.07,0,0,0-1.41-.25h-.64l-.61,0Zm0,1.78v2.68l.55,0h.66a4,4,0,0,0,1.69-.3A1.11,1.11,0,0,0,92,75.72a1.08,1.08,0,0,0-.54-1A3.16,3.16,0,0,0,90,74.38Z" style="fill:#fff"/><path d="M97.77,78.9V68.54h7v2H100.1v2h4.14v1.91H100.1v2.5h5v2Z" style="fill:#fff"/><path d="M111.37,68.42a6.43,6.43,0,0,1,3.58.83,2.89,2.89,0,0,1,1.24,2.58,2.92,2.92,0,0,1-.5,1.77,3.29,3.29,0,0,1-1.44,1.07q.31.39.66.89t.68,1q.34.55.65,1.14t.58,1.16H114.2l-.58-1q-.29-.52-.6-1t-.61-.93q-.3-.44-.6-.8h-1.15V78.9h-2.33V68.69a13.3,13.3,0,0,1,1.58-.21Q110.73,68.42,111.37,68.42Zm.13,2-.46,0-.38,0v2.81h.66a4,4,0,0,0,1.88-.33,1.19,1.19,0,0,0,.57-1.12,1.14,1.14,0,0,0-.58-1.08A3.55,3.55,0,0,0,111.5,70.41Z" style="fill:#fff"/><path d="M122.63,77.12a3.37,3.37,0,0,0,.82-.08,1.5,1.5,0,0,0,.52-.22.77.77,0,0,0,.27-.34,1.23,1.23,0,0,0,.07-.43,1,1,0,0,0-.48-.84,6.86,6.86,0,0,0-1.65-.73q-.51-.18-1-.41a3.78,3.78,0,0,1-.91-.58,2.78,2.78,0,0,1-.66-.85,2.66,2.66,0,0,1-.25-1.22,3,3,0,0,1,.27-1.29,2.77,2.77,0,0,1,.76-1,3.49,3.49,0,0,1,1.2-.62,5.37,5.37,0,0,1,1.59-.22,6.32,6.32,0,0,1,3.07.72l-.67,1.84a6.42,6.42,0,0,0-1-.4,4.19,4.19,0,0,0-1.28-.17,2.35,2.35,0,0,0-1.2.23.78.78,0,0,0-.37.71.82.82,0,0,0,.13.48,1.3,1.3,0,0,0,.38.35,3.35,3.35,0,0,0,.57.28l.71.26q.81.3,1.41.59a3.76,3.76,0,0,1,1,.68,2.46,2.46,0,0,1,.59.91,3.66,3.66,0,0,1,.19,1.27,2.7,2.7,0,0,1-1,2.25,4.92,4.92,0,0,1-3.07.8,8.52,8.52,0,0,1-1.24-.08,7.91,7.91,0,0,1-1-.2,5.5,5.5,0,0,1-.73-.25q-.31-.13-.52-.25l.66-1.86a5.77,5.77,0,0,0,1.14.46A5.92,5.92,0,0,0,122.63,77.12Z" style="fill:#fff"/><path d="M136.26,68.54h2.33V78.9h-2.33V74.5h-3.92v4.4H130V68.54h2.33v4h3.92Z" style="fill:#fff"/><path d="M142.48,68.54h2.33V78.9h-2.33Z" style="fill:#fff"/><path d="M151.82,68.42a6.49,6.49,0,0,1,3.56.82,3,3,0,0,1,1.24,2.67,3,3,0,0,1-1.26,2.7,6.5,6.5,0,0,1-3.59.83H151V78.9H148.7V68.69a13.27,13.27,0,0,1,1.62-.21Q151.17,68.42,151.82,68.42Zm.15,2-.5,0-.43,0v3h.73a4,4,0,0,0,1.82-.33,1.26,1.26,0,0,0,.61-1.23,1.47,1.47,0,0,0-.16-.72,1.21,1.21,0,0,0-.45-.46,2,2,0,0,0-.71-.24A5.86,5.86,0,0,0,152,70.41Z" style="fill:#fff"/><path d="M45.83,96.85V86.49h7v2H48.17v2h4.14V92.4H48.17v2.5h5v2Z" style="fill:#fff"/><path d="M61.12,97.06a5,5,0,0,1-3.85-1.41,5.6,5.6,0,0,1-1.32-4,6.16,6.16,0,0,1,.4-2.3,5,5,0,0,1,1.11-1.71,4.63,4.63,0,0,1,1.68-1.05,6,6,0,0,1,2.11-.36,6.8,6.8,0,0,1,1.2.1,7.88,7.88,0,0,1,.94.22,4.65,4.65,0,0,1,.67.26l.39.21-.67,1.89a5.65,5.65,0,0,0-1.11-.43,5.34,5.34,0,0,0-1.44-.18,3.2,3.2,0,0,0-1.05.18,2.41,2.41,0,0,0-.91.58,2.89,2.89,0,0,0-.64,1,4.31,4.31,0,0,0-.24,1.53A5.46,5.46,0,0,0,58.53,93,2.83,2.83,0,0,0,59,94a2.45,2.45,0,0,0,.92.71,3.28,3.28,0,0,0,1.38.26,6.26,6.26,0,0,0,.91-.06A6.63,6.63,0,0,0,63,94.8a3.74,3.74,0,0,0,.55-.19l.43-.19.64,1.87a5.46,5.46,0,0,1-1.39.54A8.09,8.09,0,0,1,61.12,97.06Z" style="fill:#fff"/><path d="M77.08,91.66a6.37,6.37,0,0,1-.4,2.34,4.82,4.82,0,0,1-1.08,1.69,4.45,4.45,0,0,1-1.64,1,5.94,5.94,0,0,1-2,.34,5.79,5.79,0,0,1-2-.34,4.61,4.61,0,0,1-1.65-1A4.8,4.8,0,0,1,67.17,94a6.28,6.28,0,0,1-.4-2.34,6.08,6.08,0,0,1,.42-2.34,5,5,0,0,1,1.13-1.7,4.64,4.64,0,0,1,1.65-1,5.65,5.65,0,0,1,2-.34,5.79,5.79,0,0,1,2,.34,4.56,4.56,0,0,1,1.65,1,4.88,4.88,0,0,1,1.11,1.7A6.29,6.29,0,0,1,77.08,91.66Zm-7.91,0A4.7,4.7,0,0,0,69.36,93a3.13,3.13,0,0,0,.54,1.05,2.38,2.38,0,0,0,.86.68,2.95,2.95,0,0,0,2.33,0,2.37,2.37,0,0,0,.87-.68A3.15,3.15,0,0,0,74.49,93a4.73,4.73,0,0,0,.19-1.38,4.81,4.81,0,0,0-.19-1.38,3.15,3.15,0,0,0-.54-1.06,2.38,2.38,0,0,0-.87-.68,2.73,2.73,0,0,0-1.16-.24,2.63,2.63,0,0,0-1.17.25,2.44,2.44,0,0,0-.86.69,3.12,3.12,0,0,0-.54,1.06A4.72,4.72,0,0,0,69.17,91.66Z" style="fill:#fff"/><path d="M87.48,96.85q-1-1.78-2.17-3.52a35.66,35.66,0,0,0-2.48-3.28v6.79h-2.3V86.49h1.9q.49.49,1.09,1.21t1.22,1.53q.62.81,1.23,1.69t1.15,1.68V86.49h2.32V96.85Z" style="fill:#fff"/><path d="M103.2,91.66a6.37,6.37,0,0,1-.4,2.34,4.82,4.82,0,0,1-1.08,1.69,4.45,4.45,0,0,1-1.64,1,5.94,5.94,0,0,1-2,.34,5.79,5.79,0,0,1-2-.34,4.61,4.61,0,0,1-1.65-1A4.8,4.8,0,0,1,93.28,94a6.28,6.28,0,0,1-.4-2.34,6.08,6.08,0,0,1,.42-2.34,5,5,0,0,1,1.13-1.7,4.64,4.64,0,0,1,1.65-1,5.65,5.65,0,0,1,2-.34,5.79,5.79,0,0,1,2,.34,4.56,4.56,0,0,1,1.65,1,4.88,4.88,0,0,1,1.11,1.7A6.29,6.29,0,0,1,103.2,91.66Zm-7.91,0A4.7,4.7,0,0,0,95.47,93,3.13,3.13,0,0,0,96,94.09a2.38,2.38,0,0,0,.86.68,2.95,2.95,0,0,0,2.33,0,2.37,2.37,0,0,0,.87-.68,3.15,3.15,0,0,0,.54-1.05,4.73,4.73,0,0,0,.19-1.38,4.81,4.81,0,0,0-.19-1.38,3.15,3.15,0,0,0-.54-1.06,2.38,2.38,0,0,0-.87-.68A2.73,2.73,0,0,0,98,88.3a2.63,2.63,0,0,0-1.17.25,2.44,2.44,0,0,0-.86.69,3.12,3.12,0,0,0-.54,1.06A4.72,4.72,0,0,0,95.29,91.66Z" style="fill:#fff"/><path d="M109.39,86.49q.27.49.62,1.22t.74,1.57q.38.85.76,1.73l.71,1.66.71-1.66q.38-.88.76-1.73t.73-1.57q.35-.73.62-1.22h2.12q.15,1,.28,2.31t.22,2.66q.1,1.38.18,2.77t.14,2.62h-2.27q0-1.51-.12-3.29T115.36,90l-.6,1.39-.65,1.53-.62,1.46L113,95.54h-1.63l-.51-1.19-.62-1.46-.65-1.53L109,90q-.15,1.81-.22,3.59t-.12,3.29h-2.27q.06-1.23.14-2.62t.18-2.77q.1-1.38.22-2.66t.28-2.31Z" style="fill:#fff"/><path d="M125.13,90.74q.63-1.06,1.2-2.12t1-2.13h2.57q-.85,1.68-1.77,3.25t-1.93,3.16v4h-2.33V92.92q-1-1.58-1.94-3.17t-1.77-3.26h2.71q.48,1.07,1,2.13T125.13,90.74Z" style="fill:#fff"/><path d="M23.93,226.86a4.53,4.53,0,0,1,2.52.58,2,2,0,0,1,.88,1.82,2.06,2.06,0,0,1-.35,1.25,2.32,2.32,0,0,1-1,.75c.15.18.3.39.46.63s.32.48.48.74.31.52.46.8.29.55.41.82H25.93l-.41-.73c-.14-.25-.28-.49-.42-.72s-.29-.45-.43-.66-.28-.4-.42-.56h-.81v2.67H21.79v-7.2a9.37,9.37,0,0,1,1.11-.15Q23.48,226.86,23.93,226.86Zm.09,1.4h-.32l-.27,0v2h.46a2.81,2.81,0,0,0,1.33-.23.84.84,0,0,0,.4-.79.8.8,0,0,0-.41-.76A2.51,2.51,0,0,0,24,228.26Z"/><path d="M36.65,230.59a4.49,4.49,0,0,1-.28,1.65,3.38,3.38,0,0,1-.76,1.19,3.15,3.15,0,0,1-1.16.72,4.21,4.21,0,0,1-1.44.24,4.1,4.1,0,0,1-1.41-.24,3.25,3.25,0,0,1-1.16-.72,3.37,3.37,0,0,1-.78-1.19,4.43,4.43,0,0,1-.28-1.65,4.29,4.29,0,0,1,.29-1.65,3.52,3.52,0,0,1,.8-1.2,3.26,3.26,0,0,1,1.16-.73,4,4,0,0,1,1.39-.24,4.08,4.08,0,0,1,1.41.24,3.2,3.2,0,0,1,1.16.73,3.43,3.43,0,0,1,.78,1.2A4.43,4.43,0,0,1,36.65,230.59Zm-5.58,0a3.32,3.32,0,0,0,.13,1,2.21,2.21,0,0,0,.38.74,1.68,1.68,0,0,0,.61.48,2.07,2.07,0,0,0,1.64,0,1.67,1.67,0,0,0,.61-.48,2.21,2.21,0,0,0,.38-.74,3.32,3.32,0,0,0,.13-1,3.38,3.38,0,0,0-.13-1,2.21,2.21,0,0,0-.38-.75,1.66,1.66,0,0,0-.61-.48,1.92,1.92,0,0,0-.82-.17,1.86,1.86,0,0,0-.82.17,1.72,1.72,0,0,0-.61.48,2.22,2.22,0,0,0-.38.75A3.34,3.34,0,0,0,31.07,230.59Z"/><path d="M41.51,234.35q-.6,0-1.2,0a8.37,8.37,0,0,1-1.24-.17v-7.09a10.58,10.58,0,0,1,1.11-.14q.6,0,1.12,0a7.65,7.65,0,0,1,1.28.1,3.06,3.06,0,0,1,1,.34,1.8,1.8,0,0,1,.66.64,1.87,1.87,0,0,1,.24,1,1.55,1.55,0,0,1-.84,1.38,1.73,1.73,0,0,1,.95.72,2.06,2.06,0,0,1,.25,1,2,2,0,0,1-.84,1.73A4.39,4.39,0,0,1,41.51,234.35Zm-.83-4.53h.8a2.22,2.22,0,0,0,1.09-.2.68.68,0,0,0,.33-.63.64.64,0,0,0-.34-.62,2.16,2.16,0,0,0-1-.18h-.45l-.43,0Zm0,1.25V233l.39,0h.46a2.85,2.85,0,0,0,1.19-.21.78.78,0,0,0,.45-.78.76.76,0,0,0-.38-.72,2.23,2.23,0,0,0-1.09-.22Z"/><path d="M49.65,234.35q-.6,0-1.2,0a8.37,8.37,0,0,1-1.24-.17v-7.09a10.58,10.58,0,0,1,1.11-.14q.6,0,1.12,0a7.65,7.65,0,0,1,1.28.1,3.06,3.06,0,0,1,1,.34,1.8,1.8,0,0,1,.66.64,1.87,1.87,0,0,1,.24,1,1.55,1.55,0,0,1-.84,1.38,1.73,1.73,0,0,1,.95.72,2.06,2.06,0,0,1,.25,1,2,2,0,0,1-.84,1.73A4.39,4.39,0,0,1,49.65,234.35Zm-.83-4.53h.8a2.22,2.22,0,0,0,1.09-.2A.68.68,0,0,0,51,229a.64.64,0,0,0-.34-.62,2.16,2.16,0,0,0-1-.18h-.45l-.43,0Zm0,1.25V233l.39,0h.46a2.85,2.85,0,0,0,1.19-.21.78.78,0,0,0,.45-.78.76.76,0,0,0-.38-.72,2.23,2.23,0,0,0-1.09-.22Z"/><path d="M55.36,226.95H57v7.31H55.36Z"/><path d="M59.74,234.25v-7.31h4.93v1.38H61.39v1.43h2.92v1.35H61.39v1.76h3.53v1.38Z"/><path d="M75.08,234.25c-.15-.24-.32-.5-.52-.77s-.42-.55-.65-.84-.48-.55-.73-.81a7.73,7.73,0,0,0-.76-.68v3.09H70.77v-7.31h1.64v2.75q.63-.67,1.29-1.39l1.21-1.35h2q-.75.89-1.5,1.71t-1.59,1.65A12.61,12.61,0,0,1,75.47,232,21.7,21.7,0,0,1,77,234.25Z"/><path d="M79,234.25v-7.31H84v1.38H80.68v1.43h2.92v1.35H80.68v1.76h3.53v1.38Z"/><path d="M91.37,232.84v1.41H86.48v-7.31h1.64v5.89Z"/><path d="M98.36,232.84v1.41H93.48v-7.31h1.64v5.89Z"/><path d="M102.51,226.95q.19.35.44.86t.52,1.11q.27.6.53,1.22l.5,1.17.5-1.17q.26-.62.53-1.22t.52-1.11q.25-.51.44-.86H108q.11.73.2,1.63t.16,1.88q.07,1,.13,2t.1,1.85H107q0-1.06-.08-2.32t-.16-2.53l-.42,1-.46,1.08-.44,1-.36.84h-1.15l-.36-.84-.44-1-.46-1.08-.42-1q-.11,1.28-.16,2.53t-.08,2.32h-1.6q0-.86.1-1.85t.13-2q.07-1,.16-1.88t.2-1.63Z"/><path d="M116,234.25c-.08-.25-.17-.51-.26-.78l-.28-.8h-2.85l-.28.8c-.09.27-.18.53-.26.78h-1.71q.41-1.18.78-2.18t.72-1.89q.35-.89.7-1.68t.71-1.56h1.56q.36.76.71,1.56t.7,1.68q.36.89.73,1.89t.78,2.18Zm-2-5.65-.16.43-.24.63-.3.79-.34.91h2.09l-.33-.91c-.1-.29-.2-.55-.3-.79l-.25-.63Z"/><path d="M124.65,234.25q-.71-1.26-1.53-2.48a25.11,25.11,0,0,0-1.75-2.31v4.79h-1.62v-7.31h1.34q.35.35.77.85t.86,1.08q.44.58.87,1.19l.81,1.19v-4.31H126v7.31Z"/><path d="M134.79,234.35q-.6,0-1.2,0a8.37,8.37,0,0,1-1.24-.17v-7.09a10.58,10.58,0,0,1,1.11-.14q.6,0,1.12,0a7.65,7.65,0,0,1,1.28.1,3.06,3.06,0,0,1,1,.34,1.8,1.8,0,0,1,.66.64,1.87,1.87,0,0,1,.24,1,1.55,1.55,0,0,1-.84,1.38,1.73,1.73,0,0,1,.95.72,2.06,2.06,0,0,1,.25,1,2,2,0,0,1-.84,1.73A4.39,4.39,0,0,1,134.79,234.35Zm-.83-4.53h.8a2.22,2.22,0,0,0,1.09-.2.68.68,0,0,0,.33-.63.64.64,0,0,0-.34-.62,2.16,2.16,0,0,0-1-.18h-.45l-.43,0Zm0,1.25V233l.39,0h.46a2.85,2.85,0,0,0,1.19-.21.78.78,0,0,0,.45-.78.76.76,0,0,0-.38-.72,2.23,2.23,0,0,0-1.09-.22Z"/><path d="M145.29,234.25c-.08-.25-.17-.51-.26-.78l-.28-.8H141.9l-.28.8c-.09.27-.18.53-.26.78h-1.71q.41-1.18.78-2.18t.72-1.89q.35-.89.7-1.68t.71-1.56h1.56q.36.76.71,1.56t.7,1.68q.36.89.73,1.89t.78,2.18Zm-2-5.65-.16.43-.24.63-.3.79-.34.91h2.09l-.33-.91c-.1-.29-.2-.55-.3-.79l-.25-.63Z"/><path d="M153.64,234.25q-.31-.61-.68-1.24a4.47,4.47,0,0,0-.84-1.06c-.1.11-.22.26-.37.45s-.3.4-.45.62-.29.44-.42.68-.23.42-.29.55H148.7a19.28,19.28,0,0,1,1.09-1.77q.63-.91,1.4-1.94l-2.38-3.6h2l1.39,2.12,1.42-2.12h1.88l-2.37,3.53a22.14,22.14,0,0,1,1.54,2.14q.6,1,1,1.64Z"/><path d="M163.3,226.95v1.4h-2.2v5.91h-1.64v-5.91h-2.2v-1.4Z"/><path d="M165.41,234.25v-7.31h4.93v1.38h-3.29v1.43H170v1.35h-2.92v1.76h3.53v1.38Z"/><path d="M175,226.86a4.53,4.53,0,0,1,2.52.58,2,2,0,0,1,.88,1.82,2.06,2.06,0,0,1-.35,1.25,2.32,2.32,0,0,1-1,.75c.15.18.3.39.46.63s.32.48.48.74.31.52.46.8.29.55.41.82H177l-.41-.73c-.14-.25-.28-.49-.42-.72s-.29-.45-.43-.66-.28-.4-.42-.56h-.81v2.67h-1.64v-7.2a9.37,9.37,0,0,1,1.11-.15Q174.54,226.86,175,226.86Zm.09,1.4h-.32l-.27,0v2H175a2.81,2.81,0,0,0,1.33-.23.84.84,0,0,0,.4-.79.8.8,0,0,0-.41-.76A2.51,2.51,0,0,0,175.09,228.26Z"/></svg>