<svg id="Layer_1" data-name="Layer 1" xmlns="http://www.w3.org/2000/svg" viewBox="0 0 200 260"><title>book-win-friends-influence</title><rect x="0.15" width="199.65" height="260" style="fill:#e8e8e8"/><rect x="0.15" y="167.07" width="199.65" height="92.93" style="fill:#a11a23"/><path d="M65.23,33.32a.11.11,0,0,0,.12-.12v-.42c0-3.12,0-3.68,0-4.32s-.2-1-.86-1.14a3.83,3.83,0,0,0-.68-.06c-.08,0-.16,0-.16-.12s.1-.16.32-.16c.9,0,2.16.06,2.26.06s1.36-.06,2-.06c.22,0,.32,0,.32.16s-.08.12-.16.12a3,3,0,0,0-.5.06c-.54.1-.7.44-.74,1.14s0,1.2,0,4.32V36.3c0,1.92,0,3.5.1,4.34.06.58.18,1,.78,1.1a8.74,8.74,0,0,0,.9.08c.12,0,.16.06.16.12s-.1.16-.32.16c-1.1,0-2.36-.06-2.46-.06s-1.36.06-2,.06c-.22,0-.32,0-.32-.16s0-.12.16-.12a3.1,3.1,0,0,0,.6-.08c.4-.08.5-.52.58-1.1.1-.84.1-2.42.1-4.34V34.2a.12.12,0,0,0-.12-.12H56.75a.11.11,0,0,0-.12.12v2.1c0,1.92,0,3.5.1,4.34.06.58.18,1,.78,1.1a8.74,8.74,0,0,0,.9.08c.12,0,.16.06.16.12s-.1.16-.32.16c-1.1,0-2.36-.06-2.46-.06s-1.36.06-2,.06c-.22,0-.32,0-.32-.16s0-.12.16-.12a3.09,3.09,0,0,0,.6-.08c.4-.08.5-.52.58-1.1.1-.84.1-2.42.1-4.34V32.78c0-3.12,0-3.68,0-4.32s-.2-1-.86-1.14a3.82,3.82,0,0,0-.68-.06c-.08,0-.16,0-.16-.12s.1-.16.32-.16c.9,0,2.16.06,2.26.06s1.36-.06,2-.06c.22,0,.32,0,.32.16s-.08.12-.16.12a3.07,3.07,0,0,0-.5.06c-.54.1-.7.44-.74,1.14s0,1.2,0,4.32v.42a.11.11,0,0,0,.12.12Z" style="fill:#a11a23"/><path d="M71.53,34.52a7.74,7.74,0,0,1,7.88-7.82c4.5,0,7.86,2.84,7.86,7.5a7.85,7.85,0,0,1-8,8.18C73.81,42.38,71.53,38.12,71.53,34.52Zm13.82.24c0-4.8-2.92-7.38-6.08-7.38-3.34,0-5.84,2.2-5.84,6.58,0,4.66,2.8,7.66,6.4,7.66C81.63,41.62,85.35,40.58,85.35,34.76Z" style="fill:#a11a23"/><path d="M90.51,28.94c-.32-1.06-.58-1.36-1.1-1.56a3.3,3.3,0,0,0-.9-.12c-.1,0-.18,0-.18-.14s.12-.14.32-.14c1,0,2.14.06,2.36.06S92.07,27,93.07,27c.28,0,.36.06.36.14s-.1.14-.2.14a2,2,0,0,0-.78.12.52.52,0,0,0-.26.48,15.76,15.76,0,0,0,.38,1.84c.3,1.28,2.38,8.62,2.7,9.74L99.53,28c.3-.82.38-.92.5-.92s.26.26.5.94l4,11.46c.58-2,2.42-7.76,3.12-10.32a4.46,4.46,0,0,0,.22-1.28c0-.36-.22-.6-1.14-.6-.1,0-.18-.06-.18-.14s.1-.14.34-.14c1,0,1.86.06,2,.06s1-.06,1.62-.06c.18,0,.28,0,.28.12s-.06.16-.18.16a2.66,2.66,0,0,0-.68.1c-.6.22-.92,1.06-1.3,2.16-.88,2.54-2.9,8.9-3.68,11.14-.52,1.48-.62,1.72-.84,1.72s-.32-.26-.6-1L99.63,30.16c-.74,2-3.48,9.3-4.2,11.16-.32.84-.46,1.06-.66,1.06s-.3-.22-.7-1.58Z" style="fill:#a11a23"/><path d="M124.87,36.3c0,1.92,0,3.5.1,4.34.06.58.18,1,.78,1.1a8.7,8.7,0,0,0,.9.08c.12,0,.16.06.16.12s-.1.16-.32.16c-1.1,0-2.36-.06-2.46-.06s-1.36.06-2,.06c-.22,0-.32,0-.32-.16s0-.12.16-.12a3.08,3.08,0,0,0,.6-.08c.4-.08.5-.52.58-1.1.1-.84.1-2.42.1-4.34V27.84l-3,0c-1.24,0-1.72.16-2,.64a3.5,3.5,0,0,0-.34.62c-.06.16-.12.2-.2.2s-.1-.06-.1-.18.4-1.92.44-2.08.12-.38.2-.38a3.72,3.72,0,0,0,.88.24c.58.06,1.34.1,1.58.1h7.5a7.93,7.93,0,0,0,1.42-.1c.3,0,.48-.1.56-.1s.1.12.1.24c0,.6-.06,2-.06,2.2s-.06.26-.14.26-.14-.06-.16-.34c0-.08,0-.14,0-.22-.06-.6-.54-1.06-2.46-1.1l-2.52,0Z" style="fill:#a11a23"/><path d="M131.77,34.52a7.74,7.74,0,0,1,7.88-7.82c4.5,0,7.86,2.84,7.86,7.5a7.85,7.85,0,0,1-8,8.18C134.05,42.38,131.77,38.12,131.77,34.52Zm13.82.24c0-4.8-2.92-7.38-6.08-7.38-3.34,0-5.84,2.2-5.84,6.58,0,4.66,2.8,7.66,6.4,7.66C141.87,41.62,145.59,40.58,145.59,34.76Z" style="fill:#a11a23"/><path d="M25.73,60.94c-.32-1.06-.58-1.36-1.1-1.56a3.3,3.3,0,0,0-.9-.12c-.1,0-.18,0-.18-.14s.12-.14.32-.14c1,0,2.14.06,2.36.06S27.29,59,28.29,59c.28,0,.36.06.36.14s-.1.14-.2.14a2,2,0,0,0-.78.12.52.52,0,0,0-.26.48,15.76,15.76,0,0,0,.38,1.84c.3,1.28,2.38,8.62,2.7,9.74L34.75,60c.3-.82.38-.92.5-.92s.26.26.5.94l4,11.46c.58-2,2.42-7.76,3.12-10.32a4.46,4.46,0,0,0,.22-1.28c0-.36-.22-.6-1.14-.6-.1,0-.18-.06-.18-.14s.1-.14.34-.14c1,0,1.86.06,2,.06s1-.06,1.62-.06c.18,0,.28,0,.28.12s-.06.16-.18.16a2.66,2.66,0,0,0-.68.1c-.6.22-.92,1.06-1.3,2.16-.88,2.54-2.9,8.9-3.68,11.14-.52,1.48-.62,1.72-.84,1.72s-.32-.26-.6-1L34.85,62.16c-.74,2-3.48,9.3-4.2,11.16-.32.84-.46,1.06-.66,1.06s-.3-.22-.7-1.58Z" style="fill:#a11a23"/><path d="M49.33,64.78c0-3.12,0-3.68,0-4.32s-.24-1-.68-1.12a2.66,2.66,0,0,0-.62-.08c-.08,0-.16,0-.16-.12s.1-.16.32-.16c.66,0,1.92.06,2,.06s1.36-.06,2-.06c.22,0,.32,0,.32.16s-.08.12-.16.12a3.07,3.07,0,0,0-.5.06c-.54.1-.7.44-.74,1.14s0,1.2,0,4.32V68.3c0,1.92,0,3.5.1,4.34.06.58.18,1,.78,1.1.28,0,.7.08.82.08s.24.06.24.12-.08.16-.3.16c-1.1,0-2.38-.06-2.48-.06s-1.36.06-2,.06c-.22,0-.32,0-.32-.16s0-.12.22-.12a2.76,2.76,0,0,0,.52-.06c.4-.08.52-.54.6-1.12.1-.84.1-2.42.1-4.34Z" style="fill:#a11a23"/><path d="M57.47,68.2c0-7.22,0-4.62,0-8.5,0-.78.06-1,.22-1s.5.44.7.64,3.28,3.56,6.36,6.86c2,2.12,4.16,4.56,4.8,5.22l-.22-10.16c0-1.3-.16-1.74-.78-1.9a4.22,4.22,0,0,0-.86-.1c-.22,0-.28-.06-.28-.14s.16-.14.4-.14c.9,0,1.86.06,2.08.06s.88-.06,1.7-.06c.22,0,.36,0,.36.14s-.08.12-.22.14l-.52.08c-.56.12-.7.42-.7,1.8l0,11.68c0,1.32,0,1.42-.18,1.42S69.91,74,68.85,73c-.22-.2-3.1-3.14-5.22-5.42-2.32-2.5-4.58-5-5.22-5.74l.26,9.58c0,1.64.24,2.16.78,2.32a4.41,4.41,0,0,0,1,.12c.1,0,.16,0,.16.12s-.12.16-.36.16c-1.14,0-1.94-.06-2.12-.06s-1,.06-1.92.06c-.2,0-.32,0-.32-.16s.06-.12.16-.12a2.89,2.89,0,0,0,.82-.12c.5-.14.6-.72.6-2.54Z" style="fill:#a11a23"/><path d="M83.57,64.78c0-3.12,0-3.68,0-4.32s-.2-1-.86-1.14c-.12,0-.32,0-.5,0s-.34,0-.34-.14.1-.16.32-.16c.78,0,1.54.06,2.26.06.4,0,4.46,0,4.92,0a2.66,2.66,0,0,0,1-.12.46.46,0,0,1,.18-.08c.08,0,.12.08.12.18s-.08.38-.12.62c-.08.58-.08.9-.12,1.46,0,.24-.1.4-.18.4s-.12-.08-.14-.26a1.53,1.53,0,0,0-.38-1,1.87,1.87,0,0,0-1.18-.38l-3.06-.06c-.12,0-.18.06-.18.22v5.52c0,.12,0,.18.14.18.82,0,2,0,2.78,0,1.06,0,1.32,0,1.6-.38.1-.12.14-.2.22-.2s.1.06.1.16-.1.46-.16,1.12-.06,1.08-.08,1.38,0,.34-.14.34-.14-.14-.16-.34a1.19,1.19,0,0,0-1.14-1.28c-.5-.06-2.68-.06-3-.06-.1,0-.14,0-.14.18v1.7c0,1.7,0,3.12.06,4s.28,1.34.82,1.4c.26,0,.6.06.82.08s.24.06.24.14-.1.14-.32.14c-1.12,0-2.36-.06-2.46-.06h-.18c-.4,0-1.3.06-1.78.06-.22,0-.32,0-.32-.16s0-.1.22-.12a3.21,3.21,0,0,0,.52-.08c.42-.12.56-.42.62-1.3s.08-2.26.08-4.14Z" style="fill:#a11a23"/><path d="M95.21,64.78c0-3.12,0-3.68,0-4.32s-.2-1-.86-1.14a3.82,3.82,0,0,0-.68-.06c-.08,0-.16,0-.16-.12s.1-.16.32-.16c.9,0,2.16.06,2.26.06S97.79,59,98.41,59a6.15,6.15,0,0,1,3.66.88,3.5,3.5,0,0,1,1.38,2.72c0,1.48-.62,3-2.42,4.62,1.64,2.1,3,3.88,4.16,5.12a4.14,4.14,0,0,0,2.44,1.44,4.75,4.75,0,0,0,.78.06c.1,0,.18.06.18.12s-.12.16-.48.16h-1.42a4.07,4.07,0,0,1-2.14-.38c-.86-.46-1.56-1.44-2.7-2.94-.84-1.1-1.78-2.44-2.18-3a.32.32,0,0,0-.26-.12l-2.46,0c-.1,0-.14.06-.14.16v.48c0,1.92,0,3.5.1,4.34.06.58.18,1,.78,1.1a8.74,8.74,0,0,0,.9.08c.12,0,.16.06.16.12s-.1.16-.32.16c-1.1,0-2.36-.06-2.46-.06s-1.28.06-1.88.06c-.22,0-.32,0-.32-.16s0-.12.16-.12a3.09,3.09,0,0,0,.6-.08c.4-.08.5-.52.58-1.1.1-.84.1-2.42.1-4.34Zm1.6,1.74a.26.26,0,0,0,.14.24,5.53,5.53,0,0,0,2.1.32,2.59,2.59,0,0,0,1.5-.38,3.65,3.65,0,0,0,1.22-3.08c0-2.5-1.32-4-3.46-4a6,6,0,0,0-1.34.12.24.24,0,0,0-.16.24Z" style="fill:#a11a23"/><path d="M110.29,64.78c0-3.12,0-3.68,0-4.32s-.24-1-.68-1.12a2.66,2.66,0,0,0-.62-.08c-.08,0-.16,0-.16-.12s.1-.16.32-.16c.66,0,1.92.06,2,.06s1.36-.06,2-.06c.22,0,.32,0,.32.16s-.08.12-.16.12a3.07,3.07,0,0,0-.5.06c-.54.1-.7.44-.74,1.14s0,1.2,0,4.32V68.3c0,1.92,0,3.5.1,4.34.06.58.18,1,.78,1.1.28,0,.7.08.82.08s.24.06.24.12-.08.16-.3.16c-1.1,0-2.38-.06-2.48-.06s-1.36.06-2,.06c-.22,0-.32,0-.32-.16s0-.12.22-.12a2.76,2.76,0,0,0,.52-.06c.4-.08.52-.54.6-1.12.1-.84.1-2.42.1-4.34Z" style="fill:#a11a23"/><path d="M119.09,64.78c0-3.12,0-3.68,0-4.32s-.2-1-.86-1.14a5,5,0,0,0-.58-.06c-.14,0-.26,0-.26-.12s.1-.16.32-.16c.46,0,1,0,2.26.06.14,0,4.12,0,4.58,0a3.3,3.3,0,0,0,.92-.12.49.49,0,0,1,.22-.08c.06,0,.08.08.08.18a8.66,8.66,0,0,0-.16.94c0,.3,0,.68-.08,1.2,0,.2-.08.34-.16.34s-.16-.1-.16-.26a2,2,0,0,0-.1-.66c-.14-.46-.56-.66-1.44-.74-.34,0-2.52-.06-2.74-.06s-.12.06-.12.2v5.52c0,.14,0,.2.12.2.26,0,2.72,0,3.18,0s.8-.1,1-.34.16-.2.24-.2.1,0,.1.16-.1.46-.16,1.12-.06,1.08-.08,1.36-.06.3-.14.3-.14-.16-.14-.32a1.83,1.83,0,0,0-.08-.56c-.08-.3-.32-.58-1-.66-.54-.06-2.52-.1-2.86-.1a.13.13,0,0,0-.14.14V68.3c0,.68,0,3,0,3.42,0,.82.16,1.26.66,1.46a4.82,4.82,0,0,0,1.66.18,6.63,6.63,0,0,0,1.8-.18c.64-.2.86-.62,1-1.48,0-.22.08-.3.18-.3s.12.16.12.3a19.43,19.43,0,0,1-.26,1.94c-.14.52-.3.52-1.08.52-1.48,0-2.14,0-2.92-.06s-1.72-.06-2.5-.06c-.48,0-1,.08-1.48.06-.22,0-.32,0-.32-.16s.1-.1.22-.12a2.63,2.63,0,0,0,.46-.06c.42-.1.68-.38.72-1.88,0-.78,0-1.8,0-3.58Z" style="fill:#a11a23"/><path d="M130.63,68.2c0-7.22,0-4.62,0-8.5,0-.78.06-1,.22-1s.5.44.7.64,3.28,3.56,6.36,6.86c2,2.12,4.16,4.56,4.8,5.22l-.22-10.16c0-1.3-.16-1.74-.78-1.9a4.22,4.22,0,0,0-.86-.1c-.22,0-.28-.06-.28-.14s.16-.14.4-.14c.9,0,1.86.06,2.08.06s.88-.06,1.7-.06c.22,0,.36,0,.36.14s-.08.12-.22.14l-.52.08c-.56.12-.7.42-.7,1.8l0,11.68c0,1.32,0,1.42-.18,1.42S143.07,74,142,73c-.22-.2-3.1-3.14-5.22-5.42-2.32-2.5-4.58-5-5.22-5.74l.26,9.58c0,1.64.24,2.16.78,2.32a4.41,4.41,0,0,0,1,.12c.1,0,.16,0,.16.12s-.12.16-.36.16c-1.14,0-1.94-.06-2.12-.06s-1,.06-1.92.06c-.2,0-.32,0-.32-.16s.06-.12.16-.12a2.89,2.89,0,0,0,.82-.12c.5-.14.6-.72.6-2.54Z" style="fill:#a11a23"/><path d="M150.23,64.78c0-3.12,0-3.68,0-4.32s-.14-1-.8-1.14a3.83,3.83,0,0,0-.68-.06c-.14,0-.22,0-.22-.12s.1-.16.32-.16c.9,0,2.16.06,2.26.06s1.5-.06,2.7-.06c2,0,5.64-.18,8,2.28a7.15,7.15,0,0,1,1.94,5.08A8.17,8.17,0,0,1,161.57,72a8,8,0,0,1-6.06,2.3c-.86,0-1.92-.06-2.78-.12L151.07,74l-.8,0c-.4,0-.86,0-1.16,0s-.32,0-.32-.16,0-.12.2-.12a4.27,4.27,0,0,0,.56-.08c.4-.08.5-.52.58-1.1.1-.84.1-2.42.1-4.34Zm1.68,2.16c0,2.12,0,4,0,4.34a4.35,4.35,0,0,0,.22,1.52c.26.38,1,.8,3.4.8a6.71,6.71,0,0,0,4.76-1.86,7,7,0,0,0,1.6-4.78,7.16,7.16,0,0,0-1.92-5c-1.88-2-4.16-2.26-6.54-2.26a5.35,5.35,0,0,0-1.3.14.36.36,0,0,0-.24.4c0,.68,0,2.72,0,4.26Z" style="fill:#a11a23"/><path d="M167.29,73.84c-.28-.14-.3-.22-.3-.76,0-1,.08-1.8.1-2.12s.06-.32.16-.32.14.06.14.22a3.55,3.55,0,0,0,.06.74,2.72,2.72,0,0,0,3,2A2.67,2.67,0,0,0,173.27,71c0-1.38-.58-2.18-2.3-3.6l-.9-.74c-2.12-1.74-2.6-3-2.6-4.34,0-2.14,1.6-3.6,4.14-3.6a7.75,7.75,0,0,1,1.86.2,3.28,3.28,0,0,0,.7.1c.16,0,.2,0,.2.14s-.08.76-.08,2.12c0,.32,0,.46-.14.46s-.14-.1-.16-.26a3.5,3.5,0,0,0-.26-1c-.12-.22-.66-1.06-2.5-1.06a2.27,2.27,0,0,0-2.46,2.32c0,1.14.52,1.86,2.44,3.36l.56.44c2.36,1.86,2.92,3.1,2.92,4.7a4.14,4.14,0,0,1-1.7,3.32,5.27,5.27,0,0,1-3,.84A6.07,6.07,0,0,1,167.29,73.84Z" style="fill:#a11a23"/><path d="M26.26,102a5.58,5.58,0,0,1,3-4.82,4.41,4.41,0,0,1-.94-2.76,4.13,4.13,0,0,1,4.3-3.68,5.75,5.75,0,0,1,2.24.4c.42.2.44.32.44.6a16.85,16.85,0,0,1-.12,2.16c-.06.36-.12.48-.22.48s-.12-.08-.12-.38a2.34,2.34,0,0,0-.62-1.7,2.64,2.64,0,0,0-2-.88A2.44,2.44,0,0,0,29.7,94c0,1.56,1.08,2.86,3.16,5.12.68.74,3.14,3,3.78,3.58a6.11,6.11,0,0,0,1-3.32,1.36,1.36,0,0,0-.38-1,1.42,1.42,0,0,0-.82-.3c-.22,0-.4-.06-.4-.16s.16-.14.32-.14a22.43,22.43,0,0,1,2.4.14c.3,0,.36.2.36.4a8.74,8.74,0,0,1-2,4.72,17.57,17.57,0,0,0,2.76,2,5.33,5.33,0,0,0,2.34.78c.18,0,.32,0,.32.14s-.1.14-.28.14c-1.16,0-2,.06-2.6,0-1-.08-1.84-.36-3.62-1.78a6.64,6.64,0,0,1-5,2.06A4.56,4.56,0,0,1,26.26,102Zm9.32,2C34.46,103,32.5,101,32,100.48a32.79,32.79,0,0,1-2.4-2.82A3.74,3.74,0,0,0,27.9,101a4,4,0,0,0,3.94,4.26A5.05,5.05,0,0,0,35.58,103.92Z" style="fill:#a11a23"/><path d="M51.74,96.78c0-3.12,0-3.68,0-4.32s-.24-1-.68-1.12a2.66,2.66,0,0,0-.62-.08c-.08,0-.16,0-.16-.12s.1-.16.32-.16c.66,0,1.92.06,2,.06s1.36-.06,2-.06c.22,0,.32,0,.32.16s-.08.12-.16.12a3.07,3.07,0,0,0-.5.06c-.54.1-.7.44-.74,1.14s0,1.2,0,4.32v3.52c0,1.92,0,3.5.1,4.34.06.58.18,1,.78,1.1.28,0,.7.08.82.08s.24.06.24.12-.08.16-.3.16c-1.1,0-2.38-.06-2.48-.06s-1.36.06-2,.06c-.22,0-.32,0-.32-.16s0-.12.22-.12a2.76,2.76,0,0,0,.52-.06c.4-.08.52-.54.6-1.12.1-.84.1-2.42.1-4.34Z" style="fill:#a11a23"/><path d="M59.88,100.2c0-7.22,0-4.62,0-8.5,0-.78.06-1,.22-1s.5.44.7.64,3.28,3.56,6.36,6.86c2,2.12,4.16,4.56,4.8,5.22l-.22-10.16c0-1.3-.16-1.74-.78-1.9a4.22,4.22,0,0,0-.86-.1c-.22,0-.28-.06-.28-.14s.16-.14.4-.14c.9,0,1.86.06,2.08.06S73.2,91,74,91c.22,0,.36,0,.36.14s-.08.12-.22.14l-.52.08c-.56.12-.7.42-.7,1.8l0,11.68c0,1.32,0,1.42-.18,1.42s-.4-.22-1.46-1.28c-.22-.2-3.1-3.14-5.22-5.42-2.32-2.5-4.58-5-5.22-5.74l.26,9.58c0,1.64.24,2.16.78,2.32a4.41,4.41,0,0,0,1,.12c.1,0,.16,0,.16.12s-.12.16-.36.16c-1.14,0-1.94-.06-2.12-.06s-1,.06-1.92.06c-.2,0-.32,0-.32-.16s.06-.12.16-.12a2.89,2.89,0,0,0,.82-.12c.5-.14.6-.72.6-2.54Z" style="fill:#a11a23"/><path d="M79.48,96.78c0-3.12,0-3.68,0-4.32s-.2-1-.86-1.14c-.12,0-.32,0-.5,0s-.34,0-.34-.14.1-.16.32-.16c.78,0,1.54.06,2.26.06.4,0,4.46,0,4.92,0a2.66,2.66,0,0,0,1-.12.46.46,0,0,1,.18-.08c.08,0,.12.08.12.18s-.08.38-.12.62c-.08.58-.08.9-.12,1.46,0,.24-.1.4-.18.4S86,93.4,86,93.22a1.53,1.53,0,0,0-.38-1,1.87,1.87,0,0,0-1.18-.38l-3.06-.06c-.12,0-.18.06-.18.22v5.52c0,.12,0,.18.14.18.82,0,2,0,2.78,0,1.06,0,1.32,0,1.6-.38.1-.12.14-.2.22-.2s.1.06.1.16-.1.46-.16,1.12-.06,1.08-.08,1.38,0,.34-.14.34-.14-.14-.16-.34a1.19,1.19,0,0,0-1.14-1.28c-.5-.06-2.68-.06-3-.06-.1,0-.14,0-.14.18v1.7c0,1.7,0,3.12.06,4s.28,1.34.82,1.4c.26,0,.6.06.82.08s.24.06.24.14-.1.14-.32.14c-1.12,0-2.36-.06-2.46-.06h-.18c-.4,0-1.3.06-1.78.06-.22,0-.32,0-.32-.16s0-.1.22-.12a3.21,3.21,0,0,0,.52-.08c.42-.12.56-.42.62-1.3s.08-2.26.08-4.14Z" style="fill:#a11a23"/><path d="M92.8,100.34c0,2.94.08,4.22.44,4.58s.84.46,2.4.46c1.06,0,1.94,0,2.42-.6a2.78,2.78,0,0,0,.52-1.2c0-.16.06-.26.18-.26s.12.08.12.3a12.74,12.74,0,0,1-.3,2c-.14.46-.2.54-1.26.54-1.72,0-3.42-.12-5.36-.12-.62,0-1.22.06-2,.06-.22,0-.32,0-.32-.16s0-.12.16-.12a3.09,3.09,0,0,0,.6-.08c.4-.08.5-.52.58-1.1.1-.84.1-2.42.1-4.34V96.78c0-3.12,0-3.68,0-4.32s-.2-1-.86-1.14a3.82,3.82,0,0,0-.68-.06c-.08,0-.16,0-.16-.12s.1-.16.32-.16c.9,0,2.16.06,2.26.06S93.52,91,94.12,91c.22,0,.32,0,.32.16s-.08.12-.16.12a4.83,4.83,0,0,0-.66.06c-.58.1-.74.44-.78,1.14s0,1.2,0,4.32Z" style="fill:#a11a23"/><path d="M103.42,99.58c0,2.88.64,4.12,1.5,4.94a3.91,3.91,0,0,0,3,1.1,4.2,4.2,0,0,0,3.14-1.44c.92-1.14,1.16-2.84,1.16-4.9v-2.5c0-3.12,0-3.68,0-4.32s-.2-1-.86-1.14a3.83,3.83,0,0,0-.68-.06c-.08,0-.16,0-.16-.12s.1-.16.32-.16c.9,0,2,.06,2.12.06S114,91,114.62,91c.22,0,.32,0,.32.16s-.08.12-.16.12a3.07,3.07,0,0,0-.5.06c-.54.12-.7.44-.74,1.14s0,1.2,0,4.32v2.14c0,2.16-.24,4.56-1.84,6a5.86,5.86,0,0,1-4.12,1.48,6.15,6.15,0,0,1-4.12-1.42c-1-.94-1.74-2.34-1.74-5.26V96.78c0-3.12,0-3.68,0-4.32s-.2-1-.86-1.14a3.83,3.83,0,0,0-.68-.06c-.08,0-.16,0-.16-.12s.1-.16.32-.16c.9,0,2.12.06,2.3.06s1.38-.06,2-.06c.22,0,.32,0,.32.16s-.08.12-.16.12a3.07,3.07,0,0,0-.5.06c-.54.08-.7.44-.74,1.14s0,1.2,0,4.32Z" style="fill:#a11a23"/><path d="M119.44,96.78c0-3.12,0-3.68,0-4.32s-.2-1-.86-1.14a5,5,0,0,0-.58-.06c-.14,0-.26,0-.26-.12s.1-.16.32-.16c.46,0,1,0,2.26.06.14,0,4.12,0,4.58,0a3.3,3.3,0,0,0,.92-.12.49.49,0,0,1,.22-.08c.06,0,.08.08.08.18a8.66,8.66,0,0,0-.16.94c0,.3,0,.68-.08,1.2,0,.2-.08.34-.16.34s-.16-.1-.16-.26a2,2,0,0,0-.1-.66c-.14-.46-.56-.66-1.44-.74-.34,0-2.52-.06-2.74-.06s-.12.06-.12.2v5.52c0,.14,0,.2.12.2.26,0,2.72,0,3.18,0s.8-.1,1-.34.16-.2.24-.2.1,0,.1.16-.1.46-.16,1.12-.06,1.08-.08,1.36-.06.3-.14.3-.14-.16-.14-.32a1.83,1.83,0,0,0-.08-.56c-.08-.3-.32-.58-1-.66-.54-.06-2.52-.1-2.86-.1a.13.13,0,0,0-.14.14v1.76c0,.68,0,3,0,3.42,0,.82.16,1.26.66,1.46a4.82,4.82,0,0,0,1.66.18,6.63,6.63,0,0,0,1.8-.18c.64-.2.86-.62,1-1.48,0-.22.08-.3.18-.3s.12.16.12.3a19.43,19.43,0,0,1-.26,1.94c-.14.52-.3.52-1.08.52-1.48,0-2.14,0-2.92-.06s-1.72-.06-2.5-.06c-.48,0-1,.08-1.48.06-.22,0-.32,0-.32-.16s.1-.1.22-.12a2.63,2.63,0,0,0,.46-.06c.42-.1.68-.38.72-1.88,0-.78,0-1.8,0-3.58Z" style="fill:#a11a23"/><path d="M131,100.2c0-7.22,0-4.62,0-8.5,0-.78.06-1,.22-1s.5.44.7.64,3.28,3.56,6.36,6.86c2,2.12,4.16,4.56,4.8,5.22l-.22-10.16c0-1.3-.16-1.74-.78-1.9a4.22,4.22,0,0,0-.86-.1c-.22,0-.28-.06-.28-.14s.16-.14.4-.14c.9,0,1.86.06,2.08.06s.88-.06,1.7-.06c.22,0,.36,0,.36.14s-.08.12-.22.14l-.52.08c-.56.12-.7.42-.7,1.8l0,11.68c0,1.32,0,1.42-.18,1.42s-.4-.22-1.46-1.28c-.22-.2-3.1-3.14-5.22-5.42-2.32-2.5-4.58-5-5.22-5.74l.26,9.58c0,1.64.24,2.16.78,2.32a4.41,4.41,0,0,0,1,.12c.1,0,.16,0,.16.12s-.12.16-.36.16c-1.14,0-1.94-.06-2.12-.06s-1,.06-1.92.06c-.2,0-.32,0-.32-.16s.06-.12.16-.12a2.89,2.89,0,0,0,.82-.12c.5-.14.6-.72.6-2.54Z" style="fill:#a11a23"/><path d="M150.72,104.22a7.66,7.66,0,0,1-2.42-5.92,8,8,0,0,1,2.24-5.46c1.2-1.2,3-2.14,6.1-2.14a17.19,17.19,0,0,1,2.9.24c.76.14,1.38.2,2.12.3.14,0,.18.1.18.22s-.06.4-.1,1.12,0,1.76-.06,2.06-.06.42-.18.42-.16-.14-.16-.42a2.77,2.77,0,0,0-.84-2,6.65,6.65,0,0,0-4-1.14c-2.66,0-3.9.78-4.6,1.46-1.46,1.4-1.8,3.18-1.8,5.22a7.22,7.22,0,0,0,7.22,7.32c1.5,0,2.68-.18,3.48-1a3.82,3.82,0,0,0,.74-1.68c0-.22.08-.3.2-.3s.14.14.14.3a20.73,20.73,0,0,1-.44,2.56c-.12.38-.16.42-.52.58a11.59,11.59,0,0,1-3.6.46C154.32,106.38,152.3,105.64,150.72,104.22Z" style="fill:#a11a23"/><path d="M166.28,96.78c0-3.12,0-3.68,0-4.32s-.2-1-.86-1.14a5,5,0,0,0-.58-.06c-.14,0-.26,0-.26-.12s.1-.16.32-.16c.46,0,1,0,2.26.06.14,0,4.12,0,4.58,0a3.3,3.3,0,0,0,.92-.12.49.49,0,0,1,.22-.08c.06,0,.08.08.08.18a8.66,8.66,0,0,0-.16.94c0,.3,0,.68-.08,1.2,0,.2-.08.34-.16.34s-.16-.1-.16-.26a2,2,0,0,0-.1-.66c-.14-.46-.56-.66-1.44-.74-.34,0-2.52-.06-2.74-.06s-.12.06-.12.2v5.52c0,.14,0,.2.12.2.26,0,2.72,0,3.18,0s.8-.1,1-.34.16-.2.24-.2.1,0,.1.16-.1.46-.16,1.12-.06,1.08-.08,1.36-.06.3-.14.3-.14-.16-.14-.32a1.83,1.83,0,0,0-.08-.56c-.08-.3-.32-.58-1-.66-.54-.06-2.52-.1-2.86-.1a.13.13,0,0,0-.14.14v1.76c0,.68,0,3,0,3.42,0,.82.16,1.26.66,1.46a4.82,4.82,0,0,0,1.66.18,6.63,6.63,0,0,0,1.8-.18c.64-.2.86-.62,1-1.48,0-.22.08-.3.18-.3s.12.16.12.3a19.43,19.43,0,0,1-.26,1.94c-.14.52-.3.52-1.08.52-1.48,0-2.14,0-2.92-.06s-1.72-.06-2.5-.06c-.48,0-1,.08-1.48.06-.22,0-.32,0-.32-.16s.1-.1.22-.12a2.63,2.63,0,0,0,.46-.06c.42-.1.68-.38.72-1.88,0-.78,0-1.8,0-3.58Z" style="fill:#a11a23"/><path d="M64.23,128.78c0-3.12,0-3.68,0-4.32s-.2-1-.86-1.14a3.82,3.82,0,0,0-.68-.06c-.08,0-.16,0-.16-.12s.1-.16.32-.16c.9,0,2.1.06,2.26.06.44,0,1.6-.06,2.52-.06,2.5,0,3.4.84,3.72,1.14a3.65,3.65,0,0,1,1,2.62,4.6,4.6,0,0,1-4.92,4.52,2.87,2.87,0,0,1-.42,0c-.1,0-.22,0-.22-.14s.12-.18.54-.18a3.3,3.3,0,0,0,3.46-3.42,4.13,4.13,0,0,0-1.12-2.92,3.47,3.47,0,0,0-2.74-1,2.46,2.46,0,0,0-.86.12c-.12,0-.16.18-.16.38v8.22c0,1.92,0,3.5.1,4.34.06.58.18,1,.78,1.1a8.74,8.74,0,0,0,.9.08c.12,0,.16.06.16.12s-.1.16-.32.16c-1.1,0-2.36-.06-2.46-.06s-1.32.06-1.92.06c-.22,0-.32,0-.32-.16s0-.12.16-.12a3.09,3.09,0,0,0,.6-.08c.4-.08.5-.52.58-1.1.1-.84.1-2.42.1-4.34Z" style="fill:#a11a23"/><path d="M76.65,128.78c0-3.12,0-3.68,0-4.32s-.2-1-.86-1.14a5,5,0,0,0-.58-.06c-.14,0-.26,0-.26-.12s.1-.16.32-.16c.46,0,1,0,2.26.06.14,0,4.12,0,4.58,0a3.3,3.3,0,0,0,.92-.12.49.49,0,0,1,.22-.08c.06,0,.08.08.08.18a8.66,8.66,0,0,0-.16.94c0,.3,0,.68-.08,1.2,0,.2-.08.34-.16.34s-.16-.1-.16-.26a2,2,0,0,0-.1-.66c-.14-.46-.56-.66-1.44-.74-.34,0-2.52-.06-2.74-.06s-.12.06-.12.2v5.52c0,.14,0,.2.12.2.26,0,2.72,0,3.18,0s.8-.1,1-.34.16-.2.24-.2.1,0,.1.16-.1.46-.16,1.12-.06,1.08-.08,1.36-.06.3-.14.3-.14-.16-.14-.32a1.83,1.83,0,0,0-.08-.56c-.08-.3-.32-.58-1-.66-.54-.06-2.52-.1-2.86-.1a.13.13,0,0,0-.14.14v1.76c0,.68,0,3,0,3.42,0,.82.16,1.26.66,1.46a4.82,4.82,0,0,0,1.66.18,6.63,6.63,0,0,0,1.8-.18c.64-.2.86-.62,1-1.48,0-.22.08-.3.18-.3s.12.16.12.3a19.43,19.43,0,0,1-.26,1.94c-.14.52-.3.52-1.08.52-1.48,0-2.14,0-2.92-.06S77.79,138,77,138c-.48,0-1,.08-1.48.06-.22,0-.32,0-.32-.16s.1-.1.22-.12a2.63,2.63,0,0,0,.46-.06c.42-.1.68-.38.72-1.88,0-.78,0-1.8,0-3.58Z" style="fill:#a11a23"/><path d="M86.57,130.52a7.74,7.74,0,0,1,7.88-7.82c4.5,0,7.86,2.84,7.86,7.5a7.85,7.85,0,0,1-8,8.18C88.85,138.38,86.57,134.12,86.57,130.52Zm13.82.24c0-4.8-2.92-7.38-6.08-7.38-3.34,0-5.84,2.2-5.84,6.58,0,4.66,2.8,7.66,6.4,7.66C96.67,137.62,100.39,136.58,100.39,130.76Z" style="fill:#a11a23"/><path d="M106.85,128.78c0-3.12,0-3.68,0-4.32s-.2-1-.86-1.14a3.82,3.82,0,0,0-.68-.06c-.08,0-.16,0-.16-.12s.1-.16.32-.16c.9,0,2.1.06,2.26.06.44,0,1.6-.06,2.52-.06,2.5,0,3.4.84,3.72,1.14a3.65,3.65,0,0,1,1,2.62,4.6,4.6,0,0,1-4.92,4.52,2.87,2.87,0,0,1-.42,0c-.1,0-.22,0-.22-.14s.12-.18.54-.18a3.3,3.3,0,0,0,3.46-3.42,4.13,4.13,0,0,0-1.12-2.92,3.47,3.47,0,0,0-2.74-1,2.46,2.46,0,0,0-.86.12c-.12,0-.16.18-.16.38v8.22c0,1.92,0,3.5.1,4.34.06.58.18,1,.78,1.1a8.74,8.74,0,0,0,.9.08c.12,0,.16.06.16.12s-.1.16-.32.16c-1.1,0-2.36-.06-2.46-.06s-1.32.06-1.92.06c-.22,0-.32,0-.32-.16s0-.12.16-.12a3.09,3.09,0,0,0,.6-.08c.4-.08.5-.52.58-1.1.1-.84.1-2.42.1-4.34Z" style="fill:#a11a23"/><path d="M120.95,132.34c0,2.94.08,4.22.44,4.58s.84.46,2.4.46c1.06,0,1.94,0,2.42-.6a2.78,2.78,0,0,0,.52-1.2c0-.16.06-.26.18-.26s.12.08.12.3a12.74,12.74,0,0,1-.3,2c-.14.46-.2.54-1.26.54-1.72,0-3.42-.12-5.36-.12-.62,0-1.22.06-2,.06-.22,0-.32,0-.32-.16s0-.12.16-.12a3.09,3.09,0,0,0,.6-.08c.4-.08.5-.52.58-1.1.1-.84.1-2.42.1-4.34v-3.52c0-3.12,0-3.68,0-4.32s-.2-1-.86-1.14a3.82,3.82,0,0,0-.68-.06c-.08,0-.16,0-.16-.12s.1-.16.32-.16c.9,0,2.16.06,2.26.06s1.56-.06,2.16-.06c.22,0,.32,0,.32.16s-.08.12-.16.12a4.83,4.83,0,0,0-.66.06c-.58.1-.74.44-.78,1.14s0,1.2,0,4.32Z" style="fill:#a11a23"/><path d="M130.87,128.78c0-3.12,0-3.68,0-4.32s-.2-1-.86-1.14a5,5,0,0,0-.58-.06c-.14,0-.26,0-.26-.12s.1-.16.32-.16c.46,0,1,0,2.26.06.14,0,4.12,0,4.58,0a3.3,3.3,0,0,0,.92-.12.49.49,0,0,1,.22-.08c.06,0,.08.08.08.18a8.66,8.66,0,0,0-.16.94c0,.3,0,.68-.08,1.2,0,.2-.08.34-.16.34s-.16-.1-.16-.26a2,2,0,0,0-.1-.66c-.14-.46-.56-.66-1.44-.74-.34,0-2.52-.06-2.74-.06s-.12.06-.12.2v5.52c0,.14,0,.2.12.2.26,0,2.72,0,3.18,0s.8-.1,1-.34.16-.2.24-.2.1,0,.1.16-.1.46-.16,1.12-.06,1.08-.08,1.36-.06.3-.14.3-.14-.16-.14-.32a1.83,1.83,0,0,0-.08-.56c-.08-.3-.32-.58-1-.66-.54-.06-2.52-.1-2.86-.1a.13.13,0,0,0-.14.14v1.76c0,.68,0,3,0,3.42,0,.82.16,1.26.66,1.46a4.82,4.82,0,0,0,1.66.18,6.63,6.63,0,0,0,1.8-.18c.64-.2.86-.62,1-1.48,0-.22.08-.3.18-.3s.12.16.12.3a19.43,19.43,0,0,1-.26,1.94c-.14.52-.3.52-1.08.52-1.48,0-2.14,0-2.92-.06s-1.72-.06-2.5-.06c-.48,0-1,.08-1.48.06-.22,0-.32,0-.32-.16s.1-.1.22-.12a2.63,2.63,0,0,0,.46-.06c.42-.1.68-.38.72-1.88,0-.78,0-1.8,0-3.58Z" style="fill:#a11a23"/><path d="M77.75,194.28c0-3.12,0-3.68,0-4.32s-.14-1-.8-1.14a3.83,3.83,0,0,0-.68-.06c-.14,0-.22,0-.22-.12s.1-.16.32-.16c.9,0,2.16.06,2.26.06s1.5-.06,2.7-.06c2,0,5.64-.18,8,2.28a7.15,7.15,0,0,1,1.94,5.08,8.17,8.17,0,0,1-2.16,5.64,8,8,0,0,1-6.06,2.3c-.86,0-1.92-.06-2.78-.12l-1.66-.12-.8,0c-.4,0-.86,0-1.16,0s-.32,0-.32-.16,0-.12.2-.12a4.27,4.27,0,0,0,.56-.08c.4-.08.5-.52.58-1.1.1-.84.1-2.42.1-4.34Zm1.68,2.16c0,2.12,0,4,0,4.34a4.35,4.35,0,0,0,.22,1.52c.26.38,1,.8,3.4.8a6.71,6.71,0,0,0,4.76-1.86,7,7,0,0,0,1.6-4.78,7.16,7.16,0,0,0-1.92-5c-1.88-2-4.16-2.26-6.54-2.26a5.35,5.35,0,0,0-1.3.14.36.36,0,0,0-.24.4c0,.68,0,2.72,0,4.26Z" style="fill:#e8e8e8"/><path d="M96.33,198.72a.21.21,0,0,0-.2.16l-.88,2.5a5,5,0,0,0-.34,1.42c0,.36.22.52.66.52h.14c.18,0,.24.06.24.14s-.16.14-.3.14c-.44,0-1.36-.06-1.58-.06s-1.08.06-1.92.06c-.22,0-.32,0-.32-.14s.08-.14.24-.14a2.75,2.75,0,0,0,.4,0c.86-.08,1.2-.74,1.54-1.58l4-10.54c.22-.58.28-.68.42-.68s.18.08.4.64,3,7.64,4.06,10.14c.66,1.58,1.24,1.84,1.52,1.94a1.9,1.9,0,0,0,.68.1c.14,0,.24,0,.24.14s-.08.14-.3.14-1.7,0-3,0c-.38,0-.5,0-.5-.14a.17.17,0,0,1,.14-.14c.08,0,.2-.14.08-.44l-1.58-4a.18.18,0,0,0-.16-.1Zm3.4-.7c.08,0,.08-.06.06-.12l-1.58-4.42c-.1-.28-.12-.28-.22,0l-1.5,4.42c0,.08,0,.12,0,.12Z" style="fill:#e8e8e8"/><path d="M109.41,198.71c0,2.3.08,3.46.42,3.78s.72.4,2.1.4c.88,0,1.68,0,2.12-.56a2.57,2.57,0,0,0,.38-1c0-.16.06-.24.16-.24s.12.06.12.26a12.83,12.83,0,0,1-.24,1.8c-.12.4-.1.5-1.06.5-1.36,0-2.86-.1-4.86-.1-.66,0-1.06.06-1.76.06-.2,0-.32,0-.32-.16s.06-.12.22-.12a2,2,0,0,0,.48,0c.34-.06.46-.46.52-.94a32.16,32.16,0,0,0,.08-3.68v-3c0-2.64,0-3.08,0-3.62s-.12-.92-.8-1a4,4,0,0,0-.5,0c-.14,0-.22-.06-.22-.14s.1-.14.3-.14c.84,0,2,.06,2.08.06.28,0,1.5-.06,2.06-.06.2,0,.26.06.26.14s-.1.14-.22.14-.34,0-.54,0c-.56.08-.68.4-.72,1s0,1,0,3.62Z" style="fill:#e8e8e8"/><path d="M118.25,195.66c0-2.62,0-3.1,0-3.64s-.18-.84-.76-1a3.25,3.25,0,0,0-.48,0c-.14,0-.26-.06-.26-.12s.1-.16.3-.16c.4,0,.94,0,2.06.06.1,0,3.66,0,4.06,0a2.85,2.85,0,0,0,.78-.1.61.61,0,0,1,.22-.06s.08,0,.08.14-.12.4-.16.9c0,.34,0,.66-.06,1,0,.18,0,.3-.14.3s-.14-.08-.14-.22a1.91,1.91,0,0,0-.14-.64c-.12-.4-.3-.54-1.3-.6-.26,0-2.24,0-2.28,0s-.1,0-.1.16v4.54c0,.12,0,.2.12.2s2.28,0,2.7-.06.76-.08.92-.3.14-.16.22-.16.08,0,.08.12-.08.48-.14,1.06-.06,1-.08,1.22-.06.22-.14.22-.12-.12-.12-.26a2.24,2.24,0,0,0-.06-.48c-.08-.26-.2-.54-1-.6-.46,0-2.08-.08-2.4-.08-.12,0-.14.06-.14.14v1.46c0,.62,0,2.38,0,2.72,0,.74.14,1.12.56,1.3a3.81,3.81,0,0,0,1.46.18,5.94,5.94,0,0,0,1.52-.12c.6-.18.74-.58.9-1.32,0-.2.1-.28.18-.28s.12.18.12.3-.16,1.4-.22,1.74-.22.44-.88.44c-1.32,0-1.88,0-2.58,0s-1.62-.06-2.36-.06c-.46,0-.84.06-1.32.06-.18,0-.28,0-.28-.14s.08-.14.18-.14a1.5,1.5,0,0,0,.4-.06c.36-.08.6-.34.64-1.58,0-.68,0-1.5,0-3Z" style="fill:#e8e8e8"/><path d="M51.85,233.73a7.66,7.66,0,0,1-2.42-5.92,8,8,0,0,1,2.24-5.46c1.2-1.2,3-2.14,6.1-2.14a17.19,17.19,0,0,1,2.9.24c.76.14,1.38.2,2.12.3.14,0,.18.1.18.22s-.06.4-.1,1.12,0,1.76-.06,2.06-.06.42-.18.42-.16-.14-.16-.42a2.77,2.77,0,0,0-.84-2,6.65,6.65,0,0,0-4-1.14c-2.66,0-3.9.78-4.6,1.46-1.46,1.4-1.8,3.18-1.8,5.22A7.22,7.22,0,0,0,58.45,235c1.5,0,2.68-.18,3.48-1a3.82,3.82,0,0,0,.74-1.68c0-.22.08-.3.2-.3s.14.14.14.3a20.73,20.73,0,0,1-.44,2.56c-.12.38-.16.42-.52.58a11.59,11.59,0,0,1-3.6.46C55.45,235.89,53.43,235.15,51.85,233.73Z" style="fill:#e8e8e8"/><path d="M68.83,230.72a.21.21,0,0,0-.2.16l-.88,2.5a5,5,0,0,0-.34,1.42c0,.36.22.52.66.52h.14c.18,0,.24.06.24.14s-.16.14-.3.14c-.44,0-1.36-.06-1.58-.06s-1.08.06-1.92.06c-.22,0-.32,0-.32-.14s.08-.14.24-.14a2.75,2.75,0,0,0,.4,0c.86-.08,1.2-.74,1.54-1.58l4-10.54c.22-.58.28-.68.42-.68s.18.08.4.64,3,7.64,4.06,10.14c.66,1.58,1.24,1.84,1.52,1.94a1.9,1.9,0,0,0,.68.1c.14,0,.24,0,.24.14s-.08.14-.3.14-1.7,0-3,0c-.38,0-.5,0-.5-.14a.17.17,0,0,1,.14-.14c.08,0,.2-.14.08-.44l-1.58-4a.18.18,0,0,0-.16-.1Zm3.4-.7c.08,0,.08-.06.06-.12l-1.58-4.42c-.1-.28-.12-.28-.22,0L69,229.9c0,.08,0,.12,0,.12Z" style="fill:#e8e8e8"/><path d="M80.29,227.66c0-2.64,0-3.12,0-3.66s-.18-.84-.8-1a3.39,3.39,0,0,0-.48,0c-.14,0-.22,0-.22-.12s.06-.14.24-.14c.86,0,2.08.06,2.12.06s1.54-.06,2.1-.06a5.66,5.66,0,0,1,3.28.76,3,3,0,0,1,1.2,2.44,5,5,0,0,1-2.12,3.78c1.46,1.8,2.66,3.28,3.68,4.34a3.35,3.35,0,0,0,2.12,1.22c.14,0,.56,0,.62,0s.22.06.22.14-.08.14-.36.14h-1.4a4.49,4.49,0,0,1-1.82-.24c-.84-.36-1.44-1.26-2.48-2.6-.78-1-1.58-2-1.92-2.46a.29.29,0,0,0-.24-.12l-2.06,0c-.08,0-.1,0-.1.1v.28a37.67,37.67,0,0,0,.1,3.78c.06.48.12.88.78,1,.2,0,.42,0,.58,0s.26.06.26.12-.08.16-.28.16c-1,0-2.16-.06-2.24-.06-.32,0-1.2.06-1.74.06-.2,0-.28,0-.28-.16s.12-.12.24-.12a1.72,1.72,0,0,0,.44,0c.34-.06.46-.28.52-.76.1-.72.08-2.36.08-3.86Zm1.54,1.42a.25.25,0,0,0,.1.24,5.12,5.12,0,0,0,1.78.26,2.35,2.35,0,0,0,1.34-.3,2.89,2.89,0,0,0,1-2.54c0-2.18-1.16-3.38-2.94-3.38a5.41,5.41,0,0,0-1.16.1.18.18,0,0,0-.12.18Z" style="fill:#e8e8e8"/><path d="M93.07,223.32c0-.62.06-.82.22-.82s.48.4.62.54,3,3,5.76,5.9c1.56,1.52,3.56,3.58,4.08,4.06l-.22-8.32c0-1.08-.14-1.44-.68-1.58a5,5,0,0,0-.78-.08c-.2,0-.24-.08-.24-.16s.16-.12.36-.12c.86,0,1.7.06,1.88.06s.82-.06,1.6-.06c.22,0,.28,0,.28.12s-.06.14-.18.16-.28,0-.5.06c-.46.1-.6.3-.6,1.5l0,10c0,1,0,1.1-.18,1.1s-.34-.14-1.32-1.06c-.08,0-2.86-2.8-4.6-4.5l-4.58-4.76.26,7.82c0,1.38.16,1.9.66,2a3.45,3.45,0,0,0,.82.08c.16,0,.24.06.24.14s-.1.14-.32.14c-1.08,0-1.8-.06-1.94-.06s-.88.06-1.74.06c-.18,0-.3,0-.3-.14s.08-.14.28-.14a2,2,0,0,0,.62-.08c.44-.14.54-.68.54-2.14C93.07,223.56,93.09,226.64,93.07,223.32Z" style="fill:#e8e8e8"/><path d="M110.39,227.66c0-2.62,0-3.1,0-3.64s-.18-.84-.76-1a3.25,3.25,0,0,0-.48,0c-.14,0-.26-.06-.26-.12s.1-.16.3-.16c.4,0,.94,0,2.06.06.1,0,3.66,0,4.06,0a2.85,2.85,0,0,0,.78-.1.61.61,0,0,1,.22-.06s.08,0,.08.14-.12.4-.16.9c0,.34,0,.66-.06,1,0,.18,0,.3-.14.3s-.14-.08-.14-.22a1.91,1.91,0,0,0-.14-.64c-.12-.4-.3-.54-1.3-.6-.26,0-2.24,0-2.28,0s-.1,0-.1.16v4.54c0,.12,0,.2.12.2s2.28,0,2.7-.06.76-.08.92-.3.14-.16.22-.16.08,0,.08.12-.08.48-.14,1.06-.06,1-.08,1.22-.06.22-.14.22-.12-.12-.12-.26a2.24,2.24,0,0,0-.06-.48c-.08-.26-.2-.54-1-.6-.46,0-2.08-.08-2.4-.08-.12,0-.14.06-.14.14v1.46c0,.62,0,2.38,0,2.72,0,.74.14,1.12.56,1.3a3.81,3.81,0,0,0,1.46.18,5.94,5.94,0,0,0,1.52-.12c.6-.18.74-.58.9-1.32,0-.2.1-.28.18-.28s.12.18.12.3-.16,1.4-.22,1.74-.22.44-.88.44c-1.32,0-1.88,0-2.58,0s-1.62-.06-2.36-.06c-.46,0-.84.06-1.32.06-.18,0-.28,0-.28-.14s.08-.14.18-.14a1.5,1.5,0,0,0,.4-.06c.36-.08.6-.34.64-1.58,0-.68,0-1.5,0-3Z" style="fill:#e8e8e8"/><path d="M131.17,234.13c0,.8,0,.82-.24.94a10,10,0,0,1-9.54-1,6.31,6.31,0,0,1-2.16-4.86,6.4,6.4,0,0,1,3-5.64,8.75,8.75,0,0,1,4.46-1,15.52,15.52,0,0,1,2.86.28,15.16,15.16,0,0,0,1.52.18c.16,0,.16.08.16.16a22.32,22.32,0,0,0-.14,2.6c0,.28,0,.36-.16.36s-.12-.12-.14-.24a2.61,2.61,0,0,0-.38-1.24c-.46-.66-1.9-1.4-4.14-1.4a5.5,5.5,0,0,0-3.68,1.06,5.27,5.27,0,0,0-1.68,4.28,6.93,6.93,0,0,0,1.82,4.64,6.22,6.22,0,0,0,4.54,1.86,5,5,0,0,0,1.9-.34.67.67,0,0,0,.34-.6v-2.88c0-1.32-.1-1.58-.8-1.68a3.25,3.25,0,0,0-.48,0c-.16,0-.24-.08-.24-.14s.08-.14.3-.14c.8,0,2,0,2,0s1.26,0,1.8,0c.2,0,.28,0,.28.14s-.06.14-.24.14a2.11,2.11,0,0,0-.34,0c-.48.06-.6.42-.64,1s0,1.08,0,1.8Z" style="fill:#e8e8e8"/><path d="M136.45,227.66c0-2.64,0-3.12,0-3.66s-.16-.84-.58-.92c-.2,0-.34,0-.46-.06s-.22-.06-.22-.14.08-.14.3-.14c.62,0,1.76.06,1.82.06s1.24-.06,1.8-.06c.2,0,.3,0,.3.14s-.06.12-.22.14l-.36,0c-.58.08-.64.38-.68,1s0,1,0,3.64v3c0,1.54,0,2.94.08,3.66s.16.8.68.92a4.67,4.67,0,0,0,.76.08c.18,0,.22.06.22.14s-.08.14-.28.14c-1,0-2.18-.06-2.28-.06s-1.24.06-1.8.06c-.18,0-.32,0-.32-.14s.08-.14.26-.14a2.41,2.41,0,0,0,.48-.06c.34-.08.4-.48.46-1a35.65,35.65,0,0,0,.1-3.64Z" style="fill:#e8e8e8"/><path d="M144.29,227.66c0-2.62,0-3.1,0-3.64s-.18-.84-.76-1a3.25,3.25,0,0,0-.48,0c-.14,0-.26-.06-.26-.12s.1-.16.3-.16c.4,0,.94,0,2.06.06.1,0,3.66,0,4.06,0a2.85,2.85,0,0,0,.78-.1.61.61,0,0,1,.22-.06s.08,0,.08.14-.12.4-.16.9c0,.34,0,.66-.06,1,0,.18,0,.3-.14.3s-.14-.08-.14-.22a1.91,1.91,0,0,0-.14-.64c-.12-.4-.3-.54-1.3-.6-.26,0-2.24,0-2.28,0s-.1,0-.1.16v4.54c0,.12,0,.2.12.2s2.28,0,2.7-.06.76-.08.92-.3.14-.16.22-.16.08,0,.08.12-.08.48-.14,1.06-.06,1-.08,1.22-.06.22-.14.22-.12-.12-.12-.26a2.24,2.24,0,0,0-.06-.48c-.08-.26-.2-.54-1-.6-.46,0-2.08-.08-2.4-.08-.12,0-.14.06-.14.14v1.46c0,.62,0,2.38,0,2.72,0,.74.14,1.12.56,1.3a3.81,3.81,0,0,0,1.46.18,5.94,5.94,0,0,0,1.52-.12c.6-.18.74-.58.9-1.32,0-.2.1-.28.18-.28s.12.18.12.3-.16,1.4-.22,1.74-.22.44-.88.44c-1.32,0-1.88,0-2.58,0s-1.62-.06-2.36-.06c-.46,0-.84.06-1.32.06-.18,0-.28,0-.28-.14s.08-.14.18-.14a1.5,1.5,0,0,0,.4-.06c.36-.08.6-.34.64-1.58,0-.68,0-1.5,0-3Z" style="fill:#e8e8e8"/><polygon points="164.33 151.98 165.72 150.26 166.82 152.18 168.47 150.7 169.26 152.76 171.11 151.56 171.57 153.72 173.59 152.82 173.71 155.03 175.84 154.46 175.61 156.66 177.81 156.42 177.24 158.56 179.44 158.67 178.54 160.69 180.71 161.15 179.5 163.01 181.56 163.8 180.09 165.44 182 166.55 180.28 167.94 182 169.33 180.09 170.43 181.56 172.08 179.5 172.87 180.71 174.72 178.54 175.18 179.44 177.2 177.24 177.32 177.81 179.45 175.61 179.22 175.84 181.42 173.71 180.85 173.59 183.05 171.57 182.15 171.11 184.32 169.26 183.11 168.47 185.18 166.82 183.7 165.72 185.61 164.33 183.89 162.94 185.61 161.83 183.7 160.19 185.18 159.4 183.11 157.54 184.32 157.08 182.15 155.06 183.05 154.95 180.85 152.81 181.42 153.04 179.22 150.84 179.45 151.42 177.32 149.21 177.2 150.11 175.18 147.95 174.72 149.15 172.87 147.09 172.08 148.57 170.43 146.65 169.33 148.37 167.94 146.65 166.55 148.57 165.44 147.09 163.8 149.15 163.01 147.95 161.15 150.11 160.69 149.21 158.67 151.42 158.56 150.84 156.42 153.04 156.66 152.81 154.46 154.95 155.03 155.06 152.82 157.08 153.72 157.54 151.56 159.4 152.76 160.19 150.7 161.83 152.18 162.94 150.26 164.33 151.98" style="fill:#1c97c8"/></svg>