<?xml version="1.0" encoding="utf-8"?>
<!-- Generator: Adobe Illustrator 21.0.0, SVG Export Plug-In . SVG Version: 6.00 Build 0)  -->
<svg version="1.1" id="Layer_1" xmlns="http://www.w3.org/2000/svg" xmlns:xlink="http://www.w3.org/1999/xlink" x="0px" y="0px"
	 viewBox="0 0 200 260" style="enable-background:new 0 0 200 260;" xml:space="preserve">
<style type="text/css">
	.st0{fill:#FFFFFF;}
	.st1{fill:#A49260;}
	.st2{fill:#036AAF;}
	.st3{fill:#DA2721;}
</style>
<title>book-4dx</title>
<rect class="st0" width="199.6" height="260"/>
<rect class="st1" width="199.6" height="31.2"/>
<path class="st2" d="M47.2,180.9c-0.4,0-0.8-0.1-1.2-0.2c-0.4-0.2-0.7-0.4-1-0.7c-0.3-0.3-0.5-0.7-0.7-1.1c-0.2-0.5-0.3-1-0.3-1.5
	c0-0.5,0.1-1,0.2-1.5c0.2-0.4,0.4-0.8,0.7-1.2c0.3-0.3,0.6-0.6,1-0.8c0.4-0.2,0.8-0.3,1.3-0.3c0.3,0,0.6,0,0.9,0.1
	c0.3,0.1,0.5,0.2,0.8,0.4l0.2-0.3h0.4v2.5h-0.4c-0.1-0.3-0.1-0.5-0.2-0.8c-0.1-0.3-0.2-0.5-0.4-0.7c-0.1-0.2-0.3-0.4-0.6-0.5
	c-0.2-0.1-0.5-0.2-0.7-0.2c-0.3,0-0.6,0.1-0.9,0.2c-0.3,0.1-0.5,0.4-0.7,0.6c-0.2,0.3-0.4,0.6-0.4,1c-0.1,0.4-0.2,0.9-0.2,1.4
	c0,0.4,0.1,0.8,0.2,1.2c0.1,0.4,0.3,0.7,0.5,1c0.2,0.3,0.4,0.5,0.7,0.6c0.3,0.2,0.7,0.2,1,0.2c0.2,0,0.5,0,0.7-0.1
	c0.2-0.1,0.4-0.2,0.6-0.3c0.2-0.1,0.3-0.3,0.4-0.5c0.1-0.2,0.2-0.4,0.3-0.6L50,179C49.6,180.2,48.5,181,47.2,180.9L47.2,180.9z"/>
<path class="st2" d="M59.3,180.8h-1.9c-0.4-0.7-0.8-1.2-1.1-1.7c-0.3-0.5-0.7-0.9-1.1-1.5h-0.7v2.2c0,0.1,0,0.2,0,0.3
	c0,0.1,0.1,0.2,0.2,0.2c0.1,0,0.2,0.1,0.3,0.1h0.4v0.4h-2.9v-0.4H53c0.1,0,0.2,0,0.3-0.1c0.1,0,0.2-0.1,0.2-0.2
	c0-0.1,0.1-0.2,0.1-0.3v-5c0-0.1,0-0.2,0-0.3c0-0.1-0.1-0.2-0.2-0.2l-0.3-0.1h-0.3v-0.4h3.2c0.3,0,0.6,0,0.8,0.1
	c0.2,0.1,0.5,0.2,0.7,0.3c0.2,0.1,0.4,0.3,0.5,0.5c0.1,0.2,0.2,0.5,0.2,0.8c0,0.2,0,0.5-0.1,0.7c-0.1,0.2-0.2,0.4-0.4,0.5
	c-0.2,0.1-0.3,0.3-0.5,0.4c-0.2,0.1-0.4,0.2-0.7,0.3l0.8,1.1l0.8,1.1c0.1,0.2,0.2,0.3,0.4,0.4c0.1,0.1,0.2,0.2,0.3,0.2
	c0.1,0,0.2,0.1,0.3,0.1h0.3L59.3,180.8z M56.8,175.6c0.1-0.7-0.4-1.3-1.1-1.4c-0.1,0-0.2,0-0.2,0h-0.8v3h0.6c0.8,0,1.5-0.6,1.6-1.4
	C56.8,175.7,56.8,175.7,56.8,175.6L56.8,175.6z"/>
<path class="st2" d="M64.7,180.8h-3.1v-0.4h0.4c0.1,0,0.2,0,0.3-0.1c0.1,0,0.2-0.1,0.2-0.2c0.1-0.1,0.1-0.2,0.1-0.3v-5
	c0-0.1,0-0.2,0-0.3c-0.1-0.1-0.1-0.2-0.2-0.2l-0.4-0.1l-0.4-0.1v-0.4h3.1v0.4h-0.4c-0.1,0-0.2,0-0.4,0.1c-0.1,0-0.2,0.1-0.2,0.2
	c0,0.1-0.1,0.2-0.1,0.3v5c0,0.1,0,0.2,0.1,0.3c0.1,0.1,0.1,0.2,0.2,0.2l0.3,0.1c0.1,0,0.3,0,0.4,0.1L64.7,180.8z"/>
<path class="st2" d="M71.8,177.6c0.1,0.2,0.3,0.3,0.3,0.5c0.1,0.2,0.1,0.4,0.1,0.7c0,0.6-0.2,1.1-0.7,1.5c-0.5,0.4-1.1,0.6-1.7,0.6
	c-0.3,0-0.6,0-0.9-0.1c-0.3-0.1-0.5-0.2-0.8-0.4l-0.2,0.4h-0.4l-0.1-2.4h0.4c0.1,0.3,0.2,0.5,0.3,0.8c0.1,0.2,0.3,0.5,0.4,0.7
	c0.2,0.2,0.4,0.3,0.6,0.5c0.2,0.1,0.5,0.2,0.8,0.2c0.2,0,0.4,0,0.6-0.1c0.2,0,0.3-0.1,0.4-0.2c0.1-0.1,0.2-0.2,0.2-0.4
	c0.1-0.2,0.1-0.3,0.1-0.5c0-0.3-0.1-0.5-0.2-0.8c-0.2-0.3-0.4-0.4-0.7-0.6l-0.7-0.3c-0.3-0.1-0.5-0.2-0.7-0.3
	c-0.4-0.2-0.7-0.4-0.9-0.7c-0.2-0.3-0.3-0.7-0.3-1.1c0-0.3,0.1-0.5,0.2-0.7c0.1-0.2,0.3-0.4,0.5-0.6c0.2-0.2,0.4-0.3,0.7-0.4
	c0.3-0.1,0.5-0.1,0.8-0.1c0.3,0,0.6,0,0.9,0.1c0.2,0.1,0.5,0.2,0.7,0.3l0.2-0.3h0.4v2.3h-0.4c-0.1-0.3-0.2-0.5-0.2-0.8
	c-0.1-0.2-0.2-0.5-0.3-0.6c-0.1-0.2-0.3-0.3-0.5-0.4c-0.2-0.1-0.5-0.2-0.7-0.2c-0.3,0-0.6,0.1-0.8,0.3c-0.2,0.2-0.3,0.5-0.3,0.7
	c0,0.3,0.1,0.5,0.2,0.7c0.2,0.2,0.4,0.4,0.6,0.5c0.2,0.1,0.5,0.2,0.7,0.3l0.7,0.3c0.2,0.1,0.4,0.2,0.6,0.3
	C71.5,177.3,71.7,177.4,71.8,177.6z"/>
<path class="st2" d="M87.9,180.8h-3.1v-0.4h0.4c0.1,0,0.2,0,0.4-0.1c0.1-0.1,0.2-0.1,0.2-0.2c0-0.1,0.1-0.2,0.1-0.3v-5h-0.1
	l-2.4,5.9h-0.2l-2.2-6h-0.1v4.1c0,0.3,0,0.6,0.1,0.9c0,0.2,0.1,0.3,0.2,0.4c0.1,0.1,0.3,0.2,0.4,0.2c0.1,0,0.3,0.1,0.4,0.1v0.4h-2.8
	v-0.4c0.2,0,0.3,0,0.5-0.1c0.1,0,0.3-0.1,0.4-0.2c0.1-0.1,0.2-0.3,0.2-0.4c0.1-0.3,0.1-0.6,0.1-0.9v-3.5c0-0.2,0-0.3-0.1-0.5
	c0-0.1-0.1-0.2-0.2-0.3c-0.1-0.1-0.2-0.2-0.4-0.2c-0.1,0-0.3-0.1-0.4-0.1v-0.4h2.4l2,5.2l1.7-4.4c0.1-0.2,0.1-0.3,0.2-0.5
	c0-0.1,0.1-0.2,0.1-0.4h2.3v0.4h-0.3l-0.3,0.1c-0.1,0-0.2,0.1-0.2,0.2c0,0.1-0.1,0.2-0.1,0.3v5c0,0.1,0,0.2,0.1,0.3
	c0,0.1,0.1,0.2,0.2,0.2c0.1,0,0.2,0.1,0.3,0.1h0.4L87.9,180.8z"/>
<path class="st2" d="M92.9,180.9c-0.6,0-1.2-0.2-1.6-0.7c-0.6-0.8-0.7-1.9-0.4-2.8c0.1-0.3,0.3-0.6,0.5-0.8c0.2-0.2,0.4-0.4,0.7-0.6
	c0.3-0.1,0.6-0.2,0.9-0.2c0.4,0,0.8,0.1,1.2,0.3c0.3,0.2,0.5,0.6,0.4,0.9c0,0.2,0,0.3-0.1,0.4c-0.1,0.1-0.2,0.2-0.4,0.2
	c-0.2,0-0.3,0-0.4-0.1c-0.1-0.1-0.2-0.2-0.2-0.3c0-0.2,0-0.3,0.1-0.4c0-0.1,0.1-0.2,0.1-0.3c-0.1-0.1-0.2-0.2-0.3-0.2
	c-0.1,0-0.2-0.1-0.4-0.1c-0.2,0-0.3,0-0.4,0.1c-0.2,0.1-0.3,0.2-0.4,0.4c-0.1,0.2-0.2,0.4-0.3,0.7c-0.1,0.3-0.1,0.7-0.1,1
	c0,0.5,0.1,1,0.4,1.5c0.2,0.4,0.6,0.6,1.1,0.6c0.3,0,0.6-0.1,0.8-0.2c0.2-0.2,0.4-0.4,0.6-0.7l0.3,0.2c-0.2,0.4-0.5,0.7-0.8,0.9
	C93.7,180.7,93.3,180.9,92.9,180.9z"/>
<path class="st2" d="M100.4,180.9c-0.4,0-0.8-0.1-1.2-0.2c-0.4-0.2-0.7-0.4-1-0.7c-0.3-0.3-0.5-0.7-0.7-1.1c-0.2-0.5-0.3-1-0.3-1.5
	c0-0.5,0.1-1,0.2-1.5c0.2-0.4,0.4-0.8,0.7-1.2c0.3-0.3,0.6-0.6,1-0.8c0.4-0.2,0.8-0.3,1.3-0.3c0.3,0,0.6,0,0.9,0.1
	c0.3,0.1,0.5,0.2,0.8,0.4l0.2-0.3h0.4v2.5h-0.4c-0.1-0.3-0.1-0.5-0.2-0.8c-0.1-0.3-0.2-0.5-0.4-0.7c-0.1-0.2-0.3-0.4-0.6-0.5
	c-0.2-0.1-0.5-0.2-0.7-0.2c-0.3,0-0.6,0.1-0.9,0.2c-0.3,0.1-0.5,0.4-0.7,0.6c-0.2,0.3-0.4,0.6-0.4,1c-0.1,0.4-0.2,0.9-0.2,1.4
	c0,0.4,0.1,0.8,0.2,1.2c0.1,0.4,0.3,0.7,0.5,1c0.2,0.3,0.4,0.5,0.7,0.6c0.3,0.2,0.7,0.2,1,0.2c0.2,0,0.5,0,0.7-0.1
	c0.2-0.1,0.4-0.2,0.6-0.3c0.2-0.1,0.3-0.3,0.4-0.5c0.1-0.2,0.2-0.4,0.3-0.6l0.4,0.2C102.7,180.2,101.6,181,100.4,180.9L100.4,180.9z
	"/>
<path class="st2" d="M112.9,180.8h-2.9v-0.4h0.3c0.1,0,0.2,0,0.3-0.1c0.1,0,0.2-0.1,0.2-0.2c0.1-0.1,0.1-0.2,0.1-0.3v-2.5h-3.3v2.4
	c0,0.1,0,0.2,0.1,0.3c0,0.1,0.1,0.2,0.2,0.2c0.1,0,0.2,0.1,0.3,0.1h0.3v0.4h-2.9v-0.4h0.3c0.1,0,0.2,0,0.3-0.1
	c0.1,0,0.2-0.1,0.2-0.2c0.1-0.1,0.1-0.2,0.1-0.3v-5c0-0.1,0-0.2-0.1-0.3c0-0.1-0.1-0.2-0.2-0.2c-0.1,0-0.2-0.1-0.3-0.1l-0.3-0.1
	v-0.4h2.9v0.4h-0.3l-0.3,0.1c-0.1,0-0.2,0.1-0.2,0.2c0,0.1-0.1,0.2-0.1,0.3v2.1h3.3v-2.1c0-0.1,0-0.2-0.1-0.3c0-0.1-0.1-0.2-0.2-0.2
	c-0.1,0-0.2-0.1-0.3-0.1l-0.3-0.1v-0.4h2.9v0.4h-0.3l-0.3,0.1c-0.1,0-0.2,0.1-0.2,0.2c0,0.1-0.1,0.2-0.1,0.3v5c0,0.1,0,0.2,0.1,0.3
	c0,0.1,0.1,0.2,0.2,0.2c0.1,0,0.2,0.1,0.3,0.1h0.3L112.9,180.8z"/>
<path class="st2" d="M121.8,178.7l-0.1,2h-5.8v-0.4h0.4c0.1,0,0.2,0,0.3-0.1c0.1,0,0.2-0.1,0.2-0.2c0-0.1,0.1-0.2,0.1-0.3v-5
	c0-0.1,0-0.2-0.1-0.3c0-0.1-0.1-0.2-0.2-0.2c-0.1,0-0.2-0.1-0.3-0.1l-0.3-0.1v-0.4h5.4v1.7h-0.4c-0.1-0.3-0.2-0.6-0.4-0.8
	c-0.1-0.2-0.4-0.4-0.6-0.5h-0.4h-1.6v2.8h0.8c0.2,0,0.4,0,0.6-0.1c0.1-0.1,0.2-0.1,0.3-0.2c0.1-0.1,0.1-0.2,0.2-0.4
	c0-0.1,0.1-0.3,0.1-0.4h0.4v2.7h-0.4c0-0.2-0.1-0.3-0.1-0.5c0-0.1-0.1-0.3-0.2-0.4c-0.1-0.1-0.2-0.2-0.3-0.2c-0.2,0-0.3-0.1-0.5-0.1
	h-0.8v2.1c0,0.2,0,0.3,0,0.5c0,0.1,0.1,0.2,0.2,0.3c0.1,0.1,0.2,0.1,0.3,0.1c0.2,0,0.4,0,0.6,0h0.4h0.4c0.1,0,0.3,0,0.4-0.1
	c0.1,0,0.2-0.1,0.3-0.1c0.2-0.2,0.3-0.5,0.5-0.7c0.1-0.2,0.2-0.5,0.3-0.7L121.8,178.7z"/>
<path class="st2" d="M128.8,177.6c0.1,0.2,0.3,0.3,0.3,0.5c0.1,0.2,0.1,0.4,0.1,0.7c0,0.6-0.2,1.1-0.7,1.5c-0.5,0.4-1.1,0.6-1.7,0.6
	c-0.3,0-0.6,0-0.9-0.1c-0.3-0.1-0.5-0.2-0.8-0.4l-0.2,0.4h-0.4l-0.1-2.4h0.4c0.1,0.3,0.2,0.5,0.3,0.8c0.1,0.2,0.3,0.5,0.4,0.7
	c0.2,0.2,0.4,0.3,0.6,0.5c0.2,0.1,0.5,0.2,0.8,0.2c0.2,0,0.4,0,0.6-0.1c0.2,0,0.3-0.1,0.4-0.2c0.1-0.1,0.2-0.2,0.2-0.4
	c0.1-0.2,0.1-0.3,0.1-0.5c0-0.3-0.1-0.5-0.2-0.8c-0.2-0.3-0.4-0.4-0.7-0.6l-0.7-0.3c-0.3-0.1-0.5-0.2-0.7-0.3
	c-0.4-0.2-0.7-0.4-0.9-0.7c-0.2-0.3-0.3-0.7-0.3-1.1c0-0.3,0.1-0.5,0.2-0.7c0.1-0.2,0.3-0.4,0.5-0.6c0.2-0.2,0.4-0.3,0.7-0.4
	c0.3-0.1,0.5-0.1,0.8-0.1c0.3,0,0.6,0,0.9,0.1c0.2,0.1,0.5,0.2,0.7,0.3l0.2-0.3h0.4v2.3h-0.4c-0.1-0.3-0.2-0.5-0.2-0.8
	c-0.1-0.2-0.2-0.5-0.3-0.6c-0.1-0.2-0.3-0.3-0.5-0.4c-0.2-0.1-0.5-0.2-0.7-0.2c-0.3,0-0.6,0.1-0.8,0.3c-0.2,0.2-0.3,0.5-0.3,0.7
	c0,0.3,0.1,0.5,0.2,0.7c0.2,0.2,0.4,0.4,0.6,0.5c0.2,0.1,0.5,0.2,0.7,0.3l0.7,0.3c0.2,0.1,0.4,0.2,0.6,0.3
	C128.5,177.3,128.6,177.4,128.8,177.6z"/>
<path class="st2" d="M139.2,174.2c-0.1,0-0.3,0-0.4,0.1c-0.1,0-0.3,0.1-0.4,0.1c-0.1,0.1-0.2,0.3-0.2,0.5c0,0.3-0.1,0.6-0.1,0.9v5.1
	h-0.4l-4.2-5.7v3.6c0,0.3,0,0.6,0.1,0.9c0,0.2,0.1,0.3,0.2,0.5c0.1,0.1,0.3,0.2,0.5,0.2c0.2,0,0.3,0.1,0.5,0.1v0.4h-2.8v-0.4
	c0.1,0,0.3,0,0.4-0.1c0.1,0,0.3-0.1,0.4-0.1c0.1-0.1,0.2-0.3,0.2-0.4c0.1-0.3,0.1-0.7,0.1-1v-3.4c0-0.2,0-0.3-0.1-0.4
	c0-0.1-0.1-0.3-0.2-0.4c-0.1-0.1-0.3-0.2-0.5-0.3c-0.2-0.1-0.3-0.1-0.5-0.1v-0.4h2l3.9,5.3v-3.3c0-0.3,0-0.6-0.1-0.9
	c0-0.2-0.1-0.3-0.2-0.4c-0.1-0.1-0.3-0.1-0.4-0.2c-0.2,0-0.3-0.1-0.5-0.1v-0.4h2.8L139.2,174.2z"/>
<path class="st2" d="M147.6,178.7l-0.1,2h-5.8v-0.4h0.4c0.1,0,0.2,0,0.3-0.1c0.1,0,0.2-0.1,0.2-0.2c0-0.1,0.1-0.2,0.1-0.3v-5
	c0-0.1,0-0.2-0.1-0.3c0-0.1-0.1-0.2-0.2-0.2c-0.1,0-0.2-0.1-0.4-0.1l-0.4-0.1v-0.4h5.3v1.7h-0.4c-0.1-0.3-0.2-0.6-0.4-0.8
	c-0.1-0.2-0.4-0.4-0.6-0.5h-0.4h-1.6v2.8h0.8c0.2,0,0.4,0,0.6-0.1c0.1-0.1,0.2-0.1,0.3-0.2c0.1-0.1,0.1-0.2,0.2-0.4
	c0-0.1,0.1-0.3,0.1-0.4h0.4v2.7h-0.4c0-0.2-0.1-0.3-0.1-0.5c0-0.1-0.1-0.3-0.2-0.4c-0.1-0.1-0.2-0.2-0.3-0.2c-0.2,0-0.3-0.1-0.5-0.1
	h-0.8v2.1c0,0.2,0,0.3,0,0.5c0,0.1,0.1,0.2,0.2,0.3c0.1,0.1,0.2,0.1,0.4,0.1c0.2,0,0.4,0,0.6,0h0.4h0.4c0.1,0,0.3,0,0.4-0.1
	c0.1,0,0.2-0.1,0.3-0.1c0.2-0.2,0.3-0.5,0.5-0.7c0.1-0.2,0.2-0.5,0.3-0.7L147.6,178.7z"/>
<path class="st2" d="M156.2,174.2c-0.1,0-0.2,0-0.3,0.1c-0.1,0-0.2,0.1-0.3,0.1c-0.1,0.1-0.2,0.1-0.3,0.2c-0.1,0.1-0.2,0.2-0.3,0.3
	c-0.3,0.4-0.5,0.7-0.7,1.1l-0.8,1.4c-0.1,0.2-0.2,0.3-0.2,0.5c0,0.2-0.1,0.4-0.1,0.6v1.3c0,0.1,0,0.2,0.1,0.3
	c0.1,0.1,0.1,0.2,0.2,0.2l0.4,0.1c0.1,0,0.3,0.1,0.4,0.1v0.4h-3.2v-0.4h0.4c0.1,0,0.3,0,0.4-0.1c0.1,0,0.2-0.1,0.2-0.2
	c0-0.1,0.1-0.2,0.1-0.3v-1.7c0-0.1,0-0.2-0.1-0.3l-0.2-0.5l-0.6-1.2l-0.6-1.1c-0.1-0.1-0.2-0.3-0.3-0.4c-0.1-0.1-0.2-0.2-0.3-0.2
	c-0.1-0.1-0.2-0.1-0.3-0.1h-0.3v-0.4h3v0.4c-0.2,0-0.5,0-0.7,0.1c-0.1,0-0.2,0.1-0.2,0.2c0,0,0,0.1,0,0.1l0.1,0.2l0.1,0.3l0.2,0.3
	l0.5,0.9l0.6,1.1c0.5-0.8,0.9-1.5,1.2-1.9c0.2-0.3,0.3-0.5,0.4-0.8c0-0.1,0-0.1-0.1-0.2c-0.1-0.1-0.1-0.1-0.2-0.1
	c-0.1,0-0.2,0-0.3-0.1h-0.3v-0.4h2.4L156.2,174.2z"/>
<path class="st2" d="M64.5,193.6c0.1,0.2,0.3,0.3,0.3,0.5c0.1,0.2,0.1,0.4,0.1,0.7c0,0.6-0.2,1.1-0.7,1.5c-0.5,0.4-1.1,0.6-1.7,0.6
	c-0.3,0-0.6,0-0.9-0.1c-0.3-0.1-0.5-0.2-0.8-0.4l-0.2,0.4h-0.4l-0.1-2.4h0.4c0.1,0.3,0.2,0.5,0.3,0.8c0.1,0.2,0.3,0.5,0.4,0.7
	c0.2,0.2,0.4,0.3,0.6,0.5c0.2,0.1,0.5,0.2,0.8,0.2c0.2,0,0.4,0,0.6-0.1c0.2,0,0.3-0.1,0.4-0.2c0.1-0.1,0.2-0.2,0.2-0.4
	c0.1-0.2,0.1-0.3,0.1-0.5c0-0.3-0.1-0.5-0.2-0.8c-0.2-0.3-0.4-0.4-0.7-0.6l-0.7-0.3c-0.3-0.1-0.5-0.2-0.7-0.3
	c-0.4-0.2-0.7-0.4-0.9-0.7c-0.2-0.3-0.3-0.7-0.3-1.1c0-0.3,0.1-0.5,0.2-0.7c0.1-0.2,0.3-0.4,0.5-0.6c0.2-0.2,0.4-0.3,0.7-0.4
	c0.3-0.1,0.5-0.1,0.8-0.1c0.3,0,0.6,0,0.9,0.1c0.2,0.1,0.5,0.2,0.7,0.3l0.2-0.3h0.4v2.3h-0.4c-0.1-0.3-0.2-0.5-0.2-0.8
	c-0.1-0.2-0.2-0.5-0.3-0.6c-0.1-0.2-0.3-0.3-0.5-0.4c-0.2-0.1-0.5-0.2-0.7-0.2c-0.3,0-0.6,0.1-0.8,0.3c-0.2,0.2-0.3,0.5-0.3,0.7
	c0,0.3,0.1,0.5,0.2,0.7c0.2,0.2,0.4,0.4,0.6,0.5c0.2,0.1,0.5,0.2,0.7,0.3l0.7,0.3c0.2,0.1,0.4,0.2,0.6,0.3
	C64.2,193.3,64.4,193.4,64.5,193.6z"/>
<path class="st2" d="M73.7,194.7l-0.1,2h-5.8v-0.4h0.4c0.1,0,0.2,0,0.3-0.1c0.1,0,0.2-0.1,0.2-0.2c0-0.1,0.1-0.2,0.1-0.3v-5
	c0-0.1,0-0.2-0.1-0.3c0-0.1-0.1-0.2-0.2-0.2c-0.1,0-0.2-0.1-0.3-0.1l-0.3-0.1v-0.4h5.4v1.7h-0.4c-0.1-0.3-0.2-0.6-0.4-0.8
	c-0.1-0.2-0.4-0.4-0.6-0.5h-0.4h-1.6v2.8h0.8c0.2,0,0.4,0,0.6-0.1c0.1-0.1,0.2-0.1,0.3-0.2c0.1-0.1,0.1-0.2,0.2-0.4
	c0-0.1,0.1-0.3,0.1-0.4h0.4v2.7h-0.4c0-0.2-0.1-0.3-0.1-0.5c0-0.1-0.1-0.3-0.2-0.4c-0.1-0.1-0.2-0.2-0.3-0.2c-0.2,0-0.3-0.1-0.5-0.1
	h-0.8v2.1c0,0.2,0,0.3,0,0.5c0,0.1,0.1,0.2,0.2,0.3c0.1,0.1,0.2,0.1,0.3,0.1c0.2,0,0.4,0,0.6,0h0.4h0.4c0.1,0,0.3,0,0.4-0.1
	c0.1,0,0.2-0.1,0.3-0.1c0.2-0.2,0.3-0.5,0.5-0.7c0.1-0.2,0.2-0.5,0.3-0.7L73.7,194.7z"/>
<path class="st2" d="M82.8,196.8H80v-0.4c0.2,0,0.4,0,0.6-0.1c0.2,0,0.2-0.1,0.2-0.2c0,0,0-0.1,0-0.1c0,0,0-0.1,0-0.1l-0.6-1.6h-2.5
	c-0.1,0.2-0.2,0.4-0.2,0.6l-0.2,0.5c0,0.1-0.1,0.2-0.1,0.3c0,0.1,0,0.1,0,0.2c0,0.1,0.1,0.2,0.3,0.3c0.2,0.1,0.5,0.1,0.7,0.1v0.4
	h-2.6v-0.4l0.3-0.1c0.1,0,0.2-0.1,0.3-0.1c0.1-0.1,0.2-0.2,0.3-0.3c0.1-0.1,0.2-0.3,0.2-0.4c0.3-0.9,0.7-1.8,1.2-2.9l1.1-2.9h0.4
	l2.3,6c0,0.1,0.1,0.2,0.2,0.3c0.1,0.1,0.2,0.2,0.3,0.2c0.1,0.1,0.2,0.1,0.3,0.1c0.1,0,0.2,0,0.3,0.1L82.8,196.8z M80,193.9l-1-2.7
	l-1,2.7H80z"/>
<path class="st2" d="M92.2,190.2c-0.1,0-0.3,0-0.4,0.1c-0.1,0-0.3,0.1-0.4,0.1c-0.1,0.1-0.2,0.3-0.2,0.5c0,0.3-0.1,0.6-0.1,0.9v5.1
	h-0.4l-4.2-5.7v3.6c0,0.3,0,0.6,0.1,0.9c0,0.2,0.1,0.3,0.2,0.5c0.1,0.1,0.3,0.2,0.5,0.2c0.2,0,0.3,0.1,0.5,0.1v0.4h-2.8v-0.4
	c0.1,0,0.3,0,0.4-0.1c0.1,0,0.3-0.1,0.4-0.1c0.1-0.1,0.2-0.3,0.2-0.4c0.1-0.3,0.1-0.7,0.1-1v-3.4c0-0.2,0-0.3-0.1-0.4
	c0-0.1-0.1-0.3-0.2-0.4c-0.1-0.1-0.3-0.2-0.5-0.3c-0.2-0.1-0.3-0.1-0.5-0.1v-0.4h2l3.9,5.3v-3.3c0-0.3,0-0.6-0.1-0.9
	c0-0.2-0.1-0.3-0.2-0.4c-0.1-0.1-0.3-0.1-0.4-0.2c-0.2,0-0.3-0.1-0.5-0.1v-0.4h2.8L92.2,190.2z"/>
<path class="st2" d="M102.2,196.9c-0.4,0-0.8-0.1-1.2-0.2c-0.4-0.2-0.7-0.4-1-0.7c-0.3-0.3-0.5-0.7-0.7-1.1c-0.2-0.5-0.3-1-0.3-1.5
	c0-0.5,0.1-1,0.2-1.5c0.2-0.4,0.4-0.8,0.7-1.2c0.3-0.3,0.6-0.6,1-0.8c0.4-0.2,0.8-0.3,1.3-0.3c0.3,0,0.6,0,0.9,0.1
	c0.3,0.1,0.5,0.2,0.8,0.4l0.2-0.3h0.4v2.5h-0.4c-0.1-0.3-0.1-0.5-0.2-0.8c-0.1-0.3-0.2-0.5-0.4-0.7c-0.1-0.2-0.3-0.4-0.6-0.5
	c-0.2-0.1-0.5-0.2-0.7-0.2c-0.3,0-0.6,0.1-0.9,0.2c-0.3,0.1-0.5,0.4-0.7,0.6c-0.2,0.3-0.4,0.6-0.4,1c-0.1,0.4-0.2,0.9-0.2,1.4
	c0,0.4,0.1,0.8,0.2,1.2c0.1,0.4,0.3,0.7,0.5,1c0.2,0.3,0.4,0.5,0.7,0.6c0.3,0.2,0.7,0.2,1,0.2c0.2,0,0.5,0,0.7-0.1
	c0.2-0.1,0.4-0.2,0.6-0.3c0.2-0.1,0.3-0.3,0.4-0.5c0.1-0.2,0.2-0.4,0.3-0.6l0.4,0.2C104.6,196.2,103.4,197,102.2,196.9L102.2,196.9z
	"/>
<path class="st2" d="M113.2,190.6c0.3,0.3,0.6,0.7,0.7,1.2c0.2,0.5,0.3,1,0.3,1.5c0,0.5-0.1,1-0.3,1.5c-0.2,0.4-0.4,0.8-0.7,1.1
	c-0.3,0.3-0.7,0.6-1.1,0.7c-0.8,0.4-1.8,0.4-2.6,0c-0.4-0.2-0.8-0.4-1.1-0.8c-0.3-0.3-0.5-0.7-0.7-1.1c-0.2-0.5-0.3-1-0.2-1.4
	c0-0.5,0.1-1,0.3-1.5c0.2-0.4,0.4-0.8,0.7-1.1c0.3-0.3,0.7-0.6,1.1-0.7c0.8-0.3,1.7-0.3,2.6,0C112.5,190.1,112.9,190.3,113.2,190.6z
	 M112.4,195.6c0.2-0.3,0.3-0.6,0.4-1c0.1-0.4,0.1-0.8,0.1-1.2c0-0.4,0-0.9-0.1-1.3c-0.1-0.4-0.2-0.7-0.4-1c-0.2-0.3-0.4-0.5-0.7-0.6
	c-0.3-0.2-0.6-0.2-0.9-0.2c-0.4,0-0.7,0.1-1,0.3c-0.3,0.2-0.5,0.4-0.7,0.7c-0.2,0.3-0.3,0.7-0.4,1c-0.1,0.4-0.1,0.8-0.1,1.2
	c0,0.4,0,0.9,0.1,1.3c0.1,0.4,0.2,0.7,0.4,1c0.2,0.3,0.4,0.5,0.7,0.7c0.6,0.3,1.3,0.3,1.9,0C112.1,196.1,112.3,195.8,112.4,195.6
	L112.4,195.6z"/>
<path class="st2" d="M123.4,190.2c-0.1,0-0.2,0-0.3,0.1c-0.1,0-0.2,0.1-0.3,0.1c-0.1,0.1-0.2,0.2-0.3,0.3c-0.1,0.1-0.1,0.2-0.2,0.4
	c-0.2,0.5-0.6,1.3-1,2.4c-0.4,1.1-0.9,2.2-1.3,3.4h-0.4l-1.4-3.6l-0.9-2.4c0-0.1-0.1-0.2-0.2-0.3c-0.1-0.1-0.2-0.2-0.3-0.2
	c-0.1-0.1-0.2-0.1-0.3-0.1l-0.3-0.1v-0.4h2.9v0.4c-0.2,0-0.4,0-0.6,0.1c-0.2,0-0.2,0.1-0.2,0.2c0,0,0,0.1,0,0.1v0.1l0.6,1.6l1.2,3.1
	c0.2-0.6,0.5-1.3,0.8-2.1s0.5-1.4,0.7-1.7c0.1-0.2,0.1-0.4,0.2-0.6c0-0.1,0-0.2,0-0.3c0-0.1,0-0.1-0.1-0.2c-0.1-0.1-0.2-0.1-0.3-0.1
	l-0.3-0.1h-0.3v-0.4h2.6L123.4,190.2z"/>
<path class="st2" d="M131.5,194.7l-0.1,2h-5.8v-0.4h0.4c0.1,0,0.2,0,0.3-0.1c0.1,0,0.2-0.1,0.2-0.2c0-0.1,0.1-0.2,0.1-0.3v-5
	c0-0.1,0-0.2-0.1-0.3c0-0.1-0.1-0.2-0.2-0.2c-0.1,0-0.2-0.1-0.3-0.1l-0.3-0.1v-0.4h5.3v1.7h-0.4c-0.1-0.3-0.2-0.6-0.4-0.8
	c-0.1-0.2-0.4-0.4-0.6-0.5h-0.4h-1.6v2.8h0.8c0.2,0,0.4,0,0.6-0.1c0.1-0.1,0.2-0.1,0.3-0.2c0.1-0.1,0.1-0.2,0.2-0.4
	c0-0.1,0.1-0.3,0.1-0.4h0.4v2.7h-0.4c0-0.2-0.1-0.3-0.1-0.5c0-0.1-0.1-0.3-0.2-0.4c-0.1-0.1-0.2-0.2-0.3-0.2c-0.2,0-0.3-0.1-0.5-0.1
	h-0.8v2.1c0,0.2,0,0.3,0,0.5c0,0.1,0.1,0.2,0.2,0.3c0.1,0.1,0.2,0.1,0.4,0.1c0.2,0,0.4,0,0.6,0h0.4h0.4c0.1,0,0.3,0,0.4-0.1
	c0.1,0,0.2-0.1,0.3-0.1c0.2-0.2,0.3-0.5,0.5-0.7c0.1-0.2,0.2-0.5,0.3-0.7L131.5,194.7z"/>
<path class="st2" d="M140.2,190.2c-0.1,0-0.2,0-0.3,0.1c-0.1,0-0.2,0.1-0.3,0.1c-0.1,0.1-0.2,0.1-0.3,0.2c-0.1,0.1-0.2,0.2-0.3,0.3
	c-0.3,0.4-0.5,0.7-0.7,1.1l-0.8,1.4c-0.1,0.2-0.2,0.3-0.2,0.5c0,0.2-0.1,0.4-0.1,0.6v1.3c0,0.1,0,0.2,0.1,0.3
	c0.1,0.1,0.1,0.2,0.2,0.2l0.4,0.1c0.1,0,0.3,0.1,0.4,0.1v0.4h-3.2v-0.4h0.4c0.1,0,0.3,0,0.4-0.1c0.1,0,0.2-0.1,0.2-0.2
	c0-0.1,0.1-0.2,0.1-0.3v-1.7c0-0.1,0-0.2-0.1-0.3l-0.2-0.5l-0.6-1.2l-0.6-1.1c-0.1-0.1-0.2-0.3-0.3-0.4c-0.1-0.1-0.2-0.2-0.3-0.2
	c-0.1-0.1-0.2-0.1-0.3-0.1h-0.3v-0.4h3v0.4c-0.2,0-0.5,0-0.7,0.1c-0.1,0-0.2,0.1-0.2,0.2c0,0,0,0.1,0,0.1l0.1,0.2l0.1,0.3l0.2,0.3
	l0.5,0.9l0.6,1.1c0.5-0.8,0.9-1.5,1.2-1.9c0.2-0.3,0.3-0.5,0.4-0.8c0-0.1,0-0.1-0.1-0.2c-0.1-0.1-0.1-0.1-0.2-0.1
	c-0.1,0-0.2,0-0.3-0.1h-0.3v-0.4h2.4L140.2,190.2z"/>
<path class="st2" d="M65.1,206.2h-0.3c-0.1,0-0.2,0-0.3,0.1c-0.1,0-0.2,0.1-0.2,0.2c0,0.1-0.1,0.2-0.1,0.3v4.1c0,0.2,0,0.5-0.1,0.7
	c-0.1,0.2-0.2,0.5-0.4,0.6c-0.2,0.2-0.4,0.4-0.7,0.5c-0.3,0.1-0.6,0.2-0.9,0.2c-0.5,0-0.9-0.1-1.3-0.4c-0.3-0.3-0.5-0.7-0.5-1.2
	c0-0.2,0.1-0.4,0.2-0.6c0.1-0.2,0.3-0.3,0.5-0.3c0.2,0,0.3,0,0.5,0.2c0.1,0.1,0.2,0.3,0.2,0.4c0,0.1,0,0.2-0.1,0.3
	c0,0.1-0.1,0.2-0.1,0.3l-0.2,0.3c-0.1,0.1-0.1,0.2-0.1,0.3c0.1,0.1,0.2,0.2,0.3,0.3c0.2,0.1,0.4,0.1,0.6,0.1c0.2,0,0.4,0,0.6-0.2
	c0.2-0.1,0.3-0.3,0.3-0.4c0.1-0.2,0.1-0.4,0.2-0.6c0-0.3,0-0.6,0-0.8v-3.7c0-0.1,0-0.2-0.1-0.3c-0.1-0.1-0.1-0.2-0.2-0.2
	c-0.1-0.1-0.2-0.1-0.4-0.1l-0.4-0.1v-0.4H65L65.1,206.2z"/>
<path class="st2" d="M70.8,212.8h-3.1v-0.4h0.4c0.1,0,0.2,0,0.3-0.1c0.1,0,0.2-0.1,0.2-0.2c0.1-0.1,0.1-0.2,0.1-0.3v-5
	c0-0.1,0-0.2-0.1-0.3c-0.1-0.1-0.1-0.2-0.2-0.2l-0.4-0.1l-0.4-0.1v-0.4h3.1v0.4h-0.4c-0.1,0-0.2,0-0.4,0.1c-0.1,0-0.2,0.1-0.2,0.2
	c0,0.1-0.1,0.2-0.1,0.3v5c0,0.1,0,0.2,0.1,0.3c0.1,0.1,0.1,0.2,0.2,0.2l0.3,0.1c0.1,0,0.3,0,0.4,0.1L70.8,212.8z"/>
<path class="st2" d="M82.1,212.8H79v-0.4h0.4c0.1,0,0.2,0,0.4-0.1c0.1-0.1,0.2-0.1,0.2-0.2c0-0.1,0.1-0.2,0.1-0.3v-5H80l-2.4,5.9
	h-0.2l-2.2-6h-0.1v4.1c0,0.3,0,0.6,0.1,0.9c0,0.2,0.1,0.3,0.2,0.4c0.1,0.1,0.3,0.2,0.4,0.2c0.1,0,0.3,0.1,0.4,0.1v0.4h-2.8v-0.4
	c0.2,0,0.3,0,0.5-0.1c0.1,0,0.3-0.1,0.4-0.2c0.1-0.1,0.2-0.3,0.2-0.4c0.1-0.3,0.1-0.6,0.1-0.9v-3.5c0-0.2,0-0.3-0.1-0.5
	c0-0.1-0.1-0.2-0.2-0.3c-0.1-0.1-0.2-0.2-0.4-0.2c-0.1,0-0.3-0.1-0.4-0.1v-0.4h2.4l2,5.2l1.7-4.4c0.1-0.2,0.1-0.3,0.2-0.5
	c0-0.1,0.1-0.2,0.1-0.4H82v0.4h-0.3l-0.3,0.1c-0.1,0-0.2,0.1-0.2,0.2c0,0.1-0.1,0.2-0.1,0.3v5c0,0.1,0,0.2,0.1,0.3
	c0,0.1,0.1,0.2,0.2,0.2c0.1,0,0.2,0.1,0.3,0.1H82L82.1,212.8z"/>
<path class="st2" d="M96.6,212.8h-2.9v-0.4H94c0.1,0,0.2,0,0.3-0.1c0.1,0,0.2-0.1,0.2-0.2c0.1-0.1,0.1-0.2,0.1-0.3v-2.5h-3.2v2.4
	c0,0.1,0,0.2,0.1,0.3c0,0.1,0.1,0.2,0.2,0.2c0.1,0,0.2,0.1,0.3,0.1h0.3v0.4h-2.9v-0.4h0.3c0.1,0,0.2,0,0.3-0.1
	c0.1,0,0.2-0.1,0.2-0.2c0.1-0.1,0.1-0.2,0.1-0.3v-5c0-0.1,0-0.2-0.1-0.3c0-0.1-0.1-0.2-0.2-0.2c-0.1,0-0.2-0.1-0.3-0.1l-0.3-0.1
	v-0.4h2.9v0.4h-0.3l-0.3,0.1c-0.1,0-0.2,0.1-0.2,0.2c0,0.1-0.1,0.2-0.1,0.3v2.1h3.3v-2.1c0-0.1,0-0.2-0.1-0.3c0-0.1-0.1-0.2-0.2-0.2
	c-0.1,0-0.2-0.1-0.3-0.1l-0.3-0.1v-0.4h2.9v0.4h-0.3l-0.3,0.1c-0.1,0-0.2,0.1-0.2,0.2c0,0.1-0.1,0.2-0.1,0.3v5c0,0.1,0,0.2,0.1,0.3
	c0,0.1,0.1,0.2,0.2,0.2c0.1,0,0.2,0.1,0.3,0.1h0.3L96.6,212.8z"/>
<path class="st2" d="M106.6,206.2c-0.1,0-0.3,0-0.4,0.1c-0.2,0-0.3,0.1-0.4,0.2c-0.1,0.1-0.2,0.3-0.2,0.5c0,0.3-0.1,0.6-0.1,0.9v3
	c0,0.3-0.1,0.7-0.2,1c-0.2,0.3-0.4,0.5-0.6,0.7c-0.2,0.2-0.5,0.3-0.8,0.4c-0.3,0.1-0.5,0.1-0.8,0.1c-0.4,0-0.8,0-1.1-0.2
	c-0.3-0.1-0.6-0.2-0.8-0.4c-0.2-0.2-0.4-0.4-0.5-0.6c-0.1-0.2-0.2-0.5-0.2-0.8v-4.1c0-0.1,0-0.2-0.1-0.3c-0.1-0.1-0.1-0.2-0.2-0.2
	c-0.1-0.1-0.2-0.1-0.3-0.1l-0.3-0.1v-0.4h2.9v0.4H102l-0.3,0.1c-0.1,0-0.2,0.1-0.2,0.2c0,0.1-0.1,0.2-0.1,0.3v3.8
	c0,0.2,0,0.4,0.1,0.6c0,0.2,0.1,0.4,0.2,0.6c0.1,0.2,0.3,0.3,0.5,0.4c0.3,0.1,0.6,0.2,0.9,0.2c0.3,0,0.6,0,0.9-0.2
	c0.2-0.1,0.4-0.3,0.6-0.4c0.1-0.2,0.2-0.4,0.3-0.6c0.1-0.2,0.1-0.4,0.1-0.6v-2.8c0-0.3,0-0.6-0.1-0.9c0-0.2-0.1-0.3-0.2-0.4
	c-0.1-0.1-0.3-0.2-0.5-0.2c-0.1,0-0.3-0.1-0.4-0.1v-0.4h2.8L106.6,206.2z"/>
<path class="st2" d="M114.7,210.7l-0.2,2.1h-5.4v-0.4h0.3c0.1,0,0.2,0,0.3-0.1c0.1,0,0.2-0.1,0.2-0.2c0-0.1,0.1-0.2,0.1-0.3v-5
	c0-0.1,0-0.2-0.1-0.3c0-0.1-0.1-0.2-0.2-0.2c-0.1,0-0.2-0.1-0.3-0.1c-0.1,0-0.2-0.1-0.3-0.1v-0.4h2.9v0.4h-0.3l-0.3,0.1
	c-0.1,0-0.2,0.1-0.2,0.2c0,0.1-0.1,0.2-0.1,0.3v4.6c0,0.2,0,0.3,0,0.5c0,0.1,0.1,0.2,0.2,0.3c0.1,0.1,0.2,0.1,0.3,0.1
	c0.2,0,0.4,0,0.6,0h0.4h0.4l0.3-0.1c0.1,0,0.2-0.1,0.2-0.1c0.2-0.2,0.3-0.4,0.5-0.7c0.1-0.2,0.3-0.5,0.4-0.7L114.7,210.7z"/>
<path class="st2" d="M120.2,212.8h-3.1v-0.4h0.4c0.1,0,0.2,0,0.3-0.1c0.1,0,0.2-0.1,0.2-0.2c0.1-0.1,0.1-0.2,0.1-0.3v-5
	c0-0.1,0-0.2-0.1-0.3c-0.1-0.1-0.1-0.2-0.2-0.2l-0.4-0.1l-0.4-0.1v-0.4h3.1v0.4h-0.4c-0.1,0-0.2,0-0.4,0.1c-0.1,0-0.2,0.1-0.2,0.2
	c0,0.1-0.1,0.2-0.1,0.3v5c0,0.1,0,0.2,0.1,0.3c0.1,0.1,0.1,0.2,0.2,0.2l0.3,0.1c0.1,0,0.3,0,0.4,0.1L120.2,212.8z"/>
<path class="st2" d="M130.2,206.2c-0.1,0-0.3,0-0.4,0.1c-0.1,0-0.3,0.1-0.4,0.1c-0.1,0.1-0.2,0.3-0.2,0.5c0,0.3-0.1,0.6-0.1,0.9v5.1
	h-0.4l-4.2-5.7v3.6c0,0.3,0,0.6,0.1,0.9c0,0.2,0.1,0.3,0.2,0.5c0.1,0.1,0.3,0.2,0.5,0.2c0.2,0,0.3,0.1,0.5,0.1v0.4h-2.8v-0.4
	c0.1,0,0.3,0,0.4-0.1c0.1,0,0.3-0.1,0.4-0.1c0.1-0.1,0.2-0.3,0.2-0.4c0.1-0.3,0.1-0.7,0.1-1v-3.4c0-0.2,0-0.3-0.1-0.4
	c0-0.1-0.1-0.3-0.2-0.4c-0.1-0.1-0.3-0.2-0.5-0.3c-0.2-0.1-0.3-0.1-0.5-0.1v-0.4h2l3.9,5.3v-3.3c0-0.3,0-0.6-0.1-0.9
	c0-0.2-0.1-0.3-0.2-0.4c-0.1-0.1-0.3-0.1-0.4-0.2c-0.2,0-0.3-0.1-0.5-0.1v-0.4h2.8L130.2,206.2z"/>
<path class="st2" d="M139.4,210h-0.3c-0.1,0-0.2,0-0.3,0.1c-0.1,0-0.2,0.1-0.2,0.2c0,0.1-0.1,0.2-0.1,0.3v0.5c0,0.4,0,0.6,0,0.8
	s0,0.2,0,0.3c-0.4,0.2-0.8,0.3-1.3,0.4c-0.4,0.1-0.8,0.2-1.3,0.2c-0.4,0-0.9-0.1-1.3-0.2c-0.4-0.2-0.8-0.4-1.1-0.7
	c-0.3-0.3-0.6-0.7-0.7-1.1c-0.2-0.5-0.3-1-0.3-1.5c0-0.5,0.1-1,0.3-1.5c0.2-0.4,0.4-0.8,0.7-1.2c0.3-0.3,0.7-0.6,1.1-0.8
	c0.4-0.2,0.9-0.3,1.4-0.3c0.3,0,0.7,0,1,0.1c0.3,0.1,0.5,0.2,0.8,0.3l0.2-0.3h0.4v2.4H138c-0.1-0.3-0.2-0.5-0.2-0.8
	c-0.1-0.3-0.2-0.5-0.4-0.7c-0.2-0.2-0.4-0.4-0.6-0.5c-0.3-0.1-0.5-0.2-0.8-0.2c-0.3,0-0.6,0.1-0.9,0.2c-0.3,0.1-0.5,0.4-0.7,0.6
	c-0.2,0.3-0.4,0.6-0.5,1c-0.1,0.4-0.2,0.9-0.2,1.4c0,0.4,0.1,0.8,0.2,1.2c0.1,0.4,0.2,0.7,0.5,1c0.2,0.3,0.5,0.5,0.8,0.7
	c0.3,0.2,0.7,0.3,1,0.2c0.3,0,0.5,0,0.8-0.1c0.2-0.1,0.4-0.2,0.5-0.3c0-0.2,0-0.3,0-0.5c0-0.2,0-0.3,0-0.4v-0.4c0-0.1,0-0.2-0.1-0.4
	c0-0.1-0.1-0.2-0.2-0.2c-0.1-0.1-0.3-0.1-0.4-0.1h-0.4v-0.4h3L139.4,210z"/>
<rect y="239.6" class="st1" width="199.6" height="20.3"/>
<polygon class="st3" points="149.3,27.6 150.6,25.9 151.8,27.8 153.4,26.3 154.2,28.4 156.1,27.1 156.5,29.3 158.6,28.4 158.7,30.6 
	160.8,30.1 160.6,32.3 162.8,32 162.2,34.2 164.4,34.3 163.5,36.3 165.7,36.8 164.5,38.6 166.6,39.4 165.1,41.1 167,42.2 
	165.3,43.6 167,45 165.1,46.1 166.6,47.7 164.5,48.5 165.7,50.4 163.5,50.8 164.4,52.9 162.2,53 162.8,55.1 160.6,54.9 160.8,57.1 
	158.7,56.5 158.6,58.8 156.5,57.8 156.1,60 154.2,58.8 153.4,60.9 151.8,59.4 150.6,61.3 149.3,59.6 147.9,61.3 146.8,59.4 
	145.1,60.9 144.3,58.8 142.4,60 142,57.8 140,58.8 139.9,56.5 137.7,57.1 137.9,54.9 135.7,55.1 136.3,53 134.1,52.9 135,50.8 
	132.8,50.4 134,48.5 132,47.7 133.4,46.1 131.5,45 133.2,43.6 131.5,42.2 133.4,41.1 132,39.4 134,38.6 132.8,36.8 135,36.3 
	134.1,34.3 136.3,34.2 135.7,32 137.9,32.3 137.7,30.1 139.9,30.6 140,28.4 142,29.3 142.4,27.1 144.3,28.4 145.1,26.3 146.8,27.8 
	147.9,25.9 "/>
<path class="st2" d="M56.7,60.9h-0.6c-0.1-0.3-0.2-0.5-0.3-0.8c-0.1-0.3-0.3-0.6-0.5-0.8c-0.2-0.3-0.4-0.5-0.6-0.7
	c-0.2-0.2-0.4-0.3-0.6-0.3l-0.7,0h-0.8h-0.5v10c0,0.2,0,0.4,0.1,0.5c0.1,0.2,0.2,0.3,0.4,0.4c0.2,0.1,0.4,0.1,0.7,0.2
	c0.3,0.1,0.5,0.1,0.8,0.1V70h-5.9v-0.6l0.8-0.1c0.2,0,0.5-0.1,0.7-0.1c0.2-0.1,0.3-0.2,0.4-0.3c0.1-0.2,0.1-0.4,0.1-0.6V58.2h-1.2
	c-0.3,0-0.5,0-0.8,0.1c-0.2,0-0.4,0.2-0.6,0.3c-0.2,0.2-0.4,0.5-0.6,0.7c-0.2,0.3-0.3,0.5-0.5,0.8c-0.1,0.2-0.2,0.5-0.3,0.7h-0.6
	v-3.4h10.9V60.9z"/>
<path class="st2" d="M66.9,69.9h-4.3v-0.6H63c0.1,0,0.3,0,0.4-0.1c0.2,0,0.3-0.1,0.4-0.3c0.1-0.2,0.1-0.3,0.1-0.5V64
	c0-0.5-0.1-1-0.4-1.4c-0.3-0.3-0.6-0.5-1.1-0.5c-0.3,0-0.6,0-0.8,0.1c-0.2,0.1-0.5,0.2-0.7,0.4c-0.2,0.1-0.3,0.3-0.5,0.4
	c-0.1,0.1-0.2,0.3-0.2,0.4v5c0,0.2,0,0.3,0.1,0.5c0.1,0.1,0.2,0.2,0.4,0.3c0.1,0.1,0.3,0.1,0.4,0.1c0.1,0,0.3,0.1,0.5,0.1v0.6h-4.2
	v-0.6h0.4c0.1,0,0.2,0,0.4-0.1c0.2,0,0.3-0.1,0.4-0.3c0.1-0.2,0.1-0.3,0.1-0.5V58.4c0-0.2-0.1-0.4-0.1-0.6c-0.1-0.2-0.2-0.3-0.4-0.5
	c-0.2-0.1-0.4-0.2-0.6-0.2l-0.7-0.1v-0.6l3.2-0.2l0.1,0.1v6l0,0l0.5-0.5c0.2-0.2,0.4-0.3,0.6-0.5c0.2-0.2,0.5-0.3,0.8-0.3
	c0.3-0.1,0.7-0.1,1-0.1c0.7,0,1.3,0.2,1.8,0.7c0.5,0.6,0.7,1.4,0.6,2.1v4.6c0,0.2,0,0.3,0.1,0.5c0.1,0.1,0.2,0.2,0.4,0.3l0.4,0.1
	c0.1,0,0.3,0.1,0.4,0.1L66.9,69.9z"/>
<path class="st2" d="M75.6,67.9c-0.3,0.7-0.8,1.2-1.5,1.7c-0.6,0.4-1.4,0.6-2.1,0.6c-0.6,0-1.3-0.1-1.8-0.4c-0.5-0.2-0.9-0.6-1.3-1
	c-0.3-0.4-0.6-0.9-0.8-1.5c-0.2-0.6-0.3-1.2-0.2-1.8c0-0.6,0.1-1.1,0.3-1.7c0.2-0.5,0.5-1,0.8-1.5c0.3-0.4,0.8-0.8,1.2-1
	c0.5-0.3,1.1-0.4,1.6-0.4c0.6,0,1.1,0.1,1.6,0.3c0.4,0.2,0.8,0.5,1.1,0.8c0.3,0.3,0.5,0.7,0.6,1.2c0.1,0.5,0.2,1,0.2,1.4v0.6h-5.7
	c0,0.5,0,1,0.2,1.6c0.1,0.4,0.3,0.8,0.5,1.2c0.2,0.3,0.5,0.6,0.9,0.8c0.4,0.2,0.9,0.3,1.3,0.3c0.5,0,0.9-0.1,1.3-0.4
	c0.5-0.3,0.8-0.8,1.1-1.3L75.6,67.9z M73.7,64.6c0-0.4,0-0.7-0.1-1c0-0.3-0.1-0.6-0.3-0.9c-0.1-0.3-0.3-0.5-0.6-0.7
	c-0.3-0.2-0.6-0.3-0.9-0.2c-0.6,0-1.2,0.3-1.5,0.8c-0.4,0.6-0.7,1.4-0.7,2.1H73.7z"/>
<path class="st2" d="M79.2,87.1c0,1.1-0.2,2.1-0.7,3.1c-0.4,0.8-1,1.6-1.7,2.1c-0.7,0.6-1.5,1-2.4,1.2c-0.9,0.3-1.8,0.4-2.8,0.4
	h-5.7v-0.7c0.2,0,0.5,0,0.7-0.1c0.2,0,0.4-0.1,0.6-0.1c0.2-0.1,0.3-0.2,0.4-0.4c0.1-0.2,0.1-0.4,0.1-0.6v-10c0-0.2,0-0.4-0.1-0.6
	c-0.1-0.2-0.2-0.3-0.4-0.4c-0.2-0.1-0.4-0.2-0.7-0.2c-0.2,0-0.4-0.1-0.6-0.1v-0.7h6c0.8,0,1.7,0.1,2.5,0.4c0.8,0.2,1.5,0.6,2.1,1
	c0.8,0.6,1.5,1.4,1.9,2.3C79,84.8,79.2,85.9,79.2,87.1z M76.8,87.1c0-0.9-0.1-1.7-0.4-2.5c-0.2-0.7-0.6-1.4-1.1-2
	c-0.5-0.5-1-1-1.7-1.3c-0.7-0.3-1.4-0.5-2.2-0.5h-0.9h-0.8v10.7c-0.1,0.5,0.1,0.9,0.5,1.2c0.5,0.3,1,0.4,1.6,0.3
	c0.7,0,1.5-0.1,2.2-0.4c0.6-0.3,1.1-0.7,1.5-1.2c0.4-0.6,0.7-1.2,0.9-1.9C76.7,88.8,76.8,87.9,76.8,87.1L76.8,87.1z"/>
<path class="st2" d="M85.3,93.9h-4.7v-0.6h0.5c0.1,0,0.3,0,0.4-0.1c0.2,0,0.3-0.2,0.4-0.3c0.1-0.2,0.1-0.4,0.1-0.6v-6
	c0-0.2,0-0.4-0.1-0.6c-0.1-0.2-0.2-0.3-0.4-0.4c-0.2-0.1-0.4-0.2-0.5-0.2c-0.2-0.1-0.4-0.1-0.6-0.1v-0.6l3.4-0.2l0.1,0.1v7.8
	c0,0.2,0,0.4,0.1,0.6c0.1,0.2,0.2,0.3,0.4,0.3c0.1,0.1,0.3,0.1,0.4,0.1c0.2,0,0.3,0.1,0.5,0.1L85.3,93.9z M84.1,80.4
	c0,0.4-0.1,0.7-0.4,1c-0.2,0.3-0.6,0.4-0.9,0.4c-0.3,0-0.6-0.1-0.9-0.4c-0.2-0.2-0.4-0.6-0.4-0.9c0-0.3,0.1-0.7,0.4-0.9
	c0.2-0.3,0.5-0.4,0.9-0.4c0.3,0,0.7,0.1,0.9,0.4C84,79.8,84.1,80.1,84.1,80.4z"/>
<path class="st2" d="M92.9,89.2c0.3,0.2,0.5,0.5,0.6,0.8c0.2,0.4,0.2,0.7,0.2,1.1c0,0.8-0.3,1.7-1,2.2c-1.2,0.9-2.8,1.1-4.1,0.6
	c-0.4-0.1-0.7-0.3-1-0.6L87.4,94h-0.7l-0.1-3.3h0.7c0.1,0.3,0.2,0.6,0.3,0.9c0.2,0.3,0.4,0.6,0.6,0.9c0.3,0.3,0.6,0.5,0.9,0.7
	c0.4,0.2,0.8,0.3,1.2,0.3c0.5,0,1-0.1,1.4-0.5c0.3-0.3,0.5-0.8,0.5-1.2c0-0.2-0.1-0.5-0.2-0.7c-0.1-0.2-0.3-0.4-0.5-0.5
	c-0.2-0.2-0.5-0.3-0.8-0.4c-0.3-0.1-0.6-0.2-1-0.4c-0.3-0.1-0.7-0.2-1-0.4c-0.4-0.1-0.7-0.3-1-0.6c-0.3-0.2-0.6-0.5-0.7-0.9
	c-0.2-0.4-0.3-0.8-0.3-1.2c0-0.8,0.3-1.5,0.9-2c0.7-0.6,1.5-0.9,2.4-0.8c0.4,0,0.8,0.1,1.2,0.2c0.3,0.1,0.7,0.2,1,0.3l0.2-0.5H93
	l0.2,3.1h-0.7c-0.1-0.6-0.4-1.2-0.9-1.7c-0.4-0.4-1-0.6-1.6-0.6c-0.5,0-0.9,0.1-1.3,0.4c-0.3,0.2-0.5,0.6-0.5,1c0,0.3,0,0.5,0.2,0.7
	c0.1,0.2,0.3,0.4,0.4,0.5c0.2,0.1,0.5,0.3,0.7,0.4c0.3,0.1,0.7,0.2,1.1,0.4c0.4,0.1,0.8,0.3,1.2,0.5C92.3,88.8,92.6,89,92.9,89.2z"
	/>
<path class="st2" d="M99.6,94.2c-1.2,0.1-2.5-0.5-3.3-1.4c-1.2-1.6-1.5-3.7-0.9-5.6c0.2-0.6,0.5-1.1,0.9-1.6
	c0.4-0.5,0.9-0.9,1.4-1.1c0.6-0.3,1.2-0.5,1.9-0.5c0.8,0,1.6,0.2,2.3,0.7c0.6,0.4,0.9,1.1,0.9,1.8c0,0.3-0.1,0.6-0.2,0.9
	c-0.2,0.3-0.5,0.4-0.8,0.4c-0.3,0-0.6-0.1-0.9-0.3c-0.2-0.2-0.3-0.4-0.3-0.7c0-0.3,0-0.6,0.1-0.9c0.1-0.2,0.1-0.5,0.1-0.7
	c-0.1-0.2-0.3-0.3-0.5-0.4c-0.2-0.1-0.5-0.1-0.8-0.1c-0.3,0-0.6,0.1-0.9,0.2c-0.3,0.2-0.6,0.4-0.8,0.7c-0.3,0.4-0.5,0.8-0.6,1.3
	c-0.2,0.7-0.2,1.3-0.2,2c-0.1,1.1,0.2,2.1,0.8,3c0.5,0.7,1.3,1.2,2.1,1.2c0.6,0,1.1-0.1,1.6-0.5c0.5-0.4,0.9-0.8,1.2-1.4l0.6,0.4
	c-0.4,0.7-1,1.4-1.7,1.8C101.1,94,100.4,94.2,99.6,94.2z"/>
<path class="st2" d="M108.9,93.9h-4.7v-0.6h0.5c0.1,0,0.3,0,0.4-0.1c0.2,0,0.3-0.2,0.4-0.3c0.1-0.2,0.1-0.4,0.1-0.6v-6
	c0-0.2,0-0.4-0.1-0.6c-0.1-0.2-0.2-0.3-0.4-0.4c-0.2-0.1-0.4-0.2-0.5-0.2c-0.2-0.1-0.4-0.1-0.6-0.1v-0.6l3.4-0.2l0.1,0.1v7.8
	c0,0.2,0,0.4,0.1,0.6c0.1,0.2,0.2,0.3,0.4,0.3c0.1,0.1,0.3,0.1,0.4,0.1c0.2,0,0.3,0.1,0.5,0.1L108.9,93.9z M107.7,80.4
	c0,0.4-0.1,0.7-0.4,1c-0.2,0.3-0.6,0.4-0.9,0.4c-0.3,0-0.6-0.1-0.9-0.4c-0.2-0.2-0.4-0.6-0.4-0.9c0-0.3,0.1-0.7,0.4-0.9
	c0.2-0.3,0.5-0.4,0.9-0.4c0.3,0,0.7,0.1,0.9,0.4C107.5,79.8,107.7,80.1,107.7,80.4z"/>
<path class="st2" d="M118.9,85.5c0.4,0.5,0.7,1,0.9,1.6c0.2,0.7,0.3,1.4,0.3,2.1c0,0.7-0.1,1.4-0.4,2.1c-0.2,0.6-0.6,1.1-1,1.6
	c-0.4,0.4-0.9,0.8-1.5,1c-0.5,0.2-1.1,0.4-1.7,0.4c-0.5,0-1-0.1-1.4-0.2c-0.3-0.1-0.6-0.3-0.9-0.5h-0.1v2.9c0,0.2,0,0.4,0.1,0.6
	c0.1,0.2,0.2,0.3,0.4,0.3c0.2,0.1,0.4,0.1,0.7,0.2c0.2,0,0.5,0.1,0.7,0.1v0.6h-5.4v-0.6h0.6c0.2,0,0.3-0.1,0.5-0.1
	c0.2-0.1,0.3-0.2,0.4-0.3c0.1-0.2,0.1-0.4,0.1-0.6V86.3c0-0.2-0.1-0.4-0.2-0.6c-0.1-0.2-0.2-0.3-0.4-0.4c-0.2-0.1-0.3-0.2-0.5-0.2
	c-0.2,0-0.4-0.1-0.6-0.1v-0.6l3.3-0.2l0.1,0.1v1.1h0.1c0.4-0.4,0.8-0.8,1.3-1c0.5-0.2,1-0.4,1.5-0.4c0.6,0,1.1,0.1,1.7,0.4
	C118.1,84.7,118.5,85,118.9,85.5z M117.3,92.4c0.3-0.4,0.5-0.9,0.6-1.4c0.1-0.6,0.2-1.2,0.2-1.8c0-0.5-0.1-1-0.2-1.5
	c-0.1-0.5-0.3-0.9-0.5-1.3c-0.2-0.4-0.5-0.7-0.9-0.9c-0.4-0.2-0.8-0.4-1.3-0.3c-0.4,0-0.9,0.1-1.2,0.3c-0.3,0.2-0.6,0.5-0.9,0.8v5.7
	c0.1,0.2,0.2,0.4,0.3,0.6c0.1,0.2,0.3,0.3,0.4,0.5c0.2,0.2,0.4,0.3,0.7,0.4c0.3,0.1,0.6,0.2,0.9,0.2c0.4,0,0.7-0.1,1.1-0.3
	C116.8,93,117.1,92.7,117.3,92.4z"/>
<path class="st2" d="M126,93.9h-4.7v-0.6h0.5c0.1,0,0.3,0,0.4-0.1c0.2,0,0.3-0.2,0.4-0.3c0.1-0.2,0.1-0.4,0.1-0.6V81.1
	c0-0.2,0-0.5-0.2-0.7c-0.1-0.2-0.2-0.4-0.4-0.5c-0.2-0.1-0.4-0.2-0.6-0.2c-0.2-0.1-0.5-0.1-0.8-0.1V79l3.6-0.2l0.1,0.2v13.2
	c0,0.2,0,0.4,0.1,0.6c0.1,0.2,0.2,0.3,0.4,0.3c0.1,0.1,0.3,0.1,0.4,0.2c0.2,0,0.3,0.1,0.5,0.1L126,93.9z"/>
<path class="st2" d="M131.9,93.9h-4.7v-0.6h0.5c0.1,0,0.3,0,0.4-0.1c0.2,0,0.3-0.2,0.4-0.3c0.1-0.2,0.1-0.4,0.1-0.6v-6
	c0-0.2,0-0.4-0.1-0.6c-0.1-0.2-0.2-0.3-0.4-0.4c-0.2-0.1-0.4-0.2-0.5-0.2c-0.2-0.1-0.4-0.1-0.6-0.1v-0.6l3.4-0.2l0.1,0.1v7.8
	c0,0.2,0,0.4,0.1,0.6c0.1,0.2,0.2,0.3,0.4,0.3c0.1,0.1,0.3,0.1,0.4,0.1c0.2,0,0.3,0.1,0.5,0.1L131.9,93.9z M130.7,80.4
	c0,0.4-0.1,0.7-0.4,1c-0.2,0.3-0.6,0.4-0.9,0.4c-0.3,0-0.6-0.1-0.9-0.4c-0.2-0.2-0.4-0.6-0.4-0.9c0-0.3,0.1-0.7,0.4-0.9
	c0.2-0.3,0.5-0.4,0.9-0.4c0.3,0,0.7,0.1,0.9,0.4C130.6,79.8,130.7,80.1,130.7,80.4z"/>
<path class="st2" d="M143.7,93.9H139v-0.6h0.5c0.1,0,0.3,0,0.4-0.1c0.2,0,0.3-0.2,0.4-0.3c0.1-0.2,0.1-0.4,0.1-0.6v-5
	c0-0.6-0.1-1.1-0.5-1.6c-0.3-0.4-0.7-0.6-1.2-0.6c-0.3,0-0.6,0-0.9,0.2c-0.3,0.1-0.5,0.2-0.8,0.4c-0.2,0.1-0.4,0.3-0.5,0.5
	c-0.1,0.1-0.2,0.3-0.3,0.4v5.5c0,0.2,0,0.4,0.1,0.6c0.1,0.1,0.2,0.3,0.4,0.3c0.1,0.1,0.3,0.1,0.4,0.2c0.2,0,0.3,0.1,0.5,0.1v0.6
	h-4.7v-0.6h0.5c0.1,0,0.3,0,0.4-0.1c0.2,0,0.3-0.2,0.4-0.3c0.1-0.2,0.1-0.4,0.1-0.6v-6c0-0.2,0-0.4-0.1-0.6
	c-0.1-0.2-0.2-0.3-0.4-0.4c-0.1-0.1-0.3-0.1-0.4-0.2c-0.2,0-0.4-0.1-0.6-0.1v-0.6l3.2-0.2l0.1,0.1v1.4l0,0l0.6-0.6
	c0.2-0.2,0.4-0.4,0.7-0.5c0.3-0.2,0.6-0.3,0.9-0.4c0.4-0.1,0.7-0.2,1.1-0.2c0.8-0.1,1.6,0.3,2.1,0.9c0.5,0.7,0.7,1.5,0.7,2.3v5
	c0,0.2,0,0.4,0.1,0.6c0.1,0.2,0.2,0.3,0.4,0.3c0.1,0.1,0.3,0.1,0.4,0.1c0.2,0,0.3,0.1,0.5,0.1L143.7,93.9z"/>
<path class="st2" d="M153.5,91.7c-0.4,0.7-0.9,1.4-1.6,1.8c-0.7,0.5-1.5,0.7-2.3,0.7c-0.7,0-1.4-0.1-2-0.4c-0.6-0.2-1.1-0.6-1.5-1.1
	c-0.4-0.5-0.7-1-0.8-1.6c-0.2-0.6-0.3-1.3-0.3-2c0-0.6,0.1-1.2,0.3-1.8c0.2-0.6,0.5-1.1,0.9-1.6c0.4-0.5,0.8-0.8,1.4-1.1
	c0.6-0.3,1.2-0.4,1.9-0.4c0.6,0,1.2,0.1,1.8,0.3c0.5,0.2,0.9,0.5,1.2,0.9c0.3,0.4,0.5,0.8,0.7,1.3c0.2,0.5,0.2,1.1,0.2,1.6v0.6h-6.4
	c0,0.6,0.1,1.2,0.2,1.7c0.1,0.5,0.3,0.9,0.6,1.4c0.3,0.4,0.6,0.7,1,0.9c0.5,0.2,1,0.3,1.5,0.3c0.5,0,1.1-0.1,1.5-0.4
	c0.5-0.4,0.9-0.9,1.2-1.5L153.5,91.7z M151.3,88c0-0.4,0-0.8-0.1-1.2c-0.1-0.3-0.2-0.7-0.3-1c-0.1-0.3-0.4-0.5-0.6-0.7
	c-0.3-0.2-0.6-0.3-1-0.3c-0.7,0-1.3,0.3-1.7,0.8c-0.5,0.7-0.8,1.5-0.7,2.4L151.3,88z"/>
<path class="st2" d="M160.9,89.2c0.3,0.2,0.5,0.5,0.6,0.8c0.2,0.4,0.2,0.7,0.2,1.1c0,0.8-0.3,1.7-1,2.2c-1.2,0.9-2.8,1.1-4.1,0.6
	c-0.4-0.1-0.7-0.3-1-0.6l-0.2,0.6h-0.7l-0.1-3.3h0.7c0.1,0.3,0.2,0.6,0.3,0.9c0.2,0.3,0.4,0.6,0.6,0.9c0.3,0.3,0.6,0.5,0.9,0.7
	c0.4,0.2,0.8,0.3,1.2,0.3c0.5,0,1-0.1,1.4-0.4c0.3-0.3,0.5-0.8,0.5-1.2c0-0.2,0-0.5-0.2-0.7c-0.1-0.2-0.3-0.4-0.5-0.5
	c-0.2-0.2-0.5-0.3-0.8-0.4c-0.3-0.1-0.6-0.2-1-0.4c-0.3-0.1-0.7-0.2-1-0.4c-0.4-0.1-0.7-0.3-1-0.6c-0.3-0.2-0.5-0.5-0.7-0.8
	c-0.2-0.4-0.3-0.8-0.3-1.2c0-0.8,0.3-1.5,0.9-2c0.6-0.6,1.5-0.9,2.4-0.8c0.4,0,0.8,0.1,1.2,0.2c0.3,0.1,0.7,0.2,1,0.3l0.2-0.5h0.7
	l0.1,3.1h-0.7c-0.1-0.6-0.4-1.2-0.9-1.7c-0.4-0.4-1-0.7-1.7-0.7c-0.5,0-0.9,0.1-1.3,0.4c-0.3,0.2-0.5,0.6-0.5,1c0,0.3,0,0.5,0.1,0.7
	c0.1,0.2,0.3,0.4,0.4,0.5c0.2,0.1,0.5,0.3,0.7,0.4c0.3,0.1,0.7,0.2,1.1,0.4c0.4,0.1,0.8,0.3,1.2,0.5C160.4,88.8,160.7,89,160.9,89.2
	z"/>
<path class="st2" d="M94.4,113c0,0.7-0.1,1.4-0.3,2c-0.2,0.6-0.5,1.2-0.9,1.7c-0.4,0.5-1,0.9-1.6,1.2c-0.6,0.3-1.3,0.4-2,0.4
	c-0.6,0-1.2-0.1-1.8-0.3c-0.6-0.2-1.1-0.6-1.5-1c-0.4-0.5-0.8-1-1-1.6c-0.3-0.7-0.4-1.4-0.4-2.1c-0.1-1.4,0.4-2.7,1.3-3.7
	c1.9-1.9,4.9-1.9,6.8-0.1C93.9,110.4,94.4,111.7,94.4,113z M92.4,113c0-0.5-0.1-1-0.2-1.6c-0.1-0.5-0.2-0.9-0.4-1.4
	c-0.2-0.4-0.5-0.7-0.8-1c-0.4-0.3-0.8-0.4-1.2-0.4c-0.5,0-0.9,0.1-1.3,0.4c-0.4,0.3-0.7,0.6-0.9,1c-0.2,0.4-0.4,0.9-0.4,1.4
	c-0.1,0.5-0.1,1-0.1,1.6c0,0.6,0,1.2,0.2,1.7c0.1,0.5,0.2,1,0.5,1.4c0.2,0.4,0.5,0.7,0.8,1c0.4,0.2,0.8,0.4,1.2,0.4
	c0.8,0,1.6-0.5,1.9-1.2C92.2,115.3,92.4,114.2,92.4,113L92.4,113z"/>
<path class="st2" d="M102.9,104c0,0.3-0.1,0.5-0.2,0.7c-0.2,0.2-0.4,0.3-0.7,0.3c-0.2,0-0.4,0-0.5-0.1c-0.2-0.1-0.3-0.2-0.4-0.3
	c-0.1-0.2-0.3-0.3-0.4-0.5c-0.1-0.2-0.2-0.3-0.3-0.4c-0.4,0-0.8,0.3-1,0.9c-0.3,0.9-0.4,1.9-0.4,2.8v1h2.5v0.9H99v6.9
	c0,0.2,0,0.4,0.1,0.6c0.1,0.2,0.2,0.3,0.4,0.3c0.2,0.1,0.4,0.1,0.6,0.1l0.7,0.1v0.6h-5.1v-0.6h0.5c0.1,0,0.3,0,0.4-0.1
	c0.2,0,0.3-0.2,0.4-0.3c0.1-0.2,0.1-0.4,0.1-0.6v-7h-1.9v-0.9h1.9v-0.6c-0.1-1.3,0.3-2.5,1.1-3.6c0.7-0.9,1.7-1.4,2.8-1.4
	c0.5,0,0.9,0.1,1.3,0.3C102.7,103.4,102.9,103.7,102.9,104z"/>
<path class="st2" d="M64.6,135.8l-0.4,6.1H46.9v-1c0.3,0,0.7,0,1.2-0.1c0.3,0,0.7-0.1,1-0.2c0.3-0.1,0.5-0.3,0.7-0.6
	c0.1-0.3,0.2-0.6,0.2-0.9v-15c0-0.3,0-0.6-0.2-0.9c-0.1-0.3-0.4-0.5-0.7-0.6c-0.3-0.2-0.7-0.3-1.1-0.3c-0.3-0.1-0.7-0.1-1.1-0.2v-1
	h16v5h-1.1c-0.3-0.9-0.7-1.7-1.3-2.4c-0.4-0.7-1.1-1.2-1.8-1.4c-0.3,0-0.7-0.1-1.1-0.1c-0.4,0-0.9,0-1.4,0H53v8.3h2.3
	c0.6,0,1.1,0,1.7-0.2c0.4-0.2,0.7-0.4,0.9-0.7c0.2-0.3,0.4-0.7,0.5-1.1c0.1-0.4,0.2-0.9,0.3-1.3h1.1v8.1h-1.1c0-0.5-0.1-1-0.3-1.5
	c-0.1-0.4-0.3-0.8-0.5-1.1c-0.2-0.3-0.6-0.6-1-0.8c-0.5-0.1-1-0.2-1.5-0.2H53v6.2c0,0.5,0,1,0.1,1.5c0.1,0.3,0.2,0.6,0.5,0.8
	c0.3,0.2,0.6,0.3,1,0.4c0.6,0.1,1.3,0.1,1.9,0.1h1.3c0.4,0,0.9,0,1.3-0.1c0.4,0,0.8-0.1,1.2-0.2c0.3-0.1,0.6-0.2,0.8-0.4
	c0.6-0.6,1-1.4,1.4-2.1c0.4-0.7,0.7-1.4,0.9-2.1L64.6,135.8z"/>
<path class="st2" d="M80.2,141.9h-6.6v-1l1.1-0.1c0.3,0,0.5-0.2,0.5-0.4c0-0.1-0.1-0.3-0.2-0.4c-0.1-0.2-0.2-0.4-0.3-0.5l-1-1.5
	c-0.4-0.7-0.9-1.4-1.6-2.3c-0.5,0.7-1,1.3-1.4,1.9l-1.3,1.9c-0.1,0.1-0.1,0.2-0.2,0.4c-0.1,0.1-0.1,0.2-0.1,0.4
	c0,0.2,0.1,0.4,0.4,0.5c0.4,0.2,0.8,0.3,1.3,0.3v0.9h-5.4V141c0.6-0.2,1.1-0.4,1.6-0.7c0.4-0.3,0.8-0.6,1.1-1l1.3-1.6
	c0.5-0.7,1.2-1.6,2.1-2.8l-1.8-2.6l-1.8-2.6c-0.2-0.3-0.5-0.7-0.9-0.9c-0.4-0.3-0.9-0.4-1.4-0.3v-1H72v1c-0.3,0-0.6,0-0.9,0.1
	c-0.3,0-0.4,0.1-0.4,0.3c0,0.1,0,0.2,0.1,0.3c0.1,0.1,0.1,0.2,0.2,0.4l1,1.5c0.5,0.7,0.9,1.4,1.5,2.2l1.2-1.6
	c0.5-0.6,0.9-1.2,1.2-1.8c0-0.1,0.1-0.2,0.1-0.3c0-0.1,0.1-0.2,0.1-0.3c0-0.2-0.2-0.4-0.5-0.5c-0.3-0.1-0.7-0.2-1-0.3v-0.9h5.3v0.9
	c-0.6,0.1-1.2,0.4-1.8,0.7c-0.4,0.2-0.8,0.5-1.1,0.9c-0.3,0.4-0.7,0.9-1.2,1.5L74,134c0.9,1.3,1.6,2.3,2.2,3.1
	c0.6,0.8,1.1,1.6,1.7,2.5c0.3,0.4,0.6,0.7,0.9,1c0.4,0.3,0.9,0.4,1.4,0.4L80.2,141.9z"/>
<path class="st2" d="M94.3,138.6c-0.6,1.1-1.4,2.1-2.4,2.8c-1,0.7-2.3,1-3.5,1c-1,0-2.1-0.2-3.1-0.6c-0.8-0.4-1.6-1-2.2-1.7
	c-0.6-0.7-1-1.6-1.3-2.5c-0.3-1-0.4-2-0.4-3c0-0.9,0.2-1.9,0.4-2.8c0.3-0.9,0.7-1.7,1.3-2.4c0.6-0.7,1.3-1.3,2.1-1.7
	c0.9-0.4,1.8-0.7,2.8-0.6c0.9,0,1.9,0.1,2.7,0.5c0.7,0.3,1.4,0.8,1.8,1.5c0.5,0.6,0.8,1.2,1,1.9c0.2,0.8,0.3,1.6,0.3,2.4v1h-9.6
	c0,0.9,0.1,1.7,0.3,2.6c0.2,0.7,0.5,1.4,0.9,2c0.4,0.6,0.9,1,1.5,1.3c0.7,0.3,1.4,0.5,2.2,0.5c0.8,0,1.6-0.2,2.2-0.6
	c0.8-0.6,1.4-1.3,1.8-2.2L94.3,138.6z M91.1,133c0-0.6-0.1-1.2-0.1-1.8c-0.1-0.5-0.2-1.1-0.4-1.6c-0.2-0.4-0.5-0.8-0.9-1.1
	c-0.4-0.3-1-0.4-1.5-0.4c-1,0-2,0.5-2.6,1.3c-0.7,1-1.1,2.3-1.1,3.5H91.1z"/>
<path class="st2" d="M102.7,142.3c-1.9,0.1-3.7-0.7-4.9-2.1c-1.8-2.4-2.2-5.6-1.3-8.4c0.3-0.9,0.8-1.7,1.4-2.4
	c0.6-0.7,1.3-1.3,2.2-1.7c0.9-0.4,1.9-0.6,2.8-0.6c1.2-0.1,2.4,0.3,3.5,1c0.9,0.7,1.4,1.7,1.3,2.8c0,0.5-0.1,0.9-0.3,1.3
	c-0.3,0.4-0.7,0.6-1.2,0.6c-0.5,0-1-0.1-1.3-0.4c-0.3-0.2-0.5-0.6-0.5-1c0-0.5,0.1-0.9,0.2-1.4c0.1-0.3,0.2-0.7,0.2-1
	c-0.2-0.3-0.4-0.5-0.8-0.6c-0.4-0.1-0.7-0.2-1.1-0.1c-0.5,0-0.9,0.1-1.3,0.3c-0.5,0.3-0.9,0.6-1.2,1.1c-0.4,0.6-0.7,1.3-0.9,2
	c-0.2,1-0.4,2-0.3,3c-0.1,1.6,0.4,3.1,1.2,4.4c0.7,1.1,1.9,1.7,3.2,1.7c0.8,0,1.7-0.2,2.4-0.7c0.7-0.6,1.3-1.3,1.8-2.1l0.9,0.6
	c-0.6,1.1-1.5,2.1-2.6,2.7C104.9,142,103.8,142.3,102.7,142.3z"/>
<path class="st2" d="M125.1,141.7l-4.7,0.3l-0.2-0.2V140h-0.1c-0.2,0.2-0.5,0.5-0.8,0.8c-0.3,0.3-0.6,0.5-1,0.8
	c-0.4,0.2-0.8,0.4-1.3,0.6c-0.6,0.2-1.2,0.2-1.7,0.2c-1.1,0.1-2.2-0.4-2.9-1.2c-0.7-1.1-1.1-2.3-1-3.6v-6.9c0-0.3-0.1-0.6-0.2-0.9
	c-0.3-0.5-0.7-0.8-1.2-0.9c-0.3-0.1-0.6-0.1-0.8-0.1v-1l4.8-0.3l0.2,0.2v10c-0.1,0.8,0.2,1.7,0.7,2.4c0.4,0.5,1,0.8,1.7,0.8
	c0.5,0,1-0.1,1.4-0.2c0.4-0.1,0.7-0.3,1.1-0.6c0.3-0.2,0.5-0.4,0.7-0.6c0.2-0.2,0.3-0.4,0.5-0.6v-8.2c0-0.3-0.1-0.6-0.2-0.9
	c-0.1-0.3-0.3-0.5-0.6-0.6c-0.2-0.1-0.5-0.2-0.8-0.2l-1.2-0.1v-1l5.3-0.3l0.2,0.2V139c0,0.3,0.1,0.6,0.2,0.9
	c0.1,0.2,0.3,0.4,0.6,0.6c0.2,0.1,0.4,0.2,0.6,0.2c0.3,0,0.5,0.1,0.8,0.1L125.1,141.7z"/>
<path class="st2" d="M135.8,141.3c-0.7,0.3-1.3,0.5-1.8,0.7c-0.7,0.2-1.4,0.3-2.1,0.3c-0.9,0.1-1.9-0.2-2.6-0.9
	c-0.5-0.8-0.8-1.7-0.7-2.6V129H126v-1.4h2.7v-4.5h2.7v4.5h4.1v1.4h-4.1v8c0,0.5,0,1,0.1,1.5c0,0.4,0.1,0.7,0.3,1.1
	c0.2,0.3,0.4,0.5,0.7,0.6c0.4,0.2,0.8,0.2,1.3,0.2c0.2,0,0.6,0,1.1-0.1c0.3,0,0.7-0.1,1-0.2L135.8,141.3z"/>
<path class="st2" d="M144.2,141.9h-7v-1l0.7-0.1c0.2,0,0.4-0.1,0.6-0.1c0.3-0.1,0.5-0.2,0.6-0.5c0.1-0.3,0.2-0.6,0.2-0.9v-8.9
	c0-0.3-0.1-0.6-0.2-0.9c-0.1-0.3-0.3-0.5-0.6-0.6c-0.3-0.1-0.5-0.2-0.8-0.3c-0.3-0.1-0.7-0.1-1-0.1v-1l5.1-0.3l0.2,0.2v11.8
	c0,0.3,0.1,0.6,0.2,0.9c0.1,0.2,0.4,0.4,0.6,0.5c0.2,0.1,0.4,0.2,0.6,0.2c0.2,0.1,0.5,0.1,0.7,0.1L144.2,141.9z M142.4,121.6
	c0,0.5-0.2,1.1-0.6,1.5c-0.3,0.4-0.8,0.6-1.4,0.6c-0.5,0-1-0.2-1.3-0.6c-0.4-0.4-0.6-0.9-0.6-1.4c0-0.5,0.2-1,0.6-1.4
	c0.3-0.4,0.8-0.6,1.3-0.6c0.5,0,1,0.2,1.4,0.6C142.2,120.7,142.4,121.1,142.4,121.6z"/>
<path class="st2" d="M160.1,134.6c0,1-0.2,2-0.5,3c-0.3,0.9-0.8,1.8-1.4,2.5c-0.6,0.8-1.4,1.3-2.4,1.7c-1,0.4-2,0.6-3,0.6
	c-0.9,0-1.8-0.2-2.6-0.5c-0.8-0.4-1.6-0.9-2.2-1.5c-0.7-0.7-1.2-1.5-1.5-2.4c-0.4-1-0.6-2.1-0.6-3.2c-0.1-2,0.6-4,2-5.5
	c2.8-2.8,7.3-2.9,10.2-0.1C159.5,130.6,160.2,132.6,160.1,134.6z M157.1,134.6c0-0.8-0.1-1.6-0.2-2.3c-0.1-0.7-0.3-1.4-0.7-2.1
	c-0.3-0.6-0.7-1.1-1.2-1.5c-0.5-0.4-1.2-0.6-1.9-0.6c-0.7,0-1.4,0.2-1.9,0.6c-0.6,0.4-1,0.9-1.3,1.5c-0.3,0.6-0.5,1.3-0.7,2
	c-0.1,0.7-0.2,1.5-0.2,2.2c0,0.9,0.1,1.7,0.2,2.6c0.1,0.7,0.4,1.5,0.7,2.1c0.3,0.6,0.7,1.1,1.2,1.5c0.6,0.4,1.2,0.6,1.9,0.5
	c1.2,0,2.3-0.7,2.9-1.7C156.8,138,157.1,136.3,157.1,134.6L157.1,134.6z"/>
<path class="st2" d="M178.1,141.9h-7.1v-1l0.7-0.1c0.2,0,0.5-0.1,0.7-0.1c0.3-0.1,0.5-0.2,0.6-0.5c0.1-0.3,0.2-0.6,0.2-0.9V132
	c0.1-0.9-0.2-1.7-0.7-2.4c-0.4-0.5-1.1-0.8-1.8-0.8c-0.5,0-1,0.1-1.4,0.2c-0.4,0.1-0.8,0.3-1.1,0.6c-0.3,0.2-0.6,0.4-0.8,0.7
	c-0.2,0.2-0.3,0.4-0.4,0.6v8.3c0,0.3,0.1,0.6,0.2,0.8c0.2,0.2,0.4,0.4,0.6,0.5c0.2,0.1,0.4,0.2,0.7,0.2c0.2,0,0.5,0.1,0.7,0.1v1
	h-7.1v-1l0.7-0.1c0.2,0,0.4-0.1,0.6-0.1c0.3-0.1,0.5-0.2,0.6-0.5c0.1-0.3,0.2-0.6,0.2-0.9v-8.9c0-0.3-0.1-0.6-0.2-0.9
	c-0.1-0.3-0.3-0.5-0.6-0.7c-0.2-0.1-0.4-0.2-0.7-0.3c-0.3-0.1-0.5-0.1-0.8-0.1v-1l4.8-0.3l0.2,0.2v2h0.1l0.9-0.8
	c0.3-0.3,0.6-0.6,1-0.8c0.4-0.3,0.8-0.5,1.3-0.6c0.5-0.2,1.1-0.2,1.7-0.2c1.2-0.1,2.3,0.4,3.1,1.3c0.7,1,1.1,2.2,1,3.4v7.5
	c0,0.3,0.1,0.6,0.2,0.8c0.1,0.2,0.3,0.4,0.6,0.5c0.2,0.1,0.4,0.2,0.6,0.2c0.2,0,0.5,0.1,0.7,0.1L178.1,141.9z"/>
<path class="st1" d="M47.2,98.9h-5.6v12.4h-5.2V98.9H18.9v-4.2L38,71.3h3.6v24h5.5L47.2,98.9z M36.3,95.3V77.4L21.6,95.3H36.3z"/>
</svg>
