<svg id="Layer_1" data-name="Layer 1" xmlns="http://www.w3.org/2000/svg" xmlns:xlink="http://www.w3.org/1999/xlink" viewBox="0 0 200 260"><defs><pattern id="New_Pattern" data-name="New Pattern" width="22.19" height="21" patternUnits="userSpaceOnUse" viewBox="0 0 22.19 21"><rect width="22.19" height="21" style="fill:none"/><g style="opacity:0.30000000000000004"><path d="M7.14,3.64h0A1.71,1.71,0,0,0,5.43,1.93h0A1.71,1.71,0,0,0,3.71,3.64h0A1.71,1.71,0,0,0,5.43,5.36h0A1.71,1.71,0,0,0,7.14,3.64Z" style="fill:none;stroke:#fff;stroke-miterlimit:10"/><path d="M7.14,14.79H8.86V9.64A1.71,1.71,0,0,0,7.14,7.93H3.71A1.71,1.71,0,0,0,2,9.64v5.14H3.71v4.29H7.14Z" style="fill:none;stroke:#fff;stroke-miterlimit:10"/><path d="M17.43,3.64h0a1.71,1.71,0,0,0-1.71-1.71h0A1.71,1.71,0,0,0,14,3.64h0a1.71,1.71,0,0,0,1.71,1.71h0A1.71,1.71,0,0,0,17.43,3.64Z" style="fill:none;stroke:#fff;stroke-miterlimit:10"/><polygon points="17.43 15.64 20 15.64 17.43 7.93 14 7.93 11.43 15.64 14 15.64 14 19.07 17.43 19.07 17.43 15.64" style="fill:none;stroke:#fff;stroke-miterlimit:10"/></g></pattern></defs><title>book-social-animal</title><rect x="0.17" width="199.65" height="260" style="fill:#9a2a30"/><rect x="0.17" width="199.65" height="260" style="opacity:0.4;fill:url(#New_Pattern)"/><path d="M22.93,46.14V23.54H16.3v-4.6H34v4.6H27.42v22.6Z" style="fill:#fff"/><path d="M43,46.14V18.94h4.49V29.64h8.85V18.94h4.49v27.2H56.38V34.25H47.53V46.14Z" style="fill:#fff"/><path d="M71.6,46.14V18.94H88.16v4.6H76.09v6H87.3v4.58H76.09v7.38H88.56v4.6Z" style="fill:#fff"/><path d="M16.77,82.27l4.4-.52Q21.91,87,26,87a4.58,4.58,0,0,0,3.21-1.07,3.43,3.43,0,0,0,1.17-2.64A2.91,2.91,0,0,0,30,81.68a3,3,0,0,0-1.24-1.07,34.71,34.71,0,0,0-4-1.4,13.67,13.67,0,0,1-4.21-1.89,7.17,7.17,0,0,1-2.12-2.68,8.21,8.21,0,0,1-.79-3.57,8,8,0,0,1,1-4,6.62,6.62,0,0,1,2.79-2.69,9.61,9.61,0,0,1,4.4-.91,8.47,8.47,0,0,1,6.14,2.13,8.51,8.51,0,0,1,2.34,6.1L29.76,72a4.88,4.88,0,0,0-1.28-3.06,4.09,4.09,0,0,0-2.8-.87,4.5,4.5,0,0,0-2.8.76,2.3,2.3,0,0,0-1,1.89,2.36,2.36,0,0,0,.89,1.87,12.65,12.65,0,0,0,4.1,1.67,16.84,16.84,0,0,1,4.91,2.07,7,7,0,0,1,2.31,2.8,9.83,9.83,0,0,1,.8,4.17,8.56,8.56,0,0,1-2.18,6Q30.54,91.6,25.9,91.6,17.7,91.6,16.77,82.27Z" style="fill:#fff"/><path d="M43.85,77.71a19.31,19.31,0,0,1,1.44-8A10.83,10.83,0,0,1,49,65a9.93,9.93,0,0,1,5.62-1.54,9.65,9.65,0,0,1,7.8,3.66q3,3.66,3,10.41T62.3,88.21a9.34,9.34,0,0,1-7.61,3.4A9.43,9.43,0,0,1,47,88.24Q43.85,84.4,43.85,77.71Zm4.64-.19q0,4.69,1.78,7a5.37,5.37,0,0,0,4.42,2.35,5.3,5.3,0,0,0,4.4-2.33q1.75-2.33,1.75-7.15t-1.7-7a5.31,5.31,0,0,0-4.45-2.26,5.37,5.37,0,0,0-4.48,2.28Q48.49,72.73,48.49,77.52Z" style="fill:#fff"/><path d="M89.38,81.14l4.36,1.69q-1,4.56-3.4,6.67A8.49,8.49,0,0,1,84.5,91.6a8.65,8.65,0,0,1-7.07-3.36q-3.12-3.88-3.12-10.46,0-7,3.14-10.89a8.91,8.91,0,0,1,7.34-3.41A8.46,8.46,0,0,1,91.07,66a11.11,11.11,0,0,1,2.64,5.4l-4.45,1.3a6,6,0,0,0-1.7-3.39,4.28,4.28,0,0,0-3-1.18,4.78,4.78,0,0,0-4,2.15Q79,72.47,79,77.43q0,5.14,1.52,7.31a4.63,4.63,0,0,0,4,2.17,4.09,4.09,0,0,0,3.08-1.38A8.77,8.77,0,0,0,89.38,81.14Z" style="fill:#fff"/><path d="M103.53,91.14V63.94H108v27.2Z" style="fill:#fff"/><path d="M138.54,91.14h-4.88l-2-6.16h-8.93l-1.84,6.16h-4.79l8.69-27.2h4.77Zm-8.29-10.76-3.08-10.09-3,10.09Z" style="fill:#fff"/><path d="M147.1,91.14v-27h4.49V86.54H162.8v4.6Z" style="fill:#fff"/><path d="M38,136.14H33.15l-2-6.16H22.27l-1.84,6.16H15.64l8.69-27.2h4.77Zm-8.29-10.76-3.08-10.09-3,10.09Z" style="fill:#fff"/><path d="M46.52,136.14v-27.2H50.9L60,127.1V108.94h4.19v27.2H59.7l-9-17.74v17.74Z" style="fill:#fff"/><path d="M74.91,136.14v-27.2H79.4v27.2Z" style="fill:#fff"/><path d="M89.73,136.14v-27.2h6.73l4.06,18.57,4-18.57h6.77v27.2h-4.19V114.71l-4.45,21.43H98.33l-4.41-21.43v21.43Z" style="fill:#fff"/><path d="M142,136.14h-4.88l-2-6.16h-8.93l-1.84,6.16h-4.79l8.69-27.2H133Zm-8.29-10.76-3.08-10.09-3,10.09Z" style="fill:#fff"/><path d="M150.52,136.14v-27H155v22.38h11.21v4.6Z" style="fill:#fff"/><path d="M17.88,163.94h8.21a12.23,12.23,0,0,1,4.7.7A7.89,7.89,0,0,1,33.71,167a12.09,12.09,0,0,1,2.09,4.29,24,24,0,0,1,.76,6.55,21.07,21.07,0,0,1-.8,6.13,12.32,12.32,0,0,1-2,4.13,7.84,7.84,0,0,1-3,2.29,11.06,11.06,0,0,1-4.46.77H17.88Zm4.49,4.6v18h3.38a8.81,8.81,0,0,0,3.15-.41,3.81,3.81,0,0,0,1.6-1.23,7.07,7.07,0,0,0,1-2.6,21.75,21.75,0,0,0,.41-4.69,21.31,21.31,0,0,0-.42-4.76,6.29,6.29,0,0,0-1.3-2.74,4.13,4.13,0,0,0-2.14-1.32,17.77,17.77,0,0,0-3.66-.24Z" style="fill:#fff"/><path d="M66.6,191.14H61.72l-2-6.16H50.84L49,191.14H44.21l8.69-27.2h4.77Zm-8.29-10.76-3.08-10.09-3,10.09Z" style="fill:#fff"/><path d="M78.47,191.14l-8-27.2h4.88L81,184.07l5.46-20.13h4.79l-8,27.2Z" style="fill:#fff"/><path d="M99.49,191.14v-27.2H104v27.2Z" style="fill:#fff"/><path d="M114.34,163.94h8.21a12.23,12.23,0,0,1,4.7.7,7.89,7.89,0,0,1,2.92,2.35,12.09,12.09,0,0,1,2.09,4.29,24,24,0,0,1,.76,6.55,21.07,21.07,0,0,1-.8,6.13,12.32,12.32,0,0,1-2,4.13,7.84,7.84,0,0,1-3,2.29,11.06,11.06,0,0,1-4.46.77h-8.45Zm4.49,4.6v18h3.38a8.81,8.81,0,0,0,3.15-.41,3.81,3.81,0,0,0,1.6-1.23,7.07,7.07,0,0,0,1-2.6,21.75,21.75,0,0,0,.41-4.69,21.31,21.31,0,0,0-.42-4.76,6.29,6.29,0,0,0-1.3-2.74,4.13,4.13,0,0,0-2.14-1.32,17.77,17.77,0,0,0-3.66-.24Z" style="fill:#fff"/><path d="M17.9,208.94h8.93a13.85,13.85,0,0,1,5.15.67A5.7,5.7,0,0,1,34.49,212a7.65,7.65,0,0,1,.15,7.38,5.74,5.74,0,0,1-2.27,2.35,6,6,0,0,1,3.1,2.41,7.41,7.41,0,0,1,1.12,4.16,8.56,8.56,0,0,1-1.43,5,5.86,5.86,0,0,1-3.38,2.53,35,35,0,0,1-6.29.33H17.9Zm4.49,4.53v6.29h3a32.73,32.73,0,0,0,3.3-.09,2.81,2.81,0,0,0,1.8-1,3.27,3.27,0,0,0,.65-2.14,3.32,3.32,0,0,0-.53-2,2.2,2.2,0,0,0-1.28-.94,27.4,27.4,0,0,0-4.31-.19Zm0,10.82v7.25h4.18a13.1,13.1,0,0,0,3.53-.29,2.62,2.62,0,0,0,1.31-1.13,4.55,4.55,0,0,0,0-4.33,2.89,2.89,0,0,0-1.51-1.18,14.33,14.33,0,0,0-3.84-.32Z" style="fill:#fff"/><path d="M46.49,236.14v-27.2H56a13.22,13.22,0,0,1,5.2.73,5.76,5.76,0,0,1,2.56,2.54,8.81,8.81,0,0,1,1,4.33,8.08,8.08,0,0,1-1.53,5.14,6.81,6.81,0,0,1-4.35,2.45,11.27,11.27,0,0,1,2.39,2.27,32.28,32.28,0,0,1,2.58,4.43l2.71,5.31H61.15l-3.26-5.92a38.92,38.92,0,0,0-2.39-4,3.52,3.52,0,0,0-1.34-1.11,6.09,6.09,0,0,0-2.26-.31H51v11.36ZM51,220.44h3.34a16.68,16.68,0,0,0,3.9-.27,2.48,2.48,0,0,0,1.35-1.08,4,4,0,0,0,.52-2.17,3.75,3.75,0,0,0-.52-2.09,2.65,2.65,0,0,0-1.41-1.08,17.86,17.86,0,0,0-3.66-.2H51Z" style="fill:#fff"/><path d="M74.13,222.71a19.31,19.31,0,0,1,1.44-8A10.83,10.83,0,0,1,79.32,210a9.93,9.93,0,0,1,5.62-1.54,9.65,9.65,0,0,1,7.8,3.66q3,3.66,3,10.41t-3.19,10.67a10.3,10.3,0,0,1-15.25,0Q74.13,229.4,74.13,222.71Zm4.64-.19q0,4.69,1.78,7A5.37,5.37,0,0,0,85,231.91a5.3,5.3,0,0,0,4.4-2.33q1.75-2.33,1.75-7.15t-1.7-7A5.31,5.31,0,0,0,85,213.17a5.37,5.37,0,0,0-4.48,2.28Q78.77,217.73,78.77,222.52Z" style="fill:#fff"/><path d="M104.46,222.71a19.31,19.31,0,0,1,1.44-8,10.83,10.83,0,0,1,3.76-4.69,9.93,9.93,0,0,1,5.62-1.54,9.65,9.65,0,0,1,7.8,3.66q3,3.66,3,10.41t-3.19,10.67a10.3,10.3,0,0,1-15.25,0Q104.46,229.4,104.46,222.71Zm4.64-.19q0,4.69,1.78,7a5.37,5.37,0,0,0,4.42,2.35,5.3,5.3,0,0,0,4.4-2.33q1.75-2.33,1.75-7.15t-1.7-7a5.31,5.31,0,0,0-4.45-2.26,5.37,5.37,0,0,0-4.48,2.28Q109.1,217.73,109.1,222.52Z" style="fill:#fff"/><path d="M135.75,236.14v-27.2h4.49V221l9.12-12.11h6.07L147,219.54l8.86,16.6H150l-6.15-12.78-3.65,4.56v8.22Z" style="fill:#fff"/><path d="M163.14,227.27l4.4-.52q.74,5.21,4.86,5.21a4.58,4.58,0,0,0,3.21-1.07,3.43,3.43,0,0,0,1.17-2.64,2.91,2.91,0,0,0-.41-1.58,3,3,0,0,0-1.24-1.07,34.71,34.71,0,0,0-4-1.4,13.67,13.67,0,0,1-4.21-1.89,7.17,7.17,0,0,1-2.12-2.68,8.21,8.21,0,0,1-.79-3.57,8,8,0,0,1,1-4,6.62,6.62,0,0,1,2.79-2.69,9.61,9.61,0,0,1,4.4-.91,7.73,7.73,0,0,1,8.48,8.24l-4.51.24a4.88,4.88,0,0,0-1.28-3.06A4.09,4.09,0,0,0,172,213a4.5,4.5,0,0,0-2.8.76,2.3,2.3,0,0,0-1,1.89,2.36,2.36,0,0,0,.89,1.87,12.65,12.65,0,0,0,4.1,1.67,16.84,16.84,0,0,1,4.91,2.07,7,7,0,0,1,2.31,2.8,9.83,9.83,0,0,1,.8,4.17,8.56,8.56,0,0,1-2.18,6q-2.18,2.41-6.82,2.41Q164.06,236.6,163.14,227.27Z" style="fill:#fff"/><line x1="15.64" y1="149.82" x2="182.36" y2="149.82" style="fill:none;stroke:#ffda4b;stroke-miterlimit:10"/></svg>