<svg id="Layer_1" data-name="Layer 1" xmlns="http://www.w3.org/2000/svg" viewBox="0 0 200 260"><title>book-smarter-better-faster</title><rect x="0.17" width="199.65" height="260" style="fill:#fe6319"/><path d="M37.06,25a5.48,5.48,0,0,0-3.78-1.62,2.81,2.81,0,0,0-2.19.78,2,2,0,0,0-.57,1.42A1.58,1.58,0,0,0,31,26.87a9,9,0,0,0,2.83,1.28l1.69.64a9,9,0,0,1,3.07,1.72,5.61,5.61,0,0,1,1.65,4.18,8.06,8.06,0,0,1-2,5.56c-2,2.09-4.89,2.29-6.37,2.29a9.53,9.53,0,0,1-4.45-.94,14.28,14.28,0,0,1-3.3-2.46l2.7-3.71a13.76,13.76,0,0,0,2.09,1.72,5.23,5.23,0,0,0,2.83.81,3.59,3.59,0,0,0,2.36-.78,2.33,2.33,0,0,0,.81-1.82,2,2,0,0,0-.78-1.62,11,11,0,0,0-2.63-1.25l-1.85-.64a7.58,7.58,0,0,1-3.14-1.79,5.53,5.53,0,0,1-1.35-3.91,6.91,6.91,0,0,1,2-5.06A7.25,7.25,0,0,1,32.71,19a10.87,10.87,0,0,1,6.68,2.23Z" style="fill:#fff"/><path d="M43.44,27h4.86v1.75a4.75,4.75,0,0,1,4.22-2.12,5.6,5.6,0,0,1,2.83.67,4.45,4.45,0,0,1,1.82,2.09,5.78,5.78,0,0,1,5.13-2.77A6,6,0,0,1,66.5,28a6.06,6.06,0,0,1,1.55,4.48V42H63.2V34.42a5,5,0,0,0-.64-2.93,2.23,2.23,0,0,0-1.75-.81,2.33,2.33,0,0,0-1.89.91,4.83,4.83,0,0,0-.74,3V42H53.32V34.22a4,4,0,0,0-.78-2.93,2.18,2.18,0,0,0-1.62-.61,2.37,2.37,0,0,0-1.69.61,4.57,4.57,0,0,0-.94,3.07V42H43.44Z" style="fill:#fff"/><path d="M83.4,27h4.86V42H83.4V40.22A5,5,0,0,1,79,42.55a7.13,7.13,0,0,1-5.63-2.29,8,8,0,0,1-2.19-5.63,8.56,8.56,0,0,1,2.33-6.07,7.25,7.25,0,0,1,5.23-2.06,5.64,5.64,0,0,1,4.72,2.19Zm-6.17,4.75a3.76,3.76,0,0,0-1.11,2.73,3.88,3.88,0,0,0,1,2.7A4,4,0,0,0,80,38.37a3.6,3.6,0,0,0,2.53-1,4,4,0,0,0,.07-5.6,4.07,4.07,0,0,0-2.7-1A3.83,3.83,0,0,0,77.23,31.76Z" style="fill:#fff"/><path d="M92,27H96.9v2.36a5.41,5.41,0,0,1,1.89-2.09,4.65,4.65,0,0,1,2.6-.64,4.87,4.87,0,0,1,1.58.24l-.27,4.55a4.58,4.58,0,0,0-2.19-.54,3.17,3.17,0,0,0-2.43,1,5.71,5.71,0,0,0-1.18,4V42H92Z" style="fill:#fff"/><path d="M111.06,30.92V42h-4.86V30.92h-1.69V27h1.69V22.15h4.86V27h3v3.91Z" style="fill:#fff"/><path d="M131.57,35.37H120.34a4.1,4.1,0,0,0,.91,2.56,3.26,3.26,0,0,0,2.5.94,4,4,0,0,0,2-.44,2.94,2.94,0,0,0,1-1.25l4.59.47a6.72,6.72,0,0,1-2.9,3.78,8.93,8.93,0,0,1-4.75,1.11,7.78,7.78,0,0,1-6-2.16,8.08,8.08,0,0,1-2.26-5.8,8.57,8.57,0,0,1,2.29-5.94,8.9,8.9,0,0,1,11.74.1,8.58,8.58,0,0,1,2.13,6.1Zm-4.49-2.9a3.82,3.82,0,0,0-1-1.75,3.56,3.56,0,0,0-4.75.13,3.37,3.37,0,0,0-.84,1.62Z" style="fill:#fff"/><path d="M134.61,27h4.86v2.36a5.41,5.41,0,0,1,1.89-2.09,4.65,4.65,0,0,1,2.6-.64,4.87,4.87,0,0,1,1.58.24l-.27,4.55a4.58,4.58,0,0,0-2.19-.54,3.17,3.17,0,0,0-2.43,1,5.71,5.71,0,0,0-1.18,4V42h-4.86Z" style="fill:#fff"/><path d="M61.51,52.6H54.23V57H61v4.38H54.23v9.38H49V48.22H61.51Z" style="fill:#fff"/><path d="M75.17,55.67H80v15H75.17V68.89a5,5,0,0,1-4.45,2.33,7.13,7.13,0,0,1-5.63-2.29,8,8,0,0,1-2.19-5.63,8.56,8.56,0,0,1,2.33-6.07,7.25,7.25,0,0,1,5.23-2.06,5.64,5.64,0,0,1,4.72,2.19ZM69,60.43a3.76,3.76,0,0,0-1.11,2.73,3.88,3.88,0,0,0,1,2.7A4,4,0,0,0,71.77,67a3.6,3.6,0,0,0,2.53-1,4,4,0,0,0,.07-5.6,4.07,4.07,0,0,0-2.7-1A3.83,3.83,0,0,0,69,60.43Z" style="fill:#fff"/><path d="M93,59.52a5.52,5.52,0,0,0-2.66-.84,2.06,2.06,0,0,0-1.38.44,1,1,0,0,0-.3.67.79.79,0,0,0,.47.67,8.72,8.72,0,0,0,1.45.5l1.28.41a6.38,6.38,0,0,1,2.5,1.32,3.59,3.59,0,0,1,1.18,2.87A5.46,5.46,0,0,1,94,69.5a6.5,6.5,0,0,1-4.89,1.72,8.94,8.94,0,0,1-6.17-2.16L85,65.79a8.36,8.36,0,0,0,1.65,1.11,4.54,4.54,0,0,0,2,.47A2.72,2.72,0,0,0,90.18,67a1.28,1.28,0,0,0,.51-1,1,1,0,0,0-.54-.88,6.46,6.46,0,0,0-1.48-.54l-1.21-.37A6,6,0,0,1,85,62.89a3.71,3.71,0,0,1-1.08-2.73,4.66,4.66,0,0,1,1.45-3.47,6.63,6.63,0,0,1,4.55-1.52,9.49,9.49,0,0,1,5,1.28Z" style="fill:#fff"/><path d="M103.44,59.58V70.71H98.58V59.58H96.9V55.67h1.69V50.82h4.86v4.86h3v3.91Z" style="fill:#fff"/><path d="M123.94,64H112.71a4.1,4.1,0,0,0,.91,2.56,3.26,3.26,0,0,0,2.5.94,4,4,0,0,0,2-.44,2.94,2.94,0,0,0,1-1.25l4.59.47a6.72,6.72,0,0,1-2.9,3.78,8.93,8.93,0,0,1-4.75,1.11,7.78,7.78,0,0,1-6-2.16,8.08,8.08,0,0,1-2.26-5.8,8.57,8.57,0,0,1,2.29-5.94,8.9,8.9,0,0,1,11.74.1,8.58,8.58,0,0,1,2.13,6.1Zm-4.49-2.9a3.83,3.83,0,0,0-1-1.75,3.56,3.56,0,0,0-4.75.14,3.38,3.38,0,0,0-.84,1.62Z" style="fill:#fff"/><path d="M127,55.67h4.86V58a5.41,5.41,0,0,1,1.89-2.09,4.65,4.65,0,0,1,2.6-.64,4.87,4.87,0,0,1,1.58.24l-.27,4.55a4.58,4.58,0,0,0-2.19-.54,3.17,3.17,0,0,0-2.43,1,5.71,5.71,0,0,0-1.18,4v6.1H127Z" style="fill:#fff"/><path d="M95.21,76.89c1.21,0,4,.07,5.73,1.72a5.8,5.8,0,0,1,1.62,4.25,5.28,5.28,0,0,1-.74,2.87,4.12,4.12,0,0,1-1.89,1.65,5.85,5.85,0,0,1,3.1,1.52,5.49,5.49,0,0,1,1.45,4,6.16,6.16,0,0,1-1.75,4.55c-1.86,1.79-4.55,1.92-5.94,1.92H88.33V76.89ZM93.45,86h.84a4.82,4.82,0,0,0,2.63-.64,2.39,2.39,0,0,0,.91-2A2.29,2.29,0,0,0,97,81.51a4.32,4.32,0,0,0-2.7-.57h-.81Zm0,9.31H94.7c1.32,0,2.9,0,3.84-.91a2.49,2.49,0,0,0,.74-1.89,2.42,2.42,0,0,0-.71-1.82c-.91-.84-2.66-.84-3.71-.84H93.45Z" style="fill:#fff"/><path d="M123.2,92.71H112a4.1,4.1,0,0,0,.91,2.56,3.26,3.26,0,0,0,2.5.94,4,4,0,0,0,2-.44,2.94,2.94,0,0,0,1-1.25L123,95a6.72,6.72,0,0,1-2.9,3.78,8.93,8.93,0,0,1-4.75,1.11,7.78,7.78,0,0,1-6-2.16,8.08,8.08,0,0,1-2.26-5.8A8.57,8.57,0,0,1,109.34,86a8.9,8.9,0,0,1,11.74.1,8.58,8.58,0,0,1,2.13,6.1Zm-4.49-2.9a3.83,3.83,0,0,0-1-1.75,3.56,3.56,0,0,0-4.75.14,3.38,3.38,0,0,0-.84,1.62Z" style="fill:#fff"/><path d="M131.23,88.25V99.38h-4.86V88.25h-1.69V84.34h1.69V79.49h4.86v4.86h3v3.91Z" style="fill:#fff"/><path d="M142.39,88.25V99.38h-4.86V88.25h-1.69V84.34h1.69V79.49h4.86v4.86h3v3.91Z" style="fill:#fff"/><path d="M162.9,92.71H151.67a4.1,4.1,0,0,0,.91,2.56,3.26,3.26,0,0,0,2.5.94,4,4,0,0,0,2-.44,2.94,2.94,0,0,0,1-1.25l4.59.47a6.72,6.72,0,0,1-2.9,3.78A8.93,8.93,0,0,1,155,99.89a7.78,7.78,0,0,1-6-2.16,8.08,8.08,0,0,1-2.26-5.8A8.57,8.57,0,0,1,149,86a8.9,8.9,0,0,1,11.74.1,8.58,8.58,0,0,1,2.13,6.1Zm-4.49-2.9a3.83,3.83,0,0,0-1-1.75,3.56,3.56,0,0,0-4.75.14,3.38,3.38,0,0,0-.84,1.62Z" style="fill:#fff"/><path d="M165.94,84.34h4.86V86.7a5.41,5.41,0,0,1,1.89-2.09,4.65,4.65,0,0,1,2.6-.64,4.87,4.87,0,0,1,1.58.24l-.27,4.55a4.58,4.58,0,0,0-2.19-.54,3.17,3.17,0,0,0-2.43,1,5.71,5.71,0,0,0-1.18,4v6.1h-4.86Z" style="fill:#fff"/><path d="M42,244.15a6.21,6.21,0,0,1-2.94.72,7.14,7.14,0,0,1-5.24-1.94,7.15,7.15,0,0,1,0-10.08,7.08,7.08,0,0,1,5-1.92,7.94,7.94,0,0,1,3.2.74v3.56a4.23,4.23,0,0,0-3.12-1.42,3.74,3.74,0,0,0-2.72,1,4.27,4.27,0,0,0-1.26,3.08A3.9,3.9,0,0,0,39,242,4.21,4.21,0,0,0,42,240.61Z" style="fill:#fff"/><path d="M44.22,230H47.1v6.72a3.64,3.64,0,0,1,1.08-.92,3.36,3.36,0,0,1,1.74-.38,3.4,3.4,0,0,1,2.52.9,3.53,3.53,0,0,1,.88,2.6v5.66H50.44V240a2.4,2.4,0,0,0-.48-1.78,1.63,1.63,0,0,0-1.12-.4,1.56,1.56,0,0,0-1.14.44,2.54,2.54,0,0,0-.6,1.86v4.46H44.22Z" style="fill:#fff"/><path d="M62,235.65h2.88v8.92H62v-1.08a3,3,0,0,1-2.64,1.38A4.23,4.23,0,0,1,56,243.51a4.72,4.72,0,0,1-1.3-3.34,5.08,5.08,0,0,1,1.38-3.6,4.3,4.3,0,0,1,3.1-1.22,3.35,3.35,0,0,1,2.8,1.3Zm-3.66,2.82a2.23,2.23,0,0,0-.66,1.62,2.3,2.3,0,0,0,.6,1.6,2.36,2.36,0,0,0,1.7.7,2.13,2.13,0,0,0,1.5-.62,2.37,2.37,0,0,0,0-3.32,2.41,2.41,0,0,0-1.6-.62A2.27,2.27,0,0,0,58.34,238.47Z" style="fill:#fff"/><path d="M67.12,235.65H70V237a3.2,3.2,0,0,1,1.12-1.24,2.76,2.76,0,0,1,1.54-.38,2.9,2.9,0,0,1,.94.14l-.16,2.7a2.73,2.73,0,0,0-1.3-.32,1.88,1.88,0,0,0-1.44.6,3.39,3.39,0,0,0-.7,2.4v3.62H67.12Z" style="fill:#fff"/><path d="M77.76,230v14.58H74.88V230Z" style="fill:#fff"/><path d="M89.22,240.61H82.56a2.44,2.44,0,0,0,.54,1.52,1.93,1.93,0,0,0,1.48.56,2.36,2.36,0,0,0,1.16-.26,1.74,1.74,0,0,0,.62-.74l2.72.28a4,4,0,0,1-1.72,2.24,5.29,5.29,0,0,1-2.82.66A4.62,4.62,0,0,1,81,243.59a4.79,4.79,0,0,1-1.34-3.44A5.08,5.08,0,0,1,81,236.63a5.28,5.28,0,0,1,7,.06,5.09,5.09,0,0,1,1.26,3.62Zm-2.66-1.72a2.27,2.27,0,0,0-.58-1,2.11,2.11,0,0,0-2.82.08,2,2,0,0,0-.5,1Z" style="fill:#fff"/><path d="M96.48,237.93a3.27,3.27,0,0,0-1.58-.5,1.23,1.23,0,0,0-.82.26.62.62,0,0,0-.18.4.47.47,0,0,0,.28.4,5.16,5.16,0,0,0,.86.3l.76.24a3.8,3.8,0,0,1,1.48.78,2.13,2.13,0,0,1,.7,1.7,3.24,3.24,0,0,1-.92,2.34,3.85,3.85,0,0,1-2.9,1,5.3,5.3,0,0,1-3.66-1.28l1.22-1.94a5,5,0,0,0,1,.66,2.69,2.69,0,0,0,1.2.28,1.61,1.61,0,0,0,.9-.2.76.76,0,0,0,.3-.58.59.59,0,0,0-.32-.52,3.8,3.8,0,0,0-.88-.32l-.72-.22a3.55,3.55,0,0,1-1.44-.82,2.2,2.2,0,0,1-.64-1.62,2.76,2.76,0,0,1,.86-2.06,3.93,3.93,0,0,1,2.7-.9,5.63,5.63,0,0,1,3,.76Z" style="fill:#fff"/><path d="M108.92,231.23a7,7,0,0,1,5.26,1.84,7,7,0,0,1,.1,9.5,7.19,7.19,0,0,1-5.26,2H104.7V231.23ZM107.78,242h.82a4.81,4.81,0,0,0,3-.9,4.17,4.17,0,0,0,1.3-3.22,4,4,0,0,0-1.1-2.88,4.4,4.4,0,0,0-3.24-1.14h-.82Z" style="fill:#fff"/><path d="M120.94,235.65v4.92a1.88,1.88,0,0,0,.5,1.44,1.7,1.7,0,0,0,1.2.42,1.79,1.79,0,0,0,1.22-.42,1.94,1.94,0,0,0,.48-1.44v-4.92h2.88v5.2a3.58,3.58,0,0,1-1,2.86,6.14,6.14,0,0,1-7.18,0,3.42,3.42,0,0,1-1-2.68v-5.38Z" style="fill:#fff"/><path d="M129.54,230h2.88v6.72a3.64,3.64,0,0,1,1.08-.92,3.36,3.36,0,0,1,1.74-.38,3.4,3.4,0,0,1,2.52.9,3.53,3.53,0,0,1,.88,2.6v5.66h-2.88V240a2.4,2.4,0,0,0-.48-1.78,1.63,1.63,0,0,0-1.12-.4,1.56,1.56,0,0,0-1.14.44,2.54,2.54,0,0,0-.6,1.86v4.46h-2.88Z" style="fill:#fff"/><path d="M142.52,230.17a1.68,1.68,0,1,1-1.68,1.68A1.67,1.67,0,0,1,142.52,230.17Zm1.44,5.48v8.92h-2.88v-8.92Z" style="fill:#fff"/><path d="M153.18,235.65h2.88V244a5.21,5.21,0,0,1-1.1,3.8,5.09,5.09,0,0,1-3.76,1.32,5.56,5.56,0,0,1-3.72-1.14,4,4,0,0,1-1.34-2.36h3.14a1.48,1.48,0,0,0,.64.88,2.37,2.37,0,0,0,1.24.3,2,2,0,0,0,1.44-.48,2.65,2.65,0,0,0,.58-1.86v-1a2.81,2.81,0,0,1-2.66,1.34,4.38,4.38,0,0,1-3.26-1.26,4.65,4.65,0,0,1-1.3-3.36,5.11,5.11,0,0,1,1.32-3.56,4.39,4.39,0,0,1,3.24-1.28,3,3,0,0,1,2.66,1.34Zm-3.58,2.78a2.45,2.45,0,0,0-.68,1.66,2.36,2.36,0,0,0,.62,1.6,2.14,2.14,0,0,0,1.62.64,2.22,2.22,0,0,0,1.56-.58,2.35,2.35,0,0,0,.7-1.7,2.27,2.27,0,0,0-.68-1.64,2.42,2.42,0,0,0-1.56-.56A2.34,2.34,0,0,0,149.6,238.43Z" style="fill:#fff"/><path d="M165.08,235.65H168V244a5.21,5.21,0,0,1-1.1,3.8,5.09,5.09,0,0,1-3.76,1.32,5.56,5.56,0,0,1-3.72-1.14,4,4,0,0,1-1.34-2.36h3.14a1.48,1.48,0,0,0,.64.88,2.37,2.37,0,0,0,1.24.3,2,2,0,0,0,1.44-.48,2.65,2.65,0,0,0,.58-1.86v-1a2.81,2.81,0,0,1-2.66,1.34,4.38,4.38,0,0,1-3.26-1.26,4.65,4.65,0,0,1-1.3-3.36,5.11,5.11,0,0,1,1.32-3.56,4.39,4.39,0,0,1,3.24-1.28,3,3,0,0,1,2.66,1.34Zm-3.58,2.78a2.45,2.45,0,0,0-.68,1.66,2.36,2.36,0,0,0,.62,1.6,2.14,2.14,0,0,0,1.62.64,2.22,2.22,0,0,0,1.56-.58,2.35,2.35,0,0,0,.7-1.7,2.27,2.27,0,0,0-.68-1.64,2.42,2.42,0,0,0-1.56-.56A2.34,2.34,0,0,0,161.5,238.43Z" style="fill:#fff"/><path d="M83,173.81a15.45,15.45,0,0,0,27.92,0" style="fill:none;stroke:#000;stroke-miterlimit:10;stroke-width:2px"/><path d="M117.23,176.78a22.39,22.39,0,0,1-40.45,0" style="fill:none;stroke:#000;stroke-miterlimit:10;stroke-width:2px"/><path d="M123.5,179.75a29.32,29.32,0,0,1-53,0" style="fill:none;stroke:#000;stroke-miterlimit:10;stroke-width:2px"/><path d="M129.77,182.72a36.26,36.26,0,0,1-65.53,0" style="fill:none;stroke:#000;stroke-miterlimit:10;stroke-width:2px"/><path d="M104.69,170.83a8.51,8.51,0,0,1-15.38,0" style="fill:none;stroke:#000;stroke-miterlimit:10;stroke-width:2px"/><path d="M136,185.69a43.21,43.21,0,0,1-78.08,0" style="fill:none;stroke:#000;stroke-miterlimit:10;stroke-width:2px"/><path d="M111,160.57a15.45,15.45,0,0,0-27.92,0" style="fill:none;stroke:#000;stroke-miterlimit:10;stroke-width:2px"/><path d="M76.77,157.61a22.39,22.39,0,0,1,40.45,0" style="fill:none;stroke:#000;stroke-miterlimit:10;stroke-width:2px"/><path d="M70.5,154.63a29.32,29.32,0,0,1,53,0" style="fill:none;stroke:#000;stroke-miterlimit:10;stroke-width:2px"/><path d="M64.23,151.66a36.26,36.26,0,0,1,65.53,0" style="fill:none;stroke:#000;stroke-miterlimit:10;stroke-width:2px"/><path d="M89.31,163.55a8.51,8.51,0,0,1,15.38,0" style="fill:none;stroke:#000;stroke-miterlimit:10;stroke-width:2px"/><path d="M58,148.69a43.21,43.21,0,0,1,78.08,0" style="fill:none;stroke:#000;stroke-miterlimit:10;stroke-width:2px"/><circle cx="97" cy="167.19" r="3.05" style="fill:#fff"/><line x1="24" y1="167.5" x2="79.45" y2="167.5" style="fill:none;stroke:#fff;stroke-miterlimit:10"/><polygon points="78.72 169.99 83.04 167.5 78.72 165.01 78.72 169.99" style="fill:#fff"/><line x1="97" y1="182.63" x2="97" y2="189.57" style="fill:none;stroke:#000;stroke-miterlimit:10;stroke-width:2px"/><line x1="97" y1="203.45" x2="97" y2="210.38" style="fill:none;stroke:#000;stroke-miterlimit:10;stroke-width:2px"/><line x1="111.77" y1="182.96" x2="116.67" y2="187.86" style="fill:none;stroke:#000;stroke-miterlimit:10;stroke-width:2px"/><line x1="76.89" y1="188.3" x2="71.99" y2="193.2" style="fill:none;stroke:#000;stroke-miterlimit:10;stroke-width:2px"/><line x1="118.33" y1="146.86" x2="113.43" y2="151.77" style="fill:none;stroke:#000;stroke-miterlimit:10;stroke-width:2px"/><line x1="80.59" y1="151.77" x2="85.49" y2="156.68" style="fill:none;stroke:#000;stroke-miterlimit:10;stroke-width:2px"/></svg>