<svg id="Layer_1" data-name="Layer 1" xmlns="http://www.w3.org/2000/svg" xmlns:xlink="http://www.w3.org/1999/xlink" viewBox="0 0 200 260"><defs><linearGradient id="linear-gradient" x1="123.53" y1="42.33" x2="127.18" y2="42.33" gradientUnits="userSpaceOnUse"><stop offset="0" stop-color="#090909"/><stop offset="0.47" stop-color="#333"/><stop offset="1"/></linearGradient><linearGradient id="linear-gradient-2" x1="160.11" y1="122.14" x2="169.29" y2="122.14" xlink:href="#linear-gradient"/><linearGradient id="linear-gradient-3" x1="115.61" y1="52.61" x2="129.74" y2="52.61" xlink:href="#linear-gradient"/><linearGradient id="linear-gradient-4" x1="122.43" y1="55.84" x2="130.65" y2="55.84" xlink:href="#linear-gradient"/><linearGradient id="linear-gradient-5" x1="124.15" y1="58.53" x2="133.37" y2="58.53" xlink:href="#linear-gradient"/><linearGradient id="linear-gradient-6" x1="115.14" y1="51.24" x2="123.6" y2="51.24" xlink:href="#linear-gradient"/><linearGradient id="linear-gradient-7" x1="0.17" y1="154.04" x2="1.18" y2="154.04" xlink:href="#linear-gradient"/><linearGradient id="linear-gradient-8" x1="159.7" y1="146.17" x2="162.83" y2="146.17" xlink:href="#linear-gradient"/><linearGradient id="linear-gradient-9" x1="160.76" y1="135.56" x2="170.33" y2="135.56" xlink:href="#linear-gradient"/><linearGradient id="linear-gradient-10" x1="184.09" y1="154.56" x2="184.09" y2="154.56" xlink:href="#linear-gradient"/><linearGradient id="linear-gradient-11" x1="62.19" y1="97.72" x2="80.61" y2="97.72" xlink:href="#linear-gradient"/><linearGradient id="linear-gradient-12" x1="79.13" y1="93" x2="80.3" y2="93" xlink:href="#linear-gradient"/><linearGradient id="linear-gradient-13" x1="45.71" y1="107.54" x2="69.07" y2="107.54" xlink:href="#linear-gradient"/><linearGradient id="linear-gradient-14" x1="78.11" y1="87.86" x2="81.18" y2="87.86" xlink:href="#linear-gradient"/><linearGradient id="linear-gradient-15" x1="102.36" y1="69.92" x2="121.03" y2="69.92" gradientTransform="translate(107.69 -61.79) rotate(56.21)" xlink:href="#linear-gradient"/><linearGradient id="linear-gradient-16" x1="108.7" y1="72.12" x2="122.73" y2="72.12" xlink:href="#linear-gradient"/><linearGradient id="linear-gradient-17" x1="111.31" y1="76.7" x2="144.99" y2="76.7" xlink:href="#linear-gradient"/><linearGradient id="linear-gradient-18" x1="97.58" y1="80.69" x2="108.7" y2="80.69" xlink:href="#linear-gradient"/><linearGradient id="linear-gradient-19" x1="80.3" y1="90.82" x2="81.61" y2="90.82" xlink:href="#linear-gradient"/><linearGradient id="linear-gradient-20" x1="108.56" y1="81.36" x2="108.92" y2="81.36" xlink:href="#linear-gradient"/><linearGradient id="linear-gradient-21" x1="97.29" y1="84.36" x2="97.91" y2="84.36" xlink:href="#linear-gradient"/><linearGradient id="linear-gradient-22" x1="80.23" y1="91.66" x2="83.28" y2="91.66" xlink:href="#linear-gradient"/><linearGradient id="linear-gradient-23" x1="98.35" y1="67.62" x2="114.69" y2="67.62" xlink:href="#linear-gradient"/><linearGradient id="linear-gradient-24" x1="80.61" y1="86.71" x2="86.25" y2="86.71" xlink:href="#linear-gradient"/><linearGradient id="linear-gradient-25" x1="91.22" y1="79.24" x2="102.36" y2="79.24" xlink:href="#linear-gradient"/><linearGradient id="linear-gradient-26" x1="81.61" y1="85.59" x2="97.58" y2="85.59" xlink:href="#linear-gradient"/><linearGradient id="linear-gradient-27" x1="114.69" y1="60.02" x2="122.43" y2="60.02" xlink:href="#linear-gradient"/><linearGradient id="linear-gradient-28" x1="121.03" y1="62.36" x2="124.15" y2="62.36" xlink:href="#linear-gradient"/><linearGradient id="linear-gradient-29" x1="122.73" y1="64.35" x2="128.33" y2="64.35" xlink:href="#linear-gradient"/><linearGradient id="linear-gradient-30" x1="114.16" y1="57.79" x2="115.61" y2="57.79" xlink:href="#linear-gradient"/><linearGradient id="linear-gradient-31" x1="48.05" y1="80.64" x2="52.12" y2="80.64" xlink:href="#linear-gradient"/><linearGradient id="linear-gradient-32" x1="46.6" y1="80.51" x2="51.7" y2="80.51" xlink:href="#linear-gradient"/><linearGradient id="linear-gradient-33" x1="40.26" y1="89.38" x2="49.01" y2="89.38" xlink:href="#linear-gradient"/><linearGradient id="linear-gradient-34" x1="66.63" y1="58.81" x2="73.5" y2="58.81" xlink:href="#linear-gradient"/><linearGradient id="linear-gradient-35" x1="103.28" y1="53.62" x2="109.22" y2="53.62" xlink:href="#linear-gradient"/><linearGradient id="linear-gradient-36" x1="105.32" y1="51.14" x2="123.53" y2="51.14" xlink:href="#linear-gradient"/><linearGradient id="linear-gradient-37" x1="49.01" y1="83.39" x2="78.11" y2="83.39" xlink:href="#linear-gradient"/><linearGradient id="linear-gradient-38" x1="46.08" y1="89.73" x2="63.38" y2="89.73" xlink:href="#linear-gradient"/><linearGradient id="linear-gradient-39" x1="73.5" y1="60.42" x2="103.28" y2="60.42" xlink:href="#linear-gradient"/><linearGradient id="linear-gradient-40" x1="56.36" y1="72.76" x2="88.75" y2="72.76" xlink:href="#linear-gradient"/><linearGradient id="linear-gradient-41" x1="88.75" y1="63.96" x2="114.16" y2="63.96" xlink:href="#linear-gradient"/><linearGradient id="linear-gradient-42" x1="81.18" y1="77.06" x2="98.35" y2="77.06" xlink:href="#linear-gradient"/><linearGradient id="linear-gradient-43" x1="86.25" y1="80.94" x2="91.22" y2="80.94" xlink:href="#linear-gradient"/><linearGradient id="linear-gradient-44" x1="109.22" y1="56.58" x2="115.14" y2="56.58" xlink:href="#linear-gradient"/><linearGradient id="linear-gradient-45" x1="46.76" y1="199.5" x2="81.27" y2="199.5" xlink:href="#linear-gradient"/><linearGradient id="linear-gradient-46" x1="47.25" y1="130.11" x2="54.73" y2="130.11" xlink:href="#linear-gradient"/><linearGradient id="linear-gradient-47" x1="49.77" y1="126.49" x2="53.73" y2="126.49" xlink:href="#linear-gradient"/><linearGradient id="linear-gradient-48" x1="52.25" y1="140.6" x2="69.33" y2="140.6" xlink:href="#linear-gradient"/><linearGradient id="linear-gradient-49" x1="45.02" y1="127.31" x2="49.77" y2="127.31" xlink:href="#linear-gradient"/><linearGradient id="linear-gradient-50" x1="47.56" y1="123.86" x2="51.1" y2="123.86" xlink:href="#linear-gradient"/><linearGradient id="linear-gradient-51" x1="144.99" y1="102.55" x2="160.11" y2="102.55" xlink:href="#linear-gradient"/><linearGradient id="linear-gradient-52" x1="142.25" y1="136.98" x2="148.72" y2="136.98" xlink:href="#linear-gradient"/><linearGradient id="linear-gradient-53" x1="145.92" y1="121.08" x2="161.63" y2="121.08" xlink:href="#linear-gradient"/><linearGradient id="linear-gradient-54" x1="126.4" y1="140.77" x2="146.65" y2="140.77" xlink:href="#linear-gradient"/><linearGradient id="linear-gradient-55" x1="140.52" y1="125.09" x2="154.38" y2="125.09" xlink:href="#linear-gradient"/><linearGradient id="linear-gradient-56" x1="34.04" y1="152.02" x2="47.31" y2="152.02" gradientTransform="matrix(0.56, 0.83, -0.83, 0.56, 144.4, 33.67)" xlink:href="#linear-gradient"/><linearGradient id="linear-gradient-57" x1="46.58" y1="143.86" x2="64.66" y2="143.86" xlink:href="#linear-gradient"/><linearGradient id="linear-gradient-58" x1="35.01" y1="137.57" x2="47.25" y2="137.57" xlink:href="#linear-gradient"/><linearGradient id="linear-gradient-59" x1="33.57" y1="147.9" x2="35.98" y2="147.9" xlink:href="#linear-gradient"/><linearGradient id="linear-gradient-60" x1="32.39" y1="150.75" x2="34.04" y2="150.75" xlink:href="#linear-gradient"/><linearGradient id="linear-gradient-61" x1="64.31" y1="180.52" x2="105.35" y2="180.52" xlink:href="#linear-gradient"/><linearGradient id="linear-gradient-62" x1="120.4" y1="169.93" x2="126.62" y2="169.93" xlink:href="#linear-gradient"/><linearGradient id="linear-gradient-63" x1="64.66" y1="163.24" x2="119.96" y2="163.24" xlink:href="#linear-gradient"/><linearGradient id="linear-gradient-64" x1="89.1" y1="162.81" x2="124.41" y2="162.81" xlink:href="#linear-gradient"/><linearGradient id="linear-gradient-65" x1="124.41" y1="164.15" x2="128.99" y2="164.15" xlink:href="#linear-gradient"/><linearGradient id="linear-gradient-66" x1="105.68" y1="158.43" x2="129.49" y2="158.43" xlink:href="#linear-gradient"/><linearGradient id="linear-gradient-67" x1="116.24" y1="151.7" x2="132.89" y2="151.7" xlink:href="#linear-gradient"/><linearGradient id="linear-gradient-68" x1="59.79" y1="170.46" x2="68.99" y2="170.46" xlink:href="#linear-gradient"/><linearGradient id="linear-gradient-69" x1="63.19" y1="153.43" x2="66.72" y2="153.43" xlink:href="#linear-gradient"/><linearGradient id="linear-gradient-70" x1="148.41" y1="157.84" x2="159.7" y2="157.84" xlink:href="#linear-gradient"/><linearGradient id="linear-gradient-71" x1="139.06" y1="166.01" x2="141.11" y2="166.01" xlink:href="#linear-gradient"/><linearGradient id="linear-gradient-72" x1="133.66" y1="150.83" x2="160.76" y2="150.83" xlink:href="#linear-gradient"/><linearGradient id="linear-gradient-73" x1="148.72" y1="135.87" x2="161.66" y2="135.87" xlink:href="#linear-gradient"/><linearGradient id="linear-gradient-74" x1="132.89" y1="146.69" x2="142.25" y2="146.69" xlink:href="#linear-gradient"/><linearGradient id="linear-gradient-75" x1="126.21" y1="169.33" x2="128.99" y2="169.33" xlink:href="#linear-gradient"/><linearGradient id="linear-gradient-76" x1="126.62" y1="164.22" x2="139.45" y2="164.22" xlink:href="#linear-gradient"/><linearGradient id="linear-gradient-77" x1="129.74" y1="159.16" x2="139.06" y2="159.16" xlink:href="#linear-gradient"/><linearGradient id="linear-gradient-78" x1="128.99" y1="159.45" x2="129.74" y2="159.45" xlink:href="#linear-gradient"/><linearGradient id="linear-gradient-79" x1="129.49" y1="155.46" x2="133.66" y2="155.46" xlink:href="#linear-gradient"/><linearGradient id="linear-gradient-80" x1="53.73" y1="129.58" x2="55.13" y2="129.58" xlink:href="#linear-gradient"/><linearGradient id="linear-gradient-81" x1="51.1" y1="111.82" x2="79.13" y2="111.82" xlink:href="#linear-gradient"/><linearGradient id="linear-gradient-82" x1="54.73" y1="137.18" x2="72.67" y2="137.18" xlink:href="#linear-gradient"/><linearGradient id="linear-gradient-83" x1="55.13" y1="117.32" x2="90.52" y2="117.32" xlink:href="#linear-gradient"/><linearGradient id="linear-gradient-84" x1="79.29" y1="125.44" x2="89.76" y2="125.44" xlink:href="#linear-gradient"/><linearGradient id="linear-gradient-85" x1="49.89" y1="115.89" x2="62.19" y2="115.89" xlink:href="#linear-gradient"/><linearGradient id="linear-gradient-86" x1="108.92" y1="81.71" x2="111.31" y2="81.71" xlink:href="#linear-gradient"/><linearGradient id="linear-gradient-87" x1="110.4" y1="93.8" x2="147.35" y2="93.8" xlink:href="#linear-gradient"/><linearGradient id="linear-gradient-88" x1="97.91" y1="84.93" x2="108.56" y2="84.93" xlink:href="#linear-gradient"/><linearGradient id="linear-gradient-89" x1="103.93" y1="85.46" x2="110.4" y2="85.46" xlink:href="#linear-gradient"/><linearGradient id="linear-gradient-90" x1="105.62" y1="99.44" x2="147.3" y2="99.44" xlink:href="#linear-gradient"/><linearGradient id="linear-gradient-91" x1="80.07" y1="101.51" x2="103.93" y2="101.51" xlink:href="#linear-gradient"/><linearGradient id="linear-gradient-92" x1="89.76" y1="132.89" x2="91.55" y2="132.89" xlink:href="#linear-gradient"/><linearGradient id="linear-gradient-93" x1="83.68" y1="116.5" x2="140.52" y2="116.5" xlink:href="#linear-gradient"/><linearGradient id="linear-gradient-94" x1="97.9" y1="109.56" x2="145.92" y2="109.56" xlink:href="#linear-gradient"/><linearGradient id="linear-gradient-95" x1="83.28" y1="90.14" x2="97.29" y2="90.14" xlink:href="#linear-gradient"/><linearGradient id="linear-gradient-96" x1="69.33" y1="146.98" x2="89.1" y2="146.98" xlink:href="#linear-gradient"/><linearGradient id="linear-gradient-97" x1="72.67" y1="143.42" x2="105.68" y2="143.42" xlink:href="#linear-gradient"/><linearGradient id="linear-gradient-98" x1="90.52" y1="143.06" x2="116.24" y2="143.06" xlink:href="#linear-gradient"/><linearGradient id="linear-gradient-99" x1="91.55" y1="141.5" x2="126.4" y2="141.5" xlink:href="#linear-gradient"/><linearGradient id="linear-gradient-100" x1="149.91" y1="176.44" x2="160.02" y2="176.44" xlink:href="#linear-gradient"/><linearGradient id="linear-gradient-101" x1="81.27" y1="192.17" x2="129.83" y2="192.17" xlink:href="#linear-gradient"/><linearGradient id="linear-gradient-102" x1="120.17" y1="173.67" x2="126.21" y2="173.67" xlink:href="#linear-gradient"/><linearGradient id="linear-gradient-103" x1="105.35" y1="179.59" x2="120.17" y2="179.59" xlink:href="#linear-gradient"/><linearGradient id="linear-gradient-104" x1="119.96" y1="173.1" x2="120.4" y2="173.1" xlink:href="#linear-gradient"/><linearGradient id="linear-gradient-105" x1="129.83" y1="190" x2="149.91" y2="190" xlink:href="#linear-gradient"/><linearGradient id="linear-gradient-106" x1="140.24" y1="176.39" x2="142.33" y2="176.39" xlink:href="#linear-gradient"/><linearGradient id="linear-gradient-107" x1="142.33" y1="173.58" x2="151.67" y2="173.58" xlink:href="#linear-gradient"/><linearGradient id="linear-gradient-108" x1="145.92" y1="169.86" x2="154.64" y2="169.86" xlink:href="#linear-gradient"/><linearGradient id="linear-gradient-109" x1="139.45" y1="170.87" x2="145.92" y2="170.87" xlink:href="#linear-gradient"/><linearGradient id="linear-gradient-110" x1="141.11" y1="167.93" x2="148.41" y2="167.93" xlink:href="#linear-gradient"/><linearGradient id="linear-gradient-111" x1="125.51" y1="188.71" x2="140.24" y2="188.71" xlink:href="#linear-gradient"/><linearGradient id="linear-gradient-112" x1="125.55" y1="176.78" x2="140.37" y2="176.78" xlink:href="#linear-gradient"/><linearGradient id="linear-gradient-113" x1="128.99" y1="170.65" x2="140.36" y2="170.65" xlink:href="#linear-gradient"/><linearGradient id="linear-gradient-114" x1="51.7" y1="76.16" x2="53.87" y2="76.16" xlink:href="#linear-gradient"/><linearGradient id="linear-gradient-115" x1="53.87" y1="73.53" x2="55.28" y2="73.53" xlink:href="#linear-gradient"/><linearGradient id="linear-gradient-116" x1="55.23" y1="63.2" x2="70.93" y2="63.2" xlink:href="#linear-gradient"/><linearGradient id="linear-gradient-117" x1="52.12" y1="74.97" x2="56.36" y2="74.97" xlink:href="#linear-gradient"/><linearGradient id="linear-gradient-118" x1="53.87" y1="74.55" x2="53.87" y2="74.55" xlink:href="#linear-gradient"/><linearGradient id="linear-gradient-119" x1="55.28" y1="67.45" x2="66.63" y2="67.45" xlink:href="#linear-gradient"/><linearGradient id="linear-gradient-120" x1="128.09" y1="46.78" x2="136.27" y2="46.78" xlink:href="#linear-gradient"/><linearGradient id="linear-gradient-121" x1="129.74" y1="47.99" x2="135.42" y2="47.99" xlink:href="#linear-gradient"/><linearGradient id="linear-gradient-122" x1="135.42" y1="45.49" x2="138.84" y2="45.49" xlink:href="#linear-gradient"/><linearGradient id="linear-gradient-123" x1="130.65" y1="51.21" x2="138.99" y2="51.21" xlink:href="#linear-gradient"/><linearGradient id="linear-gradient-124" x1="138.77" y1="45.8" x2="142.5" y2="45.8" xlink:href="#linear-gradient"/><linearGradient id="linear-gradient-125" x1="138.84" y1="48.16" x2="139.75" y2="48.16" xlink:href="#linear-gradient"/></defs><title>book-art-exceptional-living</title><path d="M181,260h17.91l-14-9.38Q183.21,255.31,181,260Z" style="fill:#7b96a1"/><path d="M184.92,250.62l14,9.38h.89V245.08l-11-7.38A113.45,113.45,0,0,1,184.92,250.62Z" style="fill:#533c50"/><polygon points="0.17 241.6 0.17 260 15.73 260 19.42 254.48 0.17 241.6" style="fill:#5d8398"/><path d="M52,237.84a38.7,38.7,0,0,1-8-4.09c-.62-.42-1.21-.86-1.81-1.31L25,258.21l-5.57-3.72L15.73,260H37.22Z" style="fill:#75849b"/><path d="M2.5,196.81.17,200.29v11.6l8.05-12A58.85,58.85,0,0,1,2.5,196.81Z" style="fill:#bdca61"/><path d="M.17,195.38l0,0,0,0Z" style="fill:#bdca61"/><path d="M.2,195.35l0,0v4.91l2.33-3.48C1.73,196.34,1,195.86.2,195.35Z" style="fill:#bdca61"/><path d="M23.73,204.48l2.42,1.62c-.1-.45-.19-.91-.29-1.36Q24.8,204.63,23.73,204.48Z" style="fill:#bdca61"/><path d="M37.2,227.9A47.26,47.26,0,0,1,26.15,206.1l-2.42-1.62a53.94,53.94,0,0,1-8.64-2L.17,224.82V241.6l19.25,12.88Z" style="fill:#f0db88"/><path d="M19.42,254.48,25,258.21l17.25-25.78a38.82,38.82,0,0,1-5-4.53Z" style="fill:#2f628d"/><path d="M.17,219v5.8l14.92-22.3c-1.05-.33-2.1-.7-3.15-1.1Z" style="fill:#ae4834"/><path d="M8.22,199.85l-8.05,12V219l11.78-17.6Q10.07,200.71,8.22,199.85Z" style="fill:#75849b"/><path d="M61.2,240.08A41.8,41.8,0,0,1,52,237.84L37.22,260H55.65A111.3,111.3,0,0,1,61.2,240.08Z" style="fill:#f0db88"/><path d="M189.31,235.46c-.16.74-.34,1.48-.52,2.23l11,7.38V233.18A55.59,55.59,0,0,1,189.31,235.46Z" style="fill:#533c50"/><path d="M47.56,124.69,28.74,112.1l-5,7.5A57.1,57.1,0,0,1,45,128.36Q46.27,126.49,47.56,124.69Z" style="fill:#649b74"/><path d="M9.47,117.7l-.94,1.4a49.32,49.32,0,0,1,15.19.49l5-7.5L12.68,101.35A58.4,58.4,0,0,1,.17,103.66v7.83Z" style="fill:#7b768e"/><path d="M9.47,117.7l-9.3-6.22V121a42.54,42.54,0,0,1,8.36-1.94Z" style="fill:#08555f"/><path d="M49.89,121.56a50.41,50.41,0,0,1-3.81-26,45.72,45.72,0,0,1-5.82-.63L28.74,112.1l18.82,12.59C48.32,123.63,49.1,122.59,49.89,121.56Z" style="fill:#15538e"/><path d="M32.15,92.61a84.55,84.55,0,0,1-19.46,8.74L28.74,112.1,40.26,94.88A41.06,41.06,0,0,1,32.15,92.61Z" style="fill:#ae4834"/><path d="M128.09,44.46c-.36-1.47-.65-3-.91-4.55l-3.58,5.35Q125.81,44.79,128.09,44.46Z" style="fill:#7f82a3"/><path d="M123.53,45.28h.07l3.58-5.35-.08-.53Q125.41,42.35,123.53,45.28Z" style="fill:url(#linear-gradient)"/><path d="M199.83,68v-4.7c-1.09.66-2.19,1.3-3.28,1.9C197.67,66.08,198.76,67,199.83,68Z" style="fill:#f9e02e"/><path d="M184.2,77.64a88.59,88.59,0,0,1,8.18-10l-.22-.15a75.1,75.1,0,0,1-15,5.46Z" style="fill:#f9e02e"/><path d="M145,89.45c7.73,6.31,12.77,15.43,15.12,26.21l9,6c0-13.38,4.68-28.51,14-42.4.37-.55.75-1.09,1.13-1.63l-7.07-4.73c-12.44,3-24.07,1.8-33.29-4.37a35,35,0,0,1-10.47-11.11l-5,7.52A52,52,0,0,1,145,89.45Z" style="fill:#3f4368"/><path d="M192.83,67.11l-.67.34.22.15Z" style="fill:#f9e02e"/><path d="M160.11,115.65a69.29,69.29,0,0,1,1.52,13,55.36,55.36,0,0,1,7.66-2q-.21-2.42-.2-4.94Z" style="fill:url(#linear-gradient-2)"/><path d="M115.61,57.2a53.14,53.14,0,0,1,6.82,3.55l7.31-10.92a51.52,51.52,0,0,1-1.65-5.37q-2.27.33-4.49.8Z" style="fill:url(#linear-gradient-3)"/><path d="M130.65,52.12c-.32-.75-.63-1.51-.92-2.29l-7.31,10.92c.58.35,1.15.71,1.72,1.09Z" style="fill:url(#linear-gradient-4)"/><path d="M133.37,57.43a42.12,42.12,0,0,1-2.72-5.31l-6.51,9.72q2.19,1.47,4.19,3.11Z" style="fill:url(#linear-gradient-5)"/><path d="M115.14,57l.47.21,8-11.94h-.07c-.52.82-1,1.63-1.58,2.44C119.79,51,117.5,54,115.14,57Z" style="fill:url(#linear-gradient-6)"/><path d="M199.83,88.1V72.58l-7.45-5a88.59,88.59,0,0,0-8.18,10Z" style="fill:#f9e02e"/><path d="M169.09,121.66l6.18,4.14q2.77-.22,5.56-.16l16.6-24.82,2.39-3.57V88.1L184.2,77.64c-.38.54-.76,1.08-1.13,1.63C173.78,93.15,169.14,108.28,169.09,121.66Z" style="fill:#a05037"/><path d="M192.38,67.59l7.45,5V68c-1.07-.95-2.16-1.89-3.28-2.8q-1.86,1-3.71,1.94Z" style="fill:#f9e02e"/><path d="M199.83,129.32V113.56L191,126.75A57.17,57.17,0,0,1,199.83,129.32Z" style="fill:#91c2be"/><path d="M180.84,125.64A56.75,56.75,0,0,1,191,126.75l8.83-13.2V102.42l-2.39-1.6Z" style="fill:#91c2be"/><polygon points="199.83 102.42 199.83 97.26 197.44 100.83 199.83 102.42" style="fill:#f9e02e"/><path d="M169.09,121.66q0,2.51.2,4.94a56,56,0,0,1,6-.8Z" style="fill:#c0794b"/><path d="M22.42,185.77l2.08,1.39c.06-1.64.16-3.3.32-5Z" style="fill:#bdca61"/><path d="M27.93,165.41a116.94,116.94,0,0,1,4.46-13.27l-7.51,11.23Z" style="fill:#c3cd87"/><path d="M25.38,177.66l-7-4.65-8.24,12.32-10-6.7v10.08l3.08,2.06h0l7.63,5.1,8.24-12.32,3.3,2.21,2.4-3.59C25,180.69,25.16,179.18,25.38,177.66Z" style="fill:#bdca61"/><path d="M3.25,190.78h0l2.27,1.52-3,4.52a58.85,58.85,0,0,0,5.72,3l2.66-4Z" style="fill:#bdca61"/><path d="M18.42,173l7,4.65a103.9,103.9,0,0,1,2.55-12.25l-3.05-2Z" style="fill:#5d8398"/><path d="M.17,188.71v6.62l0,0,3.06-4.57Z" style="fill:#bdca61"/><path d="M3.25,190.78.2,195.35c.76.51,1.53,1,2.3,1.46l3-4.52Z" style="fill:#bdca61"/><path d="M24.46,188.51l-7.6,11.36,6.87,4.6q1.07.15,2.13.26A72.09,72.09,0,0,1,24.46,188.51Z" style="fill:#bdca61"/><path d="M15.09,202.52a53.94,53.94,0,0,0,8.64,2l-6.87-4.6Z" style="fill:#3e656a"/><path d="M22.42,185.77l-8.24,12.32,2.68,1.79,7.6-11.36c0-.45,0-.9,0-1.35Z" style="fill:#bdca61"/><path d="M14.18,198.09l-2.23,3.34c1,.4,2.09.77,3.15,1.1l1.77-2.64Z" style="fill:#5d8398"/><rect x="9.24" y="188.84" width="14.82" height="3.97" transform="translate(-151.2 98.54) rotate(-56.21)" style="fill:#bdca61"/><path d="M8.22,199.85q1.85.86,3.73,1.57l2.23-3.34-3.3-2.21Z" style="fill:#bdca61"/><path d="M35,146.13a132.82,132.82,0,0,1,10-17.77,57.1,57.1,0,0,0-21.3-8.76l-8.77,13.11Z" style="fill:#fbde28"/><path d="M13,135.6l20.55,13.75q.7-1.61,1.44-3.21L14.95,132.71,3.85,149.3Z" style="fill:#13548e"/><path d="M14.95,132.71l8.77-13.11a49.32,49.32,0,0,0-15.19-.49l-4.3,6.43Z" style="fill:#dbd462"/><polygon points="3.85 149.3 14.95 132.71 4.23 125.54 0.17 131.6 0.17 146.84 3.85 149.3" style="fill:#2f628d"/><path d="M3.85,149.3l21,14.07,7.51-11.23c.38-.93.78-1.87,1.18-2.8L13,135.6Z" style="fill:#d0af7c"/><path d="M4.23,125.54l4.3-6.43A42.54,42.54,0,0,0,.17,121v1.78Z" style="fill:#165296"/><polygon points="0.17 122.82 0.17 131.6 4.23 125.54 0.17 122.82" style="fill:#d5e2ce"/><path d="M.17,177v1.65l10,6.7L18.42,173,3.25,162.86A24.44,24.44,0,0,1,.17,177Z" style="fill:#bdca61"/><path d="M1.18,153.29l2.67-4L.17,146.84v3.91C.54,151.6.88,152.44,1.18,153.29Z" style="fill:#ae4834"/><path d="M3.85,149.3l-2.67,4a35.53,35.53,0,0,1,2.06,9.57L18.42,173l6.45-9.64Z" style="fill:#e4dc91"/><polygon points="0.17 154.79 1.18 153.28 0.17 154.79 0.17 154.79" style="fill:url(#linear-gradient-7)"/><path d="M.17,177a24.44,24.44,0,0,0,3.07-14.13L.17,160.8Z" style="fill:#ae4834"/><path d="M.17,154.79l1-1.51c-.3-.84-.65-1.69-1-2.53Z" style="fill:#ae4834"/><path d="M.17,160.8l3.07,2.06a35.53,35.53,0,0,0-2.06-9.57l-1,1.51Z" style="fill:#ae4834"/><path d="M180.89,181.31l1.71-2.55q-1.69.3-3.41.51C179.77,179.94,180.34,180.61,180.89,181.31Z" style="fill:#a05037"/><path d="M182.6,178.76l-1.71,2.55a45.59,45.59,0,0,1,6.63,12l12.31-18.4v-1.75A62.44,62.44,0,0,1,182.6,178.76Z" style="fill:#2f628d"/><path d="M191.28,211.9l8.55,5.72V205.87l-10.55-7.06A66.27,66.27,0,0,1,191.28,211.9Z" style="fill:#533c50"/><path d="M189.28,198.81l10.55,7.06v-31l-12.31,18.4A55,55,0,0,1,189.28,198.81Z" style="fill:#2f628d"/><path d="M191.28,211.9a89.67,89.67,0,0,1-2,23.57,55.59,55.59,0,0,0,10.52-2.28V217.62Z" style="fill:#533c50"/><path d="M184.09,154.56h0L176,149.16,174.08,152l-11.24-7.52-3.14,4.69a112.78,112.78,0,0,1-5.05,17.26,40,40,0,0,1,17.16,6.34,38.75,38.75,0,0,1,7.38,6.46q1.72-.22,3.41-.51l11.65-17.4Z" style="fill:#c0794b"/><path d="M172,138.87a42.09,42.09,0,0,1-1.66-5.55l-7.49,11.2L174.08,152l1.93-2.89-7.53-5Z" style="fill:#c0794b"/><path d="M194.24,161.36l1.44-2.15a30.61,30.61,0,0,1-11.59-4.64Z" style="fill:#91c2be"/><path d="M176.92,147.8l-.91,1.36,8.08,5.41A30.25,30.25,0,0,1,176.92,147.8Z" style="fill:#c0794b"/><path d="M172,138.87l-3.51,5.25,7.53,5,.91-1.36A34.9,34.9,0,0,1,172,138.87Z" style="fill:#c0794b"/><path d="M182.6,178.76a62.44,62.44,0,0,0,17.23-5.64v-8l-5.58-3.74Z" style="fill:#c0794b"/><path d="M195.68,159.21l-1.44,2.15,5.58,3.74V159.7A34.68,34.68,0,0,1,195.68,159.21Z" style="fill:#91c2be"/><path d="M159.7,149.21l3.14-4.69-2.08-1.39Q160.33,146.14,159.7,149.21Z" style="fill:url(#linear-gradient-8)"/><path d="M169.29,126.6a55.36,55.36,0,0,0-7.66,2,87.24,87.24,0,0,1-.88,14.51l2.08,1.39,7.49-11.2A48.85,48.85,0,0,1,169.29,126.6Z" style="fill:url(#linear-gradient-9)"/><path d="M175.27,125.8l.06,0-5,7.48a42.09,42.09,0,0,0,1.66,5.55l8.85-13.23Q178,125.59,175.27,125.8Z" style="fill:#c0794b"/><path d="M191,126.75l-14.08,21a30.25,30.25,0,0,0,7.17,6.76h0a30.61,30.61,0,0,0,11.59,4.64l4.15-6.2V129.32A57.17,57.17,0,0,0,191,126.75Z" style="fill:#91c2be"/><polygon points="184.09 154.56 184.09 154.56 184.09 154.56 184.09 154.56" style="fill:url(#linear-gradient-10)"/><path d="M172,138.87a34.9,34.9,0,0,0,4.93,8.93l14.08-21a56.75,56.75,0,0,0-10.16-1.11Z" style="fill:#91c2be"/><path d="M199.83,159.7V153l-4.15,6.2A34.68,34.68,0,0,0,199.83,159.7Z" style="fill:#91c2be"/><path d="M175.27,125.8a56,56,0,0,0-6,.8,48.85,48.85,0,0,0,1,6.72l5-7.48Z" style="fill:#c0794b"/><path d="M80.3,92.13c.08-.88.19-1.75.31-2.62l-2.51-1.68a78.26,78.26,0,0,1-14.72,5.68l5.69,3.81-6.89,10.29A113.17,113.17,0,0,1,79.13,93.88Z" style="fill:url(#linear-gradient-11)"/><path d="M80.3,92.13l-1.17,1.75,1.1-.72C80.25,92.81,80.27,92.47,80.3,92.13Z" style="fill:url(#linear-gradient-12)"/><path d="M69.07,97.31l-5.69-3.81a57.1,57.1,0,0,1-17.31,2,50.41,50.41,0,0,0,3.81,26,129,129,0,0,1,12.3-14Z" style="fill:url(#linear-gradient-13)"/><path d="M81.18,86.22q-1.53.84-3.07,1.61l2.51,1.68Q80.85,87.85,81.18,86.22Z" style="fill:url(#linear-gradient-14)"/><rect x="100.61" y="66.1" width="22.17" height="7.64" transform="translate(-8.53 123.87) rotate(-56.21)" style="fill:url(#linear-gradient-15)"/><path d="M108.92,81.4q1.2-.21,2.39-.38L122.73,64,121,62.83,108.7,81.26Z" style="fill:url(#linear-gradient-16)"/><path d="M142.06,87.25c1,.68,2,1.42,2.93,2.19a52,52,0,0,0-16.66-24.5l-1.28,1.91L122.73,64,111.31,81C122.61,79.48,133.27,81.37,142.06,87.25Z" style="fill:url(#linear-gradient-17)"/><path d="M108.56,81.47l.14-.21L102.36,77l-4.77,7.13.33.22A68.51,68.51,0,0,1,108.56,81.47Z" style="fill:url(#linear-gradient-18)"/><path d="M80.61,89.5c-.12.87-.23,1.74-.31,2.62l1.31-2Z" style="fill:url(#linear-gradient-19)"/><path d="M108.92,81.4l-.22-.14-.14.21Z" style="fill:url(#linear-gradient-20)"/><path d="M97.91,84.37l-.33-.22-.29.44Z" style="fill:url(#linear-gradient-21)"/><path d="M83.28,91.29l-1.67-1.11-1.31,2c0,.34,0,.68-.07,1Q81.75,92.18,83.28,91.29Z" style="fill:url(#linear-gradient-22)"/><path d="M114.69,58.58l-.53-.35a124.44,124.44,0,0,1-15.81,16.1l4,2.68Z" style="fill:url(#linear-gradient-23)"/><path d="M81.61,90.17l4.63-6.92c-1.68,1.06-3.37,2-5.07,3q-.33,1.63-.56,3.28Z" style="fill:url(#linear-gradient-24)"/><path d="M97.58,84.15,102.36,77l-4-2.68q-3.52,3-7.14,5.55Z" style="fill:url(#linear-gradient-25)"/><path d="M97.29,84.58l.29-.44-6.37-4.26c-1.65,1.18-3.3,2.31-5,3.36l-4.63,6.92,1.67,1.11A86.62,86.62,0,0,1,97.29,84.58Z" style="fill:url(#linear-gradient-26)"/><path d="M121,62.83l1.39-2.08a53.14,53.14,0,0,0-6.82-3.55l-.92,1.38Z" style="fill:url(#linear-gradient-27)"/><path d="M122.73,64l1.42-2.12c-.57-.38-1.14-.74-1.72-1.09L121,62.83Z" style="fill:url(#linear-gradient-28)"/><path d="M128.33,64.95q-2-1.64-4.19-3.11L122.73,64l4.33,2.9Z" style="fill:url(#linear-gradient-29)"/><path d="M114.16,58.23l.53.35.92-1.38-.47-.21C114.81,57.41,114.49,57.83,114.16,58.23Z" style="fill:url(#linear-gradient-30)"/><path d="M49,83.89a48.08,48.08,0,0,1,3.11-6.49l-.41.38L48,83.25Z" style="fill:url(#linear-gradient-31)"/><path d="M51.7,77.78q-2.53,2.34-5.1,4.5l1.45,1Z" style="fill:url(#linear-gradient-32)"/><path d="M48,83.25,40.26,94.88a45.72,45.72,0,0,0,5.82.63A48.19,48.19,0,0,1,49,83.89Z" style="fill:url(#linear-gradient-33)"/><path d="M48,83.25l-1.45-1A115.1,115.1,0,0,1,32.15,92.61a41.06,41.06,0,0,0,8.11,2.28Z" style="fill:#bdca61"/><path d="M103.28,53.6c.67-.44,1.35-.87,2-1.28L82.63,37.13a155.91,155.91,0,0,1-8.38,14.09c-1.08,1.62-2.2,3.2-3.32,4.76L73.5,57.7A50.94,50.94,0,0,1,103.28,53.6Z" style="fill:#165296"/><path d="M73.5,57.7,70.93,56q-2.1,2.9-4.29,5.65A48.71,48.71,0,0,1,73.5,57.7Z" style="fill:url(#linear-gradient-34)"/><path d="M130.63,0H99.93l27,18A111.08,111.08,0,0,1,130.63,0Z" style="fill:#63463e"/><path d="M123.53,45.28q1.87-2.93,3.56-5.89A79.26,79.26,0,0,1,126.9,18l-27-18H95.86A132.18,132.18,0,0,1,82.63,37.13l22.69,15.18A60.43,60.43,0,0,1,123.53,45.28Z" style="fill:#ae4834"/><path d="M105.32,52.32c-.69.41-1.37.84-2,1.28a52,52,0,0,1,5.94,1.33Z" style="fill:url(#linear-gradient-35)"/><path d="M115.14,57c2.36-3,4.65-6,6.81-9.27.54-.81,1.06-1.63,1.58-2.44a60.43,60.43,0,0,0-18.21,7l3.91,2.61A52.3,52.3,0,0,1,115.14,57Z" style="fill:url(#linear-gradient-36)"/><path d="M78.11,87.83,56.36,73.27c-1.4,1.42-2.81,2.79-4.24,4.12A48.08,48.08,0,0,0,49,83.89l14.38,9.62A78.26,78.26,0,0,0,78.11,87.83Z" style="fill:url(#linear-gradient-37)"/><path d="M63.38,93.51,49,83.89a48.19,48.19,0,0,0-2.93,11.63A57.1,57.1,0,0,0,63.38,93.51Z" style="fill:url(#linear-gradient-38)"/><path d="M103.28,53.6A50.94,50.94,0,0,0,73.5,57.7L88.75,67.91A51,51,0,0,1,103.28,53.6Z" style="fill:url(#linear-gradient-39)"/><path d="M81.18,86.22a51,51,0,0,1,7.58-18.31L73.5,57.7a48.71,48.71,0,0,0-6.86,3.93A148.22,148.22,0,0,1,56.36,73.27L78.11,87.83Q79.64,87.06,81.18,86.22Z" style="fill:url(#linear-gradient-40)"/><path d="M88.75,67.91l9.6,6.42a124.44,124.44,0,0,0,15.81-16.1l-4.93-3.3a52,52,0,0,0-5.94-1.33A51,51,0,0,0,88.75,67.91Z" style="fill:url(#linear-gradient-41)"/><path d="M89.34,78.63l1.88,1.26q3.61-2.58,7.14-5.55l-9.6-6.42a51,51,0,0,0-7.58,18.31c1.7-.93,3.39-1.91,5.07-3Z" style="fill:url(#linear-gradient-42)"/><path d="M89.34,78.63l-3.09,4.62c1.67-1.05,3.32-2.19,5-3.36Z" style="fill:url(#linear-gradient-43)"/><path d="M109.22,54.93l4.93,3.3c.33-.4.65-.82,1-1.23A52.3,52.3,0,0,0,109.22,54.93Z" style="fill:url(#linear-gradient-44)"/><path d="M76.28,211.73q2.42-3.46,5-6.69c-.77-.45-1.54-.92-2.29-1.43a43.86,43.86,0,0,1-14.67-16.33q-.52.89-1.1,1.75a34.85,34.85,0,0,1-16.45,13l5.35,3.58,4.66-7Z" style="fill:url(#linear-gradient-45)"/><path d="M53.73,128.82l-4-2.65-2.52,3.77a58.82,58.82,0,0,1,5,4.13l2.49-3.72C54.39,129.84,54.06,129.33,53.73,128.82Z" style="fill:url(#linear-gradient-46)"/><path d="M69.8,221.94q2.31-4,5-8c.5-.74,1-1.46,1.52-2.19L56.77,198.67l-4.66,7,5.57,3.72-8.24,12.32,9.28,6.21,6.18-9.23Z" style="fill:#6e9658"/><path d="M49.43,221.67l-7.2,10.76c.59.45,1.19.9,1.81,1.31a38.7,38.7,0,0,0,8,4.09l6.66-10Z" style="fill:#6e9658"/><path d="M52.11,205.63l-5.35-3.58a45.07,45.07,0,0,1-20.9,2.68c.09.46.18.92.29,1.36l17.71,11.85Z" style="fill:#3e656a"/><rect x="43.36" y="210.3" width="14.82" height="6.7" transform="translate(-155.03 137.03) rotate(-56.21)" style="fill:#6e9658"/><path d="M26.15,206.1A47.26,47.26,0,0,0,37.2,227.9l6.66-10Z" style="fill:#ae4834"/><path d="M43.86,217.95l-6.66,10a38.82,38.82,0,0,0,5,4.53l7.2-10.76Z" style="fill:#6e9658"/><path d="M64.88,218.65l-6.18,9.23,6,4q2.31-5,5.13-9.93Z" style="fill:#6e9658"/><path d="M64.67,231.87l-6-4-6.66,10a41.8,41.8,0,0,0,9.16,2.25Q62.76,236,64.67,231.87Z" style="fill:#6e9658"/><path d="M49.77,126.17l4,2.65a51.83,51.83,0,0,1-2.63-4.65Z" style="fill:url(#linear-gradient-47)"/><path d="M64.66,150.85c.35-.59.71-1.18,1.1-1.75a35.21,35.21,0,0,1,3.57-4.49l-.39-.25a52.7,52.7,0,0,1-14.2-14l-2.49,3.72A54.31,54.31,0,0,1,64.66,150.85Z" style="fill:url(#linear-gradient-48)"/><path d="M47.56,124.69q-1.29,1.8-2.54,3.67,1.14.76,2.23,1.57l2.52-3.77Z" style="fill:url(#linear-gradient-49)"/><path d="M51.1,124.17c-.43-.86-.84-1.73-1.22-2.61-.78,1-1.56,2.06-2.32,3.13l2.21,1.48Z" style="fill:url(#linear-gradient-50)"/><path d="M147.3,107.08l12.81,8.57c-2.35-10.78-7.39-19.89-15.12-26.21A50.35,50.35,0,0,1,147.3,107.08Z" style="fill:url(#linear-gradient-51)"/><path d="M142.25,140.27a52.91,52.91,0,0,1,6.48-5.2l-2.07-1.39Z" style="fill:url(#linear-gradient-52)"/><path d="M147.3,107.08a48.63,48.63,0,0,1-1.38,9.41l8.46,5.66-7.72,11.54,2.07,1.39a54,54,0,0,1,12.91-6.46,69.29,69.29,0,0,0-1.52-13Z" style="fill:url(#linear-gradient-53)"/><path d="M140.52,129.59q-.63,1-1.31,2.07A48.05,48.05,0,0,1,126.4,144.6a43.81,43.81,0,0,1,6.5,7.35c.5-.85,1-1.7,1.59-2.53a53.1,53.1,0,0,1,7.76-9.15l4.4-6.58Z" style="fill:url(#linear-gradient-54)"/><path d="M146.65,133.69l7.72-11.54-8.46-5.66a48,48,0,0,1-5.4,13.1Z" style="fill:url(#linear-gradient-55)"/><path d="M63.22,189q.58-.86,1.1-1.75c-5.48-10.63-6.13-23-1.12-33.62L46.58,142.53l5.67-8.47a58.82,58.82,0,0,0-5-4.13L36,146.78l11.34,7.59-1.93,2.89,11,7.37L40.78,188l-11-7.37-4.66,7,21.66,14.49A34.85,34.85,0,0,0,63.22,189Z" style="fill:#bdca61"/><rect x="38.94" y="145.2" width="3.47" height="13.64" transform="translate(-108.28 101.29) rotate(-56.21)" style="fill:url(#linear-gradient-56)"/><path d="M24.83,182.18c-.16,1.68-.26,3.34-.32,5l.6.4,4.66-7-2.68-1.79Z" style="fill:#bdca61"/><rect x="29.04" y="165.98" width="28.09" height="13.26" transform="translate(-124.34 112.43) rotate(-56.21)" style="fill:#4e6a53"/><path d="M32.39,152.14a116.94,116.94,0,0,0-4.46,13.27l5.6,3.75-6.45,9.64,2.68,1.79,15.62-23.35L34,149.67Z" style="fill:#4e6a53"/><path d="M24.83,182.18l2.26-3.37-1.7-1.14C25.16,179.18,25,180.69,24.83,182.18Z" style="fill:#bdca61"/><path d="M27.08,178.8l6.45-9.64-5.6-3.75a103.9,103.9,0,0,0-2.55,12.25Z" style="fill:#3e656a"/><path d="M24.46,188.51a72.09,72.09,0,0,0,1.4,16.22,45.07,45.07,0,0,0,20.9-2.68L25.1,187.56Z" style="fill:#f0db88"/><path d="M24.51,187.16c0,.45,0,.9,0,1.35l.64-1Z" style="fill:#bdca61"/><path d="M52.25,134.06l-5.67,8.47,16.62,11.12c.45-.95.93-1.88,1.47-2.8A54.31,54.31,0,0,0,52.25,134.06Z" style="fill:url(#linear-gradient-57)"/><path d="M35,146.13l1,.65,11.27-16.85q-1.09-.8-2.23-1.57A132.82,132.82,0,0,0,35,146.13Z" style="fill:url(#linear-gradient-58)"/><path d="M33.57,149.35l.48.32L36,146.78l-1-.65Q34.26,147.74,33.57,149.35Z" style="fill:url(#linear-gradient-59)"/><path d="M34,149.67l-.48-.32c-.4.93-.8,1.87-1.18,2.8Z" style="fill:url(#linear-gradient-60)"/><path d="M105.35,181.86,66.72,156c3.58,10.71,3,21.95-2.41,31.26A43.86,43.86,0,0,0,79,203.61c.75.5,1.52,1,2.29,1.43A121.52,121.52,0,0,1,105.35,181.86Z" style="fill:url(#linear-gradient-61)"/><path d="M124.41,166.93l-4,6q2.9-1.37,5.81-2.47.18-1.13.42-2.25C125.88,167.8,125.15,167.36,124.41,166.93Z" style="fill:url(#linear-gradient-62)"/><path d="M89.1,152.48a52.59,52.59,0,0,1-19.77-7.87,35.21,35.21,0,0,0-3.57,4.49c-.39.58-.75,1.16-1.1,1.75A48.23,48.23,0,0,1,66.72,156l38.63,25.85A97.1,97.1,0,0,1,120,173.13Z" style="fill:url(#linear-gradient-63)"/><path d="M105.68,152.7a51.55,51.55,0,0,1-16.58-.22L120,173.13l.43-.21,4-6c-1.66-1-3.32-2-4.95-3.08A98.7,98.7,0,0,1,105.68,152.7Z" style="fill:url(#linear-gradient-64)"/><path d="M126.62,168.21a52.91,52.91,0,0,1,2.36-8.12l-4.58,6.84C125.15,167.36,125.88,167.8,126.62,168.21Z" style="fill:url(#linear-gradient-65)"/><path d="M116.24,149.94a50.38,50.38,0,0,1-10.56,2.77,98.7,98.7,0,0,0,13.79,11.14c1.63,1.09,3.29,2.11,4.95,3.08l4.58-6.84c.16-.43.33-.86.5-1.29Z" style="fill:url(#linear-gradient-66)"/><path d="M129.49,158.8a53,53,0,0,1,3.41-6.85,43.81,43.81,0,0,0-6.5-7.35,49,49,0,0,1-10.16,5.33Z" style="fill:url(#linear-gradient-67)"/><path d="M66.72,156l-3.53-2.36c-5,10.61-4.36,23,1.12,33.62C69.75,178,70.3,166.73,66.72,156Z" style="fill:url(#linear-gradient-68)"/><path d="M64.66,150.85c-.54.92-1,1.85-1.47,2.8L66.72,156A48.23,48.23,0,0,0,64.66,150.85Z" style="fill:url(#linear-gradient-69)"/><path d="M148.41,166.07a47.46,47.46,0,0,1,6.23.4,112.78,112.78,0,0,0,5.05-17.26Z" style="fill:url(#linear-gradient-70)"/><path d="M139.45,166.82c.56-.09,1.11-.16,1.66-.24l-2.05-1.37Q139.27,166,139.45,166.82Z" style="fill:url(#linear-gradient-71)"/><path d="M148.72,135.08a52.91,52.91,0,0,0-6.48,5.2l-8.59,12.83a41.68,41.68,0,0,1,5.4,12.1l2.05,1.37a54.19,54.19,0,0,1,7.3-.51l11.28-16.86q.63-3.06,1.06-6.08Z" style="fill:url(#linear-gradient-72)"/><path d="M160.76,143.13a87.24,87.24,0,0,0,.88-14.51,54,54,0,0,0-12.91,6.46Z" style="fill:url(#linear-gradient-73)"/><path d="M134.48,149.42c-.56.83-1.08,1.68-1.59,2.53.27.38.51.77.77,1.15l8.59-12.83A53.1,53.1,0,0,0,134.48,149.42Z" style="fill:url(#linear-gradient-74)"/><path d="M126.21,170.46c.93-.35,1.85-.68,2.78-1-.79-.41-1.58-.82-2.36-1.26Q126.39,169.33,126.21,170.46Z" style="fill:url(#linear-gradient-75)"/><path d="M129.74,159l-.75,1.12a52.91,52.91,0,0,0-2.36,8.12c.78.43,1.57.85,2.36,1.26a67,67,0,0,1,10.47-2.65q-.18-.81-.39-1.61Z" style="fill:url(#linear-gradient-76)"/><path d="M139.06,165.21a41.68,41.68,0,0,0-5.4-12.1L129.74,159Z" style="fill:url(#linear-gradient-77)"/><path d="M129,160.09l.75-1.12-.25-.17C129.31,159.23,129.15,159.66,129,160.09Z" style="fill:url(#linear-gradient-78)"/><path d="M129.49,158.8l.25.17,3.92-5.86c-.25-.39-.5-.77-.77-1.15A53,53,0,0,0,129.49,158.8Z" style="fill:url(#linear-gradient-79)"/><path d="M53.73,128.82c.33.51.66,1,1,1.53l.4-.59Z" style="fill:url(#linear-gradient-80)"/><path d="M79.13,93.88a113.17,113.17,0,0,0-16.95,13.73L51.1,124.17a51.83,51.83,0,0,0,2.63,4.65l1.4.93Z" style="fill:url(#linear-gradient-81)"/><path d="M55.13,129.75l-.4.59a52.7,52.7,0,0,0,14.2,14l.39.25a35.08,35.08,0,0,1,3.34-3.12Z" style="fill:url(#linear-gradient-82)"/><path d="M89.76,132.22l-10.47-7,4.39-6.56a65.06,65.06,0,0,1-3.46-25.5l-1.1.72-24,35.87,17.54,11.74a37.33,37.33,0,0,1,17.84-7.93C90.25,133.12,90,132.67,89.76,132.22Z" style="fill:url(#linear-gradient-83)"/><path d="M79.29,125.22l10.47,7a79.26,79.26,0,0,1-6.08-13.57Z" style="fill:url(#linear-gradient-84)"/><path d="M62.19,107.61a129,129,0,0,0-12.3,14c.38.88.79,1.75,1.22,2.61Z" style="fill:url(#linear-gradient-85)"/><path d="M111.31,81q-1.19.16-2.39.38l1.47,1Z" style="fill:url(#linear-gradient-86)"/><path d="M147.3,107.08A50.35,50.35,0,0,0,145,89.45c-.94-.77-1.91-1.51-2.93-2.19-8.79-5.88-19.45-7.77-30.75-6.22l-.91,1.36Z" style="fill:url(#linear-gradient-87)"/><path d="M108.56,81.47a68.51,68.51,0,0,0-10.65,2.9l6,4Z" style="fill:url(#linear-gradient-88)"/><path d="M103.93,88.39l1.69,1.13,4.77-7.13-1.47-1-.36.07Z" style="fill:url(#linear-gradient-89)"/><path d="M105.62,89.53l40.3,27a48.63,48.63,0,0,0,1.38-9.41L110.4,82.39Z" style="fill:url(#linear-gradient-90)"/><path d="M97.91,84.37l-.62.22L89.86,95.69l-6.58-4.4q-1.53.9-3,1.87a65.06,65.06,0,0,0,3.46,25.5l20.25-30.26Z" style="fill:url(#linear-gradient-91)"/><path d="M89.76,132.22c.25.45.49.9.75,1.34l1-.15Z" style="fill:url(#linear-gradient-92)"/><path d="M105.62,89.53l-1.69-1.13L83.68,118.65a79.26,79.26,0,0,0,6.08,13.57l1.79,1.2a43.12,43.12,0,0,1,29.63,7.11,45.15,45.15,0,0,1,5.21,4.07,48.05,48.05,0,0,0,12.81-12.95q.68-1,1.31-2.07L97.9,101.07Z" style="fill:url(#linear-gradient-93)"/><path d="M97.9,101.07l42.62,28.52a48,48,0,0,0,5.4-13.1l-40.3-27Z" style="fill:url(#linear-gradient-94)"/><path d="M97.29,84.58a86.62,86.62,0,0,0-14,6.71l6.58,4.4Z" style="fill:url(#linear-gradient-95)"/><path d="M72.67,141.49a35.08,35.08,0,0,0-3.34,3.12,52.59,52.59,0,0,0,19.77,7.87Z" style="fill:url(#linear-gradient-96)"/><path d="M105.68,152.7a90.91,90.91,0,0,1-15.16-19.14,37.33,37.33,0,0,0-17.84,7.93l16.42,11A51.55,51.55,0,0,0,105.68,152.7Z" style="fill:url(#linear-gradient-97)"/><path d="M90.52,133.56a90.91,90.91,0,0,0,15.16,19.14,50.38,50.38,0,0,0,10.56-2.77L91.55,133.42Z" style="fill:url(#linear-gradient-98)"/><path d="M91.55,133.42l24.68,16.52a49,49,0,0,0,10.16-5.33,45.15,45.15,0,0,0-5.21-4.07A43.12,43.12,0,0,0,91.55,133.42Z" style="fill:url(#linear-gradient-99)"/><path d="M131.85,204.84A117.3,117.3,0,0,1,105.63,228l12.18,8.15-1.55,2.32,24.21,16.2,16.7-25a58.52,58.52,0,0,1-6.23-3.62A57.41,57.41,0,0,1,131.85,204.84Z" style="fill:#f0db88"/><path d="M160.21,234.08l1.54-2.31q-2.32-.93-4.58-2.07l-16.7,25,7,4.69L150.4,255l7.5,5H181q2.16-4.69,3.89-9.38Z" style="fill:#9c3b35"/><path d="M161.75,231.77l-1.54,2.31,24.71,16.54a113.45,113.45,0,0,0,3.87-12.93l-2.9-1.94A56.86,56.86,0,0,1,161.75,231.77Z" style="fill:#533c50"/><polygon points="104.99 255.3 109.41 258.26 110.64 256.42 115.98 260 136.89 260 140.46 254.67 116.25 238.47 104.99 255.3" style="fill:#9bb76a"/><polygon points="147.04 260 147.47 259.36 140.46 254.67 136.89 260 147.04 260" style="fill:#bdca61"/><polygon points="108.24 260 109.41 258.26 104.99 255.3 101.84 260 108.24 260" style="fill:#973f3e"/><path d="M70.63,240.38a48.91,48.91,0,0,1-9.43-.3A111.3,111.3,0,0,0,55.65,260H60l-1.7-1.14Z" style="fill:#533c50"/><path d="M116.25,238.47l1.55-2.32L105.63,228c-.87.55-1.75,1.08-2.63,1.6Z" style="fill:#973f3e"/><path d="M90.47,235.77l3.74,2.51L88,247.5l4.07,2.72,1.64-2.45L105,255.3l11.26-16.83L103,229.6A87.85,87.85,0,0,1,90.47,235.77Z" style="fill:#533c50"/><polygon points="92.1 250.23 95.81 252.71 90.93 260 101.84 260 104.99 255.3 93.74 247.77 92.1 250.23" style="fill:#973f3e"/><polygon points="85.56 260 92.1 250.23 88.04 247.5 79.67 260 85.56 260" style="fill:#973f3e"/><polygon points="90.93 260 95.81 252.71 92.1 250.23 85.56 260 90.93 260" style="fill:#973f3e"/><path d="M88,247.5l6.18-9.23-3.74-2.51a69.35,69.35,0,0,1-14,4Z" style="fill:#9bb76a"/><path d="M88,247.5l-11.61-7.77a56.83,56.83,0,0,1-5.79.65L58.27,258.86,60,260h19.7Z" style="fill:#9bb76a"/><polygon points="115.98 260 110.64 256.42 109.41 258.26 112.02 260 115.98 260" style="fill:#bdca61"/><polygon points="112.02 260 109.41 258.26 108.24 260 112.02 260" style="fill:#533c50"/><polygon points="157.91 260 150.4 254.98 147.47 259.36 148.43 260 157.91 260" style="fill:#bdca61"/><polygon points="148.43 260 147.47 259.36 147.04 260 148.43 260" style="fill:#f0db88"/><path d="M188.79,237.69c.17-.74.36-1.49.52-2.23q-1.7.2-3.41.29Z" style="fill:#533c50"/><path d="M157.28,216.6l18.12-27.08L160,179.23a86.74,86.74,0,0,1-10.12-1.86,133.66,133.66,0,0,1-8.82,15.26,134.07,134.07,0,0,1-9.23,12.2,57.41,57.41,0,0,0,19.08,21.25,58.52,58.52,0,0,0,6.23,3.62l6.09-9.1Z" style="fill:#2f628d"/><path d="M179.19,179.28a77.81,77.81,0,0,1-19.16,0l15.38,10.29,5.49-8.21C180.34,180.61,179.77,179.94,179.19,179.28Z" style="fill:#2f628d"/><path d="M163.25,220.6l-6.09,9.1q2.26,1.14,4.58,2.07l5.63-8.41Z" style="fill:#bdca61"/><path d="M185.9,235.75l-18.52-12.39-5.63,8.41A56.86,56.86,0,0,0,185.9,235.75Z" style="fill:#533c50"/><polygon points="175.4 189.52 157.28 216.6 163.25 220.6 175.94 201.64 180.07 204.4 185.5 196.28 175.4 189.52" style="fill:#2f628d"/><path d="M187.52,193.26a45.59,45.59,0,0,0-6.63-12l-5.49,8.21,10.1,6.76Z" style="fill:#2f628d"/><path d="M185.5,196.28l-5.43,8.12,11.21,7.5a66.27,66.27,0,0,0-2-13.09Z" style="fill:#533c50"/><path d="M189.28,198.81a55,55,0,0,0-1.76-5.54l-2,3Z" style="fill:#2f628d"/><rect x="160.25" y="210.02" width="22.82" height="4.96" transform="translate(-100.41 237) rotate(-56.21)" style="fill:#533c50"/><path d="M191.28,211.9l-11.21-7.5-12.69,19,18.52,12.39q1.71-.09,3.41-.29A89.67,89.67,0,0,0,191.28,211.9Z" style="fill:#533c50"/><path d="M149.91,177.37A86.74,86.74,0,0,0,160,179.23l-8.35-5.59Q150.82,175.51,149.91,177.37Z" style="fill:url(#linear-gradient-100)"/><path d="M179.19,179.28a38.75,38.75,0,0,0-7.38-6.46,40,40,0,0,0-17.16-6.34c-.91,2.39-1.89,4.78-3,7.17l8.35,5.59A77.81,77.81,0,0,0,179.19,179.28Z" style="fill:#a05037"/><path d="M81.27,205q-2.57,3.23-5,6.69L85.63,218l1.55-2.32L105.63,228a117.3,117.3,0,0,0,26.23-23.16c-.73-1.41-1.41-2.84-2-4.3C117.63,212.55,97.64,214.63,81.27,205Z" style="fill:#973f3e"/><path d="M69.8,221.94,78.9,228l6.72-10-9.34-6.25c-.51.73-1,1.45-1.52,2.19Q72.11,217.89,69.8,221.94Z" style="fill:#6e9658"/><path d="M78.9,228l-9.1-6.09q-2.83,4.93-5.13,9.93l8.05,5.39Z" style="fill:#6e9658"/><path d="M70.63,240.38l2.09-3.12-8.05-5.39q-1.9,4.1-3.47,8.21A48.91,48.91,0,0,0,70.63,240.38Z" style="fill:#f0db88"/><path d="M85.63,218,103,229.6c.88-.52,1.75-1,2.63-1.6L87.18,215.66Z" style="fill:#973f3e"/><path d="M90.47,235.77A87.85,87.85,0,0,0,103,229.6L85.63,218,78.9,228Z" style="fill:#973f3e"/><path d="M72.73,237.26l3.7,2.47a69.35,69.35,0,0,0,14-4L78.9,228Z" style="fill:#9bb76a"/><path d="M70.63,240.38a56.83,56.83,0,0,0,5.79-.65l-3.7-2.47Z" style="fill:#f0db88"/><path d="M125.55,176.87l-5.39-3.6-8.55,12.78-6.26-4.19A121.52,121.52,0,0,0,81.27,205c16.37,9.6,36.36,7.51,48.57-4.49A55.58,55.58,0,0,1,125.55,176.87Z" style="fill:url(#linear-gradient-101)"/><path d="M120.17,173.27l5.39,3.6a53.78,53.78,0,0,1,.65-6.42q-2.9,1.11-5.81,2.47Z" style="fill:url(#linear-gradient-102)"/><path d="M105.35,181.86l6.26,4.19,8.55-12.78-.2-.14A97.1,97.1,0,0,0,105.35,181.86Z" style="fill:url(#linear-gradient-103)"/><path d="M120,173.13l.2.14.23-.34Z" style="fill:url(#linear-gradient-104)"/><path d="M140.24,178.29a35.08,35.08,0,0,1-10.4,22.25c.61,1.46,1.29,2.89,2,4.3a134.07,134.07,0,0,0,9.23-12.2,133.66,133.66,0,0,0,8.82-15.26q-3.79-.93-7.58-2.21Z" style="fill:url(#linear-gradient-105)"/><path d="M140.24,178.29l2.09-3.13c-.66-.22-1.31-.44-2-.67A37.22,37.22,0,0,1,140.24,178.29Z" style="fill:url(#linear-gradient-106)"/><path d="M145.92,169.8l-3.59,5.36q3.78,1.28,7.58,2.21.92-1.86,1.76-3.73Z" style="fill:url(#linear-gradient-107)"/><path d="M145.92,169.8l5.75,3.85c1.08-2.39,2.07-4.78,3-7.17a47.46,47.46,0,0,0-6.23-.4Z" style="fill:url(#linear-gradient-108)"/><path d="M139.45,166.82a38.77,38.77,0,0,1,.91,7.67c.65.24,1.31.45,2,.67l3.59-5.36-4.81-3.22C140.56,166.65,140,166.72,139.45,166.82Z" style="fill:url(#linear-gradient-109)"/><path d="M141.11,166.58l4.81,3.22,2.49-3.73A54.19,54.19,0,0,0,141.11,166.58Z" style="fill:url(#linear-gradient-110)"/><path d="M125.55,176.87a55.58,55.58,0,0,0,4.28,23.67,35.08,35.08,0,0,0,10.4-22.25l-3.89,5.81Z" style="fill:url(#linear-gradient-111)"/><path d="M129,169.47c-.93.31-1.85.64-2.78,1a53.78,53.78,0,0,0-.65,6.42l10.8,7.22,3.89-5.81a37.22,37.22,0,0,0,.13-3.81A96.12,96.12,0,0,1,129,169.47Z" style="fill:url(#linear-gradient-112)"/><path d="M140.36,174.49a38.77,38.77,0,0,0-.91-7.67A67,67,0,0,0,129,169.47,96.12,96.12,0,0,0,140.36,174.49Z" style="fill:url(#linear-gradient-113)"/><path d="M11.94,10.63Q13.9,5.32,16.44,0H.17V3.15l.18-.27Z" style="fill:#d3dbac"/><path d="M5.55,39.27.17,35.68V62l5.59-8.36A79.09,79.09,0,0,1,5.55,39.27Z" style="fill:#7f82a3"/><path d="M11.94,10.63.35,2.88l-.18.27V33.48L8.76,20.64C9.65,17.32,10.7,14,11.94,10.63Z" style="fill:#53917a"/><path d="M8.92,67.68a60.79,60.79,0,0,1-3.16-14L.17,62V80.76Z" style="fill:#3f4368"/><path d="M.17,93v10.68a58.4,58.4,0,0,0,12.51-2.31Z" style="fill:#d2e0c9"/><path d="M32.15,92.61a38.63,38.63,0,0,1-7.23-3.78c-7.46-5-12.79-12.31-16-21.15L.17,80.76V93l12.51,8.37A84.55,84.55,0,0,0,32.15,92.61Z" style="fill:#c0794b"/><path d="M8.76,20.64.17,33.48v2.2l5.37,3.59A99.8,99.8,0,0,1,8.76,20.64Z" style="fill:#436ca1"/><path d="M14.37,12.26,22.57,0H16.44Q13.9,5.31,11.94,10.63Z" style="fill:#deb623"/><path d="M11.94,10.63c-1.24,3.35-2.28,6.69-3.17,10l5.61-8.38Z" style="fill:#455338"/><path d="M5.55,39.27a79.09,79.09,0,0,0,.22,14.39l6.58-9.84Z" style="fill:#ebe086"/><path d="M53.87,74.55,51.7,77.78l.41-.38C52.67,76.44,53.24,75.48,53.87,74.55Z" style="fill:url(#linear-gradient-114)"/><path d="M55.23,72.52l-1.36,2q.68-1,1.41-2Z" style="fill:url(#linear-gradient-115)"/><path d="M46.6,82.28q2.58-2.15,5.1-4.5l2.16-3.23h0l1.36-2L12.35,43.83,5.76,53.67a60.79,60.79,0,0,0,3.16,14l4.9-7.33Z" style="fill:#91b1c6"/><path d="M24.91,88.83a38.63,38.63,0,0,0,7.23,3.78A115.1,115.1,0,0,0,46.6,82.28L13.83,60.35l-4.9,7.33C12.13,76.52,17.45,83.84,24.91,88.83Z" style="fill:#dbd462"/><path d="M67.72,53.84,70.93,56c1.13-1.56,2.24-3.14,3.32-4.76a155.91,155.91,0,0,0,8.38-14.09L70.16,28.79,89.42,0H22.57l-8.2,12.26L70.44,49.78Z" style="fill:#9bb76a"/><path d="M24.85,25.15,67.72,53.84l2.72-4.06L14.37,12.26,8.76,20.64A99.8,99.8,0,0,0,5.55,39.27l6.8,4.55Z" style="fill:#533c50"/><path d="M66.63,61.63q2.19-2.75,4.29-5.65l-3.2-2.14L55.23,72.52l.05,0A48,48,0,0,1,66.63,61.63Z" style="fill:url(#linear-gradient-116)"/><rect x="28.8" y="23.04" width="22.47" height="51.59" transform="translate(-22.81 54.95) rotate(-56.21)" style="fill:#d2e0c9"/><path d="M89.42,0,70.16,28.79l12.47,8.34A132.18,132.18,0,0,0,95.86,0Z" style="fill:#c58734"/><path d="M56.36,73.27l-1.08-.72q-.73,1-1.41,2h0c-.62.93-1.2,1.89-1.75,2.85C53.54,76.06,55,74.7,56.36,73.27Z" style="fill:url(#linear-gradient-117)"/><polygon points="53.87 74.55 53.87 74.55 53.87 74.55 53.87 74.55" style="fill:url(#linear-gradient-118)"/><path d="M55.28,72.55l1.08.72A148.22,148.22,0,0,0,66.63,61.63,48,48,0,0,0,55.28,72.55Z" style="fill:url(#linear-gradient-119)"/><path d="M170.1,6.1,174.18,0h-2.39l-4.53,6.77C168.2,6.5,169.15,6.28,170.1,6.1Z" style="fill:#75849b"/><path d="M191.06,10a26.56,26.56,0,0,1,8.77,9.87V0H174.18L170.1,6.1A27.79,27.79,0,0,1,191.06,10Z" style="fill:#ae4834"/><path d="M192.4,62q1.63,1.18,3.19,2.42,2.08-2,4.24-3.74V50.71A42,42,0,0,1,192.4,62Z" style="fill:#f9e02e"/><path d="M164.77,7.59c.83-.3,1.66-.58,2.49-.82L171.79,0h-1.94Z" style="fill:#c58734"/><path d="M134.82,23.34l2.38,1.59-10,15c.26,1.55.54,3.08.91,4.55a73.15,73.15,0,0,1,8.18-.73l3-4.41a41,41,0,0,1,6.48-16.38A39.78,39.78,0,0,1,164.77,7.59L153.43,0H141.35A111.31,111.31,0,0,1,134.82,23.34Z" style="fill:#bdca61"/><polygon points="169.85 0 153.43 0 164.77 7.59 169.85 0" style="fill:#9bb76a"/><path d="M139.22,39.32l-3,4.41c.84,0,1.69,0,2.53,0A37.38,37.38,0,0,1,139.22,39.32Z" style="fill:#7f82a3"/><path d="M127.18,39.91l10-15-2.38-1.59a128.33,128.33,0,0,1-7.72,16Z" style="fill:#546a44"/><path d="M161.53,18.9,170.1,6.1c-.95.18-1.9.4-2.84.67l-7.38,11Z" style="fill:#ae4834"/><path d="M191.06,10a27.79,27.79,0,0,0-21-3.91l-8.57,12.8,38.29,25.62V19.87A26.56,26.56,0,0,0,191.06,10Z" style="fill:#9bb76a"/><path d="M142.5,43.78a85.75,85.75,0,0,1,18.9,3.08l-12.83-8.58,13-19.38-1.65-1.1Z" style="fill:#d2e0c9"/><path d="M161.4,46.86A96.54,96.54,0,0,1,189.15,59.7q1.66,1.11,3.25,2.27a42,42,0,0,0,7.43-11.26V44.52L161.53,18.9l-13,19.38Z" style="fill:#f9e02e"/><path d="M145.7,22.93a41,41,0,0,0-6.48,16.38L155.55,14.9l4.33,2.9,7.38-11c-.84.24-1.67.52-2.49.82A39.78,39.78,0,0,0,145.7,22.93Z" style="fill:#165296"/><path d="M142.5,43.78l17.39-26-4.33-2.9L139.22,39.32a37.38,37.38,0,0,0-.42,4.38Q140.64,43.7,142.5,43.78Z" style="fill:#75849b"/><path d="M196.54,65.17c1.1-.6,2.19-1.24,3.28-1.9V60.64q-2.16,1.77-4.24,3.74Z" style="fill:#f9e02e"/><path d="M192.16,67.45,189,65.3a37.88,37.88,0,0,1-12.43,7.2l.6.4A75.1,75.1,0,0,0,192.16,67.45Z" style="fill:#f9e02e"/><path d="M151.06,69.79C144.05,65.1,140,57.51,139,49l-5.62,8.4a35,35,0,0,0,10.47,11.11c9.22,6.17,20.85,7.36,33.29,4.37l-.6-.4C167.82,75.47,158.54,74.8,151.06,69.79Z" style="fill:#3f4368"/><path d="M189,65.3l3.2,2.14.67-.34c.9-.94,1.83-1.84,2.76-2.72Q194,63.15,192.4,62A41,41,0,0,1,189,65.3Z" style="fill:#f9e02e"/><path d="M133.72,43.87,135.42,45l.85-1.27a73.15,73.15,0,0,0-8.18.73,51.52,51.52,0,0,0,1.65,5.37Z" style="fill:url(#linear-gradient-120)"/><path d="M135.42,45l-1.69-1.13-4,6c.29.78.59,1.54.92,2.29Z" style="fill:url(#linear-gradient-121)"/><path d="M138.84,47.29a35.69,35.69,0,0,1,0-3.59c-.85,0-1.69,0-2.53,0L135.42,45Z" style="fill:url(#linear-gradient-122)"/><path d="M133.37,57.43,139,49c-.07-.58-.11-1.16-.15-1.74L135.42,45l-4.77,7.12A42.12,42.12,0,0,0,133.37,57.43Z" style="fill:url(#linear-gradient-123)"/><path d="M176.52,72.5A37.88,37.88,0,0,0,189,65.3L161.4,46.86a85.75,85.75,0,0,0-18.9-3.08l-2.75,4.11Z" style="fill:#706046"/><path d="M151.06,69.79c7.48,5,16.76,5.68,25.46,2.71L139.75,47.89,139,49C140,57.51,144.05,65.1,151.06,69.79Z" style="fill:#3f4368"/><path d="M192.4,62q-1.59-1.16-3.25-2.27A96.54,96.54,0,0,0,161.4,46.86L189,65.3A41,41,0,0,0,192.4,62Z" style="fill:#706046"/><path d="M138.84,47.29l.91.61,2.75-4.11q-1.86-.09-3.7-.09A35.69,35.69,0,0,0,138.84,47.29Z" style="fill:url(#linear-gradient-124)"/><path d="M139.75,47.89l-.91-.61c0,.58.08,1.17.15,1.74Z" style="fill:url(#linear-gradient-125)"/><path d="M192.83,67.11q1.85-.91,3.71-1.94l-1-.78C194.66,65.27,193.73,66.17,192.83,67.11Z" style="fill:#f9e02e"/><path d="M134.82,23.34A111.31,111.31,0,0,0,141.35,0H130.63a111.08,111.08,0,0,0-3.73,18Z" style="fill:#75849b"/><path d="M127.1,39.39a128.33,128.33,0,0,0,7.72-16L126.9,18A79.26,79.26,0,0,0,127.1,39.39Z" style="fill:#f0db88"/><rect x="30.33" y="39.27" width="139.34" height="181.45" style="fill:#005b48"/><path d="M63.7,67.89h9.95l.09,3h-.42A3.61,3.61,0,0,0,72.53,69a3.23,3.23,0,0,0-2-.42h-1v9q0,1,.32,1.26a2.94,2.94,0,0,0,1.39.32v.33H66.13v-.33a2.44,2.44,0,0,0,1.39-.37,2.3,2.3,0,0,0,.27-1.42v-8.8h-1a3.36,3.36,0,0,0-2,.42A3.11,3.11,0,0,0,64,70.88h-.43Z" style="fill:#e4e9b1"/><path d="M74.25,79.29a1.51,1.51,0,0,0,.92-.35,2.08,2.08,0,0,0,.22-1.2V69.5a1.54,1.54,0,0,0-.12-.71q-.12-.23-.61-.23h-.19l-.2,0v-.31l.93-.27L76,67.8l.82-.26,0,.06v5.27a5.61,5.61,0,0,1,1-.91,2.84,2.84,0,0,1,1.63-.52,1.89,1.89,0,0,1,1.9,1.17,4.06,4.06,0,0,1,.27,1.62v3.5a2.18,2.18,0,0,0,.21,1.19,1.27,1.27,0,0,0,.86.36v.24H78.94v-.24a1.61,1.61,0,0,0,1-.35,2.1,2.1,0,0,0,.21-1.19V74.27a2.84,2.84,0,0,0-.28-1.35,1.09,1.09,0,0,0-1.05-.52,2.11,2.11,0,0,0-1.3.48q-.63.48-.63.63v4.24a2,2,0,0,0,.22,1.2,1.68,1.68,0,0,0,1,.34v.24H74.25Z" style="fill:#e4e9b1"/><path d="M89,72.31A3.07,3.07,0,0,1,90,74.69H84.5a4.57,4.57,0,0,0,.9,2.9,2.52,2.52,0,0,0,1.93.91A2.43,2.43,0,0,0,88.86,78,4.74,4.74,0,0,0,90,76.68l.3.1a4.9,4.9,0,0,1-1.32,2,3.29,3.29,0,0,1-2.37.93,2.89,2.89,0,0,1-2.5-1.22,4.67,4.67,0,0,1-.88-2.81,4.57,4.57,0,0,1,1-3,3.27,3.27,0,0,1,2.66-1.25A3,3,0,0,1,89,72.31ZM84.93,73a3.41,3.41,0,0,0-.4,1.17h3.63a3.56,3.56,0,0,0-.33-1.28,1.48,1.48,0,0,0-1.41-.76A1.64,1.64,0,0,0,84.93,73Z" style="fill:#e4e9b1"/><path d="M94.4,79.53v-.33a1.43,1.43,0,0,0,1-.51,14,14,0,0,0,1.16-2.38l3.67-8.63h.35l4.38,10a4.22,4.22,0,0,0,.7,1.23,1.68,1.68,0,0,0,.88.32v.33h-4.47v-.33a4,4,0,0,0,1-.17q.22-.1.22-.48a2.1,2.1,0,0,0-.09-.45,5.06,5.06,0,0,0-.24-.68l-.7-1.69H97.64q-.69,1.73-.82,2.11a1.94,1.94,0,0,0-.13.6.62.62,0,0,0,.36.62,2.87,2.87,0,0,0,.84.15v.33ZM102,75l-2-4.85-2,4.85Z" style="fill:#e4e9b1"/><path d="M106.92,79.25a2.07,2.07,0,0,0,1-.28,1.15,1.15,0,0,0,.26-.9V74.2a3.33,3.33,0,0,0-.16-1.22.58.58,0,0,0-.58-.37l-.23,0-.3.06v-.28l1-.35.71-.26q.43-.16.88-.37s.06,0,.07,0a.84.84,0,0,1,0,.18v1.41a6.55,6.55,0,0,1,1.06-1.19,1.64,1.64,0,0,1,1.06-.43,1,1,0,0,1,.71.26.93.93,0,0,1,.07,1.25.67.67,0,0,1-.53.24,1,1,0,0,1-.66-.3.93.93,0,0,0-.52-.3q-.3,0-.74.49a1.49,1.49,0,0,0-.44,1V78a1.28,1.28,0,0,0,.34,1,1.73,1.73,0,0,0,1.14.27v.28h-4.24Z" style="fill:#e4e9b1"/><path d="M117.18,71.61v.62h-1.75l0,4.95a3.32,3.32,0,0,0,.11,1,.79.79,0,0,0,.81.59,1,1,0,0,0,.54-.15,2.83,2.83,0,0,0,.52-.46l.22.19-.19.26a2.75,2.75,0,0,1-.95.85,2.15,2.15,0,0,1-1,.25,1.35,1.35,0,0,1-1.37-.9,3.73,3.73,0,0,1-.2-1.36V72.23H113l-.06-.05a.1.1,0,0,1,0-.07.2.2,0,0,1,0-.13l.24-.22a7.48,7.48,0,0,0,.86-.79q.26-.3,1.23-1.61a.28.28,0,0,1,.13,0s0,.05,0,.13v2.11Z" style="fill:#e4e9b1"/><path d="M123.53,72.66a3.63,3.63,0,0,1,2.8-1.18,3.82,3.82,0,0,1,2.82,1.12,4,4,0,0,1,1.12,3,4.43,4.43,0,0,1-1.08,3,3.52,3.52,0,0,1-2.8,1.26,3.69,3.69,0,0,1-2.79-1.21,4.26,4.26,0,0,1-1.14-3A4.11,4.11,0,0,1,123.53,72.66Zm1.37-.22a3.52,3.52,0,0,0-.86,2.7,6.06,6.06,0,0,0,.69,2.85,2.12,2.12,0,0,0,1.92,1.32,1.64,1.64,0,0,0,1.48-.88,4.53,4.53,0,0,0,.52-2.32,6.14,6.14,0,0,0-.66-2.8A2.08,2.08,0,0,0,126.08,72,1.71,1.71,0,0,0,124.9,72.44Z" style="fill:#e4e9b1"/><path d="M131.13,79.29a1.85,1.85,0,0,0,1.2-.34,1.89,1.89,0,0,0,.29-1.25V72.19h-1.47v-.58h1.47a6.26,6.26,0,0,1,.37-2.29,2.58,2.58,0,0,1,2.59-1.79,3,3,0,0,1,1.36.3.91.91,0,0,1,.6.81.73.73,0,0,1-.21.51.65.65,0,0,1-.5.22.64.64,0,0,1-.43-.15,2.51,2.51,0,0,1-.43-.53l-.15-.22a1.25,1.25,0,0,0-.28-.31.73.73,0,0,0-.45-.12.87.87,0,0,0-.88.64,2.64,2.64,0,0,0-.13.9v2h2.14v.58h-2.14V77.7a1.94,1.94,0,0,0,.26,1.24,2.4,2.4,0,0,0,1.37.35v.24h-4.59Z" style="fill:#e4e9b1"/><path d="M45.93,98.76a2.15,2.15,0,0,0,1.13-.35,1.87,1.87,0,0,0,.26-1.23V89.35a2,2,0,0,0-.25-1.22,1.76,1.76,0,0,0-1.14-.36v-.33h8.41L54.4,90H54a2.62,2.62,0,0,0-.6-1.51,3.07,3.07,0,0,0-1.79-.34H49.44c-.23,0-.38,0-.43.13a.94.94,0,0,0-.08.47v3.93h2.44q1,0,1.29-.33A3.07,3.07,0,0,0,53.11,91h.37V95h-.37a3.11,3.11,0,0,0-.46-1.35q-.28-.33-1.28-.33H48.93v4.36q0,.52.3.62A9,9,0,0,0,51,98.4,5.48,5.48,0,0,0,53.39,98a3.51,3.51,0,0,0,1.38-1.89h.44l-.72,3H45.93Z" style="fill:#e4e9b1"/><path d="M55.59,98.76a1.72,1.72,0,0,0,1-.37,14,14,0,0,0,1.31-1.65l2.44-3.36-1.73-2.82A15,15,0,0,0,57,88.26a1.8,1.8,0,0,0-1.23-.49v-.33h4.76v.33a3.59,3.59,0,0,0-.9.1.46.46,0,0,0-.32.49,1.42,1.42,0,0,0,.15.57,3.4,3.4,0,0,0,.21.39L61.31,92l1.78-2.4a4.64,4.64,0,0,0,.53-.84.86.86,0,0,0,.08-.34.5.5,0,0,0-.34-.52,2.59,2.59,0,0,0-.76-.09v-.33h3.75v.33a2,2,0,0,0-1,.22A5.64,5.64,0,0,0,64,89.44l-2.29,3.19,3,4.83a3.33,3.33,0,0,0,.8,1,2.49,2.49,0,0,0,.94.31v.33H61.81v-.33a2.86,2.86,0,0,0,.94-.13A.43.43,0,0,0,63,98.2a2.32,2.32,0,0,0-.35-.92q-.35-.64-1.95-3.24l-1.86,2.59q-.41.57-.57.84a1.41,1.41,0,0,0-.25.62.54.54,0,0,0,.4.53,3.07,3.07,0,0,0,.81.14v.33H55.59Z" style="fill:#e4e9b1"/><path d="M74.49,87.52a7.85,7.85,0,0,0,1,.28.74.74,0,0,0,.42-.14.72.72,0,0,0,.28-.43h.33l.15,4h-.36a6,6,0,0,0-.83-1.9,3.07,3.07,0,0,0-2.62-1.36,3.22,3.22,0,0,0-2.72,1.46,6.75,6.75,0,0,0-1.06,4,5.9,5.9,0,0,0,1.11,3.76A3.44,3.44,0,0,0,73,98.58a4.17,4.17,0,0,0,2.27-.65,7,7,0,0,0,1.31-1.12l.29.33a5.53,5.53,0,0,1-1.31,1.3,4.87,4.87,0,0,1-2.88.95,5,5,0,0,1-4.05-1.81,6.35,6.35,0,0,1-1.38-4.18,6.49,6.49,0,0,1,1.46-4.31,5,5,0,0,1,4-1.83A5.89,5.89,0,0,1,74.49,87.52Z" style="fill:#e4e9b1"/><path d="M77.6,98.76a2.15,2.15,0,0,0,1.13-.35A1.87,1.87,0,0,0,79,97.18V89.35a2,2,0,0,0-.25-1.22,1.76,1.76,0,0,0-1.14-.36v-.33H86L86.07,90h-.4a2.62,2.62,0,0,0-.6-1.51,3.07,3.07,0,0,0-1.79-.34H81.11c-.23,0-.38,0-.43.13a.94.94,0,0,0-.08.47v3.93H83q1,0,1.29-.33A3.07,3.07,0,0,0,84.78,91h.37V95h-.37a3.11,3.11,0,0,0-.46-1.35Q84,93.33,83,93.33H80.6v4.36q0,.52.3.62a9,9,0,0,0,1.79.09A5.48,5.48,0,0,0,85.06,98a3.51,3.51,0,0,0,1.38-1.89h.44l-.72,3H77.6Z" style="fill:#e4e9b1"/><path d="M87.35,98.76a1.65,1.65,0,0,0,1.13-.4A2.72,2.72,0,0,0,88.71,97V89.35a2,2,0,0,0-.25-1.21,1.68,1.68,0,0,0-1.1-.37v-.33h4.18a4.77,4.77,0,0,1,3.08.87,2.8,2.8,0,0,1,1.07,2.29,2.92,2.92,0,0,1-1.18,2.6,5.14,5.14,0,0,1-3,.81H90.28v3.2a1.85,1.85,0,0,0,.27,1.25,2.22,2.22,0,0,0,1.23.33v.33H87.35Zm5.34-10.33A3.89,3.89,0,0,0,91,88.1a1,1,0,0,0-.6.11.69.69,0,0,0-.11.48v4.59l.56.05h.25A3.59,3.59,0,0,0,92.81,93a2.44,2.44,0,0,0,1.14-2.34A2.23,2.23,0,0,0,92.69,88.42Z" style="fill:#e4e9b1"/><path d="M96.21,87.45h9l.08,3h-.38a3.79,3.79,0,0,0-.71-1.83,2.68,2.68,0,0,0-1.81-.42h-.88v9q0,1,.29,1.26a2.44,2.44,0,0,0,1.25.32v.33H98.4v-.33a2,2,0,0,0,1.25-.37A2.51,2.51,0,0,0,99.9,97v-8.8H99a2.78,2.78,0,0,0-1.79.42,3.27,3.27,0,0,0-.71,1.84h-.39Z" style="fill:#e4e9b1"/><path d="M105.83,98.76a2.44,2.44,0,0,0,1.25-.32q.29-.24.29-1.26V89.35a1.85,1.85,0,0,0-.29-1.25,2.07,2.07,0,0,0-1.25-.33v-.33h4.69v.33a2.06,2.06,0,0,0-1.25.33,1.85,1.85,0,0,0-.29,1.25v7.83q0,1,.29,1.26a2.44,2.44,0,0,0,1.25.32v.33h-4.69Z" style="fill:#e4e9b1"/><path d="M112.91,88.75a4.93,4.93,0,0,1,7.2,0,7.18,7.18,0,0,1-.05,9.06,4.77,4.77,0,0,1-3.55,1.51,4.71,4.71,0,0,1-3.7-1.67,6.43,6.43,0,0,1-1.49-4.39A6.35,6.35,0,0,1,112.91,88.75Zm1.18,8.62a2.86,2.86,0,0,0,4.81,0,6.83,6.83,0,0,0,1-4.14,6.78,6.78,0,0,0-1-4.16,3,3,0,0,0-2.38-1.28,2.92,2.92,0,0,0-2.41,1.33,6.91,6.91,0,0,0-1,4.11A6.91,6.91,0,0,0,114.1,97.37Z" style="fill:#e4e9b1"/><path d="M122.46,98.76a1.79,1.79,0,0,0,1.26-.49,3.53,3.53,0,0,0,.28-1.77V88.74l-.22-.28a1.8,1.8,0,0,0-.59-.56,2.09,2.09,0,0,0-.73-.12v-.33h2.7l6.11,8.42V90a3.06,3.06,0,0,0-.39-1.88,1.83,1.83,0,0,0-1.13-.37v-.33h3.72v.33a1.75,1.75,0,0,0-1.21.49A3.3,3.3,0,0,0,132,90v9.26h-.27l-7-9.65v6.85a3.12,3.12,0,0,0,.38,1.88,1.81,1.81,0,0,0,1.11.39v.33h-3.72Z" style="fill:#e4e9b1"/><path d="M134,99.09v-.33a1.25,1.25,0,0,0,.92-.51,14.67,14.67,0,0,0,1-2.38l3.3-8.63h.32l3.95,10a4.34,4.34,0,0,0,.63,1.23,1.43,1.43,0,0,0,.79.32v.33h-4v-.33a3.25,3.25,0,0,0,.89-.17q.2-.1.2-.48a2.4,2.4,0,0,0-.08-.45,5.35,5.35,0,0,0-.22-.68L141,95.28h-4.17q-.62,1.73-.74,2.11a2.13,2.13,0,0,0-.12.6.63.63,0,0,0,.33.62,2.36,2.36,0,0,0,.76.15v.33Zm6.82-4.52L139,89.72l-1.82,4.85Z" style="fill:#e4e9b1"/><path d="M145.33,98.76a2.15,2.15,0,0,0,1.13-.35,1.87,1.87,0,0,0,.26-1.23V89.35a2,2,0,0,0-.25-1.22,1.76,1.76,0,0,0-1.14-.36v-.33h4.47v.33a2,2,0,0,0-1.17.32,1.56,1.56,0,0,0-.3,1.14v8.45a1,1,0,0,0,.09.46.49.49,0,0,0,.39.21l.38,0h.74a7,7,0,0,0,2.86-.39,4,4,0,0,0,1.44-2h.4l-.77,3h-8.52Z" style="fill:#e4e9b1"/><path d="M44.56,126.26a4.75,4.75,0,0,0,2.32-.64q.53-.45.53-2.27V108.94a3.38,3.38,0,0,0-.52-2.26,3.87,3.87,0,0,0-2.33-.66v-.6h9.15v.6a4.47,4.47,0,0,0-2.4.59,2.68,2.68,0,0,0-.61,2.1v15.57a1.66,1.66,0,0,0,.18.85,1,1,0,0,0,.8.39c.24,0,.5.05.77.06l1.51,0q4.32,0,5.85-.71t2.95-3.64h.82L62,126.87H44.56Z" style="fill:#e4e9b1"/><path d="M64.52,126.26a5.41,5.41,0,0,0,2.56-.59q.59-.45.59-2.32V108.94a3.15,3.15,0,0,0-.59-2.3,4.59,4.59,0,0,0-2.56-.61v-.6h9.59v.6a4.59,4.59,0,0,0-2.56.61,3.15,3.15,0,0,0-.59,2.3v14.42q0,1.87.59,2.32a5.41,5.41,0,0,0,2.56.59v.6H64.52Z" style="fill:#e4e9b1"/><path d="M83.94,105.42V106a6.51,6.51,0,0,0-1.66.16,1,1,0,0,0-.78,1,3.43,3.43,0,0,0,.28,1.13q.28.72,1,2.4L87.89,122l4.6-12.21q.3-.81.46-1.37a3.59,3.59,0,0,0,.16-.92,1.27,1.27,0,0,0-.81-1.29,4.9,4.9,0,0,0-1.56-.23v-.55h6.63V106a3,3,0,0,0-1.52.55A6.28,6.28,0,0,0,94.38,109L87.2,127.25h-.49l-8-17.81a9.86,9.86,0,0,0-1.62-2.82A2.86,2.86,0,0,0,75.3,106v-.55Z" style="fill:#e4e9b1"/><path d="M98.72,126.26a5.41,5.41,0,0,0,2.56-.59q.59-.45.59-2.32V108.94a3.15,3.15,0,0,0-.59-2.3,4.59,4.59,0,0,0-2.56-.61v-.6h9.59v.6a4.59,4.59,0,0,0-2.56.61,3.15,3.15,0,0,0-.59,2.3v14.42q0,1.87.59,2.32a5.41,5.41,0,0,0,2.56.59v.6H98.72Z" style="fill:#e4e9b1"/><path d="M109.35,126.26a3.88,3.88,0,0,0,2.58-.91q.57-.7.57-3.27V107.81l-.44-.52a3.58,3.58,0,0,0-1.21-1,4.7,4.7,0,0,0-1.5-.23v-.6h5.53l12.51,15.51V110.16q0-2.66-.79-3.46a4,4,0,0,0-2.31-.68v-.6h7.61v.6a3.77,3.77,0,0,0-2.47.9q-.62.71-.62,3.26v17.06h-.55l-14.34-17.77v12.62q0,2.66.78,3.46a4,4,0,0,0,2.26.71v.6h-7.61Z" style="fill:#e4e9b1"/><path d="M148.09,105.57a15.39,15.39,0,0,0,2.09.52,1.45,1.45,0,0,0,1-.27,2.12,2.12,0,0,0,.5-.78h.71l.25,6.82h-.74a12.42,12.42,0,0,0-2.06-3.51,6.55,6.55,0,0,0-5-2,7.53,7.53,0,0,0-5.48,2.37q-2.37,2.37-2.37,7.79a9.83,9.83,0,0,0,2.36,7,7.66,7.66,0,0,0,5.82,2.52,10.22,10.22,0,0,0,1.38-.11,8.48,8.48,0,0,0,1.5-.35,4.41,4.41,0,0,0,1.44-.66,1.08,1.08,0,0,0,.28-.81v-5.16q0-1.88-.53-2.34a4.29,4.29,0,0,0-2.32-.57v-.6h8.26v.6a3.1,3.1,0,0,0-1.6.4,2.54,2.54,0,0,0-.67,2.09v6.38q0,.57-2.79,1.52a16.68,16.68,0,0,1-5.37.95,11.94,11.94,0,0,1-8-2.77,10.21,10.21,0,0,1-3.59-8.2A11.29,11.29,0,0,1,136,108.6a10.61,10.61,0,0,1,8.36-3.56A13.34,13.34,0,0,1,148.09,105.57Z" style="fill:#e4e9b1"/><path d="M67.89,196.51a.78.78,0,0,1,.22.58s0,.11,0,.2,0,.17,0,.25a.68.68,0,0,0,.18.53.64.64,0,0,0,.45.16.7.7,0,0,0,.63-.34,3.27,3.27,0,0,0,.31-.82l2.21-8c.07-.25.12-.45.15-.61a2.26,2.26,0,0,0,.05-.48.62.62,0,0,0-.25-.52,2.19,2.19,0,0,0-1.1-.21V187h4.45v.28a2.14,2.14,0,0,0-1,.3,2,2,0,0,0-.49,1l-1.79,6.52a8.57,8.57,0,0,1-.95,2.34,2.78,2.78,0,0,1-2.44,1.36,2.17,2.17,0,0,1-1.59-.5,1.49,1.49,0,0,1-.5-1.05,1,1,0,0,1,.24-.7.79.79,0,0,1,.59-.25A.81.81,0,0,1,67.89,196.51Z" style="fill:#e4e9b1"/><path d="M78.39,190.68a.07.07,0,0,1,0,.07l-1.73,6.13a4,4,0,0,0-.12.58.46.46,0,0,0,.05.22c0,.07.1.1.21.1s.45-.17.77-.51a9.69,9.69,0,0,0,.7-.86l.22.19-.09.12a9.2,9.2,0,0,1-1.06,1.3,1.94,1.94,0,0,1-1.29.62.75.75,0,0,1-.61-.31,1.14,1.14,0,0,1-.25-.73,2.44,2.44,0,0,1,0-.43q0-.18.13-.55l1.22-4.42,0-.19a.93.93,0,0,0,0-.17.35.35,0,0,0-.23-.38,3.51,3.51,0,0,0-.9-.07v-.28l1-.13.63-.1.78-.15A1,1,0,0,1,78.39,190.68Zm-.81-2.15a1,1,0,0,1-.25-.66,1,1,0,0,1,.25-.67.78.78,0,0,1,.6-.27.8.8,0,0,1,.61.27,1,1,0,0,1,.25.67.94.94,0,0,1-.25.67.8.8,0,0,1-.61.27A.78.78,0,0,1,77.58,188.52Z" style="fill:#e4e9b1"/><path d="M86.52,190.88a1,1,0,0,1,.41.93,3.29,3.29,0,0,1-.14.81q-.14.52-.51,1.67a19,19,0,0,1,1.65-2.22,3.35,3.35,0,0,1,2.21-1.38,1.14,1.14,0,0,1,.74.27,1.07,1.07,0,0,1,.34.88,6,6,0,0,1-.16.92l-1.35,4.69a.29.29,0,0,0,0,.23.23.23,0,0,0,.22.12.48.48,0,0,0,.27-.08,2.18,2.18,0,0,0,.3-.26l.28-.3.61-.75.27.21-.09.12a7.2,7.2,0,0,1-1.25,1.4,2,2,0,0,1-1.24.52.77.77,0,0,1-.46-.14.88.88,0,0,1-.29-.75,1.86,1.86,0,0,1,0-.28c0-.1,0-.21.06-.33l1.33-4.82,0-.17a.81.81,0,0,0,0-.14.44.44,0,0,0-.11-.32.37.37,0,0,0-.28-.11,2.09,2.09,0,0,0-1.37.87,14.25,14.25,0,0,0-1.36,1.76,9.52,9.52,0,0,0-.74,1.53q-.22.62-.79,2.7H83.84l1.72-6.12,0-.15a.86.86,0,0,0,0-.15.5.5,0,0,0-.09-.32.36.36,0,0,0-.3-.12q-.55,0-1.37.9a14.69,14.69,0,0,0-1.33,1.69,9.83,9.83,0,0,0-1,2q-.27.77-.72,2.23H79.49l1.66-6.11c0-.06,0-.12,0-.18a.93.93,0,0,0,0-.18c0-.23-.08-.36-.23-.41a3.28,3.28,0,0,0-.89,0v-.28q.86-.14,2.8-.57l.07.06-1,3.52a21.68,21.68,0,0,1,1.83-2.33,3.22,3.22,0,0,1,2.09-1.24A1.05,1.05,0,0,1,86.52,190.88Z" style="fill:#e4e9b1"/><path d="M96.14,198.18A1.76,1.76,0,0,0,97,198a2,2,0,0,0,.59-1.07l2.16-7.79q.07-.23.13-.54a2.76,2.76,0,0,0,.06-.54.57.57,0,0,0-.29-.55,2.51,2.51,0,0,0-.95-.18V187h4.36a6.07,6.07,0,0,1,2.09.31,2.19,2.19,0,0,1,1.58,2.19,2.64,2.64,0,0,1-1.38,2.37,6.94,6.94,0,0,1-2.09.75l1.63,4.31a2.56,2.56,0,0,0,.55.94,1.35,1.35,0,0,0,.92.33v.28h-2.6l-2.17-5.7-1.15-.09-1,3.67-.12.44a3.56,3.56,0,0,0-.09.65.58.58,0,0,0,.28.56,2.21,2.21,0,0,0,.92.18v.28H96.14Zm5.27-6.09h.3a4,4,0,0,0,2.25-.61,2.3,2.3,0,0,0,.92-2.07,1.64,1.64,0,0,0-.63-1.5,3,3,0,0,0-1.62-.39,1.44,1.44,0,0,0-.55.09.55.55,0,0,0-.29.39l-1.12,4Z" style="fill:#e4e9b1"/><path d="M114.77,191.44a2.9,2.9,0,0,1,.59,1.82,5.3,5.3,0,0,1-1.61,3.57,4.79,4.79,0,0,1-3.54,1.82,2.62,2.62,0,0,1-1.9-.69,2.56,2.56,0,0,1-.71-1.93,5.25,5.25,0,0,1,1.6-3.6,4.79,4.79,0,0,1,3.53-1.76A2.42,2.42,0,0,1,114.77,191.44Zm-5.32,6.36a1.23,1.23,0,0,0,1,.47q1.4,0,2.48-2.11a7.45,7.45,0,0,0,.92-3.33,2.89,2.89,0,0,0-.15-1,1.1,1.1,0,0,0-1.1-.75q-1.31,0-2.47,2a7.1,7.1,0,0,0-1.08,3.62A1.89,1.89,0,0,0,109.45,197.8Z" style="fill:#e4e9b1"/><path d="M118,186.94l.9-.12.59-.09,1.1-.21.12,0c.07,0,.1.08.1.13l-2.13,7.67a20.62,20.62,0,0,1,1.74-2.34,3.22,3.22,0,0,1,2.17-1.27,1.36,1.36,0,0,1,.78.26,1.07,1.07,0,0,1,.38.94,2.7,2.7,0,0,1,0,.42,3.76,3.76,0,0,1-.1.46l-1.14,4.11c0,.12-.06.23-.09.33a1.41,1.41,0,0,0,0,.29.31.31,0,0,0,.07.22.26.26,0,0,0,.2.07,1,1,0,0,0,.63-.37q.22-.23.83-1l.22.21a8.8,8.8,0,0,1-1,1.31,2.18,2.18,0,0,1-1.5.73.82.82,0,0,1-.58-.21.8.8,0,0,1-.23-.62,1.59,1.59,0,0,1,0-.21,1.5,1.5,0,0,1,0-.22l1.3-5,0-.14a1,1,0,0,0,0-.15.44.44,0,0,0-.13-.33.51.51,0,0,0-.35-.12q-.57,0-1.44.92a11.91,11.91,0,0,0-1.47,1.89,6.88,6.88,0,0,0-.62,1.28q-.21.6-.81,2.77h-1.34L119.14,188a1.9,1.9,0,0,0,0-.19,1.31,1.31,0,0,0,0-.15q0-.37-.24-.44a3.2,3.2,0,0,0-.92,0Z" style="fill:#e4e9b1"/><path d="M125.05,198.46l1.47-5.31c.13-.45.2-.72.22-.82a1.46,1.46,0,0,0,0-.31.53.53,0,0,0-.14-.39.8.8,0,0,0-.55-.14h-.2l-.22,0v-.28l.79-.13.51-.1,1.53-.33a.18.18,0,0,1,.07.08l-1.14,3.69a20.5,20.5,0,0,1,1.76-2.39,3.35,3.35,0,0,1,2.23-1.38,1.4,1.4,0,0,1,.66.15,1.06,1.06,0,0,1,.53,1,2.22,2.22,0,0,1,0,.43q0,.22-.11.48l-1.13,4.11-.08.31a1.39,1.39,0,0,0,0,.26.44.44,0,0,0,.06.23.2.2,0,0,0,.19.1.79.79,0,0,0,.49-.26,9.69,9.69,0,0,0,.91-1.12l.25.22A10.66,10.66,0,0,1,132,198a2,2,0,0,1-1.32.68.93.93,0,0,1-.55-.19.81.81,0,0,1-.27-.7,2.32,2.32,0,0,1,0-.31,1.84,1.84,0,0,1,.06-.28L131,193a5.25,5.25,0,0,0,.12-.56,2.54,2.54,0,0,0,0-.31.63.63,0,0,0-.1-.36.39.39,0,0,0-.35-.15q-.65,0-1.64,1.17a14.79,14.79,0,0,0-1.18,1.66,8.51,8.51,0,0,0-.71,1.46q-.26.71-.82,2.58Z" style="fill:#e4e9b1"/><line x1="48.24" y1="156.36" x2="151.76" y2="156.36" style="fill:none;stroke:#e4e9b1;stroke-miterlimit:10"/></svg>