<svg id="Layer_1" data-name="Layer 1" xmlns="http://www.w3.org/2000/svg" viewBox="0 0 200 260"><title>book-obstacle-way</title><rect x="0.13" width="199.65" height="260" style="fill:#e9e1d6"/><path d="M93.56,21.62v2H90.11v9.48H87.69V23.66H84.23v-2Z" style="fill:#332f27"/><path d="M94.95,33.14V21.62h2.39V26h4.48V21.62h2.39V33.14h-2.39V28H97.34v5.14Z" style="fill:#332f27"/><path d="M115,23.66h-6.09v2.45h5.59v2h-5.59v3h6.38v2.07h-8.73V21.62H115Z" style="fill:#332f27"/><path d="M37.49,61.27Q35,63.79,30.41,63.79t-7.08-2.52q-3.28-3.09-3.28-8.91t3.28-8.91q2.45-2.52,7.08-2.52t7.08,2.52q3.27,3,3.27,8.91T37.49,61.27ZM34.67,58a8.84,8.84,0,0,0,1.57-5.62,8.85,8.85,0,0,0-1.57-5.62,5.15,5.15,0,0,0-4.26-2,5.22,5.22,0,0,0-4.28,2,8.75,8.75,0,0,0-1.6,5.63A8.75,8.75,0,0,0,26.14,58a5.22,5.22,0,0,0,4.28,2A5.16,5.16,0,0,0,34.67,58Z" style="fill:#332f27"/><path d="M60.3,43.9a5.49,5.49,0,0,1,1,3.3,4.81,4.81,0,0,1-1,3.18,5.17,5.17,0,0,1-1.65,1.23,4.81,4.81,0,0,1,2.49,1.9A5.71,5.71,0,0,1,62,56.67a6.32,6.32,0,0,1-1,3.44,5.95,5.95,0,0,1-4,2.78,15,15,0,0,1-3.05.29H44.27V41.6H54.71Q58.66,41.66,60.3,43.9ZM48.58,45.35v4.76h5.25a4.34,4.34,0,0,0,2.28-.53,2,2,0,0,0,.88-1.9,1.93,1.93,0,0,0-1.16-2,8.12,8.12,0,0,0-2.55-.34Zm0,8.33v5.76h5.24A5.1,5.1,0,0,0,56,59.06a2.72,2.72,0,0,0,1.42-2.7A2.32,2.32,0,0,0,56,54a5.45,5.45,0,0,0-2.16-.37Z" style="fill:#332f27"/><path d="M69.12,56.52a4.39,4.39,0,0,0,.82,2.21q1.12,1.33,3.84,1.33a8.27,8.27,0,0,0,2.65-.35,2.51,2.51,0,0,0,1.93-2.5,1.85,1.85,0,0,0-.95-1.66,10.24,10.24,0,0,0-3-1L72.08,54a14.56,14.56,0,0,1-4.74-1.66,5.26,5.26,0,0,1-2.18-4.67,6.21,6.21,0,0,1,2.13-4.82Q69.43,41,73.57,41a9.62,9.62,0,0,1,5.89,1.81A6.43,6.43,0,0,1,82,48H77.68a3.09,3.09,0,0,0-1.74-2.77,6,6,0,0,0-2.69-.54,5.12,5.12,0,0,0-2.85.7,2.22,2.22,0,0,0-1.07,2,1.85,1.85,0,0,0,1.05,1.73,13.09,13.09,0,0,0,2.87.89L77,50.9a9.64,9.64,0,0,1,3.73,1.57,5.28,5.28,0,0,1,1.93,4.41,6.2,6.2,0,0,1-2.29,4.92,9.66,9.66,0,0,1-6.46,2,10.57,10.57,0,0,1-6.71-1.93,6.38,6.38,0,0,1-2.44-5.3Z" style="fill:#332f27"/><path d="M101.56,41.6v3.82H95.1V63.19H90.56V45.42H84.07V41.6Z" style="fill:#332f27"/><path d="M108.16,41.6h5.11l7.64,21.59H116l-1.42-4.44h-8l-1.46,4.44h-4.72ZM107.86,55h5.53l-2.73-8.5Z" style="fill:#332f27"/><path d="M125.71,43.85a8.89,8.89,0,0,1,6.64-2.67q5.39,0,7.88,3.57a7.79,7.79,0,0,1,1.48,4H137.2a6.14,6.14,0,0,0-1.11-2.34,4.9,4.9,0,0,0-7.38.58,9.69,9.69,0,0,0-1.39,5.62,8.5,8.5,0,0,0,1.47,5.44,4.6,4.6,0,0,0,3.73,1.81,4.23,4.23,0,0,0,3.54-1.55,6.82,6.82,0,0,0,1.12-2.5h4.48a9.72,9.72,0,0,1-3,5.74,8.62,8.62,0,0,1-6.11,2.21,9.17,9.17,0,0,1-7.25-3q-2.64-3-2.64-8.23Q122.71,46.91,125.71,43.85Z" style="fill:#332f27"/><path d="M145.32,41.6h4.51V59.31h10.78v3.88H145.32Z" style="fill:#332f27"/><path d="M179.61,45.42H168.18V50h10.49v3.75H168.18v5.55h12v3.88H163.77V41.6h15.83Z" style="fill:#332f27"/><path d="M47.54,87.19h-3V72.79h3Z" style="fill:#332f27"/><path d="M52.53,82.75a2.91,2.91,0,0,0,.55,1.47,3.19,3.19,0,0,0,2.56.89,5.51,5.51,0,0,0,1.76-.23,1.68,1.68,0,0,0,1.29-1.67,1.23,1.23,0,0,0-.63-1.1,6.84,6.84,0,0,0-2-.67l-1.56-.34A9.71,9.71,0,0,1,51.34,80a3.51,3.51,0,0,1-1.46-3.12,4.14,4.14,0,0,1,1.42-3.21,6.07,6.07,0,0,1,4.18-1.28,6.42,6.42,0,0,1,3.93,1.21,4.29,4.29,0,0,1,1.71,3.5H58.24a2.06,2.06,0,0,0-1.16-1.85,4,4,0,0,0-1.79-.36,3.41,3.41,0,0,0-1.9.47,1.48,1.48,0,0,0-.71,1.31,1.23,1.23,0,0,0,.7,1.15,8.7,8.7,0,0,0,1.91.6l2.53.6a6.43,6.43,0,0,1,2.49,1A3.52,3.52,0,0,1,61.59,83a4.13,4.13,0,0,1-1.53,3.28,6.43,6.43,0,0,1-4.31,1.3,7,7,0,0,1-4.47-1.28,4.25,4.25,0,0,1-1.63-3.53Z" style="fill:#332f27"/><path d="M79.71,72.79v2.55H75.41V87.19h-3V75.34H68.05V72.79Z" style="fill:#332f27"/><path d="M81.45,87.19V72.79h3v5.49H90V72.79h3V87.19H90V80.76h-5.6v6.43Z" style="fill:#332f27"/><path d="M106.56,75.34H98.94V78.4h7v2.5h-7v3.7h8v2.59H96V72.79h10.56Z" style="fill:#332f27"/><path d="M116.77,72.79l1.9,8.24.41,2.29.42-2.25,1.63-8.29h3.17L126,81l.44,2.29.44-2.21,1.92-8.33h3.06l-4,14.39h-2.88l-1.74-8.42L122.7,76l-.51,2.78-1.74,8.42h-2.79l-4.08-14.39Z" style="fill:#332f27"/><path d="M136.71,72.79h3.4l5.09,14.39h-3.26l-1-3h-5.3l-1,3h-3.15Zm-.2,9h3.69l-1.82-5.66Z" style="fill:#332f27"/><path d="M153.41,72.79h3.41l-4.81,9v5.4h-3v-5.4l-5-9h3.54l3,6.27Z" style="fill:#332f27"/><path d="M66.68,236.26a1.62,1.62,0,0,1,.61.45,2,2,0,0,1,.33.54,1.81,1.81,0,0,1,.12.68,2,2,0,0,1-.23.91,1.3,1.3,0,0,1-.77.63,1.21,1.21,0,0,1,.63.51,2.13,2.13,0,0,1,.19,1v.44a3.33,3.33,0,0,0,0,.6.55.55,0,0,0,.25.37v.16H66.34c0-.14-.07-.26-.09-.35a3.07,3.07,0,0,1-.06-.56v-.6a1.22,1.22,0,0,0-.21-.83,1.09,1.09,0,0,0-.77-.21H63.88v2.54H62.56v-6.48h3.1A2.83,2.83,0,0,1,66.68,236.26Zm-2.8,1V239h1.46a1.55,1.55,0,0,0,.65-.11.73.73,0,0,0,.38-.73.82.82,0,0,0-.37-.79,1.34,1.34,0,0,0-.63-.11Z" style="fill:#221f18"/><path d="M73.29,236.09h1.53l-2.17,4v2.43H71.3v-2.43l-2.24-4h1.59L72,238.91Z" style="fill:#221f18"/><path d="M77.53,236.09h1.53l2.29,6.48H79.88l-.43-1.33H77.07l-.44,1.33H75.21Zm-.09,4h1.66l-.82-2.55Z" style="fill:#221f18"/><path d="M83,236.09h1.42L87,240.61v-4.52H88.3v6.48H86.95L84.31,238v4.6H83Z" style="fill:#221f18"/><path d="M93.86,242.57v-6.48h1.34v2.47h2.52v-2.47h1.35v6.48H97.72v-2.89H95.21v2.89Z" style="fill:#221f18"/><path d="M106.26,242a3.36,3.36,0,0,1-4.25,0,3.49,3.49,0,0,1-1-2.67,3.43,3.43,0,0,1,1-2.67,3.36,3.36,0,0,1,4.25,0,3.44,3.44,0,0,1,1,2.67A3.5,3.5,0,0,1,106.26,242Zm-.85-1a3.24,3.24,0,0,0,0-3.37,1.54,1.54,0,0,0-1.28-.6,1.57,1.57,0,0,0-1.28.59,3.21,3.21,0,0,0,0,3.38,1.56,1.56,0,0,0,1.28.59A1.54,1.54,0,0,0,105.41,241Z" style="fill:#221f18"/><path d="M109.17,236.09h1.35v5.31h3.23v1.16h-4.59Z" style="fill:#221f18"/><path d="M116.8,242.57h-1.34v-6.48h1.34Z" style="fill:#221f18"/><path d="M122.76,236.23a2.14,2.14,0,0,1,1.1.82,2.9,2.9,0,0,1,.46,1,5,5,0,0,1,.12,1.07,4.3,4.3,0,0,1-.52,2.19,2.34,2.34,0,0,1-2.17,1.21H119v-6.48h2.79A3.42,3.42,0,0,1,122.76,236.23Zm-2.48,1v4.23h1.25a1.35,1.35,0,0,0,1.34-.95,3.32,3.32,0,0,0,.21-1.23,3,3,0,0,0-.31-1.52,1.31,1.31,0,0,0-1.23-.53Z" style="fill:#221f18"/><path d="M128.22,236.09h1.53l2.29,6.48h-1.47l-.43-1.33h-2.39l-.44,1.33h-1.42Zm-.09,4h1.66l-.82-2.55Z" style="fill:#221f18"/><path d="M136.64,236.09h1.53l-2.17,4v2.43h-1.35v-2.43l-2.24-4H134l1.34,2.82Z" style="fill:#221f18"/><path d="M119.2,185.75c4.2,13.49-7.52,20.12-7.52,20.12s3.1-9.51,5.31-14.81c0,0-6.19,6.41-7.52,13.93C109.47,205,103.89,188.62,119.2,185.75Z" style="fill:#8d8429"/><path d="M122.23,197.81s-5.82-14.09,7.5-17.47c4.44,11.64-5.51,18.13-5.51,18.13s2.2-8.54,3.85-13.33C128.08,185.14,123,191.12,122.23,197.81Z" style="fill:#90872e"/><path d="M134.44,187.11s-8.48-10.23,1.74-16.47c6.7,8.54.09,16.5.09,16.5s-.37-7.67-.23-12.09C136,175.05,133.34,181.35,134.44,187.11Z" style="fill:#938a32"/><path d="M141.26,172.37s-8.81-7.29-1.17-14.22c7,6.15,2.72,13.95,2.72,13.95s-1.55-6.43-2.13-10.19C140.68,161.91,139.41,167.67,141.26,172.37Z" style="fill:#968d37"/><path d="M144.08,154.56s-9.31-3-5.43-10.92c7.54,2.66,6.58,10.22,6.58,10.22s-3.26-4.62-4.92-7.42C140.31,146.44,141.12,151.42,144.08,154.56Z" style="fill:#9a913c"/><path d="M141.92,141.59s-8.42.05-7.38-7.46a8.38,8.38,0,0,1,8.13,6.58s-3.91-2.9-6-4.74A15.2,15.2,0,0,0,141.92,141.59Z" style="fill:#9d9440"/><path d="M137.93,131s-6.91,2.95-8.65-3.59a7.47,7.47,0,0,1,9,2.61s-4.22-1-6.59-1.82A13.57,13.57,0,0,0,137.93,131Z" style="fill:#a09745"/><path d="M132.24,123.93s-6.82,2.42-8.1-4A7.2,7.2,0,0,1,132.6,123s-4-1.25-6.23-2.15A13.07,13.07,0,0,0,132.24,123.93Z" style="fill:#a39a49"/><path d="M118.77,111.16a7.63,7.63,0,0,1,8.56,4.16s-4.06-1.76-6.31-3a13.84,13.84,0,0,0,5.83,3.9S119.4,118,118.77,111.16Z" style="fill:#a69d4e"/><path d="M139,212.25c-9.14-10.77-21-4.42-21-4.42s9.69,2.47,15.35,3.45c0,0-8.73,1.8-15.79-1.11C117.59,210.17,128.42,223.65,139,212.25Z" style="fill:#8d8429"/><path d="M130.53,202.95S143.46,211,149,198.47c-10.74-6.32-18.79,2.4-18.79,2.4s8.79-.74,13.79-1.57C144,199.3,137.26,203.32,130.53,202.95Z" style="fill:#90872e"/><path d="M143.17,191.95s13,2.86,13.85-9.09c-10.66-2-14.72,7.47-14.72,7.47s7-3.18,10.85-5.33C153.16,185,148.8,190.29,143.17,191.95Z" style="fill:#938a32"/><path d="M149.2,180.4s13,.11,11.46-11.54C150,169.06,148,179,148,179s6.07-4.48,9.35-7.32C157.39,171.71,154.27,177.66,149.2,180.4Z" style="fill:#968d37"/><path d="M152.26,167.17s12.54-2,9.16-12.91c-10.2,1.89-10.49,11.78-10.49,11.78s5.11-5.27,7.8-8.52C158.73,157.51,156.69,163.73,152.26,167.17Z" style="fill:#9a913c"/><path d="M152.73,155.06s11.88-6.8,4.28-16.52c-9.55,5.82-6.05,15.89-6.05,15.89s3.13-7.27,4.59-11.58C155.55,142.85,155.88,149.9,152.73,155.06Z" style="fill:#9d9440"/><path d="M149.91,141.08s8-6.1,1.53-12.45c-6.4,5.16-2.88,12.16-2.88,12.16s1.58-5.6,2.23-8.88C150.79,131.92,151.71,137,149.91,141.08Z" style="fill:#a09745"/><path d="M146.1,132.47s7-8.53-1.55-13.64c-5.49,7.12,0,13.67,0,13.67s.26-6.36.11-10C144.7,122.49,147,127.69,146.1,132.47Z" style="fill:#a39a49"/><path d="M136.25,113.06a8.74,8.74,0,0,0,2.42,10.63s-.91-5-1.67-7.81a15.85,15.85,0,0,1,2.84,7.52S143.76,115.55,136.25,113.06Z" style="fill:#a69d4e"/><path d="M129,108.41a7.63,7.63,0,0,0,2.25,9.25s-.86-4.35-1.55-6.8a13.84,13.84,0,0,1,2.57,6.53S135.63,110.48,129,108.41Z" style="fill:#a69d4e"/><path d="M106.46,210.2c25.4-3.7,60.85-40.11,31.63-84.53,26.9,44.42-6.42,77.28-31.64,83.75C105.15,209.76,106.46,210.2,106.46,210.2Z" style="fill:#968d37"/><path d="M80.8,185.75c-4.2,13.49,7.52,20.12,7.52,20.12s-3.1-9.51-5.31-14.81c0,0,6.19,6.41,7.52,13.93C90.53,205,96.11,188.62,80.8,185.75Z" style="fill:#8d8429"/><path d="M77.77,197.81s5.82-14.09-7.5-17.47c-4.44,11.64,5.51,18.13,5.51,18.13s-2.2-8.54-3.85-13.33C71.92,185.14,77,191.12,77.77,197.81Z" style="fill:#90872e"/><path d="M65.56,187.11s8.48-10.23-1.74-16.47c-6.7,8.54-.09,16.5-.09,16.5s.37-7.67.23-12.09C64,175.05,66.66,181.35,65.56,187.11Z" style="fill:#938a32"/><path d="M58.74,172.37s8.81-7.29,1.17-14.22c-7,6.15-2.72,13.95-2.72,13.95s1.55-6.43,2.13-10.19C59.32,161.91,60.59,167.67,58.74,172.37Z" style="fill:#968d37"/><path d="M55.92,154.56s9.31-3,5.43-10.92c-7.54,2.66-6.58,10.22-6.58,10.22s3.26-4.62,4.92-7.42C59.69,146.44,58.88,151.42,55.92,154.56Z" style="fill:#9a913c"/><path d="M58.08,141.59s8.42.05,7.38-7.46a8.38,8.38,0,0,0-8.13,6.58s3.91-2.9,6-4.74A15.2,15.2,0,0,1,58.08,141.59Z" style="fill:#9d9440"/><path d="M62.07,131S69,134,70.72,127.41a7.47,7.47,0,0,0-9,2.61s4.22-1,6.59-1.82A13.57,13.57,0,0,1,62.07,131Z" style="fill:#a09745"/><path d="M67.76,123.93s6.82,2.42,8.1-4A7.2,7.2,0,0,0,67.4,123s4-1.25,6.23-2.15A13.07,13.07,0,0,1,67.76,123.93Z" style="fill:#a39a49"/><path d="M81.23,111.16a7.63,7.63,0,0,0-8.56,4.16s4.06-1.76,6.31-3a13.84,13.84,0,0,1-5.83,3.9S80.6,118,81.23,111.16Z" style="fill:#a69d4e"/><path d="M61,212.25c9.14-10.77,21-4.42,21-4.42s-9.69,2.47-15.35,3.45c0,0,8.73,1.8,15.79-1.11C82.41,210.17,71.58,223.65,61,212.25Z" style="fill:#8d8429"/><path d="M69.47,202.95S56.54,211,51,198.47c10.74-6.32,18.79,2.4,18.79,2.4S61,200.13,56,199.3C56,199.3,62.74,203.32,69.47,202.95Z" style="fill:#90872e"/><path d="M56.83,191.95s-13,2.86-13.85-9.09c10.66-2,14.72,7.47,14.72,7.47s-7-3.18-10.85-5.33C46.84,185,51.2,190.29,56.83,191.95Z" style="fill:#938a32"/><path d="M50.8,180.4s-13,.11-11.46-11.54C50,169.06,52,179,52,179s-6.07-4.48-9.35-7.32C42.61,171.71,45.73,177.66,50.8,180.4Z" style="fill:#968d37"/><path d="M47.74,167.17s-12.54-2-9.16-12.91C48.78,156.15,49.07,166,49.07,166s-5.11-5.27-7.8-8.52C41.27,157.51,43.31,163.73,47.74,167.17Z" style="fill:#9a913c"/><path d="M47.27,155.06s-11.88-6.8-4.28-16.52c9.55,5.82,6.05,15.89,6.05,15.89s-3.13-7.27-4.59-11.58C44.45,142.85,44.12,149.9,47.27,155.06Z" style="fill:#9d9440"/><path d="M50.09,141.08s-8-6.1-1.53-12.45c6.4,5.16,2.88,12.16,2.88,12.16s-1.58-5.6-2.23-8.88C49.21,131.92,48.29,137,50.09,141.08Z" style="fill:#a09745"/><path d="M53.9,132.47s-7-8.53,1.55-13.64c5.49,7.12,0,13.67,0,13.67s-.26-6.36-.11-10C55.3,122.49,53,127.69,53.9,132.47Z" style="fill:#a39a49"/><path d="M63.75,113.06a8.74,8.74,0,0,1-2.42,10.63s.91-5,1.67-7.81a15.85,15.85,0,0,0-2.84,7.52S56.24,115.55,63.75,113.06Z" style="fill:#a69d4e"/><path d="M71,108.41a7.63,7.63,0,0,1-2.25,9.25s.86-4.35,1.55-6.8a13.84,13.84,0,0,0-2.57,6.53S64.37,110.48,71,108.41Z" style="fill:#a69d4e"/><path d="M93.54,210.2c-25.4-3.7-60.85-40.11-31.63-84.53C35,170.09,68.32,203,93.54,209.42,94.85,209.76,93.54,210.2,93.54,210.2Z" style="fill:#968d37"/><line x1="93.45" y1="113.72" x2="106.33" y2="113.72" style="fill:none;stroke:#bf462b;stroke-linecap:round;stroke-miterlimit:10;stroke-width:2px"/><line x1="84.21" y1="125.9" x2="115.57" y2="125.9" style="fill:none;stroke:#bf462b;stroke-linecap:round;stroke-miterlimit:10;stroke-width:2px"/><line x1="89.73" y1="138.09" x2="110.05" y2="138.09" style="fill:none;stroke:#bf462b;stroke-linecap:round;stroke-miterlimit:10;stroke-width:2px"/><line x1="84.82" y1="150.28" x2="114.95" y2="150.28" style="fill:none;stroke:#bf462b;stroke-linecap:round;stroke-miterlimit:10;stroke-width:2px"/><line x1="81.23" y1="162.47" x2="118.55" y2="162.47" style="fill:none;stroke:#bf462b;stroke-linecap:round;stroke-miterlimit:10;stroke-width:2px"/><line x1="84.82" y1="174.66" x2="114.95" y2="174.66" style="fill:none;stroke:#bf462b;stroke-linecap:round;stroke-miterlimit:10;stroke-width:2px"/></svg>