<svg id="Layer_1" data-name="Layer 1" xmlns="http://www.w3.org/2000/svg" xmlns:xlink="http://www.w3.org/1999/xlink" viewBox="0 0 200 260"><defs><radialGradient id="radial-gradient" cx="100" cy="130" r="107" gradientTransform="translate(0 -74.37) scale(1 1.57)" gradientUnits="userSpaceOnUse"><stop offset="0.4" stop-color="#e5bd44"/><stop offset="1" stop-color="#ad9334"/></radialGradient><clipPath id="clip-path"><rect width="200" height="260" style="fill:none"/></clipPath></defs><title>book-deep-work</title><rect width="200" height="260" style="fill:url(#radial-gradient)"/><path d="M29.26,228.41c0,.11,0,.21-.14.27a6.21,6.21,0,0,1-3.15.87c-3.09,0-5.16-2.16-5.16-5.4s2.07-5.4,5.16-5.4a6.21,6.21,0,0,1,3.15.87c.12.06.18.17.14.27l-1,2.08a.2.2,0,0,1-.29.12,3.32,3.32,0,0,0-1.74-.42,2.49,2.49,0,0,0,0,4.95,3.32,3.32,0,0,0,1.74-.42.2.2,0,0,1,.29.12Z"/><path d="M45.89,229.13a.14.14,0,0,1-.13.2h-3a.35.35,0,0,1-.32-.2L42,227.56H39.2l-.45,1.57a.35.35,0,0,1-.31.2h-3a.14.14,0,0,1-.13-.2l3.39-10a.46.46,0,0,1,.36-.2h3.06a.45.45,0,0,1,.36.2Zm-5.28-6.57-.81,2.85h1.62Z"/><path d="M58.08,226.63a.2.2,0,0,1,.2.21l-.21,2.28a.26.26,0,0,1-.24.21H52.42a.23.23,0,0,1-.22-.21V219.2a.23.23,0,0,1,.22-.22h2.66a.23.23,0,0,1,.22.22v7.42Z"/><path d="M81.47,219a.22.22,0,0,1,.23.22v9.92a.22.22,0,0,1-.23.21H78.88a.41.41,0,0,1-.32-.2L76,224.47v4.65a.22.22,0,0,1-.22.21H73.07a.21.21,0,0,1-.21-.21V219.2a.22.22,0,0,1,.21-.22h2.59a.4.4,0,0,1,.34.2l2.6,4.66V219.2a.23.23,0,0,1,.21-.22Z"/><path d="M96,226.63a.22.22,0,0,1,.22.2v2.29a.23.23,0,0,1-.22.21H89c-.11,0-.21-.12-.24-.22v-9.92A.19.19,0,0,1,89,219h6.83a.23.23,0,0,1,.24.21v2.26a.23.23,0,0,1-.24.23H91.87v1.18H95a.18.18,0,0,1,.2.2l-.21,2.1a.26.26,0,0,1-.25.2H91.87v1.27Z"/><path d="M116.93,219a.18.18,0,0,1,.18.25l-2.73,9.85a.37.37,0,0,1-.33.24h-2.61a.38.38,0,0,1-.35-.24l-1.36-5.28-1.37,5.28a.38.38,0,0,1-.34.24h-2.61a.37.37,0,0,1-.33-.24l-2.73-9.85a.18.18,0,0,1,.18-.25h3.36a.38.38,0,0,1,.34.25l.85,4.49,1.16-4.49a.42.42,0,0,1,.41-.25h2.16a.42.42,0,0,1,.41.25l1.16,4.49.85-4.49a.38.38,0,0,1,.35-.25Z"/><path d="M127.27,219c2.63,0,4.2,1.42,4.2,3.57s-1.57,3.57-4.2,3.57h-.62v3a.23.23,0,0,1-.24.21h-2.68a.23.23,0,0,1-.21-.21V219.2a.23.23,0,0,1,.21-.22Zm.13,4.46a.89.89,0,0,0,0-1.77h-.78v1.77Z"/><path d="M143.27,229.54a5.4,5.4,0,1,1,5.32-5.38A5.06,5.06,0,0,1,143.27,229.54Zm0-7.77a2.41,2.41,0,1,0,2.05,2.38A2.12,2.12,0,0,0,143.27,221.77Z"/><path d="M164.1,229.09c.08.13,0,.24-.17.24h-3.21a.39.39,0,0,1-.34-.24l-1.56-3.27h-.18v3.3a.23.23,0,0,1-.24.21h-2.64a.23.23,0,0,1-.22-.21V219.2a.23.23,0,0,1,.22-.22h4c2.31,0,3.84,1.35,3.84,3.39a3.16,3.16,0,0,1-1.84,2.87Zm-4.57-5.82a.8.8,0,1,0,0-1.59h-.89v1.59Z"/><path d="M178.41,219a.2.2,0,0,1,.21.21l-.22,2.28a.25.25,0,0,1-.24.21h-2.23v7.44a.21.21,0,0,1-.21.21h-2.66a.23.23,0,0,1-.22-.21v-7.44h-2.49a.21.21,0,0,1-.21-.21V219.2a.23.23,0,0,1,.21-.22Z"/><line x1="17.21" y1="112.75" x2="181.31" y2="112.75" style="fill:none;stroke:#fff;stroke-miterlimit:10;stroke-width:4px"/><line x1="27.21" y1="242.32" x2="171.31" y2="242.32" style="fill:none;stroke:#fff;stroke-miterlimit:10"/><g style="clip-path:url(#clip-path)"><path d="M17.35,28.78c19.77,0,32.92,12.78,32.92,32.17,0,19.21-13.15,32.18-32.92,32.18H-4.28a1.42,1.42,0,0,1-1.31-1.4V30.18a1.42,1.42,0,0,1,1.31-1.4Zm1.12,47.56c7.18,0,12-6.16,12-15.39s-4.85-15.39-12-15.39H13.62V76.34Z"/><path d="M100.17,76.34a1.34,1.34,0,0,1,1.4,1.21V91.82a1.42,1.42,0,0,1-1.4,1.31H56.81c-.65,0-1.31-.75-1.49-1.4V30.08a1.18,1.18,0,0,1,1.31-1.31H99.05a1.45,1.45,0,0,1,1.49,1.31V44.17a1.4,1.4,0,0,1-1.49,1.4H74.71v7.37H94.48a1.12,1.12,0,0,1,1.21,1.21L94.39,67.2a1.64,1.64,0,0,1-1.58,1.21H74.71v7.93Z"/><path d="M151.47,76.34a1.35,1.35,0,0,1,1.4,1.21V91.82a1.42,1.42,0,0,1-1.4,1.31H108.1c-.65,0-1.31-.75-1.49-1.4V30.08a1.18,1.18,0,0,1,1.31-1.31h42.43a1.45,1.45,0,0,1,1.49,1.31V44.17a1.4,1.4,0,0,1-1.49,1.4H126v7.37h19.77A1.12,1.12,0,0,1,147,54.15l-1.3,13.06a1.64,1.64,0,0,1-1.59,1.21H126v7.93Z"/><path d="M181.41,28.78c16.32,0,26.11,8.86,26.11,22.2s-9.79,22.2-26.11,22.2h-3.82V91.82a1.44,1.44,0,0,1-1.49,1.31H159.4a1.4,1.4,0,0,1-1.31-1.31V30.18a1.42,1.42,0,0,1,1.31-1.4Zm.84,27.7a5.24,5.24,0,0,0,5.5-5.5,5.24,5.24,0,0,0-5.5-5.5H177.4v11Z"/><path d="M64.34,136.4a.86.86,0,0,1,.85,1.21L52.27,184.23a1.76,1.76,0,0,1-1.56,1.14H38.36a1.78,1.78,0,0,1-1.63-1.14l-6.46-25-6.46,25a1.78,1.78,0,0,1-1.63,1.14H9.83a1.76,1.76,0,0,1-1.56-1.14L-4.64,137.61a.86.86,0,0,1,.85-1.21h15.9a1.77,1.77,0,0,1,1.63,1.21l4,21.22,5.46-21.22a2,2,0,0,1,1.92-1.21H35.38a2,2,0,0,1,1.92,1.21l5.46,21.22,4-21.22a1.77,1.77,0,0,1,1.63-1.21Z"/><path d="M88.25,186.36c-15.12,0-25.19-10.22-25.19-25.48s10.08-25.62,25.19-25.62,25.19,10.22,25.19,25.62S103.37,186.36,88.25,186.36Zm0-36.76c-5.82,0-9.72,4.54-9.72,11.28s3.9,11.28,9.72,11.28S98,167.63,98,160.88,94.07,149.6,88.25,149.6Z"/><path d="M158.43,184.23c.35.64-.14,1.14-.78,1.14H142.47a1.86,1.86,0,0,1-1.63-1.14l-7.38-15.47h-.85v15.61a1.1,1.1,0,0,1-1.13,1H119a1.08,1.08,0,0,1-1.06-1V137.46A1.09,1.09,0,0,1,119,136.4h18.74c10.93,0,18.17,6.39,18.17,16A15,15,0,0,1,147.15,166ZM136.79,156.7c2.41,0,4-1.49,4-3.76s-1.63-3.76-4-3.76H132.6v7.52Z"/><path d="M203,184.52c.35.5.07.85-.5.85H186a1.93,1.93,0,0,1-1.49-.85l-8.8-17.74v17.6a1,1,0,0,1-1.06,1H162.12a1.07,1.07,0,0,1-1-1V137.46a1.08,1.08,0,0,1,1-1.06h12.56a1,1,0,0,1,1.06,1.06v15.9l8.52-16.11a2,2,0,0,1,1.63-.85h15.54c.57,0,.78.36.5.85l-14.05,22.5Z"/></g></svg>