<svg id="Layer_1" data-name="Layer 1" xmlns="http://www.w3.org/2000/svg" xmlns:xlink="http://www.w3.org/1999/xlink" viewBox="0 0 200 260"><defs><linearGradient id="linear-gradient" x1="99.98" y1="67.25" x2="99.98" y2="235.96" gradientUnits="userSpaceOnUse"><stop offset="0.18" stop-color="#4e82bc"/><stop offset="0.48" stop-color="#b7ccd5"/><stop offset="0.61" stop-color="#c89c70"/><stop offset="0.71" stop-color="#eddebe"/><stop offset="0.78" stop-color="#f7f0d4"/><stop offset="0.81" stop-color="#ffffe6"/><stop offset="0.84"/></linearGradient></defs><title>book-miracle-morning</title><rect x="0.16" width="199.65" height="260" style="fill:url(#linear-gradient)"/><path d="M90.51,27.79c-.24-.34-.1-.5.26-.48a13.73,13.73,0,0,0,2-.1,30.67,30.67,0,0,1,1.82-3c.22-.31.46-.29.58,0a3.28,3.28,0,0,1-.31,2.71,1.5,1.5,0,0,1,1.49.72c.17.29.07.46-.29.46a7.16,7.16,0,0,0-1.87.1c-.94,1.61-2.3,3.94-3.22,6-.79,1.75-.53,3.24.48,3.29S93.89,35.8,94.78,34c.14-.29.41-.34.5,0A2,2,0,0,1,95,35.37c-.31.7-1.9,2.81-3.82,2.74-1.58,0-2.86-1.82-1.7-4.58.5-1.2,1.51-3.22,2.54-5.11A2,2,0,0,1,90.51,27.79Z" style="fill:#fff"/><path d="M100.23,38.13c-2,0-2.52-1.46-1.8-3.55.79-2.33,2.88-4.83,2.5-5S98,31,96.58,33.26a31.4,31.4,0,0,0-2.33,4.56c-.1.22-.26.26-.41.1-.38-.43-.6-1.1-.1-2.54.84-2.4,5.83-10.85,7.78-13.27.22-.29.46-.26.58,0,.31.7.24,1.9-.67,3.41-.58,1-1.85,2.9-2.88,4.51,1-1,2.23-1.75,2.88-1.68a1.69,1.69,0,0,1,.94,2.52c-.53,1.06-1.68,2.81-2.23,4.06s-.48,2.52.41,2.47,2.3-1.78,3-3.31a.23.23,0,0,1,.43,0,1.84,1.84,0,0,1-.24,1.49A4.43,4.43,0,0,1,100.23,38.13Z" style="fill:#fff"/><path d="M106.54,37.43c2,.1,3.74-1.82,4.78-3.41.12-.19.31-.19.41,0a2,2,0,0,1-.41,1.49,6.08,6.08,0,0,1-4.7,2.59c-3,0-4.1-3-2.54-6s4-4.34,5.21-3.65a4.45,4.45,0,0,1,1.42,1.25c.43.58.24,2-.77,3.26-1.18,1.44-2.78,2.06-4.46.7C104.69,35.85,105.27,37.36,106.54,37.43Zm2-5.52c.77-1,1.3-2.26,1-2.52-.5-.41-2.5,1-3.62,3.31-.07.14-.14.29-.19.41C106.85,33.86,107.84,32.83,108.53,31.91Z" style="fill:#fff"/><path d="M26.08,42.67h5.48l7.33,21.08H39l7.27-21.08H51.8V82.48h-5.7V58.27H46L40.33,75.38H37.48L31.89,58.27h-.11V82.48h-5.7Z" style="fill:#fff"/><path d="M57.33,42.67H63V82.48h-5.7Z" style="fill:#fff"/><path d="M68.57,42.67h9.17q10.07,0,10.07,11.69a14.78,14.78,0,0,1-1.09,6,8.43,8.43,0,0,1-3.83,4L89,82.48H83l-5.31-17H74.28v17h-5.7Zm5.7,17.78h3.24a5.74,5.74,0,0,0,2.4-.42,3.09,3.09,0,0,0,1.37-1.2,5.13,5.13,0,0,0,.64-1.93,21.09,21.09,0,0,0,0-5.31,4.81,4.81,0,0,0-.7-2,3.17,3.17,0,0,0-1.48-1.2A6.75,6.75,0,0,0,77.24,48h-3Z" style="fill:#fff"/><path d="M98.71,42.67h4.75l8.89,39.81h-5.7L105,73.93H97.2l-1.68,8.56h-5.7Zm2.4,11.46H101l-2.8,14.43h5.7Z" style="fill:#fff"/><path d="M133.27,73.59a9.07,9.07,0,0,1-.7,3.52A9.25,9.25,0,0,1,130.64,80a9.57,9.57,0,0,1-2.88,2,8.44,8.44,0,0,1-3.55.75,12.75,12.75,0,0,1-3.3-.45,8,8,0,0,1-3-1.54A8.3,8.3,0,0,1,115.68,78a10.37,10.37,0,0,1-.87-4.53V51.5a9.7,9.7,0,0,1,.67-3.63,8.55,8.55,0,0,1,1.9-2.91A8.85,8.85,0,0,1,120.33,43a9.89,9.89,0,0,1,3.77-.7,9.38,9.38,0,0,1,3.63.7,8.71,8.71,0,0,1,2.91,2,9,9,0,0,1,1.93,3,10.29,10.29,0,0,1,.7,3.83v2.24h-5.7v-1.9a4.62,4.62,0,0,0-1-2.91A3.08,3.08,0,0,0,124,48a2.9,2.9,0,0,0-2.82,1.31,7,7,0,0,0-.7,3.33V73a5.26,5.26,0,0,0,.75,2.91A3,3,0,0,0,124,77.11a4.13,4.13,0,0,0,1.2-.2,3.31,3.31,0,0,0,1.17-.64,3.23,3.23,0,0,0,.87-1.23,5,5,0,0,0,.33-2v-2h5.7Z" style="fill:#fff"/><path d="M137.91,42.67h5.7V76.78h11.3v5.7h-17Z" style="fill:#fff"/><path d="M158.6,42.67h17V48h-11.3V59.72h9.84v5.37h-9.84V76.78h11.3v5.7h-17Z" style="fill:#fff"/><path d="M26.81,90.39h5.07l6.78,19.5h.1l6.72-19.5H50.6v36.83H45.33v-22.4h-.1L40,120.65H37.36l-5.17-15.83h-.1v22.4H26.81Z" style="fill:#fff"/><path d="M55.26,99.08A9.41,9.41,0,0,1,56,95.15a8.22,8.22,0,0,1,2-2.82,8.82,8.82,0,0,1,2.84-1.68,9.17,9.17,0,0,1,6.36,0,8.82,8.82,0,0,1,2.84,1.68,8.22,8.22,0,0,1,2,2.82,9.42,9.42,0,0,1,.78,3.93v19.45a9.37,9.37,0,0,1-.78,4,8.27,8.27,0,0,1-2,2.79A8.8,8.8,0,0,1,67.29,127a9.17,9.17,0,0,1-6.36,0,8.8,8.8,0,0,1-2.84-1.68,8.27,8.27,0,0,1-2-2.79,9.36,9.36,0,0,1-.78-4Zm5.28,19.45a3.5,3.5,0,0,0,1.06,2.82,3.93,3.93,0,0,0,5,0,3.51,3.51,0,0,0,1.06-2.82V99.08a3.51,3.51,0,0,0-1.06-2.82,3.93,3.93,0,0,0-5,0,3.51,3.51,0,0,0-1.06,2.82Z" style="fill:#fff"/><path d="M77.6,90.39h8.48q9.31,0,9.31,10.81a13.67,13.67,0,0,1-1,5.51,7.8,7.8,0,0,1-3.54,3.7l5.69,16.81H90.95L86,111.49H82.88v15.72H77.6Zm5.28,16.45h3a5.31,5.31,0,0,0,2.22-.39,2.86,2.86,0,0,0,1.27-1.11,4.73,4.73,0,0,0,.59-1.78,19.52,19.52,0,0,0,0-4.91,4.45,4.45,0,0,0-.65-1.81,2.93,2.93,0,0,0-1.37-1.11,6.23,6.23,0,0,0-2.33-.36H82.88Z" style="fill:#fff"/><path d="M99.43,90.39h5.07l8,22.19h.1V90.39h5.28v36.83h-5l-8.07-22.14h-.1v22.14H99.43Z" style="fill:#fff"/><path d="M122.76,90.39H128v36.83h-5.28Z" style="fill:#fff"/><path d="M132.95,90.39H138l8,22.19h.1V90.39h5.28v36.83h-5l-8.07-22.14h-.1v22.14h-5.28Z" style="fill:#fff"/><path d="M155.81,99.08a9.41,9.41,0,0,1,.78-3.93,8.22,8.22,0,0,1,2-2.82,8.82,8.82,0,0,1,2.84-1.68,9.17,9.17,0,0,1,6.36,0,8.82,8.82,0,0,1,2.84,1.68,8.22,8.22,0,0,1,2,2.82,9.42,9.42,0,0,1,.78,3.93v1.86h-5.28V99.08a3.51,3.51,0,0,0-1.06-2.82,3.93,3.93,0,0,0-5,0,3.51,3.51,0,0,0-1.06,2.82v19.45a3.5,3.5,0,0,0,1.06,2.82,3.93,3.93,0,0,0,5,0,3.51,3.51,0,0,0,1.06-2.82v-6.93H164v-4.66h9.47v11.59a9.37,9.37,0,0,1-.78,4,8.27,8.27,0,0,1-2,2.79,8.8,8.8,0,0,1-2.84,1.68,9.17,9.17,0,0,1-6.36,0,8.8,8.8,0,0,1-2.84-1.68,8.27,8.27,0,0,1-2-2.79,9.36,9.36,0,0,1-.78-4Z" style="fill:#fff"/><path d="M63.77,227.89H65.3v4.57h1.89v-4.57h1.53v10.68H67.19v-4.75H65.3v4.75H63.77Z" style="fill:#fff"/><path d="M74.7,227.89H76l2.38,10.68H76.83l-.45-2.29H74.3l-.45,2.29H72.32Zm.64,3.07h0l-.75,3.87H76.1Z" style="fill:#fff"/><path d="M82,227.89h1.53V237h3v1.53H82Z" style="fill:#fff"/><path d="M96,227.89h4.56v1.44h-3v3.13h2.64v1.44H97.53V237h3v1.53H96Z" style="fill:#fff"/><path d="M104.4,227.89h1.53V237h3v1.53H104.4Z" style="fill:#fff"/><path d="M112.8,227.89h2.46q2.7,0,2.7,3.13a4,4,0,0,1-.29,1.6,2.26,2.26,0,0,1-1,1.07l1.65,4.88h-1.62L115.25,234h-.92v4.56H112.8Zm1.53,4.77h.87a1.54,1.54,0,0,0,.64-.11.83.83,0,0,0,.37-.32,1.36,1.36,0,0,0,.17-.52,5.67,5.67,0,0,0,0-1.42,1.27,1.27,0,0,0-.19-.53.85.85,0,0,0-.4-.32,1.79,1.79,0,0,0-.67-.11h-.79Z" style="fill:#fff"/><path d="M122,230.41a2.72,2.72,0,0,1,.23-1.14,2.36,2.36,0,0,1,.59-.82,2.57,2.57,0,0,1,.83-.49,2.67,2.67,0,0,1,1.84,0,2.56,2.56,0,0,1,.83.49,2.38,2.38,0,0,1,.59.82,2.74,2.74,0,0,1,.22,1.14V236a2.73,2.73,0,0,1-.22,1.15,2.4,2.4,0,0,1-.59.81,2.54,2.54,0,0,1-.83.49,2.66,2.66,0,0,1-1.84,0,2.55,2.55,0,0,1-.83-.49,2.39,2.39,0,0,1-.59-.81A2.71,2.71,0,0,1,122,236Zm1.53,5.64a1,1,0,0,0,.31.82,1.14,1.14,0,0,0,1.46,0,1,1,0,0,0,.31-.82v-5.64a1,1,0,0,0-.31-.82,1.14,1.14,0,0,0-1.46,0,1,1,0,0,0-.31.82Z" style="fill:#fff"/><path d="M131.28,227.89h2.27a2.62,2.62,0,0,1,2,.73,2.84,2.84,0,0,1,.69,2v5a3,3,0,0,1-.73,2.21,2.87,2.87,0,0,1-2.09.71h-2.13Zm1.53,9.24h.71a1.13,1.13,0,0,0,.92-.32,1.56,1.56,0,0,0,.27-1v-5.14a1.61,1.61,0,0,0-.25-1,1.09,1.09,0,0,0-.93-.35h-.71Z" style="fill:#fff"/></svg>