<svg id="Layer_1" data-name="Layer 1" xmlns="http://www.w3.org/2000/svg" xmlns:xlink="http://www.w3.org/1999/xlink" viewBox="0 0 200 260"><defs><linearGradient id="linear-gradient" x1="100" y1="2" x2="100" y2="260.16" gradientUnits="userSpaceOnUse"><stop offset="0" stop-color="#074269"/><stop offset="1" stop-color="#002546"/></linearGradient></defs><title>book-ego-enemy</title><rect x="0.17" width="199.65" height="260" style="fill:url(#linear-gradient)"/><path d="M46.55,60.64V26H70v6.55H54.35v6.8H68.2v6.4H54.35v8.35H71.1v6.55Z" style="fill:#fff"/><path d="M98.75,32q-5.45,0-7.87,3t-2.43,8.28a16.61,16.61,0,0,0,.6,4.63,10.17,10.17,0,0,0,1.8,3.57,8.1,8.1,0,0,0,3,2.33,10,10,0,0,0,4.2.83q1.3,0,2.22,0a10.59,10.59,0,0,0,1.63-.2v-12h7.8V59.49a29.35,29.35,0,0,1-4.5,1.18,39.57,39.57,0,0,1-7.65.63,19.88,19.88,0,0,1-7.08-1.2,14.79,14.79,0,0,1-5.42-3.5,15.62,15.62,0,0,1-3.48-5.65,22.19,22.19,0,0,1-1.22-7.65,20.49,20.49,0,0,1,1.35-7.7,16.58,16.58,0,0,1,3.7-5.67,15.58,15.58,0,0,1,5.53-3.53,19,19,0,0,1,6.77-1.2,27.4,27.4,0,0,1,4.43.33,28,28,0,0,1,3.4.75,15.81,15.81,0,0,1,2.35.88q.92.45,1.32.7L107,34.09a20.45,20.45,0,0,0-3.67-1.48A15.65,15.65,0,0,0,98.75,32Z" style="fill:#fff"/><path d="M155,43.29a21.33,21.33,0,0,1-1.33,7.82A16.1,16.1,0,0,1,150,56.76a14.87,14.87,0,0,1-5.47,3.42,19.9,19.9,0,0,1-6.83,1.15,19.39,19.39,0,0,1-6.7-1.15,15.39,15.39,0,0,1-5.5-3.42,16,16,0,0,1-3.7-5.65,21,21,0,0,1-1.35-7.82,20.3,20.3,0,0,1,1.4-7.83,16.66,16.66,0,0,1,3.77-5.67,15.53,15.53,0,0,1,5.5-3.45,18.89,18.89,0,0,1,6.58-1.15,19.39,19.39,0,0,1,6.7,1.15,15.25,15.25,0,0,1,5.5,3.45,16.28,16.28,0,0,1,3.7,5.67A21,21,0,0,1,155,43.29Zm-26.45,0a15.74,15.74,0,0,0,.63,4.6,10.51,10.51,0,0,0,1.8,3.53,8,8,0,0,0,2.88,2.27,9.85,9.85,0,0,0,7.78,0,7.9,7.9,0,0,0,2.9-2.27,10.53,10.53,0,0,0,1.8-3.53,15.77,15.77,0,0,0,.63-4.6,16,16,0,0,0-.62-4.62,10.52,10.52,0,0,0-1.8-3.55,7.92,7.92,0,0,0-2.9-2.27,9.11,9.11,0,0,0-3.87-.8,8.83,8.83,0,0,0-3.9.82,8.23,8.23,0,0,0-2.87,2.3,10.49,10.49,0,0,0-1.8,3.55A15.81,15.81,0,0,0,128.5,43.29Z" style="fill:#fff"/><path d="M65.68,81.78H68.8V95.64H65.68Z" style="fill:#fff"/><path d="M77.78,93.26a4.5,4.5,0,0,0,1.09-.11,2,2,0,0,0,.69-.3,1,1,0,0,0,.36-.45,1.59,1.59,0,0,0,.1-.58,1.34,1.34,0,0,0-.64-1.13,9.18,9.18,0,0,0-2.2-1q-.68-.24-1.36-.55a5,5,0,0,1-1.22-.78,3.73,3.73,0,0,1-.88-1.14,3.56,3.56,0,0,1-.34-1.63,4,4,0,0,1,.36-1.73,3.69,3.69,0,0,1,1-1.31,4.65,4.65,0,0,1,1.6-.83,7.18,7.18,0,0,1,2.12-.29,8.47,8.47,0,0,1,4.1,1l-.9,2.46a8.53,8.53,0,0,0-1.29-.53,5.59,5.59,0,0,0-1.71-.23,3.13,3.13,0,0,0-1.61.31,1,1,0,0,0-.49,1,1.1,1.1,0,0,0,.18.64,1.74,1.74,0,0,0,.51.47,4.41,4.41,0,0,0,.76.38l1,.35q1.08.4,1.88.79a5,5,0,0,1,1.33.91A3.3,3.3,0,0,1,83,90.14a4.91,4.91,0,0,1,.26,1.7,3.61,3.61,0,0,1-1.36,3,6.56,6.56,0,0,1-4.1,1.07,11.37,11.37,0,0,1-1.66-.11,10.74,10.74,0,0,1-1.31-.27,7.62,7.62,0,0,1-1-.34,7,7,0,0,1-.69-.34L74,92.38a7.81,7.81,0,0,0,1.53.61A7.91,7.91,0,0,0,77.78,93.26Z" style="fill:#fff"/><path d="M104.72,81.78v2.66h-4.18v11.2H97.42V84.44H93.24V81.78Z" style="fill:#fff"/><path d="M117.08,81.78h3.12V95.64h-3.12V89.76h-5.24v5.88h-3.12V81.78h3.12v5.3h5.24Z" style="fill:#fff"/><path d="M125.4,95.64V81.78h9.36V84.4h-6.24v2.72h5.54v2.56h-5.54V93h6.7v2.62Z" style="fill:#fff"/><path d="M25,143.64V115.92H43.7v5.24H31.22v5.44H42.3v5.12H31.22v6.68h13.4v5.24Z" style="fill:#fff"/><path d="M71.82,143.64q-2.68-4.76-5.8-9.4a95.84,95.84,0,0,0-6.64-8.76v18.16H53.22V115.92H58.3q1.32,1.32,2.92,3.24t3.26,4.1q1.66,2.18,3.3,4.52t3.08,4.5V115.92h6.2v27.72Z" style="fill:#fff"/><path d="M87.46,143.64V115.92h18.72v5.24H93.7v5.44h11.08v5.12H93.7v6.68h13.4v5.24Z" style="fill:#fff"/><path d="M123.06,115.92q.72,1.32,1.67,3.26t2,4.2q1,2.26,2,4.62l1.88,4.44,1.89-4.44q1-2.36,2-4.62t2-4.2q.94-1.94,1.66-3.26h5.68q.4,2.76.74,6.18t.6,7.12q.26,3.7.48,7.42t.38,7h-6.08q-.12-4-.32-8.8t-.6-9.6l-1.6,3.72q-.88,2-1.75,4.08t-1.67,3.9l-1.36,3.18h-4.36l-1.36-3.18q-.8-1.86-1.67-3.9T123.5,129l-1.6-3.72q-.4,4.84-.6,9.6t-.32,8.8H114.9q.16-3.28.38-7t.48-7.42q.26-3.7.6-7.12t.74-6.18Z" style="fill:#fff"/><path d="M165.13,127.29q1.68-2.83,3.2-5.66t2.8-5.71H178q-2.28,4.48-4.72,8.68T168.14,133v10.6H161.9V133.12q-2.72-4.24-5.18-8.48T152,115.92h7.24q1.28,2.87,2.76,5.71T165.13,127.29Z" style="fill:#fff"/><path d="M49,227.46a5.59,5.59,0,0,1,3.11.72,2.51,2.51,0,0,1,1.08,2.24,2.54,2.54,0,0,1-.44,1.54,2.88,2.88,0,0,1-1.25.93q.27.34.57.77t.59.91q.29.47.57,1t.51,1H51.49l-.5-.9q-.25-.45-.52-.88t-.53-.81q-.26-.38-.52-.7h-1v3.29h-2v-8.88a11.37,11.37,0,0,1,1.37-.18Q48.46,227.46,49,227.46Zm.12,1.73h-.4l-.33,0v2.44H49a3.46,3.46,0,0,0,1.64-.29,1,1,0,0,0,.49-1,1,1,0,0,0-.5-.94A3.09,3.09,0,0,0,49.14,229.18Z" style="fill:#fff"/><path d="M59.22,231.25q.55-.92,1-1.84t.91-1.85h2.24q-.74,1.46-1.53,2.82t-1.68,2.74v3.45h-2v-3.42q-.88-1.38-1.68-2.76t-1.54-2.83H57.3q.42.93.9,1.85T59.22,231.25Z" style="fill:#fff"/><path d="M70.56,236.57q-.15-.47-.32-1l-.34-1H66.37l-.34,1q-.17.5-.32,1H63.61q.51-1.46,1-2.69t.89-2.33q.44-1.09.86-2.07t.88-1.92h1.92q.44.94.88,1.92t.87,2.07q.44,1.09.89,2.33t1,2.69Zm-2.44-7-.2.53-.3.78-.37,1q-.21.53-.42,1.12h2.58l-.4-1.12q-.19-.53-.37-1l-.31-.78Z" style="fill:#fff"/><path d="M81.24,236.57q-.87-1.55-1.88-3.05a31.06,31.06,0,0,0-2.16-2.85v5.9h-2v-9h1.65q.43.43.95,1.05t1.06,1.33q.54.71,1.07,1.47t1,1.46v-5.32h2v9Z" style="fill:#fff"/><path d="M96.17,227.56h2v9h-2v-3.82H92.77v3.82h-2v-9h2V231h3.41Z" style="fill:#fff"/><path d="M110.16,232.06a5.54,5.54,0,0,1-.34,2,4.18,4.18,0,0,1-.94,1.47,3.86,3.86,0,0,1-1.42.89,5.17,5.17,0,0,1-1.77.3,5,5,0,0,1-1.74-.3,4,4,0,0,1-1.43-.89,4.16,4.16,0,0,1-1-1.47,5.44,5.44,0,0,1-.35-2,5.29,5.29,0,0,1,.36-2,4.36,4.36,0,0,1,1-1.48,4,4,0,0,1,1.43-.9,4.91,4.91,0,0,1,1.71-.3,5,5,0,0,1,1.74.3,4,4,0,0,1,1.43.9,4.23,4.23,0,0,1,1,1.48A5.45,5.45,0,0,1,110.16,232.06Zm-6.88,0a4.09,4.09,0,0,0,.16,1.2,2.75,2.75,0,0,0,.47.92,2.07,2.07,0,0,0,.75.59,2.56,2.56,0,0,0,2,0,2.06,2.06,0,0,0,.75-.59,2.75,2.75,0,0,0,.47-.92,4.09,4.09,0,0,0,.16-1.2,4.16,4.16,0,0,0-.16-1.2,2.74,2.74,0,0,0-.47-.92,2.07,2.07,0,0,0-.75-.59,2.37,2.37,0,0,0-1-.21,2.3,2.3,0,0,0-1,.21,2.15,2.15,0,0,0-.75.6,2.73,2.73,0,0,0-.47.92A4.11,4.11,0,0,0,103.28,232.06Z" style="fill:#fff"/><path d="M119.17,234.83v1.74h-6v-9h2v7.27Z" style="fill:#fff"/><path d="M121.77,227.56h2v9h-2Z" style="fill:#fff"/><path d="M135.07,232.06a5.28,5.28,0,0,1-.36,2,3.79,3.79,0,0,1-1,1.44,4.4,4.4,0,0,1-1.63.86,7.58,7.58,0,0,1-2.16.29q-.55,0-1.27,0a10.33,10.33,0,0,1-1.43-.19v-8.77a11.87,11.87,0,0,1,1.46-.18q.76,0,1.31,0a7.87,7.87,0,0,1,2.1.26,4.3,4.3,0,0,1,1.62.82,3.65,3.65,0,0,1,1,1.43A5.42,5.42,0,0,1,135.07,232.06Zm-5.86,2.86.33,0H130a3,3,0,0,0,2.26-.77,2.94,2.94,0,0,0,.73-2.12,2.54,2.54,0,0,0-2.92-2.87h-.43l-.42,0Z" style="fill:#fff"/><path d="M143.78,236.57q-.15-.47-.32-1l-.34-1h-3.52l-.34,1q-.17.5-.32,1h-2.11q.51-1.46,1-2.69t.89-2.33q.44-1.09.86-2.07t.88-1.92h1.92q.44.94.88,1.92t.87,2.07q.44,1.09.89,2.33t1,2.69Zm-2.44-7-.2.53-.3.78-.37,1q-.21.53-.42,1.12h2.58l-.4-1.12q-.19-.53-.37-1l-.31-.78Z" style="fill:#fff"/><path d="M150.41,231.25q.55-.92,1-1.84t.91-1.85h2.24q-.74,1.46-1.53,2.82t-1.68,2.74v3.45h-2v-3.42q-.88-1.38-1.68-2.76t-1.54-2.83h2.35q.42.93.9,1.85T150.41,231.25Z" style="fill:#fff"/><polygon points="101.33 165.63 103.03 163.54 104.37 165.86 106.36 164.07 107.33 166.57 109.58 165.11 110.14 167.74 112.59 166.65 112.73 169.33 115.32 168.63 115.04 171.3 117.71 171.02 117.02 173.62 119.7 173.76 118.61 176.21 121.24 176.77 119.77 179.02 122.28 179.98 120.48 181.98 122.81 183.32 120.72 185.01 122.81 186.7 120.48 188.04 122.28 190.04 119.77 191 121.24 193.25 118.61 193.81 119.7 196.26 117.02 196.41 117.71 199 115.04 198.72 115.32 201.39 112.73 200.69 112.59 203.38 110.14 202.28 109.58 204.91 107.33 203.45 106.36 205.96 104.37 204.16 103.03 206.48 101.33 204.4 99.64 206.48 98.3 204.16 96.31 205.96 95.34 203.45 93.09 204.91 92.53 202.28 90.08 203.38 89.94 200.69 87.35 201.39 87.63 198.72 84.96 199 85.65 196.41 82.97 196.26 84.06 193.81 81.44 193.25 82.9 191 80.39 190.04 82.19 188.04 79.86 186.7 81.95 185.01 79.86 183.32 82.19 181.98 80.39 179.98 82.9 179.02 81.44 176.77 84.06 176.21 82.97 173.76 85.65 173.62 84.96 171.02 87.63 171.3 87.35 168.63 89.94 169.33 90.08 166.65 92.53 167.74 93.09 165.11 95.34 166.57 96.31 164.07 98.3 165.86 99.64 163.54 101.33 165.63" style="fill:#b28a2e"/></svg>