<svg id="Layer_1" data-name="Layer 1" xmlns="http://www.w3.org/2000/svg" xmlns:xlink="http://www.w3.org/1999/xlink" viewBox="0 0 200 260"><defs><linearGradient id="linear-gradient" x1="30.47" y1="104.87" x2="106.92" y2="100.58" gradientUnits="userSpaceOnUse"><stop offset="0" stop-color="#fff"/><stop offset="1" stop-color="#fcee21"/></linearGradient><linearGradient id="linear-gradient-2" x1="30.11" y1="98.3" x2="106.55" y2="94.01" xlink:href="#linear-gradient"/><linearGradient id="linear-gradient-3" x1="29.67" y1="90.55" x2="106.12" y2="86.26" xlink:href="#linear-gradient"/><linearGradient id="linear-gradient-4" x1="29.28" y1="83.5" x2="105.72" y2="79.22" xlink:href="#linear-gradient"/><linearGradient id="linear-gradient-5" x1="28.93" y1="77.41" x2="105.38" y2="73.13" xlink:href="#linear-gradient"/><linearGradient id="linear-gradient-6" x1="28.46" y1="69.01" x2="104.91" y2="64.72" xlink:href="#linear-gradient"/><linearGradient id="linear-gradient-7" x1="30.94" y1="113.14" x2="107.38" y2="108.85" gradientTransform="translate(39.44 -25.92) rotate(18.33)" xlink:href="#linear-gradient"/><linearGradient id="linear-gradient-8" x1="31.42" y1="121.73" x2="107.86" y2="117.44" gradientTransform="translate(42.14 -25.48) rotate(18.33)" xlink:href="#linear-gradient"/><linearGradient id="linear-gradient-9" x1="31.9" y1="130.31" x2="108.35" y2="126.03" gradientTransform="translate(44.85 -25.04) rotate(18.33)" xlink:href="#linear-gradient"/><linearGradient id="linear-gradient-10" x1="32.38" y1="138.9" x2="108.83" y2="134.62" gradientTransform="translate(47.56 -24.61) rotate(18.33)" xlink:href="#linear-gradient"/><linearGradient id="linear-gradient-11" x1="32.86" y1="147.49" x2="109.31" y2="143.2" gradientTransform="translate(50.27 -24.17) rotate(18.33)" xlink:href="#linear-gradient"/><linearGradient id="linear-gradient-12" x1="33.34" y1="156.08" x2="109.79" y2="151.79" gradientTransform="translate(52.98 -23.73) rotate(18.33)" xlink:href="#linear-gradient"/></defs><title>book-sprint</title><rect x="0.35" width="199.65" height="260" style="fill:#15b9dc"/><path d="M47.76,93.42l-7,2.31,0-1.1a2.87,2.87,0,0,0-1-2.52q-1.09-.85-3.75,0a8.46,8.46,0,0,0-2.37,1.16,6.28,6.28,0,0,0-1.46,1.46,5.19,5.19,0,0,0-.76,1.62,7.58,7.58,0,0,0-.25,1.72,11.44,11.44,0,0,0,.05,1.66,1.61,1.61,0,0,0,.48,1,2.17,2.17,0,0,0,1.17.49,10.62,10.62,0,0,0,2.13,0l5.28-.29a12.32,12.32,0,0,1,3.71.21,4.15,4.15,0,0,1,2.16,1.22,4.44,4.44,0,0,1,1,2.23,16.77,16.77,0,0,1,.18,3.23,14.84,14.84,0,0,1-.73,4.19A12,12,0,0,1,44.5,116a16.25,16.25,0,0,1-3.78,3.31A24.45,24.45,0,0,1,35,121.92a17.71,17.71,0,0,1-4.69.94,9.58,9.58,0,0,1-3.71-.45,5.06,5.06,0,0,1-2.42-1.73,4.47,4.47,0,0,1-.83-2.89l.05-1.82,7-2.31,0,1.53a2.18,2.18,0,0,0,1.06,2q1.1.7,3.76-.18a11.29,11.29,0,0,0,2.78-1.28,5.53,5.53,0,0,0,1.53-1.5,4.67,4.67,0,0,0,.7-1.82,16.07,16.07,0,0,0,.2-2.15,13.62,13.62,0,0,0-.07-2.15,1.88,1.88,0,0,0-.54-1.19,2.09,2.09,0,0,0-1.2-.45,16.6,16.6,0,0,0-2.06,0l-4.94.22q-4.47.21-5.94-1.41a6.63,6.63,0,0,1-1.38-4.82,11.07,11.07,0,0,1,.86-3.88,13.18,13.18,0,0,1,2.3-3.7,18.11,18.11,0,0,1,3.78-3.22,22.61,22.61,0,0,1,5.28-2.49,16.23,16.23,0,0,1,4.72-.91,9.43,9.43,0,0,1,3.63.54,4.91,4.91,0,0,1,2.28,1.68A4,4,0,0,1,47.83,91Z" style="fill:url(#linear-gradient)"/><path d="M53.21,81.91l10.44-3.47a23,23,0,0,1,5-1.15,7.9,7.9,0,0,1,3.9.55A4.21,4.21,0,0,1,75,80.14a12.1,12.1,0,0,1,.54,4.62,19.25,19.25,0,0,1-.49,4,10.41,10.41,0,0,1-1.69,3.52,15.84,15.84,0,0,1-3.9,3.87,23.79,23.79,0,0,1-6.31,3l-3.55,1.18-.39,13.28-7,2.31ZM59.7,95.74,63,94.63a13.05,13.05,0,0,0,3.29-1.52,6.05,6.05,0,0,0,1.74-1.74,5,5,0,0,0,.7-2q.13-1.08.17-2.37t0-2.24a2.94,2.94,0,0,0-.56-1.66,2.13,2.13,0,0,0-1.57-.71,8.56,8.56,0,0,0-3.13.59L60,84.18Z" style="fill:url(#linear-gradient-2)"/><path d="M81,72.67l11.19-3.72q12.29-4.08,12,5.9a12.15,12.15,0,0,1-1.48,5.53,15.38,15.38,0,0,1-4.78,5l7.06,13-7.37,2.45L91.57,88.46l-4.16,1.38L87,104.37l-7,2.31Zm6.52,12.88,4-1.32a12.87,12.87,0,0,0,2.95-1.33,6.1,6.1,0,0,0,1.7-1.58A5.34,5.34,0,0,0,97,79.41a12.56,12.56,0,0,0,.27-2.34,10.12,10.12,0,0,0-.14-2.2,2.19,2.19,0,0,0-.8-1.39,2.7,2.7,0,0,0-1.78-.43,12.05,12.05,0,0,0-3.06.69l-3.62,1.2Z" style="fill:url(#linear-gradient-3)"/><path d="M110.29,62.94l7-2.31-1,34-7,2.31Z" style="fill:url(#linear-gradient-4)"/><path d="M123.73,58.48l6.69-2.22,9.91,17,.14,0,.6-20.49,7-2.31-1,34-6.55,2.18L130.43,69.68l-.14,0-.6,20.45-7,2.31Z" style="fill:url(#linear-gradient-5)"/><path d="M158.77,51.37l-8.05,2.68.13-4.59,23.07-7.67-.13,4.59-8.05,2.68-.86,29.43-7,2.31Z" style="fill:url(#linear-gradient-6)"/><rect x="19.52" y="108.77" width="161.05" height="1" transform="translate(-29.29 37) rotate(-18.33)" style="fill:url(#linear-gradient-7)"/><rect x="19.52" y="117.38" width="161.05" height="1" transform="translate(-31.99 37.44) rotate(-18.33)" style="fill:url(#linear-gradient-8)"/><rect x="19.52" y="125.99" width="161.05" height="1" transform="translate(-34.7 37.88) rotate(-18.33)" style="fill:url(#linear-gradient-9)"/><rect x="19.52" y="134.61" width="161.05" height="1" transform="translate(-37.41 38.31) rotate(-18.33)" style="fill:url(#linear-gradient-10)"/><rect x="19.52" y="143.22" width="161.05" height="1" transform="translate(-40.12 38.75) rotate(-18.33)" style="fill:url(#linear-gradient-11)"/><rect x="19.52" y="151.84" width="161.05" height="1" transform="translate(-42.83 39.19) rotate(-18.33)" style="fill:url(#linear-gradient-12)"/><path d="M102.9,221.4a2.76,2.76,0,0,1-.69,2.11,3,3,0,0,1-2.11.63,3.13,3.13,0,0,1-1.22-.2,1.8,1.8,0,0,1-.75-.57,2.15,2.15,0,0,1-.38-.86,5,5,0,0,1-.1-1v-.4h1.72v.29a2.8,2.8,0,0,0,.16,1.1.81.81,0,0,0,1.34,0,2.8,2.8,0,0,0,.16-1.1v-6.63h1.87Z" style="fill:#edd17c"/><path d="M109.55,214.72,112,224h-1.95l-.43-2h-2.47l-.43,2h-2l2.46-9.28Zm-.25,5.79-.9-4.17h0l-.9,4.17Z" style="fill:#edd17c"/><path d="M115.82,218.44h0l2.37-3.72h2l-2.52,4,2.81,5.3h-2.11l-1.91-3.81-.69,1.05V224H114v-9.28h1.87Z" style="fill:#edd17c"/><path d="M127.42,216.25h-3.31v2.18h3.12V220h-3.12v2.5h3.44V224h-5.32v-9.28h5.19Z" style="fill:#edd17c"/><path d="M136.08,218.44h0l2.37-3.72h2l-2.52,4,2.81,5.3h-2.11l-1.91-3.81-.69,1.05V224h-1.87v-9.28h1.87Z" style="fill:#edd17c"/><path d="M146.91,221.08h0v-6.36h1.72V224h-2.13l-2.29-6.5h0V224h-1.72v-9.28h2.16Z" style="fill:#edd17c"/><path d="M155.37,214.72l2.46,9.28h-1.95l-.43-2H153l-.43,2h-2l2.46-9.28Zm-.25,5.79-.9-4.17h0l-.9,4.17Z" style="fill:#edd17c"/><path d="M163.05,214.72a2.7,2.7,0,0,1,1.2.24,2.2,2.2,0,0,1,.79.63,2.47,2.47,0,0,1,.43.89,4,4,0,0,1,.13,1,3.34,3.34,0,0,1-.21,1.25,2.27,2.27,0,0,1-.6.87,2.49,2.49,0,0,1-.93.51,4.09,4.09,0,0,1-1.21.17h-1V224h-1.87v-9.28Zm-.57,4.2a1.24,1.24,0,0,0,.9-.34,1.42,1.42,0,0,0,.34-1.05,1.65,1.65,0,0,0-.3-1.07,1.23,1.23,0,0,0-1-.36h-.78v2.82Z" style="fill:#edd17c"/><path d="M171.1,214.72a2.7,2.7,0,0,1,1.2.24,2.2,2.2,0,0,1,.79.63,2.47,2.47,0,0,1,.43.89,4,4,0,0,1,.13,1,3.34,3.34,0,0,1-.21,1.25,2.27,2.27,0,0,1-.6.87,2.49,2.49,0,0,1-.93.51,4.09,4.09,0,0,1-1.21.17h-1V224h-1.87v-9.28Zm-.57,4.2a1.24,1.24,0,0,0,.9-.34,1.42,1.42,0,0,0,.34-1.05,1.65,1.65,0,0,0-.3-1.07,1.23,1.23,0,0,0-1-.36h-.78v2.82Z" style="fill:#edd17c"/></svg>