<svg id="Layer_1" data-name="Layer 1" xmlns="http://www.w3.org/2000/svg" viewBox="0 0 200 260"><title>book-zero-one</title><rect x="0.17" width="199.65" height="260" style="fill:#63a3e3"/><path d="M94.46,90.17q0-.25.19-.78l1.12-4.07H95v-.51a6.15,6.15,0,0,0,1.26-.66,5.38,5.38,0,0,0,1.51-1.62h.54l-.6,2.18h1.08v.62H97.53l-1,3.48c-.09.31-.15.56-.2.77a3.87,3.87,0,0,0-.12.72.19.19,0,0,0,.08.18.32.32,0,0,0,.14,0c.14,0,.32-.12.54-.37a5.06,5.06,0,0,0,.61-.84l.33.21a9.4,9.4,0,0,1-1.07,1.41,2.07,2.07,0,0,1-1.45.66,1,1,0,0,1-.73-.29,1,1,0,0,1-.29-.74A2.3,2.3,0,0,1,94.46,90.17Z"/><path d="M104.35,84.88a2.16,2.16,0,0,1,1.05,2,4.88,4.88,0,0,1-1.21,3.1,3.86,3.86,0,0,1-3,1.63,2.84,2.84,0,0,1-1.65-.54,2.06,2.06,0,0,1-.78-1.83,4.91,4.91,0,0,1,1.21-3.11A3.87,3.87,0,0,1,103,84.54,2.69,2.69,0,0,1,104.35,84.88Zm-3.74,5.89a.68.68,0,0,0,.69.42q.93,0,1.68-2.15a9.88,9.88,0,0,0,.62-3.13,1.38,1.38,0,0,0-.09-.55.63.63,0,0,0-.63-.37q-1.08,0-1.81,2.29a9.71,9.71,0,0,0-.56,2.89A1.55,1.55,0,0,0,100.61,90.77Z"/><path d="M40.29,67.18c5,0,6.58-.91,7.58-2.35a7.74,7.74,0,0,0,1-2.59c.1-.48.19-.77.43-.77s.38.19.38,1.1a31.35,31.35,0,0,1-1,5.52c-.29,1.15-.34,1.25-1.44,1.25-8,0-16.08-.24-24.48-.24-.58,0-.87,0-.87-.38s.1-.48.67-1.34c7.15-10.8,14.4-21.6,21.07-32.45H33.24c-2.45,0-5.38.14-6.91,1a5.4,5.4,0,0,0-2.74,3.79c-.1.72-.29.86-.53.86s-.29-.24-.29-.62c0-.58.72-4.94,1-6.38.1-.67.19-.91.48-.91a13.25,13.25,0,0,0,2,.34c4.56.19,6.87.14,8.35.14H48c.72,0,1,.1,1,.38a.81.81,0,0,1-.19.58c-7,11-14.21,22.08-21.51,33.12Z"/><path d="M65,46.87c0-7.49,0-8.83-.1-10.37s-.48-2.4-2.06-2.74a11.32,11.32,0,0,0-1.39-.14c-.34,0-.62-.1-.62-.29S61,33,61.56,33c1.1,0,2.4,0,5.42.14.34,0,9.89,0,11,0a8,8,0,0,0,2.21-.29,1.17,1.17,0,0,1,.53-.19c.14,0,.19.19.19.43a21.21,21.21,0,0,0-.38,2.26c0,.72-.1,1.63-.19,2.88,0,.48-.19.82-.38.82s-.38-.24-.38-.62a4.77,4.77,0,0,0-.24-1.58C79,35.64,78,35.16,75.86,35c-.81-.1-6-.14-6.58-.14-.19,0-.29.14-.29.48V48.55c0,.34,0,.48.29.48.63,0,6.53,0,7.63-.1,1.3-.1,1.92-.24,2.4-.82.24-.29.38-.48.58-.48s.24.1.24.38-.24,1.1-.38,2.69-.14,2.59-.19,3.26c0,.48-.14.72-.34.72s-.34-.38-.34-.77a4.38,4.38,0,0,0-.19-1.34c-.19-.72-.77-1.39-2.5-1.58-1.29-.14-6-.24-6.86-.24a.3.3,0,0,0-.34.34v4.22c0,1.63,0,7.2,0,8.21.1,2,.38,3,1.58,3.5a11.61,11.61,0,0,0,4,.43A15.9,15.9,0,0,0,78.89,67c1.54-.48,2.06-1.49,2.45-3.55.1-.53.19-.72.43-.72s.29.38.29.72a47,47,0,0,1-.62,4.66c-.34,1.25-.72,1.25-2.59,1.25-3.55,0-5.14-.1-7-.14s-4.13-.14-6-.14c-1.15,0-2.3.19-3.55.14-.53,0-.77-.1-.77-.38s.24-.24.53-.29a6.2,6.2,0,0,0,1.1-.14c1-.24,1.63-.91,1.73-4.51,0-1.87.1-4.32.1-8.59Z"/><path d="M98,46.87c0-7.49,0-8.83-.1-10.37s-.48-2.4-2.06-2.74a9,9,0,0,0-1.63-.14c-.19,0-.38-.1-.38-.29s.24-.38.77-.38c2.16,0,5.19.14,5.42.14.53,0,4.18-.14,5.67-.14,3,0,6.24.29,8.78,2.11a8.4,8.4,0,0,1,3.31,6.53c0,3.55-1.49,7.11-5.81,11.09,3.94,5,7.2,9.31,10,12.29,2.59,2.74,4.66,3.26,5.86,3.46a11.55,11.55,0,0,0,1.87.14c.24,0,.43.14.43.29s-.29.38-1.15.38h-3.41c-2.69,0-3.89-.24-5.14-.91-2.06-1.1-3.74-3.46-6.48-7.06-2-2.64-4.27-5.86-5.23-7.11a.77.77,0,0,0-.62-.29l-5.91-.1c-.24,0-.34.14-.34.38v1.15c0,4.61,0,8.4.24,10.42.14,1.39.43,2.45,1.87,2.64a21,21,0,0,0,2.16.19c.29,0,.38.14.38.29s-.24.38-.77.38c-2.64,0-5.66-.14-5.9-.14,0,0-3.07.14-4.51.14-.53,0-.77-.1-.77-.38s.1-.29.38-.29a7.47,7.47,0,0,0,1.44-.19c1-.19,1.2-1.25,1.39-2.64.24-2,.24-5.81.24-10.42ZM101.83,51a.63.63,0,0,0,.34.58,13.23,13.23,0,0,0,5,.77,6.23,6.23,0,0,0,3.6-.91c1.68-1.15,2.93-3.75,2.93-7.39,0-6-3.17-9.6-8.3-9.6a14.52,14.52,0,0,0-3.22.29.58.58,0,0,0-.38.58Z"/><path d="M133.75,51c0-7.78,5.66-18.77,18.91-18.77,10.8,0,18.87,6.82,18.87,18,0,10.75-7.59,19.63-19.15,19.63C139.22,69.92,133.75,59.69,133.75,51Zm33.17.58c0-11.52-7-17.71-14.59-17.71-8,0-14,5.28-14,15.79,0,11.18,6.72,18.39,15.36,18.39C158,68.09,166.92,65.59,166.92,51.63Z"/><path d="M50,216c0-2.65,0-3.13,0-3.67s-.17-.85-.73-1a3.18,3.18,0,0,0-.58-.05c-.07,0-.14,0-.14-.1s.09-.14.27-.14c.77,0,1.79.05,1.92.05.37,0,1.36-.05,2.14-.05,2.12,0,2.89.71,3.16,1a3.1,3.1,0,0,1,.85,2.23,3.9,3.9,0,0,1-4.18,3.84,2.56,2.56,0,0,1-.36,0c-.09,0-.19,0-.19-.12s.1-.15.46-.15a2.8,2.8,0,0,0,2.94-2.91,3.5,3.5,0,0,0-1-2.48,3,3,0,0,0-2.33-.85,2.07,2.07,0,0,0-.73.1c-.1,0-.14.15-.14.32v7c0,1.63,0,3,.09,3.69.05.49.15.87.66.93a7.36,7.36,0,0,0,.77.07c.1,0,.13.05.13.1s-.08.14-.27.14c-.94,0-2-.05-2.09-.05s-1.12.05-1.63.05c-.19,0-.27,0-.27-.14s0-.1.13-.1a2.63,2.63,0,0,0,.51-.07c.34-.07.42-.44.49-.93.08-.71.08-2.06.08-3.69Z"/><path d="M60,217.15c0-2.23,0-2.63,0-3.09s-.15-.71-.64-.82a2.77,2.77,0,0,0-.41,0c-.12,0-.22-.05-.22-.1s.08-.14.25-.14c.34,0,.8,0,1.75.05.08,0,3.11,0,3.45,0a2.43,2.43,0,0,0,.66-.08.51.51,0,0,1,.19-.05s.07,0,.07.12-.1.34-.13.77,0,.56-.05.88c0,.15,0,.25-.12.25s-.12-.07-.12-.19a1.65,1.65,0,0,0-.12-.54c-.1-.34-.26-.46-1.11-.51-.22,0-1.9,0-1.94,0s-.09,0-.09.14v3.86c0,.1,0,.17.1.17s1.94,0,2.29-.05.64-.07.78-.25.12-.14.19-.14.07,0,.07.1-.07.41-.12.9-.05.82-.07,1-.05.19-.12.19-.1-.1-.1-.22a1.84,1.84,0,0,0-.05-.41c-.07-.22-.17-.46-.81-.51-.39,0-1.77-.07-2-.07-.1,0-.12.05-.12.12v1.24c0,.53,0,2,0,2.31,0,.63.12,1,.48,1.1a3.23,3.23,0,0,0,1.24.15,5.06,5.06,0,0,0,1.29-.1c.51-.15.63-.49.76-1.12,0-.17.09-.24.15-.24s.1.15.1.25-.14,1.19-.19,1.48-.19.37-.75.37c-1.12,0-1.6,0-2.19,0s-1.38-.05-2-.05c-.39,0-.71.05-1.12.05-.15,0-.24,0-.24-.12s.07-.12.15-.12a1.27,1.27,0,0,0,.34-.05c.3-.07.51-.29.54-1.34,0-.58,0-1.27,0-2.57Z"/><path d="M72.54,219.7c0,1.31,0,2.52.09,3.14.05.41.08.65.51.75a3.38,3.38,0,0,0,.66.07c.14,0,.21.05.21.1s-.05.14-.22.14c-.87,0-1.87-.05-1.94-.05s-1.07.05-1.51.05c-.19,0-.26,0-.26-.12s.05-.12.19-.12a2.68,2.68,0,0,0,.38,0c.32-.05.37-.25.44-.83s.07-1.84.07-3.11v-6.07c-.56,0-1.46,0-2.14,0-1.09,0-1.33.19-1.56.54a2.64,2.64,0,0,0-.25.53c-.05.12-.09.14-.15.14s-.09-.07-.09-.15.24-1.22.34-1.68c.05-.2.1-.27.15-.27s.44.15.75.19c.6.07,1.07.08,1.09.08h5.58a7.34,7.34,0,0,0,1.22-.08,2,2,0,0,1,.32-.07c.07,0,.1.08.1.15,0,.48,0,1.6,0,1.73s-.07.2-.12.2-.12-.07-.12-.2a1.85,1.85,0,0,0,0-.24c-.07-.68-.29-.85-2-.87l-1.67,0Z"/><path d="M79.55,217.15c0-2.23,0-2.63,0-3.09s-.15-.71-.64-.82a2.77,2.77,0,0,0-.41,0c-.12,0-.22-.05-.22-.1s.08-.14.25-.14c.34,0,.8,0,1.75.05.08,0,3.11,0,3.45,0a2.43,2.43,0,0,0,.66-.08.51.51,0,0,1,.19-.05s.07,0,.07.12-.1.34-.13.77,0,.56-.05.88c0,.15,0,.25-.12.25s-.12-.07-.12-.19a1.65,1.65,0,0,0-.12-.54c-.1-.34-.26-.46-1.11-.51-.22,0-1.9,0-1.94,0s-.09,0-.09.14v3.86c0,.1,0,.17.1.17s1.94,0,2.29-.05.64-.07.78-.25.12-.14.19-.14.07,0,.07.1-.07.41-.12.9-.05.82-.07,1-.05.19-.12.19-.1-.1-.1-.22a1.84,1.84,0,0,0-.05-.41c-.07-.22-.17-.46-.81-.51-.39,0-1.77-.07-2-.07-.1,0-.12.05-.12.12v1.24c0,.53,0,2,0,2.31,0,.63.12,1,.48,1.1a3.23,3.23,0,0,0,1.24.15,5.06,5.06,0,0,0,1.29-.1c.51-.15.63-.49.76-1.12,0-.17.09-.24.15-.24s.1.15.1.25-.14,1.19-.19,1.48-.19.37-.75.37c-1.12,0-1.6,0-2.19,0s-1.38-.05-2-.05c-.39,0-.71.05-1.12.05-.15,0-.24,0-.24-.12s.07-.12.15-.12a1.27,1.27,0,0,0,.34-.05c.3-.07.51-.29.54-1.34,0-.58,0-1.27,0-2.57Z"/><path d="M88.42,217.15c0-2.24,0-2.65,0-3.11s-.15-.71-.68-.82a2.86,2.86,0,0,0-.41,0c-.12,0-.19,0-.19-.1s.05-.12.2-.12c.73,0,1.77.05,1.8.05s1.31-.05,1.79-.05a4.81,4.81,0,0,1,2.79.65,2.58,2.58,0,0,1,1,2.07,4.24,4.24,0,0,1-1.8,3.21c1.24,1.53,2.26,2.79,3.13,3.69a2.85,2.85,0,0,0,1.8,1l.53,0c.14,0,.19.05.19.12s-.07.12-.31.12H97.05a3.81,3.81,0,0,1-1.55-.2c-.71-.31-1.22-1.07-2.11-2.21-.66-.82-1.34-1.73-1.63-2.09a.24.24,0,0,0-.2-.1l-1.75,0c-.07,0-.09,0-.09.08v.24a31.54,31.54,0,0,0,.09,3.21c.05.41.1.75.66.82l.49,0c.15,0,.22.05.22.1s-.07.14-.24.14c-.88,0-1.84-.05-1.9-.05-.27,0-1,.05-1.48.05-.17,0-.24,0-.24-.14s.1-.1.2-.1a1.46,1.46,0,0,0,.38,0c.29-.05.39-.24.44-.65.09-.61.07-2,.07-3.28Zm1.31,1.21a.21.21,0,0,0,.09.2,4.35,4.35,0,0,0,1.51.22,2,2,0,0,0,1.14-.25,2.46,2.46,0,0,0,.85-2.16c0-1.85-1-2.87-2.5-2.87a4.54,4.54,0,0,0-1,.08.15.15,0,0,0-.1.15Z"/><path d="M109.28,219c0,1.63,0,3,.08,3.69.05.49.15.87.66.93a7.33,7.33,0,0,0,.76.07c.1,0,.14.05.14.1s-.09.14-.27.14c-.94,0-2-.05-2.09-.05s-1.16.05-1.67.05c-.19,0-.27,0-.27-.14s0-.1.14-.1a2.63,2.63,0,0,0,.51-.07c.34-.07.42-.44.49-.93.09-.71.09-2.06.09-3.69v-7.19l-2.52,0c-1.05,0-1.46.14-1.73.54a2.94,2.94,0,0,0-.29.53c-.05.14-.1.17-.17.17s-.09-.05-.09-.15.34-1.63.38-1.77.1-.32.17-.32a3.18,3.18,0,0,0,.75.2c.49.05,1.14.08,1.34.08h6.38a6.73,6.73,0,0,0,1.21-.08c.25,0,.41-.08.48-.08s.08.1.08.2c0,.51-.05,1.68-.05,1.87s-.05.22-.12.22-.12-.05-.14-.29c0-.07,0-.12,0-.19-.05-.51-.46-.9-2.09-.94l-2.14,0Z"/><path d="M124.49,217.52c.05,0,.1,0,.1-.08v-.31c0-2.24,0-2.63,0-3.09s-.1-.7-.66-.8a3.21,3.21,0,0,0-.43,0c-.12,0-.2-.05-.2-.12s.09-.12.24-.12c.71,0,1.72.05,1.79.05s1-.05,1.53-.05c.17,0,.27,0,.27.12s-.05.12-.19.12a2.25,2.25,0,0,0-.34,0c-.46.07-.53.34-.56.82s0,.85,0,3.09v2.55c0,1.39,0,2.5.07,3.11.05.41.14.75.58.8a4.21,4.21,0,0,0,.6.05c.13,0,.22.05.22.12s-.09.12-.26.12c-.85,0-1.83-.05-1.92-.05s-1.05.05-1.51.05c-.17,0-.25,0-.25-.14s.05-.1.19-.1a1.52,1.52,0,0,0,.39,0c.29-.05.37-.42.42-.82a28.08,28.08,0,0,0,.09-3.06v-1.51a.1.1,0,0,0-.1-.1h-6.17c-.05,0-.08,0-.08.1v1.51a29.47,29.47,0,0,0,.08,3.09c.05.37.14.71.58.76a4.63,4.63,0,0,0,.61.05c.12,0,.2.05.2.12s-.07.12-.22.12c-.87,0-1.87-.05-2-.05s-1.09.05-1.53.05c-.17,0-.27,0-.27-.12s0-.12.19-.12a1.66,1.66,0,0,0,.41-.05c.31-.07.38-.39.43-.76a26,26,0,0,0,.08-3.14v-2.52c0-2.24,0-2.69,0-3.14s-.15-.77-.65-.82a4.59,4.59,0,0,0-.46,0c-.12,0-.19-.05-.19-.1s.09-.12.26-.12c.73,0,1.55.05,1.77.05.07,0,1.05-.05,1.53-.05.17,0,.26,0,.26.12s-.07.1-.17.1a1.48,1.48,0,0,0-.34,0c-.43.07-.53.36-.56.83s0,.83,0,3.08v.31c0,.08.05.08.1.08Z"/><path d="M131.23,217.15c0-2.24,0-2.65,0-3.11s-.13-.71-.49-.78c-.17,0-.29,0-.39-.05s-.19-.05-.19-.12.07-.12.26-.12c.53,0,1.49.05,1.55.05s1.05-.05,1.53-.05c.17,0,.25,0,.25.12s-.05.1-.19.12l-.31,0c-.49.07-.54.32-.58.82s0,.85,0,3.09v2.55c0,1.31,0,2.5.07,3.11s.14.68.58.78a4,4,0,0,0,.65.07c.15,0,.19.05.19.12s-.07.12-.24.12c-.87,0-1.85-.05-1.94-.05s-1.05.05-1.53.05c-.15,0-.27,0-.27-.12s.07-.12.22-.12a2,2,0,0,0,.41-.05c.29-.07.34-.41.39-.82a29.85,29.85,0,0,0,.09-3.09Z"/><path d="M137.89,217.15c0-2.23,0-2.63,0-3.09s-.15-.71-.64-.82a2.77,2.77,0,0,0-.41,0c-.12,0-.22-.05-.22-.1s.08-.14.25-.14c.34,0,.8,0,1.75.05.08,0,3.11,0,3.45,0a2.43,2.43,0,0,0,.66-.08.51.51,0,0,1,.19-.05s.07,0,.07.12-.1.34-.13.77,0,.56-.05.88c0,.15,0,.25-.12.25s-.12-.07-.12-.19a1.65,1.65,0,0,0-.12-.54c-.1-.34-.26-.46-1.11-.51-.22,0-1.9,0-1.94,0s-.09,0-.09.14v3.86c0,.1,0,.17.1.17s1.94,0,2.29-.05.64-.07.78-.25.12-.14.19-.14.07,0,.07.1-.07.41-.12.9-.05.82-.07,1-.05.19-.12.19-.1-.1-.1-.22a1.84,1.84,0,0,0-.05-.41c-.07-.22-.17-.46-.81-.51-.39,0-1.77-.07-2-.07-.1,0-.12.05-.12.12v1.24c0,.53,0,2,0,2.31,0,.63.12,1,.48,1.1a3.23,3.23,0,0,0,1.24.15,5.06,5.06,0,0,0,1.29-.1c.51-.15.63-.49.76-1.12,0-.17.09-.24.15-.24s.1.15.1.25-.14,1.19-.19,1.48-.19.37-.75.37c-1.12,0-1.6,0-2.19,0s-1.38-.05-2-.05c-.39,0-.71.05-1.12.05-.15,0-.24,0-.24-.12s.07-.12.15-.12a1.27,1.27,0,0,0,.34-.05c.3-.07.51-.29.54-1.34,0-.58,0-1.27,0-2.57Z"/><path d="M148.14,219.73c0,2,.07,2.94.36,3.21s.61.34,1.79.34c.75,0,1.43,0,1.8-.48a2.2,2.2,0,0,0,.32-.85c0-.14.05-.2.14-.2s.1.05.1.22a10.72,10.72,0,0,1-.21,1.53c-.1.34-.08.42-.9.42-1.16,0-2.43-.08-4.13-.08-.56,0-.9.05-1.5.05-.17,0-.27,0-.27-.14s.05-.1.19-.1a1.66,1.66,0,0,0,.41,0c.29-.05.39-.39.44-.8a27.45,27.45,0,0,0,.07-3.13v-2.55c0-2.24,0-2.62,0-3.08s-.1-.78-.68-.85a3.34,3.34,0,0,0-.42,0c-.12,0-.19-.05-.19-.12s.08-.12.25-.12c.71,0,1.73.05,1.77.05.24,0,1.27-.05,1.75-.05.17,0,.22.05.22.12s-.08.12-.19.12l-.46,0c-.47.07-.58.34-.61.83s0,.83,0,3.08Z"/><path d="M35.68,122.92c0-7.78,5.66-18.77,18.91-18.77,10.8,0,18.87,6.82,18.87,18,0,10.75-7.58,19.63-19.15,19.63C41.16,141.79,35.68,131.56,35.68,122.92Zm33.17.58c0-11.52-7-17.71-14.59-17.71-8,0-14,5.28-14,15.79C40.24,132.76,47,140,55.61,140,59.93,140,68.86,137.47,68.86,123.5Z" style="fill:#fff"/><path d="M87.81,127c0-17.33.1-11.09,0-20.4,0-1.87.14-2.4.53-2.4s1.2,1.06,1.68,1.54c.72.82,7.87,8.54,15.27,16.47,4.75,5.09,10,10.94,11.52,12.53l-.53-24.39c0-3.12-.38-4.18-1.87-4.56a10,10,0,0,0-2.06-.24c-.53,0-.67-.14-.67-.34s.38-.34,1-.34c2.16,0,4.46.14,5,.14s2.11-.14,4.08-.14c.53,0,.86,0,.86.34s-.19.29-.53.34-.67.1-1.25.19c-1.34.29-1.68,1-1.68,4.32l-.1,28c0,3.17-.1,3.41-.43,3.41s-1-.53-3.5-3.07c-.53-.48-7.44-7.54-12.53-13-5.57-6-11-12-12.53-13.78l.63,23c.1,3.94.58,5.18,1.87,5.57a10.52,10.52,0,0,0,2.4.29c.24,0,.38.1.38.29s-.29.38-.87.38c-2.74,0-4.66-.14-5.09-.14s-2.45.14-4.61.14c-.48,0-.77,0-.77-.38s.14-.29.38-.29a6.88,6.88,0,0,0,2-.29c1.2-.34,1.44-1.73,1.44-6.1Z" style="fill:#fff"/><path d="M139.65,118.75c0-7.49,0-8.83-.1-10.37s-.48-2.4-2.06-2.74a11.32,11.32,0,0,0-1.39-.14c-.34,0-.62-.1-.62-.29s.24-.38.77-.38c1.1,0,2.4,0,5.42.14.34,0,9.89,0,11,0a8,8,0,0,0,2.21-.29,1.17,1.17,0,0,1,.53-.19c.14,0,.19.19.19.43a21.21,21.21,0,0,0-.38,2.26c0,.72-.1,1.63-.19,2.88,0,.48-.19.82-.38.82s-.38-.24-.38-.62a4.77,4.77,0,0,0-.24-1.58c-.34-1.1-1.34-1.58-3.46-1.78-.81-.1-6-.14-6.58-.14-.19,0-.29.14-.29.48v13.25c0,.34,0,.48.29.48.63,0,6.53,0,7.63-.1,1.3-.1,1.92-.24,2.4-.82.24-.29.38-.48.58-.48s.24.1.24.38-.24,1.1-.38,2.69-.14,2.59-.19,3.26c0,.48-.14.72-.34.72s-.34-.38-.34-.77a4.38,4.38,0,0,0-.19-1.34c-.19-.72-.77-1.39-2.5-1.58-1.29-.14-6-.24-6.86-.24a.3.3,0,0,0-.34.34v4.22c0,1.63,0,7.2,0,8.21.1,2,.38,3,1.58,3.5a11.61,11.61,0,0,0,4,.43,15.9,15.9,0,0,0,4.32-.43c1.54-.48,2.06-1.49,2.45-3.55.1-.53.19-.72.43-.72s.29.38.29.72a47,47,0,0,1-.62,4.66c-.34,1.25-.72,1.25-2.59,1.25-3.55,0-5.14-.1-7-.14s-4.13-.14-6-.14c-1.15,0-2.3.19-3.55.14-.53,0-.77-.1-.77-.38s.24-.24.53-.29a6.2,6.2,0,0,0,1.1-.14c1-.24,1.63-.91,1.73-4.51,0-1.87.1-4.32.1-8.59Z" style="fill:#fff"/><line x1="23" y1="178.89" x2="177" y2="178.89" style="fill:none;stroke:#fff;stroke-miterlimit:10"/></svg>