<svg id="Layer_1" data-name="Layer 1" xmlns="http://www.w3.org/2000/svg" xmlns:xlink="http://www.w3.org/1999/xlink" viewBox="0 0 200 260"><defs><linearGradient id="linear-gradient" x1="100" y1="205" x2="100" y2="-4" gradientUnits="userSpaceOnUse"><stop offset="0" stop-color="#fff"/><stop offset="0.47" stop-color="#636363"/><stop offset="0.94" stop-color="#a9a9a9"/><stop offset="0.99" stop-color="#eaeaea"/></linearGradient><linearGradient id="linear-gradient-2" x1="71" y1="175.32" x2="71" y2="195.51" xlink:href="#linear-gradient"/></defs><title>book-do-the-work</title><rect x="0.17" width="199.65" height="260" style="fill:#fff"/><path d="M60.67,23.18h5.74A6.64,6.64,0,0,1,71.46,25a7.19,7.19,0,0,1,1.75,5.15V42.82q0,3.8-1.84,5.61a7.27,7.27,0,0,1-5.3,1.8h-5.4Zm3.88,23.41h1.79a2.87,2.87,0,0,0,2.32-.82,4,4,0,0,0,.68-2.57v-13a4.09,4.09,0,0,0-.65-2.47,2.76,2.76,0,0,0-2.36-.87H64.55Z" style="fill:#adaeb2"/><path d="M76.63,29.56a6.91,6.91,0,0,1,.57-2.89,6,6,0,0,1,1.5-2.07,6.47,6.47,0,0,1,2.09-1.24,6.74,6.74,0,0,1,4.67,0,6.49,6.49,0,0,1,2.09,1.24,6,6,0,0,1,1.5,2.07,6.91,6.91,0,0,1,.57,2.89V43.85a6.88,6.88,0,0,1-.57,2.91,6.09,6.09,0,0,1-1.5,2.05A6.47,6.47,0,0,1,85.46,50a6.74,6.74,0,0,1-4.67,0,6.45,6.45,0,0,1-2.09-1.23,6.06,6.06,0,0,1-1.5-2.05,6.88,6.88,0,0,1-.57-2.91ZM80.5,43.85a2.57,2.57,0,0,0,.78,2.07,2.89,2.89,0,0,0,3.69,0,2.57,2.57,0,0,0,.78-2.07V29.56A2.58,2.58,0,0,0,85,27.49a2.89,2.89,0,0,0-3.69,0,2.58,2.58,0,0,0-.78,2.07Z" style="fill:#adaeb2"/><path d="M102.66,26.83H98.17V23.18H111v3.65h-4.48V50.23h-3.88Z" style="fill:#adaeb2"/><path d="M112.73,23.18h3.88V34.77h4.79V23.18h3.88V50.23h-3.88v-12H116.6v12h-3.88Z" style="fill:#adaeb2"/><path d="M128.92,23.18h11.55v3.65h-7.68v7.94h6.69v3.65h-6.69v7.94h7.68v3.88H128.92Z" style="fill:#adaeb2"/><path d="M63.32,120.23H55.64l-6.24-37h-.16l-6.16,37H35.4l-8.48-57h8.64l4.08,36.16h.16l6.4-36.16h6.24l6.64,37h.16l3.92-37H71.8Z"/><path d="M75.48,76.71a14.56,14.56,0,0,1,1.2-6.08,12.68,12.68,0,0,1,3.16-4.36,13.62,13.62,0,0,1,4.4-2.6,14.18,14.18,0,0,1,9.84,0,13.65,13.65,0,0,1,4.4,2.6,12.69,12.69,0,0,1,3.16,4.36,14.54,14.54,0,0,1,1.2,6.08v30.08a14.47,14.47,0,0,1-1.2,6.12,12.78,12.78,0,0,1-3.16,4.32,13.61,13.61,0,0,1-4.4,2.6,14.18,14.18,0,0,1-9.84,0,13.58,13.58,0,0,1-4.4-2.6,12.76,12.76,0,0,1-3.16-4.32,14.48,14.48,0,0,1-1.2-6.12Zm8.16,30.08a5.42,5.42,0,0,0,1.64,4.36,6.07,6.07,0,0,0,7.76,0,5.42,5.42,0,0,0,1.64-4.36V76.71A5.43,5.43,0,0,0,93,72.35a6.07,6.07,0,0,0-7.76,0,5.42,5.42,0,0,0-1.64,4.36Z"/><path d="M110,63.27h13.12q14.4,0,14.4,16.72A21.13,21.13,0,0,1,136,88.51a12.06,12.06,0,0,1-5.48,5.72l8.8,26h-8.64l-7.6-24.32H118.2v24.32H110Zm8.16,25.44h4.64a8.2,8.2,0,0,0,3.44-.6,4.42,4.42,0,0,0,2-1.72,7.34,7.34,0,0,0,.92-2.76,30.18,30.18,0,0,0,0-7.6,6.87,6.87,0,0,0-1-2.8A4.53,4.53,0,0,0,126,71.51a9.62,9.62,0,0,0-3.6-.56H118.2Z"/><path d="M144.12,63.27h8.16v26h.16l11.92-26h8.16L161.4,86.07l13.2,34.16H166L156.68,95l-4.4,8.24v17h-8.16Z"/><path d="M55.12,232.83H53.49v-.37a1.75,1.75,0,0,0-.26-1,1,1,0,0,0-.89-.41,1.07,1.07,0,0,0-.55.13.94.94,0,0,0-.34.33,1.36,1.36,0,0,0-.17.46,3.07,3.07,0,0,0,0,.55q0,.34,0,.57a1,1,0,0,0,.12.4.91.91,0,0,0,.28.3,2.49,2.49,0,0,0,.5.26l1.25.5a3.1,3.1,0,0,1,.88.49,2,2,0,0,1,.52.66,2.8,2.8,0,0,1,.25.86,8.77,8.77,0,0,1,.06,1.11A5.88,5.88,0,0,1,55,239a2.82,2.82,0,0,1-.47,1.06,2.26,2.26,0,0,1-.87.7,3.1,3.1,0,0,1-1.33.26,2.91,2.91,0,0,1-1.1-.21,2.63,2.63,0,0,1-1.46-1.42,2.64,2.64,0,0,1-.22-1.07v-.61h1.63v.51a1.34,1.34,0,0,0,.26.81,1,1,0,0,0,.89.36,1.44,1.44,0,0,0,.65-.12.83.83,0,0,0,.35-.34,1.39,1.39,0,0,0,.15-.54q0-.32,0-.7a6.85,6.85,0,0,0,0-.74,1.17,1.17,0,0,0-.14-.46.83.83,0,0,0-.29-.29,3.93,3.93,0,0,0-.49-.24l-1.17-.48A2.58,2.58,0,0,1,50,234.36a4,4,0,0,1-.36-1.78,4.15,4.15,0,0,1,.18-1.22,2.84,2.84,0,0,1,.52-1,2.49,2.49,0,0,1,.87-.66,2.88,2.88,0,0,1,1.23-.25,2.73,2.73,0,0,1,1.11.22,2.78,2.78,0,0,1,.86.59,2.65,2.65,0,0,1,.55.82,2.4,2.4,0,0,1,.19.94Z" style="fill:#aca579"/><path d="M57.41,231.09H55.52v-1.54h5.41v1.54H59v9.86H57.41Z" style="fill:#aca579"/><path d="M61.65,229.55h4.86v1.54H63.28v3.34h2.82V236H63.28v3.34h3.23v1.63H61.65Z" style="fill:#aca579"/><path d="M70.77,240.94H69.33L67,229.55h1.73l1.3,8h0l1.31-8H73.1Z" style="fill:#aca579"/><path d="M74.08,229.55h4.86v1.54H75.71v3.34h2.82V236H75.71v3.34h3.23v1.63H74.08Z" style="fill:#aca579"/><path d="M79.93,229.55H81.5L84,236.42h0v-6.86h1.63v11.39H84.09l-2.5-6.85h0v6.85H79.93Z" style="fill:#aca579"/><path d="M90.08,229.55h2.45a3.65,3.65,0,0,1,1.18.18,2.27,2.27,0,0,1,.93.62,2.44,2.44,0,0,1,.58,1,6.57,6.57,0,0,1,.16,1.62,8.09,8.09,0,0,1-.09,1.29,2.7,2.7,0,0,1-.38,1,2.38,2.38,0,0,1-.9.87,3,3,0,0,1-1.47.31h-.83v4.45H90.08ZM91.71,235h.78a1.67,1.67,0,0,0,.77-.14.91.91,0,0,0,.4-.39,1.5,1.5,0,0,0,.15-.6c0-.23,0-.5,0-.78s0-.52,0-.76a1.78,1.78,0,0,0-.14-.62.92.92,0,0,0-.38-.42,1.45,1.45,0,0,0-.74-.15h-.85Z" style="fill:#aca579"/><path d="M96.59,229.55h2.62q2.88,0,2.88,3.34a4.22,4.22,0,0,1-.31,1.7,2.4,2.4,0,0,1-1.1,1.14l1.76,5.2h-1.73l-1.52-4.86h-1v4.86H96.59Zm1.63,5.09h.93a1.65,1.65,0,0,0,.69-.12.88.88,0,0,0,.39-.34,1.47,1.47,0,0,0,.18-.55,6.06,6.06,0,0,0,0-1.52,1.37,1.37,0,0,0-.2-.56.9.9,0,0,0-.42-.34,1.93,1.93,0,0,0-.72-.11h-.85Z" style="fill:#aca579"/><path d="M103.4,229.55h4.86v1.54H105v3.34h2.82V236H105v3.34h3.23v1.63H103.4Z" style="fill:#aca579"/><path d="M114.6,232.83H113v-.37a1.75,1.75,0,0,0-.26-1,1,1,0,0,0-.89-.41,1.07,1.07,0,0,0-.55.13.94.94,0,0,0-.34.33,1.36,1.36,0,0,0-.17.46,3.07,3.07,0,0,0,0,.55q0,.34,0,.57a1,1,0,0,0,.12.4.91.91,0,0,0,.28.3,2.49,2.49,0,0,0,.5.26l1.25.5a3.1,3.1,0,0,1,.88.49,2,2,0,0,1,.52.66,2.8,2.8,0,0,1,.25.86,8.77,8.77,0,0,1,.06,1.11,5.88,5.88,0,0,1-.14,1.34,2.82,2.82,0,0,1-.47,1.06,2.26,2.26,0,0,1-.87.7,3.1,3.1,0,0,1-1.33.26,2.91,2.91,0,0,1-1.1-.21,2.63,2.63,0,0,1-1.46-1.42,2.64,2.64,0,0,1-.22-1.07v-.61h1.63v.51a1.34,1.34,0,0,0,.26.81,1,1,0,0,0,.89.36,1.44,1.44,0,0,0,.65-.12.83.83,0,0,0,.35-.34,1.39,1.39,0,0,0,.15-.54q0-.32,0-.7a6.85,6.85,0,0,0,0-.74,1.17,1.17,0,0,0-.14-.46.83.83,0,0,0-.29-.29A3.93,3.93,0,0,0,112,236l-1.17-.48a2.58,2.58,0,0,1-1.42-1.14,4,4,0,0,1-.36-1.78,4.15,4.15,0,0,1,.18-1.22,2.84,2.84,0,0,1,.52-1,2.49,2.49,0,0,1,.87-.66,2.88,2.88,0,0,1,1.23-.25,2.73,2.73,0,0,1,1.11.22,2.78,2.78,0,0,1,.86.59,2.65,2.65,0,0,1,.55.82,2.4,2.4,0,0,1,.19.94Z" style="fill:#aca579"/><path d="M121.1,232.83h-1.63v-.37a1.75,1.75,0,0,0-.26-1,1,1,0,0,0-.89-.41,1.07,1.07,0,0,0-.55.13.94.94,0,0,0-.34.33,1.36,1.36,0,0,0-.17.46,3.07,3.07,0,0,0,0,.55q0,.34,0,.57a1,1,0,0,0,.12.4.91.91,0,0,0,.28.3,2.49,2.49,0,0,0,.5.26l1.25.5a3.1,3.1,0,0,1,.88.49,2,2,0,0,1,.52.66,2.8,2.8,0,0,1,.25.86,8.77,8.77,0,0,1,.06,1.11A5.88,5.88,0,0,1,121,239a2.82,2.82,0,0,1-.47,1.06,2.26,2.26,0,0,1-.87.7,3.1,3.1,0,0,1-1.33.26,2.91,2.91,0,0,1-1.1-.21,2.63,2.63,0,0,1-1.46-1.42,2.64,2.64,0,0,1-.22-1.07v-.61h1.63v.51a1.34,1.34,0,0,0,.26.81,1,1,0,0,0,.89.36,1.44,1.44,0,0,0,.65-.12.83.83,0,0,0,.35-.34,1.39,1.39,0,0,0,.15-.54q0-.32,0-.7a6.85,6.85,0,0,0,0-.74,1.17,1.17,0,0,0-.14-.46.83.83,0,0,0-.29-.29,3.93,3.93,0,0,0-.49-.24l-1.17-.48a2.58,2.58,0,0,1-1.42-1.14,4,4,0,0,1-.36-1.78,4.15,4.15,0,0,1,.18-1.22,2.84,2.84,0,0,1,.52-1,2.49,2.49,0,0,1,.87-.66,2.88,2.88,0,0,1,1.23-.25,2.73,2.73,0,0,1,1.11.22,2.78,2.78,0,0,1,.86.59,2.65,2.65,0,0,1,.55.82,2.4,2.4,0,0,1,.19.94Z" style="fill:#aca579"/><path d="M122.32,229.55h4.86v1.54h-3.23v3.46h2.82v1.54h-2.82v4.86h-1.63Z" style="fill:#aca579"/><path d="M128.29,229.55h1.63v11.39h-1.63Z" style="fill:#aca579"/><path d="M131.5,229.55h4.86v1.54h-3.23v3.34h2.82V236h-2.82v3.34h3.23v1.63H131.5Z" style="fill:#aca579"/><path d="M137.42,229.55h1.63v9.76h3.23v1.63h-4.86Z" style="fill:#aca579"/><path d="M143.34,229.55h2.42a2.79,2.79,0,0,1,2.13.78,3,3,0,0,1,.74,2.17v5.33a3.18,3.18,0,0,1-.78,2.36,3.06,3.06,0,0,1-2.23.76h-2.27Zm1.63,9.86h.75a1.21,1.21,0,0,0,1-.34A1.66,1.66,0,0,0,147,238V232.5a1.72,1.72,0,0,0-.27-1,1.16,1.16,0,0,0-1-.37H145Z" style="fill:#aca579"/><path d="M116.87,197.3H111l0,0H48.34A3.33,3.33,0,0,1,45,193.94v-6.33a3.34,3.34,0,0,1,3.34-3.34H116l39,6.5Z" style="fill:url(#linear-gradient)"/><path d="M48.34,166.27H56a0,0,0,0,1,0,0v19a0,0,0,0,1,0,0H48.34A3.34,3.34,0,0,1,45,181.93V169.61A3.34,3.34,0,0,1,48.34,166.27Z" style="fill:#c56255"/><rect x="56" y="166.27" width="30" height="19" style="fill:url(#linear-gradient-2)"/><rect x="86" y="166.27" width="30" height="19" style="fill:#eaa530"/><rect x="86" y="166.27" width="30" height="9.53" style="fill:#fffdd9"/><polygon points="111 185.27 116 180.25 111 175.77 116 171.17 111 166.27 116 166.27 155 175.77 116.87 185.27 111 185.27" style="fill:#f8e7c9"/><polygon points="111 185.3 116 180.28 111 175.8 155 175.8 116.87 185.3 111 185.3" style="fill:#c4a883"/><polygon points="155 175.77 144 178.51 144 173.09 155 175.77" style="fill:#2e2e2c"/><line x1="60.75" y1="166.27" x2="60.75" y2="185.27" style="fill:none;stroke:#9c9b99;stroke-miterlimit:10;opacity:0.2"/><line x1="62.75" y1="166.27" x2="62.75" y2="185.27" style="fill:none;stroke:#9c9b99;stroke-miterlimit:10;opacity:0.2"/><line x1="64.75" y1="166.27" x2="64.75" y2="185.27" style="fill:none;stroke:#9c9b99;stroke-miterlimit:10;opacity:0.2"/><line x1="75.5" y1="166.27" x2="75.5" y2="185.27" style="fill:none;stroke:#9c9b99;stroke-miterlimit:10;opacity:0.2"/><line x1="77.5" y1="166.27" x2="77.5" y2="185.27" style="fill:none;stroke:#9c9b99;stroke-miterlimit:10;opacity:0.2"/><line x1="79.5" y1="166.27" x2="79.5" y2="185.27" style="fill:none;stroke:#9c9b99;stroke-miterlimit:10;opacity:0.2"/><line x1="67.86" y1="167.28" x2="72.11" y2="167.28" style="fill:none;stroke:#9c9b99;stroke-miterlimit:10;opacity:0.2"/><line x1="67.86" y1="168.69" x2="72.11" y2="168.69" style="fill:none;stroke:#9c9b99;stroke-miterlimit:10;opacity:0.2"/><line x1="67.86" y1="170.09" x2="72.11" y2="170.09" style="fill:none;stroke:#9c9b99;stroke-miterlimit:10;opacity:0.2"/><line x1="67.86" y1="171.5" x2="72.11" y2="171.5" style="fill:none;stroke:#9c9b99;stroke-miterlimit:10;opacity:0.2"/><line x1="67.86" y1="172.9" x2="72.11" y2="172.9" style="fill:none;stroke:#9c9b99;stroke-miterlimit:10;opacity:0.2"/><line x1="67.86" y1="174.31" x2="72.11" y2="174.31" style="fill:none;stroke:#9c9b99;stroke-miterlimit:10;opacity:0.2"/><line x1="67.86" y1="175.72" x2="72.11" y2="175.72" style="fill:none;stroke:#9c9b99;stroke-miterlimit:10;opacity:0.2"/><line x1="67.86" y1="177.12" x2="72.11" y2="177.12" style="fill:none;stroke:#9c9b99;stroke-miterlimit:10;opacity:0.2"/><line x1="67.86" y1="178.53" x2="72.11" y2="178.53" style="fill:none;stroke:#9c9b99;stroke-miterlimit:10;opacity:0.2"/><line x1="67.86" y1="179.93" x2="72.11" y2="179.93" style="fill:none;stroke:#9c9b99;stroke-miterlimit:10;opacity:0.2"/><line x1="67.86" y1="181.34" x2="72.11" y2="181.34" style="fill:none;stroke:#9c9b99;stroke-miterlimit:10;opacity:0.2"/><line x1="67.86" y1="182.75" x2="72.11" y2="182.75" style="fill:none;stroke:#9c9b99;stroke-miterlimit:10;opacity:0.2"/><line x1="67.86" y1="184.15" x2="72.11" y2="184.15" style="fill:none;stroke:#9c9b99;stroke-miterlimit:10;opacity:0.2"/></svg>