<svg id="Layer_1" data-name="Layer 1" xmlns="http://www.w3.org/2000/svg" viewBox="0 0 200 260"><title>book-think-grow-rich</title><rect x="0.17" width="199.65" height="260" style="fill:#f6ebcf"/><path d="M53.18,47.88H46.08V42.09H66.44v5.78H59.33V85H53.18Z" style="fill:#fa0"/><path d="M69.15,42.09h6.14V60.47h7.59V42.09H89V85H82.88V65.89H75.29V85H69.15Z" style="fill:#fa0"/><path d="M95,42.09h6.14V85H95Z" style="fill:#fa0"/><path d="M106.85,42.09h5.9L122,67.94h.12V42.09h6.14V85h-5.78l-9.4-25.78H113V85h-6.14Z" style="fill:#fa0"/><path d="M133.83,42.09H140V61.67h.12l9-19.58h6.14l-8.37,17.17L156.78,85h-6.51l-7-19L140,72.15V85h-6.14Z" style="fill:#fa0"/><path d="M60.39,122.82a9.71,9.71,0,0,1-2.77,2,7.69,7.69,0,0,1-3.25.66,6.15,6.15,0,0,1-2.53-.53,6.31,6.31,0,0,1-2.08-1.48,6.9,6.9,0,0,1-1.4-2.3,8.4,8.4,0,0,1-.51-3,8.31,8.31,0,0,1,1.24-4.56,17.73,17.73,0,0,1,3.1-3.63,19,19,0,0,1-2-3.48,9.44,9.44,0,0,1-.78-3.79,7.05,7.05,0,0,1,.4-2.37A5.58,5.58,0,0,1,51,98.39a5.4,5.4,0,0,1,1.9-1.31,6.9,6.9,0,0,1,2.7-.49,6.6,6.6,0,0,1,2.57.46A5.58,5.58,0,0,1,60,98.3a5.29,5.29,0,0,1,1.15,1.82,6.08,6.08,0,0,1,.4,2.19,7.4,7.4,0,0,1-1.37,4.23,20.66,20.66,0,0,1-3.23,3.7q.84,1.28,1.93,3.1t2.24,3.5l2.44-3.32,2.79,1.95L63,119.8l3.41,5.4H61.89Zm-8.55-4.87a4.32,4.32,0,0,0,1,2.81,3,3,0,0,0,2.41,1.17,3.38,3.38,0,0,0,1.95-.64A6.46,6.46,0,0,0,58.57,120l-4.34-6.91a10.85,10.85,0,0,0-1.71,2.19A5.12,5.12,0,0,0,51.84,117.94Zm1.59-15.15a5.73,5.73,0,0,0,.49,2.19,15.76,15.76,0,0,0,1.24,2.37l.89-.91a7.48,7.48,0,0,0,.89-1.13,6.77,6.77,0,0,0,.66-1.35,4.55,4.55,0,0,0,.27-1.57,2.41,2.41,0,0,0-.58-1.55,2.1,2.1,0,0,0-3.23.11A3,3,0,0,0,53.43,102.8Z" style="fill:#fa0"/><path d="M77.66,101.11a8.07,8.07,0,0,1,.66-3.37,7,7,0,0,1,1.75-2.41,7.57,7.57,0,0,1,2.44-1.44,7.87,7.87,0,0,1,5.45,0,7.59,7.59,0,0,1,2.44,1.44,7,7,0,0,1,1.75,2.41,8.05,8.05,0,0,1,.67,3.37v1.59H88.29v-1.59a3,3,0,0,0-.91-2.41,3.37,3.37,0,0,0-4.3,0,3,3,0,0,0-.91,2.41v16.65a3,3,0,0,0,.91,2.41,3.36,3.36,0,0,0,4.3,0,3,3,0,0,0,.91-2.41v-5.94H84.7v-4H92.8v9.92a8,8,0,0,1-.67,3.39,7.07,7.07,0,0,1-1.75,2.39A7.52,7.52,0,0,1,88,125a7.86,7.86,0,0,1-5.45,0,7.5,7.5,0,0,1-2.44-1.44,7.06,7.06,0,0,1-1.75-2.39,8,8,0,0,1-.66-3.39Z" style="fill:#fa0"/><path d="M96.79,93.67h7.26q8,0,8,9.26a11.69,11.69,0,0,1-.86,4.72,6.68,6.68,0,0,1-3,3.17L113,125.21h-4.78L104,111.74h-2.7v13.46H96.79Zm4.52,14.08h2.57a4.54,4.54,0,0,0,1.91-.33,2.46,2.46,0,0,0,1.08-1,4.06,4.06,0,0,0,.51-1.53,16.72,16.72,0,0,0,0-4.21,3.79,3.79,0,0,0-.55-1.55,2.51,2.51,0,0,0-1.17-1,5.34,5.34,0,0,0-2-.31h-2.35Z" style="fill:#fa0"/><path d="M115.39,101.11a8.07,8.07,0,0,1,.66-3.37,7,7,0,0,1,1.75-2.41,7.57,7.57,0,0,1,2.44-1.44,7.87,7.87,0,0,1,5.45,0,7.59,7.59,0,0,1,2.44,1.44,7,7,0,0,1,1.75,2.41,8.05,8.05,0,0,1,.67,3.37v16.65a8,8,0,0,1-.67,3.39,7.07,7.07,0,0,1-1.75,2.39,7.52,7.52,0,0,1-2.44,1.44,7.86,7.86,0,0,1-5.45,0,7.5,7.5,0,0,1-2.44-1.44,7.06,7.06,0,0,1-1.75-2.39,8,8,0,0,1-.66-3.39Zm4.52,16.65a3,3,0,0,0,.91,2.41,3.36,3.36,0,0,0,4.3,0,3,3,0,0,0,.91-2.41V101.11a3,3,0,0,0-.91-2.41,3.37,3.37,0,0,0-4.3,0,3,3,0,0,0-.91,2.41Z" style="fill:#fa0"/><path d="M152.73,125.21h-4.25L145,104.75h-.09l-3.41,20.46h-4.25l-4.69-31.53h4.78l2.26,20h.09l3.54-20h3.45l3.68,20.51h.09l2.17-20.51h4.78Z" style="fill:#fa0"/><path d="M50,134.12H62.59q13.87,0,13.87,16.11a20.36,20.36,0,0,1-1.5,8.21,11.61,11.61,0,0,1-5.28,5.51l8.48,25H69.84l-7.32-23.43h-4.7V189H50Zm7.86,24.51h4.47A7.9,7.9,0,0,0,65.6,158a4.26,4.26,0,0,0,1.89-1.66,7,7,0,0,0,.89-2.66,29.06,29.06,0,0,0,0-7.32,6.61,6.61,0,0,0-1-2.7,4.37,4.37,0,0,0-2-1.66,9.29,9.29,0,0,0-3.47-.54H57.82Z" style="fill:#fa0"/><path d="M83,134.12h7.86V189H83Z" style="fill:#fa0"/><path d="M123.47,176.73a12.51,12.51,0,0,1-1,4.85,12.74,12.74,0,0,1-2.66,4,13.15,13.15,0,0,1-4,2.77,11.62,11.62,0,0,1-4.89,1,17.58,17.58,0,0,1-4.55-.62,11,11,0,0,1-4.16-2.12,11.42,11.42,0,0,1-3-4A14.28,14.28,0,0,1,98,176.5V146.29a13.37,13.37,0,0,1,.92-5,11.8,11.8,0,0,1,2.62-4,12.2,12.2,0,0,1,4-2.66,13.61,13.61,0,0,1,5.2-1,12.91,12.91,0,0,1,5,1,12,12,0,0,1,4,2.7,12.46,12.46,0,0,1,2.66,4.16,14.2,14.2,0,0,1,1,5.28v3.08h-7.86v-2.62a6.37,6.37,0,0,0-1.31-4,4.25,4.25,0,0,0-3.54-1.7q-2.93,0-3.89,1.81a9.71,9.71,0,0,0-1,4.59V176a7.27,7.27,0,0,0,1,4q1,1.62,3.74,1.62a5.68,5.68,0,0,0,1.66-.27,4.55,4.55,0,0,0,1.62-.89,4.45,4.45,0,0,0,1.19-1.7,6.86,6.86,0,0,0,.46-2.7v-2.7h7.86Z" style="fill:#fa0"/><path d="M129.87,134.12h7.86v23.5h9.71v-23.5h7.86V189h-7.86V164.56h-9.71V189h-7.86Z" style="fill:#fa0"/><path d="M51.18,45.88H44.08V40.09H64.44v5.78H57.33V83H51.18Z" style="fill:#214f28"/><path d="M67.15,40.09h6.14V58.47h7.59V40.09H87V83H80.88V63.89H73.29V83H67.15Z" style="fill:#214f28"/><path d="M93,40.09h6.14V83H93Z" style="fill:#214f28"/><path d="M104.85,40.09h5.9L120,65.94h.12V40.09h6.14V83h-5.78l-9.4-25.78H111V83h-6.14Z" style="fill:#214f28"/><path d="M131.83,40.09H138V59.67h.12l9-19.58h6.14l-8.37,17.17L154.78,83h-6.51l-7-19L138,70.15V83h-6.14Z" style="fill:#214f28"/><path d="M58.39,120.82a9.71,9.71,0,0,1-2.77,2,7.69,7.69,0,0,1-3.25.66,6.15,6.15,0,0,1-2.53-.53,6.31,6.31,0,0,1-2.08-1.48,6.9,6.9,0,0,1-1.4-2.3,8.4,8.4,0,0,1-.51-3,8.31,8.31,0,0,1,1.24-4.56,17.73,17.73,0,0,1,3.1-3.63,19,19,0,0,1-2-3.48,9.44,9.44,0,0,1-.78-3.79,7.05,7.05,0,0,1,.4-2.37A5.58,5.58,0,0,1,49,96.39a5.4,5.4,0,0,1,1.9-1.31,6.9,6.9,0,0,1,2.7-.49,6.6,6.6,0,0,1,2.57.46A5.58,5.58,0,0,1,58,96.3a5.29,5.29,0,0,1,1.15,1.82,6.08,6.08,0,0,1,.4,2.19,7.4,7.4,0,0,1-1.37,4.23,20.66,20.66,0,0,1-3.23,3.7q.84,1.28,1.93,3.1t2.24,3.5l2.44-3.32,2.79,1.95L61,117.8l3.41,5.4H59.89Zm-8.55-4.87a4.32,4.32,0,0,0,1,2.81,3,3,0,0,0,2.41,1.17,3.38,3.38,0,0,0,1.95-.64A6.46,6.46,0,0,0,56.57,118l-4.34-6.91a10.85,10.85,0,0,0-1.71,2.19A5.12,5.12,0,0,0,49.84,115.94Zm1.59-15.15a5.73,5.73,0,0,0,.49,2.19,15.76,15.76,0,0,0,1.24,2.37l.89-.91a7.48,7.48,0,0,0,.89-1.13,6.77,6.77,0,0,0,.66-1.35,4.55,4.55,0,0,0,.27-1.57,2.41,2.41,0,0,0-.58-1.55,2.1,2.1,0,0,0-3.23.11A3,3,0,0,0,51.43,100.8Z" style="fill:#214f28"/><path d="M75.66,99.11a8.07,8.07,0,0,1,.66-3.37,7,7,0,0,1,1.75-2.41,7.57,7.57,0,0,1,2.44-1.44,7.87,7.87,0,0,1,5.45,0,7.59,7.59,0,0,1,2.44,1.44,7,7,0,0,1,1.75,2.41,8.05,8.05,0,0,1,.67,3.37v1.59H86.29V99.11a3,3,0,0,0-.91-2.41,3.37,3.37,0,0,0-4.3,0,3,3,0,0,0-.91,2.41v16.65a3,3,0,0,0,.91,2.41,3.36,3.36,0,0,0,4.3,0,3,3,0,0,0,.91-2.41v-5.94H82.7v-4H90.8v9.92a8,8,0,0,1-.67,3.39,7.07,7.07,0,0,1-1.75,2.39A7.52,7.52,0,0,1,86,123a7.86,7.86,0,0,1-5.45,0,7.5,7.5,0,0,1-2.44-1.44,7.06,7.06,0,0,1-1.75-2.39,8,8,0,0,1-.66-3.39Z" style="fill:#214f28"/><path d="M94.79,91.67h7.26q8,0,8,9.26a11.69,11.69,0,0,1-.86,4.72,6.68,6.68,0,0,1-3,3.17L111,123.21h-4.78L102,109.74h-2.7v13.46H94.79Zm4.52,14.08h2.57a4.54,4.54,0,0,0,1.91-.33,2.46,2.46,0,0,0,1.08-1,4.06,4.06,0,0,0,.51-1.53,16.72,16.72,0,0,0,0-4.21,3.79,3.79,0,0,0-.55-1.55,2.51,2.51,0,0,0-1.17-1,5.34,5.34,0,0,0-2-.31H99.31Z" style="fill:#214f28"/><path d="M113.39,99.11a8.07,8.07,0,0,1,.66-3.37,7,7,0,0,1,1.75-2.41,7.57,7.57,0,0,1,2.44-1.44,7.87,7.87,0,0,1,5.45,0,7.59,7.59,0,0,1,2.44,1.44,7,7,0,0,1,1.75,2.41,8.05,8.05,0,0,1,.67,3.37v16.65a8,8,0,0,1-.67,3.39,7.07,7.07,0,0,1-1.75,2.39,7.52,7.52,0,0,1-2.44,1.44,7.86,7.86,0,0,1-5.45,0,7.5,7.5,0,0,1-2.44-1.44,7.06,7.06,0,0,1-1.75-2.39,8,8,0,0,1-.66-3.39Zm4.52,16.65a3,3,0,0,0,.91,2.41,3.36,3.36,0,0,0,4.3,0,3,3,0,0,0,.91-2.41V99.11a3,3,0,0,0-.91-2.41,3.37,3.37,0,0,0-4.3,0,3,3,0,0,0-.91,2.41Z" style="fill:#214f28"/><path d="M150.73,123.21h-4.25L143,102.75h-.09l-3.41,20.46h-4.25l-4.69-31.53h4.78l2.26,20h.09l3.54-20h3.45l3.68,20.51h.09l2.17-20.51h4.78Z" style="fill:#214f28"/><path d="M48,132.12H60.59q13.87,0,13.87,16.11a20.36,20.36,0,0,1-1.5,8.21,11.61,11.61,0,0,1-5.28,5.51l8.48,25H67.84l-7.32-23.43h-4.7V187H48Zm7.86,24.51h4.47A7.9,7.9,0,0,0,63.6,156a4.26,4.26,0,0,0,1.89-1.66,7,7,0,0,0,.89-2.66,29.06,29.06,0,0,0,0-7.32,6.61,6.61,0,0,0-1-2.7,4.37,4.37,0,0,0-2-1.66,9.29,9.29,0,0,0-3.47-.54H55.82Z" style="fill:#214f28"/><path d="M81,132.12h7.86V187H81Z" style="fill:#214f28"/><path d="M121.47,174.73a12.51,12.51,0,0,1-1,4.85,12.74,12.74,0,0,1-2.66,4,13.15,13.15,0,0,1-4,2.77,11.62,11.62,0,0,1-4.89,1,17.58,17.58,0,0,1-4.55-.62,11,11,0,0,1-4.16-2.12,11.42,11.42,0,0,1-3-4A14.28,14.28,0,0,1,96,174.5V144.29a13.37,13.37,0,0,1,.92-5,11.8,11.8,0,0,1,2.62-4,12.2,12.2,0,0,1,4-2.66,13.61,13.61,0,0,1,5.2-1,12.91,12.91,0,0,1,5,1,12,12,0,0,1,4,2.7,12.46,12.46,0,0,1,2.66,4.16,14.2,14.2,0,0,1,1,5.28v3.08h-7.86v-2.62a6.37,6.37,0,0,0-1.31-4,4.25,4.25,0,0,0-3.54-1.7q-2.93,0-3.89,1.81a9.71,9.71,0,0,0-1,4.59V174a7.27,7.27,0,0,0,1,4q1,1.62,3.74,1.62a5.68,5.68,0,0,0,1.66-.27,4.55,4.55,0,0,0,1.62-.89,4.45,4.45,0,0,0,1.19-1.7,6.86,6.86,0,0,0,.46-2.7v-2.7h7.86Z" style="fill:#214f28"/><path d="M127.87,132.12h7.86v23.5h9.71v-23.5h7.86V187h-7.86V162.56h-9.71V187h-7.86Z" style="fill:#214f28"/><path d="M45.7,237.62V225.2h4.08c.68,2.86,1,4.83,1.39,6.68h.08c-.09-1.4-.15-3.58-.15-5.46V225.2h3.24v12.42h-3.9c-.47-2-1.11-5-1.53-7h-.05c.11,1.46.09,3.4.09,5.53v1.48Z" style="fill:#dc2c24"/><path d="M58.83,235.68l-.29,1.94H55.14l2.46-12.42h4.68l2.54,12.42H61.18l-.29-1.94Zm1.57-3.28c-.12-1-.37-2.86-.54-4.18h-.08c-.18,1.48-.36,3-.52,4.18Z" style="fill:#dc2c24"/><path d="M65.49,225.2h4.76c2.13,0,3.55,1.64,3.55,4.14,0,2.84-1.56,4.23-3.65,4.23H68.91v4.05H65.49Zm3.42,5.35h.56c.59,0,.91-.49.91-1.17s-.31-1.17-1-1.17h-.51Z" style="fill:#dc2c24"/><path d="M84,231.44c0,3.6-1.5,6.5-4.77,6.5s-4.66-3.08-4.66-6.52,1.47-6.55,4.8-6.55C82.47,224.87,84,227.93,84,231.44Zm-5.8-.07c0,2.13.23,3.48,1.12,3.48s1.08-1.26,1.08-3.39S80.23,228,79.3,228,78.2,229.16,78.2,231.37Z" style="fill:#dc2c24"/><path d="M85.06,225.2H88.6v9.15h3.8L92,237.62h-7Z" style="fill:#dc2c24"/><path d="M100.28,233H96.57v1.33h4.24l-.37,3.28H93.22V225.2h7.22v3.28H96.57v1.26h3.71Z" style="fill:#dc2c24"/><path d="M110.89,231.44c0,3.6-1.5,6.5-4.77,6.5s-4.66-3.08-4.66-6.52,1.47-6.55,4.8-6.55C109.36,224.87,110.89,227.93,110.89,231.44Zm-5.8-.07c0,2.13.23,3.48,1.12,3.48s1.08-1.26,1.08-3.39-.18-3.49-1.11-3.49S105.08,229.16,105.08,231.37Z" style="fill:#dc2c24"/><path d="M111.95,237.62V225.2H116c.68,2.86,1,4.83,1.39,6.68h.08c-.09-1.4-.15-3.58-.15-5.46V225.2h3.24v12.42h-3.9c-.47-2-1.11-5-1.53-7h-.05c.11,1.46.09,3.4.09,5.53v1.48Z" style="fill:#dc2c24"/><path d="M124.41,225.2h3.53v4.43h1.56V225.2H133v12.42H129.5V232.9h-1.56v4.72h-3.53Z" style="fill:#dc2c24"/><path d="M138,225.2v12.42h-3.53V225.2Z" style="fill:#dc2c24"/><path d="M139.39,225.2h3.53v9.15h3.8l-.37,3.28h-7Z" style="fill:#dc2c24"/><path d="M147.55,225.2h3.53v9.15h3.8l-.37,3.28h-7Z" style="fill:#dc2c24"/><line x1="45.35" y1="27.05" x2="154.98" y2="27.05" style="fill:none;stroke:#214f28;stroke-miterlimit:10;stroke-width:5px"/><line x1="45.35" y1="199.78" x2="154.98" y2="199.78" style="fill:none;stroke:#214f28;stroke-miterlimit:10;stroke-width:5px"/></svg>