<svg id="Layer_1" data-name="Layer 1" xmlns="http://www.w3.org/2000/svg" viewBox="0 0 200 260"><title>book-awaken-giant</title><rect x="0.17" width="199.65" height="260" style="fill:#fff"/><rect x="0.17" y="192" width="199.65" height="68" style="fill:#b88a01"/><rect x="0.17" y="123.82" width="99.83" height="68"/><rect x="100.01" y="123.82" width="99.83" height="68" style="fill:#9e948b"/><path d="M53.72,35.85c0,.34-.1.5-.29.5q-1.24,0-2.81-.11-1.35-.11-2.31-.11t-2.72.11q-1.71.11-2.92.11-.29,0-.29-.5c0-.33.07-.5.22-.5a6.1,6.1,0,0,0,2.3-.42,1.16,1.16,0,0,0,.7-1.1,5.25,5.25,0,0,0-.36-1.5l-2.05-6H35.81l-2.06,5.58a5.69,5.69,0,0,0-.4,1.74q0,1.59,2.92,1.74.22,0,.22.5c0,.33-.1.5-.29.5q-1.08,0-2.39-.11t-2.21-.11q-.77,0-1.94.11t-2.09.11q-.27,0-.27-.45c0-.33.14-.52.41-.54a4.46,4.46,0,0,0,2.37-.83,7.51,7.51,0,0,0,1.81-2.79l8.42-20.68a.48.48,0,0,1,.5-.29q.43,0,.54.27l7.43,20.7a5.51,5.51,0,0,0,1.7,2.57,5.72,5.72,0,0,0,2.87,1Q53.72,35.4,53.72,35.85ZM42.81,25.16,39.65,16l-3.41,9.17Z"/><path d="M86.67,17.16a.48.48,0,0,1-.11.3.29.29,0,0,1-.23.14,2.94,2.94,0,0,0-1.69.67,6.28,6.28,0,0,0-1.36,2.17L76.14,36.53c0,.15-.18.22-.39.22a.44.44,0,0,1-.39-.22l-4-8.36-4.6,8.36a.44.44,0,0,1-.39.22.4.4,0,0,1-.41-.22l-7-16.09a5.64,5.64,0,0,0-1.39-2.1,3.77,3.77,0,0,0-2-.74.28.28,0,0,1-.21-.12.41.41,0,0,1-.1-.27c0-.26.07-.38.22-.38q.94,0,2,.08t1.79.08q.85,0,2-.08t2.16-.08c.15,0,.22.13.22.38s0,.38-.14.38a2.75,2.75,0,0,0-1.48.48,1.28,1.28,0,0,0-.54,1.07,2.17,2.17,0,0,0,.22.84l5.72,13.12,3.36-6.25-3.07-6.42a8.33,8.33,0,0,0-1.36-2.23,2.71,2.71,0,0,0-1.61-.61.25.25,0,0,1-.19-.12.43.43,0,0,1-.09-.27c0-.26.07-.38.2-.38a16.07,16.07,0,0,1,1.72.08A14.69,14.69,0,0,0,68,17q.84,0,1.78-.08t1.9-.08q.22,0,.22.38c0,.26,0,.38-.14.38q-1.87.13-1.88,1.07A3.47,3.47,0,0,0,70.28,20l2,4.12,2-3.77A3.07,3.07,0,0,0,74.74,19q0-1.29-1.88-1.38c-.11,0-.17-.13-.17-.38a.46.46,0,0,1,.08-.26c.06-.08.11-.12.17-.12q.67,0,1.65.08t1.54.08q.43,0,1.27-.07,1.06-.1,1.78-.1c.11,0,.17.11.17.33s-.1.44-.31.44a3.51,3.51,0,0,0-1.76.61,7.76,7.76,0,0,0-1.66,2.24l-2.69,5,3.64,7.42L82,20.33a3.4,3.4,0,0,0,.28-1.27q0-1.38-1.88-1.46c-.11,0-.17-.13-.17-.38s.08-.38.25-.38q.69,0,1.62.08t1.46.08A14.16,14.16,0,0,0,85,16.92a15.13,15.13,0,0,1,1.51-.08C86.6,16.83,86.67,16.94,86.67,17.16Z"/><path d="M104.87,35.92q0,.39-.22.39-1,0-2.19-.08-1.05-.08-1.79-.08t-2.12.08q-1.33.08-2.27.08-.22,0-.22-.38c0-.26.06-.38.17-.38A4.77,4.77,0,0,0,98,35.21a.9.9,0,0,0,.55-.85,4.06,4.06,0,0,0-.28-1.17L96.69,28.5H90.94l-1.6,4.34A4.43,4.43,0,0,0,89,34.19q0,1.24,2.27,1.35c.11,0,.17.13.17.38s-.08.38-.22.38q-.84,0-1.86-.08t-1.72-.08q-.6,0-1.51.08t-1.62.08c-.14,0-.21-.12-.21-.35s.11-.4.32-.42a3.48,3.48,0,0,0,1.84-.64,5.84,5.84,0,0,0,1.41-2.17l6.55-16.09a.37.37,0,0,1,.39-.22c.22,0,.36.07.42.21L101,32.72a4.29,4.29,0,0,0,1.32,2,4.46,4.46,0,0,0,2.23.81Q104.87,35.56,104.87,35.92ZM96.38,27.6l-2.46-7.13L91.28,27.6Z"/><path d="M128.1,35.92q0,.39-.22.39-.94,0-2.24-.08t-2.1-.08q-.83,0-2.28.08t-2.46.08q-.22,0-.22-.39c0-.23.06-.36.2-.38q1.89-.22,1.89-.91a1.68,1.68,0,0,0-.62-1L114.47,28a2.69,2.69,0,0,0-.78-.59,2.35,2.35,0,0,0-.9-.14v5.94a2.77,2.77,0,0,0,.25,1.37,1.64,1.64,0,0,0,.87.63,8.28,8.28,0,0,0,1.79.37c.16,0,.24.14.24.38s-.08.39-.22.39q-.94,0-2.24-.08t-2.11-.08q-.85,0-2.08.08t-2.24.08q-.22,0-.22-.39t.22-.38a5.35,5.35,0,0,0,2.3-.63,2,2,0,0,0,.61-1.74V20a2.81,2.81,0,0,0-.25-1.38,1.63,1.63,0,0,0-.86-.63A8.23,8.23,0,0,0,107,17.6q-.22,0-.22-.38t.22-.38q.94,0,2.24.08t2.08.08q.86,0,2.11-.08t2.24-.08q.22,0,.22.38t-.22.38a8.14,8.14,0,0,0-1.81.37,1.63,1.63,0,0,0-.86.63,2.81,2.81,0,0,0-.25,1.38v6.35a2.31,2.31,0,0,0,.88-.14,2.79,2.79,0,0,0,.8-.59l6.15-6.06q.76-.72.76-1a.61.61,0,0,0-.36-.57,4.93,4.93,0,0,0-1.44-.33q-.22,0-.22-.38t.25-.38q.66,0,1.74.08t1.9.08a16.05,16.05,0,0,0,1.68-.1q.77-.07,1.32-.07c.13,0,.2.13.2.38s-.07.38-.22.38a6.79,6.79,0,0,0-2.11.55,8.09,8.09,0,0,0-1.85,1.41l-6.4,6.08,7.94,8.08A5.74,5.74,0,0,0,125.43,35a8.21,8.21,0,0,0,2.41.58C128,35.56,128.1,35.68,128.1,35.92Z"/><path d="M147.15,31.69a40.56,40.56,0,0,0-1.85,4.62q-5.28-.17-7.52-.17t-7.5.17q-.22,0-.22-.39t.22-.38a8.09,8.09,0,0,0,1.78-.37,1.65,1.65,0,0,0,.86-.62,2.77,2.77,0,0,0,.25-1.37V20a2.93,2.93,0,0,0-.23-1.37,1.6,1.6,0,0,0-.85-.64,7.87,7.87,0,0,0-1.81-.38q-.22,0-.22-.38t.22-.38q3.53.17,7.22.17t7.24-.17a32.28,32.28,0,0,0,.94,4.28c0,.19-.16.28-.49.28a.27.27,0,0,1-.29-.2,4.27,4.27,0,0,0-4.42-3.3h-2.83A1.46,1.46,0,0,0,136,19.58v6.23h3.53a2.31,2.31,0,0,0,1.91-.64,4.84,4.84,0,0,0,.7-2.28q0-.22.38-.22t.38.22q0,.7-.08,1.76t-.08,1.67q0,.66.08,1.68t.08,1.79q0,.22-.38.22t-.38-.22a5.12,5.12,0,0,0-.74-2.39,2.22,2.22,0,0,0-1.87-.69H136v6.89a1.45,1.45,0,0,0,1.62,1.65h3.05a5.93,5.93,0,0,0,3.3-1.08,6.64,6.64,0,0,0,2.41-2.71.23.23,0,0,1,.24-.13.61.61,0,0,1,.35.11A.31.31,0,0,1,147.15,31.69Z"/><path d="M172.6,17.22q0,.35-.22.38a5.69,5.69,0,0,0-2.4.64A2,2,0,0,0,169.3,20L169,36.47q0,.28-.34.28a.82.82,0,0,1-.45-.22L153.77,20.22l-.2,13a1.62,1.62,0,0,0,0,.21,1.66,1.66,0,0,0,.67,1.5,6.1,6.1,0,0,0,2.42.65c.15,0,.22.14.22.38s-.08.39-.22.39q-.73,0-2-.08t-1.83-.08q-.7,0-1.89.08t-1.78.08q-.22,0-.22-.39t.25-.38a5.77,5.77,0,0,0,2.38-.65,2,2,0,0,0,.69-1.72L152.74,20v-.13a1.78,1.78,0,0,0-.66-1.58,6.07,6.07,0,0,0-2.45-.67c-.13,0-.2-.13-.2-.38s.08-.38.22-.38q.49,0,1.37.08t1.18.08a10,10,0,0,0,1.18-.08,10.18,10.18,0,0,1,1.2-.08l13.48,15.08V20a1.92,1.92,0,0,0-.68-1.68,5.8,5.8,0,0,0-2.51-.69q-.22,0-.22-.38t.22-.39q.76,0,2,.08t1.82.08q.7,0,1.89-.08t1.78-.08Q172.6,16.83,172.6,17.22Z"/><path d="M67,64c0,.39-.12.6-.37.63a8.94,8.94,0,0,0-3.85,1.06q-1,.73-1,2.91v2.77a16.09,16.09,0,0,0,.52,5,42.71,42.71,0,0,1-6.75,2,30.58,30.58,0,0,1-6.4.79,20,20,0,0,1-9.41-2.12A15.29,15.29,0,0,1,33.47,71a17.28,17.28,0,0,1-2.26-8.75,16.69,16.69,0,0,1,9.2-15A21.06,21.06,0,0,1,50.17,45a29.28,29.28,0,0,1,5.69.75,25.62,25.62,0,0,0,4.82.66q.31,3.29,1.08,8,0,.38-.75.38-.49,0-.59-.38-2.07-7.9-11-7.9a11.57,11.57,0,0,0-9.28,4.56,17,17,0,0,0-3.75,11.16,16.59,16.59,0,0,0,3.71,10.92,11.35,11.35,0,0,0,9.07,4.5q7.87,0,7.87-3.91V67.54a1.9,1.9,0,0,0-1.25-1.85,25.34,25.34,0,0,0-6-1c-.25,0-.38-.23-.38-.69s.13-.65.38-.65q1.57,0,4.65.12t4.39.12q1.41,0,3.74-.12,2.49-.12,4.07-.12C66.92,63.33,67,63.55,67,64Z"/><path d="M83.3,77.85c0,.34-.1.5-.29.5q-1.21,0-2.86-.11t-2.68-.11q-1.1,0-2.68.11t-2.9.11q-.29,0-.29-.5t.29-.49a6.87,6.87,0,0,0,3-.81,2.6,2.6,0,0,0,.78-2.23v-17a3.61,3.61,0,0,0-.32-1.77,2.11,2.11,0,0,0-1.11-.81,10.48,10.48,0,0,0-2.32-.48q-.29,0-.29-.5t.29-.5q1.22,0,2.9.11t2.68.11q1.1,0,2.68-.11T83,53.32c.19,0,.29.17.29.5s-.1.5-.29.5a10.41,10.41,0,0,0-2.3.48,2.07,2.07,0,0,0-1.1.8,3.69,3.69,0,0,0-.31,1.78v17a3.65,3.65,0,0,0,.31,1.76,2.06,2.06,0,0,0,1.09.81,10.32,10.32,0,0,0,2.3.48C83.2,77.39,83.3,77.55,83.3,77.85Z"/><path d="M113.24,77.85c0,.34-.1.5-.29.5q-1.24,0-2.81-.11-1.35-.11-2.31-.11t-2.72.11q-1.71.11-2.92.11-.29,0-.29-.5c0-.33.07-.5.22-.5a6.1,6.1,0,0,0,2.3-.42,1.16,1.16,0,0,0,.7-1.1,5.25,5.25,0,0,0-.36-1.5l-2.05-6H95.33l-2.06,5.58a5.69,5.69,0,0,0-.4,1.74q0,1.59,2.92,1.74.22,0,.22.5c0,.33-.1.5-.29.5q-1.08,0-2.39-.11t-2.21-.11q-.77,0-1.94.11t-2.09.11q-.27,0-.27-.45c0-.33.14-.52.41-.54a4.46,4.46,0,0,0,2.37-.83,7.51,7.51,0,0,0,1.81-2.79l8.42-20.68a.48.48,0,0,1,.5-.29q.43,0,.54.27l7.43,20.7a5.51,5.51,0,0,0,1.7,2.57,5.72,5.72,0,0,0,2.87,1Q113.24,77.4,113.24,77.85ZM102.32,67.16,99.16,58l-3.41,9.17Z"/><path d="M145.6,53.82c0,.3-.1.46-.29.49a7.29,7.29,0,0,0-3.09.83,2.59,2.59,0,0,0-.87,2.22L141,78.57q0,.36-.43.36a1.06,1.06,0,0,1-.58-.29l-18.56-21-.25,16.65a2.08,2.08,0,0,0,0,.27,2.14,2.14,0,0,0,.86,1.93,7.82,7.82,0,0,0,3.11.84c.19,0,.29.19.29.49s-.1.5-.29.5q-.94,0-2.57-.11t-2.36-.11q-.9,0-2.43.11t-2.29.11c-.19,0-.29-.17-.29-.5s.11-.46.32-.49a7.44,7.44,0,0,0,3.06-.84,2.62,2.62,0,0,0,.88-2.21l.63-17v-.16a2.29,2.29,0,0,0-.85-2,7.79,7.79,0,0,0-3.15-.87q-.25,0-.25-.5t.29-.5q.63,0,1.76.11t1.51.11a12.66,12.66,0,0,0,1.51-.11,13.22,13.22,0,0,1,1.55-.11L139.77,72.7V57.35a2.47,2.47,0,0,0-.87-2.16,7.46,7.46,0,0,0-3.23-.89q-.29,0-.29-.49t.29-.5q1,0,2.59.11t2.34.11q.9,0,2.43-.11t2.29-.11C145.5,53.32,145.6,53.48,145.6,53.82Z"/><path d="M172.72,59.24q0,.34-.65.34a.33.33,0,0,1-.36-.25,6.7,6.7,0,0,0-2.21-3.59,7.2,7.2,0,0,0-4.27-1.05h-1.69a1.87,1.87,0,0,0-1.21.29,1.42,1.42,0,0,0-.32,1.08V74.32a3.56,3.56,0,0,0,.32,1.76,2.11,2.11,0,0,0,1.12.81,10.5,10.5,0,0,0,2.29.48c.19,0,.29.19.29.49s-.1.5-.29.5q-1.21,0-2.88-.11t-2.66-.11q-1.1,0-2.71.11t-2.88.11q-.29,0-.29-.5t.29-.49a6.9,6.9,0,0,0,3-.81,2.6,2.6,0,0,0,.78-2.23V56.05A1.42,1.42,0,0,0,158,55a1.9,1.9,0,0,0-1.22-.29h-1.4A8.56,8.56,0,0,0,150.8,56a6,6,0,0,0-2.7,3.34.38.38,0,0,1-.4.27q-.61,0-.61-.4,1-2.72,1.91-6.16a73.68,73.68,0,0,0,11.21.5q9,0,11.44-.5Q171.9,55.37,172.72,59.24Z"/><path d="M70.77,86.74a.62.62,0,0,1-.14.39.38.38,0,0,1-.3.18,3.78,3.78,0,0,0-2.18.86A8.06,8.06,0,0,0,66.41,91l-9.18,20.68q-.09.29-.5.29a.56.56,0,0,1-.5-.29L51.07,100.9l-5.92,10.74a.56.56,0,0,1-.5.29.51.51,0,0,1-.52-.29L35.11,91a7.25,7.25,0,0,0-1.78-2.7,4.86,4.86,0,0,0-2.61-1,.35.35,0,0,1-.27-.15.52.52,0,0,1-.13-.34q0-.5.29-.5,1.21,0,2.52.11t2.31.11q1.1,0,2.59-.11t2.77-.11c.19,0,.29.17.29.5s-.06.5-.18.5a3.54,3.54,0,0,0-1.9.62,1.64,1.64,0,0,0-.69,1.38,2.81,2.81,0,0,0,.29,1.08L46,107.25l4.32-8L46.34,91a10.75,10.75,0,0,0-1.75-2.87,3.49,3.49,0,0,0-2.07-.79.32.32,0,0,1-.24-.15.54.54,0,0,1-.12-.34q0-.5.25-.5a20.8,20.8,0,0,1,2.21.11,18.72,18.72,0,0,0,2.07.11q1.08,0,2.29-.11t2.45-.11q.29,0,.29.5t-.18.5q-2.41.16-2.41,1.38a4.45,4.45,0,0,0,.56,1.68l2.61,5.29,2.59-4.84a4,4,0,0,0,.54-1.74q0-1.67-2.41-1.77c-.14,0-.22-.17-.22-.5a.59.59,0,0,1,.11-.34c.07-.11.14-.16.22-.16q.86,0,2.12.11t2,.11q.56,0,1.64-.09,1.37-.13,2.29-.13.22,0,.22.42t-.4.57a4.52,4.52,0,0,0-2.26.78A10,10,0,0,0,56.59,91l-3.45,6.4,4.67,9.53,6.92-16.08a4.36,4.36,0,0,0,.36-1.63q0-1.77-2.41-1.88-.22,0-.22-.5t.32-.5q.88,0,2.09.11t1.87.11a18,18,0,0,0,1.83-.11q1.08-.11,1.94-.11Q70.77,86.32,70.77,86.74Z"/><path d="M83,110.92q0,.39-.22.39-.94,0-2.23-.08t-2.09-.08q-.86,0-2.09.08t-2.25.08q-.22,0-.22-.39t.22-.38a5.35,5.35,0,0,0,2.3-.63,2,2,0,0,0,.61-1.74V95a2.81,2.81,0,0,0-.25-1.38,1.63,1.63,0,0,0-.86-.63,8.22,8.22,0,0,0-1.81-.37q-.22,0-.22-.38t.22-.38q1,0,2.25.08t2.09.08q.85,0,2.09-.08t2.23-.08q.22,0,.22.38t-.22.38a8.17,8.17,0,0,0-1.79.37,1.62,1.62,0,0,0-.85.62A2.88,2.88,0,0,0,79.84,95v13.18a2.85,2.85,0,0,0,.24,1.37,1.6,1.6,0,0,0,.85.63,8,8,0,0,0,1.79.37Q83,110.56,83,110.92Z"/><path d="M105.63,96.44q0,.27-.5.27a.26.26,0,0,1-.28-.2,5.22,5.22,0,0,0-1.72-2.79,5.6,5.6,0,0,0-3.32-.82H98.49a1.45,1.45,0,0,0-.94.22,1.1,1.1,0,0,0-.25.84v14.21a2.76,2.76,0,0,0,.25,1.37,1.64,1.64,0,0,0,.87.63,8.28,8.28,0,0,0,1.78.37q.22,0,.22.38t-.22.39q-.94,0-2.24-.08t-2.07-.08q-.86,0-2.11.08t-2.24.08q-.22,0-.22-.39t.22-.38a5.35,5.35,0,0,0,2.3-.63,2,2,0,0,0,.61-1.74V94a1.1,1.1,0,0,0-.25-.84,1.48,1.48,0,0,0-1-.22H92.17a6.65,6.65,0,0,0-3.58,1,4.63,4.63,0,0,0-2.1,2.6.29.29,0,0,1-.31.21q-.48,0-.48-.31.78-2.11,1.48-4.79A57.32,57.32,0,0,0,95.9,92a59.23,59.23,0,0,0,8.9-.39Q105,93.43,105.63,96.44Z"/><path d="M130.2,110.92q0,.39-.22.39-1,0-2.25-.08t-2.09-.08q-.85,0-2,.08t-2.11.08q-.22,0-.22-.39t.24-.38a6.76,6.76,0,0,0,1.75-.39,1.26,1.26,0,0,0,.74-.64,3.92,3.92,0,0,0,.16-1.34v-6.24H113.53v6.24a4,4,0,0,0,.16,1.34,1.26,1.26,0,0,0,.74.64,6.8,6.8,0,0,0,1.76.39q.22,0,.22.38t-.22.39q-.94,0-2.11-.08t-2-.08q-.85,0-2.1.08t-2.24.08q-.22,0-.22-.39t.22-.38a5.35,5.35,0,0,0,2.3-.63,2,2,0,0,0,.61-1.74V95a2.81,2.81,0,0,0-.25-1.38,1.63,1.63,0,0,0-.86-.63,8.23,8.23,0,0,0-1.81-.37q-.22,0-.22-.38t.22-.38q.94,0,2.24.08t2.1.08q.85,0,2-.08t2.11-.08q.22,0,.22.38t-.22.38a7.42,7.42,0,0,0-1.65.34,1.51,1.51,0,0,0-.78.57,3.18,3.18,0,0,0-.22,1.48v6h10.68V95a4,4,0,0,0-.16-1.34,1.26,1.26,0,0,0-.73-.65,6.73,6.73,0,0,0-1.77-.39q-.22,0-.22-.38t.22-.38q.94,0,2.11.08t2,.08q.85,0,2.09-.08t2.25-.08q.22,0,.22.38t-.22.38a8.22,8.22,0,0,0-1.81.37,1.64,1.64,0,0,0-.86.63,2.82,2.82,0,0,0-.24,1.38v13.18a2,2,0,0,0,.61,1.74,5.35,5.35,0,0,0,2.3.63Q130.2,110.56,130.2,110.92Z"/><path d="M142.84,110.92q0,.39-.22.39-.94,0-2.23-.08t-2.09-.08q-.86,0-2.09.08t-2.25.08q-.22,0-.22-.39t.22-.38a5.35,5.35,0,0,0,2.3-.63,2,2,0,0,0,.61-1.74V95a2.81,2.81,0,0,0-.25-1.38,1.63,1.63,0,0,0-.86-.63A8.22,8.22,0,0,0,134,92.6q-.22,0-.22-.38t.22-.38q1,0,2.25.08t2.09.08q.85,0,2.09-.08t2.23-.08q.22,0,.22.38t-.22.38a8.17,8.17,0,0,0-1.79.37,1.62,1.62,0,0,0-.85.62,2.88,2.88,0,0,0-.24,1.39v13.18a2.85,2.85,0,0,0,.24,1.37,1.6,1.6,0,0,0,.85.63,8,8,0,0,0,1.79.37Q142.84,110.56,142.84,110.92Z"/><path d="M169.63,92.22q0,.35-.22.38a5.69,5.69,0,0,0-2.4.64,2,2,0,0,0-.68,1.73l-.31,16.5q0,.28-.34.28a.82.82,0,0,1-.45-.22L150.8,95.22l-.2,13a1.62,1.62,0,0,0,0,.21,1.66,1.66,0,0,0,.67,1.5,6.1,6.1,0,0,0,2.42.65c.15,0,.22.14.22.38s-.08.39-.22.39q-.73,0-2-.08t-1.83-.08q-.7,0-1.89.08t-1.78.08q-.22,0-.22-.39t.25-.38a5.77,5.77,0,0,0,2.38-.65,2,2,0,0,0,.69-1.72L149.76,95v-.13a1.78,1.78,0,0,0-.66-1.58,6.07,6.07,0,0,0-2.45-.67c-.13,0-.2-.13-.2-.38s.08-.38.22-.38q.49,0,1.37.08t1.18.08a10,10,0,0,0,1.18-.08,10.18,10.18,0,0,1,1.2-.08l13.48,15.08V95a1.92,1.92,0,0,0-.68-1.68,5.8,5.8,0,0,0-2.51-.69q-.22,0-.22-.38t.22-.39q.76,0,2,.08t1.82.08q.7,0,1.89-.08t1.78-.08Q169.63,91.83,169.63,92.22Z"/><path d="M81.75,208c0,.13-.12.19-.36.19a.18.18,0,0,1-.2-.14,3.73,3.73,0,0,0-1.23-2,4,4,0,0,0-2.37-.58h-.94a1,1,0,0,0-.67.16.79.79,0,0,0-.18.6v10.15a2,2,0,0,0,.18,1,1.17,1.17,0,0,0,.62.45,5.81,5.81,0,0,0,1.27.27c.11,0,.16.1.16.27s-.05.28-.16.28q-.67,0-1.6-.06t-1.48-.06q-.61,0-1.5.06t-1.6.06c-.11,0-.16-.09-.16-.28s.05-.26.16-.27a3.83,3.83,0,0,0,1.64-.45,1.44,1.44,0,0,0,.44-1.24V206.28a.79.79,0,0,0-.18-.6,1.05,1.05,0,0,0-.68-.16h-.78a4.75,4.75,0,0,0-2.56.71,3.31,3.31,0,0,0-1.5,1.86.21.21,0,0,1-.22.15c-.23,0-.34-.07-.34-.22q.56-1.51,1.06-3.42a41,41,0,0,0,6.22.28,42.38,42.38,0,0,0,6.36-.28Q81.29,205.9,81.75,208Z"/><path d="M98.18,211.79a7,7,0,0,1-2,5.18,8,8,0,0,1-10.66,0,7,7,0,0,1-2-5.18,7.37,7.37,0,1,1,14.73,0Zm-2.2,0A7.73,7.73,0,0,0,94.55,207a4.69,4.69,0,0,0-7.49,0,7.77,7.77,0,0,0-1.42,4.82,7.54,7.54,0,0,0,1.41,4.75,4.79,4.79,0,0,0,7.51,0A7.5,7.5,0,0,0,96,211.79Z"/><path d="M117,205c0,.17-.05.26-.16.27a4.05,4.05,0,0,0-1.71.46,1.44,1.44,0,0,0-.49,1.23l-.22,11.79c0,.13-.08.2-.24.2a.59.59,0,0,1-.32-.16l-10.31-11.65-.14,9.25a1.4,1.4,0,0,0,0,.15,1.19,1.19,0,0,0,.48,1.08,4.35,4.35,0,0,0,1.73.46c.11,0,.16.1.16.27s-.05.28-.16.28q-.52,0-1.43-.06t-1.31-.06q-.5,0-1.35.06t-1.27.06c-.11,0-.16-.09-.16-.28s.06-.26.18-.27a4.14,4.14,0,0,0,1.7-.47,1.45,1.45,0,0,0,.49-1.23l.35-9.42v-.09a1.27,1.27,0,0,0-.47-1.13,4.35,4.35,0,0,0-1.75-.48c-.09,0-.14-.09-.14-.27s.05-.28.16-.28.56,0,1,.06.65.06.84.06a7.06,7.06,0,0,0,.84-.06,7.57,7.57,0,0,1,.86-.06l9.63,10.77V207a1.37,1.37,0,0,0-.49-1.2,4.14,4.14,0,0,0-1.79-.5c-.11,0-.16-.1-.16-.27s.05-.28.16-.28q.54,0,1.44.06t1.3.06q.5,0,1.35-.06t1.27-.06C117,204.76,117,204.85,117,205Z"/><path d="M133.49,205a.29.29,0,0,1-.07.19.2.2,0,0,1-.15.08,3.82,3.82,0,0,0-1.5.41,4.52,4.52,0,0,0-1.19,1.31l-3.74,5.38v4a2.78,2.78,0,0,0,.12,1,.91.91,0,0,0,.53.46,4.91,4.91,0,0,0,1.27.28c.11,0,.16.1.16.27s-.05.28-.16.28q-.67,0-1.51-.06t-1.42-.06q-.6,0-1.48.06t-1.6.06c-.11,0-.16-.09-.16-.28s.05-.26.16-.27a3.83,3.83,0,0,0,1.65-.45,1.44,1.44,0,0,0,.43-1.24v-4L121.35,207a4.42,4.42,0,0,0-1.25-1.31,3.88,3.88,0,0,0-1.45-.4c-.11,0-.16-.09-.16-.27s.05-.28.16-.28q.47,0,1.28.06t1.42.06q.51,0,1.41-.06t1.75-.06c.11,0,.16.09.16.28s-.05.27-.16.27q-1.3.18-1.3.69a2.08,2.08,0,0,0,.41,1l2.89,4.51,3-4.52a1.54,1.54,0,0,0,.32-.82.63.63,0,0,0-.35-.58,3.71,3.71,0,0,0-1.21-.31c-.08,0-.12-.09-.12-.27s.05-.28.16-.28q.59,0,1.44.06c.55,0,1,.06,1.38.06a10.37,10.37,0,0,0,1.08-.06,11,11,0,0,1,1.1-.06C133.44,204.76,133.49,204.85,133.49,205Z"/><path d="M52.41,244.32q0,.39-.22.39-.52,0-1.69-.1-.85-.07-1.13-.07c-.27,0-.7,0-1.27.08s-1,.08-1.27.08l-4.24-6.91A7.23,7.23,0,0,0,41.12,236a4.1,4.1,0,0,0-2.22-.41v6a2.76,2.76,0,0,0,.25,1.37,1.64,1.64,0,0,0,.87.63,8.29,8.29,0,0,0,1.79.37q.24,0,.24.38c0,.26-.08.39-.22.39q-.94,0-2.24-.08t-2.1-.08q-.85,0-2.09.08t-2.23.08q-.22,0-.22-.39t.22-.38a8.09,8.09,0,0,0,1.78-.37,1.65,1.65,0,0,0,.86-.62,2.77,2.77,0,0,0,.25-1.37V228.39a2.93,2.93,0,0,0-.23-1.37,1.6,1.6,0,0,0-.85-.64,7.87,7.87,0,0,0-1.81-.38q-.22,0-.22-.38t.22-.38q.94,0,2.23.08t2.09.08q.85,0,2.1-.08t2.24-.08a7.81,7.81,0,0,1,4.83,1.31,4.36,4.36,0,0,1,1.71,3.67A4.11,4.11,0,0,1,47.22,233a7.24,7.24,0,0,1-3.05,2l4.31,7a3.52,3.52,0,0,0,1.45,1.36,7.1,7.1,0,0,0,2.29.61Q52.41,244,52.41,244.32Zm-7.14-14q0-4.1-3.57-4.1a6.39,6.39,0,0,0-1.79.19,1.27,1.27,0,0,0-.81.6,3.54,3.54,0,0,0-.2,1.43v6.25a15.3,15.3,0,0,0,2,.11,4.42,4.42,0,0,0,3.29-1.07A4.77,4.77,0,0,0,45.27,230.28Z"/><path d="M74,235.08a9.76,9.76,0,0,1-2.86,7.26,10.16,10.16,0,0,1-7.46,2.82,10.13,10.13,0,0,1-7.46-2.82,9.77,9.77,0,0,1-2.85-7.26,9.89,9.89,0,0,1,10.3-10.26A9.89,9.89,0,0,1,74,235.08Zm-3.08,0a10.83,10.83,0,0,0-2-6.75,6.56,6.56,0,0,0-10.49,0,10.88,10.88,0,0,0-2,6.75,10.55,10.55,0,0,0,2,6.64,6.71,6.71,0,0,0,10.51,0A10.5,10.5,0,0,0,70.95,235.08Z"/><path d="M93.66,239a5.31,5.31,0,0,1-1.74,4.15,6.63,6.63,0,0,1-4.61,1.56q-.94,0-2.66-.08t-2.49-.08q-.85,0-2.3.08t-2.44.08q-.22,0-.22-.39t.22-.38a5.35,5.35,0,0,0,2.3-.63,2,2,0,0,0,.61-1.74V228.39A2.81,2.81,0,0,0,80.1,227a1.63,1.63,0,0,0-.86-.63,8.23,8.23,0,0,0-1.81-.37q-.22,0-.22-.38t.22-.38q.94,0,2.3.08t2.15.08q.85,0,2.24-.08t2.41-.08a6.7,6.7,0,0,1,4.22,1.25,4,4,0,0,1,1.61,3.29,3.8,3.8,0,0,1-1.19,2.67,5.72,5.72,0,0,1-2.94,1.63,8.21,8.21,0,0,1,4,1.81A4.05,4.05,0,0,1,93.66,239Zm-4.4-9.23a3.61,3.61,0,0,0-.91-2.72,4,4,0,0,0-2.83-.87H85q-1.76,0-1.76,1.51v6.1h2a4.26,4.26,0,0,0,3.09-.95A4.19,4.19,0,0,0,89.26,229.77ZM90.58,239a4,4,0,0,0-4.33-4.32H83.2v6.9a1.92,1.92,0,0,0,.73,1.75,4.84,4.84,0,0,0,2.49.47,3.8,3.8,0,0,0,3-1.33A5.07,5.07,0,0,0,90.58,239Z"/><path d="M112.95,239a5.31,5.31,0,0,1-1.74,4.15,6.63,6.63,0,0,1-4.61,1.56q-.94,0-2.66-.08t-2.49-.08q-.85,0-2.3.08t-2.44.08q-.22,0-.22-.39t.22-.38a5.35,5.35,0,0,0,2.3-.63,2,2,0,0,0,.61-1.74V228.39a2.81,2.81,0,0,0-.25-1.38,1.63,1.63,0,0,0-.86-.63,8.23,8.23,0,0,0-1.81-.37q-.22,0-.22-.38t.22-.38q.94,0,2.3.08t2.15.08q.85,0,2.24-.08t2.41-.08a6.7,6.7,0,0,1,4.22,1.25,4,4,0,0,1,1.61,3.29,3.8,3.8,0,0,1-1.19,2.67,5.72,5.72,0,0,1-2.94,1.63,8.21,8.21,0,0,1,4,1.81A4.05,4.05,0,0,1,112.95,239Zm-4.4-9.23a3.61,3.61,0,0,0-.91-2.72,4,4,0,0,0-2.83-.87h-.56q-1.76,0-1.76,1.51v6.1h2a4.26,4.26,0,0,0,3.09-.95A4.19,4.19,0,0,0,108.55,229.77Zm1.32,9.24a4,4,0,0,0-4.33-4.32h-3.05v6.9a1.92,1.92,0,0,0,.73,1.75,4.84,4.84,0,0,0,2.49.47,3.8,3.8,0,0,0,3-1.33A5.07,5.07,0,0,0,109.87,239Z"/><path d="M125.73,244.32q0,.39-.22.39-.94,0-2.23-.08t-2.09-.08q-.86,0-2.09.08t-2.25.08q-.22,0-.22-.39t.22-.38a5.35,5.35,0,0,0,2.3-.63,2,2,0,0,0,.61-1.74V228.39a2.81,2.81,0,0,0-.25-1.38,1.63,1.63,0,0,0-.86-.63,8.22,8.22,0,0,0-1.81-.37q-.22,0-.22-.38t.22-.38q1,0,2.25.08t2.09.08q.85,0,2.09-.08t2.23-.08q.22,0,.22.38t-.22.38a8.17,8.17,0,0,0-1.79.37,1.62,1.62,0,0,0-.85.62,2.88,2.88,0,0,0-.24,1.39v13.18a2.85,2.85,0,0,0,.24,1.37,1.6,1.6,0,0,0,.85.63,8,8,0,0,0,1.79.37Q125.73,244,125.73,244.32Z"/><path d="M152.51,225.63q0,.35-.22.38a5.69,5.69,0,0,0-2.4.64,2,2,0,0,0-.68,1.73l-.31,16.5q0,.28-.34.28a.82.82,0,0,1-.45-.22l-14.43-16.31-.2,13a1.62,1.62,0,0,0,0,.21,1.66,1.66,0,0,0,.67,1.5,6.1,6.1,0,0,0,2.42.65c.15,0,.22.14.22.38s-.08.39-.22.39q-.73,0-2-.08t-1.83-.08q-.7,0-1.89.08t-1.78.08q-.22,0-.22-.39t.25-.38a5.77,5.77,0,0,0,2.38-.65,2,2,0,0,0,.69-1.72l.49-13.18v-.13a1.78,1.78,0,0,0-.66-1.58,6.07,6.07,0,0,0-2.45-.67c-.13,0-.2-.13-.2-.38s.08-.38.22-.38q.49,0,1.37.08t1.18.08a10,10,0,0,0,1.18-.08,10.18,10.18,0,0,1,1.2-.08L148,240.32V228.38a1.92,1.92,0,0,0-.68-1.68,5.8,5.8,0,0,0-2.51-.69q-.22,0-.22-.38t.22-.39q.76,0,2,.08t1.82.08q.7,0,1.89-.08t1.78-.08Q152.51,225.24,152.51,225.63Z"/><path d="M166.89,239.09a6,6,0,0,1-1.65,4.43,6.06,6.06,0,0,1-4.47,1.65,12.25,12.25,0,0,1-3-.45,10.56,10.56,0,0,0-2.59-.42q-.08-2.38-.34-4.76,0-.22.42-.22a.33.33,0,0,1,.36.22,7.86,7.86,0,0,0,1.94,3.67,4.75,4.75,0,0,0,3.3,1.06,3.44,3.44,0,0,0,2.62-1,3.83,3.83,0,0,0,.93-2.74,3.23,3.23,0,0,0-.81-2.11,14.19,14.19,0,0,0-3.46-2.51,14.37,14.37,0,0,1-4-3,4.33,4.33,0,0,1-.94-2.7,5.07,5.07,0,0,1,1.69-3.86,6,6,0,0,1,4.28-1.57,11.25,11.25,0,0,1,2.26.27,10.71,10.71,0,0,0,2.06.24q.17,2.46.45,4.34c0,.15-.12.22-.36.22s-.41-.07-.43-.22a6,6,0,0,0-1.4-3,3.55,3.55,0,0,0-2.6-.92,3.19,3.19,0,0,0-3.43,3.42,2.87,2.87,0,0,0,.78,1.9,14.69,14.69,0,0,0,3.38,2.42,15.37,15.37,0,0,1,4,3A4.17,4.17,0,0,1,166.89,239.09Z"/><path d="M95.12,42.5c0,.06-.06.09-.18.09a.09.09,0,0,1-.1-.07,1.87,1.87,0,0,0-.59-1,2,2,0,0,0-1.18-.32H92.6a.51.51,0,0,0-.34.07.39.39,0,0,0-.1.3l-.11,5.07a1,1,0,0,0,.08.49.58.58,0,0,0,.31.23,2.92,2.92,0,0,0,.63.15c.05,0,.08.05.08.14s0,.14-.08.14l-.8,0-.74,0H90c-.05,0-.08,0-.08-.14s0-.13.08-.13a1.92,1.92,0,0,0,.83-.21.72.72,0,0,0,.23-.61l.11-5.07a.39.39,0,0,0-.08-.3.53.53,0,0,0-.34-.09h-.39a2.38,2.38,0,0,0-1.29.33,1.65,1.65,0,0,0-.77.91.1.1,0,0,1-.11.07c-.11,0-.17,0-.17-.11.2-.5.39-1.06.57-1.7a20.56,20.56,0,0,0,3.11.21,21.25,21.25,0,0,0,3.18-.07Q94.91,41.42,95.12,42.5Z"/><path d="M103.79,47.85c0,.09,0,.14-.08.14l-.8,0-.75,0h-1.46c-.05,0-.08,0-.08-.14s0-.13.09-.13a2.41,2.41,0,0,0,.63-.12.45.45,0,0,0,.27-.23,1.41,1.41,0,0,0,.07-.48l0-2.23-3.82-.08,0,2.23a1.4,1.4,0,0,0,0,.48.45.45,0,0,0,.26.24,2.42,2.42,0,0,0,.63.15c.05,0,.08.05.08.14s0,.14-.08.14l-.75,0-.7,0H95.77c-.05,0-.08,0-.08-.14s0-.13.08-.13a1.93,1.93,0,0,0,.83-.21.72.72,0,0,0,.23-.62l.1-4.71a1,1,0,0,0-.08-.49.58.58,0,0,0-.3-.23,2.92,2.92,0,0,0-.64-.15c-.05,0-.08,0-.08-.14s0-.14.08-.13l.8,0,.75,0,.7,0h.76c.05,0,.08,0,.08.14s0,.14-.08.14a2.7,2.7,0,0,0-.59.11.54.54,0,0,0-.28.2A1.12,1.12,0,0,0,98,42l0,2.16,3.82.08,0-2.16a1.43,1.43,0,0,0,0-.48.45.45,0,0,0-.25-.24,2.4,2.4,0,0,0-.63-.15c-.05,0-.08,0-.08-.14s0-.14.08-.14l.75,0,.7,0h1.55c.05,0,.08,0,.08.14s0,.14-.08.14a2.91,2.91,0,0,0-.65.12.58.58,0,0,0-.31.22,1,1,0,0,0-.1.49l-.1,4.71a.72.72,0,0,0,.21.63,1.91,1.91,0,0,0,.82.24C103.76,47.73,103.79,47.77,103.79,47.85Z"/><path d="M110.89,46.49a14.6,14.6,0,0,0-.69,1.63q-1.88-.1-2.68-.12t-2.68,0c-.05,0-.08,0-.08-.14s0-.13.08-.13a2.89,2.89,0,0,0,.64-.12.59.59,0,0,0,.31-.22,1,1,0,0,0,.1-.49l.1-4.71a1,1,0,0,0-.07-.49.57.57,0,0,0-.3-.23,2.79,2.79,0,0,0-.64-.15c-.05,0-.08,0-.08-.14s0-.14.08-.13q1.26.08,2.58.11t2.59,0a11.47,11.47,0,0,0,.3,1.54c0,.07-.06.1-.18.1a.1.1,0,0,1-.1-.07,1.52,1.52,0,0,0-1.55-1.21l-1,0a.52.52,0,0,0-.59.59l0,2.22,1.26,0a.83.83,0,0,0,.69-.21,1.73,1.73,0,0,0,.27-.81c0-.05,0-.08.14-.08s.14,0,.14.08,0,.38,0,.63,0,.44,0,.59,0,.36,0,.6,0,.47,0,.64,0,.08-.14.08-.14,0-.13-.08a1.82,1.82,0,0,0-.25-.86.79.79,0,0,0-.66-.26l-1.26,0-.05,2.46a.52.52,0,0,0,.57.6l1.09,0a2.12,2.12,0,0,0,1.19-.36,2.38,2.38,0,0,0,.88-.95.08.08,0,0,1,.08,0,.22.22,0,0,1,.12,0A.11.11,0,0,1,110.89,46.49Z"/><polygon points="50.09 141.81 51.48 140.09 52.59 142.01 54.24 140.53 55.03 142.6 56.89 141.39 57.35 143.56 59.38 142.66 59.49 144.87 61.64 144.3 61.41 146.5 63.61 146.27 63.04 148.41 65.25 148.53 64.35 150.55 66.52 151.01 65.31 152.87 67.38 153.67 65.9 155.32 67.82 156.43 66.09 157.82 67.82 159.22 65.9 160.32 67.38 161.97 65.31 162.77 66.52 164.63 64.35 165.09 65.25 167.11 63.04 167.23 63.61 169.37 61.41 169.14 61.64 171.34 59.49 170.77 59.38 172.99 57.35 172.08 56.89 174.25 55.03 173.04 54.24 175.12 52.59 173.63 51.48 175.55 50.09 173.83 48.69 175.55 47.58 173.63 45.93 175.12 45.14 173.04 43.28 174.25 42.82 172.08 40.79 172.99 40.68 170.77 38.53 171.34 38.77 169.14 36.56 169.37 37.14 167.23 34.92 167.11 35.82 165.09 33.65 164.63 34.86 162.77 32.79 161.97 34.28 160.32 32.35 159.22 34.08 157.82 32.35 156.43 34.28 155.32 32.79 153.67 34.86 152.87 33.65 151.01 35.82 150.55 34.92 148.53 37.14 148.41 36.56 146.27 38.77 146.5 38.53 144.3 40.68 144.87 40.79 142.66 42.82 143.56 43.28 141.39 45.14 142.6 45.93 140.53 47.58 142.01 48.69 140.09 50.09 141.81" style="fill:#da2721"/><path d="M144.37,165.29h16.47a26.77,26.77,0,0,1,26.77,26.77v0a0,0,0,0,1,0,0h-70a0,0,0,0,1,0,0v0A26.77,26.77,0,0,1,144.37,165.29Z" style="fill:#03080c"/><path d="M122.73,145.41,128,157.88l3,9.49s6.16,6.62,6.39,8.67,3.65,3.2,5.48,2.05-.68,10,.91,10,10.73.23,13.69-8.9,3.65-12.33,2.74-16.66-1.14-8-1.83-12.78-3.42-16.89-10-18.72-16.66-1.37-19.17,2.05S121.59,142.7,122.73,145.41Z" style="fill:#e7b292"/><path d="M122.73,145.41l3.88,9.22s-3.88-8.29-1.29-10.7c7.44.57,14.2-1,19.08-2.29,2.11-.57,7.54,11.88,8,10.11,1.72-6.34,5.59-3.94,5.59-3.94-1.29-7.46-4.41-15.27-9.71-16.74-6.62-1.83-16.66-1.37-19.17,2.05S121.59,142.7,122.73,145.41Z" style="fill:#000200"/></svg>