<svg id="Layer_1" data-name="Layer 1" xmlns="http://www.w3.org/2000/svg" xmlns:xlink="http://www.w3.org/1999/xlink" viewBox="0 0 200 260"><defs><linearGradient id="linear-gradient" x1="100" y1="-0.41" x2="100" y2="255.43" gradientTransform="translate(200 260) rotate(-180)" gradientUnits="userSpaceOnUse"><stop offset="0" stop-color="#e8b157"/><stop offset="0.53" stop-color="#be412d"/><stop offset="0.99" stop-color="#331716"/></linearGradient><linearGradient id="linear-gradient-2" x1="107.43" y1="69.75" x2="97.66" y2="79.52" gradientTransform="matrix(1, 0, 0, 1, 0, 0)" xlink:href="#linear-gradient"/></defs><title>book-martian</title><rect x="0.17" width="199.65" height="260" transform="translate(200 260) rotate(180)" style="fill:url(#linear-gradient)"/><path d="M23.08,122.73v1.46H17.33v11.51H15.88V124.19H10.11v-1.46Z" style="fill:#f3fbf0"/><path d="M41.33,122.73v13H39.85v-5.74H29.5v5.74H28v-13H29.5v5.74H39.85v-5.74Z" style="fill:#f3fbf0"/><path d="M58.81,124.19H48.44v4.29h8.34v1.48H48.44v4.29H58.81v1.46H47v-13H58.81Z" style="fill:#f3fbf0"/><path d="M85.59,122.73h2v13H86.13V124.39l-5.92,7-5.92-7v11.31H72.83v-13h2l5.38,6.41Z" style="fill:#f3fbf0"/><path d="M104,122.73a2.14,2.14,0,0,1,2.16,2.16v10.8h-1.46V131h-10v4.74H93.17v-10.8a2.14,2.14,0,0,1,2.16-2.16Zm.7,6.77v-4.61a.72.72,0,0,0-.7-.7H95.33a.72.72,0,0,0-.7.7v4.61Z" style="fill:#f3fbf0"/><path d="M124.72,128.71a2.16,2.16,0,0,1-2.16,2.16h-2l4.07,4.83h-1.93l-4.05-4.83h-4.75a6.17,6.17,0,0,1-.7-.07v4.9h-1.46V122.75h10.8a2.16,2.16,0,0,1,2.16,2.16Zm-2.16.68a.68.68,0,0,0,.68-.68v-3.8a.7.7,0,0,0-.68-.7h-8.64a.72.72,0,0,0-.7.7v3.8a.7.7,0,0,0,.7.68Z" style="fill:#f3fbf0"/><path d="M142.54,122.73v1.46H136.8v11.51h-1.46V124.19h-5.76v-1.46Z" style="fill:#f3fbf0"/><path d="M147.51,122.73H149v13h-1.46Z" style="fill:#f3fbf0"/><path d="M165.89,122.73a2.14,2.14,0,0,1,2.16,2.16v10.8h-1.46V131h-10v4.74h-1.46v-10.8a2.14,2.14,0,0,1,2.16-2.16Zm.7,6.77v-4.61a.72.72,0,0,0-.7-.7h-8.64a.72.72,0,0,0-.7.7v4.61Z" style="fill:#f3fbf0"/><path d="M185.2,122.73h1.46v13h-2l-9.51-11.31v11.31H173.7v-13h2L185.2,134Z" style="fill:#f3fbf0"/><g style="opacity:0.5"><path d="M73.94,159.07a1,1,0,0,1,1,1v4.8h-.65v-2.1H69.79v2.1h-.65V160a1,1,0,0,1,1-1Zm.31,3v-2a.32.32,0,0,0-.31-.31H70.1a.32.32,0,0,0-.31.31v2Z" style="fill:#f3fbf0"/><path d="M82,159.07h.65v5.76h-.89l-4.22-5v5h-.65v-5.76h.89l4.22,5Z" style="fill:#f3fbf0"/><path d="M89.53,159.07a1,1,0,0,1,1,1v3.84a1,1,0,0,1-1,1h-4.8v-5.76Zm.31,1a.32.32,0,0,0-.31-.31H85.69a.32.32,0,0,0-.31.31v3.84a.32.32,0,0,0,.31.31h3.84a.32.32,0,0,0,.31-.31Z" style="fill:#f3fbf0"/><path d="M98.13,159.07l-2.65,3.59v2.17h-.65v-2.17c-.86-1.17-1.77-2.41-2.65-3.59h.74l2.23,2.81,2.21-2.81Z" style="fill:#f3fbf0"/><path d="M112.1,159.07,110,164.83h-.57l-1.79-4.92-1.79,4.92h-.56l-2.09-5.76h.69l1.69,4.62,1.68-4.62H108l1.69,4.62c.5-1.42,1.16-3.19,1.67-4.62Z" style="fill:#f3fbf0"/><path d="M119.19,159.72h-4.61v1.9h3.7v.66h-3.7v1.9h4.61v.65h-5.25v-5.76h5.25Z" style="fill:#f3fbf0"/><path d="M121.18,159.07h.65v5.76h-.65Z" style="fill:#f3fbf0"/><path d="M129.8,161.72a1,1,0,0,1-1,1H128l1.81,2.14h-.86l-1.8-2.14H125l-.31,0v2.17H124v-5.75h4.8a1,1,0,0,1,1,1Zm-1,.3a.3.3,0,0,0,.3-.3V160a.31.31,0,0,0-.3-.31H125a.32.32,0,0,0-.31.31v1.69a.31.31,0,0,0,.31.3Z" style="fill:#f3fbf0"/></g><g style="opacity:0.7000000000000001"><path d="M100,60.58h0a16.59,16.59,0,0,1,16.59,16.59V92.33a4,4,0,0,1-4,4H87.41a4,4,0,0,1-4-4V77.17A16.59,16.59,0,0,1,100,60.58Z" style="fill:#f3fbf0"/><circle cx="99" cy="79.17" r="14.02" style="fill:#d3d6d2"/><circle cx="100" cy="77.17" r="14.02" style="fill:url(#linear-gradient-2)"/></g></svg>