<svg id="Layer_1" data-name="Layer 1" xmlns="http://www.w3.org/2000/svg" xmlns:xlink="http://www.w3.org/1999/xlink" viewBox="0 0 200 260"><defs><linearGradient id="linear-gradient" x1="94.14" y1="139.95" x2="94.14" y2="59.13" gradientUnits="userSpaceOnUse"><stop offset="0" stop-color="#fff"/><stop offset="0.47" stop-color="#636363"/><stop offset="0.94" stop-color="#a9a9a9"/><stop offset="0.99" stop-color="#eaeaea"/></linearGradient><linearGradient id="linear-gradient-2" x1="52.93" y1="128.48" x2="52.93" y2="136.28" xlink:href="#linear-gradient"/></defs><title>book-thinking-fast-slow</title><rect x="0.17" width="199.65" height="260" style="fill:#fefdf9"/><path d="M43,62.48C43,64,43,65.3,43.1,66c0,.47.14.82.63.88a7,7,0,0,0,.72.06c.1,0,.13,0,.13.1s-.08.13-.26.13c-.88,0-1.9,0-2,0s-1.09,0-1.58,0c-.18,0-.26,0-.26-.13s0-.1.13-.1a2.48,2.48,0,0,0,.48-.06c.32-.06.4-.42.47-.88.08-.68.08-1.95.08-3.49v-6.8l-2.38,0c-1,0-1.38.13-1.64.51a2.79,2.79,0,0,0-.27.5c0,.13-.1.16-.16.16s-.08,0-.08-.14.32-1.54.35-1.67.1-.31.16-.31a3,3,0,0,0,.71.19c.47,0,1.08.08,1.27.08h6A6.47,6.47,0,0,0,46.8,55c.24,0,.39-.08.45-.08s.08.1.08.19c0,.48,0,1.59,0,1.77s0,.21-.11.21-.11,0-.13-.27c0-.06,0-.11,0-.18,0-.48-.43-.85-2-.88l-2,0Z"/><path d="M62.19,60.09a.08.08,0,0,0,.1-.1v-.34c0-2.51,0-3,0-3.47s-.16-.8-.69-.92a3,3,0,0,0-.55,0c-.06,0-.13,0-.13-.1S61,55,61.15,55c.72,0,1.74,0,1.82,0s1.09,0,1.58,0c.18,0,.26,0,.26.13s-.06.1-.13.1a2.36,2.36,0,0,0-.4,0c-.43.08-.56.35-.59.92s0,1,0,3.47v2.83c0,1.54,0,2.81.08,3.49,0,.47.14.82.63.88a7,7,0,0,0,.72.06c.1,0,.13,0,.13.1s-.08.13-.26.13c-.88,0-1.9,0-2,0s-1.09,0-1.58,0c-.18,0-.26,0-.26-.13s0-.1.13-.1a2.48,2.48,0,0,0,.48-.06c.32-.06.4-.42.47-.88.08-.68.08-1.95.08-3.49V60.79a.09.09,0,0,0-.1-.1H55.38a.08.08,0,0,0-.1.1v1.69c0,1.54,0,2.81.08,3.49,0,.47.14.82.63.88a7,7,0,0,0,.72.06c.1,0,.13,0,.13.1s-.08.13-.26.13c-.88,0-1.9,0-2,0s-1.09,0-1.58,0c-.18,0-.26,0-.26-.13s0-.1.13-.1a2.49,2.49,0,0,0,.48-.06c.32-.06.4-.42.47-.88.08-.68.08-1.95.08-3.49V59.65c0-2.51,0-3,0-3.47s-.16-.8-.69-.92a3,3,0,0,0-.55,0c-.06,0-.13,0-.13-.1s.08-.13.26-.13c.72,0,1.74,0,1.82,0s1.09,0,1.58,0c.18,0,.26,0,.26.13s-.06.1-.13.1a2.38,2.38,0,0,0-.4,0c-.43.08-.56.35-.59.92s0,1,0,3.47V60a.08.08,0,0,0,.1.1Z"/><path d="M72.56,59.65c0-2.51,0-3,0-3.47s-.19-.82-.55-.9a2.13,2.13,0,0,0-.5-.06c-.06,0-.13,0-.13-.1s.08-.13.26-.13c.53,0,1.54,0,1.62,0s1.09,0,1.58,0c.18,0,.26,0,.26.13s-.06.1-.13.1a2.38,2.38,0,0,0-.4,0c-.43.08-.56.35-.59.92s0,1,0,3.47v2.83c0,1.54,0,2.81.08,3.49,0,.47.14.82.63.88.23,0,.56.06.66.06s.19,0,.19.1-.06.13-.24.13c-.88,0-1.91,0-2,0s-1.09,0-1.58,0c-.18,0-.26,0-.26-.13s0-.1.18-.1a2.22,2.22,0,0,0,.42,0c.32-.06.42-.43.48-.9.08-.68.08-1.95.08-3.49Z"/><path d="M82.32,62.4c0-5.81,0-3.71,0-6.83,0-.63,0-.8.18-.8s.4.35.56.51,2.64,2.86,5.11,5.52c1.59,1.71,3.35,3.67,3.86,4.2l-.18-8.17c0-1-.13-1.4-.63-1.53a3.33,3.33,0,0,0-.69-.08c-.18,0-.23,0-.23-.11s.13-.11.32-.11c.72,0,1.5,0,1.67,0s.71,0,1.37,0c.18,0,.29,0,.29.11s-.06.1-.18.11l-.42.06c-.45.1-.56.34-.56,1.45l0,9.39c0,1.06,0,1.14-.14,1.14s-.32-.18-1.17-1c-.18-.16-2.49-2.53-4.2-4.36-1.87-2-3.68-4-4.2-4.62l.21,7.7c0,1.32.19,1.74.63,1.87a3.55,3.55,0,0,0,.8.1c.08,0,.13,0,.13.1s-.1.13-.29.13c-.92,0-1.56,0-1.71,0s-.82,0-1.54,0c-.16,0-.26,0-.26-.13s0-.1.13-.1a2.32,2.32,0,0,0,.66-.1c.4-.11.48-.58.48-2Z"/><path d="M102.59,60.68c.5-.48,2.69-2.78,3.67-3.8s1-1.16,1-1.35a.33.33,0,0,0-.21-.31c-.11,0-.14-.08-.14-.14s.1-.1.24-.1c.47,0,.42,0,1,0s1.45,0,1.7,0,.27,0,.27.11,0,.1-.18.11a2.93,2.93,0,0,0-.82.19,5,5,0,0,0-1.67,1.29c-1.42,1.37-3.25,3.18-3.67,3.65,1,1.11,3.94,4.08,4.7,4.79,1.32,1.24,1.88,1.59,2.65,1.74a2.18,2.18,0,0,0,.47,0c.13,0,.23,0,.23.11s-.06.11-.24.11h-1.19a3.17,3.17,0,0,1-2.52-.77,61.26,61.26,0,0,1-5.28-5.55v1.66c0,1.54,0,2.81.08,3.49,0,.47.15.82.63.88l.64.06c.15,0,.19.06.19.11s-.06.11-.24.11c-.88,0-1.9,0-2,0s-1,0-1.51,0c-.18,0-.26,0-.26-.11s0-.11.18-.11a2.22,2.22,0,0,0,.42,0c.32-.06.42-.43.48-.9.08-.68.08-1.95.08-3.49V59.65c0-2.51,0-3,0-3.47s-.19-.82-.55-.9a2.78,2.78,0,0,0-.58-.06c-.13,0-.18,0-.18-.1s.08-.13.26-.13c.53,0,1.61,0,1.69,0s1.09,0,1.58,0c.18,0,.26,0,.26.11s0,.1-.18.11l-.35,0c-.43,0-.56.37-.59.93s0,1,0,3.47Z"/><path d="M117,59.65c0-2.51,0-3,0-3.47s-.19-.82-.55-.9a2.13,2.13,0,0,0-.5-.06c-.06,0-.13,0-.13-.1s.08-.13.26-.13c.53,0,1.54,0,1.62,0s1.09,0,1.58,0c.18,0,.26,0,.26.13s-.06.1-.13.1a2.38,2.38,0,0,0-.4,0c-.43.08-.56.35-.59.92s0,1,0,3.47v2.83c0,1.54,0,2.81.08,3.49,0,.47.14.82.63.88.23,0,.56.06.66.06s.19,0,.19.1-.06.13-.24.13c-.88,0-1.91,0-2,0s-1.09,0-1.58,0c-.18,0-.26,0-.26-.13s0-.1.18-.1a2.22,2.22,0,0,0,.42,0c.32-.06.42-.43.48-.9.08-.68.08-1.95.08-3.49Z"/><path d="M126.73,62.4c0-5.81,0-3.71,0-6.83,0-.63,0-.8.18-.8s.4.35.56.51,2.64,2.86,5.11,5.52c1.59,1.71,3.35,3.67,3.86,4.2l-.18-8.17c0-1-.13-1.4-.63-1.53a3.33,3.33,0,0,0-.69-.08c-.18,0-.23,0-.23-.11s.13-.11.32-.11c.72,0,1.5,0,1.67,0s.71,0,1.37,0c.18,0,.29,0,.29.11s-.06.1-.18.11l-.42.06c-.45.1-.56.34-.56,1.45l0,9.39c0,1.06,0,1.14-.14,1.14s-.32-.18-1.17-1c-.18-.16-2.49-2.53-4.2-4.36-1.87-2-3.68-4-4.2-4.62l.21,7.7c0,1.32.19,1.74.63,1.87a3.55,3.55,0,0,0,.8.1c.08,0,.13,0,.13.1s-.1.13-.29.13c-.92,0-1.56,0-1.71,0s-.82,0-1.54,0c-.16,0-.26,0-.26-.13s0-.1.13-.1a2.32,2.32,0,0,0,.66-.1c.4-.11.48-.58.48-2Z"/><path d="M154.7,65.78c0,.72,0,.76-.21.87a8.76,8.76,0,0,1-8.7-1,6.28,6.28,0,0,1-1.91-4.58,6.1,6.1,0,0,1,2.69-5.29,7.9,7.9,0,0,1,4.28-1,13.86,13.86,0,0,1,2.46.27,7.89,7.89,0,0,0,1.3.16c.16,0,.19.08.19.14a20.43,20.43,0,0,0-.11,2.28c0,.26,0,.34-.14.34s-.1-.1-.11-.24a2.48,2.48,0,0,0-.34-1.06c-.4-.61-1.71-1.3-3.78-1.3a4.59,4.59,0,0,0-5,5.15A6.56,6.56,0,0,0,147,65a5.86,5.86,0,0,0,4.21,1.72,4.39,4.39,0,0,0,1.83-.34.58.58,0,0,0,.32-.56V63c0-1.3-.08-1.48-.72-1.66a3,3,0,0,0-.55,0c-.06,0-.13,0-.13-.1s.08-.13.26-.13c.72,0,1.74,0,1.82,0s1.09,0,1.58,0c.18,0,.26,0,.26.13s-.06.1-.13.1a2.39,2.39,0,0,0-.4,0c-.43.08-.56.35-.6.92s0,1,0,1.67Z"/><path d="M161.51,65.28c.26,0,.58.48.58,1.11a3.73,3.73,0,0,1-1.25,2.32c-.18.19-.35.34-.43.34s.06-.32.11-.39a2.38,2.38,0,0,0,.63-1.45,1.15,1.15,0,0,0-.45-.8.32.32,0,0,1-.13-.19A1.16,1.16,0,0,1,161.51,65.28Z"/><path d="M33.3,91.65c0-2.51,0-3,0-3.47s-.16-.8-.69-.92l-.4,0c-.15,0-.27,0-.27-.11S32,87,32.16,87c.63,0,1.24,0,1.82,0,.32,0,3.59,0,4,0a2.18,2.18,0,0,0,.79-.1.37.37,0,0,1,.15-.06c.06,0,.1.06.1.14s-.06.31-.1.5c-.06.47-.06.72-.1,1.17,0,.19-.08.32-.14.32s-.1-.06-.11-.21a1.23,1.23,0,0,0-.31-.8,1.5,1.5,0,0,0-.95-.31l-2.46,0c-.1,0-.14,0-.14.18v4.44c0,.1,0,.15.11.15.66,0,1.58,0,2.24,0,.85,0,1.06,0,1.29-.31.08-.1.11-.16.18-.16s.08,0,.08.13-.08.37-.13.9,0,.87-.06,1.11,0,.27-.11.27-.11-.11-.13-.27a1,1,0,0,0-.92-1c-.4,0-2.16,0-2.43,0-.08,0-.11,0-.11.15v1.37c0,1.37,0,2.51,0,3.25s.23,1.08.66,1.13c.21,0,.48,0,.66.06s.19,0,.19.11-.08.11-.26.11c-.9,0-1.9,0-2,0h-.14c-.32,0-1,0-1.43,0-.18,0-.26,0-.26-.13s0-.08.18-.1a2.59,2.59,0,0,0,.42-.06c.34-.1.45-.34.5-1s.06-1.82.06-3.33Z"/><path d="M46.3,94.4a.17.17,0,0,0-.16.13l-1,2.85A3.4,3.4,0,0,0,45,98.46c0,.32.31.47.58.47h.15c.16,0,.21,0,.21.1s-.14.13-.29.13c-.39,0-1,0-1.21,0s-1.06,0-1.82,0c-.21,0-.31,0-.31-.13s.08-.1.23-.1l.39,0c.74-.1,1.06-.71,1.35-1.51l3.65-10c.19-.53.26-.63.35-.63s.16.08.35.58,2.77,7.25,3.75,9.7c.58,1.43,1,1.69,1.38,1.79a2.13,2.13,0,0,0,.63.1c.1,0,.18,0,.18.1s-.15.13-.32.13-1.42,0-2.52,0c-.31,0-.48,0-.48-.11s0-.1.11-.11.19-.18.1-.43l-1.5-4a.14.14,0,0,0-.14-.1Zm3.25-.58c.08,0,.08,0,.06-.11l-1.53-4.34c-.08-.24-.16-.24-.24,0l-1.42,4.34c0,.08,0,.11,0,.11Z"/><path d="M59.38,98.94c-.22-.11-.24-.18-.24-.61,0-.8.06-1.45.08-1.7s0-.26.13-.26.11,0,.11.18a2.86,2.86,0,0,0,0,.6,2.19,2.19,0,0,0,2.38,1.64,2.15,2.15,0,0,0,2.3-2.14c0-1.11-.47-1.75-1.85-2.89l-.72-.59c-1.71-1.4-2.09-2.4-2.09-3.49,0-1.72,1.29-2.9,3.33-2.9a6.22,6.22,0,0,1,1.5.16,2.62,2.62,0,0,0,.56.08c.13,0,.16,0,.16.11s-.06.61-.06,1.7c0,.26,0,.37-.11.37s-.11-.08-.13-.21a2.81,2.81,0,0,0-.21-.8c-.1-.18-.53-.85-2-.85a1.83,1.83,0,0,0-2,1.87c0,.92.42,1.5,2,2.7l.45.35c1.9,1.5,2.35,2.49,2.35,3.78A3.33,3.33,0,0,1,64,98.7a4.23,4.23,0,0,1-2.43.68A4.87,4.87,0,0,1,59.38,98.94Z"/><path d="M76.07,94.48c0,1.54,0,2.81.08,3.49,0,.47.14.82.63.88a7,7,0,0,0,.72.06c.1,0,.13,0,.13.1s-.08.13-.26.13c-.88,0-1.9,0-2,0s-1.09,0-1.58,0c-.18,0-.26,0-.26-.13s0-.1.13-.1a2.48,2.48,0,0,0,.48-.06c.32-.06.4-.42.47-.88.08-.68.08-1.95.08-3.49v-6.8l-2.38,0c-1,0-1.38.13-1.64.51a2.79,2.79,0,0,0-.27.5c0,.13-.1.16-.16.16s-.08,0-.08-.14.32-1.54.35-1.67.1-.31.16-.31a3,3,0,0,0,.71.19c.47,0,1.08.08,1.27.08h6A6.47,6.47,0,0,0,79.84,87c.24,0,.39-.08.45-.08s.08.1.08.19c0,.48,0,1.59,0,1.77s0,.21-.11.21-.11,0-.13-.27c0-.06,0-.11,0-.18,0-.48-.43-.85-2-.88l-2,0Z"/><path d="M87,97.22a.07.07,0,0,0-.06.05l-.39,1.14a1.37,1.37,0,0,0-.09.43c0,.13.12.19.23.19h.06c.06,0,.08,0,.08,0s-.06.05-.12.05l-.48,0-.73,0c-.08,0-.12,0-.12-.05s0,0,.09,0h.16c.3,0,.42-.28.54-.61l1.46-4c.08-.21.1-.25.14-.25s.06,0,.14.23,1.11,2.9,1.5,3.88c.23.57.42.68.55.71a.84.84,0,0,0,.25,0s.07,0,.07,0-.06.05-.13.05h-1c-.12,0-.19,0-.19,0s0,0,0,0,.08-.07,0-.17l-.6-1.58a.06.06,0,0,0-.06,0ZM88.3,97s0,0,0,0l-.61-1.74q0-.15-.1,0l-.57,1.74s0,0,0,0Z"/><path d="M92.22,97.22c0-2.33,0-1.49,0-2.74,0-.25,0-.32.07-.32s.16.14.23.21l2,2.21c.64.68,1.34,1.47,1.54,1.68L96,95c0-.42-.05-.56-.25-.61a1.37,1.37,0,0,0-.28,0c-.07,0-.09,0-.09,0s.05,0,.13,0l.67,0,.55,0c.07,0,.12,0,.12,0s0,0-.07,0l-.17,0c-.18,0-.23.13-.23.58v3.76c0,.42,0,.46-.06.46s-.13-.07-.47-.41c-.07-.06-1-1-1.68-1.75s-1.47-1.62-1.68-1.85l.08,3.08c0,.53.08.7.25.75a1.4,1.4,0,0,0,.32,0s.05,0,.05,0,0,.05-.12.05c-.37,0-.62,0-.68,0l-.62,0c-.06,0-.1,0-.1-.05s0,0,.05,0A.92.92,0,0,0,92,99c.16,0,.19-.23.19-.82Z"/><path d="M99.82,96.12c0-1,0-1.18,0-1.39s0-.32-.26-.37l-.22,0s-.07,0-.07,0,0-.05.1-.05l.73,0,.87,0a3.41,3.41,0,0,1,2.58.73,2.3,2.3,0,0,1,.62,1.63,2.63,2.63,0,0,1-.7,1.82,2.56,2.56,0,0,1-2,.74c-.28,0-.62,0-.89,0l-.53,0h-.63c-.07,0-.1,0-.1-.05s0,0,.06,0l.18,0c.13,0,.16-.17.19-.35s0-.78,0-1.4Zm.54.7c0,.68,0,1.28,0,1.4a1.41,1.41,0,0,0,.07.49c.08.12.33.26,1.09.26a2.16,2.16,0,0,0,1.53-.6,2.26,2.26,0,0,0,.51-1.54A2.31,2.31,0,0,0,103,95.2a2.65,2.65,0,0,0-2.11-.73,1.74,1.74,0,0,0-.42,0,.12.12,0,0,0-.08.13c0,.22,0,.88,0,1.37Z"/><path d="M111.07,98.94c-.22-.11-.24-.18-.24-.61,0-.8.06-1.45.08-1.7s0-.26.13-.26.11,0,.11.18a2.86,2.86,0,0,0,0,.6,2.19,2.19,0,0,0,2.38,1.64,2.15,2.15,0,0,0,2.3-2.14c0-1.11-.47-1.75-1.85-2.89l-.72-.59c-1.71-1.4-2.09-2.4-2.09-3.49,0-1.72,1.29-2.9,3.33-2.9a6.22,6.22,0,0,1,1.5.16,2.62,2.62,0,0,0,.56.08c.13,0,.16,0,.16.11s-.06.61-.06,1.7c0,.26,0,.37-.11.37s-.11-.08-.13-.21a2.81,2.81,0,0,0-.21-.8c-.1-.18-.53-.85-2-.85a1.83,1.83,0,0,0-2,1.87c0,.92.42,1.5,2,2.7l.45.35c1.9,1.5,2.35,2.49,2.35,3.78a3.33,3.33,0,0,1-1.37,2.67,4.23,4.23,0,0,1-2.43.68A4.87,4.87,0,0,1,111.07,98.94Z"/><path d="M125.56,94.51c0,2.36.06,3.39.35,3.68s.68.37,1.93.37c.85,0,1.56,0,1.95-.48a2.23,2.23,0,0,0,.42-1c0-.13,0-.21.15-.21s.1.06.1.24a10.23,10.23,0,0,1-.24,1.61c-.11.37-.16.43-1,.43-1.38,0-2.75-.1-4.31-.1-.5,0-1,0-1.58,0-.18,0-.26,0-.26-.13s0-.1.13-.1a2.47,2.47,0,0,0,.48-.06c.32-.06.4-.42.47-.88.08-.68.08-1.95.08-3.49V91.65c0-2.51,0-3,0-3.47s-.16-.8-.69-.92a3,3,0,0,0-.55,0c-.06,0-.13,0-.13-.1s.08-.13.26-.13c.72,0,1.74,0,1.82,0s1.25,0,1.74,0c.18,0,.26,0,.26.13s-.06.1-.13.1a3.76,3.76,0,0,0-.53,0c-.47.08-.59.35-.63.92s0,1,0,3.47Z"/><path d="M135,93.05a6.23,6.23,0,0,1,6.34-6.29c3.62,0,6.32,2.28,6.32,6a6.31,6.31,0,0,1-6.42,6.58A6,6,0,0,1,135,93.05Zm11.11.19c0-3.86-2.35-5.93-4.89-5.93s-4.7,1.77-4.7,5.29c0,3.75,2.25,6.16,5.15,6.16C143.13,98.76,146.12,97.92,146.12,93.24Z"/><path d="M153.5,88.56c-.26-.85-.47-1.09-.88-1.25a2.64,2.64,0,0,0-.72-.1c-.08,0-.14,0-.14-.11s.1-.11.26-.11c.84,0,1.72,0,1.9,0s.85,0,1.66,0c.23,0,.29,0,.29.11s-.08.11-.16.11a1.59,1.59,0,0,0-.63.1.42.42,0,0,0-.21.39,12.72,12.72,0,0,0,.31,1.48c.24,1,1.91,6.93,2.17,7.83l3.43-9.22c.24-.66.31-.74.4-.74s.21.21.4.76L164.79,97c.47-1.58,1.95-6.24,2.51-8.3a3.58,3.58,0,0,0,.18-1c0-.29-.18-.48-.92-.48a.13.13,0,0,1-.15-.11c0-.08.08-.11.27-.11.82,0,1.5,0,1.64,0s.8,0,1.3,0c.14,0,.23,0,.23.1s0,.13-.15.13a2.09,2.09,0,0,0-.55.08c-.48.18-.74.85-1,1.74-.71,2-2.33,7.16-3,9-.42,1.19-.5,1.38-.68,1.38s-.26-.21-.48-.84l-3.17-9c-.6,1.59-2.8,7.48-3.38,9-.26.68-.37.85-.53.85s-.24-.18-.56-1.27Z"/><path d="M61.27,172.62c0-2.51,0-3,0-3.47s-.11-.8-.64-.92a3,3,0,0,0-.55,0c-.11,0-.18,0-.18-.1s.08-.13.26-.13c.72,0,1.74,0,1.82,0s1.21,0,2.17,0c1.59,0,4.54-.14,6.45,1.83a5.75,5.75,0,0,1,1.56,4.09,6.58,6.58,0,0,1-1.74,4.54,6.39,6.39,0,0,1-4.87,1.85c-.69,0-1.54,0-2.24-.1l-1.33-.1-.64,0c-.32,0-.69,0-.93,0s-.26,0-.26-.13,0-.1.16-.1a3.45,3.45,0,0,0,.45-.06c.32-.06.4-.42.47-.88.08-.68.08-1.95.08-3.49Zm1.35,1.74c0,1.7,0,3.18,0,3.49a3.5,3.5,0,0,0,.18,1.22c.21.31.84.64,2.73.64a5.4,5.4,0,0,0,3.83-1.5,5.63,5.63,0,0,0,1.29-3.84,5.75,5.75,0,0,0-1.54-4.05c-1.51-1.59-3.35-1.82-5.26-1.82a4.29,4.29,0,0,0-1,.11.29.29,0,0,0-.19.32c0,.55,0,2.19,0,3.42Z"/><path d="M80,175.37a.17.17,0,0,0-.16.13l-1,2.85a3.4,3.4,0,0,0-.22,1.08c0,.32.31.47.58.47h.15c.16,0,.21,0,.21.1s-.14.13-.29.13c-.39,0-1,0-1.21,0s-1.06,0-1.82,0c-.21,0-.31,0-.31-.13s.08-.1.23-.1l.39,0c.74-.1,1.06-.71,1.35-1.51l3.65-10c.19-.53.26-.63.35-.63s.16.08.35.58S85,175.57,86,178c.58,1.43,1,1.69,1.38,1.79a2.13,2.13,0,0,0,.63.1c.1,0,.18,0,.18.1s-.15.13-.32.13-1.42,0-2.52,0c-.31,0-.48,0-.48-.11s0-.1.11-.11.19-.18.1-.43l-1.5-4a.14.14,0,0,0-.14-.1Zm3.25-.58c.08,0,.08,0,.06-.11l-1.53-4.34c-.08-.24-.16-.24-.24,0l-1.42,4.34c0,.08,0,.11,0,.11Z"/><path d="M93,175.37c0-5.81,0-3.71,0-6.83,0-.63,0-.8.18-.8s.4.35.56.51,2.64,2.86,5.11,5.52c1.59,1.71,3.35,3.67,3.86,4.2l-.18-8.17c0-1-.13-1.4-.63-1.53a3.33,3.33,0,0,0-.69-.08c-.18,0-.23,0-.23-.11s.13-.11.32-.11c.72,0,1.5,0,1.67,0s.71,0,1.37,0c.18,0,.29,0,.29.11s-.06.1-.18.11l-.42.06c-.45.1-.56.34-.56,1.45l0,9.39c0,1.06,0,1.14-.14,1.14s-.32-.18-1.17-1c-.18-.16-2.49-2.53-4.2-4.36-1.87-2-3.68-4-4.2-4.62l.21,7.7c0,1.32.19,1.74.63,1.87a3.55,3.55,0,0,0,.8.1c.08,0,.13,0,.13.1s-.1.13-.29.13c-.92,0-1.56,0-1.71,0s-.82,0-1.54,0c-.16,0-.26,0-.26-.13s0-.1.13-.1a2.32,2.32,0,0,0,.66-.1c.4-.11.48-.58.48-2Z"/><path d="M112,172.62c0-2.51,0-3,0-3.47s-.19-.82-.55-.9a2.13,2.13,0,0,0-.5-.06c-.06,0-.13,0-.13-.1s.08-.13.26-.13c.53,0,1.54,0,1.62,0s1.09,0,1.58,0c.18,0,.26,0,.26.13s-.06.1-.13.1a2.38,2.38,0,0,0-.4,0c-.43.08-.56.35-.59.92s0,1,0,3.47v2.83c0,1.54,0,2.81.08,3.49,0,.47.14.82.63.88.23,0,.56.06.66.06s.19,0,.19.1-.06.13-.24.13c-.88,0-1.91,0-2,0s-1.09,0-1.58,0c-.18,0-.26,0-.26-.13s0-.1.18-.1a2.22,2.22,0,0,0,.42,0c.32-.06.42-.43.48-.9.08-.68.08-1.95.08-3.49Z"/><path d="M122.31,172.62c0-2.51,0-3,0-3.47s-.16-.8-.69-.92a3.69,3.69,0,0,0-.47,0c-.11,0-.21,0-.21-.1s.08-.13.26-.13c.37,0,.8,0,1.82,0,.11,0,3.31,0,3.68,0a2.68,2.68,0,0,0,.74-.1.4.4,0,0,1,.18-.06s.06.06.06.14a7,7,0,0,0-.13.76c0,.24,0,.55-.06,1,0,.16-.06.27-.13.27s-.13-.08-.13-.21a1.61,1.61,0,0,0-.08-.53c-.11-.37-.45-.53-1.16-.59-.27,0-2,0-2.2,0s-.1,0-.1.16v4.44c0,.11,0,.16.1.16s2.19,0,2.56,0,.64-.08.8-.27.13-.16.19-.16.08,0,.08.13-.08.37-.13.9,0,.87-.06,1.09,0,.24-.11.24-.11-.13-.11-.26a1.46,1.46,0,0,0-.06-.45c-.06-.24-.26-.47-.84-.53s-2-.08-2.3-.08a.1.1,0,0,0-.11.11v1.42c0,.55,0,2.41,0,2.75,0,.66.13,1,.53,1.17a3.9,3.9,0,0,0,1.33.14,5.32,5.32,0,0,0,1.45-.14c.51-.16.69-.5.82-1.19,0-.18.06-.24.15-.24s.1.13.1.24a15.55,15.55,0,0,1-.21,1.56c-.11.42-.24.42-.87.42-1.19,0-1.72,0-2.35,0s-1.38,0-2,0c-.39,0-.77.06-1.19,0-.18,0-.26,0-.26-.13s.08-.08.18-.1a2.12,2.12,0,0,0,.37,0c.34-.08.55-.3.58-1.51,0-.63,0-1.45,0-2.88Z"/><path d="M136.34,175.49c0,2.36.06,3.39.35,3.68s.68.37,1.93.37c.85,0,1.56,0,1.95-.48a2.23,2.23,0,0,0,.42-1c0-.13,0-.21.14-.21s.1.06.1.24a10.23,10.23,0,0,1-.24,1.61c-.11.37-.16.43-1,.43-1.38,0-2.75-.1-4.31-.1-.5,0-1,0-1.58,0-.18,0-.26,0-.26-.13s0-.1.13-.1a2.49,2.49,0,0,0,.48-.06c.32-.06.4-.42.47-.88.08-.68.08-1.95.08-3.49v-2.83c0-2.51,0-3,0-3.47s-.16-.8-.69-.92a3,3,0,0,0-.55,0c-.06,0-.13,0-.13-.1s.08-.13.26-.13c.72,0,1.74,0,1.82,0s1.25,0,1.74,0c.18,0,.26,0,.26.13s-.06.1-.13.1a3.76,3.76,0,0,0-.53,0c-.47.08-.59.35-.63.92s0,1,0,3.47Z"/><path d="M39.14,205.65c.5-.48,2.69-2.78,3.67-3.8s1-1.16,1-1.35a.33.33,0,0,0-.21-.31c-.11,0-.14-.08-.14-.14s.1-.1.24-.1c.47,0,.42,0,1,0s1.45,0,1.7,0,.27,0,.27.11,0,.1-.18.11a2.93,2.93,0,0,0-.82.19A5,5,0,0,0,44,201.67c-1.42,1.37-3.25,3.18-3.67,3.65,1,1.11,3.94,4.08,4.7,4.79,1.32,1.24,1.88,1.59,2.65,1.74a2.18,2.18,0,0,0,.47,0c.13,0,.23,0,.23.11s-.06.11-.24.11H46.94a3.17,3.17,0,0,1-2.52-.77,61.26,61.26,0,0,1-5.28-5.55v1.66c0,1.54,0,2.81.08,3.49,0,.47.15.82.63.88l.64.06c.15,0,.19.06.19.11s-.06.11-.24.11c-.88,0-1.9,0-2,0s-1,0-1.51,0c-.18,0-.26,0-.26-.11s0-.11.18-.11a2.22,2.22,0,0,0,.42,0c.32-.06.42-.43.48-.9.08-.68.08-1.95.08-3.49v-2.83c0-2.51,0-3,0-3.47s-.19-.82-.55-.9a2.78,2.78,0,0,0-.58-.06c-.13,0-.18,0-.18-.1s.08-.13.26-.13c.53,0,1.61,0,1.69,0s1.09,0,1.58,0c.18,0,.26,0,.26.11s0,.1-.18.11l-.35,0c-.43,0-.56.37-.59.93s0,1,0,3.47Z"/><path d="M54.25,207.37a.17.17,0,0,0-.16.13l-1,2.85a3.4,3.4,0,0,0-.22,1.08c0,.32.31.47.58.47h.15c.16,0,.21,0,.21.1s-.14.13-.29.13c-.39,0-1,0-1.21,0s-1.06,0-1.82,0c-.21,0-.31,0-.31-.13s.08-.1.23-.1l.39,0c.74-.1,1.06-.71,1.35-1.51l3.65-10c.19-.53.26-.63.35-.63s.16.08.35.58,2.77,7.25,3.75,9.7c.58,1.43,1,1.69,1.38,1.79a2.13,2.13,0,0,0,.63.1c.1,0,.18,0,.18.1s-.15.13-.32.13-1.42,0-2.52,0c-.31,0-.48,0-.48-.11s0-.1.11-.11.19-.18.1-.43l-1.5-4a.14.14,0,0,0-.14-.1Zm3.25-.58c.08,0,.08,0,.06-.11L56,202.34c-.08-.24-.16-.24-.24,0l-1.42,4.34c0,.08,0,.11,0,.11Z"/><path d="M76.25,205.06a.08.08,0,0,0,.1-.1v-.34c0-2.51,0-3,0-3.47s-.16-.8-.69-.92a3,3,0,0,0-.55,0c-.06,0-.13,0-.13-.1s.08-.13.26-.13c.72,0,1.74,0,1.82,0s1.09,0,1.58,0c.18,0,.26,0,.26.13s-.06.1-.13.1a2.36,2.36,0,0,0-.4,0c-.43.08-.56.35-.6.92s0,1,0,3.47v2.83c0,1.54,0,2.81.08,3.49,0,.47.14.82.63.88a7,7,0,0,0,.72.06c.1,0,.13,0,.13.1s-.08.13-.26.13c-.88,0-1.9,0-2,0s-1.09,0-1.58,0c-.18,0-.26,0-.26-.13s0-.1.13-.1a2.48,2.48,0,0,0,.48-.06c.32-.06.4-.42.47-.88.08-.68.08-1.95.08-3.49v-1.69a.09.09,0,0,0-.1-.1H69.44a.08.08,0,0,0-.1.1v1.69c0,1.54,0,2.81.08,3.49,0,.47.14.82.63.88a7,7,0,0,0,.72.06c.1,0,.13,0,.13.1s-.08.13-.26.13c-.88,0-1.9,0-2,0s-1.09,0-1.58,0c-.18,0-.26,0-.26-.13s0-.1.13-.1a2.47,2.47,0,0,0,.48-.06c.32-.06.4-.42.47-.88.08-.68.08-1.95.08-3.49v-2.83c0-2.51,0-3,0-3.47s-.16-.8-.69-.92a3,3,0,0,0-.55,0c-.06,0-.13,0-.13-.1s.08-.13.26-.13c.72,0,1.74,0,1.82,0s1.09,0,1.58,0c.18,0,.26,0,.26.13s-.06.1-.13.1a2.38,2.38,0,0,0-.4,0c-.43.08-.56.35-.59.92s0,1,0,3.47V205a.08.08,0,0,0,.1.1Z"/><path d="M86.09,207.37c0-5.81,0-3.71,0-6.83,0-.63,0-.8.18-.8s.4.35.56.51,2.64,2.86,5.11,5.52c1.59,1.71,3.35,3.67,3.86,4.2l-.18-8.17c0-1-.13-1.4-.63-1.53a3.33,3.33,0,0,0-.69-.08c-.18,0-.23,0-.23-.11s.13-.11.32-.11c.72,0,1.5,0,1.67,0s.71,0,1.37,0c.18,0,.29,0,.29.11s-.06.1-.18.11l-.42.06c-.45.1-.56.34-.56,1.45l0,9.39c0,1.06,0,1.14-.14,1.14s-.32-.18-1.17-1c-.18-.16-2.49-2.53-4.2-4.36-1.87-2-3.68-4-4.2-4.62l.21,7.7c0,1.32.19,1.74.63,1.87a3.55,3.55,0,0,0,.8.1c.08,0,.13,0,.13.1s-.1.13-.29.13c-.92,0-1.56,0-1.71,0s-.82,0-1.54,0c-.16,0-.26,0-.26-.13s0-.1.13-.1a2.32,2.32,0,0,0,.66-.1c.4-.11.48-.58.48-2Z"/><path d="M105.07,204.62c0-2.51,0-3,0-3.47s-.16-.8-.69-.92a3.69,3.69,0,0,0-.47,0c-.11,0-.21,0-.21-.1s.08-.13.26-.13c.37,0,.8,0,1.82,0,.11,0,3.31,0,3.68,0a2.68,2.68,0,0,0,.74-.1.4.4,0,0,1,.18-.06s.06.06.06.14a7,7,0,0,0-.13.76c0,.24,0,.55-.06,1,0,.16-.06.27-.13.27s-.13-.08-.13-.21a1.61,1.61,0,0,0-.08-.53c-.11-.37-.45-.53-1.16-.59-.27,0-2,0-2.2,0s-.1,0-.1.16v4.44c0,.11,0,.16.1.16s2.19,0,2.56,0,.64-.08.8-.27.13-.16.19-.16.08,0,.08.13-.08.37-.13.9,0,.87-.06,1.09,0,.24-.11.24-.11-.13-.11-.26a1.44,1.44,0,0,0-.06-.45c-.06-.24-.26-.47-.84-.53s-2-.08-2.3-.08a.1.1,0,0,0-.11.11v1.42c0,.55,0,2.41,0,2.75,0,.66.13,1,.53,1.17a3.9,3.9,0,0,0,1.33.14,5.32,5.32,0,0,0,1.45-.14c.51-.16.69-.5.82-1.19,0-.18.06-.24.14-.24s.1.13.1.24a15.55,15.55,0,0,1-.21,1.56c-.11.42-.24.42-.87.42-1.19,0-1.72,0-2.35,0s-1.38,0-2,0c-.39,0-.77.06-1.19,0-.18,0-.26,0-.26-.13s.08-.08.18-.1a2.12,2.12,0,0,0,.37,0c.34-.08.55-.3.58-1.51,0-.63,0-1.45,0-2.88Z"/><path d="M130.07,210c.06.58.18,1.48.87,1.71a3.24,3.24,0,0,0,1,.14c.08,0,.18,0,.18.1s0,.13-.24.13c-.35,0-2.19,0-2.78-.1-.37,0-.45-.08-.45-.16s0-.08.11-.11.1-.29.06-.58l-.77-8.4-4,8.46c-.34.71-.39.85-.53.85s-.19-.16-.5-.74c-.42-.79-1.8-3.57-1.88-3.73s-2-4.26-2.17-4.7l-.66,7.58c0,.26,0,.48,0,.76s.19.53.43.58a2.41,2.41,0,0,0,.58.06c.1,0,.16,0,.16.08s-.08.14-.24.14c-.6,0-1.42,0-1.54,0s-.92,0-1.35,0c-.16,0-.27,0-.27-.13s.08-.1.16-.1a2,2,0,0,0,.48,0c.53-.1.56-.67.64-1.33l1.16-10.45c0-.18.08-.32.18-.32s.16.06.24.24l4.92,10.12,4.73-10.1c.06-.14.13-.26.24-.26s.16.13.19.43Z"/><path d="M139.12,207.37a.17.17,0,0,0-.16.13l-1,2.85a3.4,3.4,0,0,0-.22,1.08c0,.32.31.47.58.47h.14c.16,0,.21,0,.21.1s-.14.13-.29.13c-.39,0-1,0-1.21,0s-1.06,0-1.82,0c-.21,0-.31,0-.31-.13s.08-.1.23-.1l.39,0c.74-.1,1.06-.71,1.35-1.51l3.65-10c.19-.53.26-.63.35-.63s.16.08.35.58,2.77,7.25,3.75,9.7c.58,1.43,1,1.69,1.38,1.79a2.13,2.13,0,0,0,.63.1c.1,0,.18,0,.18.1s-.15.13-.32.13-1.42,0-2.52,0c-.31,0-.48,0-.48-.11s0-.1.11-.11.19-.18.1-.43l-1.5-4a.14.14,0,0,0-.14-.1Zm3.25-.58c.08,0,.08,0,.06-.11l-1.53-4.34c-.08-.24-.16-.24-.24,0l-1.42,4.34c0,.08,0,.11,0,.11Z"/><path d="M152.16,207.37c0-5.81,0-3.71,0-6.83,0-.63,0-.8.18-.8s.4.35.56.51,2.64,2.86,5.11,5.52c1.59,1.71,3.35,3.67,3.86,4.2l-.18-8.17c0-1-.13-1.4-.63-1.53a3.33,3.33,0,0,0-.69-.08c-.18,0-.23,0-.23-.11s.13-.11.32-.11c.72,0,1.5,0,1.67,0s.71,0,1.37,0c.18,0,.29,0,.29.11s-.06.1-.18.11l-.42.06c-.45.1-.56.34-.56,1.45l0,9.39c0,1.06,0,1.14-.14,1.14s-.32-.18-1.17-1c-.18-.16-2.49-2.53-4.2-4.36-1.87-2-3.68-4-4.2-4.62l.21,7.7c0,1.32.19,1.74.63,1.87a3.55,3.55,0,0,0,.8.1c.08,0,.13,0,.13.1s-.1.13-.29.13c-.92,0-1.56,0-1.71,0s-.82,0-1.54,0c-.16,0-.26,0-.26-.13s0-.1.13-.1a2.32,2.32,0,0,0,.66-.1c.4-.11.48-.58.48-2Z"/><g style="opacity:0.4"><polygon points="149.44 127.04 149.94 126.82 149.94 126.51 149.44 127.04" style="fill:#202020"/><path d="M152.1,126.4l.71-.63c-.86-.31-.15-.53-1.64-.15-.36.37-1.16,1.2-.88,1.37.29-.23.59-.76,1.09-1-.08.3-.58.6-.66,1,.87-.29.37-.45,1.23-.9Z" style="fill:#202020"/><path d="M152.6,125.16a.62.62,0,0,0,.07.38C152.67,125.39,153,125,152.6,125.16Z" style="fill:#202020"/><path d="M153,124.77c.5-.31.15.23.22.23l.27-.77Z" style="fill:#202020"/><path d="M155,123.35l.19-.2C155.08,123.15,155.06,123.25,155,123.35Z" style="fill:#202020"/><path d="M155.92,122.57c-.29,0-.46.29-.72.59h0c.35-.1.31.37-.18.62s-.57.1-.84.57l.71-.19A3.65,3.65,0,0,0,155.92,122.57Z" style="fill:#202020"/><path d="M155,123.35l-.24.21A.34.34,0,0,0,155,123.35Z" style="fill:#202020"/><polygon points="154 124.05 153.8 124.29 153.94 124.36 154 124.05" style="fill:#202020"/><path d="M157.44,121.27c.2.45-1.12.89-1,1.26.61-.5,1.3-.67,1.34-.36l.58-.69C158.44,121.15,157.93,121.14,157.44,121.27Z" style="fill:#202020"/><path d="M159.52,121a.53.53,0,0,1,.09-.2C159.55,120.86,159.51,120.94,159.52,121Z" style="fill:#202020"/><path d="M162,117.13c-.32.62-.63,1.28-1,1.89,0-.24-.13-.28.14-.67-.66.64-.54.92-1.09,1.44-.46-.14.9-1,.32-.94a3.46,3.46,0,0,0-1,1.53l-.81.37.53.15c.35-.14.25-.75.63-.66.22.07,0,.34-.15.54.34-.44,1.35-.8,2.09-1.69S161.7,117.87,162,117.13Z" style="fill:#202020"/><polygon points="162.47 117.38 162.7 117.38 162.44 117.31 162.47 117.38" style="fill:#202020"/><path d="M163.25,115.14c-.11.35-.21.72-.33,1.08a.68.68,0,0,1-.34.08c.11,0,.09.37.19.39.67-.15.64-1.21.88-1.73.88-1.31.17.17.81-.19a8.54,8.54,0,0,1-.66.89c1-.58,1.08-2,1.17-2.61-.11.16-.25.16-.34.49l.11-.66a3.27,3.27,0,0,0-.69.85C163.8,114.06,163.6,114.51,163.25,115.14Z" style="fill:#202020"/><path d="M162.18,116.74c.21-.34.32-.44.4-.44C162.42,116.32,162.27,116.38,162.18,116.74Z" style="fill:#202020"/><path d="M165.07,112.71a1.09,1.09,0,0,0-.1.33A.6.6,0,0,0,165.07,112.71Z" style="fill:#202020"/><path d="M164.38,113.14a5.15,5.15,0,0,0,.29-.71l-.27.23C164.38,112.76,164.27,113.12,164.38,113.14Z" style="fill:#202020"/><path d="M146.36,94c0,.19.24.36.8.52-.14.2-.84-.09-1.21-.08.68.39-.1.25,0,.53.79.3,1.25.13,2.09.51-.06,0-.08.15,0,.27a12.84,12.84,0,0,1,3.79,1.33,22.73,22.73,0,0,0,2.71,1.12,44.67,44.67,0,0,1,4.9,2.94,13.21,13.21,0,0,1,4.06,4.31,5.71,5.71,0,0,1,.69.28c-.11.29.45.9.12.92A2.5,2.5,0,0,0,164,106a2.49,2.49,0,0,0,.17.74,6.8,6.8,0,0,0,.3.81,4.46,4.46,0,0,1,.34,1.71c.07-.12.44-.34.54,0-.47-.07,0,1.33-.62,1.57-.32,1,.47.12.14,1.19.12.09.25-.16.33-.47s.15-.66.28-.76c.18.4-.26,1,0,1a6.81,6.81,0,0,0-.17-3.81,10.86,10.86,0,0,0-2.27-3.75l.4.06a33.74,33.74,0,0,1-3.25-3.55c.06.35-1.59-1.32-1.76-.68a2.41,2.41,0,0,0-.7-.65l-.21.1c-.6-.36-.35-.57-1.06-.94.33.47-.21.27-.52.34-.65-.7-1.5-1.39-2.14-2a.82.82,0,0,0,.25.44c-.46-.32-.48-.05-.65,0-.49-.21-.3-.49-.21-.63-.85-.51-1.51-.07-2.09-.56l.13.35c-.94-.32-1.62-.91-2.69-1.21-.38-.53,1,0,1.45,0-.18-.15-.62-.35-.72-.51-.51,0-1.35,0-2-.06C148.06,94.61,146.71,94.17,146.36,94Z" style="fill:#202020"/><path d="M149.34,94.88l.35,0a1.12,1.12,0,0,1-.36-.1A.1.1,0,0,0,149.34,94.88Z" style="fill:#202020"/><path d="M146.36,94s0,0,0,0S146.27,94,146.36,94Z" style="fill:#202020"/><path d="M152,97.15l-.12-.08-.16-.08Z" style="fill:#202020"/><path d="M153.21,96.38a7.64,7.64,0,0,0,.66.62C153.83,96.85,153.8,96.74,153.21,96.38Z" style="fill:#202020"/><path d="M159.11,99.95c.21.08.15-.06.32,0C159.07,99.65,158.9,99.64,159.11,99.95Z" style="fill:#202020"/><polygon points="148.22 94.39 147.39 94.19 147.08 94.15 148.22 94.39" style="fill:#202020"/><path d="M131.5,91.08a9.78,9.78,0,0,0,2.61.81c1.65.24.37-.62,1.92-.28l-.42.57c1.54.34,3.66,1.05,5.11.87.09.11.33.28-.09.26,1,.27.79-.75,2.08-.13-1.38,0,.3.5-.16.78l-.21,0c.86.22,2.06.36,2.61.58.08-.15-.34-.56.42-.33-.3-.13-.11-.27,0-.42a10.22,10.22,0,0,0-1.77-.26c-.37-.35.32,0-.06-.32h-.69c-.45-.19.54-.06-.17-.33a2.3,2.3,0,0,1-1.31-.14l.18,0c-.46,0-1-.32-.93.09l-.42-.49,0,.26c-1.17-.42-1.46-1.12-3.09-1.23.35.17,0,.21-.23.2.6.33.84,0,1.46.15,0,.26-1.08.28-.38.62-.74-.5-1.54-.37-1.74-1.05a20.35,20.35,0,0,1-2.38-.46l0-.08c-.28.35-.77-.37-1.61-.14l.51.21c-.06.16-.32.1-.68,0,.06-.05.06-.05,0-.16-.18.26-1.31.05-1.47.11a8.5,8.5,0,0,0,1.67.1C131.93,91,132,91.24,131.5,91.08Z" style="fill:#202020"/><path d="M141.87,92.65l-.35,0A.6.6,0,0,0,141.87,92.65Z" style="fill:#202020"/><path d="M127.15,89.6c-.62-.2.22-.21-.34-.47-.68.07.65.57,0,.74-.35-.26-1-.09-1.3-.13.32-.11.24-.53.14-.63-.27.06-.77-.24-1.19-.34,1,.45-.89,0,0,.42-.11.22-1.11.19-1.46-.06.06-.16.37-.07.63,0,.27-.27-.61-.29-.71-.61-1.06.24-4.17-.37-3.42.5.31.2.62.08,1,.12-1-.33.06-.37.17-.48.41.19,1.2.11,1,.33l-.74.13c2.17.55,5.18,1.09,7.71,1.53l-1.09-.25c.17-.16.68-.06,1.1-.07l-.44-.57c.31.1.62.1.56.26.42-.11.28-.27.08-.47.83.1.93.3,1.62.14-1.27-.67-1.21.06-2.69-.6Z" style="fill:#202020"/><polygon points="130.16 89.98 129.79 90.14 130.31 90.14 130.16 89.98" style="fill:#202020"/><path d="M129.42,90.88c0-.1.22-.11.22-.21C129,90.46,129.07,90.62,129.42,90.88Z" style="fill:#202020"/><path d="M122,88.32l-.83-.08.52.19C121.7,88.33,121.91,88.32,122,88.32Z" style="fill:#202020"/><path d="M116.06,88.47A10,10,0,0,1,119,89c.68-.18-.19-.62.13-.84-.62-.18-.64.34-1.31.32-.2-.3-1-.12-1.6-.29A.21.21,0,0,1,116.06,88.47Z" style="fill:#202020"/><path d="M112.31,86.8a6.29,6.29,0,0,1-1.47-.17c.08-.15.41-.16.71-.07-.14-.4-.59,0-1.11-.38,0,0,.24.15.07.2-1.39-.32-.84.18-2.62-.32-.28.06-.54,0-.53.27a11,11,0,0,0-1.67-.86c0,.15.38.55.33.85-1.69-.71-1.8-.21-2.88-.71a1.47,1.47,0,0,1,.59,0c-.08-.46-1-.06-1.56-.24l.11-.36a5.48,5.48,0,0,1-2.3-.31l.19-.16c-1.51.07-3.21-.31-4.49-.35L95,83.92c-1.77,0,1.7.37.36.75-.09-.71-.92.1-1.87-.31-.43-.34,1,0,.54-.38-.27.32-.54,0-1.08.06.16-.31-1.09-.2-.72-.52l-1.93.36a2.14,2.14,0,0,0-1.21-.28c1,.14-.34.45.76.76a39.14,39.14,0,0,1,6.39.79c.29-.42,1.3.19,1.68-.13,0,.15.16.3.19.45,1.32.09-.27-.29.07-.41.58,0,1,.36.93.52.93.16.13-.11.64-.28l.54.59a69.28,69.28,0,0,1,10.14,1.35l-.2-.35c1.47.41,2.63-.28,3.85.61l.5-.19c-.28.11.18.51-.25.65.43,0,.84.16,1.28.14l-.73-.28a1.14,1.14,0,0,1,1.26.35c1.18-.12-.57-.65-.78-1-1.68.3-1.5-.83-3.06-.85C111.37,86.37,112.39,86.65,112.31,86.8Z" style="fill:#202020"/><path d="M114.12,88a1,1,0,0,0,.24,0Z" style="fill:#202020"/><path d="M89.12,83.58l-.45,0C88.51,83.6,88.76,83.57,89.12,83.58Z" style="fill:#202020"/><path d="M116.18,88.15h0Z" style="fill:#202020"/><polygon points="117.07 87.53 116.65 87.44 116.7 87.59 117.07 87.53" style="fill:#202020"/><path d="M84.72,82.58l0,.16A.12.12,0,0,0,84.72,82.58Z" style="fill:#202020"/><path d="M72.83,80.42l.25.08A.59.59,0,0,0,72.83,80.42Z" style="fill:#202020"/><path d="M68.55,60.76a12.47,12.47,0,0,0,1.49-2l.07.16c.26-.34,1.16-1.42.29-1.08l-.07.25c-.62.84-.74.27-1.41.71-.67.71-.64,1.53-1.35,2-.26.27-.33.11-.34-.05-.63.58-.53,1.14-.87,1.61-.54-.35-.93.2-1.33.89s-.79,1.53-1.48,1.81a10.55,10.55,0,0,0-1.28,2.62c-.05-.64-.42.88-.65.53.28.28-.07.93-.3,1.64a3.6,3.6,0,0,0-.21,1c0,.3.11.51.33.56-.16.68-.1.71-.09.75a4.14,4.14,0,0,1,0,.92c-.1,0-.14-.26-.18-.36a1,1,0,0,0,.23.78.83.83,0,0,1,.13.72c.47,1.24.31.12.86.66.6,1.15.32.9.52,1.73.39-.2.81.52,1.46.74-.13-.1-.72-.77-.18-.5a2.51,2.51,0,0,0,1.13.7,6.41,6.41,0,0,1,1.2.42c.37.77-1.21-.67-.34.26a13.85,13.85,0,0,0-2-.71,10,10,0,0,0,3.6,1.87c.65.35-.44.06.08.33,1.15.73,2.06.3,3,.82l-.29.17c.71-.11,2.21.76,3.45.84-.12-.16-.2-.26,0-.31-.16.62,1.72.07,2.8.71,0-.41,1.16-.42,1.89-.34.24.14.16.3.14.4-1.15-.42-1.22.23-2.2.25.83-.06,2.09.38,2.82.18l-.32.27c1.09.2,1.06-.55,2.16-.1l-.14.21c2.31.28,5,1,6.87.79.19-.16-.68-.73-.71-.88-1.12,0-1.8.26-2.66.3l.06-.35c-.22.22-1.25.23-.72.49-.71.09-.47-.38-1.29-.29.11-.36.59-.34.64-.65l-.71.09c.23-.11-.4-.18-.17-.3-1.33.28-1.75-.41-3.07-.4l.71.17c0,.21-.45.12-.77.14-.31-.35-.53-.32-1.17-.57-.6.06-1,.38-1.76.23.24-.35-1.24-.47-1.31-.83-.25.35-1.5-.21-1.66,0-.43,0-1-.22-.91-.42.06,0,.19,0,.32,0l-.4-.12c.05,0,0-.07.09-.06-.35-.11-.44.17-.84-.15,0-.1.28,0,.49,0-.91-.34-1.84.07-2.48-.56-.22.13-1.28-.29-1.21.19-.23-.26,0-.51-.77-.8-.58.1-.78-.51-1.42-.63.91.09.06-.08.85,0-.41-.39-1.37-.37-2.11-1,0-.13,0-.21,0-.34-.35-.1-.86-.16-.9-.61l-.14.21a4.32,4.32,0,0,1-1.09-1.91,4.31,4.31,0,0,1-.76-.51,5.94,5.94,0,0,0-.24-1.76l-.45-1.69c.07-.42.35-1,.44-1l.05.48c.16-.59.66-1.17.43-1.63.15-.62.42-.31.69-.69a4.11,4.11,0,0,1,1.12-2.08c.52-.63,1-1.17.78-1.59a13.6,13.6,0,0,0-1.6,2c.06-.28-.19-.2,0-.52.54-.87,1.12-1.09,1.64-2l.34.44C66.85,63.13,67,61.13,68.55,60.76Z" style="fill:#202020"/><path d="M61.85,71.15a6.54,6.54,0,0,1,.37-.63l-.24,0A1.37,1.37,0,0,1,61.85,71.15Z" style="fill:#202020"/><path d="M62,70.55c0-.14,0-.29,0-.42a.89.89,0,0,0,0,.43Z" style="fill:#202020"/><path d="M70.64,58.77a2.47,2.47,0,0,0,.61-.5A1.44,1.44,0,0,0,70.64,58.77Z" style="fill:#202020"/><polygon points="71.19 58.1 70.86 58.27 70.85 58.35 71.19 58.1" style="fill:#202020"/><path d="M88.83,46.15l.89-.84c.26.06,1.35-.73,1.1-.28.45-.67,2-1,1.23-1.26-3,1.69-7.39,3.66-10.54,6.18l.43-.52c-1.54,1.46-2.7,1.08-3.62,2.74l-.06-.51c-.87.41-1.15,1.55-2.24,1.72l.19.1c-.22.15-.35.14-.57.29h.14a3.66,3.66,0,0,1-1.45,1.08c-.13-.09.22-.24.37-.39-.35.06-.6.63-1,.95-.41.15-.12-.17-.11-.25-1.16,1.12-2,1.2-2.49,2.44,0,.17.47-.08.06.33a7.53,7.53,0,0,0,2.1-2l-.21.16c.2-1,.55-.23,1.36-1.19-.1.41-.53.72-.61,1,1.43-.43,1.4-1.5,2.54-1.51l-.08.08c.21-.07.44-.38.67-.61a2.79,2.79,0,0,0-.62.2,1.1,1.1,0,0,0,.22-.73c.46,0,.32-.39.88-.59.32.11-.26.48-.36.72l.47-.54c.52-.37.68-.1,1-.15.33-.46-.34,0-.14-.43a15.53,15.53,0,0,0,4.21-2.65c-.39.28,0,.33-.52.6.21-.06.77-.56.67-.74a7.89,7.89,0,0,1,2.72-1.42l-.33-.06c.48-.68,1.78-.7,2.85-1.51h0c.35-.24.44-.86,1.19-1.13C89.06,45.77,88.68,45.95,88.83,46.15Z" style="fill:#202020"/><path d="M92.79,43.61l-.26.45c.46-.15.83-.74.65-.87-.26.19-.7.26-.68.44C92.57,43.64,92.61,43.74,92.79,43.61Z" style="fill:#202020"/><path d="M100.92,39.94c.14-.13.05-.21.09-.31a37,37,0,0,1-4.62,1.88c-.62.18-.54.63-1.23,1.06l-.45-.11c-.31.35-1.64.63-1,.86.07,0,.24-.37.62-.45l0,.18.75-.41-.16.3c1.18-.21.47-.91,1.86-1.32l.16.39a7,7,0,0,1,2.14-.79s-.07-.19-.19-.05-.41,0-.36-.19c1.2-.87-.11.31.88.08,1-.75,3.11-1.83,3.87-1.75-.63,0,.08-.59.74-.81.35,0-.12.31-.18.46a2.69,2.69,0,0,0,.88-.23c-.47-.07-.32-.46.34-.85C103.4,38.19,102.46,39.37,100.92,39.94Z" style="fill:#202020"/><path d="M101.24,39.43c-.15.08-.21.14-.23.2l.61-.25Z" style="fill:#202020"/></g><path d="M130.67,137H44.16a1.29,1.29,0,0,1-1.29-1.29v-2.45a1.29,1.29,0,0,1,1.29-1.29h86.17l15.08,2.51Z" style="fill:url(#linear-gradient)"/><path d="M44.16,125h3a0,0,0,0,1,0,0v7.35a0,0,0,0,1,0,0h-3A1.29,1.29,0,0,1,42.87,131v-4.77A1.29,1.29,0,0,1,44.16,125Z" style="fill:#c56255"/><rect x="47.13" y="124.98" width="11.6" height="7.35" style="fill:url(#linear-gradient-2)"/><polygon points="130.33 132.32 91.25 132.32 89 131.8 87.5 132.32 58.73 132.32 58.73 124.97 130.33 124.97 130.33 132.32" style="fill:#eaa530"/><polygon points="130.33 128.66 58.73 128.66 58.73 124.97 81.92 124.97 82.67 125.37 84.6 124.97 108.25 124.97 109.62 125.67 110.49 124.97 130.33 124.97 130.33 128.66" style="fill:#fdc334"/><polygon points="128.4 132.32 130.33 130.38 128.4 128.65 130.33 126.87 128.4 124.97 130.33 124.97 145.41 128.65 130.67 132.32 128.4 132.32" style="fill:#f8e7c9"/><polygon points="128.4 132.34 130.33 130.39 128.4 128.66 145.41 128.66 130.67 132.34 128.4 132.34" style="fill:#c4a883"/><polygon points="145.41 128.65 141.16 129.71 141.16 127.61 145.41 128.65" style="fill:#2e2e2c"/><line x1="48.96" y1="124.98" x2="48.96" y2="132.32" style="fill:none;stroke:#9c9b99;stroke-miterlimit:10;opacity:0.2"/><line x1="49.74" y1="124.98" x2="49.74" y2="132.32" style="fill:none;stroke:#9c9b99;stroke-miterlimit:10;opacity:0.2"/><line x1="50.51" y1="124.98" x2="50.51" y2="132.32" style="fill:none;stroke:#9c9b99;stroke-miterlimit:10;opacity:0.2"/><line x1="54.67" y1="124.98" x2="54.67" y2="132.32" style="fill:none;stroke:#9c9b99;stroke-miterlimit:10;opacity:0.2"/><line x1="55.44" y1="124.98" x2="55.44" y2="132.32" style="fill:none;stroke:#9c9b99;stroke-miterlimit:10;opacity:0.2"/><line x1="56.21" y1="124.98" x2="56.21" y2="132.32" style="fill:none;stroke:#9c9b99;stroke-miterlimit:10;opacity:0.2"/><line x1="51.71" y1="125.37" x2="53.36" y2="125.37" style="fill:none;stroke:#9c9b99;stroke-miterlimit:10;opacity:0.2"/><line x1="51.71" y1="125.91" x2="53.36" y2="125.91" style="fill:none;stroke:#9c9b99;stroke-miterlimit:10;opacity:0.2"/><line x1="51.71" y1="126.45" x2="53.36" y2="126.45" style="fill:none;stroke:#9c9b99;stroke-miterlimit:10;opacity:0.2"/><line x1="51.71" y1="127" x2="53.36" y2="127" style="fill:none;stroke:#9c9b99;stroke-miterlimit:10;opacity:0.2"/><line x1="51.71" y1="127.54" x2="53.36" y2="127.54" style="fill:none;stroke:#9c9b99;stroke-miterlimit:10;opacity:0.2"/><line x1="51.71" y1="128.09" x2="53.36" y2="128.09" style="fill:none;stroke:#9c9b99;stroke-miterlimit:10;opacity:0.2"/><line x1="51.71" y1="128.63" x2="53.36" y2="128.63" style="fill:none;stroke:#9c9b99;stroke-miterlimit:10;opacity:0.2"/><line x1="51.71" y1="129.17" x2="53.36" y2="129.17" style="fill:none;stroke:#9c9b99;stroke-miterlimit:10;opacity:0.2"/><line x1="51.71" y1="129.72" x2="53.36" y2="129.72" style="fill:none;stroke:#9c9b99;stroke-miterlimit:10;opacity:0.2"/><line x1="51.71" y1="130.26" x2="53.36" y2="130.26" style="fill:none;stroke:#9c9b99;stroke-miterlimit:10;opacity:0.2"/><line x1="51.71" y1="130.8" x2="53.36" y2="130.8" style="fill:none;stroke:#9c9b99;stroke-miterlimit:10;opacity:0.2"/><line x1="51.71" y1="131.35" x2="53.36" y2="131.35" style="fill:none;stroke:#9c9b99;stroke-miterlimit:10;opacity:0.2"/><line x1="51.71" y1="131.89" x2="53.36" y2="131.89" style="fill:none;stroke:#9c9b99;stroke-miterlimit:10;opacity:0.2"/><polygon points="93.46 127.67 92.59 128.01 92.59 128.59 93.03 129.27 93.46 129.66 94.53 129.32 94.53 127.86 93.46 127.67" style="fill:#d89e1e"/><polygon points="123.68 126.14 122.81 126.48 122.81 127.07 123.25 127.75 123.68 128.13 124.75 127.79 124.75 126.34 123.68 126.14" style="fill:#d89e1e"/><polygon points="70.8 129.81 69.92 130.15 69.92 130.73 70.36 131.41 70.8 131.8 71.86 131.46 71.86 130 70.8 129.81" style="fill:#d89e1e"/><polygon points="64.74 129.14 65.42 129.79 65.94 129.54 66.37 128.85 66.54 128.29 65.78 127.47 64.46 128.09 64.74 129.14" style="fill:#d89e1e"/><polygon points="77.57 126.35 76.92 125.67 76.38 125.89 75.92 126.55 75.72 127.1 76.44 127.96 77.79 127.42 77.57 126.35" style="fill:#d89e1e"/><polygon points="113.06 130.49 113.52 131.31 114.1 131.23 114.71 130.71 115.03 130.22 114.55 129.21 113.11 129.41 113.06 130.49" style="fill:#d89e1e"/></svg>