<svg id="Layer_1" data-name="Layer 1" xmlns="http://www.w3.org/2000/svg" viewBox="0 0 200 260"><title>book-power-habit</title><rect x="0.17" width="199.65" height="260" style="fill:#fde53b"/><circle cx="100" cy="141.1" r="45.97" style="fill:none;stroke:#bf2439;stroke-linecap:round;stroke-linejoin:round;stroke-width:3px"/><circle cx="100" cy="141.1" r="5.81" style="fill:#bf2439"/><line x1="99.64" y1="141.1" x2="72.85" y2="210.19" style="fill:none;stroke:#bf2439;stroke-linecap:round;stroke-linejoin:round;stroke-width:3px"/><line x1="100.36" y1="141.1" x2="127.15" y2="210.19" style="fill:none;stroke:#bf2439;stroke-linecap:round;stroke-linejoin:round;stroke-width:3px"/><line x1="54.03" y1="210.63" x2="145.97" y2="210.63" style="fill:none;stroke:#bf2439;stroke-linecap:round;stroke-linejoin:round;stroke-width:3px"/><path d="M47.73,22.23v6.44H45.88V22.23H44.14V20.67h5.33v1.56Z"/><path d="M54.69,23.71h3.19v-3h1.85v8H57.88V25.27H54.69v3.39H52.84v-8h1.85Z"/><path d="M68.4,22.23H65.73v1.55h2.54v1.56H65.73v1.77H68.4v1.56H63.88v-8H68.4Z"/><path d="M80.32,20.67a3,3,0,0,1,2.1.66,2.46,2.46,0,0,1,.78,1.94,2.58,2.58,0,0,1-.68,1.88,2.73,2.73,0,0,1-2,.71H79.35v2.81H77.5v-8Zm-1,3.68H80a1.42,1.42,0,0,0,1-.3,1.12,1.12,0,0,0,.3-.79,1.06,1.06,0,0,0-.3-.78,1.44,1.44,0,0,0-1-.3h-.62Z"/><path d="M94.1,21.65a4.26,4.26,0,0,1,0,6A4.27,4.27,0,0,1,91,28.85a4.4,4.4,0,0,1-3.12-1.17,4.09,4.09,0,0,1-1.25-3,4.47,4.47,0,0,1,1.24-3,4.73,4.73,0,0,1,6.22,0Zm-4.86,1.22a2.45,2.45,0,0,0-.71,1.81,2.39,2.39,0,0,0,.73,1.8,2.36,2.36,0,0,0,1.72.66,2.42,2.42,0,0,0,1.77-.68,2.39,2.39,0,0,0,.7-1.79,2.52,2.52,0,0,0-.7-1.8A2.56,2.56,0,0,0,91,22.19,2.46,2.46,0,0,0,89.25,22.87Z"/><path d="M99.88,20.67l1.7,5.3,1.7-5.3h1.27l1.7,5.3,1.7-5.3h1.92l-2.72,8H105.6l-1.68-4.86-1.68,4.86h-1.56l-2.72-8Z"/><path d="M117.73,22.23h-2.67v1.55h2.54v1.56h-2.54v1.77h2.67v1.56h-4.52v-8h4.52Z"/><path d="M124.44,20.67a2.86,2.86,0,0,1,2,.7,2.41,2.41,0,0,1,.7,1.79,2.19,2.19,0,0,1-.62,1.63,2.52,2.52,0,0,1-1.12.61l2.46,3.27h-2.25l-2.16-3.15v3.15h-1.85v-8Zm-1,3.63h.42A1.52,1.52,0,0,0,125,24a1.08,1.08,0,0,0,.3-.78,1,1,0,0,0-.37-.82,1.81,1.81,0,0,0-1-.25h-.43Z"/><path d="M143.6,21.65a4.26,4.26,0,0,1,0,6,4.27,4.27,0,0,1-3.09,1.17,4.4,4.4,0,0,1-3.12-1.17,4.09,4.09,0,0,1-1.25-3,4.47,4.47,0,0,1,1.24-3,4.73,4.73,0,0,1,6.22,0Zm-4.86,1.22a2.45,2.45,0,0,0-.71,1.81,2.39,2.39,0,0,0,.73,1.8,2.36,2.36,0,0,0,1.72.66,2.42,2.42,0,0,0,1.77-.68,2.39,2.39,0,0,0,.7-1.79,2.52,2.52,0,0,0-.7-1.8,2.56,2.56,0,0,0-1.76-.68A2.46,2.46,0,0,0,138.75,22.87Z"/><path d="M153.07,22.23h-2.59v1.55h2.4v1.56h-2.4v3.33h-1.85v-8h4.44Z"/><path d="M65.21,244.32a3.71,3.71,0,0,1-1.76.43,4.29,4.29,0,0,1-3.14-1.16,4.29,4.29,0,0,1,0-6,4.25,4.25,0,0,1,3-1.15,4.76,4.76,0,0,1,1.92.44V239a2.53,2.53,0,0,0-1.87-.85,2.25,2.25,0,0,0-1.63.62,2.57,2.57,0,0,0-.76,1.85A2.34,2.34,0,0,0,63.37,243a2.52,2.52,0,0,0,1.83-.83Z"/><path d="M66.53,235.83h1.73v4a2.16,2.16,0,0,1,.65-.55,2,2,0,0,1,1-.23,2,2,0,0,1,1.51.54,2.12,2.12,0,0,1,.53,1.56v3.39H70.26v-2.75a1.44,1.44,0,0,0-.29-1.07,1,1,0,0,0-.67-.24.94.94,0,0,0-.68.26,1.52,1.52,0,0,0-.36,1.12v2.67H66.53Z"/><path d="M77.2,239.22h1.73v5.35H77.2v-.65a1.78,1.78,0,0,1-1.58.83,2.53,2.53,0,0,1-2-.82,2.83,2.83,0,0,1-.78-2,3,3,0,0,1,.83-2.16,2.58,2.58,0,0,1,1.86-.73,2,2,0,0,1,1.68.78ZM75,240.91a1.34,1.34,0,0,0-.4,1,1.38,1.38,0,0,0,.36,1,1.42,1.42,0,0,0,1,.42,1.28,1.28,0,0,0,.9-.37,1.42,1.42,0,0,0,0-2,1.44,1.44,0,0,0-1-.37A1.37,1.37,0,0,0,75,240.91Z"/><path d="M80.27,239.22H82v.84a1.93,1.93,0,0,1,.67-.74,1.66,1.66,0,0,1,.92-.23,1.75,1.75,0,0,1,.56.08l-.1,1.62a1.64,1.64,0,0,0-.78-.19,1.13,1.13,0,0,0-.86.36A2,2,0,0,0,82,242.4v2.17H80.27Z"/><path d="M86.65,235.83v8.74H84.93v-8.74Z"/><path d="M93.53,242.19h-4a1.46,1.46,0,0,0,.32.91,1.16,1.16,0,0,0,.89.34,1.42,1.42,0,0,0,.7-.16,1,1,0,0,0,.37-.44l1.63.17a2.39,2.39,0,0,1-1,1.34,3.18,3.18,0,0,1-1.69.4,2.77,2.77,0,0,1-2.13-.77,2.87,2.87,0,0,1-.8-2.06,3,3,0,0,1,.82-2.11,3.16,3.16,0,0,1,4.17,0,3.06,3.06,0,0,1,.75,2.17Zm-1.59-1a1.36,1.36,0,0,0-.35-.62,1.27,1.27,0,0,0-1.69,0,1.2,1.2,0,0,0-.3.58Z"/><path d="M97.89,240.59a2,2,0,0,0-.95-.3.73.73,0,0,0-.49.16.37.37,0,0,0-.11.24.28.28,0,0,0,.17.24,3.21,3.21,0,0,0,.52.18l.46.14a2.27,2.27,0,0,1,.89.47,1.28,1.28,0,0,1,.42,1,2,2,0,0,1-.55,1.4,2.31,2.31,0,0,1-1.74.61,3.18,3.18,0,0,1-2.2-.77l.73-1.16a3,3,0,0,0,.59.4,1.61,1.61,0,0,0,.72.17,1,1,0,0,0,.54-.12.46.46,0,0,0,.18-.35.35.35,0,0,0-.19-.31,2.28,2.28,0,0,0-.53-.19l-.43-.13a2.14,2.14,0,0,1-.86-.49,1.32,1.32,0,0,1-.38-1,1.66,1.66,0,0,1,.52-1.24,2.36,2.36,0,0,1,1.62-.54,3.38,3.38,0,0,1,1.78.46Z"/><path d="M105.35,236.57a4.22,4.22,0,0,1,3.15,1.1,4.18,4.18,0,0,1,.06,5.7,4.31,4.31,0,0,1-3.15,1.2h-2.59v-8Zm-.68,6.44h.49a2.88,2.88,0,0,0,1.82-.54,2.5,2.5,0,0,0,.78-1.93,2.37,2.37,0,0,0-.66-1.73,2.64,2.64,0,0,0-1.94-.68h-.49Z"/><path d="M112.56,239.22v3a1.13,1.13,0,0,0,.3.86,1,1,0,0,0,.72.25,1.07,1.07,0,0,0,.73-.25,1.16,1.16,0,0,0,.29-.86v-3h1.73v3.12a2.15,2.15,0,0,1-.6,1.71,3.68,3.68,0,0,1-4.31,0,2,2,0,0,1-.59-1.61v-3.23Z"/><path d="M117.72,235.83h1.73v4a2.16,2.16,0,0,1,.65-.55,2,2,0,0,1,1-.23,2,2,0,0,1,1.51.54,2.12,2.12,0,0,1,.53,1.56v3.39h-1.73v-2.75a1.44,1.44,0,0,0-.29-1.07,1,1,0,0,0-.67-.24.94.94,0,0,0-.68.26,1.52,1.52,0,0,0-.36,1.12v2.67h-1.73Z"/><path d="M125.51,235.93a1,1,0,1,1-1,1A1,1,0,0,1,125.51,235.93Zm.86,3.29v5.35h-1.73v-5.35Z"/><path d="M131.9,239.22h1.73v5a3.13,3.13,0,0,1-.66,2.28,3.05,3.05,0,0,1-2.25.79,3.33,3.33,0,0,1-2.23-.68,2.38,2.38,0,0,1-.8-1.42h1.88a.89.89,0,0,0,.38.53,1.43,1.43,0,0,0,.74.18,1.21,1.21,0,0,0,.86-.29,1.59,1.59,0,0,0,.35-1.12v-.61a1.68,1.68,0,0,1-1.59.8,2.63,2.63,0,0,1-2-.75,2.79,2.79,0,0,1-.78-2,3.06,3.06,0,0,1,.79-2.13,2.63,2.63,0,0,1,1.94-.77,1.78,1.78,0,0,1,1.59.8Zm-2.15,1.67a1.47,1.47,0,0,0-.41,1,1.41,1.41,0,0,0,.37,1,1.28,1.28,0,0,0,1,.38,1.33,1.33,0,0,0,.94-.35,1.41,1.41,0,0,0,.42-1,1.36,1.36,0,0,0-.41-1,1.45,1.45,0,0,0-.94-.34A1.4,1.4,0,0,0,129.76,240.89Z"/><path d="M139,239.22h1.73v5a3.13,3.13,0,0,1-.66,2.28,3.05,3.05,0,0,1-2.25.79,3.33,3.33,0,0,1-2.23-.68,2.38,2.38,0,0,1-.8-1.42h1.88a.89.89,0,0,0,.38.53,1.43,1.43,0,0,0,.74.18,1.21,1.21,0,0,0,.86-.29,1.59,1.59,0,0,0,.35-1.12v-.61a1.68,1.68,0,0,1-1.59.8,2.63,2.63,0,0,1-2-.75,2.79,2.79,0,0,1-.78-2,3.06,3.06,0,0,1,.79-2.13,2.63,2.63,0,0,1,1.94-.77,1.78,1.78,0,0,1,1.59.8Zm-2.15,1.67a1.47,1.47,0,0,0-.41,1,1.41,1.41,0,0,0,.37,1,1.28,1.28,0,0,0,1,.38,1.33,1.33,0,0,0,.94-.35,1.41,1.41,0,0,0,.42-1,1.36,1.36,0,0,0-.41-1,1.45,1.45,0,0,0-.94-.34A1.4,1.4,0,0,0,136.9,240.89Z"/><path d="M21.43,56.45h13.3V43.75h7.7V77.1h-7.7V62.95H21.43V77.1h-7.7V43.75h7.7Z" style="fill:#bf2439"/><path d="M79.33,70.8H66.72l-2.55,6.3h-8L69.63,43.75h7.05L89.83,77.1h-8Zm-2.1-5.9-4.1-11.2L69,64.9Z" style="fill:#bf2439"/><path d="M113.77,43.75c1.8,0,5.9.1,8.5,2.55a8.6,8.6,0,0,1,2.4,6.3,7.83,7.83,0,0,1-1.1,4.25,6.1,6.1,0,0,1-2.8,2.45,8.68,8.68,0,0,1,4.6,2.25,8.14,8.14,0,0,1,2.15,6,9.12,9.12,0,0,1-2.6,6.75c-2.75,2.65-6.75,2.85-8.8,2.85H103.57V43.75Zm-2.6,13.55h1.25a7.14,7.14,0,0,0,3.9-1,3.54,3.54,0,0,0,1.35-3,3.4,3.4,0,0,0-1.3-2.8c-1.1-.85-2.6-.85-4-.85h-1.2Zm0,13.8H113c2,0,4.3-.05,5.7-1.35a3.68,3.68,0,0,0,1.1-2.8,3.59,3.59,0,0,0-1-2.7c-1.35-1.25-4-1.25-5.5-1.25h-2.1Z" style="fill:#bf2439"/><path d="M151.12,43.75V77.1h-7.7V43.75Z" style="fill:#bf2439"/><path d="M180.27,50.25V77.1h-7.7V50.25h-7.25v-6.5h22.2v6.5Z" style="fill:#bf2439"/></svg>