<svg xmlns="http://www.w3.org/2000/svg" viewBox="0 0 200 260"><title>book-war-of-art</title><g style="isolation:isolate"><g id="Layer_1" data-name="Layer 1"><rect x="1.17" width="199.65" height="260" style="fill:#fff"/><g style="mix-blend-mode:darken"><path d="M25.72,32.8h1.23V28.57h4.5V32.8h1.36v5.13H31.45v6c0,.77.12,1.12.79,1.12a1.79,1.79,0,0,0,.38,0v4.71a5.89,5.89,0,0,1-2.36.51c-2.71,0-3.37-2.15-3.37-5.74V37.93H25.72Z" style="fill:#777"/><path d="M38.51,26.91v7.47a3.15,3.15,0,0,1,2.62-2C43.25,32.35,44,35,44,38.7V49.85H39.46V39.47c0-1.06-.14-1.47-.45-1.47s-.5.67-.5,2.15v9.71H33.9V26.91Z" style="fill:#777"/><path d="M49.92,42.83c0,1.51.1,2.72.76,2.72s.69-.61.76-1.35h4.44c-.36,2.63-1.47,6.09-5.23,6.09-4.21,0-5.37-4.65-5.37-9,0-4.65,1.4-8.91,5.38-8.91,4.21,0,5.28,5,5.28,9,0,.54,0,1.09,0,1.51Zm1.4-3.72c0-1.22-.05-2.21-.69-2.21s-.71.9-.71,2.21Z" style="fill:#777"/><path d="M59.67,49.85l-3.3-27.64h6.15c.19,5,.41,10.21.63,17.14h.15c.63-7,.8-10.89,1.4-17.14H70c.54,6.49.8,10,1.32,16.78h.15c.13-4.53.47-12,.69-16.78h5.65L74.39,49.85h-6c-.47-5.13-.78-9-1.29-14.94H67c-.43,5.45-.84,9.69-1.27,14.94Z"/><path d="M83,45.52l-.5,4.33H76.74L80.9,22.21h7.92l4.29,27.64H86.94l-.5-4.33Zm2.65-7.29c-.19-2.2-.62-6.37-.91-9.29h-.13c-.3,3.28-.6,6.65-.88,9.29Z"/><path d="M100,40.08v9.77H94.24V22.21h8.61c3.91,0,5.46,3.69,5.46,7.69s-1.42,5.89-2.52,6.57c1.51.84,2.29,3.56,2.29,7.69v.68c0,1.48,0,4,.15,5H102.5a32.85,32.85,0,0,1-.3-5.61V42.88c0-1.6-.19-2.8-1.36-2.8Zm0-6.57h1c1.1,0,1.49-1,1.49-2.4s-.43-2.32-1.51-2.32h-1Z"/><path d="M120.34,41.33c0,5.51-2,9-5.5,9-3.9,0-5.4-4.33-5.4-9,0-4.84,1.57-9,5.49-9C118.47,32.35,120.34,36.49,120.34,41.33Zm-6.14,0c0,3.36.17,4.17.69,4.17s.67-.8.67-4.07c0-3.52-.16-4.23-.66-4.23S114.19,37.83,114.19,41.36Z" style="fill:#777"/><path d="M121.94,49.85V37.93h-1V32.8h1v-.32c0-3.72,1-5.9,3.73-5.9a5.07,5.07,0,0,1,1.73.26V31.3a.93.93,0,0,0-.38-.06c-.38,0-.47.45-.47.83v.74h1.17v5.13h-1.17V49.85Z" style="fill:#777"/><path d="M134.09,45.52l-.5,4.33h-5.74L132,22.21h7.92l4.29,27.64h-6.17l-.5-4.33Zm2.65-7.29c-.19-2.2-.62-6.37-.91-9.29h-.13c-.3,3.28-.6,6.65-.88,9.29Z"/><path d="M151.09,40.08v9.77h-5.74V22.21H154c3.91,0,5.46,3.69,5.46,7.69s-1.42,5.89-2.52,6.57c1.51.84,2.29,3.56,2.29,7.69v.68c0,1.48,0,4,.15,5h-5.72a32.85,32.85,0,0,1-.3-5.61V42.88c0-1.6-.19-2.8-1.36-2.8Zm0-6.57h1c1.1,0,1.49-1,1.49-2.4s-.43-2.32-1.51-2.32h-1Z"/><path d="M164.44,29.5h-3.88V22.21h13.66V29.5H170.4V49.85h-6Z"/></g><rect x="82" y="193" width="28" height="23" style="fill:#834f27"/><polygon points="116 203 110 216 110 193 116 184 116 203" style="fill:#322016"/><polygon points="110 193 82 193 92 184 116 184 110 193" style="fill:#c78f70"/><path d="M100.3,189.31c0,.07.12,0,0,.07S100.25,189.3,100.3,189.31Z" style="fill:#774d2d"/><path d="M113.34,187.31c-.15.38-.37,0-.53.26,0,0,0-.21,0-.16-.15.3-.42.14-.64-.07v-.06s-.08.16-.12.13a.41.41,0,0,0,0-.11c0,.12-.07.06-.08.15s0-.14,0-.19v.14c0,.32-.16,0-.24.16a.22.22,0,0,0,0-.09c-.13.2-.31.18-.46.26a.74.74,0,0,0,0-.19c0,.14,0,.18-.08.21,0-.14-.06.14-.12.06v0c0,.15-.06-.08-.08.1l0-.11c0,.21-.06-.1-.08,0v0c0,.05,0,0-.07,0v0c-.06.06-.1-.05-.09.11,0-.13.06-.06,0-.25a.9.9,0,0,1-.61.19.46.46,0,0,1-.06-.14s-.08,0-.09.12a.18.18,0,0,0,0-.09c0-.06,0,.18-.07.11a.34.34,0,0,0,0-.15c0,.13-.07.11-.11.16a.25.25,0,0,0,0-.09c0,.15-.09,0-.12.07v-.09c-.07-.11,0,.19-.06.13a.31.31,0,0,0,0-.1c0,.17-.13.12-.17.19a.19.19,0,0,0,0,0c-.05,0-.12,0-.17.06s0-.23-.07-.19-.09.09,0,.29c-.05,0-.14-.09-.17,0s0-.22,0-.24l0-.11c0-.08,0,0,0-.07s-.08.09-.1.06,0,.33-.1.36,0-.2,0-.24l-.05.36s0-.15,0-.09a.39.39,0,0,1,0,.12s-.08.05-.11-.13,0,0,0-.1,0,.07-.07.07v0s-.07.09,0,.18,0-.11,0-.06,0,.14-.09.15a.53.53,0,0,0,0-.13.58.58,0,0,1-.14.27c0,.09,0-.16,0-.11-.09-.11-.14.19-.22,0,0,0,0,.12,0,.1s0-.13-.07-.08,0,0,0,.05,0,0,0,0-.15.19-.24.09,0,.18,0,.18v-.11c0-.07-.06,0-.07-.08,0,.14.13-.13.09,0,0-.09-.05.19-.06,0,0,0-.06.14-.1,0s0-.16,0-.15,0,.06,0,.1l0,0c0,.11,0,0,0,.11,0-.09-.07.06-.08-.12v-.15s0,.16,0,.22a.29.29,0,0,1,0-.07c0,.22-.05,0-.06.16-.06-.07-.12,0-.16-.13,0,.07-.05.15-.1.11a.15.15,0,0,0,0-.08c0-.06,0,0-.05,0a1.06,1.06,0,0,0-.1-.2.7.7,0,0,0,0,.26c-.06-.21-.08.15-.15,0,0,0,0-.11,0-.16-.06-.21,0,.17-.11.07l0,.18c0-.11-.06.11-.08-.07,0,.07-.07-.05,0,.12-.1-.14-.2.12-.29-.19,0,0,0,0,0,.09s0-.07,0,0,0,.06,0,.08-.05,0,0-.2,0,.31-.11.25,0-.1,0-.09l0,.13c-.05,0,0-.16-.07-.29s-.06,0-.06.12l-.05-.15c0,.11,0,.08,0,.11v0c0-.05,0,0-.05,0a.2.2,0,0,0,.07.12c0,.06,0,0,0,.11,0-.12-.05-.08-.08-.09s0,.11,0,.11,0,0,0-.1,0,.06,0,0,0-.15-.06-.07,0,.24,0,.17a1,1,0,0,0,0-.12l-.05-.06v.11a.45.45,0,0,1,0-.05c0,.12-.06,0-.05.18s-.06-.07-.08-.08h0c0-.06-.06,0-.07.06v0s0,0-.05.08-.07-.41-.09-.27,0,.21,0,.28-.12.12-.2,0c0,0,0,.07,0,.1s-.18.16-.28,0c0-.05,0-.11,0-.17,0,.1,0-.1,0,.07s0,.15.05.18a.1.1,0,0,1-.18,0,.14.14,0,0,1,0,.11c0-.16-.07-.18-.09-.12v.1l0-.1s0,.2,0,.12a.73.73,0,0,0,0-.1c0,.08,0,.23-.09.15l-.05-.14a.16.16,0,0,0,0,.14c-.07-.08-.11-.08-.15-.2-.05.31-.2.35-.32.35v-.07c0-.06,0,.13,0,.08s-.05-.14,0-.23,0,.14-.06.17,0-.06,0,.06-.08-.06-.06.08a1,1,0,0,1,0-.22l0,.07c-.06-.16,0-.31,0-.51l0,0c-.05-.15,0-.18,0-.22a.76.76,0,0,0,0,.35c-.05.05,0,.35,0,.35s0,0,0-.14,0,.08-.08,0a.36.36,0,0,1,0,.23c0-.06,0-.14-.05-.15s0,.15,0,.2-.06,0-.05.11c0-.13,0-.31-.07-.37,0,.13,0,.18,0,.37a.46.46,0,0,1,0-.21c0-.07,0,.24-.08,0l0,.13-.06-.14s0,.19-.08,0c0,0-.06,0,0,.15s0-.11.07.07c-.05-.14,0,0-.05.08l0-.07s0,0,0,.1a.23.23,0,0,0,0-.11v.12c0,.07-.05-.2-.09-.16l0-.1s0-.08-.06,0l0,.32c0,.05,0-.12,0,0v-.13s-.06-.17-.09-.16a.36.36,0,0,0,0,.25s-.05-.05-.06-.13,0,.11,0,.18-.09-.16-.14-.25v-.18h0c0-.15,0-.1-.06-.25s0,0,0,.08c.1.23,0,.33.08.55s-.16-.51-.15-.16c0,.05,0,.22.06.15s0,.22,0,.14-.09-.21-.07-.35c0,.07,0,0,0,0s0-.22-.09-.21-.05,0,0,.15,0,0,0,.11-.09-.13-.06.09c0,0,.07.1.09.18l0,.06v-.08c-.07,0,0,.15,0,.14l-.07-.15c0-.14.09,0,0-.18,0,0,0,.12-.07.07v-.05s-.11-.3-.11-.11,0,.08,0,.17,0,.13-.07.15c0-.17-.07,0-.08-.18,0,.09.12.06.1-.1s.05,0,0-.19c0,0-.1-.18-.14-.31s0,.05,0,.07,0,.11.08.23-.09.06-.09.19c0-.05-.06-.17,0-.19a.19.19,0,0,1-.19,0c.1.18,0,.07,0,.22a.49.49,0,0,1,.12.25s0-.08,0-.12-.09-.15-.06,0c0-.08-.07-.23-.1-.39,0,.1,0-.11-.07-.09a.56.56,0,0,1-.07.22c-.11-.12-.13,0-.17.07s-.11-.23-.15-.25.1.16,0,.11v0s-.14-.07,0,.16l-.08-.18s0,0,0,.05a.51.51,0,0,1-.07-.14c-.09-.1-.05.05-.08.07l.08.09c0,.1-.09,0-.1.09l-.07-.08,0,.07c-.07-.08-.14-.11-.09,0a1.13,1.13,0,0,1-.11-.26c.07,0,.06.12.15.19s.09,0,0-.08,0,0,0,.07c-.1-.12-.07-.13-.11-.23s-.05,0,0,0,0-.11,0-.13.06.07.08.12c-.07-.12-.05-.17,0-.17s0-.14.12-.12a1.18,1.18,0,0,1,.05.31c.06,0,0,0,.09,0a.87.87,0,0,1-.07-.32l0,.09c0-.06,0-.2,0-.2a1,1,0,0,0,.26,0l0,.09c0-.22.09-.12.11-.22.11.07.15-.14.24,0a.59.59,0,0,1,.39-.22v.15c0-.11,0,.08.06.05s0-.16,0-.25c.09.09.15,0,.19-.16l0,.1c0-.2.13-.05.21,0s.05.13.07.11a.59.59,0,0,1,.07-.27.24.24,0,0,1,.18.07c.12-.26.31-.15.46-.31l0,.12c.12-.28.36-.09.48-.24l0,.2c.05.05.09-.07.06-.21.05.05.09-.12.15,0s0-.1.07-.13.13,0,.21,0h0s0,.13,0,.14.13,0,.06-.2c.11.13.2-.15.31,0,0-.06,0-.08,0-.13s.18.11.23,0c0,0,0,.11,0,.12s0-.09,0-.13.28.09.39,0,.42-.12.62-.17v0c0-.19.18.17.2-.12,0,0,.06,0,.06.11,0-.14.16.1.22-.07,0,0,0,0,0,0s.14-.06.24,0a.19.19,0,0,0,0,.09c0,.09.05-.21.1,0,0,0,0-.12,0-.11.19.07.37-.1.55-.18.15.12.05.39.14.21,0,0,0-.09,0,0s.09.25.11.13,0-.08,0-.17c.09.08.12.21.18.1v.08c.05-.22.15-.12.19-.37.41-.09.8-.27,1.21-.33a5.69,5.69,0,0,1,1.22,0c.11.19.12.19.22.1a.15.15,0,0,0,0,.07c0-.16.07,0,.07-.18a2.22,2.22,0,0,0,.45-.05s0,.15,0,.14l0-.11v0a.2.2,0,0,0,0-.16c.38-.17.8.13,1.18.07.1.06.22,0,.32,0a2,2,0,0,0,.45.24.64.64,0,0,0,.23,0,3,3,0,0,1,.39,0S113.41,187.2,113.34,187.31Z" style="fill:#774d2d"/><path d="M100.32,189.24c.07,0,.12,0,.19.13S100.38,189.29,100.32,189.24Z" style="fill:#774d2d"/><path d="M101.51,189.53s0,0,0,0,0,.08,0,0S101.52,189.56,101.51,189.53Z" style="fill:#774d2d"/><path d="M101.73,189.51a.17.17,0,0,1,0,.15Z" style="fill:#774d2d"/><path d="M102,189.74c0,.05,0,.09,0,.09A.45.45,0,0,1,102,189.74Z" style="fill:#774d2d"/><path d="M102,189.58s0,0,.05.07S102,189.7,102,189.58Z" style="fill:#774d2d"/><path d="M102.45,189.68s0-.07,0,0S102.47,189.79,102.45,189.68Z" style="fill:#774d2d"/><path d="M102.63,189.53s0,0,0,0a.12.12,0,0,1,0,.09Z" style="fill:#774d2d"/><polygon points="106.45 188.63 106.43 188.67 106.43 188.6 106.45 188.63" style="fill:#774d2d"/><path d="M108.18,188.44s0,.07,0,.08S108.2,188.42,108.18,188.44Z" style="fill:#774d2d"/><polygon points="109.08 187.98 109.07 187.99 109.06 187.84 109.08 187.98" style="fill:#774d2d"/><path d="M97.13,175.64s-.08.1,0,0S97.15,175.6,97.13,175.64Z" style="fill:#747955"/><path d="M101.87,179.94c-.31.24-.13-.12-.35,0,0,0,.14-.15.09-.13-.26.17-.24,0-.16-.29l0,0s-.13.09-.13.05l.07-.08c-.08.09-.06,0-.13.08l.11-.16-.1.09c-.24.22,0-.07-.19,0l.06-.06c-.18.1-.22,0-.33,0l.13-.14c-.1.1-.14.11-.17.12s-.11.08-.08,0l0,0c-.11.1,0-.08-.09,0l.07-.09c-.14.15.05-.1,0,0l0,0s0-.05,0,0v0c-.06,0,0-.08-.1,0,.08-.1.06,0,.17-.18-.18.06-.24,0-.32-.1a.85.85,0,0,1,.08-.12s0,0-.11.05l.05-.08c0-.06-.13.12-.1.05l.11-.11c-.1.08-.1.05-.14.07l.07-.07c-.11.09,0,0-.08,0l.07-.06c.05-.11-.13.14-.11.07l.07-.07c-.13.11-.12,0-.18.07l0,0s0-.06-.09,0,.15-.17.11-.16-.09,0-.21.19c0,0,0-.12,0-.08s.14-.18.17-.18l.06-.09c.05-.06,0,0,.05,0s-.08,0-.07,0-.24.22-.28.22.13-.16.16-.18l-.27.24s.1-.11.05-.09l-.09.08s-.06,0,.05-.13,0,0,.07-.07-.06,0-.07,0l0,0s-.08,0-.14.12.07-.08,0,0-.11.08-.13.07l.09-.09a.75.75,0,0,1-.23.13c-.06.06.11-.11.09-.07.05-.11-.17.08-.08-.07l-.06.08s.08-.11,0-.09,0,0-.05,0,0,0,0,0-.18.08-.14,0a.51.51,0,0,1-.14.11l.08-.08c0-.06,0,0,0-.09-.11.09.13,0,0,0s-.15.11,0,0-.11.08-.06,0,.12-.11.1-.11,0,0-.08.05l0,0c-.07.08,0,0-.08.07.06-.07-.06,0,.06-.12l.1-.11a1.78,1.78,0,0,0-.16.15l0-.05c-.15.17,0,0-.13.09,0-.07,0,0,0-.15-.06,0-.12.09-.11,0l.06,0c0-.06,0,0,0,0a1.88,1.88,0,0,0,.11-.18,1.4,1.4,0,0,0-.18.19c.13-.18-.13.07,0-.09a.4.4,0,0,0,.12-.12c.13-.17-.13.1-.08,0l-.12.14c.07-.09-.1.05,0-.08-.05,0,0-.07-.1.07.07-.14-.14,0,.05-.26,0,0,0,0-.07.06s.06,0,0,0l-.06.05s0-.06.12-.16-.22.21-.2.13.07-.08.05-.08l-.1.08s.1-.13.18-.23,0,0-.1.06l.09-.13c-.07.09-.06,0-.08.07l0,0s0,0,0,0a.32.32,0,0,0-.07.11l-.09.06c.08-.09,0-.08,0-.1s-.08.07-.08.07,0,0,.06-.08,0,.05,0,0,.1-.12,0-.07-.16.18-.12.11l.09-.08,0-.06-.07.08,0,0c-.08.08,0,0-.14.1s0-.07,0-.09h0c0-.06,0,0-.06,0l0,0s0,0-.07,0,.27-.32.17-.23-.16.13-.2.19-.12,0,0-.11l-.07.07c0-.06-.16,0,0-.16a.73.73,0,0,0,.12-.13c-.07.07.06-.09-.06,0a.71.71,0,0,0-.12.15c-.06,0-.09,0,0-.09a.26.26,0,0,1-.07.08c.11-.12.11-.15.06-.12l-.07.07.06-.08s-.14.15-.09.07l.07-.08c-.06,0-.17.14-.13.06l.08-.12a.31.31,0,0,0-.1.1.59.59,0,0,1,.1-.2c-.24.19-.3.15-.33.1l0-.05c0-.06-.09.09-.07,0s.09-.12.16-.18-.11.08-.14.09,0,0,0,.05,0-.08-.07,0l.15-.17-.06,0c.1-.14.23-.2.35-.37h0c.09-.12.14-.11.15-.17a1.53,1.53,0,0,0-.24.25s-.24.25-.26.22,0,0,.11-.09-.07,0,0,0a.69.69,0,0,1-.16.17c0-.06.1-.1.09-.12s-.12.09-.14.15,0-.06-.09,0a2.6,2.6,0,0,0,.25-.28,3.63,3.63,0,0,0-.26.26.88.88,0,0,1,.14-.17c0-.07-.18.15,0,0l-.09.1.08-.12s-.15.11,0,0c0,0,0,0-.11.1s.08-.06,0,.08c.09-.12,0,0-.07,0l0-.06s0,0-.08.06l.07-.09-.08.08c-.06,0,.13-.16.09-.15l.07-.06s.05-.08,0-.06l-.22.23s.08-.09,0,0l.1-.09s.11-.14.09-.15a.69.69,0,0,0-.17.18s0-.06.08-.12-.07.09-.13.13l.15-.24.13-.12h0c.11-.1.07-.09.17-.19s0,0-.06,0c-.14.2-.24.23-.38.4s.34-.42.08-.18c0,0-.16.16-.1.13s-.16.16-.11.07.13-.18.24-.26c0,.05,0,.05,0,0s.15-.17.13-.18,0,0-.11.09,0,0-.07.09.08-.13-.08,0c0,0-.06.1-.12.16l0,0,.06-.06c0-.07-.11.11-.11.07l.1-.13c.1-.1,0,.08.14-.1,0,0-.09.06-.06,0l0,0s.2-.25.06-.13a.67.67,0,0,0-.12.12s-.11.06-.13.06,0,0,.12-.15c-.06.08,0,.1.1,0s0,0,.14-.11c0,0,.12-.17.2-.27s0,0-.06,0l-.16.19s-.06,0-.15.07a.57.57,0,0,1,.13-.14s-.06,0-.06-.08c-.12.16-.06,0-.16.15a.87.87,0,0,1-.17.22s.06-.07.08-.1.1-.14,0,0c.06,0,.17-.18.27-.29-.07.05.07-.08.06-.1a.63.63,0,0,1-.18.09c.08-.13-.06-.05-.08-.07s.17-.2.17-.23-.12.15-.08.07l0,0s0-.12-.13.06l.13-.14s0,0,0,0a1,1,0,0,1,.11-.12c.08-.11,0,0-.06,0l-.07.09c-.08,0,0-.05-.07,0L97,176l-.06,0c.07-.08.11-.14,0-.08l.21-.17c0,.06-.1.09-.17.18s0,.07.06,0,0,0,0,0a1.34,1.34,0,0,1,.18-.18s0,0,0,0,.07-.05.09,0-.06.08-.09.11.13-.12.12-.08.1,0,.09,0a1.93,1.93,0,0,1-.23.2c0,.06,0,0,0,.07a2,2,0,0,1,.24-.22l-.07.08s.15-.14.15-.1a.21.21,0,0,0,0,.12l-.07.08c.16-.15.1,0,.18-.08,0,.1.13,0,0,.13.1,0,.2,0,.23,0l-.11.1c.08-.07,0,.07,0,.06s.11-.1.18-.16c-.05.11.06,0,.15,0l-.07.08c.15-.12.06,0,.07.07s-.08.11-.07.11a1,1,0,0,1,.21-.15s0,.07,0,.13c.21-.12.18,0,.33,0l-.07.09c.23-.14.15.1.29,0l-.14.15c0,.06.07,0,.16-.12,0,.06.11,0,0,.1s.08-.05.11-.06,0,.08.06.08v0a.43.43,0,0,0-.09.11s0,.08.16-.11c-.06.13.15,0,.06.15a.5.5,0,0,1,.09-.09s0,.15.07.09-.08.08-.07.09.06-.06.09-.09,0,.18.08.19.2.09.29.14l0,0c.15-.12-.07.19.14,0,0,0,0,0-.06.1.11-.08,0,.14.11,0h0c0,.11.08,0,0,.12l-.07.06c-.05.08.16-.13,0,.05a.29.29,0,0,0,.07-.08c0,.13.18.08.28.1s-.26.3-.1.2c0,0,.06-.07,0,0s-.15.22-.06.13.06-.05.12-.12c0,.1-.11.2,0,.14l-.05.06c.17-.14.13,0,.31-.19.18.1.42.13.59.24s.34.21.4.44c-.1.18-.09.18,0,.15l0,.05c.11-.12,0,0,.14-.1,0,.07.12.08.17.13s-.11.1-.1.1l.08-.07,0,0a.38.38,0,0,0,.11-.11c.24,0,.16.39.33.49,0,.08.08.08.14.08,0,.26-.06.48.15.46A2,2,0,0,1,101.87,179.94Z" style="fill:#747955"/><path d="M97.16,175.65a1,1,0,0,1-.15.18Z" style="fill:#747955"/><path d="M96.94,176.58l0,0s-.06,0,0,0Z" style="fill:#747955"/><path d="M97,176.69a.22.22,0,0,1-.12.08Z" style="fill:#747955"/><path d="M96.87,177c0,.05-.06.08-.07.07Z" style="fill:#747955"/><path d="M97,176.87s0,0,0,.07S96.9,177,97,176.87Z" style="fill:#747955"/><path d="M97,177.18s.06,0,0,0S96.94,177.26,97,177.18Z" style="fill:#747955"/><path d="M97.17,177.17s0,0,0,0a.21.21,0,0,1-.07.07Z" style="fill:#747955"/><polygon points="98.83 178.23 98.8 178.25 98.84 178.2 98.83 178.23" style="fill:#747955"/><path d="M99.47,178.8s0,.06,0,.07S99.49,178.8,99.47,178.8Z" style="fill:#747955"/><polygon points="100.06 178.83 100.05 178.82 100.15 178.71 100.06 178.83" style="fill:#747955"/><path d="M101.89,182.58c0,.05.11.08,0,.06S101.85,182.56,101.89,182.58Z" style="fill:#747955"/><path d="M111.15,177.45c.21.34-.19.22-.1.48,0,0-.15-.15-.14-.08.12.31-.18.33-.44.26l0-.05c-.05,0,0,.16,0,.16a.51.51,0,0,0-.07-.09c.07.1,0,.08,0,.16s-.1-.1-.14-.13l.07.12c.16.28-.12.06-.07.23a.27.27,0,0,0,0-.07c0,.22-.12.28-.18.42a.91.91,0,0,0-.1-.16c.07.12.06.18,0,.22-.09-.11,0,.14-.06.1v0c.06.14-.09-.05,0,.12l-.08-.09c.1.18-.09-.07-.06,0l0,0c0,.06-.06,0-.06,0v0c0,.07-.1,0,0,.13-.08-.1,0-.08-.11-.22-.06.23-.23.29-.38.37a.53.53,0,0,1-.1-.11s0,.06,0,.13a.22.22,0,0,0-.06-.07c-.05,0,0,.17,0,.12a.41.41,0,0,0-.06-.14c0,.12,0,.12,0,.18a.3.3,0,0,0,0-.09c0,.14-.07,0-.06.1l0-.09c-.1-.08.07.18,0,.14a.37.37,0,0,0,0-.1c0,.17-.05.15-.07.22v0s-.1,0-.12.1-.09-.21-.12-.16,0,.1.07.28c-.05,0-.14,0-.14,0s-.11-.2-.08-.23l-.07-.09c0-.07,0,0,0-.07s0,.1-.06.08.07.33,0,.37-.09-.18-.09-.22l.07.36s-.06-.13-.06-.08a.46.46,0,0,1,0,.12s-.05.07-.13-.1,0,0,0-.1,0,.07,0,.09v0s0,.1,0,.18,0-.1,0-.06,0,.15,0,.16a.62.62,0,0,0,0-.13.58.58,0,0,1,0,.28c0,.08,0-.15,0-.11s-.06.21-.17.06,0,.11,0,.09-.08-.12-.08-.07,0,0,0,.06,0,0,0,0-.07.21-.17.14,0,.18,0,.18l0-.11c0-.06,0,0-.08-.06,0,.14.07-.15.07,0,0-.09,0,.19,0,0,0,0,0,.15-.07.06s0-.16-.05-.14,0,.06,0,.1v.05c0,.1,0,0,0,.11,0-.08,0,.07-.1-.1l0-.14a1.11,1.11,0,0,0,0,.22l0-.06c.08.21,0,0,0,.17-.06-.06-.09,0-.16-.1,0,.07,0,.16,0,.12a.17.17,0,0,0,0-.08c0-.05,0,0,0,0a1.21,1.21,0,0,0-.13-.17.85.85,0,0,0,.07.25c-.1-.2,0,.16-.13,0a.25.25,0,0,0,0-.16c-.1-.2,0,.17-.07.09l.07.17c-.06-.1,0,.12-.08-.05,0,.07-.07,0,0,.13-.12-.12-.13.14-.28-.14,0,0,0,0,0,.1s0-.07,0,0,0,.05,0,.08-.06,0-.09-.18.06.3,0,.26,0-.09-.05-.08v.13s-.08-.15-.13-.26,0,0,0,.12l-.08-.14c.06.1,0,.08,0,.11v0s0,0,0,0a.22.22,0,0,0,.09.11c0,.06,0,0,0,.11,0-.12-.06-.07-.08-.07s0,.11,0,.11,0,0-.05-.09,0,.05,0,0-.07-.14-.06-.06.09.22,0,.16a1.18,1.18,0,0,0,0-.12l-.06,0,0,.1,0,0c0,.11,0,.05,0,.18s-.06-.06-.08-.06h0c0-.05-.05,0,0,.07v0s0,0,0,.09-.17-.39-.14-.24,0,.21.07.27-.06.14-.17,0a.3.3,0,0,1,0,.1c-.09,0-.1.18-.24,0s0-.1-.07-.16c0,.1-.06-.09,0,.07a.45.45,0,0,0,.09.17c0,.07-.08.1-.14,0a.17.17,0,0,1,0,.1c-.06-.15-.1-.16-.1-.09l0,.09-.06-.09s.07.19,0,.12l0-.09c0,.08,0,.22,0,.16l-.08-.12a.2.2,0,0,0,0,.13c-.08-.06-.11-.06-.18-.16.05.31-.05.36-.14.39l0-.07c-.05,0,0,.12,0,.08a1.62,1.62,0,0,1-.1-.21c-.07-.05,0,.14,0,.18s0-.06,0,0-.08,0,0,.09a1.21,1.21,0,0,1-.1-.2V182c-.1-.14-.08-.3-.2-.47v0c-.09-.13,0-.18-.1-.2a.93.93,0,0,0,.14.32c0,.06.14.32.09.33s0,0,0-.14,0,.08,0,.05a.45.45,0,0,1,.1.21c-.05,0,0-.13-.09-.13s0,.15.09.19-.06,0,0,.11c-.07-.11-.11-.29-.18-.33.07.11,0,.18.15.34a.58.58,0,0,1-.11-.19c-.06-.06.07.23-.06,0l.06.12-.1-.12s0,.18-.06,0c0,0,0,0,0,.15s0-.1.08.05c-.09-.12,0,0,0,.09l0-.07s0,0,0,.1a.29.29,0,0,0-.06-.1l.05.11c0,.07-.11-.17-.12-.13l0-.09s-.06-.07-.06,0l.14.29c0,.05-.07-.1,0,0l0-.12s-.11-.14-.13-.13a.46.46,0,0,0,.11.22s-.06,0-.09-.11.06.1.08.17l-.2-.2-.07-.17h0c-.05-.13-.07-.09-.14-.22s0,0,0,.08c.16.19.14.3.27.48s-.32-.44-.18-.12c0,0,.11.2.1.13s.1.2,0,.14-.15-.17-.19-.3c0,.06,0,0,0,0s-.12-.19-.15-.17,0,0,0,.14,0,0,.08.09-.12-.1,0,.1c0,0,.09.08.14.15v.06l0-.07c-.07,0,.07.13,0,.14l-.11-.13c-.07-.12.09,0-.05-.17,0,0,0,.11,0,.08v-.05s-.2-.25-.13-.07,0,.07.09.14,0,.13,0,.16c-.09-.14-.05,0-.13-.14.07.07.12,0,0-.12s0,0-.06-.17c0,0-.15-.14-.23-.25s0,.05,0,.07.08.09.15.19,0,.08,0,.19-.12-.14-.11-.16a.13.13,0,0,1-.14.08c.15.14,0,.07.1.19a.59.59,0,0,1,.2.2s-.05-.07-.08-.1-.13-.12,0,0c0-.08-.14-.2-.23-.33,0,.09-.07-.09-.09-.07a.53.53,0,0,1,0,.22c-.13-.09-.09.08-.12.11s-.17-.19-.21-.2.14.13.06.1l0,0s-.14,0,0,.16l-.12-.15s0,0,0,0a.6.6,0,0,1-.1-.12c-.11-.08,0,.05,0,.08l.09.07c0,.1-.08,0-.08.1l-.08-.08,0,.07c-.07-.08-.14-.11-.09,0l-.13-.25c.06,0,.08.11.16.18s.09,0,0-.07,0,0,0,.06-.09-.12-.15-.21,0,0,0,0,0-.09,0-.11.07.06.1.1-.1-.15,0-.15,0-.12,0-.12a1.3,1.3,0,0,1,.15.27c.07,0,0,0,.09,0a1.16,1.16,0,0,1-.17-.28l.07.08c0-.06-.11-.18-.06-.18a.74.74,0,0,0,.2-.08l.06.08c-.11-.19,0-.12,0-.22s.07-.17.2,0c.06-.13.1-.27.23-.3l.06.13c0-.1.06.06.07,0s-.06-.14-.09-.23c.11.07.11-.08.1-.19l.05.09c-.06-.19.09-.08.16-.09s.09.11.1.09a.64.64,0,0,1,0-.28.19.19,0,0,1,.17,0c0-.27.21-.2.28-.39l.06.1c0-.3.27-.16.33-.33l.07.19c.06,0,.06-.08,0-.21.06,0,0-.13.14,0s0-.11,0-.14.12,0,.17-.05h0s0,.12.07.13.11,0,0-.2c.13.1.12-.17.26,0a.29.29,0,0,1,0-.12c.06,0,.18.07.19-.05,0,0,0,.11.05.11s0-.08,0-.12.25,0,.33,0,.31-.19.46-.27l0,0c0-.19.19.13.13-.14,0,0,.05,0,.08.09,0-.14.16.07.16-.1,0,0,0,0,0,0s.1-.08.2,0a.21.21,0,0,0,0,.09c.06.08,0-.21.08,0,0,0,0-.11,0-.1.17,0,.26-.16.38-.26.15.09.15.37.16.17,0,0,0-.09,0,0s.14.23.12.1,0-.08,0-.16.16.18.16.06l0,.07c0-.22.09-.14,0-.39.29-.16.53-.41.79-.57s.5-.32.83-.35c.16.14.16.13.19,0a.2.2,0,0,0,0,.06c-.08-.14,0,0,0-.18a1,1,0,0,0,.27-.18s.06.14.07.12l0-.1,0,0a.27.27,0,0,0-.08-.14c.13-.27.55-.16.72-.38.09,0,.12-.1.14-.17.29,0,.55,0,.57-.29C110.82,177,111.14,177.32,111.15,177.45Z" style="fill:#747955"/><path d="M101.92,182.54a.57.57,0,0,1,.18.16Z" style="fill:#747955"/><path d="M103,182.69l0,0s0,.07,0,0S103,182.72,103,182.69Z" style="fill:#747955"/><path d="M103.19,182.62a.18.18,0,0,1,0,.15Z" style="fill:#747955"/><path d="M103.49,182.77s.06.07,0,.08Z" style="fill:#747955"/><path d="M103.41,182.63s0,0,.07.05S103.47,182.73,103.41,182.63Z" style="fill:#747955"/><path d="M103.81,182.62s0-.07,0,0S103.86,182.71,103.81,182.62Z" style="fill:#747955"/><path d="M103.89,182.44s0,0,0,0a.15.15,0,0,1,0,.08Z" style="fill:#747955"/><polygon points="106.62 180.91 106.61 180.95 106.59 180.88 106.62 180.91" style="fill:#747955"/><path d="M108,180.39c0-.05,0,.06,0,.07S108,180.37,108,180.39Z" style="fill:#747955"/><polygon points="108.54 179.75 108.54 179.75 108.48 179.62 108.54 179.75" style="fill:#747955"/><path d="M99.94,189.15c0,.06.13,0,0,.05S99.9,189.15,99.94,189.15Z" style="fill:#95735a"/><path d="M102.68,175.72c.38.18,0,.38.22.57,0,0-.21,0-.16,0,.29.19.09.46-.14.66l-.06,0s.15.1.12.14a.39.39,0,0,0-.11,0c.12,0,0,.08.14.11s-.14,0-.19,0l.13,0c.31.09,0,.16.12.27h-.09c.18.16.13.35.19.53a.71.71,0,0,0-.19,0c.14,0,.17.08.2.12-.15,0,.13.09,0,.14h0c.15.05-.09.05.09.1h-.12c.2,0-.11,0,0,.09h0s-.06,0,0,.07h0c0,.07-.07.1.09.11-.13,0-.05-.07-.24-.05a1,1,0,0,1,.06.68.44.44,0,0,1-.15,0s0,.09.1.12l-.09,0c-.06,0,.17.06.09.1a.32.32,0,0,0-.15,0c.12.05.09.1.13.15a.24.24,0,0,0-.09,0c.13.07,0,.08,0,.14l-.09,0c-.12.05.19,0,.12.09a.29.29,0,0,0-.1,0c.16.08.09.16.14.22h0c0,.06,0,.12,0,.19s-.22,0-.2,0c.18,0,.06.12.27.11,0,0-.12.13-.06.17s-.23,0-.24-.05l-.12,0c-.07,0,0,0-.07,0s.07.1,0,.11.31.13.32.2-.2,0-.23,0l.34.15s-.15,0-.1,0a.37.37,0,0,1,.11,0s0,.1-.15.08,0,0-.1,0,.06.05.05.09h0s.06.09.17.08-.11,0-.05,0,.12.09.12.13a.49.49,0,0,0-.13,0,.57.57,0,0,1,.22.22c.09,0-.15,0-.11-.05-.13.06.14.19,0,.23,0,0,.12,0,.1,0s-.14,0-.1,0,0,0,0,.07,0,0,0,0,.14.21,0,.27c0,0,.17.08.16.1l-.11,0c-.07,0,0,.07-.1.05.13.07-.09-.18,0-.1-.1,0,.16.11,0,.07s.12.1,0,.12-.15-.06-.15,0,.05,0,.08.08l0,0c.11,0,0,0,.1,0-.09,0,0,.09-.14,0l-.14,0s.14.07.2.1h-.07c.22,0,0,.05.14.11-.08,0,0,.12-.17.12.06.05.13.1.07.13a.14.14,0,0,0-.07,0c-.07,0,0,0,0,.06a1,1,0,0,0-.22,0,.66.66,0,0,0,.25.08c-.22,0,.12.13-.09.14,0,0-.09-.08-.15-.06-.22,0,.14.1,0,.14l.18,0c-.12,0,.09.1-.09.06.06,0-.07.05.1.08-.17.06,0,.24-.28.23,0,0,0,0,.08.06s-.06,0,0,0,0,0,.07,0-.06,0-.2,0,.28.13.19.19-.1,0-.09,0l.11.07s-.17,0-.29,0,0,.06.09.1h-.16c.12,0,.07,0,.09.06l0,0c-.05,0,0,0,0,.05a.19.19,0,0,0,.14,0c.05,0,0,0,.09.08-.12,0-.09,0-.11,0s.1.05.09.06,0,0-.1,0,.06,0,0,0-.16,0-.09,0,.24,0,.15.08l-.11-.05-.07,0,.11,0h-.05c.11,0,0,.08.14.12s-.09,0-.1,0h0c-.07,0,0,.06,0,.1h0s0,.05.06.09-.41-.09-.29,0,.18.11.26.11c-.09,0,.07.17-.12.19,0,0,.07,0,.09,0s.07.24-.16.27c0,0-.11,0-.17,0,.09,0-.11,0,.06.05s.14,0,.19,0a.11.11,0,0,1-.09.17.13.13,0,0,1,.1,0c-.15,0-.19,0-.14,0l.09,0H102s.19.07.09.08l-.1,0c.07.05.19.14.1.15H102a.15.15,0,0,0,.13.05c-.1,0-.12.08-.25.07.26.19.23.35.17.47l-.07,0c-.08,0,.12.05.06.06s-.15,0-.23-.07.1.1.13.14-.05,0,.06,0-.09,0,0,.09a.86.86,0,0,1-.21-.07l.06,0c-.17,0-.27-.17-.48-.19v0c-.15,0-.14-.12-.21-.07a.72.72,0,0,0,.32.13c0,.07.32.13.29.19s0-.06-.12-.08,0,.08,0,.1a.33.33,0,0,1,.21.08c-.08,0-.13-.06-.15,0s.13.09.19.07-.07,0,.07.1c-.13,0-.28-.14-.36-.11.13,0,.15.12.34.14a.41.41,0,0,1-.21-.06c-.08,0,.2.14,0,.08l.12,0h-.15s.14.14,0,.07c0,0,0,.07.13.09s-.08-.07.1,0c-.15,0,0,.06,0,.1l-.07,0s0,0,.08.08a.2.2,0,0,0-.11,0l.11,0c0,.07-.2,0-.18,0l-.07-.07s-.09,0-.07,0l.29.13s-.12,0,0,0l-.11-.08s-.18,0-.19,0,.16.12.23.1-.07,0-.14,0,.11,0,.16.09h-.29l-.16-.09v0c-.13-.08-.11,0-.25-.08s0,0,0,.08c.25,0,.3.16.51.21,0,.09-.52-.12-.22.06.06,0,.21.09.16,0s.2.1.1.12-.23,0-.33-.13c.07,0,.06,0,0,0s-.21-.07-.22,0,0,.07.11.1,0,0,.12,0-.16,0,0,.11c0,0,.12,0,.2,0l0,.06-.08,0c-.08,0,.14.07.1.12l-.17,0c-.13-.06.09-.07-.13-.13,0,0,.08.09,0,.11l0,0s-.31-.07-.16,0,.08,0,.16.06.08.12.08.17c-.16-.06,0,.07-.19,0,.1,0,.12-.08,0-.16s0,0-.14-.12c0,0-.21,0-.33,0s0,0,.05.06.12,0,.24.07c-.05,0,0,.12.1.19-.06,0-.18,0-.18-.07a.23.23,0,0,1-.09.2c.2,0,0,.09.19.11a.42.42,0,0,1,.28,0s-.08,0-.13,0-.18,0,0,.07c0-.08-.23-.09-.37-.16.07.07-.1,0-.12,0a.53.53,0,0,1,.13.21c-.16,0-.06.15-.07.21s-.24-.08-.28-.06.19,0,.09.06l0,0s-.15.06.08.16l-.17-.08s0,0,0,0a.46.46,0,0,1-.15-.06c-.14,0,0,.08,0,.11l.11,0c.06.09-.06.1,0,.17l-.1,0,0,.06c-.1,0-.17,0-.1,0l-.22-.19c.07,0,.12.07.22.1s.09,0,0-.09,0,0,0,.06c-.15,0-.13-.08-.22-.13s0,0,0,0-.07-.07-.06-.11.09,0,.13,0c-.13-.05-.15-.1-.1-.13s-.06-.12,0-.15a1,1,0,0,1,.26.18c.08,0,0,0,.09,0a1,1,0,0,1-.28-.18l.1,0c0-.06-.18-.11-.13-.15a.65.65,0,0,0,.14-.21l.1,0c-.19-.11,0-.15-.11-.22.12,0,0-.21.15-.19a.66.66,0,0,1,0-.46l.13.07c-.09-.06.09,0,.07,0s-.13-.08-.21-.13c.13,0,0-.16,0-.25l.1,0c-.16-.12,0-.14.07-.2s.14,0,.13,0-.13-.11-.2-.2a.25.25,0,0,1,.15-.13c-.17-.23,0-.35-.06-.56l.12,0c-.19-.23.08-.37,0-.55l.19.07c.07,0,0-.12-.17-.14.07,0-.07-.14.1-.12s-.08-.08-.09-.12.09-.11.08-.2l0,0s.12,0,.14,0,.08-.1-.16-.13c.16-.06-.06-.24.15-.28-.07,0-.07,0-.11-.05s.17-.13.08-.22.1,0,.12,0-.08,0-.11-.05.19-.23.19-.36a1.39,1.39,0,0,1,.06-.65h0c-.17-.11.22-.12,0-.23,0,0,0-.06.12,0-.12-.08.15-.13,0-.24s0,0,0,0,0-.16.1-.22a.18.18,0,0,0,.08,0c.1,0-.19-.12,0-.09,0,0-.11,0-.11,0,.13-.17,0-.39,0-.59.16-.11.39.06.24-.08,0,0-.09,0,0,0s.27,0,.15-.07-.08,0-.16,0c.11-.07.24-.06.14-.15l.07,0c-.2-.11-.07-.19-.3-.29,0-.44,0-.87,0-1.29a7.34,7.34,0,0,1,.22-1.23c.21-.08.2-.09.13-.2h.07c-.16,0,0-.08-.16-.1a2,2,0,0,0,0-.46s.15.05.14,0l-.1,0h0a.19.19,0,0,0-.16,0c-.11-.41.25-.78.23-1.18.07-.09,0-.23,0-.33.23-.29.42-.56.27-.88C102.17,175.54,102.59,175.59,102.68,175.72Z" style="fill:#95735a"/><path d="M100,189.09a.46.46,0,0,1,.23.07Z" style="fill:#95735a"/><path d="M101.07,188.47h0s.06,0,0,0S101.1,188.48,101.07,188.47Z" style="fill:#95735a"/><path d="M101.2,188.25a.16.16,0,0,1,.1.13Z" style="fill:#95735a"/><path d="M101.56,188.12c.07,0,.1,0,.08,0Z" style="fill:#95735a"/><path d="M101.41,188.05s0,0,.09,0S101.52,188.1,101.41,188.05Z" style="fill:#95735a"/><path d="M101.77,187.64s-.05-.06,0,0S101.87,187.68,101.77,187.64Z" style="fill:#95735a"/><path d="M101.74,187.38s0,0,0,0a.1.1,0,0,1,.09,0Z" style="fill:#95735a"/><polygon points="102.54 183.16 102.57 183.19 102.5 183.18 102.54 183.16" style="fill:#95735a"/><path d="M102.88,181.32s.07,0,.08,0S102.87,181.29,102.88,181.32Z" style="fill:#95735a"/><polygon points="102.67 180.27 102.67 180.28 102.52 180.26 102.67 180.27" style="fill:#95735a"/><path d="M102.24,174.14a2.64,2.64,0,0,1-3.48-1.35,4.35,4.35,0,0,1,.47-4,6.63,6.63,0,0,1,5.6-3.1,1.44,1.44,0,0,1,.76.16c.81.51.53,2.22,1.48,2.26a3.24,3.24,0,0,0,.75-.19c.86-.17,1.53.78,1.69,1.64a5.21,5.21,0,0,1-2.42,5.2,6.76,6.76,0,0,1-5.87.45" style="fill:#cb491f"/><path d="M102.29,174.42c.11-.09-.13-.08.06-.09C102.36,174.39,102.35,174.44,102.29,174.42Z" style="fill:#d2603b"/><path d="M101.57,175.53c.49-.24.93.24,1.41,0,.05,0,0,.21.09.17a2.44,2.44,0,0,1,1.66.08l0,.06c.11,0,.2-.18.31-.17s0,.06,0,.11c0-.12.18-.09.21-.19s.07.13.13.17l0-.14c.08-.35.41-.08.58-.32,0,0,0,.06,0,.09.28-.31.71-.46,1-.74a.3.3,0,0,0,.09.16.29.29,0,0,1,.1-.31c.13.09.08-.21.22-.22v0c0-.18.16,0,.11-.2l.12,0c-.11-.18.17,0,.16-.14l0,0c0-.09.12,0,.14-.11h0c.07-.15.22-.14.1-.25.13,0-.06.15.13.21.24-.5.56-.91.79-1.39.09,0,.12-.05.18,0s.05-.2,0-.27.09,0,.11,0-.13-.16,0-.24a.16.16,0,0,0,.13.09c-.09-.13,0-.23,0-.35s0,.05.08.06c-.11-.15.09-.2,0-.32l.08.06c.14-.14-.18-.09-.09-.21,0,0,.06,0,.1,0-.13-.16-.05-.36-.1-.5h0a1,1,0,0,0,0-.45c0-.06.23,0,.19-.14-.19,0-.09-.25-.3-.15,0-.13.06-.33,0-.41s.21-.1.25,0l.1-.1c.08,0,0,.09.08,0s-.12-.21-.1-.26c-.14-.08-.37-.1-.45-.23.1,0,.17-.12.22-.08a2.76,2.76,0,0,0-.41,0s.12-.08,0-.12-.08,0-.13,0-.14-.14,0-.26.08,0,.1,0-.11,0-.17-.11l0,0c0-.07-.18-.07-.2,0s.07-.09.07,0a.25.25,0,0,1-.25,0s.07,0,.11-.08c-.18,0-.28,0-.37.07s.08-.14.08-.09c-.1-.17-.25.11-.35,0s0,.12,0,.1,0,0-.05,0,0-.06-.05,0,0,0-.12.09,0,0,0-.06a1,1,0,0,1-.66.26.4.4,0,0,1-.2-.07s-.23.15-.3.1l.07-.09c0-.08-.21-.08-.17-.18s0,.08.16.09.26,0,.15,0-.31.08-.21,0c-.11-.05-.29,0-.32-.2,0,0,.16-.05.09-.12s-.07,0-.18-.08l-.09,0c-.09.07-.07-.16-.14,0,.06-.07-.18-.23,0-.31l.14,0c0-.06-.18,0-.26-.08s0,0,.05-.05c-.22.05,0-.19-.22-.19,0-.14-.08-.29,0-.38-.09-.06-.19-.11-.18-.2s0,0,.09,0,0-.07-.07-.1.08-.14.12-.24-.18.06-.24.1c.15-.17-.17,0-.07-.17,0,0,.13,0,.13-.11s0-.08-.11,0-.07,0-.08,0l-.07.17c0-.12-.12.07-.05-.11,0,.06-.07-.08-.09.1-.09-.17-.43.08-.55-.23,0,0-.1,0-.08.09s.06-.07.09,0,0,.05,0,.08-.12,0-.06-.2c-.15-.1-.12.32-.31.26,0-.07,0-.1-.07-.08l-.08.14c-.12,0-.09-.15-.11-.28-.06,0-.14,0-.15.13l-.11-.14c.08.1,0,.09-.06.12l0,0s-.09,0-.12,0,.11.09.15.1-.07.06-.1.13c0-.12-.12-.06-.17-.06s0,.12-.05.12-.09,0-.07-.08.06,0,.07,0-.07-.14-.13,0,.08.23,0,.18a.56.56,0,0,0,0-.13l-.12,0,0,.11s0,0,0,0-.14.08-.12.22-.13,0-.18,0h0c-.08,0-.14,0-.16.12v0a.16.16,0,0,0-.11.13c-.11,0-.2-.37-.23-.21s0,.24,0,.29c-.17,0-.24.24-.44.16,0,.05,0,.07,0,.11-.22.07-.32.36-.59.29,0-.08-.06-.09-.1-.14,0,.11-.12,0,0,.11s.09.12.17.11-.23.24-.34.22c.06,0,.06.05.06.09-.1-.13-.19-.08-.21,0l.06.08-.1,0s.12.17,0,.15l-.09-.06c0,.11,0,.28-.09.28l-.15,0s0,.14.08.12c-.16,0-.22.11-.35.07a1.08,1.08,0,0,1-.25.88l-.06,0c-.1,0,.09.1,0,.11s-.16,0-.21-.12c-.12.06,0,.18,0,.26s0-.08.07,0-.13.09,0,.17a.42.42,0,0,1-.2-.1l0,.09c-.19,0-.2-.3-.42-.31v.07c-.17,0-.08-.23-.2-.1,0,.1.2.24.29.21,0,.15.29.2.22.33s0-.12-.1-.14,0,.16-.05.2.19.06.2.11-.11-.09-.16,0,.1.15.18.1c.17.09-.09.08,0,.18-.14,0-.27-.19-.36-.1.13,0,.13.18.33.18a.22.22,0,0,1-.21,0c-.1,0,.19.2-.06.16l.12.05-.16,0c0,.06.15.2-.05.17,0,0,0,.14.13.11s-.09-.1.11-.11c-.16,0,0,.11,0,.16h-.08s0,.08.09.11a.11.11,0,0,0-.12,0l.11,0c.05.1-.21,0-.18.11l-.09-.08s-.09,0-.06.1l.31.08c0,.05-.12,0,0,.08l-.13-.07s-.18,0-.17.12.19.11.25,0a.1.1,0,0,1-.14.06c0,.08.11,0,.19,0a2.25,2.25,0,0,0-.26.2l-.19-.06v.05c-.15-.05-.1.05-.26,0s0,.08.09.12c.22-.15.34.06.56,0,.09.11-.51.21-.13.26,0,0,.23,0,.14-.08s.23,0,.17.1c-.11,0-.19.15-.34.09.07,0,0-.08,0-.09s-.21.06-.19.15.07.12.17.07,0-.07.09-.08-.09.17.13.12c0-.05.07-.12.15-.15l.07,0-.08,0c0,.13.15,0,.17.06l-.13.12c-.14,0,0-.16-.21,0,0,.07.14,0,.12.12l-.06,0s-.25.21,0,.21.08,0,.15-.08.18,0,.23.1c-.14.1.07.11-.11.16.05-.1-.06-.21-.22-.16s0-.1-.22,0c.06.09-.11.2-.21.29s.07,0,.1,0,.08-.1.18-.17a.24.24,0,0,0,.31.13c0,.07-.11.15-.16.12a1.37,1.37,0,0,1,.32.31c0-.21.15.05.2-.12a.25.25,0,0,1,.09-.27s-.05.07-.07.11,0,.19.11.08c-.13,0-.16.19-.26.3.13,0-.07.09,0,.15a1.56,1.56,0,0,1,.39,0c.06.2.32.13.43.15s0,.25,0,.3,0-.2.08-.1l0,0s.22.16.28-.1l-.05.19s0,0,.07,0,0,.12,0,.16.18,0,.27,0l-.06-.11c.14-.09.24,0,.38-.07l0,.11.07-.09c0,.11.11.15.13,0a1.87,1.87,0,0,1-.16.33c-.08-.05,0-.15,0-.24s-.18,0-.19.08.06,0,.09-.07c0,.15,0,.16-.07.27s.08,0,.08,0a.23.23,0,0,1-.22.12c.07-.07,0-.09,0-.14,0,.13-.1.19-.23.15s-.25.09-.4,0a.82.82,0,0,1,.26-.27c-.08-.08-.1,0-.17-.09-.06.09-.12.25-.25.28l0-.1c-.11,0-.16.17-.29.1s-.44-.23-.59-.34l0-.09c-.2.14-.33-.11-.49-.12-.12-.22-.45-.29-.4-.5a1.84,1.84,0,0,1-.68-1l.16,0c-.13,0,.07-.07,0-.13-.09.12-.18-.05-.28-.09.06-.21-.1-.43-.22-.6l.1,0c-.21-.16,0-.39,0-.59,0,0,.14-.06.13-.12s-.14-.19-.22-.37a1,1,0,0,1,.19-.42c-.12-.52.19-.92.29-1.41l.12,0c0-.55.53-.9.69-1.28l.13.16a.18.18,0,0,0,0-.32c.13-.06.15-.3.32-.24s0-.18.11-.27a1.26,1.26,0,0,0,.47-.37l-.06,0c0,.05.06.12.11.09s.29-.16.08-.3c.29,0,.44-.45.76-.41-.05,0,0-.09,0-.14.2-.11.48-.11.6-.28,0,0,0,.13.08.1s0-.08,0-.14c.3-.27.75-.16,1.06-.28a4.27,4.27,0,0,1,1.78-.34v0c.21-.19.43.18.74,0,.06.06.26.09.18.17a.51.51,0,0,1,.39.16,1.68,1.68,0,0,0,.45.36s0,0-.08,0c.15.33.4.52.39.79,0,0-.06-.06-.11,0s.28.15.07.27c0,0,.12,0,.11,0a2.4,2.4,0,0,0,.08.37.65.65,0,0,0,.1.23.28.28,0,0,0,.19.09c0,.18-.18.43,0,.26,0,.05,0-.1,0,0s0,.06,0,.13,0,.07,0,0,0-.09,0-.18c.09.08.11.2.22,0v.08a.46.46,0,0,1,.15-.13c.24-.13.51-.09.78-.23a2.79,2.79,0,0,1,1.76,1.55,4.3,4.3,0,0,1,.4,2,5.6,5.6,0,0,1-1.34,3.42c-.34.1-.34.12-.49.41,0,0,0-.05,0-.06s-.14.17,0,.3a9.54,9.54,0,0,1-1.05.87c.05-.06,0-.19-.06-.13l0,.14,0,0c0,.05-.05.15,0,.17a6.09,6.09,0,0,1-3.33.87,4.31,4.31,0,0,0-.93,0,16.33,16.33,0,0,0-2.34-.73A.83.83,0,0,1,101.57,175.53Z" style="fill:#d2603b"/><path d="M102.14,174.51c-.06-.06-.16-.08-.13-.2C102,174.38,102.12,174.44,102.14,174.51Z" style="fill:#d2603b"/><path d="M100.09,173.49s0,0,0-.06.08,0,.07,0S100.12,173.47,100.09,173.49Z" style="fill:#d2603b"/><path d="M99.75,173.15a.23.23,0,0,1,.22,0Z" style="fill:#d2603b"/><path d="M99.72,172.65c0-.06.07-.07.09,0A.24.24,0,0,1,99.72,172.65Z" style="fill:#d2603b"/><path d="M99.57,172.72s0-.06,0-.1S99.68,172.66,99.57,172.72Z" style="fill:#d2603b"/><path d="M99.46,171.83s-.08-.06,0-.09S99.56,171.83,99.46,171.83Z" style="fill:#d2603b"/><path d="M99.31,171.42s0,0,0,0a.07.07,0,0,1,.09,0Z" style="fill:#d2603b"/><polygon points="105.29 166.33 105.25 166.35 105.29 166.29 105.29 166.33" style="fill:#d2603b"/><path d="M108.35,168.57c.06,0,0,.07,0,.08S108.39,168.59,108.35,168.57Z" style="fill:#d2603b"/><polygon points="109.41 170.27 109.41 170.25 109.56 170.25 109.41 170.27" style="fill:#d2603b"/><line x1="43.24" y1="65.5" x2="156.76" y2="65.5" style="fill:none;stroke:#c40c27;stroke-miterlimit:10;stroke-width:2px"/><line x1="69.5" y1="76.5" x2="130.5" y2="76.5" style="fill:none;stroke:#c40c27;stroke-miterlimit:10;stroke-width:2px"/><line x1="43.24" y1="87.5" x2="156.76" y2="87.5" style="fill:none;stroke:#c40c27;stroke-miterlimit:10;stroke-width:2px"/><path d="M56.14,232.83H54.51v-.37a1.75,1.75,0,0,0-.26-1,1,1,0,0,0-.89-.41,1.07,1.07,0,0,0-.55.13.94.94,0,0,0-.34.33,1.36,1.36,0,0,0-.17.46,3.07,3.07,0,0,0,0,.55q0,.34,0,.57a1,1,0,0,0,.12.4.91.91,0,0,0,.28.3,2.49,2.49,0,0,0,.5.26l1.25.5a3.1,3.1,0,0,1,.88.49,2,2,0,0,1,.52.66,2.8,2.8,0,0,1,.25.86,8.77,8.77,0,0,1,.06,1.11A5.88,5.88,0,0,1,56,239a2.82,2.82,0,0,1-.47,1.06,2.26,2.26,0,0,1-.87.7,3.1,3.1,0,0,1-1.33.26,2.91,2.91,0,0,1-1.1-.21,2.63,2.63,0,0,1-1.46-1.42,2.64,2.64,0,0,1-.22-1.07v-.61h1.63v.51a1.34,1.34,0,0,0,.26.81,1,1,0,0,0,.89.36,1.44,1.44,0,0,0,.65-.12.83.83,0,0,0,.35-.34,1.39,1.39,0,0,0,.15-.54q0-.32,0-.7a6.85,6.85,0,0,0,0-.74,1.17,1.17,0,0,0-.14-.46.83.83,0,0,0-.29-.29,3.93,3.93,0,0,0-.49-.24l-1.17-.48A2.58,2.58,0,0,1,51,234.36a4,4,0,0,1-.36-1.78,4.15,4.15,0,0,1,.18-1.22,2.84,2.84,0,0,1,.52-1,2.49,2.49,0,0,1,.87-.66,2.88,2.88,0,0,1,1.23-.25,2.73,2.73,0,0,1,1.11.22,2.78,2.78,0,0,1,.86.59,2.65,2.65,0,0,1,.55.82,2.4,2.4,0,0,1,.19.94Z" style="fill:#aca579"/><path d="M58.43,231.09H56.54v-1.54h5.41v1.54H60.06v9.86H58.43Z" style="fill:#aca579"/><path d="M62.67,229.55h4.86v1.54H64.3v3.34h2.82V236H64.3v3.34h3.23v1.63H62.67Z" style="fill:#aca579"/><path d="M71.79,240.94H70.35L68,229.55h1.73l1.3,8h0l1.31-8h1.73Z" style="fill:#aca579"/><path d="M75.1,229.55H80v1.54H76.73v3.34h2.82V236H76.73v3.34H80v1.63H75.1Z" style="fill:#aca579"/><path d="M81,229.55h1.57L85,236.42h0v-6.86h1.63v11.39H85.11l-2.5-6.85h0v6.85H81Z" style="fill:#aca579"/><path d="M91.1,229.55h2.45a3.65,3.65,0,0,1,1.18.18,2.27,2.27,0,0,1,.93.62,2.44,2.44,0,0,1,.58,1,6.57,6.57,0,0,1,.16,1.62,8.09,8.09,0,0,1-.09,1.29,2.7,2.7,0,0,1-.38,1,2.38,2.38,0,0,1-.9.87,3,3,0,0,1-1.47.31h-.83v4.45H91.1ZM92.73,235h.78a1.67,1.67,0,0,0,.77-.14.91.91,0,0,0,.4-.39,1.5,1.5,0,0,0,.15-.6c0-.23,0-.5,0-.78s0-.52,0-.76a1.78,1.78,0,0,0-.14-.62.92.92,0,0,0-.38-.42,1.45,1.45,0,0,0-.74-.15h-.85Z" style="fill:#aca579"/><path d="M97.61,229.55h2.62q2.88,0,2.88,3.34a4.22,4.22,0,0,1-.31,1.7,2.4,2.4,0,0,1-1.1,1.14l1.76,5.2h-1.73l-1.52-4.86h-1v4.86H97.61Zm1.63,5.09h.93a1.65,1.65,0,0,0,.69-.12.88.88,0,0,0,.39-.34,1.47,1.47,0,0,0,.18-.55,6.06,6.06,0,0,0,0-1.52,1.37,1.37,0,0,0-.2-.56.9.9,0,0,0-.42-.34,1.93,1.93,0,0,0-.72-.11h-.85Z" style="fill:#aca579"/><path d="M104.42,229.55h4.86v1.54h-3.23v3.34h2.82V236h-2.82v3.34h3.23v1.63h-4.86Z" style="fill:#aca579"/><path d="M115.62,232.83H114v-.37a1.75,1.75,0,0,0-.26-1,1,1,0,0,0-.89-.41,1.07,1.07,0,0,0-.55.13.94.94,0,0,0-.34.33,1.36,1.36,0,0,0-.17.46,3.07,3.07,0,0,0,0,.55q0,.34,0,.57a1,1,0,0,0,.12.4.91.91,0,0,0,.28.3,2.49,2.49,0,0,0,.5.26l1.25.5a3.1,3.1,0,0,1,.88.49,2,2,0,0,1,.52.66,2.8,2.8,0,0,1,.25.86,8.77,8.77,0,0,1,.06,1.11,5.88,5.88,0,0,1-.14,1.34,2.82,2.82,0,0,1-.47,1.06,2.26,2.26,0,0,1-.87.7,3.1,3.1,0,0,1-1.33.26,2.91,2.91,0,0,1-1.1-.21,2.63,2.63,0,0,1-1.46-1.42,2.64,2.64,0,0,1-.22-1.07v-.61h1.63v.51a1.34,1.34,0,0,0,.26.81,1,1,0,0,0,.89.36,1.44,1.44,0,0,0,.65-.12.83.83,0,0,0,.35-.34,1.39,1.39,0,0,0,.15-.54q0-.32,0-.7a6.85,6.85,0,0,0,0-.74,1.17,1.17,0,0,0-.14-.46.83.83,0,0,0-.29-.29A3.93,3.93,0,0,0,113,236l-1.17-.48a2.58,2.58,0,0,1-1.42-1.14,4,4,0,0,1-.36-1.78,4.15,4.15,0,0,1,.18-1.22,2.84,2.84,0,0,1,.52-1,2.49,2.49,0,0,1,.87-.66,2.88,2.88,0,0,1,1.23-.25,2.73,2.73,0,0,1,1.11.22,2.78,2.78,0,0,1,.86.59,2.65,2.65,0,0,1,.55.82,2.4,2.4,0,0,1,.19.94Z" style="fill:#aca579"/><path d="M122.12,232.83h-1.63v-.37a1.75,1.75,0,0,0-.26-1,1,1,0,0,0-.89-.41,1.07,1.07,0,0,0-.55.13.94.94,0,0,0-.34.33,1.36,1.36,0,0,0-.17.46,3.07,3.07,0,0,0,0,.55q0,.34,0,.57a1,1,0,0,0,.12.4.91.91,0,0,0,.28.3,2.49,2.49,0,0,0,.5.26l1.25.5a3.1,3.1,0,0,1,.88.49,2,2,0,0,1,.52.66,2.8,2.8,0,0,1,.25.86,8.77,8.77,0,0,1,.06,1.11A5.88,5.88,0,0,1,122,239a2.82,2.82,0,0,1-.47,1.06,2.26,2.26,0,0,1-.87.7,3.1,3.1,0,0,1-1.33.26,2.91,2.91,0,0,1-1.1-.21,2.63,2.63,0,0,1-1.46-1.42,2.64,2.64,0,0,1-.22-1.07v-.61h1.63v.51a1.34,1.34,0,0,0,.26.81,1,1,0,0,0,.89.36,1.44,1.44,0,0,0,.65-.12.83.83,0,0,0,.35-.34,1.39,1.39,0,0,0,.15-.54q0-.32,0-.7a6.85,6.85,0,0,0,0-.74,1.17,1.17,0,0,0-.14-.46.83.83,0,0,0-.29-.29,3.93,3.93,0,0,0-.49-.24l-1.17-.48a2.58,2.58,0,0,1-1.42-1.14,4,4,0,0,1-.36-1.78,4.15,4.15,0,0,1,.18-1.22,2.84,2.84,0,0,1,.52-1,2.49,2.49,0,0,1,.87-.66,2.88,2.88,0,0,1,1.23-.25,2.73,2.73,0,0,1,1.11.22,2.78,2.78,0,0,1,.86.59,2.65,2.65,0,0,1,.55.82,2.4,2.4,0,0,1,.19.94Z" style="fill:#aca579"/><path d="M123.34,229.55h4.86v1.54H125v3.46h2.82v1.54H125v4.86h-1.63Z" style="fill:#aca579"/><path d="M129.3,229.55h1.63v11.39H129.3Z" style="fill:#aca579"/><path d="M132.52,229.55h4.86v1.54h-3.23v3.34H137V236h-2.82v3.34h3.23v1.63h-4.86Z" style="fill:#aca579"/><path d="M138.44,229.55h1.63v9.76h3.23v1.63h-4.86Z" style="fill:#aca579"/><path d="M144.36,229.55h2.42a2.79,2.79,0,0,1,2.13.78,3,3,0,0,1,.74,2.17v5.33a3.18,3.18,0,0,1-.78,2.36,3.06,3.06,0,0,1-2.23.76h-2.27Zm1.63,9.86h.75a1.21,1.21,0,0,0,1-.34A1.66,1.66,0,0,0,148,238V232.5a1.72,1.72,0,0,0-.27-1,1.16,1.16,0,0,0-1-.37H146Z" style="fill:#aca579"/></g></g></svg>