<?xml version="1.0" encoding="UTF-8" standalone="no"?>
<svg width="345px" height="16px" viewBox="0 0 345 16" version="1.1" xmlns="http://www.w3.org/2000/svg" xmlns:xlink="http://www.w3.org/1999/xlink" xmlns:sketch="http://www.bohemiancoding.com/sketch/ns">
    <!-- Generator: Sketch 3.5.1 (25234) - http://www.bohemiancoding.com/sketch -->
    <title>logo-group-1</title>
    <desc>Created with Sketch.</desc>
    <defs>
        <path id="path-1" d="M0,0.0667653621 L68.0400682,0.0667653621 L68.0400682,11.5996387 L0,11.5996387 L0,0.0667653621 Z"></path>
        <path id="path-3" d="M0,0.0667653621 L68.0400682,0.0667653621 L68.0400682,11.5996387 L0,11.5996387 L0,0.0667653621 Z"></path>
        <path id="path-5" d="M0,0.0667653621 L68.0400682,0.0667653621 L68.0400682,11.5996387 L0,11.5996387 L0,0.0667653621 Z"></path>
        <path id="path-7" d="M0,0.0667653621 L68.0400682,0.0667653621 L68.0400682,11.5996387 L0,11.5996387 L0,0.0667653621 Z"></path>
        <path id="path-9" d="M14.7913192,0.0667653621 L82.8313874,0.0667653621 L82.8313874,11.5996387 L14.7913192,11.5996387 L14.7913192,0.0667653621 Z"></path>
    </defs>
    <g id="Page-1" stroke="none" stroke-width="1" fill="none" fill-rule="evenodd" sketch:type="MSPage">
        <g id="09-mobile" sketch:type="MSArtboardGroup" transform="translate(-16.000000, -663.000000)">
            <g id="featured" sketch:type="MSLayerGroup" transform="translate(0.000000, 618.000000)">
                <g id="logo-group" transform="translate(16.000000, 45.000000)">
                    <g id="logo-group-1">
                        <g id="mashable" transform="translate(0.000000, 1.936691)">
                            <path d="M8.8860942,0.0667114103 L6.50271668,6.31750042 L4.1005413,0.0667114103 L2.04324533e-05,0.0667114103 L2.04324533e-05,11.3952422 L2.95107961,11.3952422 L2.95107961,3.90410118 L5.85058089,11.3952422 L7.15485247,11.3952422 L10.0355559,3.90410118 L10.0355559,11.3952422 L12.9866151,11.3952422 L12.9866151,0.0667114103 L8.8860942,0.0667114103 Z" id="Fill-1" fill="#000" sketch:type="MSShapeGroup"></path>
                            <g id="Group-19">
                                <g id="Group-4" transform="translate(0.000000, -0.000000)">
                                    <mask id="mask-2" sketch:name="Clip 3" fill="white">
                                        <use xlink:href="#path-1"></use>
                                    </mask>
                                    <g id="Clip-3"></g>
                                    <path d="M18.850804,9.28842415 L18.850804,8.55906315 C18.576328,8.16878926 17.9594042,7.98069977 17.3752403,7.98069977 C16.6902764,7.98069977 16.0545547,8.28728092 16.0545547,8.93301662 C16.0545547,9.57875232 16.6902764,9.88304051 17.3752403,9.88304051 C17.9594042,9.88304051 18.576328,9.68099099 18.850804,9.28842415 L18.850804,9.28842415 Z M18.850804,11.3952422 L18.850804,10.5798955 C18.337064,11.1908323 17.3400965,11.5996522 16.2774046,11.5996522 C15.0082769,11.5996522 13.4295293,10.7332536 13.4295293,8.8982177 C13.4295293,6.91218422 15.0082769,6.24783514 16.2774046,6.24783514 C17.3752403,6.24783514 18.3534781,6.60553563 18.850804,7.21647241 L18.850804,6.40112572 C18.850804,5.6880177 18.233812,5.19557257 17.1688044,5.19557257 C16.3454447,5.19557257 15.5220169,5.51847414 14.853467,6.07829159 L13.8752293,4.26180166 C14.9402368,3.36053671 16.3641745,2.9888762 17.6333022,2.9888762 C19.6226058,2.9888762 21.4922434,3.71830464 21.4922434,6.26644852 L21.4922434,11.3952422 L18.850804,11.3952422 Z" id="Fill-2" fill="#000" sketch:type="MSShapeGroup" mask="url(#mask-2)"></path>
                                </g>
                                <path d="M21.6799086,10.3253307 L22.7777443,8.45778886 C23.3947363,9.00128589 24.715422,9.56110333 25.6936597,9.56110333 C26.4818756,9.56110333 26.8079776,9.34044044 26.8079776,8.98273995 C26.8079776,7.96534374 21.9895284,9.01760631 21.9895284,5.68898209 C21.9895284,4.24415268 23.2586562,2.98748019 25.5388498,2.98748019 C26.9463734,2.98748019 28.1122491,3.42887342 29.003649,4.07460912 L27.9925831,5.92589796 C27.4952572,5.44970582 26.5522314,5.02692597 25.5575796,5.02692597 C24.9382719,5.02692597 24.5277839,5.26390928 24.5277839,5.58674341 C24.5277839,6.48571541 29.3297509,5.5519445 29.3297509,8.91536763 C29.3297509,10.4786213 27.9409571,11.5982562 25.5739936,11.5982562 C24.082084,11.5982562 22.5548944,11.105811 21.6799086,10.3253307" id="Fill-5" fill="#000" sketch:type="MSShapeGroup"></path>
                                <g id="Group-9" transform="translate(0.000000, -0.000000)">
                                    <mask id="mask-4" sketch:name="Clip 8" fill="white">
                                        <use xlink:href="#path-3"></use>
                                    </mask>
                                    <g id="Clip-8"></g>
                                    <path d="M35.2813975,11.3952288 L35.2813975,6.62184256 C35.2813975,5.62069933 34.7488597,5.29779776 33.9090859,5.29779776 C33.137284,5.29779776 32.623544,5.72287057 32.3139243,6.09682404 L32.3139243,11.3952288 L29.6724849,11.3952288 L29.6724849,0.0667653621 L32.3139243,0.0667653621 L32.3139243,4.19448329 C32.8111821,3.61605247 33.7894198,2.98893015 35.1781455,2.98893015 C37.0642652,2.98893015 37.9228369,4.04112528 37.9228369,5.55332701 L37.9228369,11.3952288 L35.2813975,11.3952288 Z" id="Fill-7" fill="#000" sketch:type="MSShapeGroup" mask="url(#mask-4)"></path>
                                </g>
                                <g id="Group-12" transform="translate(0.000000, -0.000000)">
                                    <mask id="mask-6" sketch:name="Clip 11" fill="white">
                                        <use xlink:href="#path-5"></use>
                                    </mask>
                                    <g id="Clip-11"></g>
                                    <path d="M43.7199052,9.28842415 L43.7199052,8.55906315 C43.4454293,8.16878926 42.8285054,7.98069977 42.2443416,7.98069977 C41.5593776,7.98069977 40.9236559,8.28728092 40.9236559,8.93301662 C40.9236559,9.57875232 41.5593776,9.88304051 42.2443416,9.88304051 C42.8285054,9.88304051 43.4454293,9.68099099 43.7199052,9.28842415 L43.7199052,9.28842415 Z M43.7199052,11.3952422 L43.7199052,10.5798955 C43.2061652,11.1908323 42.2091978,11.5996522 41.1465059,11.5996522 C39.8773781,11.5996522 38.2986306,10.7332536 38.2986306,8.8982177 C38.2986306,6.91218422 39.8773781,6.24783514 41.1465059,6.24783514 C42.2443416,6.24783514 43.2225793,6.60553563 43.7199052,7.21647241 L43.7199052,6.40112572 C43.7199052,5.6880177 43.1029132,5.19557257 42.0379057,5.19557257 C41.2145459,5.19557257 40.3911181,5.51847414 39.7225682,6.07829159 L38.7443305,4.26180166 C39.8093381,3.36053671 41.2332757,2.9888762 42.5024035,2.9888762 C44.4917071,2.9888762 46.3613446,3.71830464 46.3613446,6.26644852 L46.3613446,11.3952422 L43.7199052,11.3952422 Z" id="Fill-10" fill="#000" sketch:type="MSShapeGroup" mask="url(#mask-6)"></path>
                                </g>
                                <g id="Group-15" transform="translate(0.000000, -0.000000)">
                                    <mask id="mask-8" sketch:name="Clip 14" fill="white">
                                        <use xlink:href="#path-7"></use>
                                    </mask>
                                    <g id="Clip-14"></g>
                                    <path d="M51.4893727,9.28842415 C52.5356505,9.28842415 53.3238664,8.52419679 53.3238664,7.28613769 C53.3238664,6.06203861 52.5356505,5.29781125 51.4893727,5.29781125 C50.9240067,5.29781125 50.236659,5.6043924 49.9106251,6.04571819 L49.9106251,8.55906315 C50.236659,9.00038894 50.9240067,9.28842415 51.4893727,9.28842415 L51.4893727,9.28842415 Z M47.2691857,11.3952422 L47.2691857,0.06677885 L49.9106251,0.06677885 L49.9106251,4.15963043 C50.5627609,3.34428373 51.4541608,2.9888762 52.3643584,2.9888762 C54.4404319,2.9888762 56.0168637,4.60095621 56.0168637,7.28613769 C56.0168637,10.0711974 54.405288,11.5996522 52.3643584,11.5996522 C51.4377467,11.5996522 50.5979729,11.2256987 49.9106251,10.4452183 L49.9106251,11.3952422 L47.2691857,11.3952422 Z" id="Fill-13" fill="#000" sketch:type="MSShapeGroup" mask="url(#mask-8)"></path>
                                </g>
                                <mask id="mask-10" sketch:name="Clip 17" fill="white">
                                    <use xlink:href="#path-9"></use>
                                </mask>
                                <g id="Clip-17"></g>
                                <path d="M56.3943192,0.0670351211 L59.0357586,0.0670351211 L59.0357586,11.3954985 L56.3943192,11.3954985 L56.3943192,0.0670351211 Z" id="Fill-16" fill="#000" sketch:type="MSShapeGroup" mask="url(#mask-10)"></path>
                                <path d="M63.8034672,5.09446014 C62.6540055,5.09446014 62.2083056,5.77270181 62.1050536,6.36738561 L65.5182948,6.36738561 C65.4502548,5.78895479 65.0209689,5.09446014 63.8034672,5.09446014 M59.4120563,7.28490354 C59.4120563,4.90630321 61.2136538,2.98764205 63.8034672,2.98764205 C66.2572004,2.98764205 68.0400682,4.77155857 68.0400682,7.55668577 L68.0400682,8.15130213 L62.1402655,8.15130213 C62.3279035,8.88066313 63.0152513,9.49389287 64.2140233,9.49389287 C64.798119,9.49389287 65.7598745,9.23836362 66.2384707,8.79703783 L67.3879324,10.5112891 C66.5645045,11.2430105 65.1921929,11.598418 63.9231332,11.598418 C61.3684637,11.598418 59.4120563,9.95147164 59.4120563,7.28490354" id="Fill-18" fill="#000" sketch:type="MSShapeGroup" mask="url(#mask-10)"></path>
                            </g>
                        </g>
                        <g id="tech-crunch" transform="translate(98.376827, 0.216634)" fill="#000" sketch:type="MSShapeGroup">
                            <g id="Layer_1" transform="translate(-0.000000, 0.000000)">
                                <path d="M15.0100849,0 L15.0100849,5.05229833 L10.0067232,5.05229833 L10.0067232,15.156895 L5.00336162,15.156895 L5.00336162,5.05229833 L-3.36619621e-13,5.05229833 L-3.36619621e-13,0 L15.0100849,0 Z" id="Shape"></path>
                                <rect id="Rectangle-path" x="20.0134465" y="0" width="10.0067232" height="5.05229833"></rect>
                                <path d="M30.0201697,10.1045967 L30.0201697,15.156895 L15.0100849,15.156895 L15.0100849,5.05229833 L20.0134465,5.05229833 L20.0134465,10.1045967 L30.0201697,10.1045967 Z" id="Shape"></path>
                            </g>
                        </g>
                        <g id="fast-co" transform="translate(160.080430, 1.135234)" fill="#000" sketch:type="MSShapeGroup">
                            <path d="M38.8045332,3.49756834 C38.8045332,5.1202747 38.6410388,10.1519045 38.6410388,10.1519045 C38.6410388,11.1256202 38.9675659,11.55874 39.8926489,11.55874 L39.8926489,11.9914004 L36.2472766,11.9914004 L36.2472766,11.55874 C37.1723597,11.55874 37.6619194,11.1256202 37.6619194,10.1519045 L37.9884465,1.92860006 C37.7164175,1.27915008 37.4443886,1.06281985 36.7372982,1.00862247 L36.7372982,0.630159391 L39.5116237,0.630159391 L42.4494437,8.31240865 L45.4413,0.630159391 L47.9440584,0.630159391 L47.9440584,1.00862247 C47.236968,1.00862247 46.8559428,1.33334746 46.8559428,2.09073291 L47.1824698,10.0435098 C47.1824698,11.234015 47.4000006,11.55874 48.37912,11.55874 L48.37912,11.9914004 L44.1901517,11.9914004 L44.1901517,11.55874 C45.0062385,11.55874 45.3872637,11.2882124 45.3327655,10.0435098 C45.3327655,10.0435098 45.1692711,4.47128402 45.1152348,3.49756834 L43.102036,9.01605601 C42.8300071,9.71924408 42.5579782,10.5308269 42.3404474,11.3961478 L41.6878551,11.4503452 C41.5243606,10.8555519 41.0892991,9.77344146 41.0892991,9.77344146 C41.0892991,9.77344146 39.4026274,5.06653662 38.8045332,3.49756834" id="Fill-2"></path>
                            <path d="M35.3771536,12.0455978 C35.1591609,11.9914004 34.9416302,11.9914004 34.7240994,11.9914004 C34.2890379,11.9914004 33.5274492,12.2077307 32.6023662,12.2077307 C29.0659902,12.2077307 26.4546973,10.0977072 26.4546973,6.20238514 C26.4546973,2.90231574 28.9029576,0.359631781 32.6568643,0.359631781 C33.5274492,0.359631781 34.5065686,0.521764627 35.3226554,0.846489619 C35.485688,0.683897473 35.5401862,0.575962009 35.7032188,0.413369863 L36.0297459,0.413369863 C35.9752477,1.00862247 35.7577169,2.95651312 35.7577169,2.95651312 L35.4311899,2.95651312 C35.2136591,1.8202053 34.6151031,1.06281985 32.7113625,1.06281985 C30.4261348,1.06281985 28.3588997,2.84811836 28.3588997,6.14818776 C28.3588997,9.88137693 30.4806329,11.5045426 32.8198969,11.5045426 C34.343536,11.5045426 35.2681572,10.6387624 35.8667132,9.55711123 L36.2472766,9.71924408 L35.3771536,12.0455978" id="Fill-3"></path>
                            <path d="M25.0950145,2.73972359 L24.7139893,2.73972359 C24.6594911,1.71181053 24.332964,1.38754484 23.5173391,1.38754484 L21.9396637,1.38754484 L21.9396637,9.88137693 C21.9396637,11.2882124 22.2116927,11.55874 23.1363139,11.55874 L23.1363139,11.9914004 L19.05588,11.9914004 L19.05588,11.55874 C19.9809631,11.55874 20.252992,11.2882124 20.252992,9.82717954 L20.252992,1.38754484 L18.6753167,1.38754484 C17.6416991,1.38754484 17.4782047,1.65807245 17.2061757,2.73972359 L16.8256124,2.73972359 L17.0976413,0.305434399 L17.3696702,0.359631781 C17.4782047,0.630159391 17.6961973,0.630159391 18.3487896,0.630159391 L23.6258736,0.630159391 C24.604993,0.630159391 24.8229856,0.630159391 25.0405163,0.305434399 L25.3670434,0.305434399 L25.0950145,2.73972359" id="Fill-4"></path>
                            <path d="M13.5612653,12.261928 C12.7996767,12.261928 12.2015825,12.1539926 11.7660591,11.9914004 C11.3309976,11.883465 11.0044705,11.7208728 10.8414379,11.6129374 C10.6239071,11.8292676 10.4604127,12.0997952 10.4604127,12.0997952 L10.1338856,11.9914004 L10.4059145,9.44871647 L10.7869398,9.50291385 C11.0044705,10.6929598 11.8205573,11.55874 13.507229,11.55874 C14.8128754,11.55874 15.6829985,10.4766295 15.6829985,9.28658362 C15.6829985,8.31240865 15.3024351,7.82555081 13.9967887,6.85183513 C13.5612653,6.58130752 13.1807019,6.36497729 12.8541748,6.09444968 C11.6570628,5.33706423 10.8959361,4.47128402 10.8959361,3.06444858 C10.8959361,1.44128292 12.2556188,0.359631781 14.0512868,0.359631781 C15.0849044,0.359631781 15.7374967,0.683897473 15.9550274,0.792292237 L16.3360527,0.359631781 L16.6080816,0.413369863 L16.3360527,2.73972359 L15.9550274,2.68598551 C15.9550274,1.60387507 15.3024351,1.11701723 14.2143194,1.11701723 C13.1807019,1.11701723 12.4191133,1.65807245 12.4191133,2.68598551 C12.4191133,3.60550381 13.1262038,4.20075641 13.9422905,4.74181163 C14.3773521,5.01233924 14.7038791,5.22866947 15.0304062,5.4449997 C16.9346087,6.79763775 17.3696702,7.66341796 17.3696702,8.96185863 C17.3696702,10.8555519 15.9005293,12.261928 13.5612653,12.261928" id="Fill-5"></path>
                            <path d="M7.35956007,2.73972359 L6.92449853,2.73972359 C6.92449853,1.76600791 6.48897515,1.38754484 5.61839023,1.38754484 L3.17059177,1.38754484 L3.17059177,5.66132992 L4.74826715,5.66132992 C5.56435392,5.66132992 5.72738654,5.22866947 5.83638284,4.5254814 L6.21694623,4.5254814 L6.21694623,7.5550232 L5.83638284,7.5550232 C5.72738654,6.74344037 5.56435392,6.41917467 4.693769,6.41917467 L3.17059177,6.41917467 L3.17059177,10.0435098 C3.17059177,11.3961478 3.49711885,11.55874 4.36724192,11.55874 L4.36724192,11.9914004 L0.232771778,11.9914004 L0.232771778,11.55874 C1.26638931,11.55874 1.42942193,11.2882124 1.42942193,10.0435098 L1.42942193,2.09073291 C1.42942193,1.33334746 1.1033567,1.00862247 0.232771778,1.00862247 L0.232771778,0.630159391 L5.89041915,0.630159391 C6.87000038,0.630159391 7.08753115,0.575962009 7.25056376,0.251237017 L7.63158899,0.251237017 L7.35956007,2.73972359" id="Fill-6"></path>
                            <path d="M66.0600763,3.38917358 L66.0600763,9.88137693 C66.0600763,11.2882124 66.3866033,11.55874 67.2571883,11.55874 L67.2571883,11.9914004 L60.8374904,11.9914004 L60.8374904,11.55874 C61.3270501,11.55874 61.7625735,11.3961478 61.7625735,11.0718821 C61.7625735,10.8555519 61.7080753,10.4766295 61.599079,10.0977072 L61.1095193,8.52873887 L57.519107,8.52873887 C57.4646089,8.7450691 56.8115547,10.5308269 56.8115547,11.0176847 C56.8115547,11.4503452 57.3015763,11.55874 57.6276415,11.55874 L57.6276415,11.9914004 L54.6357852,11.9914004 L54.6357852,11.55874 C55.1793812,11.55874 55.6149046,11.5045426 55.995468,10.3682348 L58.7702554,1.54967769 C58.6072227,1.17075531 58.3892301,1.06281985 58.0086667,1.00862247 L58.0086667,0.630159391 L60.4564652,0.630159391 L63.3942852,9.88137693 C63.6663141,10.8555519 63.938343,11.3424097 64.3738664,11.55874 C65.0264587,11.3424097 65.1894913,11.1256202 65.1894913,9.88137693 L65.1894913,2.09073291 C64.6999316,1.44128292 64.6458953,1.00862247 63.7208123,1.00862247 L63.7208123,0.630159391 L66.4951378,0.630159391 L71.0651313,8.36660603 L71.0651313,2.46965528 C71.0651313,1.27915008 70.7931024,1.00862247 69.8684812,1.00862247 L69.8684812,0.630159391 L75.9616519,0.630159391 L75.9616519,1.00862247 C75.5806267,1.00862247 75.2540996,1.17075531 75.2540996,1.54967769 C75.2540996,1.8202053 75.3630959,2.09073291 75.4716304,2.4154579 L77.2128002,6.14818776 L78.8994719,2.52339336 C79.171039,2.03653553 79.2255372,1.76600791 79.2255372,1.4954803 C79.2255372,1.17075531 79.0080064,1.00862247 78.5184467,1.00862247 L78.5184467,0.630159391 L81.4017685,0.630159391 L81.4017685,1.00862247 C80.6946781,1.00862247 80.2591547,1.65807245 79.9330895,2.4154579 L77.7023599,6.95977059 L77.7023599,9.93557431 C77.7023599,11.234015 78.028887,11.55874 78.8994719,11.55874 L78.8994719,11.9914004 L74.7645399,11.9914004 L74.7645399,11.55874 C75.6351249,11.55874 75.9616519,11.234015 75.9616519,9.93557431 L75.9616519,7.39289035 L73.5678898,2.36126052 C73.1323664,1.38754484 72.9693338,1.17075531 72.6973049,1.00862247 C72.153247,1.22495269 71.9902144,1.60387507 71.9902144,2.46965528 L71.9902144,10.8013545 C71.9902144,10.8013545 72.0442507,11.4503452 72.0987489,12.2077307 L71.3916584,12.261928 L66.0600763,3.38917358 L66.0600763,3.38917358 Z M59.259815,2.84811836 L57.7366378,7.77135342 L60.8919886,7.77135342 L59.259815,2.84811836 L59.259815,2.84811836 Z" id="Fill-7"></path>
                            <path d="M52.514052,7.77135342 L51.6979652,7.77135342 L51.6979652,10.0977072 C51.6979652,11.2882124 52.0240304,11.55874 52.9491135,11.55874 L52.9491135,11.9914004 L48.7601452,11.9914004 L48.7601452,11.55874 C49.6307301,11.55874 49.9567954,11.234015 49.9567954,10.0435098 L49.9567954,2.4154579 C49.9567954,1.22495269 49.6307301,1.00862247 48.7601452,1.00862247 L48.7601452,0.630159391 L51.915496,0.630159391 C54.9618504,0.630159391 56.7570566,1.54967769 56.7570566,4.03816426 C56.7570566,6.6355049 54.5812871,7.77135342 52.514052,7.77135342 L52.514052,7.77135342 Z M51.9699941,1.38754484 L51.6979652,1.38754484 L51.6979652,6.95977059 L52.1875249,6.95977059 C53.9827311,6.95977059 54.9073523,6.14818776 54.9073523,4.09236164 C54.9073523,2.03653553 54.0917274,1.38754484 51.9699941,1.38754484 L51.9699941,1.38754484 Z" id="Fill-8"></path>
                            <path d="M33.5274492,9.82717954 C31.4597523,9.82717954 30.0455714,8.36660603 30.0455714,6.25658253 C30.0455714,4.25495379 31.5142505,2.68598551 33.5274492,2.68598551 C35.485688,2.68598551 36.9548289,4.20075641 36.9548289,6.25658253 C36.9548289,8.25821126 35.4311899,9.82717954 33.5274492,9.82717954 L33.5274492,9.82717954 Z M33.5274492,3.33497619 C32.1128065,3.33497619 31.6232468,4.68761425 31.6232468,6.25658253 C31.6232468,7.71761534 32.0583083,9.17818886 33.5274492,9.17818886 C34.9416302,9.17818886 35.3771536,7.71761534 35.3771536,6.20238514 C35.3771536,4.74181163 34.8330957,3.33497619 33.5274492,3.33497619 L33.5274492,3.33497619 Z" id="Fill-9"></path>
                            <path d="M9.59028961,9.17818886 L9.59028961,8.79926648 C10.1338856,8.79926648 10.2428819,8.63713364 10.2428819,8.47500079 C10.2428819,8.25821126 10.1883838,8.09607842 10.1338856,7.93394557 C10.1338856,7.93394557 10.0253511,7.50082581 9.91635483,7.17610082 L7.79462161,7.17610082 L7.57709084,7.87974819 C7.52259268,8.04188104 7.46809453,8.20447318 7.46809453,8.42080341 C7.46809453,8.63713364 7.68608715,8.79926648 8.01261422,8.79926648 L8.01261422,9.17818886 L5.89041915,9.17818886 L5.89041915,8.79926648 C6.43447699,8.79926648 6.65246961,8.63713364 6.87000038,8.04188104 L8.50217392,3.17284335 C8.44767576,2.95651312 8.2841813,2.79392097 7.95811607,2.79392097 L7.95811607,2.4154579 L9.69882407,2.4154579 C11.1134668,6.52711014 11.4940302,7.60922058 11.4940302,7.60922058 C11.7660591,8.52873887 12.0380881,8.79926648 12.4736114,8.79926648 L12.4736114,9.17818886 L9.59028961,9.17818886 L9.59028961,9.17818886 Z M8.82823914,3.9302288 L8.01261422,6.58130752 L9.69882407,6.58130752 L8.82823914,3.9302288 L8.82823914,3.9302288 Z" id="Fill-10"></path>
                        </g>
                        <g id="BuzzFeed" transform="translate(273.055325, 0.675934)" fill="#000" sketch:type="MSShapeGroup">
                            <path d="M2.6382503,4.86949699 C3.41024267,4.86949699 4.14292927,4.87065442 4.87578603,4.86833955 C5.01684436,4.86784351 5.16113564,4.86900094 5.29828042,4.84221458 C5.81572119,4.74118698 6.2053757,4.48340953 6.34098908,3.95925655 C6.55708569,3.12358803 6.00901705,2.4016789 5.11927756,2.35885379 C4.70546107,2.33901203 4.29011318,2.3533973 3.87544591,2.35290126 C3.4733701,2.35240522 3.07112413,2.35290126 2.65662702,2.35290126 C2.64828943,2.43937824 2.63893092,2.49228958 2.63893092,2.54503557 C2.63790999,3.30414799 2.6382503,4.06326041 2.6382503,4.86949699 L2.6382503,4.86949699 Z M2.65645687,9.81819564 C2.69065798,9.82960465 2.7248591,9.85093453 2.75906021,9.85109988 C3.58703351,9.85242266 4.4165382,9.88086251 5.24263979,9.84283248 C6.09749755,9.80331432 6.60592012,9.29288522 6.62855071,8.54038672 C6.65135145,7.78441591 6.18172418,7.23926374 5.34456252,7.1415431 C4.81521092,7.07986832 4.27462909,7.10797747 3.73915191,7.10086751 C3.38437913,7.09607242 3.02926605,7.09987542 2.65645687,7.09987542 L2.65645687,9.81819564 L2.65645687,9.81819564 Z M0,0.119546564 C1.99812791,0.122026784 3.9971066,0.0929255452 5.99438374,0.137404142 C7.53394444,0.171631167 8.74017188,1.18785964 8.99982811,2.57579029 C9.29368547,4.14709181 8.45482226,5.48855969 7.16045464,5.84868752 C7.12761476,5.85778165 7.10090045,5.88737894 7.0566602,5.91730692 C8.29028256,6.26056925 9.02671257,7.05407404 9.23396113,8.24276042 C9.57580214,10.2041177 8.46264938,11.8159295 6.35919565,12.043779 C5.89280132,12.0943755 5.41909033,12.0930527 4.94861229,12.0953675 C3.29913158,12.1039656 1.64965087,12.1036349 0,12.1067765 L0,0.119546564 L0,0.119546564 Z" id="Fill-14"></path>
                            <path d="M50.062267,6.90889854 C50.1085491,5.83231807 49.0530789,5.01004274 47.7165129,5.0613006 C46.6048915,5.10396037 45.6166324,6.01883055 45.7352303,6.90889854 L50.062267,6.90889854 L50.062267,6.90889854 Z M47.6453881,12.3266893 C47.3329839,12.2701403 47.0173467,12.2269845 46.7088561,12.1550581 C44.292828,11.5923791 43.0619281,9.57166185 43.27292,7.33896855 C43.449881,5.46937933 44.4195933,4.10261322 46.266964,3.46999198 C48.8458303,2.58653791 51.8366414,3.77919264 52.278023,7.11376465 C52.3362159,7.55441692 52.3333233,8.00250985 52.3610585,8.48681398 L49.0079878,8.48681398 L45.700859,8.48681398 C45.8553596,9.30842792 46.2815974,9.88466551 47.0250037,10.1910553 C48.2331029,10.6889179 49.3646323,10.4407307 50.4316731,9.77338635 C50.4948006,9.73386819 50.5528234,9.68707472 50.6142492,9.64474564 C50.6202047,9.64061195 50.6321155,9.6442496 50.6748243,9.6442496 C51.0013514,10.1110268 51.3382579,10.5933468 51.7170225,11.135192 C51.37348,11.3433651 51.0566517,11.569065 50.7103867,11.7380506 C50.0734973,12.0490701 49.3887943,12.213922 48.6773771,12.2714631 C48.5963834,12.278077 48.5174315,12.3076743 48.4374588,12.3266893 L47.6453881,12.3266893 L47.6453881,12.3266893 Z" id="Fill-16"></path>
                            <path d="M55.2958886,6.90741041 L59.6271793,6.90741041 C59.6828199,5.86389953 58.6521922,5.03501028 57.357144,5.05948178 C56.2079184,5.08114236 55.2130232,5.96443108 55.2958886,6.90741041 L55.2958886,6.90741041 Z M57.2084287,12.3266893 C56.824049,12.251456 56.4335437,12.1983793 56.0564806,12.0973517 C54.2559024,11.6147011 53.0137723,10.1351676 52.8504237,8.32675717 C52.6960933,6.62086242 53.2050263,5.17522534 54.6140783,4.09914091 C56.749351,2.46864482 60.945879,2.83852818 61.7794674,6.69659178 C61.8391918,6.97305355 61.8742437,7.25679062 61.8922801,7.53887421 C61.9115076,7.83848469 61.8965339,8.14024469 61.8965339,8.48664864 L58.5851512,8.48664864 L55.2800642,8.48664864 C55.3375766,8.96896859 55.530362,9.35670952 55.8500828,9.67748454 C56.5819187,10.4114641 57.4951395,10.5495296 58.4820374,10.3813707 C59.1109296,10.2740599 59.6913276,10.0419114 60.2137029,9.60704631 C60.5652427,10.1077199 60.9069136,10.5946696 61.278872,11.1242791 C61.0015197,11.3046737 60.7503712,11.4953198 60.4743801,11.6419835 C59.788486,12.006741 59.0459304,12.199206 58.2686633,12.2698096 C58.1783111,12.278077 58.0900007,12.3071783 58.0006695,12.3266893 L57.2084287,12.3266893 L57.2084287,12.3266893 Z" id="Fill-17"></path>
                            <path d="M13.4109214,12.3266893 C13.1277838,12.2703057 12.8429446,12.2216934 12.562019,12.1565463 C10.8221861,11.7535933 9.79428091,10.4880202 9.79274952,8.74822908 C9.79138828,7.08069506 9.79257936,5.41316103 9.79257936,3.74546165 L9.79257936,3.44667792 L12.144289,3.44667792 L12.144289,3.76513806 C12.144289,5.34106933 12.1490533,6.91716594 12.142077,8.49309721 C12.1390142,9.20789637 12.3639588,9.8132352 13.0610831,10.1242547 C13.8165704,10.4613991 14.5902643,10.4491634 15.2890901,9.96535531 C15.8009158,9.61118001 15.9457175,9.06916945 15.9467385,8.48648329 C15.9498013,6.91964616 15.9479296,5.35297438 15.9479296,3.78613725 L15.9479296,3.44155213 L18.2741159,3.44155213 C18.2741159,3.5404302 18.2742861,3.64542615 18.2742861,3.75042209 C18.2742861,5.39976785 18.2749667,7.0491136 18.2739458,8.69829401 C18.2727547,10.6885872 16.998125,12.0565108 14.9552464,12.2651799 C14.8543446,12.2754315 14.7556548,12.3056901 14.6557739,12.326524 C14.2407664,12.3266893 13.8257588,12.3266893 13.4109214,12.3266893" id="Fill-18"></path>
                            <path d="M35.6173149,12.0793288 L35.6173149,0.127648614 L44.1718479,0.127648614 L44.1718479,1.28690306 C44.1718479,1.54352307 44.1541518,1.80163121 44.1769525,2.05626705 C44.199413,2.30991079 44.0945976,2.35901913 43.8545092,2.35769635 C42.1665735,2.34843687 40.4786378,2.35273591 38.7905319,2.35273591 L38.2567563,2.35273591 L38.2567563,4.86949699 L38.5752861,4.86949699 C39.8483844,4.86949699 41.1214826,4.87660695 42.3944108,4.86354446 C42.6516848,4.86106424 42.7119196,4.94043125 42.7061344,5.17654812 C42.69031,5.80635844 42.7006894,6.43666481 42.7006894,7.09789124 L38.2375288,7.09789124 L38.2375288,12.0791634 C37.3501715,12.0793288 36.4971854,12.0793288 35.6173149,12.0793288" id="Fill-19"></path>
                            <path d="M64.7353968,10.2401636 C65.186307,10.2401636 65.6082909,10.2403289 66.0302749,10.2401636 C67.5490767,10.2398329 68.5053467,9.40813273 68.6755015,7.93967763 C68.7976727,6.88525379 68.2108087,5.83661712 67.2761484,5.46425355 C66.4529394,5.13653392 65.5928068,5.31081065 64.7355669,5.26451323 C64.7353968,6.93882652 64.7353968,8.56667704 64.7353968,10.2401636 L64.7353968,10.2401636 Z M62.4925862,12.0745337 L62.4925862,11.7602073 C62.4925862,9.08553889 62.4925862,6.41087053 62.4927564,3.73620217 C62.4927564,3.38516848 62.4930967,3.38202687 62.866076,3.38533383 C64.1567003,3.39690819 65.4527694,3.3435008 66.7367576,3.440064 C68.5664323,3.57763349 69.9984551,4.37841359 70.6763519,6.13358203 C71.3653087,7.91702496 70.840211,9.95245817 69.4403474,11.0675647 C68.615607,11.7244921 67.645044,12.0479127 66.599783,12.0846199 C65.2724053,12.131248 63.9421351,12.0993359 62.613226,12.100328 C62.5861714,12.100328 62.5591168,12.0892497 62.4925862,12.0745337 L62.4925862,12.0745337 Z" id="Fill-21"></path>
                            <path d="M23.0151394,5.39894111 L19.0304541,5.39894111 L19.0304541,3.43774913 L26.234128,3.43774913 C26.234128,3.80779783 26.2150707,4.17966536 26.2397431,4.54872197 C26.2625439,4.88917339 26.1558568,5.15207662 25.9348257,5.41911356 C24.7367657,6.8680576 23.5575929,8.33138692 22.3722945,9.79008649 C22.3086566,9.86829607 22.2480815,9.94882052 22.1490514,10.0759731 L26.2819415,10.0759731 L26.2819415,12.0748644 L19.0085041,12.0748644 C19.0085041,11.5288855 19.0003367,10.9830719 19.0163312,10.4379197 C19.0192238,10.3443328 19.1158718,10.2469429 19.1841038,10.1626154 C20.4002003,8.65745306 21.6186788,7.15427489 22.8359663,5.65026998 C22.8866725,5.58743776 22.9298918,5.51898372 23.0151394,5.39894111" id="Fill-23"></path>
                            <path d="M26.9258073,5.40109063 C26.9258073,4.78219327 26.9251267,4.21488447 26.9264879,3.64757567 C26.9266581,3.58507415 26.9373778,3.52240728 26.9448646,3.44122144 L34.1264185,3.44122144 C34.1264185,3.96851603 34.1323739,4.48737788 34.1201228,5.00574369 C34.1182511,5.08395327 34.0389589,5.16629655 33.9821272,5.23640408 C32.7454421,6.76124283 31.5068852,8.28459345 30.2695194,9.80877081 C30.2084339,9.88416947 30.1538142,9.96452857 30.0586976,10.0933346 L30.4190855,10.0933346 C31.5880491,10.0933346 32.7571827,10.0979644 33.9261463,10.0892009 C34.1432638,10.0875474 34.2242575,10.1393013 34.2179618,10.3643399 C34.2021374,10.9299952 34.212687,11.4964773 34.212687,12.0798248 L26.9327837,12.0798248 C26.9327837,11.5148309 26.9280193,10.9592618 26.9385689,10.4038581 C26.9399302,10.3344119 27.0149684,10.2616588 27.066185,10.1981652 C28.2536954,8.72904872 29.4427372,7.26092432 30.6310984,5.79246922 C30.7219611,5.68019796 30.8107819,5.56643858 30.9421414,5.40109063 L26.9258073,5.40109063" id="Fill-24"></path>
                        </g>
                    </g>
                </g>
            </g>
        </g>
    </g>
</svg>