<?xml version="1.0" encoding="UTF-8" standalone="no"?>
<svg width="342px" height="16px" viewBox="0 0 342 16" version="1.1" xmlns="http://www.w3.org/2000/svg" xmlns:xlink="http://www.w3.org/1999/xlink" xmlns:sketch="http://www.bohemiancoding.com/sketch/ns">
    <!-- Generator: Sketch 3.5.1 (25234) - http://www.bohemiancoding.com/sketch -->
    <title>logo-group-2</title>
    <desc>Created with Sketch.</desc>
    <defs>
        <path id="path-1" d="M0,0.216715327 L63.8157518,0.216715327 L63.8157518,12.8454592 L0,12.8454592 L0,0.216715327 Z"></path>
        <path id="path-3" d="M0,0.216715327 L63.8157518,0.216715327 L63.8157518,12.8454592 L0,12.8454592 L0,0.216715327 Z"></path>
        <path id="path-5" d="M0,0.216715327 L63.8157518,0.216715327 L63.8157518,12.8454592 L0,12.8454592 L0,0.216715327 Z"></path>
        <path id="path-7" d="M0,0.0500863429 L43.1678734,0.0500863429 L43.1678734,10.8350718 L0,10.8350718 L0,0.0500863429 Z"></path>
        <path id="path-9" d="M0,0.223835616 L119.475499,0.223835616 L119.475499,10.2493151 L0,10.2493151"></path>
    </defs>
    <g id="Page-1" stroke="none" stroke-width="1" fill="none" fill-rule="evenodd" sketch:type="MSPage">
        <g id="09-mobile" sketch:type="MSArtboardGroup" transform="translate(-16.000000, -710.000000)">
            <g id="featured" sketch:type="MSLayerGroup" transform="translate(0.000000, 618.000000)">
                <g id="logo-group" transform="translate(16.000000, 45.000000)">
                    <g id="logo-group-2" transform="translate(0.000000, 47.537671)">
                        <g id="bloomberg" transform="translate(0.339600, 0.992176)">
                            <path d="M1.67998386,5.61947401 L3.2926502,5.61947401 C4.6525065,5.61947401 5.29444984,5.96008586 5.29444984,6.92971085 C5.29444984,8.1454714 4.09201948,8.29008641 3.22554369,8.29008641 L1.67998386,8.29008641 L1.67998386,5.61947401 Z M0.000211026738,9.70308692 L3.39900767,9.70308692 C5.18598209,9.70308692 6.97211241,9.07656 6.97211241,7.05982292 C6.97211241,5.8680958 6.12040849,4.95275324 4.93443822,4.82015496 L4.93443822,4.79280656 C5.90516122,4.5068915 6.57453803,3.81323671 6.57453803,2.76571023 C6.57453803,1.07673954 5.10621399,0.435709687 3.67925118,0.435709687 L0.000211026738,0.435709687 L0.000211026738,9.70308692 Z M1.67998386,1.84829582 L3.06685159,1.84829582 C4.33427818,1.84829582 4.89265493,2.24194699 4.89265493,3.04043731 C4.89265493,3.73492084 4.33427818,4.2064735 3.21330414,4.2064735 L1.67998386,4.2064735 L1.67998386,1.84829582 Z" id="Fill-1" fill="#000" sketch:type="MSShapeGroup"></path>
                            <path d="M10.7396994,6.56191634 C10.7396994,8.53845958 12.2852592,9.85947002 14.2203744,9.85947002 C16.1529573,9.85947002 17.7014715,8.53845958 17.7014715,6.56191634 C17.7014715,4.58495874 16.1533793,3.26270519 14.2203744,3.26270519 C12.2852592,3.26229082 10.7396994,4.58495874 10.7396994,6.56191634 M12.3401262,6.56191634 C12.3401262,5.58027464 13.0470657,4.67777754 14.2203744,4.67777754 C15.3941051,4.67777754 16.0989344,5.58068901 16.0989344,6.56191634 C16.0989344,7.54355805 15.3941051,8.44646951 14.2203744,8.44646951 C13.0466437,8.44646951 12.3401262,7.54355805 12.3401262,6.56191634" id="Fill-3" fill="#000" sketch:type="MSShapeGroup"></path>
                            <path d="M18.4228031,6.56191634 C18.4228031,8.53845958 19.968785,9.85947002 21.9039001,9.85947002 C23.836483,9.85947002 25.3845752,8.53845958 25.3845752,6.56191634 C25.3845752,4.58495874 23.836483,3.26270519 21.9039001,3.26270519 C19.968785,3.26229082 18.4228031,4.58495874 18.4228031,6.56191634 M20.0232299,6.56191634 C20.0232299,5.58027464 20.7301694,4.67777754 21.9039001,4.67777754 C23.0772088,4.67777754 23.7820381,5.58068901 23.7820381,6.56191634 C23.7820381,7.54355805 23.0772088,8.44646951 21.9039001,8.44646951 C20.7301694,8.44646951 20.0232299,7.54355805 20.0232299,6.56191634" id="Fill-5" fill="#000" sketch:type="MSShapeGroup"></path>
                            <path d="M26.3593921,3.41975129 L27.8796287,3.41975129 L27.8796287,4.4026361 L27.9049519,4.4026361 C28.1851954,3.81298808 28.7980171,3.26146208 29.8649683,3.26146208 C30.8521513,3.26146208 31.5346118,3.64061031 31.8667679,4.42749828 C32.333137,3.63025107 33.0130651,3.26146208 33.9719706,3.26146208 C35.6783328,3.26146208 36.2789149,4.45484667 36.2789149,5.96025161 L36.2789149,9.70325266 L34.6780661,9.70325266 L34.6780661,6.14298863 C34.6780661,5.35858688 34.4400279,4.67736318 33.4920958,4.67736318 C32.4930953,4.67736318 32.1183118,5.48869895 32.1183118,6.29879162 L32.1183118,9.70325266 L30.5199953,9.70325266 L30.5199953,5.96025161 C30.5199953,5.18579474 30.2000787,4.67736318 29.4260326,4.67736318 C28.3734313,4.67736318 27.9593968,5.43441653 27.9593968,6.27351507 L27.9593968,9.70325266 L26.3593921,9.70325266 L26.3593921,3.41975129 Z" id="Fill-7" fill="#000" sketch:type="MSShapeGroup"></path>
                            <g id="Group-11">
                                <mask id="mask-2" sketch:name="Clip 10" fill="white">
                                    <use xlink:href="#path-1"></use>
                                </mask>
                                <g id="Clip-10"></g>
                                <path d="M37.5757587,9.7032941 L39.0968394,9.7032941 L39.0968394,8.76143188 L39.1213185,8.76143188 C39.5902199,9.51848524 40.4288402,9.85909709 41.3240156,9.85909709 C43.2950053,9.85909709 44.4826638,8.41916255 44.4826638,6.56195778 C44.4826638,4.70309553 43.2148152,3.26233226 41.3890118,3.26233226 C40.1903799,3.26233226 39.5484366,3.81095767 39.2154364,4.21994052 L39.1757634,4.21994052 L39.1757634,0.216715327 L37.5757587,0.216715327 L37.5757587,9.7032941 Z M42.8826591,6.56195778 C42.8826591,7.54484259 42.1778298,8.44651095 41.0024108,8.44651095 C39.8286801,8.44651095 39.1213185,7.54484259 39.1213185,6.56195778 C39.1213185,5.58031608 39.8286801,4.67533276 41.0024108,4.67533276 C42.1778298,4.67533276 42.8826591,5.58031608 42.8826591,6.56195778 L42.8826591,6.56195778 Z" id="Fill-9" fill="#000" sketch:type="MSShapeGroup" mask="url(#mask-2)"></path>
                            </g>
                            <path d="M51.6873277,7.11145337 L51.6873277,6.68009457 C51.6873277,4.49305155 50.4739239,3.26278806 48.6877936,3.26278806 C46.7505682,3.26278806 45.2066965,4.58504162 45.2066965,6.56199922 C45.2066965,8.53854245 46.7505682,9.8595529 48.6877936,9.8595529 C49.6981896,9.8595529 50.64781,9.50609558 51.3923123,8.60484159 L50.245593,7.75538381 C49.8467525,8.23688134 49.3255164,8.60484159 48.5261471,8.60484159 C47.633504,8.60484159 46.9113705,8.0408845 46.8075454,7.11145337 L51.6873277,7.11145337 Z M46.8075454,5.93340046 C46.9261424,5.02924588 47.5136408,4.44084098 48.4594627,4.44084098 C49.4593074,4.44084098 50.0725511,5.01681479 50.0873229,5.93340046 L46.8075454,5.93340046 Z" id="Fill-12" fill="#000" sketch:type="MSShapeGroup"></path>
                            <path d="M52.7292933,3.41975129 L54.329298,3.41975129 L54.329298,4.41465282 L54.3563095,4.41465282 C54.7036595,3.69489273 55.4084888,3.26146208 56.2492193,3.26146208 C56.4501167,3.26146208 56.6366644,3.30165594 56.8219459,3.35510962 L56.8219459,4.87294565 C56.5564742,4.80830398 56.301976,4.75567904 56.0487439,4.75567904 C54.5428571,4.75567904 54.3284539,6.00044547 54.3284539,6.34147169 L54.3284539,9.70325266 L52.7284492,9.70325266 L52.7284492,3.41975129 L52.7292933,3.41975129 Z" id="Fill-14" fill="#000" sketch:type="MSShapeGroup"></path>
                            <g id="Group-18">
                                <mask id="mask-4" sketch:name="Clip 17" fill="white">
                                    <use xlink:href="#path-3"></use>
                                </mask>
                                <g id="Clip-17"></g>
                                <path d="M62.2947133,3.41975129 L62.2947133,4.36244224 L62.2698121,4.36244224 C61.8009107,3.6024883 60.9601802,3.26146208 60.0675371,3.26146208 C58.0948591,3.26146208 56.9084668,4.70222535 56.9084668,6.56191634 C56.9084668,8.34080525 58.1754714,9.78156853 60.0945485,9.78156853 C60.8960281,9.78156853 61.7219867,9.4815649 62.1908881,8.86664034 L62.213257,8.86664034 L62.213257,9.32534754 C62.213257,10.5676278 61.7367586,11.4328316 60.1886664,11.4328316 C59.2951792,11.4328316 58.6279127,11.1038221 57.9876576,10.5245333 L57.0295962,11.8103223 C57.9332127,12.5988678 59.0149357,12.8454177 60.2025942,12.8454177 C62.6960861,12.8454177 63.815794,11.4042401 63.815794,9.14053868 L63.815794,3.41975129 L62.2947133,3.41975129 Z M60.4022255,4.67736318 C61.5611843,4.67736318 62.2947133,5.43441653 62.2947133,6.52379434 C62.2947133,7.56924896 61.5751121,8.36815365 60.3887198,8.36815365 C59.3099511,8.36815365 58.5084716,7.54355805 58.5084716,6.54865652 C58.5084716,5.43441653 59.2799853,4.67736318 60.4022255,4.67736318 L60.4022255,4.67736318 Z" id="Fill-16" fill="#000" sketch:type="MSShapeGroup" mask="url(#mask-4)"></path>
                            </g>
                            <mask id="mask-6" sketch:name="Clip 20" fill="white">
                                <use xlink:href="#path-5"></use>
                            </mask>
                            <g id="Clip-20"></g>
                            <path d="M9.63210444,0.216715327 L8.03209971,0.216715327 L8.03209971,9.7032941 L9.63210444,9.7032941 L9.63210444,0.216715327 Z" id="Fill-19" fill="#000" sketch:type="MSShapeGroup" mask="url(#mask-6)"></path>
                        </g>
                        <g id="forbes" transform="translate(88.695938, 0.778376)">
                            <g id="Group-13">
                                <mask id="mask-8" sketch:name="Clip 2" fill="white">
                                    <use xlink:href="#path-7"></use>
                                </mask>
                                <g id="Clip-2"></g>
                                <path d="M25.1372859,10.3149949 C24.9487609,10.3149949 24.7051304,10.2840673 24.571216,10.2594347 C24.5185303,9.55039817 24.4869628,6.62573892 24.4899875,4.07171861 C24.7949932,3.96957531 24.9990269,3.94549008 25.2649857,3.94549008 C26.3545039,3.94549008 26.9651752,5.19617069 26.967595,6.77753065 C26.9719397,8.78820993 26.2167399,10.3149949 25.1372859,10.3149949 L25.1372859,10.3149949 Z M26.2917539,3.12588045 C25.6085433,3.12588045 25.060457,3.30832611 24.4911974,3.58563476 C24.496917,1.98046326 24.5154505,0.579578359 24.5557623,0.0500863429 L21.2385367,0.687578746 L21.2385367,0.984757714 L21.561581,1.02575735 C22.0240941,1.08969271 22.2021149,1.35933787 22.2560656,1.97312821 C22.3614372,3.15095099 22.3453785,9.47130007 22.2560656,10.4846864 C23.1495244,10.6841012 24.1161273,10.8383562 25.0839402,10.8383562 C27.7160303,10.8383562 29.300124,9.21895248 29.300124,6.65721395 C29.300124,4.60153906 28.0142166,3.12588045 26.2917539,3.12588045 L26.2917539,3.12588045 Z" id="Fill-1" fill="#000" sketch:type="MSShapeGroup" mask="url(#mask-8)"></path>
                                <path d="M8.72329453,0.283986827 L0,0.283986827 L0,0.700880365 L0.463778025,0.763501979 C1.12971993,0.860445053 1.38517457,1.27115306 1.46326834,2.2057697 C1.61329638,3.99732808 1.59283801,7.20093815 1.46326834,8.74184586 C1.38517457,9.6756414 1.12971993,10.0853641 0.463778025,10.1823619 L0,10.2446004 L0,10.6623697 L5.60630803,10.6623697 L5.60630803,10.2446004 L5.01730499,10.1823619 C4.35141808,10.0853641 4.09590845,9.6756414 4.01841963,8.74184586 C3.96446893,8.10375132 3.9297667,7.03113724 3.91805263,5.770932 L5.07378549,5.80826412 C5.845044,5.83306097 6.1686932,6.40103462 6.35281852,7.24407262 L6.78502906,7.24407262 L6.78502906,3.7325547 L6.35281852,3.7325547 C6.1686932,4.57493582 5.845044,5.14427796 5.07378549,5.16896532 L3.91491788,5.20564057 C3.90617358,3.54676995 3.93785105,1.95331263 4.01841963,0.996198201 L5.74082731,0.996198201 C7.08387524,0.996198201 7.80184299,1.84531225 8.25385196,3.34626036 L8.77097573,3.20426694 L8.72329453,0.283986827" id="Fill-3" fill="#000" sketch:type="MSShapeGroup" mask="url(#mask-8)"></path>
                                <path d="M11.4290238,3.52000249 C10.3334562,3.52000249 10.0265256,4.99582532 10.0265256,6.94163869 C10.0265256,8.8326034 10.511367,10.3594431 11.5282359,10.3594431 C12.6238036,10.3594431 12.9301291,8.8857004 12.9301291,6.94163869 C12.9301291,5.04892232 12.4452878,3.52000249 11.4290238,3.52000249 L11.4290238,3.52000249 Z M11.5573836,3.04174634 C14.0368609,3.04174634 15.2694776,4.71501337 15.2694776,6.92072832 C15.2694776,9.07329155 13.8787485,10.8383562 11.3987212,10.8383562 C8.91979387,10.8383562 7.68778209,9.16585549 7.68778209,6.95899101 C7.68778209,4.80796048 9.07790626,3.04174634 11.5573836,3.04174634 L11.5573836,3.04174634 Z" id="Fill-4" fill="#000" sketch:type="MSShapeGroup" mask="url(#mask-8)"></path>
                                <path d="M32.2186314,6.06936997 L34.543791,6.02125424 C34.55556,4.99648219 34.3918931,3.53193563 33.5548598,3.53193563 C32.712822,3.53193563 32.2391447,4.91617983 32.2186314,6.06936997 L32.2186314,6.06936997 Z M29.9091455,7.00770887 C29.9066157,4.96774413 31.2012125,3.04754869 33.7575737,3.04754869 C35.8365729,3.04754869 36.8292438,4.58172348 36.8404079,6.58802363 L32.2019127,6.58802363 C32.1505468,8.4091959 33.0767829,9.7471855 34.8501166,9.7471855 C35.6300644,9.7471855 36.0505059,9.55472257 36.5223132,9.19492199 L36.7393259,9.4559731 C36.2252819,10.1650096 35.1514375,10.8383562 33.7260062,10.8383562 C31.4913693,10.8383562 29.9108503,9.26460495 29.9091455,7.00770887 L29.9091455,7.00770887 Z" id="Fill-5" fill="#000" sketch:type="MSShapeGroup" mask="url(#mask-8)"></path>
                                <path d="M42.7182843,3.44500982 C42.1664583,3.19255276 41.342404,3.04174634 40.4774879,3.04174634 C38.6119266,3.04174634 37.4802819,4.12996109 37.4802819,5.39947198 C37.4802819,6.70779294 38.3322189,7.22305277 39.5065403,7.63967262 C40.7713295,8.08891701 41.1049879,8.43891927 41.1049879,9.02019455 C41.1049879,9.62008114 40.6629331,10.1816503 39.8704463,10.1816503 C38.933541,10.1816503 38.2280023,9.63425859 37.6849206,8.12416903 L37.3047359,8.2229185 L37.3718305,10.3815578 C37.9893213,10.6303473 39.0428173,10.8383562 39.9920416,10.8383562 C41.9673741,10.8383562 43.1678734,9.87992799 43.1678734,8.31969736 C43.1678734,7.27368651 42.6549843,6.70100529 41.3591226,6.20140086 C39.9591542,5.66112522 39.4743129,5.32168762 39.4743129,4.67582012 C39.4743129,4.02513557 39.9052035,3.57890184 40.5054257,3.57890184 C41.4032841,3.57890184 42.0176951,4.13373809 42.4212529,5.4368041 L42.8013826,5.33958733 L42.7182843,3.44500982" id="Fill-6" fill="#000" sketch:type="MSShapeGroup" mask="url(#mask-8)"></path>
                                <path d="M21.7395468,3.25030259 C20.9031185,2.75223086 19.3778151,2.98864934 18.6058416,4.75666988 L18.6418088,3.03610821 L15.3364623,3.67299848 L15.3364623,3.97017745 L15.6601665,4.01183396 C16.1220197,4.07626196 16.3000405,4.34596187 16.3545411,4.95975221 C16.4593628,6.13697285 16.4431941,8.2426246 16.3545411,9.2560109 C16.3000405,9.87122446 16.1220197,10.1403222 15.6601665,10.2038744 L15.3364623,10.2446004 L15.3364623,10.6618223 L19.9396503,10.6618223 L19.9396503,10.2446004 L19.3400331,10.2038744 C18.87752,10.1403222 18.6988942,9.87122446 18.6443936,9.2560109 C18.5625051,8.32533549 18.5433116,6.47454933 18.6220104,5.26678423 C18.8439727,4.90085286 19.9246915,4.60887411 20.9291864,5.28068798 L21.7395468,3.25030259" id="Fill-7" fill="#000" sketch:type="MSShapeGroup" mask="url(#mask-8)"></path>
                                <path d="M25.1372859,10.3149949 C24.9487609,10.3149949 24.7051304,10.2840673 24.571216,10.2594347 C24.5185303,9.55039817 24.4869628,6.62573892 24.4899875,4.07171861 C24.7949932,3.96957531 24.9990269,3.94549008 25.2649857,3.94549008 C26.3545039,3.94549008 26.9651752,5.19617069 26.967595,6.77753065 C26.9719397,8.78820993 26.2167399,10.3149949 25.1372859,10.3149949 L25.1372859,10.3149949 Z M26.2917539,3.12588045 C25.6085433,3.12588045 25.060457,3.30832611 24.4911974,3.58563476 C24.496917,1.98046326 24.5154505,0.579578359 24.5557623,0.0500863429 L21.2385367,0.687578746 L21.2385367,0.984757714 L21.561581,1.02575735 C22.0240941,1.08969271 22.2021149,1.35933787 22.2560656,1.97312821 C22.3614372,3.15095099 22.3453785,9.47130007 22.2560656,10.4846864 C23.1495244,10.6841012 24.1161273,10.8383562 25.0839402,10.8383562 C27.7160303,10.8383562 29.300124,9.21895248 29.300124,6.65721395 C29.300124,4.60153906 28.0142166,3.12588045 26.2917539,3.12588045 L26.2917539,3.12588045 Z" id="Fill-8" fill="#000" sketch:type="MSShapeGroup" mask="url(#mask-8)"></path>
                                <path d="M8.72329453,0.283986827 L0,0.283986827 L0,0.700880365 L0.463778025,0.763501979 C1.12971993,0.860445053 1.38517457,1.27115306 1.46326834,2.2057697 C1.61329638,3.99732808 1.59283801,7.20093815 1.46326834,8.74184586 C1.38517457,9.6756414 1.12971993,10.0853641 0.463778025,10.1823619 L0,10.2446004 L0,10.6623697 L5.60630803,10.6623697 L5.60630803,10.2446004 L5.01730499,10.1823619 C4.35141808,10.0853641 4.09590845,9.6756414 4.01841963,8.74184586 C3.96446893,8.10375132 3.9297667,7.03113724 3.91805263,5.770932 L5.07378549,5.80826412 C5.845044,5.83306097 6.1686932,6.40103462 6.35281852,7.24407262 L6.78502906,7.24407262 L6.78502906,3.7325547 L6.35281852,3.7325547 C6.1686932,4.57493582 5.845044,5.14427796 5.07378549,5.16896532 L3.91491788,5.20564057 C3.90617358,3.54676995 3.93785105,1.95331263 4.01841963,0.996198201 L5.74082731,0.996198201 C7.08387524,0.996198201 7.80184299,1.84531225 8.25385196,3.34626036 L8.77097573,3.20426694 L8.72329453,0.283986827" id="Fill-9" fill="#000" sketch:type="MSShapeGroup" mask="url(#mask-8)"></path>
                                <path d="M11.4290238,3.52000249 C10.3334562,3.52000249 10.0265256,4.99582532 10.0265256,6.94163869 C10.0265256,8.8326034 10.511367,10.3594431 11.5282359,10.3594431 C12.6238036,10.3594431 12.9301291,8.8857004 12.9301291,6.94163869 C12.9301291,5.04892232 12.4452878,3.52000249 11.4290238,3.52000249 L11.4290238,3.52000249 Z M11.5573836,3.04174634 C14.0368609,3.04174634 15.2694776,4.71501337 15.2694776,6.92072832 C15.2694776,9.07329155 13.8787485,10.8383562 11.3987212,10.8383562 C8.91979387,10.8383562 7.68778209,9.16585549 7.68778209,6.95899101 C7.68778209,4.80796048 9.07790626,3.04174634 11.5573836,3.04174634 L11.5573836,3.04174634 Z" id="Fill-10" fill="#000" sketch:type="MSShapeGroup" mask="url(#mask-8)"></path>
                                <path d="M32.2186314,6.06936997 L34.543791,6.02125424 C34.55556,4.99648219 34.3918931,3.53193563 33.5548598,3.53193563 C32.712822,3.53193563 32.2391447,4.91617983 32.2186314,6.06936997 L32.2186314,6.06936997 Z M29.9091455,7.00770887 C29.9066157,4.96774413 31.2012125,3.04754869 33.7575737,3.04754869 C35.8365729,3.04754869 36.8292438,4.58172348 36.8404079,6.58802363 L32.2019127,6.58802363 C32.1505468,8.4091959 33.0767829,9.7471855 34.8501166,9.7471855 C35.6300644,9.7471855 36.0505059,9.55472257 36.5223132,9.19492199 L36.7393259,9.4559731 C36.2252819,10.1650096 35.1514375,10.8383562 33.7260062,10.8383562 C31.4913693,10.8383562 29.9108503,9.26460495 29.9091455,7.00770887 L29.9091455,7.00770887 Z" id="Fill-11" fill="#000" sketch:type="MSShapeGroup" mask="url(#mask-8)"></path>
                                <path d="M42.7182843,3.44500982 C42.1664583,3.19255276 41.342404,3.04174634 40.4774879,3.04174634 C38.6119266,3.04174634 37.4802819,4.12996109 37.4802819,5.39947198 C37.4802819,6.70779294 38.3322189,7.22305277 39.5065403,7.63967262 C40.7713295,8.08891701 41.1049879,8.43891927 41.1049879,9.02019455 C41.1049879,9.62008114 40.6629331,10.1816503 39.8704463,10.1816503 C38.933541,10.1816503 38.2280023,9.63425859 37.6849206,8.12416903 L37.3047359,8.2229185 L37.3718305,10.3815578 C37.9893213,10.6303473 39.0428173,10.8383562 39.9920416,10.8383562 C41.9673741,10.8383562 43.1678734,9.87992799 43.1678734,8.31969736 C43.1678734,7.27368651 42.6549843,6.70100529 41.3591226,6.20140086 C39.9591542,5.66112522 39.4743129,5.32168762 39.4743129,4.67582012 C39.4743129,4.02513557 39.9052035,3.57890184 40.5054257,3.57890184 C41.4032841,3.57890184 42.0176951,4.13373809 42.4212529,5.4368041 L42.8013826,5.33958733 L42.7182843,3.44500982" id="Fill-12" fill="#000" sketch:type="MSShapeGroup" mask="url(#mask-8)"></path>
                            </g>
                            <path d="M21.7395468,3.25030259 C20.9031185,2.75223086 19.3778151,2.98864934 18.6058416,4.75666988 L18.6418088,3.03610821 L15.3364623,3.67299848 L15.3364623,3.97017745 L15.6601665,4.01183396 C16.1220197,4.07626196 16.3000405,4.34596187 16.3545411,4.95975221 C16.4593628,6.13697285 16.4431941,8.2426246 16.3545411,9.2560109 C16.3000405,9.87122446 16.1220197,10.1403222 15.6601665,10.2038744 L15.3364623,10.2446004 L15.3364623,10.6618223 L19.9396503,10.6618223 L19.9396503,10.2446004 L19.3400331,10.2038744 C18.87752,10.1403222 18.6988942,9.87122446 18.6443936,9.2560109 C18.5625051,8.32533549 18.5433116,6.47454933 18.6220104,5.26678423 C18.8439727,4.90085286 19.9246915,4.60887411 20.9291864,5.28068798 L21.7395468,3.25030259" id="Fill-14" fill="#000" sketch:type="MSShapeGroup"></path>
                        </g>
                        <g id="wsj" transform="translate(153.990829, 1.367417)">
                            <path d="M17.387801,10.1763368 L12.287194,10.1763368 L12.287194,9.8069295 L12.5597874,9.8069295 C12.8982423,9.8069295 13.0976563,9.64796694 13.0976563,9.24152858 L13.0976563,1.26088566 C13.0976563,0.854447306 12.8982423,0.695484749 12.5597874,0.695484749 L12.287194,0.695484749 L12.287194,0.322464658 L17.387801,0.322464658 L17.387801,3.71035416 L17.0502609,3.71035416 L17.0502609,3.67241991 C17.0502609,1.66642082 16.4337241,0.755998904 15.3049312,0.755998904 L14.4679413,0.755998904 L14.4679413,4.84386557 L14.6819912,4.84386557 C15.3186523,4.84386557 15.6159438,4.2423368 15.6159438,2.97334594 L15.6159438,2.93450849 L15.9553135,2.93450849 L15.9553135,7.19849845 L15.6159438,7.19849845 L15.6159438,7.17230575 C15.6159438,5.92860438 15.330544,5.28552858 14.6819912,5.28552858 L14.4679413,5.28552858 L14.4679413,9.74641534 L15.2546203,9.74641534 C16.3706068,9.74641534 17.0502609,8.67251489 17.0502609,6.84263909 L17.0502609,6.80470484 L17.387801,6.80470484 L17.387801,10.1763368 Z" id="Fill-1" fill="#000" sketch:type="MSShapeGroup"></path>
                            <path d="M11.961637,10.1763368 L8.96768309,10.1763368 L8.96768309,9.8069295 L9.23021434,9.8069295 C9.56592502,9.8069295 9.77906014,9.64796694 9.77906014,9.24152858 L9.77906014,5.37223543 L7.59556858,5.37223543 L7.59556858,9.24152858 C7.59556858,9.64977333 7.80778896,9.8069295 8.14532913,9.8069295 L8.40877512,9.8069295 L8.40877512,10.1763368 L5.4139065,10.1763368 L5.4139065,9.8069295 L5.675523,9.8069295 C6.01306317,9.8069295 6.22528355,9.64796694 6.22528355,9.24152858 L6.22528355,1.26088566 C6.22528355,0.854447306 6.01306317,0.695484749 5.675523,0.695484749 L5.4139065,0.695484749 L5.4139065,0.322464658 L8.40877512,0.322464658 L8.40877512,0.695484749 L8.14532913,0.695484749 C7.80778896,0.695484749 7.59556858,0.854447306 7.59556858,1.26088566 L7.59556858,4.84386557 L9.77906014,4.84386557 L9.77906014,1.26088566 C9.77906014,0.854447306 9.56592502,0.695484749 9.23021434,0.695484749 L8.96768309,0.695484749 L8.96768309,0.322464658 L11.961637,0.322464658 L11.961637,0.695484749 L11.7000205,0.695484749 C11.363395,0.695484749 11.1520894,0.854447306 11.1520894,1.26088566 L11.1520894,9.24152858 C11.1520894,9.64977333 11.363395,9.8069295 11.7000205,9.8069295 L11.961637,9.8069295 L11.961637,10.1763368 Z" id="Fill-3" fill="#000" sketch:type="MSShapeGroup"></path>
                            <path d="M5.25062487,3.73437918 L4.91491419,3.73437918 L4.91491419,3.69825132 C4.91491419,2.11133534 4.3047806,0.756540822 3.59311054,0.756540822 L3.29216009,0.756540822 L3.29216009,9.2420705 C3.29216009,9.64941205 3.50620996,9.80747142 3.84192064,9.80747142 L4.15384801,9.80747142 L4.15384801,10.1759755 L1.07390829,10.1759755 L1.07390829,9.80747142 L1.37302926,9.80747142 C1.70873994,9.80747142 1.92004558,9.64760566 1.92004558,9.2420705 L1.92004558,0.756540822 L1.65842908,0.756540822 C0.946759015,0.756540822 0.337540171,2.02553169 0.337540171,3.69825132 L0.337540171,3.73437918 L0,3.73437918 L0,0.323006575 L5.25062487,0.323006575 L5.25062487,3.73437918 Z" id="Fill-5" fill="#000" sketch:type="MSShapeGroup"></path>
                            <path d="M42.9934703,10.1763368 L38.0410516,10.1763368 L38.0410516,9.8069295 L38.3154745,9.8069295 C38.6539295,9.8069295 38.8643203,9.65970849 38.8643203,9.25417333 L38.8643203,1.24733772 C38.8643203,0.842705753 38.6539295,0.695484749 38.3154745,0.695484749 L38.0410516,0.695484749 L38.0410516,0.322464658 L41.0359203,0.322464658 L41.0359203,0.695484749 L40.7724743,0.695484749 C40.4358488,0.695484749 40.2236285,0.842705753 40.2236285,1.24733772 L40.2236285,9.74641534 L40.9618261,9.74641534 C42.3046688,9.74641534 42.6559301,8.23175507 42.6559301,6.82999434 L42.6559301,6.79206009 L42.9934703,6.79206009 L42.9934703,10.1763368 Z" id="Fill-7" fill="#000" sketch:type="MSShapeGroup"></path>
                            <path d="M28.8356268,0.695755708 L28.7359199,0.695755708 C28.254765,0.695755708 28.0086992,0.781559361 27.838557,1.59172648 L26.0173036,10.2488635 L25.4556514,10.2488635 L24.3186259,4.58672557 L24.3076489,4.58672557 L23.1477548,10.2488635 L22.5851879,10.2488635 L20.8023537,1.37044338 C20.6880109,0.805945662 20.5242719,0.695755708 20.0165895,0.695755708 L19.979085,0.695755708 L19.979085,0.322735616 L22.6739179,0.322735616 L22.6739179,0.695755708 L22.6236071,0.695755708 C22.235756,0.695755708 22.1378785,0.805945662 22.1378785,1.06425982 C22.1378785,1.12206438 22.1488554,1.23857671 22.1625766,1.30902603 L23.2977727,7.32160411 L23.321556,7.32160411 L24.0579241,3.36470091 L23.6728173,1.37044338 C23.5767693,0.87820137 23.4633411,0.695755708 23.0599395,0.695755708 L22.9986517,0.695755708 L22.9986517,0.322735616 L25.6669571,0.322735616 L25.6669571,0.695755708 L25.6175609,0.695755708 C25.1428093,0.695755708 25.019319,0.861040639 25.0184043,1.19793288 C25.0184043,1.2909621 25.0330401,1.39392648 25.054994,1.50592283 L26.1911048,7.24754201 L26.2167176,7.24754201 L27.2887964,1.49327808 C27.304347,1.41018402 27.3144092,1.29457489 27.3144092,1.22322237 C27.3144092,0.866459817 27.1817715,0.695755708 26.6521353,0.695755708 L26.5771263,0.695755708 L26.5771263,0.322735616 L28.8356268,0.322735616 L28.8356268,0.695755708 Z" id="Fill-9" fill="#000" sketch:type="MSShapeGroup"></path>
                            <path d="M37.85481,10.1763368 L30.2441481,10.1763368 L30.2441481,9.8069295 L30.3081801,9.8069295 C30.8240952,9.8069295 30.9823457,9.67145005 30.9823457,9.38965279 C30.9823457,9.31017151 30.9658804,9.20449753 30.945756,9.09159799 L30.7060933,7.78828566 L29.0101598,7.78828566 L28.7741561,9.09159799 C28.7522023,9.2135295 28.7357369,9.30294594 28.7357369,9.38965279 C28.7357369,9.69493315 28.8573977,9.8069295 29.3714833,9.8069295 L29.4208794,9.8069295 L29.4208794,10.1763368 L27.2886135,10.1763368 L27.2886135,9.8069295 L27.4011269,9.8069295 C27.838374,9.8069295 28.0871841,9.7066747 28.1987828,9.12682265 L29.9331355,0.224016256 L30.5707114,0.224016256 L32.3535455,9.09159799 C32.4605704,9.62719342 32.7395671,9.8069295 32.9774002,9.8069295 L33.1768142,9.8069295 C33.5143544,9.8069295 33.7265748,9.65970849 33.7265748,9.25417333 L33.7265748,1.24733772 C33.7265748,0.842705753 33.5143544,0.695484749 33.1768142,0.695484749 L32.9151977,0.695484749 L32.9151977,0.322464658 L35.9082368,0.322464658 L35.9082368,0.695484749 L35.6338139,0.695484749 C35.2971885,0.695484749 35.0849681,0.842705753 35.0849681,1.24733772 L35.0849681,9.74641534 L35.8213363,9.74641534 C37.1669232,9.74641534 37.5163551,8.24169023 37.5163551,6.81825279 L37.5163551,6.78031854 L37.85481,6.78031854 L37.85481,10.1763368 Z M30.6073011,7.3330747 L29.8581266,2.97334594 L29.8334285,2.97334594 L29.0851687,7.3330747 L30.6073011,7.3330747 Z" id="Fill-11" fill="#000" sketch:type="MSShapeGroup"></path>
                            <path d="M78.3841455,3.73437918 L78.0456906,3.73437918 L78.0456906,3.69734813 C78.0456906,2.11133534 77.4373865,0.757444018 76.7229722,0.757444018 L76.424766,0.757444018 L76.424766,9.2420705 C76.424766,9.64850886 76.6360716,9.80837461 76.9726971,9.80837461 L77.2489495,9.80837461 L77.2489495,10.1750723 L74.2165764,10.1750723 L74.2165764,9.80837461 L74.5028909,9.80837461 C74.8413459,9.80837461 75.0526515,9.64760566 75.0526515,9.2420705 L75.0526515,0.757444018 L74.791035,0.757444018 C74.0766207,0.757444018 73.4692313,2.02643489 73.4692313,3.69734813 L73.4692313,3.73437918 L73.1307764,3.73437918 L73.1307764,0.323006575 L78.3841455,0.323006575 L78.3841455,3.73437918 Z" id="Fill-13" fill="#000" sketch:type="MSShapeGroup"></path>
                            <path d="M72.6956332,10.1750723 L67.5941114,10.1750723 L67.5941114,9.80837461 L67.8685343,9.80837461 C68.2051598,9.80837461 68.4054885,9.64760566 68.4054885,9.2420705 L68.4054885,1.26142758 C68.4054885,0.854989224 68.2051598,0.69512347 67.8685343,0.69512347 L67.5941114,0.69512347 L67.5941114,0.323006575 L72.6956332,0.323006575 L72.6956332,3.70999288 L72.3590078,3.70999288 L72.3590078,3.67296183 C72.3590078,1.66605954 71.7406415,0.757444018 70.6127634,0.757444018 L69.7766882,0.757444018 L69.7766882,4.84440749 L69.9879939,4.84440749 C70.6255698,4.84440749 70.9246907,4.23745954 70.9246907,2.97208146 L70.9246907,2.93595361 L71.2613161,2.93595361 L71.2613161,7.19904037 L70.9246907,7.19904037 L70.9246907,7.17465406 C70.9246907,5.92824311 70.6383762,5.2869737 69.9879939,5.2869737 L69.7766882,5.2869737 L69.7766882,9.74515087 L70.5615377,9.74515087 C71.6766095,9.74515087 72.3590078,8.6730568 72.3590078,6.84137461 L72.3590078,6.80524676 L72.6956332,6.80524676 L72.6956332,10.1750723 Z" id="Fill-15" fill="#000" sketch:type="MSShapeGroup"></path>
                            <path d="M67.257303,10.1750723 L62.1557813,10.1750723 L62.1557813,9.80837461 L62.4292894,9.80837461 C62.7668296,9.80837461 62.9662436,9.64760566 62.9662436,9.2420705 L62.9662436,1.26142758 C62.9662436,0.854989224 62.7668296,0.69512347 62.4292894,0.69512347 L62.1557813,0.69512347 L62.1557813,0.323006575 L67.257303,0.323006575 L67.257303,3.70999288 L66.9188481,3.70999288 L66.9188481,3.67296183 C66.9188481,1.66605954 66.3032261,0.757444018 65.1726037,0.757444018 L64.3365286,0.757444018 L64.3365286,4.84440749 L64.5496637,4.84440749 C65.1844954,4.84440749 65.4854458,4.23745954 65.4854458,2.97208146 L65.4854458,2.93595361 L65.822986,2.93595361 L65.822986,7.19904037 L65.4854458,7.19904037 L65.4854458,7.17465406 C65.4854458,5.92824311 65.1973018,5.2869737 64.5496637,5.2869737 L64.3365286,5.2869737 L64.3365286,9.74515087 L65.1232076,9.74515087 C66.2391941,9.74515087 66.9188481,8.6730568 66.9188481,6.84137461 L66.9188481,6.80524676 L67.257303,6.80524676 L67.257303,10.1750723 Z" id="Fill-17" fill="#000" sketch:type="MSShapeGroup"></path>
                            <path d="M55.7684967,3.73437918 L55.4337008,3.73437918 L55.4337008,3.69734813 C55.4337008,2.11133534 54.8226525,0.757444018 54.1100677,0.757444018 L53.8127762,0.757444018 L53.8127762,9.2420705 C53.8127762,9.64850886 54.0222523,9.80837461 54.3597925,9.80837461 L54.621409,9.80837461 L54.621409,10.1750723 L51.6027571,10.1750723 L51.6027571,9.80837461 L51.8890716,9.80837461 C52.2275266,9.80837461 52.4388322,9.64760566 52.4388322,9.2420705 L52.4388322,0.757444018 L52.1772157,0.757444018 C51.4637161,0.757444018 50.855412,2.02643489 50.855412,3.69734813 L50.855412,3.73437918 L50.5187866,3.73437918 L50.5187866,0.323006575 L55.7684967,0.323006575 L55.7684967,3.73437918 Z" id="Fill-19" fill="#000" sketch:type="MSShapeGroup"></path>
                            <path d="M50.5057973,7.78918886 C50.5057973,9.53145461 49.4355479,10.2485925 48.1850942,10.2485925 C47.2776692,10.2485925 46.8632906,9.9550537 46.4269582,9.6588053 L46.1909545,10.1745304 L45.929338,10.1745304 L45.929338,6.79206009 L46.2650487,6.79206009 L46.2650487,6.89141169 C46.2650487,9.26681808 47.4770832,9.80783269 48.086302,9.80783269 C48.9717732,9.80783269 49.4199973,9.1638537 49.4199973,8.24169023 C49.4199973,7.11269479 48.7000946,6.28446374 47.6609465,5.51132767 C46.7205907,4.80593132 45.8534143,3.94157242 45.8534143,2.50639342 C45.8534143,1.02063543 46.7782195,0.248402557 47.8859733,0.248402557 C48.8080342,0.248402557 49.236134,0.622325845 49.4821998,0.830964201 L49.7328394,0.348657352 L49.9807348,0.348657352 L49.9807348,3.74738521 L49.6450241,3.74738521 L49.6450241,3.6489368 C49.6450241,1.80551306 49.0833719,0.695484749 47.9747034,0.695484749 C47.299623,0.695484749 46.8998803,1.18230758 46.8998803,1.96447562 C46.8998803,2.88934868 47.4551293,3.41410575 48.4860447,4.20259616 C49.6267292,5.07689023 50.5057973,5.9981505 50.5057973,7.78918886" id="Fill-21" fill="#000" sketch:type="MSShapeGroup"></path>
                            <path d="M62.0805894,8.83201936 C62.0805894,9.65934721 61.7622588,10.2491344 60.9463081,10.2491344 C60.1266983,10.2491344 59.7818402,9.65121845 59.7232967,8.4273874 L59.6363961,6.59299562 C59.5897442,5.62657553 59.2137848,5.35922941 58.6512179,5.35922941 L58.2880649,5.35922941 L58.2880649,9.2420705 C58.2880649,9.64760566 58.4508891,9.80837461 58.7875146,9.80837461 L59.1113336,9.80837461 L59.1113336,10.1750723 L56.0935964,10.1750723 L56.0935964,9.80837461 L56.379911,9.80837461 C56.7174511,9.80837461 56.9287568,9.64760566 56.9287568,9.2420705 L56.9287568,1.26142758 C56.9287568,0.854989224 56.7174511,0.69512347 56.379911,0.69512347 L56.0935964,0.69512347 L56.0935964,0.323006575 L58.825019,0.323006575 C60.4761302,0.323006575 61.5061308,1.15936639 61.5061308,2.71376731 C61.5061308,4.34132712 60.3617873,4.95459744 59.348252,5.15059105 L59.348252,5.17497735 C60.1779239,5.260781 60.9353312,5.87405132 60.9838125,6.80524676 L61.0963259,8.95575726 C61.117365,9.38658192 61.1695054,9.51212621 61.3826405,9.51212621 C61.6305358,9.51212621 61.6927384,9.32697096 61.6927384,8.68479836 L61.6927384,8.328939 L62.0805894,8.328939 L62.0805894,8.83201936 Z M60.0718138,2.73996 C60.0718138,1.19820384 59.455277,0.756540822 58.6137134,0.756540822 L58.2880649,0.756540822 L58.2880649,4.90492164 L58.6631095,4.90492164 C59.5421776,4.90492164 60.0718138,4.31603763 60.0718138,2.73996 L60.0718138,2.73996 Z" id="Fill-23" fill="#000" sketch:type="MSShapeGroup"></path>
                            <g id="Group-27">
                                <mask id="mask-10" sketch:name="Clip 26" fill="white">
                                    <use xlink:href="#path-9"></use>
                                </mask>
                                <g id="Clip-26"></g>
                                <path d="M119.475682,9.57255005 C119.475682,9.94376374 119.198515,10.2490441 118.903053,10.2490441 C118.608506,10.2490441 118.330424,9.94376374 118.330424,9.57255005 C118.330424,9.20404594 118.608506,8.90689434 118.903053,8.90689434 C119.198515,8.90689434 119.475682,9.20404594 119.475682,9.57255005" id="Fill-25" fill="#000" sketch:type="MSShapeGroup" mask="url(#mask-10)"></path>
                            </g>
                            <path d="M107.690774,0.69530411 L107.423669,0.69530411 C107.112656,0.69530411 106.862931,0.927425571 106.862931,1.40792603 L106.862931,10.2131872 L106.375373,10.2131872 L103.258844,2.45563379 L103.234146,2.45563379 L103.234146,9.08961096 C103.234146,9.5737242 103.482956,9.80765205 103.794883,9.80765205 L104.060159,9.80765205 L104.060159,10.175253 L101.960823,10.175253 L101.960823,9.80765205 L102.225184,9.80765205 C102.536197,9.80765205 102.785922,9.5737242 102.785922,9.08961096 L102.785922,1.30947763 C102.785922,0.965359817 102.649625,0.69530411 102.297449,0.69530411 L101.960823,0.69530411 L101.960823,0.323187215 L103.857086,0.323187215 L106.389094,6.66633516 L106.411048,6.66633516 L106.411048,1.40792603 C106.411048,0.923812785 106.162238,0.69530411 105.853055,0.69530411 L105.592353,0.69530411 L105.592353,0.323187215 L107.690774,0.323187215 L107.690774,0.69530411 Z" id="Fill-28" fill="#000" sketch:type="MSShapeGroup"></path>
                            <path d="M84.9721247,0.69530411 L84.6995313,0.69530411 C84.3601616,0.69530411 84.1497707,0.85336347 84.1497707,1.26160822 L84.1497707,8.13312603 C84.1497707,9.67488219 83.1691662,10.2493151 81.9159683,10.2493151 C81.0213496,10.2493151 80.1203278,9.52675799 80.1203278,8.13312603 C80.1203278,7.38527945 80.5914204,7.06283836 80.9692093,7.06283836 C81.3607193,7.06283836 81.6424601,7.33560365 81.6424601,7.79984658 C81.6424601,8.39414977 81.2911988,8.64433516 80.8329126,8.7084621 C80.8329126,9.21786484 81.2280816,9.80765205 81.9031619,9.80765205 C82.5535442,9.80765205 82.7776562,9.45179269 82.7776562,8.39053699 L82.7776562,1.26160822 C82.7776562,0.855169863 82.579157,0.69530411 82.2416168,0.69530411 L81.9287747,0.69530411 L81.9287747,0.323187215 L84.9721247,0.323187215 L84.9721247,0.69530411 Z" id="Fill-30" fill="#000" sketch:type="MSShapeGroup"></path>
                            <path d="M117.746269,10.1750723 L110.117312,10.1750723 L110.117312,9.80837461 L110.193236,9.80837461 C110.708236,9.80837461 110.866487,9.67199196 110.866487,9.38929151 C110.866487,9.30981023 110.848192,9.20413626 110.828982,9.09033352 L110.592064,7.78973078 L108.89796,7.78973078 L108.661956,9.09033352 C108.640002,9.21407142 108.624452,9.30258466 108.624452,9.38929151 C108.624452,9.69366868 108.745198,9.80837461 109.259283,9.80837461 L109.309594,9.80837461 L109.309594,10.1750723 L107.174584,10.1750723 L107.174584,9.80837461 L107.287097,9.80837461 C107.728918,9.80837461 107.977728,9.70631342 108.089327,9.12826776 L109.820021,0.224558174 L110.454853,0.224558174 L112.240431,9.09033352 C112.347456,9.62773534 112.628282,9.80837461 112.868859,9.80837461 L113.068273,9.80837461 C113.403984,9.80837461 113.614375,9.65934721 113.614375,9.25471525 L113.614375,1.24878283 C113.614375,0.842344475 113.403984,0.69512347 113.068273,0.69512347 L112.794765,0.69512347 L112.794765,0.323006575 L115.805184,0.323006575 L115.805184,0.69512347 L115.519785,0.69512347 C115.183159,0.69512347 114.970939,0.842344475 114.970939,1.24878283 L114.970939,9.74515087 L115.706392,9.74515087 C117.051979,9.74515087 117.40324,8.24223215 117.40324,6.82963306 L117.40324,6.79260201 L117.746269,6.79260201 L117.746269,10.1750723 Z M110.492357,7.33271342 L109.743182,2.97208146 L109.719399,2.97208146 L108.972969,7.33271342 L110.492357,7.33271342 Z" id="Fill-32" fill="#000" sketch:type="MSShapeGroup"></path>
                            <path d="M101.910238,8.83201936 C101.910238,9.65934721 101.593737,10.2491344 100.776871,10.2491344 C99.9590912,10.2491344 99.6133184,9.65121845 99.5538601,8.4273874 L99.4669595,6.59299562 C99.4193928,5.62205954 99.0461777,5.35922941 98.4836107,5.35922941 L98.119543,5.35922941 L98.119543,9.2420705 C98.119543,9.64760566 98.2823673,9.80837461 98.6208222,9.80837461 L98.9300053,9.80837461 L98.9300053,10.1750723 L95.9250745,10.1750723 L95.9250745,9.80837461 L96.2132186,9.80837461 C96.549844,9.80837461 96.7593202,9.64760566 96.7593202,9.2420705 L96.7593202,1.26142758 C96.7593202,0.858602009 96.5553325,0.69512347 96.226025,0.69512347 L95.7000478,0.69512347 C95.3890351,0.69512347 95.2015128,0.952534429 95.2015128,1.40774539 L95.2015128,7.97217644 C95.2015128,9.28090795 94.7606067,10.2491344 93.3317781,10.2491344 C91.8105605,10.2491344 90.9241745,9.32968055 90.9241745,7.97217644 L90.9241745,1.26142758 C90.9241745,0.854086027 90.7247605,0.69512347 90.3881351,0.69512347 L90.110968,0.69512347 L90.110968,0.323006575 L93.118643,0.323006575 L93.118643,0.69512347 L92.8442201,0.69512347 C92.5048504,0.69512347 92.3081807,0.854086027 92.3081807,1.26142758 L92.3081807,8.05888329 C92.3081807,9.16710521 92.7509163,9.75779562 93.506494,9.75779562 C94.2712192,9.75779562 94.7395676,9.2682632 94.7395676,8.05888329 L94.7395676,1.40774539 C94.7395676,0.952534429 94.5648517,0.69512347 94.2529243,0.69512347 L93.9419117,0.69512347 L93.9419117,0.323006575 L98.6574119,0.323006575 C100.307608,0.323006575 101.338524,1.15936639 101.338524,2.71376731 C101.338524,4.34132712 100.191436,4.95459744 99.1797302,5.15059105 L99.1797302,5.17497735 C100.010317,5.260781 100.766809,5.87043854 100.816205,6.80524676 L100.927804,8.95575726 C100.949758,9.38658192 101.002813,9.51212621 101.214119,9.51212621 C101.463843,9.51212621 101.525131,9.32697096 101.525131,8.68479836 L101.525131,8.328939 L101.910238,8.328939 L101.910238,8.83201936 Z M99.9042066,2.73996 C99.9042066,1.19820384 99.2876698,0.756540822 98.4461063,0.756540822 L98.119543,0.756540822 L98.119543,4.90492164 L98.4955024,4.90492164 C99.3745704,4.90492164 99.9042066,4.31603763 99.9042066,2.73996 L99.9042066,2.73996 Z" id="Fill-34" fill="#000" sketch:type="MSShapeGroup"></path>
                            <path d="M90.1371296,5.22573699 C90.1371296,8.02564566 89.2077507,10.2493151 87.5044992,10.2493151 C85.8442407,10.2493151 84.9112028,8.02564566 84.9112028,5.22573699 C84.9112028,2.4276347 85.803992,0.249125114 87.5044992,0.249125114 C89.1867116,0.249125114 90.1371296,2.4276347 90.1371296,5.22573699 M88.5912139,7.56772511 L88.5912139,2.91084475 C88.5912139,1.20831963 88.2070219,0.69530411 87.5044992,0.69530411 C86.8019766,0.69530411 86.4452268,1.18212694 86.4452268,2.93613425 L86.4452268,7.55417717 C86.4452268,9.19528493 86.7626427,9.80765205 87.5044992,9.80765205 C88.2335494,9.80765205 88.5912139,9.15554429 88.5912139,7.56772511" id="Fill-36" fill="#000" sketch:type="MSShapeGroup"></path>
                        </g>
                        <g id="google" transform="translate(295.237613, 0.000000)" sketch:type="MSShapeGroup">
                            <path d="M11.4268183,5.39036041 L6.00354102,5.39036041 L6.00354102,6.97610086 L9.8497984,6.97610086 C9.6598094,9.19984028 7.7822929,10.1481908 6.00996875,10.1481908 C3.74258544,10.1481908 1.76407935,8.39022227 1.76407935,5.92628928 C1.76407935,3.52605875 3.65012495,1.67759135 6.01503677,1.67759135 C7.83952446,1.67759135 8.91468665,2.82362652 8.91468665,2.82362652 L10.0415179,1.67381549 C10.0415179,1.67381549 8.59515408,0.0873442259 5.95743438,0.0873442259 C2.59844872,0.0872224239 3.70830829e-05,2.88075167 3.70830829e-05,5.89803122 C3.70830829e-05,8.85453156 2.4443067,11.7375853 6.04297269,11.7375853 C9.20813745,11.7375853 11.5249649,9.60105612 11.5249649,6.44163362 C11.5249649,5.77513298 11.4266947,5.38999501 11.4266947,5.38999501 L11.4268183,5.39036041 Z" id="Fill-1" fill="#000"></path>
                            <path d="M15.891535,5.71273381 C16.9858568,5.71273381 18.022947,6.58459264 18.022947,7.9893353 C18.022947,9.36435826 16.9903067,10.2609429 15.886467,10.2609429 C14.6737265,10.2609429 13.716983,9.30382266 13.716983,7.97837312 C13.716983,6.68142525 14.66186,5.71273381 15.891535,5.71273381 L15.891535,5.71273381 Z M15.8694087,4.24197446 C13.6440529,4.24197446 12.0492331,5.95621604 12.0492331,7.95559614 C12.0492331,9.98457413 13.5960921,11.7307278 15.8956141,11.7307278 C17.9770876,11.7307278 19.682415,10.1630141 19.682415,7.99920126 C19.682415,5.51919041 17.6988408,4.24197446 15.8694087,4.24197446 L15.8694087,4.24197446 Z" id="Fill-3" fill="#000"></path>
                            <path d="M24.199802,5.71273381 C25.2941238,5.71273381 26.331214,6.58459264 26.331214,7.9893353 C26.331214,9.36435826 25.2985737,10.2609429 24.194734,10.2609429 C22.9819935,10.2609429 22.02525,9.30382266 22.02525,7.97837312 C22.02525,6.68142525 22.9701269,5.71273381 24.199802,5.71273381 L24.199802,5.71273381 Z M24.1776757,4.24197446 C21.9523199,4.24197446 20.3575001,5.95621604 20.3575001,7.95559614 C20.3575001,9.98457413 21.9043591,11.7307278 24.2038811,11.7307278 C26.2853546,11.7307278 27.990682,10.1630141 27.990682,7.99920126 C27.990682,5.51919041 26.0071078,4.24197446 24.1776757,4.24197446 L24.1776757,4.24197446 Z" id="Fill-5" fill="#000"></path>
                            <path d="M32.4746818,5.71369605 C33.4761723,5.71369605 34.5044862,6.55632239 34.5044862,7.99529142 C34.5044862,9.45776823 33.4782737,10.263854 32.4525556,10.263854 C31.3635491,10.263854 30.3503156,9.39260415 30.3503156,8.00917685 C30.3503156,6.57154765 31.4027335,5.71369605 32.4746818,5.71369605 L32.4746818,5.71369605 Z M32.3268439,4.24585995 C30.2841841,4.24585995 28.6787338,6.00870053 28.6787338,7.98725248 C28.6787338,10.241077 30.5400574,11.7357095 32.291615,11.7357095 C33.3746883,11.7357095 33.9504649,11.3120821 34.3756843,10.8258485 L34.3756843,11.5642123 C34.3756843,12.8560445 33.5796341,13.6297309 32.3781422,13.6297309 C31.2174417,13.6297309 30.6352373,12.7791874 30.4328873,12.2966078 L28.9724319,12.898188 C29.4904825,13.9777192 30.533506,15.1034135 32.390256,15.1034135 C34.4211729,15.1034135 35.9690208,13.8430062 35.9690208,11.1994153 L35.9690208,4.47107187 L34.3758079,4.47107187 L34.3758079,5.10529497 C33.8858168,4.58507856 33.2158491,4.24598175 32.3268439,4.24598175 L32.3268439,4.24585995 Z" id="Fill-7" fill="#000"></path>
                            <path d="M43.1193314,5.67702146 C43.8136503,5.67702146 44.3132831,6.04072228 44.5255219,6.4768953 L41.1227782,7.8783493 C40.9760528,6.79333694 42.0191999,5.67702146 43.1193314,5.67702146 L43.1193314,5.67702146 Z M43.0529527,4.23695622 C41.1262393,4.23695622 39.508428,5.74742302 39.508428,7.97639992 C39.508428,10.3348524 41.3116547,11.7336267 43.2379973,11.7336267 C44.8457961,11.7336267 45.832577,10.8670054 46.4214563,10.0903957 L45.1078499,9.22913366 C44.7670564,9.75044629 44.1970894,10.2599441 43.2460319,10.2599441 C42.1777919,10.2599441 41.6865647,9.68345518 41.3822362,9.12511474 L46.4775754,7.04181305 L46.2130494,6.43121954 C45.7208333,5.23561095 44.5726174,4.23719982 43.0531999,4.23719982 L43.0529527,4.23695622 Z" id="Fill-9" fill="#000"></path>
                            <path d="M37.0792512,11.5113868 L38.7529343,11.5113868 L38.7529343,0.474540656 L37.0792512,0.474540656 L37.0792512,11.5113868 Z" id="Fill-11" fill="#000"></path>
                        </g>
                    </g>
                </g>
            </g>
        </g>
    </g>
</svg>